<svg width="320" height="116" viewBox="0 0 320 116" fill="none" xmlns="http://www.w3.org/2000/svg">
<path d="M118.654 101.872C120.609 101.579 122.598 100.927 124.501 101.045C141.32 102.17 158.079 104.026 174.948 104.474C188.163 104.821 201.506 103.763 214.811 102.824C230.079 101.747 245.381 101.052 260.626 98.4911C274.53 96.1478 288.601 93.7177 302.073 86.1413C303.737 85.2034 305.386 84.2215 307.008 83.1516C315.838 77.2957 315.186 68.3556 310.477 61.0424C304.399 51.6102 295.873 46.8536 287.233 42.513C270.81 34.2535 253.685 28.6965 236.261 24.254C206.637 16.7112 176.629 11.8067 146.185 9.39314C119.581 7.27594 92.8497 7.84955 65.9796 10.8469C51.9983 12.4103 37.9915 14.9617 24.4025 21.5428C19.8942 23.7304 15.4899 27.0651 11.4503 30.7618C6.44948 35.348 5.74769 42.0734 8.79171 48.4246C13.875 59.0347 21.7721 65.2615 29.5167 71.6191C43.9329 83.447 59.5274 92.3924 75.6797 99.7312C84.9341 103.927 94.5103 107.067 103.911 110.767C106.198 111.669 108.398 112.878 110.81 114.036C98.2753 118.289 87.4846 112.411 76.5519 108.229C61.1446 102.329 46.3684 94.4702 32.64 83.849C22.245 75.8089 12.1541 67.1719 4.57771 54.5117C-2.73616 42.282 1.72277 28.5629 11.1144 21.073C24.8027 10.1485 39.8384 6.80157 54.9039 4.68828C63.027 3.54555 71.1539 2.4453 79.2714 1.74873C87.3669 1.06283 95.4489 0.807924 103.521 0.621328C105.491 0.567561 107.406 1.49725 108.481 1.75625C110.995 1.42072 112.746 1.19437 114.491 0.939198C117.143 0.56851 119.991 1.06548 122.296 1.36922C125.705 1.8105 129.68 -1.18342 132.94 2.57393C134.169 3.98747 137.216 2.47486 139.412 2.55269C145.027 2.73794 150.636 3.02031 156.24 3.34367C162.247 3.69966 168.29 3.89321 174.248 4.64689C177.829 5.09999 181.229 6.75532 184.789 7.41485C187.464 7.91365 190.302 7.38936 192.983 7.84718C197.359 8.58713 201.637 9.913 206.009 10.6803C208.797 11.1682 212.047 10.0771 214.451 11.4293C220.759 14.9594 227.71 14.5488 234.309 16.1389C242.369 18.0739 250.399 20.2835 258.296 22.9623C275.989 28.9537 293.819 34.7142 308.964 48.2996C311.891 50.9316 314.595 54.3682 316.624 58.2205C323.111 70.5776 319.133 85.1791 308.016 91.7677C293.075 100.619 277.585 104.54 261.959 106.374C241.91 108.731 221.86 110.139 201.808 112.245C183.033 114.221 164.472 113.743 146.134 110.826C137.67 109.473 129.404 106.865 121.056 104.733C120.161 104.501 119.396 103.674 118.569 103.117C118.601 102.703 118.632 102.288 118.664 101.874L118.654 101.872Z" fill="#FFB0F3"/>
</svg>
