<svg width="585" height="299" viewBox="0 0 585 299" fill="none" xmlns="http://www.w3.org/2000/svg">
<path d="M559.351 36.5C549.094 36.5 540.238 52.4456 536.135 75.4977C531.509 63.5352 525.185 56.1557 518.211 56.1557C507.954 56.1557 499.098 72.1013 494.995 95.1535C490.369 83.1909 484.045 75.8114 477.07 75.8114C466.813 75.8114 457.957 91.757 453.854 114.809C449.228 102.847 442.904 95.4672 435.93 95.4672C425.673 95.4672 416.817 111.413 412.714 134.465C408.088 122.502 401.764 115.123 394.789 115.123C384.533 115.123 375.676 131.068 371.574 154.121C366.948 142.158 360.624 134.779 353.649 134.779C339.488 134.779 328 165.156 328 202.639C328 240.123 339.488 270.5 353.649 270.5C363.906 270.5 372.762 254.554 376.865 231.502C381.491 243.465 387.815 250.844 394.789 250.844C405.046 250.844 413.902 234.899 418.005 211.847C422.631 223.809 428.955 231.189 435.93 231.189C446.187 231.189 455.043 215.243 459.146 192.191C463.772 204.153 470.096 211.533 477.07 211.533C487.327 211.533 496.183 195.587 500.286 172.535C504.912 184.498 511.236 191.877 518.211 191.877C528.467 191.877 537.324 175.932 541.426 152.879C546.052 164.842 552.376 172.221 559.351 172.221C573.512 172.221 585 141.844 585 104.361C585 66.877 573.527 36.5 559.351 36.5Z" fill="#FF80EB" fill-opacity="0.56"/>
<path d="M328 153C328 162.284 313.725 170.274 311.782 179.026C309.755 188.081 319.553 200.333 315.752 208.704C311.867 217.227 295.311 219.586 289.652 227.12C283.993 234.73 287.794 249.417 280.699 255.885C273.519 262.353 257.217 258.853 248.77 263.951C240.408 268.974 237.705 283.889 228.33 287.466C219.038 290.89 205.524 282.139 195.388 283.889C185.589 285.639 176.805 298.5 166.5 298.5C156.195 298.5 147.326 285.639 137.612 283.889C127.561 282.063 113.962 290.89 104.67 287.466C95.2102 283.965 92.5918 269.05 84.2296 263.951C75.783 258.853 59.4809 262.277 52.3013 255.885C45.1216 249.417 49.0071 234.73 43.3478 227.12C37.773 219.586 21.2176 217.151 17.2476 208.704C13.4467 200.333 23.1603 188.157 21.2176 179.026C19.2749 170.198 5 162.284 5 153C5 143.716 19.2749 135.726 21.2176 126.974C23.2448 117.919 13.4467 105.667 17.2476 97.296C21.1331 88.773 37.6886 86.414 43.3478 78.8802C49.0071 71.2704 45.2061 56.5834 52.3013 50.1151C59.4809 43.6467 75.783 47.1472 84.2296 42.0486C92.5918 37.0261 95.2947 22.1109 104.67 18.5343C113.962 15.1098 127.476 23.8611 137.612 22.1109C147.411 20.3606 156.195 7.5 166.5 7.5C176.805 7.5 185.674 20.3606 195.388 22.1109C205.439 23.9372 219.038 15.1098 228.33 18.5343C237.79 22.0348 240.408 36.95 248.77 42.0486C257.217 47.1472 273.519 43.7228 280.699 50.1151C287.878 56.5834 283.993 71.2704 289.652 78.8802C295.227 86.414 311.782 88.8491 315.752 97.296C319.553 105.667 309.84 117.843 311.782 126.974C313.725 135.802 328 143.716 328 153Z" fill="#FF95EF"/>
<path d="M323 146C323 155.284 308.725 163.274 306.782 172.026C304.755 181.081 314.553 193.333 310.752 201.704C306.867 210.227 290.311 212.586 284.652 220.12C278.993 227.73 282.794 242.417 275.699 248.885C268.519 255.353 252.217 251.853 243.77 256.951C235.408 261.974 232.705 276.889 223.33 280.466C214.038 283.89 200.524 275.139 190.388 276.889C180.589 278.639 171.805 291.5 161.5 291.5C151.195 291.5 142.326 278.639 132.612 276.889C122.561 275.063 108.962 283.89 99.6705 280.466C90.2102 276.965 87.5918 262.05 79.2296 256.951C70.783 251.853 54.4809 255.277 47.3013 248.885C40.1216 242.417 44.0071 227.73 38.3478 220.12C32.773 212.586 16.2176 210.151 12.2476 201.704C8.44665 193.333 18.1603 181.157 16.2176 172.026C14.2749 163.198 0 155.284 0 146C0 136.716 14.2749 128.726 16.2176 119.974C18.2448 110.919 8.44665 98.6668 12.2476 90.296C16.1331 81.773 32.6886 79.414 38.3478 71.8802C44.0071 64.2704 40.2061 49.5834 47.3013 43.1151C54.4809 36.6467 70.783 40.1472 79.2296 35.0486C87.5918 30.0261 90.2947 15.1109 99.6705 11.5343C108.962 8.10983 122.476 16.8611 132.612 15.1109C142.411 13.3606 151.195 0.5 161.5 0.5C171.805 0.5 180.674 13.3606 190.388 15.1109C200.439 16.9372 214.038 8.10983 223.33 11.5343C232.79 15.0348 235.408 29.95 243.77 35.0486C252.217 40.1472 268.519 36.7228 275.699 43.1151C282.878 49.5834 278.993 64.2704 284.652 71.8802C290.227 79.414 306.782 81.8491 310.752 90.296C314.553 98.6668 304.84 110.843 306.782 119.974C308.725 128.802 323 136.716 323 146Z" fill="#FFDBF9"/>
<path d="M112.374 152.874L109 149.5" stroke="#19223F" stroke-width="2.15541" stroke-miterlimit="10" stroke-linecap="round"/>
<path d="M119.999 160.5L116.625 157.126" stroke="#19223F" stroke-width="2.15541" stroke-miterlimit="10" stroke-linecap="round"/>
<path d="M112.374 157.126L109 160.5" stroke="#19223F" stroke-width="2.15541" stroke-miterlimit="10" stroke-linecap="round"/>
<path d="M119.999 149.5L116.625 152.874" stroke="#19223F" stroke-width="2.15541" stroke-miterlimit="10" stroke-linecap="round"/>
<path d="M236.401 194.901L233 191.5" stroke="#19223F" stroke-width="2.17224" stroke-miterlimit="10" stroke-linecap="round"/>
<path d="M244.086 202.586L240.686 199.185" stroke="#19223F" stroke-width="2.17224" stroke-miterlimit="10" stroke-linecap="round"/>
<path d="M236.401 199.185L233 202.586" stroke="#19223F" stroke-width="2.17224" stroke-miterlimit="10" stroke-linecap="round"/>
<path d="M244.086 191.5L240.686 194.901" stroke="#19223F" stroke-width="2.17224" stroke-miterlimit="10" stroke-linecap="round"/>
<path d="M127.889 183.5V158.5H135.5C137.148 158.5 138.454 158.824 139.417 159.472C140.398 160.102 141.102 160.87 141.528 161.778C141.954 162.667 142.167 163.509 142.167 164.306C142.167 165.083 142.009 165.806 141.694 166.472C141.38 167.139 140.944 167.713 140.389 168.194C141.593 168.898 142.565 169.852 143.306 171.056C144.046 172.241 144.417 173.583 144.417 175.083C144.417 176.472 144.065 177.815 143.361 179.111C142.676 180.407 141.648 181.463 140.278 182.278C138.926 183.093 137.25 183.5 135.25 183.5H127.889ZM132.278 179.417H134.833C136 179.417 136.935 179.185 137.639 178.722C138.361 178.259 138.889 177.685 139.222 177C139.556 176.296 139.722 175.602 139.722 174.917C139.722 174.25 139.556 173.574 139.222 172.889C138.907 172.185 138.389 171.602 137.667 171.139C136.963 170.657 136.019 170.417 134.833 170.417H132.278V179.417ZM132.278 167.139H134.806C135.731 167.139 136.481 166.917 137.056 166.472C137.63 166.028 137.917 165.389 137.917 164.556C137.917 163.704 137.63 163.056 137.056 162.611C136.5 162.167 135.787 161.944 134.917 161.944H132.278V167.139ZM155.265 183.889C153.746 183.889 152.357 183.5 151.098 182.722C149.839 181.926 148.83 180.87 148.07 179.556C147.33 178.222 146.959 176.759 146.959 175.167C146.959 173.574 147.33 172.12 148.07 170.806C148.83 169.472 149.839 168.417 151.098 167.639C152.357 166.843 153.746 166.444 155.265 166.444C156.357 166.444 157.367 166.639 158.293 167.028C159.218 167.417 160.005 167.963 160.654 168.667V166.833H164.459V183.5H160.654V181.667C160.005 182.352 159.218 182.898 158.293 183.306C157.367 183.694 156.357 183.889 155.265 183.889ZM155.793 180.028C156.681 180.028 157.478 179.806 158.181 179.361C158.904 178.917 159.478 178.333 159.904 177.611C160.33 176.87 160.543 176.056 160.543 175.167C160.543 174.278 160.33 173.472 159.904 172.75C159.478 172.009 158.904 171.417 158.181 170.972C157.478 170.528 156.691 170.306 155.82 170.306C154.931 170.306 154.126 170.528 153.404 170.972C152.7 171.417 152.135 172.009 151.709 172.75C151.283 173.472 151.07 174.278 151.07 175.167C151.07 176.056 151.283 176.87 151.709 177.611C152.135 178.333 152.7 178.917 153.404 179.361C154.126 179.806 154.922 180.028 155.793 180.028ZM154.043 164.583L156.598 159.083H161.404L157.515 164.583H154.043ZM173.746 184C172.69 184 171.607 183.824 170.496 183.472C169.385 183.102 168.496 182.583 167.829 181.917L168.94 177.694C169.477 178.472 170.199 179.139 171.107 179.694C172.033 180.231 172.986 180.5 173.968 180.5C174.709 180.5 175.246 180.352 175.579 180.056C175.931 179.741 176.107 179.361 176.107 178.917C176.107 178.417 175.931 178.056 175.579 177.833C175.227 177.593 174.875 177.407 174.523 177.278L172.218 176.417C171.736 176.213 171.172 175.944 170.523 175.611C169.875 175.259 169.31 174.769 168.829 174.139C168.366 173.491 168.135 172.648 168.135 171.611C168.135 170.667 168.366 169.796 168.829 169C169.292 168.204 169.959 167.565 170.829 167.083C171.718 166.583 172.783 166.333 174.023 166.333C175.135 166.333 176.19 166.528 177.19 166.917C178.209 167.287 178.977 167.75 179.496 168.306L178.468 172.417C177.875 171.602 177.162 170.972 176.329 170.528C175.496 170.065 174.69 169.833 173.912 169.833C173.264 169.833 172.783 169.981 172.468 170.278C172.153 170.556 171.996 170.889 171.996 171.278C171.996 171.574 172.107 171.852 172.329 172.111C172.551 172.37 172.912 172.593 173.412 172.778L175.579 173.611C176.153 173.815 176.783 174.102 177.468 174.472C178.153 174.824 178.736 175.324 179.218 175.972C179.718 176.62 179.968 177.509 179.968 178.639C179.968 180.231 179.385 181.528 178.218 182.528C177.07 183.509 175.579 184 173.746 184ZM183.177 183.5V166.833H187.538V183.5H183.177ZM185.372 164.278C184.686 164.278 184.103 164.046 183.622 163.583C183.159 163.102 182.927 162.519 182.927 161.833C182.927 161.13 183.159 160.546 183.622 160.083C184.103 159.62 184.686 159.389 185.372 159.389C186.075 159.389 186.659 159.62 187.122 160.083C187.584 160.546 187.816 161.13 187.816 161.833C187.816 162.519 187.584 163.102 187.122 163.583C186.659 164.046 186.075 164.278 185.372 164.278ZM199.693 184C198.045 184 196.535 183.602 195.165 182.806C193.813 182.009 192.739 180.944 191.943 179.611C191.146 178.259 190.748 176.778 190.748 175.167C190.748 173.537 191.146 172.056 191.943 170.722C192.739 169.389 193.813 168.324 195.165 167.528C196.535 166.731 198.045 166.333 199.693 166.333C200.859 166.333 201.961 166.528 202.998 166.917C204.035 167.306 204.952 167.87 205.748 168.611L204.582 173.222C204.119 172.426 203.48 171.741 202.665 171.167C201.85 170.574 200.906 170.278 199.832 170.278C198.906 170.278 198.072 170.5 197.332 170.944C196.609 171.389 196.035 171.981 195.609 172.722C195.183 173.444 194.97 174.259 194.97 175.167C194.97 176.056 195.183 176.87 195.609 177.611C196.035 178.352 196.609 178.944 197.332 179.389C198.072 179.833 198.906 180.056 199.832 180.056C200.906 180.056 201.85 179.769 202.665 179.194C203.48 178.602 204.119 177.907 204.582 177.111L205.748 181.722C204.952 182.463 204.035 183.028 202.998 183.417C201.961 183.806 200.859 184 199.693 184ZM216.568 184C214.92 184 213.41 183.602 212.04 182.806C210.688 182.009 209.614 180.944 208.818 179.611C208.021 178.278 207.623 176.796 207.623 175.167C207.623 173.537 208.021 172.056 208.818 170.722C209.614 169.389 210.688 168.324 212.04 167.528C213.41 166.731 214.91 166.333 216.54 166.333C218.207 166.333 219.716 166.731 221.068 167.528C222.42 168.324 223.494 169.389 224.29 170.722C225.105 172.037 225.512 173.519 225.512 175.167C225.512 176.778 225.105 178.259 224.29 179.611C223.494 180.944 222.42 182.009 221.068 182.806C219.716 183.602 218.216 184 216.568 184ZM216.54 180.056C217.447 180.056 218.262 179.833 218.984 179.389C219.707 178.944 220.281 178.352 220.707 177.611C221.133 176.87 221.345 176.056 221.345 175.167C221.345 174.259 221.133 173.444 220.707 172.722C220.281 171.981 219.707 171.389 218.984 170.944C218.262 170.5 217.447 170.278 216.54 170.278C215.651 170.278 214.845 170.5 214.123 170.944C213.401 171.389 212.827 171.981 212.401 172.722C211.975 173.444 211.762 174.259 211.762 175.167C211.762 176.056 211.975 176.87 212.401 177.611C212.827 178.352 213.401 178.944 214.123 179.389C214.845 179.833 215.651 180.056 216.54 180.056Z" fill="#121212"/>
</svg>
