<svg width="366" height="148" viewBox="0 0 366 148" fill="none" xmlns="http://www.w3.org/2000/svg">
<path d="M127.5 84C127.5 88.0518 121.887 91.539 121.123 95.3583C120.326 99.3104 124.179 104.657 122.684 108.311C121.157 112.03 114.647 113.06 112.422 116.348C110.197 119.669 111.691 126.079 108.902 128.902C106.079 131.725 99.6689 130.197 96.3478 132.422C93.0599 134.614 91.9971 141.123 88.3107 142.684C84.6574 144.179 79.3436 140.36 75.3583 141.123C71.5058 141.887 68.0518 147.5 64 147.5C59.9482 147.5 56.461 141.887 52.6417 141.123C48.6896 140.326 43.3426 144.179 39.6893 142.684C35.9697 141.157 34.9401 134.647 31.6522 132.422C28.3311 130.197 21.9213 131.691 19.0983 128.902C16.2754 126.079 17.8031 119.669 15.5779 116.348C13.386 113.06 6.87657 111.997 5.31564 108.311C3.82113 104.657 7.64043 99.3436 6.87657 95.3583C6.11271 91.5058 0.5 88.0518 0.5 84C0.5 79.9482 6.11271 76.461 6.87657 72.6417C7.67364 68.6896 3.82113 63.3426 5.31564 59.6893C6.84336 55.9697 13.3528 54.9401 15.5779 51.6522C17.8031 48.3311 16.3086 41.9213 19.0983 39.0983C21.9213 36.2754 28.3311 37.8031 31.6522 35.5779C34.9401 33.386 36.0029 26.8766 39.6893 25.3156C43.3426 23.8211 48.6564 27.6404 52.6417 26.8766C56.4942 26.1127 59.9482 20.5 64 20.5C68.0518 20.5 71.539 26.1127 75.3583 26.8766C79.3104 27.6736 84.6574 23.8211 88.3107 25.3156C92.0303 26.8434 93.0599 33.3528 96.3478 35.5779C99.6689 37.8031 106.079 36.3086 108.902 39.0983C111.725 41.9213 110.197 48.3311 112.422 51.6522C114.614 54.9401 121.123 56.0029 122.684 59.6893C124.179 63.3426 120.36 68.6564 121.123 72.6417C121.887 76.4942 127.5 79.9482 127.5 84Z" fill="#BFB4FF"/>
<path d="M90.9007 53.9007L87.5 50.5" stroke="#19223F" stroke-width="2.17224" stroke-miterlimit="10" stroke-linecap="round"/>
<path d="M98.5862 61.586L95.1855 58.1853" stroke="#19223F" stroke-width="2.17224" stroke-miterlimit="10" stroke-linecap="round"/>
<path d="M90.9007 58.1853L87.5 61.586" stroke="#19223F" stroke-width="2.17224" stroke-miterlimit="10" stroke-linecap="round"/>
<path d="M98.5862 50.5L95.1855 53.9007" stroke="#19223F" stroke-width="2.17224" stroke-miterlimit="10" stroke-linecap="round"/>
<path d="M31.3763 105.874L28.002 102.5" stroke="#19223F" stroke-width="2.15541" stroke-miterlimit="10" stroke-linecap="round"/>
<path d="M39.0013 113.5L35.627 110.126" stroke="#19223F" stroke-width="2.15541" stroke-miterlimit="10" stroke-linecap="round"/>
<path d="M31.3763 110.126L28.002 113.5" stroke="#19223F" stroke-width="2.15541" stroke-miterlimit="10" stroke-linecap="round"/>
<path d="M39.0013 102.5L35.627 105.874" stroke="#19223F" stroke-width="2.15541" stroke-miterlimit="10" stroke-linecap="round"/>
<g clip-path="url(#clip0_3021_992)">
<path d="M59.9152 103.641L45.2937 86.8961M55.9804 74.873L71.8252 92.9561C72.5321 93.7469 72.896 94.786 72.8369 95.845C72.7778 96.904 72.3005 97.8962 71.51 98.6033C70.7193 99.3103 69.6801 99.6742 68.6211 99.6151C67.5621 99.556 66.5699 99.0787 65.8628 98.2881L50.0179 80.205C48.6041 78.6235 47.8763 76.5453 47.9945 74.4272C48.1127 72.3092 49.0673 70.3249 50.6484 68.9106C52.2298 67.4967 54.3081 66.7689 56.4261 66.8871C58.5441 67.0054 60.5285 67.9599 61.9428 69.541L77.7897 87.6223C79.9114 89.9948 81.0037 93.113 80.8264 96.291C80.649 99.4689 79.2164 102.446 76.8439 104.568C74.4713 106.69 71.3531 107.782 68.1752 107.605C64.9972 107.427 62.02 105.995 59.8983 103.622" stroke="black" stroke-width="4" stroke-linecap="round" stroke-linejoin="round"/>
</g>
<path d="M258.742 12.9837C262.189 12.9837 264.984 10.1891 264.984 6.74183C264.984 3.29456 262.189 0.5 258.742 0.5C255.295 0.5 252.5 3.29456 252.5 6.74183C252.5 10.1891 255.295 12.9837 258.742 12.9837Z" fill="#704FE6" fill-opacity="0.8"/>
<path d="M286.027 12.9837C289.474 12.9837 292.269 10.1891 292.269 6.74183C292.269 3.29456 289.474 0.5 286.027 0.5C282.58 0.5 279.785 3.29456 279.785 6.74183C279.785 10.1891 282.58 12.9837 286.027 12.9837Z" fill="#704FE6" fill-opacity="0.8"/>
<path d="M313.31 12.9837C316.758 12.9837 319.552 10.1891 319.552 6.74183C319.552 3.29456 316.758 0.5 313.31 0.5C309.863 0.5 307.068 3.29456 307.068 6.74183C307.068 10.1891 309.863 12.9837 313.31 12.9837Z" fill="#704FE6" fill-opacity="0.8"/>
<path d="M340.642 12.9837C344.089 12.9837 346.884 10.1891 346.884 6.74183C346.884 3.29456 344.089 0.5 340.642 0.5C337.195 0.5 334.4 3.29456 334.4 6.74183C334.4 10.1891 337.195 12.9837 340.642 12.9837Z" fill="#704FE6" fill-opacity="0.8"/>
<path d="M367.927 12.9837C371.375 12.9837 374.169 10.1891 374.169 6.74183C374.169 3.29456 371.375 0.5 367.927 0.5C364.48 0.5 361.686 3.29456 361.686 6.74183C361.686 10.1891 364.48 12.9837 367.927 12.9837Z" fill="#704FE6" fill-opacity="0.8"/>
<path d="M258.742 35.4673C262.189 35.4673 264.984 32.6727 264.984 29.2255C264.984 25.7782 262.189 22.9836 258.742 22.9836C255.295 22.9836 252.5 25.7782 252.5 29.2255C252.5 32.6727 255.295 35.4673 258.742 35.4673Z" fill="#704FE6" fill-opacity="0.8"/>
<path d="M286.027 35.4673C289.474 35.4673 292.269 32.6727 292.269 29.2255C292.269 25.7782 289.474 22.9836 286.027 22.9836C282.58 22.9836 279.785 25.7782 279.785 29.2255C279.785 32.6727 282.58 35.4673 286.027 35.4673Z" fill="#704FE6" fill-opacity="0.8"/>
<path d="M313.31 35.4673C316.758 35.4673 319.552 32.6727 319.552 29.2255C319.552 25.7782 316.758 22.9836 313.31 22.9836C309.863 22.9836 307.068 25.7782 307.068 29.2255C307.068 32.6727 309.863 35.4673 313.31 35.4673Z" fill="#704FE6" fill-opacity="0.8"/>
<path d="M340.642 35.4673C344.089 35.4673 346.884 32.6727 346.884 29.2255C346.884 25.7782 344.089 22.9836 340.642 22.9836C337.195 22.9836 334.4 25.7782 334.4 29.2255C334.4 32.6727 337.195 35.4673 340.642 35.4673Z" fill="#704FE6" fill-opacity="0.8"/>
<path d="M367.927 35.4673C371.375 35.4673 374.169 32.6727 374.169 29.2255C374.169 25.7782 371.375 22.9836 367.927 22.9836C364.48 22.9836 361.686 25.7782 361.686 29.2255C361.686 32.6727 364.48 35.4673 367.927 35.4673Z" fill="#704FE6" fill-opacity="0.8"/>
<path d="M258.742 57.951C262.189 57.951 264.984 55.1564 264.984 51.7091C264.984 48.2618 262.189 45.4673 258.742 45.4673C255.295 45.4673 252.5 48.2618 252.5 51.7091C252.5 55.1564 255.295 57.951 258.742 57.951Z" fill="#704FE6" fill-opacity="0.8"/>
<path d="M286.027 57.9512C289.474 57.9512 292.269 55.1566 292.269 51.7094C292.269 48.2621 289.474 45.4675 286.027 45.4675C282.58 45.4675 279.785 48.2621 279.785 51.7094C279.785 55.1566 282.58 57.9512 286.027 57.9512Z" fill="#704FE6" fill-opacity="0.8"/>
<path d="M313.31 57.951C316.758 57.951 319.552 55.1564 319.552 51.7091C319.552 48.2618 316.758 45.4673 313.31 45.4673C309.863 45.4673 307.068 48.2618 307.068 51.7091C307.068 55.1564 309.863 57.951 313.31 57.951Z" fill="#704FE6" fill-opacity="0.8"/>
<path d="M340.642 57.9512C344.089 57.9512 346.884 55.1566 346.884 51.7094C346.884 48.2621 344.089 45.4675 340.642 45.4675C337.195 45.4675 334.4 48.2621 334.4 51.7094C334.4 55.1566 337.195 57.9512 340.642 57.9512Z" fill="#704FE6" fill-opacity="0.8"/>
<path d="M367.927 57.9512C371.375 57.9512 374.169 55.1566 374.169 51.7094C374.169 48.2621 371.375 45.4675 367.927 45.4675C364.48 45.4675 361.686 48.2621 361.686 51.7094C361.686 55.1566 364.48 57.9512 367.927 57.9512Z" fill="#704FE6" fill-opacity="0.8"/>
<path d="M258.742 80.4348C262.189 80.4348 264.984 77.6403 264.984 74.193C264.984 70.7457 262.189 67.9512 258.742 67.9512C255.295 67.9512 252.5 70.7457 252.5 74.193C252.5 77.6403 255.295 80.4348 258.742 80.4348Z" fill="#704FE6" fill-opacity="0.8"/>
<path d="M286.027 80.4346C289.474 80.4346 292.269 77.64 292.269 74.1928C292.269 70.7455 289.474 67.9509 286.027 67.9509C282.58 67.9509 279.785 70.7455 279.785 74.1928C279.785 77.64 282.58 80.4346 286.027 80.4346Z" fill="#704FE6" fill-opacity="0.8"/>
<path d="M313.31 80.4348C316.758 80.4348 319.552 77.6403 319.552 74.193C319.552 70.7457 316.758 67.9512 313.31 67.9512C309.863 67.9512 307.068 70.7457 307.068 74.193C307.068 77.6403 309.863 80.4348 313.31 80.4348Z" fill="#704FE6" fill-opacity="0.8"/>
<path d="M340.642 80.4346C344.089 80.4346 346.884 77.64 346.884 74.1928C346.884 70.7455 344.089 67.9509 340.642 67.9509C337.195 67.9509 334.4 70.7455 334.4 74.1928C334.4 77.64 337.195 80.4346 340.642 80.4346Z" fill="#704FE6" fill-opacity="0.8"/>
<path d="M367.927 80.4346C371.375 80.4346 374.169 77.64 374.169 74.1928C374.169 70.7455 371.375 67.9509 367.927 67.9509C364.48 67.9509 361.686 70.7455 361.686 74.1928C361.686 77.64 364.48 80.4346 367.927 80.4346Z" fill="#704FE6" fill-opacity="0.8"/>
<path d="M258.742 102.918C262.189 102.918 264.984 100.124 264.984 96.6764C264.984 93.2291 262.189 90.4346 258.742 90.4346C255.295 90.4346 252.5 93.2291 252.5 96.6764C252.5 100.124 255.295 102.918 258.742 102.918Z" fill="#704FE6" fill-opacity="0.8"/>
<path d="M286.027 102.918C289.474 102.918 292.269 100.124 292.269 96.6764C292.269 93.2291 289.474 90.4346 286.027 90.4346C282.58 90.4346 279.785 93.2291 279.785 96.6764C279.785 100.124 282.58 102.918 286.027 102.918Z" fill="#704FE6" fill-opacity="0.8"/>
<path d="M313.31 102.918C316.758 102.918 319.552 100.124 319.552 96.6764C319.552 93.2291 316.758 90.4346 313.31 90.4346C309.863 90.4346 307.068 93.2291 307.068 96.6764C307.068 100.124 309.863 102.918 313.31 102.918Z" fill="#704FE6" fill-opacity="0.8"/>
<path d="M340.642 102.918C344.089 102.918 346.884 100.124 346.884 96.6764C346.884 93.2291 344.089 90.4346 340.642 90.4346C337.195 90.4346 334.4 93.2291 334.4 96.6764C334.4 100.124 337.195 102.918 340.642 102.918Z" fill="#704FE6" fill-opacity="0.8"/>
<path d="M367.927 102.918C371.375 102.918 374.169 100.124 374.169 96.6764C374.169 93.2291 371.375 90.4346 367.927 90.4346C364.48 90.4346 361.686 93.2291 361.686 96.6764C361.686 100.124 364.48 102.918 367.927 102.918Z" fill="#704FE6" fill-opacity="0.8"/>
<path d="M258.742 125.402C262.189 125.402 264.984 122.608 264.984 119.16C264.984 115.713 262.189 112.918 258.742 112.918C255.295 112.918 252.5 115.713 252.5 119.16C252.5 122.608 255.295 125.402 258.742 125.402Z" fill="#704FE6" fill-opacity="0.8"/>
<path d="M286.027 125.402C289.474 125.402 292.269 122.608 292.269 119.16C292.269 115.713 289.474 112.918 286.027 112.918C282.58 112.918 279.785 115.713 279.785 119.16C279.785 122.608 282.58 125.402 286.027 125.402Z" fill="#704FE6" fill-opacity="0.8"/>
<path d="M313.31 125.402C316.758 125.402 319.552 122.608 319.552 119.16C319.552 115.713 316.758 112.918 313.31 112.918C309.863 112.918 307.068 115.713 307.068 119.16C307.068 122.608 309.863 125.402 313.31 125.402Z" fill="#704FE6" fill-opacity="0.8"/>
<path d="M340.642 125.402C344.089 125.402 346.884 122.608 346.884 119.16C346.884 115.713 344.089 112.918 340.642 112.918C337.195 112.918 334.4 115.713 334.4 119.16C334.4 122.608 337.195 125.402 340.642 125.402Z" fill="#704FE6" fill-opacity="0.8"/>
<path d="M367.927 125.402C371.375 125.402 374.169 122.608 374.169 119.16C374.169 115.713 371.375 112.918 367.927 112.918C364.48 112.918 361.686 115.713 361.686 119.16C361.686 122.608 364.48 125.402 367.927 125.402Z" fill="#704FE6" fill-opacity="0.8"/>
<path d="M258.742 147.886C262.189 147.886 264.984 145.091 264.984 141.644C264.984 138.196 262.189 135.402 258.742 135.402C255.295 135.402 252.5 138.196 252.5 141.644C252.5 145.091 255.295 147.886 258.742 147.886Z" fill="#704FE6" fill-opacity="0.8"/>
<path d="M286.027 147.885C289.474 147.885 292.269 145.091 292.269 141.643C292.269 138.196 289.474 135.402 286.027 135.402C282.58 135.402 279.785 138.196 279.785 141.643C279.785 145.091 282.58 147.885 286.027 147.885Z" fill="#704FE6" fill-opacity="0.8"/>
<path d="M313.31 147.886C316.758 147.886 319.552 145.091 319.552 141.644C319.552 138.196 316.758 135.402 313.31 135.402C309.863 135.402 307.068 138.196 307.068 141.644C307.068 145.091 309.863 147.886 313.31 147.886Z" fill="#704FE6" fill-opacity="0.8"/>
<path d="M340.642 147.885C344.089 147.885 346.884 145.091 346.884 141.643C346.884 138.196 344.089 135.402 340.642 135.402C337.195 135.402 334.4 138.196 334.4 141.643C334.4 145.091 337.195 147.885 340.642 147.885Z" fill="#704FE6" fill-opacity="0.8"/>
<path d="M367.927 147.885C371.375 147.885 374.169 145.091 374.169 141.643C374.169 138.196 371.375 135.402 367.927 135.402C364.48 135.402 361.686 138.196 361.686 141.643C361.686 145.091 364.48 147.885 367.927 147.885Z" fill="#704FE6" fill-opacity="0.8"/>
<defs>
<clipPath id="clip0_3021_992">
<rect width="48" height="48" fill="white" transform="matrix(-0.998446 -0.0557305 -0.0557305 0.998446 88.5996 64.675)"/>
</clipPath>
</defs>
</svg>
