<?xml version="1.0" encoding="utf-8"?>
<svg width="549" height="448" viewBox="0 0 549 448" fill="none" xmlns="http://www.w3.org/2000/svg">
  <path d="M127 127.5C127 131.552 121.387 135.039 120.623 138.858C119.826 142.81 123.679 148.157 122.184 151.811C120.657 155.53 114.147 156.56 111.922 159.848C109.697 163.169 111.191 169.579 108.402 172.402C105.579 175.225 99.1689 173.697 95.8478 175.922C92.5599 178.114 91.4971 184.623 87.8107 186.184C84.1574 187.679 78.8436 183.86 74.8583 184.623C71.0058 185.387 67.5518 191 63.5 191C59.4482 191 55.961 185.387 52.1417 184.623C48.1896 183.826 42.8426 187.679 39.1893 186.184C35.4697 184.657 34.4401 178.147 31.1522 175.922C27.8311 173.697 21.4213 175.191 18.5983 172.402C15.7754 169.579 17.3031 163.169 15.0779 159.848C12.886 156.56 6.37657 155.497 4.81564 151.811C3.32113 148.157 7.14043 142.844 6.37657 138.858C5.61271 135.006 0 131.552 0 127.5C0 123.448 5.61271 119.961 6.37657 116.142C7.17364 112.19 3.32113 106.843 4.81564 103.189C6.34336 99.4697 12.8528 98.4401 15.0779 95.1522C17.3031 91.8311 15.8086 85.4213 18.5983 82.5983C21.4213 79.7754 27.8311 81.3031 31.1522 79.0779C34.4401 76.886 35.5029 70.3766 39.1893 68.8156C42.8426 67.3211 48.1564 71.1404 52.1417 70.3766C55.9942 69.6127 59.4482 64 63.5 64C67.5518 64 71.039 69.6127 74.8583 70.3766C78.8104 71.1736 84.1574 67.3211 87.8107 68.8156C91.5303 70.3434 92.5599 76.8528 95.8478 79.0779C99.1689 81.3031 105.579 79.8086 108.402 82.5983C111.225 85.4213 109.697 91.8311 111.922 95.1522C114.114 98.4401 120.623 99.5029 122.184 103.189C123.679 106.843 119.86 112.156 120.623 116.142C121.387 119.994 127 123.448 127 127.5Z" fill="#E4D7FF" fill-opacity="0.57"/>
  <path d="M94.3743 107.374L91 104" stroke="#19223F" stroke-width="2.15541" stroke-miterlimit="10" stroke-linecap="round"/>
  <path d="M101.999 115L98.625 111.626" stroke="#19223F" stroke-width="2.15541" stroke-miterlimit="10" stroke-linecap="round"/>
  <path d="M94.3743 111.626L91 115" stroke="#19223F" stroke-width="2.15541" stroke-miterlimit="10" stroke-linecap="round"/>
  <path d="M101.999 104L98.625 107.374" stroke="#19223F" stroke-width="2.15541" stroke-miterlimit="10" stroke-linecap="round"/>
  <path d="M27.4007 149.401L24 146" stroke="#19223F" stroke-width="2.17224" stroke-miterlimit="10" stroke-linecap="round"/>
  <path d="M35.0862 157.086L31.6855 153.685" stroke="#19223F" stroke-width="2.17224" stroke-miterlimit="10" stroke-linecap="round"/>
  <path d="M27.4007 153.685L24 157.086" stroke="#19223F" stroke-width="2.17224" stroke-miterlimit="10" stroke-linecap="round"/>
  <path d="M35.0862 146L31.6855 149.401" stroke="#19223F" stroke-width="2.17224" stroke-miterlimit="10" stroke-linecap="round"/>
  <path d="M 524.327 171.965 C 527.774 171.965 530.569 169.17 530.569 165.723 C 530.569 162.276 527.774 159.481 524.327 159.481 C 520.88 159.481 518.085 162.276 518.085 165.723 C 518.085 169.17 520.88 171.965 524.327 171.965 Z" fill="#704FE6" fill-opacity="0.19"/>
  <path d="M 551.612 171.965 C 555.059 171.965 557.854 169.17 557.854 165.723 C 557.854 162.276 555.059 159.481 551.612 159.481 C 548.165 159.481 545.37 162.276 545.37 165.723 C 545.37 169.17 548.165 171.965 551.612 171.965 Z" fill="#704FE6" fill-opacity="0.19"/>
  <path d="M 578.895 171.965 C 582.343 171.965 585.137 169.17 585.137 165.723 C 585.137 162.276 582.343 159.481 578.895 159.481 C 575.448 159.481 572.653 162.276 572.653 165.723 C 572.653 169.17 575.448 171.965 578.895 171.965 Z" fill="#704FE6" fill-opacity="0.19"/>
  <path d="M 606.227 171.965 C 609.674 171.965 612.469 169.17 612.469 165.723 C 612.469 162.276 609.674 159.481 606.227 159.481 C 602.78 159.481 599.985 162.276 599.985 165.723 C 599.985 169.17 602.78 171.965 606.227 171.965 Z" fill="#704FE6" fill-opacity="0.19"/>
  <path d="M 633.512 171.965 C 636.96 171.965 639.754 169.17 639.754 165.723 C 639.754 162.276 636.96 159.481 633.512 159.481 C 630.065 159.481 627.271 162.276 627.271 165.723 C 627.271 169.17 630.065 171.965 633.512 171.965 Z" fill="#704FE6" fill-opacity="0.19"/>
  <path d="M 524.327 194.448 C 527.774 194.448 530.569 191.654 530.569 188.206 C 530.569 184.759 527.774 181.965 524.327 181.965 C 520.88 181.965 518.085 184.759 518.085 188.206 C 518.085 191.654 520.88 194.448 524.327 194.448 Z" fill="#704FE6" fill-opacity="0.19"/>
  <path d="M 551.612 194.448 C 555.059 194.448 557.854 191.654 557.854 188.207 C 557.854 184.759 555.059 181.965 551.612 181.965 C 548.165 181.965 545.37 184.759 545.37 188.207 C 545.37 191.654 548.165 194.448 551.612 194.448 Z" fill="#704FE6" fill-opacity="0.19"/>
  <path d="M 578.895 194.448 C 582.343 194.448 585.137 191.654 585.137 188.206 C 585.137 184.759 582.343 181.965 578.895 181.965 C 575.448 181.965 572.653 184.759 572.653 188.206 C 572.653 191.654 575.448 194.448 578.895 194.448 Z" fill="#704FE6" fill-opacity="0.19"/>
  <path d="M 606.227 194.448 C 609.674 194.448 612.469 191.654 612.469 188.207 C 612.469 184.759 609.674 181.965 606.227 181.965 C 602.78 181.965 599.985 184.759 599.985 188.207 C 599.985 191.654 602.78 194.448 606.227 194.448 Z" fill="#704FE6" fill-opacity="0.19"/>
  <path d="M 633.512 194.448 C 636.96 194.448 639.754 191.654 639.754 188.207 C 639.754 184.759 636.96 181.965 633.512 181.965 C 630.065 181.965 627.271 184.759 627.271 188.207 C 627.271 191.654 630.065 194.448 633.512 194.448 Z" fill="#704FE6" fill-opacity="0.19"/>
  <path d="M 524.327 216.932 C 527.774 216.932 530.569 214.137 530.569 210.69 C 530.569 207.243 527.774 204.448 524.327 204.448 C 520.88 204.448 518.085 207.243 518.085 210.69 C 518.085 214.137 520.88 216.932 524.327 216.932 Z" fill="#704FE6" fill-opacity="0.19"/>
  <path d="M 551.612 216.932 C 555.059 216.932 557.854 214.138 557.854 210.69 C 557.854 207.243 555.059 204.449 551.612 204.449 C 548.165 204.449 545.37 207.243 545.37 210.69 C 545.37 214.138 548.165 216.932 551.612 216.932 Z" fill="#704FE6" fill-opacity="0.19"/>
  <path d="M 578.895 216.932 C 582.343 216.932 585.137 214.137 585.137 210.69 C 585.137 207.243 582.343 204.448 578.895 204.448 C 575.448 204.448 572.653 207.243 572.653 210.69 C 572.653 214.137 575.448 216.932 578.895 216.932 Z" fill="#704FE6" fill-opacity="0.19"/>
  <path d="M 606.227 216.932 C 609.674 216.932 612.469 214.138 612.469 210.69 C 612.469 207.243 609.674 204.449 606.227 204.449 C 602.78 204.449 599.985 207.243 599.985 210.69 C 599.985 214.138 602.78 216.932 606.227 216.932 Z" fill="#704FE6" fill-opacity="0.19"/>
  <path d="M 633.512 216.932 C 636.96 216.932 639.754 214.138 639.754 210.69 C 639.754 207.243 636.96 204.449 633.512 204.449 C 630.065 204.449 627.271 207.243 627.271 210.69 C 627.271 214.138 630.065 216.932 633.512 216.932 Z" fill="#704FE6" fill-opacity="0.19"/>
  <path d="M 524.327 239.416 C 527.774 239.416 530.569 236.621 530.569 233.174 C 530.569 229.727 527.774 226.932 524.327 226.932 C 520.88 226.932 518.085 229.727 518.085 233.174 C 518.085 236.621 520.88 239.416 524.327 239.416 Z" fill="#704FE6" fill-opacity="0.19"/>
  <path d="M 551.612 239.415 C 555.059 239.415 557.854 236.621 557.854 233.174 C 557.854 229.726 555.059 226.932 551.612 226.932 C 548.165 226.932 545.37 229.726 545.37 233.174 C 545.37 236.621 548.165 239.415 551.612 239.415 Z" fill="#704FE6" fill-opacity="0.19"/>
  <path d="M 578.895 239.416 C 582.343 239.416 585.137 236.621 585.137 233.174 C 585.137 229.727 582.343 226.932 578.895 226.932 C 575.448 226.932 572.653 229.727 572.653 233.174 C 572.653 236.621 575.448 239.416 578.895 239.416 Z" fill="#704FE6" fill-opacity="0.19"/>
  <path d="M 606.227 239.415 C 609.674 239.415 612.469 236.621 612.469 233.174 C 612.469 229.726 609.674 226.932 606.227 226.932 C 602.78 226.932 599.985 229.726 599.985 233.174 C 599.985 236.621 602.78 239.415 606.227 239.415 Z" fill="#704FE6" fill-opacity="0.19"/>
  <path d="M 633.512 239.415 C 636.96 239.415 639.754 236.621 639.754 233.174 C 639.754 229.726 636.96 226.932 633.512 226.932 C 630.065 226.932 627.271 229.726 627.271 233.174 C 627.271 236.621 630.065 239.415 633.512 239.415 Z" fill="#704FE6" fill-opacity="0.19"/>
  <path d="M 524.327 261.899 C 527.774 261.899 530.569 259.105 530.569 255.658 C 530.569 252.21 527.774 249.416 524.327 249.416 C 520.88 249.416 518.085 252.21 518.085 255.658 C 518.085 259.105 520.88 261.899 524.327 261.899 Z" fill="#704FE6" fill-opacity="0.19"/>
  <path d="M 551.612 261.899 C 555.059 261.899 557.854 259.105 557.854 255.657 C 557.854 252.21 555.059 249.416 551.612 249.416 C 548.165 249.416 545.37 252.21 545.37 255.657 C 545.37 259.105 548.165 261.899 551.612 261.899 Z" fill="#704FE6" fill-opacity="0.19"/>
  <path d="M 578.895 261.899 C 582.343 261.899 585.137 259.105 585.137 255.658 C 585.137 252.21 582.343 249.416 578.895 249.416 C 575.448 249.416 572.653 252.21 572.653 255.658 C 572.653 259.105 575.448 261.899 578.895 261.899 Z" fill="#704FE6" fill-opacity="0.19"/>
  <path d="M 606.227 261.899 C 609.674 261.899 612.469 259.105 612.469 255.657 C 612.469 252.21 609.674 249.416 606.227 249.416 C 602.78 249.416 599.985 252.21 599.985 255.657 C 599.985 259.105 602.78 261.899 606.227 261.899 Z" fill="#704FE6" fill-opacity="0.19"/>
  <path d="M 633.512 261.899 C 636.96 261.899 639.754 259.105 639.754 255.657 C 639.754 252.21 636.96 249.416 633.512 249.416 C 630.065 249.416 627.271 252.21 627.271 255.657 C 627.271 259.105 630.065 261.899 633.512 261.899 Z" fill="#704FE6" fill-opacity="0.19"/>
  <path d="M 524.327 284.383 C 527.774 284.383 530.569 281.588 530.569 278.141 C 530.569 274.694 527.774 271.899 524.327 271.899 C 520.88 271.899 518.085 274.694 518.085 278.141 C 518.085 281.588 520.88 284.383 524.327 284.383 Z" fill="#704FE6" fill-opacity="0.19"/>
  <path d="M 551.612 284.383 C 555.059 284.383 557.854 281.588 557.854 278.141 C 557.854 274.694 555.059 271.899 551.612 271.899 C 548.165 271.899 545.37 274.694 545.37 278.141 C 545.37 281.588 548.165 284.383 551.612 284.383 Z" fill="#704FE6" fill-opacity="0.19"/>
  <path d="M 578.895 284.383 C 582.343 284.383 585.137 281.588 585.137 278.141 C 585.137 274.694 582.343 271.899 578.895 271.899 C 575.448 271.899 572.653 274.694 572.653 278.141 C 572.653 281.588 575.448 284.383 578.895 284.383 Z" fill="#704FE6" fill-opacity="0.19"/>
  <path d="M 606.227 284.383 C 609.674 284.383 612.469 281.588 612.469 278.141 C 612.469 274.694 609.674 271.899 606.227 271.899 C 602.78 271.899 599.985 274.694 599.985 278.141 C 599.985 281.588 602.78 284.383 606.227 284.383 Z" fill="#704FE6" fill-opacity="0.19"/>
  <path d="M 633.512 284.383 C 636.96 284.383 639.754 281.588 639.754 278.141 C 639.754 274.694 636.96 271.899 633.512 271.899 C 630.065 271.899 627.271 274.694 627.271 278.141 C 627.271 281.588 630.065 284.383 633.512 284.383 Z" fill="#704FE6" fill-opacity="0.19"/>
  <path d="M 524.327 306.867 C 527.774 306.867 530.569 304.072 530.569 300.625 C 530.569 297.178 527.774 294.383 524.327 294.383 C 520.88 294.383 518.085 297.178 518.085 300.625 C 518.085 304.072 520.88 306.867 524.327 306.867 Z" fill="#704FE6" fill-opacity="0.19"/>
  <path d="M 551.612 306.867 C 555.059 306.867 557.854 304.072 557.854 300.625 C 557.854 297.177 555.059 294.383 551.612 294.383 C 548.165 294.383 545.37 297.177 545.37 300.625 C 545.37 304.072 548.165 306.867 551.612 306.867 Z" fill="#704FE6" fill-opacity="0.19"/>
  <path d="M 578.895 306.867 C 582.343 306.867 585.137 304.072 585.137 300.625 C 585.137 297.178 582.343 294.383 578.895 294.383 C 575.448 294.383 572.653 297.178 572.653 300.625 C 572.653 304.072 575.448 306.867 578.895 306.867 Z" fill="#704FE6" fill-opacity="0.19"/>
  <path d="M 606.227 306.867 C 609.674 306.867 612.469 304.072 612.469 300.625 C 612.469 297.177 609.674 294.383 606.227 294.383 C 602.78 294.383 599.985 297.177 599.985 300.625 C 599.985 304.072 602.78 306.867 606.227 306.867 Z" fill="#704FE6" fill-opacity="0.19"/>
  <path d="M 633.512 306.867 C 636.96 306.867 639.754 304.072 639.754 300.625 C 639.754 297.177 636.96 294.383 633.512 294.383 C 630.065 294.383 627.271 297.177 627.271 300.625 C 627.271 304.072 630.065 306.867 633.512 306.867 Z" fill="#704FE6" fill-opacity="0.19"/>
  <path d="M45 108.25V141.583C45 142.688 45.4214 143.748 46.1716 144.53C46.9217 145.311 47.9391 145.75 49 145.75H81M75 137.417V120.75M65 137.417V112.417M55 137.417V131.167" stroke="black" stroke-width="4" stroke-linecap="round" stroke-linejoin="round"/>
  <path d="M 125.537 127.384 C 125.537 131.436 119.924 134.923 119.16 138.742 C 118.363 142.694 122.216 148.041 120.721 151.695 C 119.194 155.414 112.684 156.444 110.459 159.732 C 108.234 163.053 109.728 169.463 106.939 172.286 C 104.116 175.109 97.706 173.581 94.384 175.806 C 91.097 177.998 90.034 184.507 86.347 186.068 C 82.694 187.563 77.38 183.744 73.395 184.507 C 69.542 185.271 66.088 190.884 62.037 190.884 C 57.985 190.884 54.498 185.271 50.678 184.507 C 46.726 183.71 41.379 187.563 37.726 186.068 C 34.006 184.541 32.977 178.031 29.689 175.806 C 26.368 173.581 19.958 175.075 17.135 172.286 C 14.312 169.463 15.84 163.053 13.615 159.732 C 11.423 156.444 4.913 155.381 3.352 151.695 C 1.855 148.041 5.677 142.728 4.913 138.742 C 4.149 134.89 -1.465 131.436 -1.465 127.384 C -1.465 123.332 4.149 119.845 4.913 116.026 C 5.71 112.074 1.855 106.727 3.352 103.073 C 4.88 99.354 11.389 98.324 13.615 95.036 C 15.84 91.715 14.345 85.305 17.135 82.482 C 19.958 79.659 26.368 81.187 29.689 78.962 C 32.977 76.77 34.04 70.261 37.726 68.7 C 41.379 67.205 46.693 71.024 50.678 70.261 C 54.531 69.497 57.985 63.884 62.037 63.884 C 66.088 63.884 69.576 69.497 73.395 70.261 C 77.347 71.058 82.694 67.205 86.347 68.7 C 90.067 70.227 91.097 76.737 94.384 78.962 C 97.706 81.187 104.116 79.693 106.939 82.482 C 109.762 85.305 108.234 91.715 110.459 95.036 C 112.651 98.324 119.16 99.387 120.721 103.073 C 122.216 106.727 118.397 112.04 119.16 116.026 C 119.924 119.878 125.537 123.332 125.537 127.384 Z" fill="#FFBDF5" fill-opacity="0.57" style="stroke-width: 1;"/>
  <path d="M 92.911 107.258 L 89.537 103.884" stroke="#19223F" stroke-width="2.15541" stroke-miterlimit="10" stroke-linecap="round" style="stroke-width: 2.155;"/>
  <path d="M 100.536 114.884 L 97.162 111.51" stroke="#19223F" stroke-width="2.15541" stroke-miterlimit="10" stroke-linecap="round" style="stroke-width: 2.155;"/>
  <path d="M 92.911 111.51 L 89.537 114.884" stroke="#19223F" stroke-width="2.15541" stroke-miterlimit="10" stroke-linecap="round" style="stroke-width: 2.155;"/>
  <path d="M 100.536 103.884 L 97.162 107.258" stroke="#19223F" stroke-width="2.15541" stroke-miterlimit="10" stroke-linecap="round" style="stroke-width: 2.155;"/>
  <path d="M 25.937 149.285 L 22.537 145.884" stroke="#19223F" stroke-width="2.17224" stroke-miterlimit="10" stroke-linecap="round" style="stroke-width: 2.172;"/>
  <path d="M 33.623 156.97 L 30.222 153.569" stroke="#19223F" stroke-width="2.17224" stroke-miterlimit="10" stroke-linecap="round" style="stroke-width: 2.172;"/>
  <path d="M 25.937 153.569 L 22.537 156.97" stroke="#19223F" stroke-width="2.17224" stroke-miterlimit="10" stroke-linecap="round" style="stroke-width: 2.172;"/>
  <path d="M 33.623 145.884 L 30.222 149.285" stroke="#19223F" stroke-width="2.17224" stroke-miterlimit="10" stroke-linecap="round" style="stroke-width: 2.172;"/>
  <path d="M 263.348 16.684 C 266.795 16.684 269.59 13.889 269.59 10.442 C 269.59 6.995 266.795 4.2 263.348 4.2 C 259.901 4.2 257.106 6.995 257.106 10.442 C 257.106 13.889 259.901 16.684 263.348 16.684 Z" fill="#704FE6" fill-opacity="0.19" style="stroke-width: 1;"/>
  <path d="M 290.633 16.684 C 294.08 16.684 296.875 13.889 296.875 10.442 C 296.875 6.995 294.08 4.2 290.633 4.2 C 287.186 4.2 284.391 6.995 284.391 10.442 C 284.391 13.889 287.186 16.684 290.633 16.684 Z" fill="#704FE6" fill-opacity="0.19" style="stroke-width: 1;"/>
  <path d="M 317.916 16.684 C 321.364 16.684 324.158 13.889 324.158 10.442 C 324.158 6.995 321.364 4.2 317.916 4.2 C 314.469 4.2 311.674 6.995 311.674 10.442 C 311.674 13.889 314.469 16.684 317.916 16.684 Z" fill="#704FE6" fill-opacity="0.19" style="stroke-width: 1;"/>
  <path d="M 345.248 16.684 C 348.695 16.684 351.49 13.889 351.49 10.442 C 351.49 6.995 348.695 4.2 345.248 4.2 C 341.801 4.2 339.006 6.995 339.006 10.442 C 339.006 13.889 341.801 16.684 345.248 16.684 Z" fill="#704FE6" fill-opacity="0.19" style="stroke-width: 1;"/>
  <path d="M 372.533 16.684 C 375.981 16.684 378.775 13.889 378.775 10.442 C 378.775 6.995 375.981 4.2 372.533 4.2 C 369.086 4.2 366.292 6.995 366.292 10.442 C 366.292 13.889 369.086 16.684 372.533 16.684 Z" fill="#704FE6" fill-opacity="0.19" style="stroke-width: 1;"/>
  <path d="M 399.863 16.684 C 403.311 16.684 406.105 13.889 406.105 10.442 C 406.105 6.995 403.311 4.2 399.863 4.2 C 396.416 4.2 393.622 6.995 393.622 10.442 C 393.622 13.889 396.416 16.684 399.863 16.684 Z" fill="#704FE6" fill-opacity="0.19" style="stroke-width: 1;"/>
  <path d="M 263.348 39.167 C 266.795 39.167 269.59 36.373 269.59 32.925 C 269.59 29.478 266.795 26.684 263.348 26.684 C 259.901 26.684 257.106 29.478 257.106 32.925 C 257.106 36.373 259.901 39.167 263.348 39.167 Z" fill="#704FE6" fill-opacity="0.19" style="stroke-width: 1;"/>
  <path d="M 290.633 39.167 C 294.08 39.167 296.875 36.373 296.875 32.925 C 296.875 29.478 294.08 26.684 290.633 26.684 C 287.186 26.684 284.391 29.478 284.391 32.925 C 284.391 36.373 287.186 39.167 290.633 39.167 Z" fill="#704FE6" fill-opacity="0.19" style="stroke-width: 1;"/>
  <path d="M 317.916 39.167 C 321.364 39.167 324.158 36.373 324.158 32.925 C 324.158 29.478 321.364 26.684 317.916 26.684 C 314.469 26.684 311.674 29.478 311.674 32.925 C 311.674 36.373 314.469 39.167 317.916 39.167 Z" fill="#704FE6" fill-opacity="0.19" style="stroke-width: 1;"/>
  <path d="M 345.248 39.167 C 348.695 39.167 351.49 36.373 351.49 32.925 C 351.49 29.478 348.695 26.684 345.248 26.684 C 341.801 26.684 339.006 29.478 339.006 32.925 C 339.006 36.373 341.801 39.167 345.248 39.167 Z" fill="#704FE6" fill-opacity="0.19" style="stroke-width: 1;"/>
  <path d="M 372.533 39.167 C 375.981 39.167 378.775 36.373 378.775 32.925 C 378.775 29.478 375.981 26.684 372.533 26.684 C 369.086 26.684 366.292 29.478 366.292 32.925 C 366.292 36.373 369.086 39.167 372.533 39.167 Z" fill="#704FE6" fill-opacity="0.19" style="stroke-width: 1;"/>
  <path d="M 399.863 39.167 C 403.311 39.167 406.105 36.373 406.105 32.925 C 406.105 29.478 403.311 26.684 399.863 26.684 C 396.416 26.684 393.622 29.478 393.622 32.925 C 393.622 36.373 396.416 39.167 399.863 39.167 Z" fill="#704FE6" fill-opacity="0.19" style="stroke-width: 1;"/>
  <path d="M 263.348 61.651 C 266.795 61.651 269.59 58.856 269.59 55.409 C 269.59 51.962 266.795 49.167 263.348 49.167 C 259.901 49.167 257.106 51.962 257.106 55.409 C 257.106 58.856 259.901 61.651 263.348 61.651 Z" fill="#704FE6" fill-opacity="0.19" style="stroke-width: 1;"/>
  <path d="M 290.633 61.651 C 294.08 61.651 296.875 58.857 296.875 55.409 C 296.875 51.962 294.08 49.167 290.633 49.167 C 287.186 49.167 284.391 51.962 284.391 55.409 C 284.391 58.857 287.186 61.651 290.633 61.651 Z" fill="#704FE6" fill-opacity="0.19" style="stroke-width: 1;"/>
  <path d="M 317.916 61.651 C 321.364 61.651 324.158 58.856 324.158 55.409 C 324.158 51.962 321.364 49.167 317.916 49.167 C 314.469 49.167 311.674 51.962 311.674 55.409 C 311.674 58.856 314.469 61.651 317.916 61.651 Z" fill="#704FE6" fill-opacity="0.19" style="stroke-width: 1;"/>
  <path d="M 345.248 61.651 C 348.695 61.651 351.49 58.857 351.49 55.409 C 351.49 51.962 348.695 49.167 345.248 49.167 C 341.801 49.167 339.006 51.962 339.006 55.409 C 339.006 58.857 341.801 61.651 345.248 61.651 Z" fill="#704FE6" fill-opacity="0.19" style="stroke-width: 1;"/>
  <path d="M 372.533 61.651 C 375.981 61.651 378.775 58.857 378.775 55.409 C 378.775 51.962 375.981 49.167 372.533 49.167 C 369.086 49.167 366.292 51.962 366.292 55.409 C 366.292 58.857 369.086 61.651 372.533 61.651 Z" fill="#704FE6" fill-opacity="0.19" style="stroke-width: 1;"/>
  <path d="M 399.863 61.651 C 403.311 61.651 406.105 58.857 406.105 55.409 C 406.105 51.962 403.311 49.167 399.863 49.167 C 396.416 49.167 393.622 51.962 393.622 55.409 C 393.622 58.857 396.416 61.651 399.863 61.651 Z" fill="#704FE6" fill-opacity="0.19" style="stroke-width: 1;"/>
  <path d="M 263.348 84.135 C 266.795 84.135 269.59 81.34 269.59 77.893 C 269.59 74.445 266.795 71.651 263.348 71.651 C 259.901 71.651 257.106 74.445 257.106 77.893 C 257.106 81.34 259.901 84.135 263.348 84.135 Z" fill="#704FE6" fill-opacity="0.19" style="stroke-width: 1;"/>
  <path d="M 290.633 84.134 C 294.08 84.134 296.875 81.34 296.875 77.892 C 296.875 74.445 294.08 71.651 290.633 71.651 C 287.186 71.651 284.391 74.445 284.391 77.892 C 284.391 81.34 287.186 84.134 290.633 84.134 Z" fill="#704FE6" fill-opacity="0.19" style="stroke-width: 1;"/>
  <path d="M 317.916 84.135 C 321.364 84.135 324.158 81.34 324.158 77.893 C 324.158 74.445 321.364 71.651 317.916 71.651 C 314.469 71.651 311.674 74.445 311.674 77.893 C 311.674 81.34 314.469 84.135 317.916 84.135 Z" fill="#704FE6" fill-opacity="0.19" style="stroke-width: 1;"/>
  <path d="M 345.248 84.134 C 348.695 84.134 351.49 81.34 351.49 77.892 C 351.49 74.445 348.695 71.651 345.248 71.651 C 341.801 71.651 339.006 74.445 339.006 77.892 C 339.006 81.34 341.801 84.134 345.248 84.134 Z" fill="#704FE6" fill-opacity="0.19" style="stroke-width: 1;"/>
  <path d="M 372.533 84.134 C 375.981 84.134 378.775 81.34 378.775 77.892 C 378.775 74.445 375.981 71.651 372.533 71.651 C 369.086 71.651 366.292 74.445 366.292 77.892 C 366.292 81.34 369.086 84.134 372.533 84.134 Z" fill="#704FE6" fill-opacity="0.19" style="stroke-width: 1;"/>
  <path d="M 399.863 84.134 C 403.311 84.134 406.105 81.34 406.105 77.892 C 406.105 74.445 403.311 71.651 399.863 71.651 C 396.416 71.651 393.622 74.445 393.622 77.892 C 393.622 81.34 396.416 84.134 399.863 84.134 Z" fill="#704FE6" fill-opacity="0.19" style="stroke-width: 1;"/>
  <path d="M 263.348 106.618 C 266.795 106.618 269.59 103.824 269.59 100.376 C 269.59 96.929 266.795 94.135 263.348 94.135 C 259.901 94.135 257.106 96.929 257.106 100.376 C 257.106 103.824 259.901 106.618 263.348 106.618 Z" fill="#704FE6" fill-opacity="0.19" style="stroke-width: 1;"/>
  <path d="M 290.633 106.618 C 294.08 106.618 296.875 103.824 296.875 100.376 C 296.875 96.929 294.08 94.135 290.633 94.135 C 287.186 94.135 284.391 96.929 284.391 100.376 C 284.391 103.824 287.186 106.618 290.633 106.618 Z" fill="#704FE6" fill-opacity="0.19" style="stroke-width: 1;"/>
  <path d="M 317.916 106.618 C 321.364 106.618 324.158 103.824 324.158 100.376 C 324.158 96.929 321.364 94.135 317.916 94.135 C 314.469 94.135 311.674 96.929 311.674 100.376 C 311.674 103.824 314.469 106.618 317.916 106.618 Z" fill="#704FE6" fill-opacity="0.19" style="stroke-width: 1;"/>
  <path d="M 345.248 106.618 C 348.695 106.618 351.49 103.824 351.49 100.376 C 351.49 96.929 348.695 94.135 345.248 94.135 C 341.801 94.135 339.006 96.929 339.006 100.376 C 339.006 103.824 341.801 106.618 345.248 106.618 Z" fill="#704FE6" fill-opacity="0.19" style="stroke-width: 1;"/>
  <path d="M 372.533 106.618 C 375.981 106.618 378.775 103.824 378.775 100.376 C 378.775 96.929 375.981 94.135 372.533 94.135 C 369.086 94.135 366.292 96.929 366.292 100.376 C 366.292 103.824 369.086 106.618 372.533 106.618 Z" fill="#704FE6" fill-opacity="0.19" style="stroke-width: 1;"/>
  <path d="M 399.863 106.618 C 403.311 106.618 406.105 103.824 406.105 100.376 C 406.105 96.929 403.311 94.135 399.863 94.135 C 396.416 94.135 393.622 96.929 393.622 100.376 C 393.622 103.824 396.416 106.618 399.863 106.618 Z" fill="#704FE6" fill-opacity="0.19" style="stroke-width: 1;"/>
  <path d="M 263.348 129.102 C 266.795 129.102 269.59 126.308 269.59 122.86 C 269.59 119.413 266.795 116.618 263.348 116.618 C 259.901 116.618 257.106 119.413 257.106 122.86 C 257.106 126.308 259.901 129.102 263.348 129.102 Z" fill="#704FE6" fill-opacity="0.19" style="stroke-width: 1;"/>
  <path d="M 290.633 129.102 C 294.08 129.102 296.875 126.308 296.875 122.86 C 296.875 119.413 294.08 116.618 290.633 116.618 C 287.186 116.618 284.391 119.413 284.391 122.86 C 284.391 126.308 287.186 129.102 290.633 129.102 Z" fill="#704FE6" fill-opacity="0.19" style="stroke-width: 1;"/>
  <path d="M 317.916 129.102 C 321.364 129.102 324.158 126.308 324.158 122.86 C 324.158 119.413 321.364 116.618 317.916 116.618 C 314.469 116.618 311.674 119.413 311.674 122.86 C 311.674 126.308 314.469 129.102 317.916 129.102 Z" fill="#704FE6" fill-opacity="0.19" style="stroke-width: 1;"/>
  <path d="M 345.248 129.102 C 348.695 129.102 351.49 126.308 351.49 122.86 C 351.49 119.413 348.695 116.618 345.248 116.618 C 341.801 116.618 339.006 119.413 339.006 122.86 C 339.006 126.308 341.801 129.102 345.248 129.102 Z" fill="#704FE6" fill-opacity="0.19" style="stroke-width: 1;"/>
  <path d="M 372.533 129.102 C 375.981 129.102 378.775 126.308 378.775 122.86 C 378.775 119.413 375.981 116.618 372.533 116.618 C 369.086 116.618 366.292 119.413 366.292 122.86 C 366.292 126.308 369.086 129.102 372.533 129.102 Z" fill="#704FE6" fill-opacity="0.19" style="stroke-width: 1;"/>
  <path d="M 399.863 129.102 C 403.311 129.102 406.105 126.308 406.105 122.86 C 406.105 119.413 403.311 116.618 399.863 116.618 C 396.416 116.618 393.622 119.413 393.622 122.86 C 393.622 126.308 396.416 129.102 399.863 129.102 Z" fill="#704FE6" fill-opacity="0.19" style="stroke-width: 1;"/>
  <path d="M 263.348 151.586 C 266.795 151.586 269.59 148.791 269.59 145.344 C 269.59 141.896 266.795 139.102 263.348 139.102 C 259.901 139.102 257.106 141.896 257.106 145.344 C 257.106 148.791 259.901 151.586 263.348 151.586 Z" fill="#704FE6" fill-opacity="0.19" style="stroke-width: 1;"/>
  <path d="M 290.633 151.585 C 294.08 151.585 296.875 148.791 296.875 145.343 C 296.875 141.896 294.08 139.102 290.633 139.102 C 287.186 139.102 284.391 141.896 284.391 145.343 C 284.391 148.791 287.186 151.585 290.633 151.585 Z" fill="#704FE6" fill-opacity="0.19" style="stroke-width: 1;"/>
  <path d="M 317.916 151.586 C 321.364 151.586 324.158 148.791 324.158 145.344 C 324.158 141.896 321.364 139.102 317.916 139.102 C 314.469 139.102 311.674 141.896 311.674 145.344 C 311.674 148.791 314.469 151.586 317.916 151.586 Z" fill="#704FE6" fill-opacity="0.19" style="stroke-width: 1;"/>
  <path d="M 345.248 151.585 C 348.695 151.585 351.49 148.791 351.49 145.343 C 351.49 141.896 348.695 139.102 345.248 139.102 C 341.801 139.102 339.006 141.896 339.006 145.343 C 339.006 148.791 341.801 151.585 345.248 151.585 Z" fill="#704FE6" fill-opacity="0.19" style="stroke-width: 1;"/>
  <path d="M 372.533 151.585 C 375.981 151.585 378.775 148.791 378.775 145.343 C 378.775 141.896 375.981 139.102 372.533 139.102 C 369.086 139.102 366.292 141.896 366.292 145.343 C 366.292 148.791 369.086 151.585 372.533 151.585 Z" fill="#704FE6" fill-opacity="0.19" style="stroke-width: 1;"/>
  <path d="M 399.863 151.585 C 403.311 151.585 406.105 148.791 406.105 145.343 C 406.105 141.896 403.311 139.102 399.863 139.102 C 396.416 139.102 393.622 141.896 393.622 145.343 C 393.622 148.791 396.416 151.585 399.863 151.585 Z" fill="#704FE6" fill-opacity="0.19" style="stroke-width: 1;"/>
  <path d="M 67.724 137.588 L 65.955 136.822 M 67.724 142.18 L 65.955 142.946 M 69.203 107.884 L 69.203 115.884 M 70.104 132.494 L 70.836 134.34 M 70.836 145.428 L 70.102 147.276 M 75.237 134.34 L 75.971 132.494 M 75.969 147.276 L 75.237 145.428 M 78.35 137.588 L 80.121 136.822 M 78.35 142.18 L 80.121 142.946 M 78.787 125.884 L 78.787 115.884 C 78.787 114.823 78.383 113.806 77.664 113.056 C 76.945 112.305 75.97 111.884 74.953 111.884 L 48.12 111.884 C 47.103 111.884 46.128 112.305 45.409 113.056 C 44.691 113.806 44.287 114.823 44.287 115.884 L 44.287 143.884 C 44.287 144.945 44.691 145.962 45.409 146.712 C 46.128 147.463 47.103 147.884 48.12 147.884 L 59.62 147.884 M 44.287 123.884 L 78.787 123.884 M 53.87 107.884 L 53.87 115.884 M 78.787 139.884 C 78.787 143.198 76.212 145.884 73.037 145.884 C 69.861 145.884 67.287 143.198 67.287 139.884 C 67.287 136.57 69.861 133.884 73.037 133.884 C 76.212 133.884 78.787 136.57 78.787 139.884 Z" stroke="black" stroke-width="3" stroke-linecap="round" stroke-linejoin="round" style="stroke-width: 3;"/>
  <path d="M 574.535 314.028 C 552.097 314.028 533.853 295.113 533.853 271.849 C 533.853 248.585 552.097 229.67 574.535 229.67 C 596.973 229.67 615.217 248.585 615.217 271.849 C 615.183 295.113 596.939 314.028 574.535 314.028 Z M 574.535 247.383 C 561.509 247.383 550.904 258.378 550.904 271.884 C 550.904 285.39 561.509 296.386 574.535 296.386 C 587.562 296.386 598.167 285.39 598.167 271.884 C 598.167 258.378 587.562 247.383 574.535 247.383 Z" fill="#D862C5" fill-opacity="0.49" style="stroke-width: 1;"/>
  <path d="M 574.607 346.166 C 569.697 346.166 564.786 345.636 559.944 344.611 C 541.223 340.58 525.128 329.196 514.625 312.614 C 504.122 296.032 500.507 276.197 504.395 256.752 C 507.771 239.922 516.739 224.755 529.595 214.007 C 542.314 203.4 558.239 197.566 574.471 197.566 C 579.381 197.566 584.292 198.097 589.134 199.122 C 607.855 203.153 623.951 214.537 634.454 231.119 C 644.957 247.701 648.571 267.535 644.684 286.981 C 641.308 303.81 632.339 318.978 619.484 329.726 C 606.73 340.333 590.805 346.166 574.607 346.166 Z M 574.471 215.244 C 548.793 215.244 526.321 234.195 521.07 260.323 C 514.932 290.87 533.926 320.922 563.388 327.286 C 567.071 328.099 570.856 328.488 574.573 328.488 C 600.251 328.488 622.723 309.538 627.975 283.41 C 630.941 268.596 628.179 253.499 620.2 240.842 C 612.22 228.184 599.944 219.522 585.656 216.446 C 581.973 215.668 578.188 215.244 574.471 215.244 Z" fill="#D862C5" fill-opacity="0.49" style="stroke-width: 1;"/>
  <path d="M 574.64 377.244 C 571.503 377.244 568.331 377.102 565.16 376.784 C 538.118 374.203 513.703 360.839 496.345 339.201 C 478.988 317.563 470.838 290.198 473.328 262.197 C 475.681 235.892 487.343 211.603 506.235 193.889 C 524.99 176.247 549.201 166.56 574.401 166.56 C 577.539 166.56 580.71 166.701 583.881 167.019 C 610.923 169.6 635.339 182.965 652.696 204.602 C 670.053 226.24 678.203 253.605 675.714 281.642 C 673.361 307.947 661.698 332.236 642.807 349.949 C 624.052 367.521 599.84 377.244 574.64 377.244 Z M 574.401 184.202 C 530.514 184.202 494.368 218.426 490.31 263.823 C 486.013 311.977 520.284 354.758 566.729 359.212 C 569.354 359.46 572.014 359.601 574.64 359.601 C 618.527 359.601 654.674 325.377 658.732 279.98 C 663.028 231.826 628.757 189.046 582.313 184.591 C 579.687 184.308 577.027 184.202 574.401 184.202 Z" fill="#D862C5" fill-opacity="0.49" style="stroke-width: 1;"/>
  <path d="M 574.603 408.922 C 573.068 408.922 571.5 408.887 569.931 408.852 C 552.097 408.215 534.91 403.973 518.849 396.23 C 503.333 388.77 489.557 378.375 477.826 365.364 C 466.095 352.353 457.093 337.362 450.989 320.816 C 444.646 303.669 441.782 285.602 442.396 267.111 C 443.589 231.366 457.911 198.026 482.771 173.206 C 507.527 148.457 540.093 134.81 574.432 134.81 C 575.967 134.81 577.536 134.845 579.104 134.881 C 596.939 135.517 614.125 139.76 630.187 147.503 C 645.702 154.963 659.479 165.357 671.209 178.368 C 682.94 191.379 691.943 206.37 698.046 222.916 C 704.389 240.064 707.253 258.13 706.64 276.621 C 705.446 312.366 691.124 345.706 666.265 370.526 C 641.508 395.31 608.942 408.922 574.603 408.922 Z M 574.432 152.488 C 512.097 152.488 461.594 203.117 459.446 267.747 C 457.229 333.544 507.084 388.911 570.511 391.209 C 571.875 391.245 573.239 391.28 574.569 391.28 C 636.904 391.28 687.407 340.651 689.556 276.021 C 691.772 210.224 641.917 154.857 578.49 152.559 C 577.16 152.523 575.796 152.488 574.432 152.488 Z" fill="#D862C5" fill-opacity="0.49" style="stroke-width: 1;"/>
  <path d="M 574.537 440.884 C 552.542 440.884 531.195 436.429 511.076 427.59 C 491.673 419.07 474.248 406.907 459.278 391.386 C 444.308 375.865 432.543 357.798 424.359 337.681 C 415.868 316.821 411.537 294.688 411.537 271.884 C 411.537 249.08 415.834 226.947 424.359 206.087 C 432.577 185.97 444.308 167.903 459.278 152.382 C 474.248 136.861 491.673 124.663 511.076 116.178 C 531.195 107.374 552.542 102.884 574.537 102.884 C 596.532 102.884 617.879 107.339 637.998 116.178 C 657.401 124.698 674.826 136.861 689.796 152.382 C 704.766 167.903 716.531 185.97 724.715 206.087 C 733.206 226.947 737.537 249.08 737.537 271.884 C 737.537 294.688 733.24 316.821 724.715 337.681 C 716.497 357.798 704.766 375.865 689.796 391.386 C 674.826 406.907 657.401 419.105 637.998 427.59 C 617.879 436.429 596.532 440.884 574.537 440.884 Z M 574.537 120.526 C 494.06 120.526 428.587 188.409 428.587 271.849 C 428.587 355.288 494.06 423.171 574.537 423.171 C 655.014 423.171 720.487 355.288 720.487 271.849 C 720.487 188.445 655.014 120.526 574.537 120.526 Z" fill="#D862C5" fill-opacity="0.49" style="stroke-width: 1;"/>
</svg>