<svg width="556" height="448" viewBox="0 0 556 448" fill="none" xmlns="http://www.w3.org/2000/svg">
<path d="M326.242 4.96706C329.689 4.96706 332.484 2.1725 332.484 -1.27477C332.484 -4.72204 329.689 -7.5166 326.242 -7.5166C322.795 -7.5166 320 -4.72204 320 -1.27477C320 2.1725 322.795 4.96706 326.242 4.96706Z" fill="white" fill-opacity="0.23"/>
<path d="M353.527 4.96706C356.974 4.96706 359.769 2.1725 359.769 -1.27477C359.769 -4.72204 356.974 -7.5166 353.527 -7.5166C350.08 -7.5166 347.285 -4.72204 347.285 -1.27477C347.285 2.1725 350.08 4.96706 353.527 4.96706Z" fill="white" fill-opacity="0.23"/>
<path d="M380.81 4.96706C384.258 4.96706 387.052 2.1725 387.052 -1.27477C387.052 -4.72204 384.258 -7.5166 380.81 -7.5166C377.363 -7.5166 374.568 -4.72204 374.568 -1.27477C374.568 2.1725 377.363 4.96706 380.81 4.96706Z" fill="white" fill-opacity="0.23"/>
<path d="M408.142 4.96706C411.589 4.96706 414.384 2.1725 414.384 -1.27477C414.384 -4.72204 411.589 -7.5166 408.142 -7.5166C404.695 -7.5166 401.9 -4.72204 401.9 -1.27477C401.9 2.1725 404.695 4.96706 408.142 4.96706Z" fill="white" fill-opacity="0.23"/>
<path d="M435.427 4.96706C438.875 4.96706 441.669 2.1725 441.669 -1.27477C441.669 -4.72204 438.875 -7.5166 435.427 -7.5166C431.98 -7.5166 429.186 -4.72204 429.186 -1.27477C429.186 2.1725 431.98 4.96706 435.427 4.96706Z" fill="white" fill-opacity="0.23"/>
<path d="M462.758 4.96706C466.206 4.96706 469 2.1725 469 -1.27477C469 -4.72204 466.206 -7.5166 462.758 -7.5166C459.311 -7.5166 456.517 -4.72204 456.517 -1.27477C456.517 2.1725 459.311 4.96706 462.758 4.96706Z" fill="white" fill-opacity="0.23"/>
<path d="M326.242 27.451C329.689 27.451 332.484 24.6564 332.484 21.2091C332.484 17.7618 329.689 14.9673 326.242 14.9673C322.795 14.9673 320 17.7618 320 21.2091C320 24.6564 322.795 27.451 326.242 27.451Z" fill="white" fill-opacity="0.23"/>
<path d="M353.527 27.451C356.974 27.451 359.769 24.6564 359.769 21.2091C359.769 17.7618 356.974 14.9673 353.527 14.9673C350.08 14.9673 347.285 17.7618 347.285 21.2091C347.285 24.6564 350.08 27.451 353.527 27.451Z" fill="white" fill-opacity="0.23"/>
<path d="M380.81 27.451C384.258 27.451 387.052 24.6564 387.052 21.2091C387.052 17.7618 384.258 14.9673 380.81 14.9673C377.363 14.9673 374.568 17.7618 374.568 21.2091C374.568 24.6564 377.363 27.451 380.81 27.451Z" fill="white" fill-opacity="0.23"/>
<path d="M408.142 27.451C411.589 27.451 414.384 24.6564 414.384 21.2091C414.384 17.7618 411.589 14.9673 408.142 14.9673C404.695 14.9673 401.9 17.7618 401.9 21.2091C401.9 24.6564 404.695 27.451 408.142 27.451Z" fill="white" fill-opacity="0.23"/>
<path d="M435.427 27.451C438.875 27.451 441.669 24.6564 441.669 21.2091C441.669 17.7618 438.875 14.9673 435.427 14.9673C431.98 14.9673 429.186 17.7618 429.186 21.2091C429.186 24.6564 431.98 27.451 435.427 27.451Z" fill="white" fill-opacity="0.23"/>
<path d="M462.758 27.451C466.206 27.451 469 24.6564 469 21.2091C469 17.7618 466.206 14.9673 462.758 14.9673C459.311 14.9673 456.517 17.7618 456.517 21.2091C456.517 24.6564 459.311 27.451 462.758 27.451Z" fill="white" fill-opacity="0.23"/>
<path d="M326.242 49.9348C329.689 49.9348 332.484 47.1403 332.484 43.693C332.484 40.2457 329.689 37.4512 326.242 37.4512C322.795 37.4512 320 40.2457 320 43.693C320 47.1403 322.795 49.9348 326.242 49.9348Z" fill="white" fill-opacity="0.23"/>
<path d="M353.527 49.9343C356.974 49.9343 359.769 47.1398 359.769 43.6925C359.769 40.2452 356.974 37.4507 353.527 37.4507C350.08 37.4507 347.285 40.2452 347.285 43.6925C347.285 47.1398 350.08 49.9343 353.527 49.9343Z" fill="white" fill-opacity="0.23"/>
<path d="M380.81 49.9348C384.258 49.9348 387.052 47.1403 387.052 43.693C387.052 40.2457 384.258 37.4512 380.81 37.4512C377.363 37.4512 374.568 40.2457 374.568 43.693C374.568 47.1403 377.363 49.9348 380.81 49.9348Z" fill="white" fill-opacity="0.23"/>
<path d="M408.142 49.9343C411.589 49.9343 414.384 47.1398 414.384 43.6925C414.384 40.2452 411.589 37.4507 408.142 37.4507C404.695 37.4507 401.9 40.2452 401.9 43.6925C401.9 47.1398 404.695 49.9343 408.142 49.9343Z" fill="white" fill-opacity="0.23"/>
<path d="M435.427 49.9343C438.875 49.9343 441.669 47.1398 441.669 43.6925C441.669 40.2452 438.875 37.4507 435.427 37.4507C431.98 37.4507 429.186 40.2452 429.186 43.6925C429.186 47.1398 431.98 49.9343 435.427 49.9343Z" fill="white" fill-opacity="0.23"/>
<path d="M462.758 49.9343C466.206 49.9343 469 47.1398 469 43.6925C469 40.2452 466.206 37.4507 462.758 37.4507C459.311 37.4507 456.517 40.2452 456.517 43.6925C456.517 47.1398 459.311 49.9343 462.758 49.9343Z" fill="white" fill-opacity="0.23"/>
<path d="M326.242 72.4182C329.689 72.4182 332.484 69.6237 332.484 66.1764C332.484 62.7291 329.689 59.9346 326.242 59.9346C322.795 59.9346 320 62.7291 320 66.1764C320 69.6237 322.795 72.4182 326.242 72.4182Z" fill="white" fill-opacity="0.23"/>
<path d="M353.527 72.4182C356.974 72.4182 359.769 69.6237 359.769 66.1764C359.769 62.7291 356.974 59.9346 353.527 59.9346C350.08 59.9346 347.285 62.7291 347.285 66.1764C347.285 69.6237 350.08 72.4182 353.527 72.4182Z" fill="white" fill-opacity="0.23"/>
<path d="M380.81 72.4182C384.258 72.4182 387.052 69.6237 387.052 66.1764C387.052 62.7291 384.258 59.9346 380.81 59.9346C377.363 59.9346 374.568 62.7291 374.568 66.1764C374.568 69.6237 377.363 72.4182 380.81 72.4182Z" fill="white" fill-opacity="0.23"/>
<path d="M408.142 72.4182C411.589 72.4182 414.384 69.6237 414.384 66.1764C414.384 62.7291 411.589 59.9346 408.142 59.9346C404.695 59.9346 401.9 62.7291 401.9 66.1764C401.9 69.6237 404.695 72.4182 408.142 72.4182Z" fill="white" fill-opacity="0.23"/>
<path d="M435.427 72.4182C438.875 72.4182 441.669 69.6237 441.669 66.1764C441.669 62.7291 438.875 59.9346 435.427 59.9346C431.98 59.9346 429.186 62.7291 429.186 66.1764C429.186 69.6237 431.98 72.4182 435.427 72.4182Z" fill="white" fill-opacity="0.23"/>
<path d="M462.758 72.4182C466.206 72.4182 469 69.6237 469 66.1764C469 62.7291 466.206 59.9346 462.758 59.9346C459.311 59.9346 456.517 62.7291 456.517 66.1764C456.517 69.6237 459.311 72.4182 462.758 72.4182Z" fill="white" fill-opacity="0.23"/>
<path d="M326.242 94.9021C329.689 94.9021 332.484 92.1076 332.484 88.6603C332.484 85.213 329.689 82.4185 326.242 82.4185C322.795 82.4185 320 85.213 320 88.6603C320 92.1076 322.795 94.9021 326.242 94.9021Z" fill="white" fill-opacity="0.23"/>
<path d="M353.527 94.9021C356.974 94.9021 359.769 92.1076 359.769 88.6603C359.769 85.213 356.974 82.4185 353.527 82.4185C350.08 82.4185 347.285 85.213 347.285 88.6603C347.285 92.1076 350.08 94.9021 353.527 94.9021Z" fill="white" fill-opacity="0.23"/>
<path d="M380.81 94.9021C384.258 94.9021 387.052 92.1076 387.052 88.6603C387.052 85.213 384.258 82.4185 380.81 82.4185C377.363 82.4185 374.568 85.213 374.568 88.6603C374.568 92.1076 377.363 94.9021 380.81 94.9021Z" fill="white" fill-opacity="0.23"/>
<path d="M408.142 94.9021C411.589 94.9021 414.384 92.1076 414.384 88.6603C414.384 85.213 411.589 82.4185 408.142 82.4185C404.695 82.4185 401.9 85.213 401.9 88.6603C401.9 92.1076 404.695 94.9021 408.142 94.9021Z" fill="white" fill-opacity="0.23"/>
<path d="M435.427 94.9021C438.875 94.9021 441.669 92.1076 441.669 88.6603C441.669 85.213 438.875 82.4185 435.427 82.4185C431.98 82.4185 429.186 85.213 429.186 88.6603C429.186 92.1076 431.98 94.9021 435.427 94.9021Z" fill="white" fill-opacity="0.23"/>
<path d="M462.758 94.9021C466.206 94.9021 469 92.1076 469 88.6603C469 85.213 466.206 82.4185 462.758 82.4185C459.311 82.4185 456.517 85.213 456.517 88.6603C456.517 92.1076 459.311 94.9021 462.758 94.9021Z" fill="white" fill-opacity="0.23"/>
<path d="M326.242 117.386C329.689 117.386 332.484 114.591 332.484 111.144C332.484 107.696 329.689 104.902 326.242 104.902C322.795 104.902 320 107.696 320 111.144C320 114.591 322.795 117.386 326.242 117.386Z" fill="white" fill-opacity="0.23"/>
<path d="M353.527 117.386C356.974 117.386 359.769 114.591 359.769 111.144C359.769 107.696 356.974 104.902 353.527 104.902C350.08 104.902 347.285 107.696 347.285 111.144C347.285 114.591 350.08 117.386 353.527 117.386Z" fill="white" fill-opacity="0.23"/>
<path d="M380.81 117.386C384.258 117.386 387.052 114.591 387.052 111.144C387.052 107.696 384.258 104.902 380.81 104.902C377.363 104.902 374.568 107.696 374.568 111.144C374.568 114.591 377.363 117.386 380.81 117.386Z" fill="white" fill-opacity="0.23"/>
<path d="M408.142 117.386C411.589 117.386 414.384 114.591 414.384 111.144C414.384 107.696 411.589 104.902 408.142 104.902C404.695 104.902 401.9 107.696 401.9 111.144C401.9 114.591 404.695 117.386 408.142 117.386Z" fill="white" fill-opacity="0.23"/>
<path d="M435.427 117.386C438.875 117.386 441.669 114.591 441.669 111.144C441.669 107.696 438.875 104.902 435.427 104.902C431.98 104.902 429.186 107.696 429.186 111.144C429.186 114.591 431.98 117.386 435.427 117.386Z" fill="white" fill-opacity="0.23"/>
<path d="M462.758 117.386C466.206 117.386 469 114.591 469 111.144C469 107.696 466.206 104.902 462.758 104.902C459.311 104.902 456.517 107.696 456.517 111.144C456.517 114.591 459.311 117.386 462.758 117.386Z" fill="white" fill-opacity="0.23"/>
<path d="M537.999 461.144C515.561 461.144 497.317 442.229 497.317 418.965C497.317 395.701 515.561 376.786 537.999 376.786C560.437 376.786 578.681 395.701 578.681 418.965C578.647 442.229 560.403 461.144 537.999 461.144ZM537.999 394.499C524.973 394.499 514.368 405.494 514.368 419C514.368 432.506 524.973 443.502 537.999 443.502C551.025 443.502 561.631 432.506 561.631 419C561.631 405.494 551.025 394.499 537.999 394.499Z" fill="#D862C5" fill-opacity="0.49"/>
<path d="M538.07 493.282C533.16 493.282 528.249 492.752 523.407 491.727C504.686 487.696 488.591 476.312 478.088 459.73C467.585 443.148 463.97 423.314 467.858 403.868C471.234 387.039 480.202 371.871 493.058 361.123C505.777 350.516 521.702 344.683 537.934 344.683C542.844 344.683 547.755 345.213 552.597 346.238C571.318 350.269 587.414 361.653 597.917 378.235C608.42 394.817 612.034 414.651 608.147 434.097C604.771 450.926 595.802 466.094 582.947 476.842C570.193 487.449 554.268 493.282 538.07 493.282ZM537.934 362.36C512.256 362.36 489.784 381.311 484.533 407.439C478.395 437.986 497.389 468.039 526.851 474.403C530.534 475.216 534.319 475.605 538.036 475.605C563.714 475.605 586.186 456.654 591.438 430.526C594.404 415.712 591.642 400.615 583.663 387.958C575.683 375.301 563.407 366.638 549.119 363.562C545.436 362.785 541.651 362.36 537.934 362.36Z" fill="#D862C5" fill-opacity="0.49"/>
<path d="M538.103 524.36C534.966 524.36 531.794 524.218 528.623 523.9C501.581 521.319 477.166 507.955 459.808 486.317C442.451 464.679 434.301 437.314 436.791 409.312C439.144 383.008 450.806 358.718 469.698 341.005C488.453 323.363 512.664 313.675 537.864 313.675C541.002 313.675 544.173 313.817 547.344 314.135C574.386 316.716 598.802 330.08 616.159 351.718C633.516 373.356 641.666 400.721 639.177 428.758C636.824 455.063 625.161 479.352 606.27 497.065C587.515 514.637 563.303 524.36 538.103 524.36ZM537.864 331.318C493.977 331.318 457.831 365.542 453.773 410.939C449.476 459.093 483.747 501.873 530.192 506.328C532.817 506.576 535.477 506.717 538.103 506.717C581.99 506.717 618.137 472.493 622.195 427.096C626.491 378.942 592.22 336.161 545.776 331.707C543.15 331.424 540.49 331.318 537.864 331.318Z" fill="#D862C5" fill-opacity="0.49"/>
<path d="M538.067 556.038C536.532 556.038 534.964 556.003 533.395 555.967C515.561 555.331 498.374 551.088 482.313 543.345C466.797 535.885 453.02 525.491 441.29 512.48C429.559 499.469 420.557 484.478 414.453 467.932C408.11 450.784 405.246 432.718 405.86 414.227C407.053 378.482 421.375 345.142 446.235 320.322C470.991 295.573 503.557 281.926 537.896 281.926C539.431 281.926 540.999 281.961 542.568 281.996C560.403 282.633 577.589 286.876 593.651 294.618C609.166 302.078 622.943 312.473 634.673 325.484C646.404 338.495 655.406 353.486 661.51 370.032C667.853 387.18 670.717 405.246 670.104 423.737C668.91 459.482 654.588 492.822 629.729 517.642C604.972 542.426 572.406 556.038 538.067 556.038ZM537.896 299.604C475.561 299.604 425.058 350.233 422.91 414.863C420.693 480.66 470.548 536.027 533.975 538.325C535.339 538.36 536.703 538.396 538.033 538.396C600.368 538.396 650.871 487.766 653.02 423.136C655.236 357.339 605.381 301.972 541.954 299.674C540.624 299.639 539.26 299.604 537.896 299.604Z" fill="#D862C5" fill-opacity="0.49"/>
<path d="M538 588C516.005 588 494.658 583.545 474.539 574.706C455.136 566.186 437.711 554.023 422.741 538.502C407.771 522.981 396.006 504.914 387.822 484.797C379.331 463.937 375 441.804 375 419C375 396.196 379.297 374.063 387.822 353.203C396.04 333.086 407.771 315.019 422.741 299.498C437.711 283.977 455.136 271.779 474.539 263.294C494.658 254.49 516.005 250 538 250C559.995 250 581.342 254.455 601.461 263.294C620.864 271.814 638.289 283.977 653.259 299.498C668.229 315.019 679.994 333.086 688.178 353.203C696.669 374.063 701 396.196 701 419C701 441.804 696.703 463.937 688.178 484.797C679.96 504.914 668.229 522.981 653.259 538.502C638.289 554.023 620.864 566.221 601.461 574.706C581.342 583.545 559.995 588 538 588ZM538 267.642C457.523 267.642 392.05 335.525 392.05 418.965C392.05 502.404 457.523 570.287 538 570.287C618.477 570.287 683.95 502.404 683.95 418.965C683.95 335.561 618.477 267.642 538 267.642Z" fill="#D862C5" fill-opacity="0.49"/>
<path d="M127 117.5C127 121.552 121.387 125.039 120.623 128.858C119.826 132.81 123.679 138.157 122.184 141.811C120.657 145.53 114.147 146.56 111.922 149.848C109.697 153.169 111.191 159.579 108.402 162.402C105.579 165.225 99.1689 163.697 95.8478 165.922C92.5599 168.114 91.4971 174.623 87.8107 176.184C84.1574 177.679 78.8436 173.86 74.8583 174.623C71.0058 175.387 67.5518 181 63.5 181C59.4482 181 55.961 175.387 52.1417 174.623C48.1896 173.826 42.8426 177.679 39.1893 176.184C35.4697 174.657 34.4401 168.147 31.1522 165.922C27.8311 163.697 21.4213 165.191 18.5983 162.402C15.7754 159.579 17.3031 153.169 15.0779 149.848C12.886 146.56 6.37657 145.497 4.81564 141.811C3.32113 138.157 7.14043 132.844 6.37657 128.858C5.61271 125.006 0 121.552 0 117.5C0 113.448 5.61271 109.961 6.37657 106.142C7.17364 102.19 3.32113 96.8426 4.81564 93.1893C6.34336 89.4697 12.8528 88.4401 15.0779 85.1522C17.3031 81.8311 15.8086 75.4213 18.5983 72.5983C21.4213 69.7754 27.8311 71.3031 31.1522 69.0779C34.4401 66.886 35.5029 60.3766 39.1893 58.8156C42.8426 57.3211 48.1564 61.1404 52.1417 60.3766C55.9942 59.6127 59.4482 54 63.5 54C67.5518 54 71.039 59.6127 74.8583 60.3766C78.8104 61.1736 84.1574 57.3211 87.8107 58.8156C91.5303 60.3434 92.5599 66.8528 95.8478 69.0779C99.1689 71.3031 105.579 69.8086 108.402 72.5983C111.225 75.4213 109.697 81.8311 111.922 85.1522C114.114 88.4401 120.623 89.5029 122.184 93.1893C123.679 96.8426 119.86 102.156 120.623 106.142C121.387 109.994 127 113.448 127 117.5Z" fill="#FFBDF5"/>
<path d="M90.4007 87.4007L87 84" stroke="#19223F" stroke-width="2.17224" stroke-miterlimit="10" stroke-linecap="round"/>
<path d="M98.0862 95.0857L94.6855 91.6851" stroke="#19223F" stroke-width="2.17224" stroke-miterlimit="10" stroke-linecap="round"/>
<path d="M90.4007 91.6851L87 95.0857" stroke="#19223F" stroke-width="2.17224" stroke-miterlimit="10" stroke-linecap="round"/>
<path d="M98.0862 84L94.6855 87.4007" stroke="#19223F" stroke-width="2.17224" stroke-miterlimit="10" stroke-linecap="round"/>
<path d="M30.8763 139.374L27.502 136" stroke="#19223F" stroke-width="2.15541" stroke-miterlimit="10" stroke-linecap="round"/>
<path d="M38.5022 147L35.1279 143.625" stroke="#19223F" stroke-width="2.15541" stroke-miterlimit="10" stroke-linecap="round"/>
<path d="M30.8763 143.625L27.502 147" stroke="#19223F" stroke-width="2.15541" stroke-miterlimit="10" stroke-linecap="round"/>
<path d="M38.5022 136L35.1279 139.374" stroke="#19223F" stroke-width="2.15541" stroke-miterlimit="10" stroke-linecap="round"/>
<path d="M70.187 126.704L68.4179 125.938M70.187 131.296L68.4179 132.062M71.6667 97V105M72.5675 121.61L73.2997 123.456M73.2997 134.544L72.5656 136.392M77.7003 123.456L78.4344 121.61M78.4325 136.392L77.7003 134.544M80.813 126.704L82.584 125.938M80.813 131.296L82.584 132.062M81.25 115V105C81.25 103.939 80.8461 102.922 80.1272 102.172C79.4084 101.421 78.4333 101 77.4167 101H50.5833C49.5667 101 48.5916 101.421 47.8728 102.172C47.1539 102.922 46.75 103.939 46.75 105V133C46.75 134.061 47.1539 135.078 47.8728 135.828C48.5916 136.579 49.5667 137 50.5833 137H62.0833M46.75 113H81.25M56.3333 97V105M81.25 129C81.25 132.314 78.6756 135 75.5 135C72.3244 135 69.75 132.314 69.75 129C69.75 125.686 72.3244 123 75.5 123C78.6756 123 81.25 125.686 81.25 129Z" stroke="black" stroke-width="3" stroke-linecap="round" stroke-linejoin="round"/>
<path d="M454.2 347.151C454.137 350.154 456.868 352.615 460.3 352.648C463.733 352.681 466.567 350.274 466.631 347.271C466.694 344.268 463.963 341.807 460.531 341.774C457.098 341.74 454.264 344.148 454.2 347.151Z" fill="white" fill-opacity="0.24"/>
<path d="M453.81 370.842C453.747 373.845 456.478 376.306 459.91 376.339C463.343 376.372 466.177 373.965 466.241 370.962C466.304 367.959 463.573 365.498 460.141 365.465C456.708 365.432 453.874 367.839 453.81 370.842Z" fill="white" fill-opacity="0.24"/>
<path d="M453.42 394.532C453.357 397.535 456.088 399.996 459.52 400.029C462.953 400.062 465.787 397.655 465.851 394.652C465.914 391.649 463.183 389.188 459.751 389.154C456.318 389.121 453.484 391.529 453.42 394.532Z" fill="white" fill-opacity="0.24"/>
<path d="M453.03 418.263C452.966 421.266 455.697 423.728 459.129 423.761C462.562 423.794 465.396 421.386 465.46 418.383C465.524 415.38 462.793 412.919 459.36 412.886C455.927 412.853 453.093 415.261 453.03 418.263Z" fill="white" fill-opacity="0.24"/>
<path d="M452.639 441.955C452.576 444.958 455.307 447.419 458.739 447.452C462.172 447.485 465.006 445.078 465.07 442.075C465.133 439.072 462.402 436.611 458.97 436.578C455.537 436.545 452.703 438.952 452.639 441.955Z" fill="white" fill-opacity="0.24"/>
<path d="M431.719 346.872C431.655 349.875 434.386 352.336 437.819 352.369C441.251 352.402 444.086 349.995 444.149 346.992C444.213 343.989 441.482 341.528 438.049 341.495C434.617 341.462 431.783 343.869 431.719 346.872Z" fill="white" fill-opacity="0.24"/>
<path d="M431.329 370.563C431.265 373.566 433.996 376.027 437.429 376.06C440.861 376.093 443.696 373.686 443.759 370.683C443.823 367.68 441.092 365.219 437.659 365.186C434.227 365.153 431.393 367.56 431.329 370.563Z" fill="white" fill-opacity="0.24"/>
<path d="M430.939 394.253C430.875 397.256 433.606 399.717 437.039 399.75C440.471 399.783 443.305 397.376 443.369 394.373C443.433 391.37 440.702 388.909 437.269 388.876C433.837 388.842 431.002 391.25 430.939 394.253Z" fill="white" fill-opacity="0.24"/>
<path d="M430.548 417.985C430.484 420.988 433.215 423.449 436.648 423.482C440.081 423.515 442.915 421.107 442.978 418.105C443.042 415.102 440.311 412.641 436.879 412.608C433.446 412.574 430.612 414.982 430.548 417.985Z" fill="white" fill-opacity="0.24"/>
<path d="M430.158 441.676C430.094 444.679 432.825 447.14 436.257 447.173C439.69 447.206 442.524 444.799 442.588 441.796C442.652 438.793 439.921 436.332 436.488 436.298C433.055 436.265 430.221 438.673 430.158 441.676Z" fill="white" fill-opacity="0.24"/>
<path d="M409.238 346.593C409.174 349.596 411.905 352.057 415.338 352.09C418.77 352.123 421.605 349.716 421.668 346.713C421.732 343.71 419.001 341.249 415.569 341.215C412.136 341.182 409.302 343.59 409.238 346.593Z" fill="white" fill-opacity="0.24"/>
<path d="M408.848 370.284C408.784 373.286 411.515 375.748 414.948 375.781C418.38 375.814 421.215 373.406 421.278 370.403C421.342 367.401 418.611 364.939 415.178 364.906C411.746 364.873 408.912 367.281 408.848 370.284Z" fill="white" fill-opacity="0.24"/>
<path d="M408.458 393.974C408.394 396.977 411.125 399.438 414.558 399.471C417.99 399.504 420.824 397.096 420.888 394.094C420.952 391.091 418.221 388.629 414.788 388.596C411.356 388.563 408.521 390.971 408.458 393.974Z" fill="white" fill-opacity="0.24"/>
<path d="M408.067 417.705C408.003 420.708 410.734 423.17 414.167 423.203C417.599 423.236 420.433 420.828 420.497 417.825C420.561 414.822 417.83 412.361 414.397 412.328C410.965 412.295 408.13 414.702 408.067 417.705Z" fill="white" fill-opacity="0.24"/>
<path d="M407.677 441.397C407.613 444.399 410.344 446.86 413.776 446.894C417.209 446.927 420.043 444.519 420.107 441.516C420.171 438.514 417.44 436.052 414.007 436.019C410.574 435.986 407.74 438.394 407.677 441.397Z" fill="white" fill-opacity="0.24"/>
<path d="M386.757 346.313C386.693 349.316 389.424 351.777 392.856 351.811C396.289 351.844 399.123 349.436 399.187 346.433C399.251 343.431 396.52 340.969 393.087 340.936C389.655 340.903 386.82 343.311 386.757 346.313Z" fill="white" fill-opacity="0.24"/>
<path d="M386.366 370.005C386.303 373.008 389.034 375.469 392.466 375.502C395.899 375.535 398.733 373.128 398.797 370.125C398.86 367.122 396.129 364.661 392.697 364.628C389.264 364.594 386.43 367.002 386.366 370.005Z" fill="white" fill-opacity="0.24"/>
<path d="M385.976 393.694C385.913 396.697 388.644 399.158 392.076 399.191C395.509 399.225 398.343 396.817 398.407 393.814C398.47 390.811 395.739 388.35 392.307 388.317C388.874 388.284 386.04 390.691 385.976 393.694Z" fill="white" fill-opacity="0.24"/>
<path d="M385.586 417.426C385.522 420.429 388.253 422.89 391.686 422.923C395.118 422.956 397.952 420.549 398.016 417.546C398.08 414.543 395.349 412.082 391.916 412.049C388.484 412.016 385.649 414.423 385.586 417.426Z" fill="white" fill-opacity="0.24"/>
<path d="M385.195 441.117C385.131 444.12 387.862 446.581 391.295 446.614C394.728 446.647 397.562 444.24 397.625 441.237C397.689 438.234 394.958 435.773 391.526 435.74C388.093 435.707 385.259 438.114 385.195 441.117Z" fill="white" fill-opacity="0.24"/>
<path d="M364.275 346.034C364.212 349.037 366.943 351.498 370.375 351.531C373.808 351.564 376.642 349.157 376.706 346.154C376.769 343.151 374.038 340.69 370.606 340.657C367.173 340.624 364.339 343.031 364.275 346.034Z" fill="white" fill-opacity="0.24"/>
<path d="M363.885 369.725C363.821 372.728 366.552 375.19 369.985 375.223C373.417 375.256 376.252 372.848 376.315 369.845C376.379 366.842 373.648 364.381 370.215 364.348C366.783 364.315 363.949 366.723 363.885 369.725Z" fill="white" fill-opacity="0.24"/>
<path d="M363.495 393.415C363.431 396.418 366.162 398.879 369.595 398.912C373.027 398.945 375.862 396.538 375.925 393.535C375.989 390.532 373.258 388.071 369.825 388.038C366.393 388.005 363.559 390.412 363.495 393.415Z" fill="white" fill-opacity="0.24"/>
<path d="M363.104 417.147C363.041 420.15 365.772 422.611 369.204 422.644C372.637 422.677 375.471 420.27 375.535 417.267C375.598 414.264 372.867 411.803 369.435 411.77C366.002 411.737 363.168 414.144 363.104 417.147Z" fill="white" fill-opacity="0.24"/>
<path d="M362.714 440.838C362.65 443.841 365.381 446.302 368.814 446.335C372.247 446.369 375.081 443.961 375.144 440.958C375.208 437.955 372.477 435.494 369.045 435.461C365.612 435.428 362.778 437.835 362.714 440.838Z" fill="white" fill-opacity="0.24"/>
<path d="M341.794 345.755C341.73 348.758 344.461 351.219 347.894 351.252C351.326 351.285 354.16 348.878 354.224 345.875C354.288 342.872 351.557 340.411 348.124 340.378C344.692 340.344 341.857 342.752 341.794 345.755Z" fill="white" fill-opacity="0.24"/>
<path d="M341.404 369.446C341.34 372.449 344.071 374.91 347.503 374.943C350.936 374.976 353.77 372.569 353.834 369.566C353.898 366.563 351.167 364.102 347.734 364.069C344.302 364.036 341.467 366.443 341.404 369.446Z" fill="white" fill-opacity="0.24"/>
<path d="M341.013 393.136C340.95 396.139 343.681 398.6 347.113 398.633C350.546 398.666 353.38 396.259 353.444 393.256C353.507 390.253 350.776 387.792 347.344 387.758C343.911 387.725 341.077 390.133 341.013 393.136Z" fill="white" fill-opacity="0.24"/>
<path d="M340.623 416.867C340.559 419.87 343.29 422.332 346.723 422.365C350.155 422.398 352.989 419.99 353.053 416.987C353.117 413.985 350.386 411.523 346.953 411.49C343.521 411.457 340.687 413.865 340.623 416.867Z" fill="white" fill-opacity="0.24"/>
<path d="M340.232 440.559C340.169 443.562 342.9 446.023 346.332 446.056C349.765 446.089 352.599 443.682 352.663 440.679C352.726 437.676 349.995 435.215 346.563 435.182C343.13 435.149 340.296 437.556 340.232 440.559Z" fill="white" fill-opacity="0.24"/>
<path d="M319.312 345.476C319.249 348.479 321.98 350.94 325.412 350.973C328.845 351.006 331.679 348.598 331.743 345.596C331.806 342.593 329.075 340.131 325.643 340.098C322.21 340.065 319.376 342.473 319.312 345.476Z" fill="white" fill-opacity="0.24"/>
<path d="M318.923 369.167C318.859 372.17 321.59 374.631 325.023 374.664C328.455 374.697 331.289 372.29 331.353 369.287C331.417 366.284 328.686 363.823 325.253 363.79C321.821 363.757 318.986 366.164 318.923 369.167Z" fill="white" fill-opacity="0.24"/>
<path d="M318.532 392.856C318.468 395.859 321.199 398.32 324.632 398.354C328.064 398.387 330.899 395.979 330.962 392.976C331.026 389.973 328.295 387.512 324.862 387.479C321.43 387.446 318.596 389.854 318.532 392.856Z" fill="white" fill-opacity="0.24"/>
<path d="M318.141 416.588C318.078 419.591 320.809 422.052 324.241 422.085C327.674 422.119 330.508 419.711 330.572 416.708C330.635 413.705 327.904 411.244 324.472 411.211C321.039 411.178 318.205 413.585 318.141 416.588Z" fill="white" fill-opacity="0.24"/>
<path d="M317.751 440.28C317.688 443.283 320.419 445.744 323.851 445.777C327.284 445.81 330.118 443.403 330.182 440.4C330.245 437.397 327.514 434.936 324.082 434.902C320.649 434.869 317.815 437.277 317.751 440.28Z" fill="white" fill-opacity="0.24"/>
</svg>
