<svg width="366" height="220" viewBox="0 0 366 220" fill="none" xmlns="http://www.w3.org/2000/svg">
<path d="M340.999 137.306C325.926 137.306 313.67 125.051 313.67 109.977C313.67 94.9037 325.926 82.6479 340.999 82.6479C356.072 82.6479 368.328 94.9037 368.328 109.977C368.305 125.051 356.05 137.306 340.999 137.306ZM340.999 94.1248C332.248 94.1248 325.124 101.249 325.124 110C325.124 118.751 332.248 125.875 340.999 125.875C349.75 125.875 356.874 118.751 356.874 110C356.874 101.249 349.75 94.1248 340.999 94.1248Z" fill="#9767F8" fill-opacity="0.52"/>
<path d="M341.047 158.13C337.748 158.13 334.45 157.786 331.197 157.122C318.62 154.51 307.808 147.134 300.752 136.39C293.696 125.646 291.268 112.795 293.88 100.195C296.148 89.2911 302.172 79.4636 310.809 72.4996C319.353 65.6272 330.051 61.8474 340.956 61.8474C344.254 61.8474 347.553 62.191 350.806 62.8553C363.382 65.4668 374.195 72.8432 381.251 83.587C388.306 94.3309 390.734 107.182 388.123 119.782C385.855 130.686 379.83 140.513 371.194 147.477C362.626 154.35 351.928 158.13 341.047 158.13ZM340.956 73.3014C323.706 73.3014 308.609 85.58 305.082 102.509C300.958 122.301 313.718 141.773 333.51 145.897C335.985 146.424 338.527 146.676 341.024 146.676C358.274 146.676 373.37 134.397 376.898 117.468C378.891 107.869 377.035 98.0878 371.675 89.8867C366.315 81.6857 358.068 76.0732 348.469 74.0802C345.995 73.5763 343.452 73.3014 340.956 73.3014Z" fill="#9767F8" fill-opacity="0.52"/>
<path d="M341.069 178.266C338.962 178.266 336.831 178.174 334.701 177.968C316.535 176.296 300.133 167.636 288.473 153.617C276.813 139.597 271.338 121.866 273.01 103.723C274.591 86.6798 282.425 70.942 295.116 59.4651C307.715 48.0341 323.98 41.7573 340.909 41.7573C343.017 41.7573 345.147 41.8489 347.277 42.0551C365.443 43.7274 381.846 52.3866 393.506 66.4062C405.166 80.4259 410.641 98.1567 408.969 116.323C407.388 133.366 399.553 149.104 386.862 160.581C374.263 171.966 357.998 178.266 341.069 178.266ZM340.909 53.1884C311.426 53.1884 287.144 75.3633 284.418 104.777C281.532 135.978 304.554 163.696 335.755 166.583C337.519 166.743 339.305 166.835 341.069 166.835C370.552 166.835 394.834 144.66 397.56 115.246C400.447 84.0454 377.424 56.3268 346.224 53.4404C344.46 53.2571 342.673 53.1884 340.909 53.1884Z" fill="#9767F8" fill-opacity="0.52"/>
<path d="M341.045 198.791C340.014 198.791 338.96 198.768 337.906 198.745C325.925 198.333 314.38 195.584 303.59 190.567C293.167 185.734 283.912 178.999 276.032 170.568C268.151 162.138 262.104 152.425 258.003 141.704C253.742 130.594 251.818 118.888 252.23 106.907C253.032 83.7474 262.654 62.1452 279.353 46.0638C295.985 30.0282 317.862 21.1858 340.93 21.1858C341.961 21.1858 343.015 21.2087 344.068 21.2316C356.049 21.6439 367.595 24.3929 378.384 29.4097C388.808 34.2433 398.062 40.9782 405.943 49.4084C413.823 57.8385 419.871 67.5515 423.971 78.2724C428.232 89.3827 430.156 101.089 429.744 113.07C428.942 136.229 419.321 157.832 402.621 173.913C385.99 189.972 364.113 198.791 341.045 198.791ZM340.93 32.6398C299.054 32.6398 265.128 65.4439 263.684 107.32C262.195 149.951 295.687 185.825 338.296 187.314C339.212 187.337 340.128 187.36 341.022 187.36C382.897 187.36 416.824 154.556 418.267 112.68C419.756 70.0485 386.265 34.1746 343.656 32.6856C342.763 32.6627 341.846 32.6398 340.93 32.6398Z" fill="#9767F8" fill-opacity="0.52"/>
<path d="M341 219.5C326.224 219.5 311.884 216.614 298.368 210.887C285.334 205.366 273.628 197.485 263.571 187.429C253.515 177.372 245.611 165.666 240.113 152.632C234.409 139.116 231.5 124.776 231.5 110C231.5 95.2244 234.386 80.884 240.113 67.3683C245.634 54.3337 253.515 42.6277 263.571 32.5711C273.628 22.5145 285.334 14.6113 298.368 9.11341C311.884 3.40933 326.224 0.5 341 0.5C355.776 0.5 370.116 3.38642 383.632 9.11341C396.666 14.6342 408.372 22.5145 418.429 32.5711C428.485 42.6277 436.389 54.3337 441.887 67.3683C447.591 80.884 450.5 95.2244 450.5 110C450.5 124.776 447.614 139.116 441.887 152.632C436.366 165.666 428.485 177.372 418.429 187.429C408.372 197.485 396.666 205.389 383.632 210.887C370.116 216.614 355.776 219.5 341 219.5ZM341 11.931C286.937 11.931 242.954 55.9143 242.954 109.977C242.954 164.04 286.937 208.023 341 208.023C395.063 208.023 439.046 164.04 439.046 109.977C439.046 55.9372 395.063 11.931 341 11.931Z" fill="#9767F8" fill-opacity="0.52"/>
<path d="M127.5 104C127.5 108.052 121.887 111.539 121.123 115.358C120.326 119.31 124.179 124.657 122.684 128.311C121.157 132.03 114.647 133.06 112.422 136.348C110.197 139.669 111.691 146.079 108.902 148.902C106.079 151.725 99.6689 150.197 96.3478 152.422C93.0599 154.614 91.9971 161.123 88.3107 162.684C84.6574 164.179 79.3436 160.36 75.3583 161.123C71.5058 161.887 68.0518 167.5 64 167.5C59.9482 167.5 56.461 161.887 52.6417 161.123C48.6896 160.326 43.3426 164.179 39.6893 162.684C35.9697 161.157 34.9401 154.647 31.6522 152.422C28.3311 150.197 21.9213 151.691 19.0983 148.902C16.2754 146.079 17.8031 139.669 15.5779 136.348C13.386 133.06 6.87657 131.997 5.31564 128.311C3.82113 124.657 7.64043 119.344 6.87657 115.358C6.11271 111.506 0.5 108.052 0.5 104C0.5 99.9482 6.11271 96.461 6.87657 92.6417C7.67364 88.6896 3.82113 83.3426 5.31564 79.6893C6.84336 75.9697 13.3528 74.9401 15.5779 71.6522C17.8031 68.3311 16.3086 61.9213 19.0983 59.0983C21.9213 56.2754 28.3311 57.8031 31.6522 55.5779C34.9401 53.386 36.0029 46.8766 39.6893 45.3156C43.3426 43.8211 48.6564 47.6404 52.6417 46.8766C56.4942 46.1127 59.9482 40.5 64 40.5C68.0518 40.5 71.539 46.1127 75.3583 46.8766C79.3104 47.6736 84.6574 43.8211 88.3107 45.3156C92.0303 46.8434 93.0599 53.3528 96.3478 55.5779C99.6689 57.8031 106.079 56.3086 108.902 59.0983C111.725 61.9213 110.197 68.3311 112.422 71.6522C114.614 74.9401 121.123 76.0029 122.684 79.6893C124.179 83.3426 120.36 88.6564 121.123 92.6417C121.887 96.4942 127.5 99.9482 127.5 104Z" fill="#EAE9F3" fill-opacity="0.6"/>
<path d="M90.9007 130.901L87.5 127.5" stroke="#19223F" stroke-width="2.17224" stroke-miterlimit="10" stroke-linecap="round"/>
<path d="M98.5862 138.586L95.1855 135.185" stroke="#19223F" stroke-width="2.17224" stroke-miterlimit="10" stroke-linecap="round"/>
<path d="M90.9007 135.185L87.5 138.586" stroke="#19223F" stroke-width="2.17224" stroke-miterlimit="10" stroke-linecap="round"/>
<path d="M98.5862 127.5L95.1855 130.901" stroke="#19223F" stroke-width="2.17224" stroke-miterlimit="10" stroke-linecap="round"/>
<path d="M31.3743 79.8743L28 76.5" stroke="#19223F" stroke-width="2.15541" stroke-miterlimit="10" stroke-linecap="round"/>
<path d="M38.9993 87.5001L35.625 84.1257" stroke="#19223F" stroke-width="2.15541" stroke-miterlimit="10" stroke-linecap="round"/>
<path d="M31.3743 84.1257L28 87.5001" stroke="#19223F" stroke-width="2.15541" stroke-miterlimit="10" stroke-linecap="round"/>
<path d="M38.9993 76.5L35.625 79.8743" stroke="#19223F" stroke-width="2.15541" stroke-miterlimit="10" stroke-linecap="round"/>
<path d="M43.166 94.2499H51.4993M43.166 102.417H51.4993M43.166 110.583H51.4993M43.166 118.75H51.4993M58.791 98.3333H69.2077M58.791 106.5H72.3327M58.791 114.667H68.166M51.4993 86.0833H76.4993C78.8005 86.0833 80.666 87.9114 80.666 90.1666V122.833C80.666 125.088 78.8005 126.917 76.4993 126.917H51.4993C49.1982 126.917 47.3327 125.088 47.3327 122.833V90.1666C47.3327 87.9114 49.1982 86.0833 51.4993 86.0833Z" stroke="black" stroke-width="4" stroke-linecap="round" stroke-linejoin="round"/>
</svg>
