<svg width="338" height="233" viewBox="0 0 338 233" fill="none" xmlns="http://www.w3.org/2000/svg">
<path opacity="0.2" d="M156.359 220.921C133.372 230.33 108.139 233.273 81.75 232.646C71.9777 232.421 61.225 229.817 50.4047 224.928C32.7806 216.971 21.8736 194.646 22.4642 169.04C22.8154 153.901 26.1376 142.038 30.5711 131.87C36.8148 117.509 43.3559 103.47 51.0328 91.3504C57.5725 81.0025 65.8037 73.4225 73.4643 64.9303C78.2869 59.6027 83.0387 54.0471 88.5029 50.0231C101.637 40.3292 114.775 30.5875 128.645 22.5093C143.963 13.5845 161.455 10.5708 180.961 13.0435C188.007 13.9345 193.761 10.0258 200.108 8.305C203.226 7.45585 206.326 6.56663 209.452 5.73751C212.793 4.86729 216.047 3.72891 219.548 3.30717C228.7 2.17218 237.798 0.849157 247.22 0.538716C261.195 0.0790138 276.097 3.60913 292.655 16.7187C310.572 30.9098 318.293 53.9952 314.7 74.0506C311.214 93.5255 302.413 104.841 294.054 116.888C281.932 134.391 267.894 148.307 252.662 159.859C233.19 174.61 213.633 189.209 193.458 202.424C181.781 210.076 168.783 214.833 156.387 220.909L156.359 220.921ZM118.564 45.324C118.331 44.8348 118.1 44.3216 117.868 43.8324C112.75 46.8045 107.205 48.946 102.587 52.9289C87.6818 65.7731 72.7263 78.521 60.6032 96.702C50.0996 112.448 39.9899 128.781 34.355 151.701C32.208 160.446 30.8407 170.346 30.2607 180.766C29.6007 192.456 34.861 203.09 43.3766 208.895C46.3966 210.958 49.5863 213.139 52.3348 213.748C63.0302 216.049 73.7814 218.513 84.1323 219.506C106.644 221.643 126.995 217.254 146.417 210.419C158.743 206.076 170.481 200.15 181.958 193.748C195.836 186.016 209.595 177.937 222.63 168.377C236.865 157.908 250.454 146.044 263.883 133.894C277.79 121.316 290.406 106.274 300.06 86.2963C303.718 78.7337 305.976 68.8215 307.683 58.6671C309.038 50.6407 306.015 42.8096 299.68 35.323C296.051 31.0317 292.135 27.3944 288.373 24.5125C275.636 14.7281 264.222 12.6734 253.26 11.9996C231.131 10.6653 210.784 14.6312 191.334 21.1516C187.676 22.3845 183.976 23.5411 180.141 24.2854C172.085 25.8848 163.732 26.6473 155.863 28.7313C148.445 30.7016 141.537 34.0056 134.328 36.5445C133.07 36.9868 131.114 35.798 130.024 36.5455C126.083 39.2017 122.375 42.3472 118.575 45.2962L118.564 45.324Z" fill="#DEC8FE"/>
<rect x="181.336" y="66.1423" width="121.322" height="48" rx="24" transform="rotate(19.1017 181.336 66.1423)" fill="#FF92EE"/>
<path d="M203.397 106.589C203.227 106.53 203.115 106.414 203.06 106.243C203.016 106.076 203.039 105.899 203.129 105.714L208.711 95.5899C208.792 95.4656 208.892 95.3795 209.01 95.3315C209.128 95.2836 209.25 95.2812 209.375 95.3244C209.556 95.3872 209.668 95.5024 209.712 95.6699C209.771 95.8299 209.75 96.0005 209.649 96.1814L204.061 106.323C204.002 106.455 203.908 106.543 203.779 106.587C203.66 106.635 203.533 106.636 203.397 106.589ZM205.319 98.4536C205.16 98.3986 205.042 98.3005 204.964 98.1591C204.901 98.0104 204.897 97.8567 204.952 97.6979C205.003 97.5505 205.096 97.4491 205.229 97.3937C205.374 97.3423 205.526 97.3441 205.684 97.399L214.223 100.356C214.382 100.411 214.492 100.513 214.555 100.662C214.622 100.799 214.628 100.947 214.573 101.106C214.522 101.253 214.43 101.355 214.296 101.41C214.163 101.465 214.016 101.466 213.858 101.411L205.319 98.4536ZM207.803 108.114C207.621 108.051 207.503 107.934 207.448 107.763C207.404 107.595 207.433 107.421 207.534 107.24L213.116 97.1155C213.186 96.9873 213.28 96.8992 213.398 96.8512C213.517 96.8033 213.644 96.8029 213.78 96.85C213.961 96.9128 214.074 97.028 214.117 97.1955C214.176 97.3555 214.155 97.5261 214.055 97.7071L208.466 107.849C208.396 107.977 208.302 108.065 208.184 108.113C208.066 108.161 207.939 108.161 207.803 108.114ZM202.984 102.997C202.836 102.946 202.724 102.85 202.645 102.709C202.583 102.56 202.577 102.412 202.628 102.265C202.679 102.117 202.771 102.016 202.905 101.961C203.049 101.909 203.196 101.909 203.343 101.96L211.898 104.923C212.057 104.978 212.17 105.074 212.237 105.211C212.303 105.349 212.309 105.497 212.254 105.656C212.203 105.803 212.111 105.904 211.977 105.96C211.844 106.015 211.698 106.015 211.539 105.96L202.984 102.997ZM217.308 111.596C216.435 111.294 215.728 110.84 215.189 110.234C214.649 109.628 214.309 108.926 214.166 108.127C214.024 107.329 214.107 106.481 214.418 105.586C214.751 104.622 215.223 103.865 215.833 103.314C216.454 102.767 217.128 102.416 217.855 102.261C218.597 102.099 219.308 102.136 219.988 102.372C220.487 102.544 220.938 102.802 221.34 103.144C221.757 103.479 222.086 103.886 222.327 104.363C222.584 104.833 222.733 105.354 222.776 105.928C222.83 106.505 222.754 107.127 222.549 107.792C222.491 107.924 222.393 108.024 222.255 108.091C222.122 108.146 221.987 108.15 221.851 108.103L215.031 105.741L215.145 104.752L221.846 107.072L221.554 107.2L221.672 106.86C221.811 106.311 221.798 105.799 221.633 105.322C221.468 104.846 221.209 104.439 220.856 104.101C220.503 103.763 220.1 103.515 219.646 103.358C219.306 103.24 218.931 103.187 218.521 103.197C218.123 103.211 217.725 103.315 217.328 103.508C216.946 103.693 216.586 103.981 216.248 104.372C215.913 104.751 215.64 105.247 215.428 105.859C215.196 106.528 215.122 107.182 215.206 107.821C215.289 108.459 215.531 109.026 215.932 109.52C216.343 110.018 216.906 110.391 217.621 110.638C218.017 110.775 218.394 110.842 218.751 110.839C219.108 110.836 219.437 110.784 219.738 110.685C220.043 110.575 220.31 110.445 220.539 110.296C220.699 110.237 220.842 110.23 220.966 110.273C221.08 110.312 221.16 110.391 221.208 110.509C221.268 110.631 221.278 110.749 221.238 110.862C221.191 110.998 221.093 111.098 220.945 111.161C220.463 111.451 219.897 111.655 219.247 111.773C218.6 111.879 217.954 111.82 217.308 111.596ZM230.235 105.92C230.983 106.179 231.525 106.539 231.862 106.998C232.213 107.45 232.395 107.97 232.407 108.558C232.434 109.139 232.34 109.742 232.124 110.365L230.392 115.366C230.345 115.502 230.253 115.603 230.116 115.67C229.978 115.737 229.841 115.747 229.705 115.699C229.547 115.644 229.44 115.55 229.384 115.417C229.329 115.283 229.325 115.149 229.372 115.012L231.086 110.063C231.243 109.609 231.313 109.17 231.295 108.745C231.277 108.319 231.137 107.934 230.876 107.59C230.625 107.249 230.228 106.985 229.684 106.796C229.196 106.627 228.692 106.58 228.171 106.653C227.662 106.731 227.206 106.91 226.805 107.19C226.403 107.469 226.123 107.836 225.966 108.29L224.252 113.239C224.205 113.375 224.113 113.477 223.975 113.544C223.838 113.61 223.701 113.62 223.565 113.573C223.406 113.518 223.299 113.424 223.244 113.29C223.189 113.157 223.185 113.022 223.232 112.886L225.871 105.266C225.918 105.13 226.004 105.027 226.13 104.956C226.268 104.889 226.41 104.881 226.558 104.932C226.705 104.983 226.806 105.076 226.862 105.209C226.928 105.347 226.938 105.483 226.891 105.619L226.396 107.048L225.793 107.525C225.941 107.17 226.175 106.863 226.493 106.605C226.826 106.34 227.202 106.133 227.621 105.987C228.044 105.828 228.48 105.744 228.928 105.734C229.391 105.717 229.827 105.779 230.235 105.92ZM233.859 118.014C233.67 118.558 233.381 118.972 232.991 119.256C232.608 119.555 232.194 119.742 231.749 119.817C231.304 119.891 230.894 119.864 230.52 119.734C230.373 119.683 230.275 119.599 230.227 119.48C230.168 119.358 230.16 119.235 230.203 119.11L230.227 119.042C230.274 118.906 230.356 118.814 230.475 118.766C230.593 118.718 230.712 118.702 230.834 118.719C231.114 118.753 231.386 118.739 231.648 118.677C231.922 118.62 232.168 118.495 232.387 118.304C232.605 118.113 232.774 117.848 232.891 117.508L235.931 108.731C235.978 108.595 236.065 108.492 236.191 108.421C236.328 108.354 236.47 108.346 236.618 108.397C236.765 108.448 236.867 108.541 236.922 108.674C236.989 108.812 236.998 108.948 236.951 109.084L233.859 118.014ZM237.083 107.054C236.845 106.971 236.681 106.857 236.592 106.712C236.518 106.559 236.516 106.381 236.587 106.177L236.646 106.007C236.716 105.803 236.832 105.671 236.992 105.612C237.167 105.546 237.368 105.552 237.595 105.631C237.81 105.705 237.955 105.819 238.029 105.972C238.119 106.117 238.128 106.292 238.057 106.496L237.998 106.666C237.928 106.87 237.81 107.007 237.646 107.077C237.498 107.14 237.31 107.132 237.083 107.054ZM247.077 116.839C246.778 117.701 246.322 118.413 245.709 118.975C245.099 119.525 244.402 119.887 243.618 120.06C242.838 120.222 242.034 120.16 241.207 119.873C240.402 119.594 239.737 119.148 239.213 118.535C238.704 117.914 238.375 117.197 238.225 116.383C238.09 115.562 238.172 114.72 238.47 113.858C238.773 112.985 239.229 112.273 239.839 111.722C240.46 111.176 241.162 110.816 241.946 110.643C242.741 110.474 243.541 110.528 244.346 110.807C245.174 111.094 245.842 111.548 246.351 112.168C246.86 112.789 247.184 113.504 247.323 114.314C247.461 115.124 247.379 115.966 247.077 116.839ZM246.056 116.485C246.296 115.794 246.366 115.132 246.267 114.501C246.172 113.859 245.928 113.298 245.535 112.819C245.158 112.333 244.651 111.98 244.016 111.76C243.404 111.548 242.794 111.514 242.185 111.659C241.58 111.792 241.036 112.08 240.552 112.522C240.084 112.957 239.73 113.52 239.491 114.212C239.251 114.903 239.181 115.565 239.28 116.196C239.39 116.831 239.64 117.394 240.029 117.884C240.422 118.363 240.924 118.708 241.537 118.92C242.172 119.14 242.786 119.182 243.38 119.044C243.988 118.9 244.527 118.61 244.995 118.175C245.463 117.74 245.817 117.177 246.056 116.485ZM257.281 115.344C257.429 115.395 257.53 115.487 257.585 115.621C257.652 115.758 257.662 115.895 257.615 116.031L255.017 123.532C254.699 124.45 254.251 125.159 253.672 125.657C253.089 126.166 252.436 126.473 251.714 126.579C250.988 126.695 250.234 126.618 249.451 126.347C248.964 126.179 248.53 125.965 248.149 125.706C247.777 125.463 247.489 125.211 247.287 124.95C247.179 124.824 247.11 124.692 247.081 124.555C247.052 124.418 247.088 124.297 247.188 124.192C247.3 124.053 247.422 123.975 247.555 123.957C247.695 123.955 247.818 124.004 247.923 124.104C248.081 124.273 248.315 124.494 248.627 124.767C248.939 125.04 249.327 125.257 249.792 125.418C250.416 125.634 251 125.69 251.544 125.586C252.099 125.486 252.587 125.23 253.01 124.818C253.428 124.417 253.755 123.876 253.991 123.195L254.415 121.971L254.392 122.42C254.101 122.713 253.749 122.94 253.337 123.102C252.937 123.268 252.505 123.36 252.042 123.378C251.594 123.388 251.143 123.314 250.689 123.157C250.009 122.921 249.489 122.589 249.13 122.16C248.786 121.723 248.591 121.224 248.544 120.661C248.497 120.099 248.588 119.489 248.816 118.832L250.624 113.61C250.671 113.474 250.758 113.37 250.884 113.3C251.01 113.229 251.152 113.221 251.311 113.276C251.458 113.327 251.56 113.42 251.615 113.553C251.682 113.691 251.692 113.827 251.645 113.963L249.889 119.032C249.614 119.826 249.572 120.497 249.763 121.046C249.966 121.598 250.458 122.01 251.24 122.281C251.728 122.45 252.215 122.492 252.702 122.406C253.193 122.309 253.633 122.119 254.024 121.835C254.418 121.54 254.69 121.177 254.839 120.746L256.594 115.677C256.641 115.541 256.728 115.438 256.854 115.367C256.991 115.301 257.134 115.293 257.281 115.344Z" fill="#121212"/>
<rect x="69.7422" y="33.7896" width="121.322" height="48" rx="24" transform="rotate(41.4031 69.7422 33.7896)" fill="#DEC8FE"/>
<path d="M86.8025 77.5865C86.9285 77.6976 86.9924 77.8339 86.994 77.9953C87.0036 78.1478 86.9528 78.287 86.8417 78.413C86.7385 78.53 86.6147 78.5888 86.4702 78.5894C86.3257 78.59 86.1905 78.5347 86.0644 78.4236L84.8358 77.3403L81.7038 79.8582L82.9189 80.9296C83.0449 81.0407 83.1127 81.1725 83.1223 81.3249C83.1319 81.4774 83.0811 81.6166 82.97 81.7426C82.8669 81.8596 82.743 81.9184 82.5985 81.919C82.454 81.9196 82.3188 81.8643 82.1928 81.7532L80.8426 80.5628L78.6329 82.3341C78.5197 82.4262 78.3993 82.472 78.2717 82.4715C78.1442 82.4711 78.0264 82.4232 77.9184 82.328C77.8014 82.2248 77.7381 82.097 77.7285 81.9446C77.7268 81.7831 77.7816 81.6394 77.8927 81.5134L78.0014 81.4173L79.9921 79.8128L77.3458 77.4795L75.1361 79.2508C75.0318 79.3509 74.9114 79.3967 74.7749 79.3883C74.6473 79.3878 74.5295 79.34 74.4215 79.2447C74.3045 79.1416 74.2412 79.0138 74.2316 78.8613C74.23 78.6999 74.2847 78.5562 74.3958 78.4302L74.5046 78.3341L76.4952 76.7296L75.4016 75.7653C75.2846 75.6622 75.2168 75.5304 75.1982 75.37C75.1966 75.2086 75.2473 75.0694 75.3505 74.9523C75.4537 74.8353 75.5775 74.7765 75.722 74.7759C75.8665 74.7754 76.0017 74.8306 76.1278 74.9417L77.3699 76.0369L80.4884 73.5071L79.2868 72.4476C79.1608 72.3365 79.0885 72.2008 79.0699 72.0404C79.0682 71.879 79.123 71.7352 79.2341 71.6092C79.3372 71.4922 79.4611 71.4334 79.6056 71.4328C79.7591 71.4402 79.8988 71.4994 80.0248 71.6105L81.375 72.801L83.5117 71.0853C83.6249 70.9931 83.7453 70.9473 83.8729 70.9478C84.0094 70.9562 84.1272 71.0041 84.2262 71.0914C84.3702 71.2183 84.4306 71.3676 84.4074 71.5391C84.4011 71.7095 84.317 71.8593 84.1551 71.9886L82.2256 73.5509L84.8718 75.8842L87.0085 74.1685C87.1217 74.0764 87.2421 74.0305 87.3697 74.031C87.4973 74.0315 87.615 74.0794 87.7231 74.1746C87.8671 74.3016 87.9275 74.4508 87.9042 74.6223C87.898 74.7927 87.8138 74.9426 87.6519 75.0718L85.7224 76.6342L86.8025 77.5865ZM80.8667 79.1202L83.9852 76.5903L81.339 74.2571L78.207 76.775L80.8667 79.1202ZM92.9252 79.1694C92.6372 78.9154 92.3289 78.8115 92.0002 78.8577C91.6805 78.9118 91.3738 79.1054 91.0802 79.4384L89.8541 80.829L91.3662 82.1623C91.4652 82.2496 91.519 82.361 91.5275 82.4965C91.545 82.64 91.5062 82.7657 91.4109 82.8737C91.3157 82.9817 91.1958 83.036 91.0513 83.0366C90.9158 83.0451 90.7986 83.0057 90.6996 82.9184L89.1874 81.5851L84.2471 87.1882C84.1439 87.3052 84.0161 87.3685 83.8637 87.3781C83.7282 87.3866 83.602 87.3393 83.4849 87.2361C83.3679 87.1329 83.3007 87.0096 83.2831 86.8662C83.2826 86.7217 83.3339 86.5909 83.437 86.4739L88.3773 80.8709L87.3917 80.0018C87.2837 79.9066 87.2255 79.7912 87.2169 79.6557C87.2164 79.5112 87.2597 79.3895 87.347 79.2905C87.4502 79.1735 87.5656 79.1152 87.6931 79.1157C87.8286 79.1072 87.9504 79.1505 88.0584 79.2458L89.044 80.1148L90.2701 78.7241C90.7701 78.1571 91.317 77.8634 91.9109 77.8431C92.5217 77.8217 93.1016 78.053 93.6507 78.5371C93.9027 78.7594 94.101 79.0062 94.2456 79.2777C94.3981 79.5402 94.399 79.7569 94.2482 79.9279C94.153 80.0359 94.0376 80.0942 93.9021 80.1027C93.7666 80.1112 93.6539 80.0758 93.5639 79.9964C93.4829 79.925 93.4037 79.8152 93.3264 79.667C93.176 79.4384 93.0422 79.2726 92.9252 79.1694ZM98.356 88.1574C98.473 88.2605 98.5318 88.3844 98.5324 88.5289C98.5499 88.6723 98.5071 88.8025 98.4039 88.9195L95.0469 92.7269C94.2691 93.609 93.4224 94.0703 92.5068 94.1109C91.599 94.1424 90.7086 93.7733 89.8355 93.0035C88.9714 92.2416 88.4982 91.4084 88.4159 90.5039C88.3504 89.5983 88.7066 88.7044 89.4843 87.8223L92.8414 84.0149C92.9445 83.8979 93.0639 83.8352 93.1994 83.8266C93.3518 83.8171 93.4865 83.8639 93.6035 83.967C93.7205 84.0702 93.7793 84.194 93.7799 84.3385C93.7974 84.482 93.7546 84.6122 93.6514 84.7292L90.2944 88.5366C89.723 89.1846 89.4575 89.8305 89.498 90.4741C89.5464 91.1087 89.8811 91.6998 90.5022 92.2474C91.1322 92.8029 91.7651 93.065 92.4008 93.0335C93.0534 93.001 93.6654 92.6607 94.2368 92.0126L97.5938 88.2053C97.697 88.0883 97.8163 88.0255 97.9518 88.017C98.1043 88.0074 98.239 88.0542 98.356 88.1574ZM104.318 93.0539C105.155 93.792 105.549 94.5791 105.499 95.4155C105.467 96.2507 105.093 97.0734 104.379 97.8834L100.879 101.853C100.776 101.97 100.648 102.033 100.496 102.043C100.351 102.043 100.225 101.996 100.117 101.901C99.9999 101.798 99.9326 101.674 99.9151 101.531C99.9145 101.386 99.9658 101.256 100.069 101.139L103.533 97.2097C104.049 96.6246 104.317 96.0211 104.338 95.3992C104.375 94.7762 104.088 94.1949 103.476 93.6552C103.088 93.314 102.64 93.0786 102.13 92.9491C101.63 92.8275 101.136 92.8245 100.65 92.9401C100.172 93.0466 99.7788 93.2754 99.4693 93.6265L96.0051 97.5554C95.9019 97.6724 95.7741 97.7357 95.6217 97.7453C95.4862 97.7538 95.3599 97.7065 95.2429 97.6033C95.1259 97.5001 95.0587 97.3768 95.0411 97.2334C95.0406 97.0889 95.0919 96.9581 95.195 96.8411L100.528 90.7925C100.631 90.6755 100.751 90.6127 100.886 90.6042C101.039 90.5946 101.173 90.6414 101.29 90.7446C101.407 90.8478 101.466 90.9716 101.467 91.1161C101.484 91.2595 101.441 91.3898 101.338 91.5068L100.684 92.2493C101.268 92.0766 101.896 92.0626 102.568 92.2074C103.258 92.3511 103.841 92.6333 104.318 93.0539ZM112.123 99.9361C112.96 100.674 113.354 101.461 113.305 102.298C113.272 103.133 112.899 103.956 112.184 104.766L108.685 108.735C108.581 108.852 108.454 108.915 108.301 108.925C108.157 108.926 108.03 108.878 107.922 108.783C107.805 108.68 107.738 108.556 107.721 108.413C107.72 108.269 107.771 108.138 107.874 108.021L111.339 104.092C111.855 103.507 112.123 102.903 112.143 102.281C112.18 101.658 111.893 101.077 111.281 100.537C110.894 100.196 110.446 99.9608 109.936 99.8313C109.435 99.7097 108.942 99.7067 108.456 99.8223C107.978 99.9288 107.584 100.158 107.275 100.509L103.811 104.438C103.707 104.555 103.58 104.618 103.427 104.627C103.292 104.636 103.165 104.589 103.048 104.485C102.931 104.382 102.864 104.259 102.847 104.116C102.846 103.971 102.897 103.84 103 103.723L108.334 97.6747C108.437 97.5577 108.556 97.4949 108.692 97.4864C108.844 97.4768 108.979 97.5236 109.096 97.6268C109.213 97.73 109.272 97.8538 109.272 97.9983C109.29 98.1417 109.247 98.272 109.144 98.389L108.489 99.1315C109.073 98.9588 109.702 98.9448 110.374 99.0896C111.063 99.2333 111.646 99.5155 112.123 99.9361ZM121.717 108.467C121.834 108.57 121.893 108.694 121.894 108.839C121.911 108.982 121.868 109.112 121.765 109.229L116.515 115.184C115.888 115.895 115.213 116.379 114.49 116.637C113.766 116.895 113.042 116.936 112.317 116.761C111.591 116.586 110.918 116.224 110.297 115.676C109.919 115.343 109.599 114.989 109.338 114.614C109.085 114.248 108.91 113.902 108.813 113.576C108.728 113.293 108.748 113.079 108.875 112.935C108.891 112.917 108.94 112.88 109.021 112.823C109.128 112.757 109.232 112.729 109.335 112.74C109.437 112.751 109.525 112.788 109.597 112.851C109.651 112.899 109.693 112.96 109.723 113.034C110.021 113.857 110.432 114.499 110.954 114.959C111.701 115.618 112.497 115.904 113.341 115.817C114.195 115.737 114.979 115.293 115.693 114.483L116.11 114.01C115.552 114.19 114.958 114.21 114.328 114.071C113.707 113.923 113.149 113.631 112.654 113.195C111.871 112.504 111.483 111.746 111.49 110.921C111.498 110.096 111.855 109.283 112.561 108.482L116.216 104.337C116.319 104.22 116.439 104.157 116.574 104.148C116.726 104.139 116.861 104.186 116.978 104.289C117.095 104.392 117.154 104.516 117.155 104.66C117.172 104.804 117.129 104.934 117.026 105.051L113.479 109.074C112.907 109.722 112.614 110.336 112.6 110.915C112.594 111.502 112.893 112.061 113.496 112.593C113.865 112.919 114.295 113.138 114.787 113.252C115.296 113.364 115.78 113.359 116.24 113.237C116.717 113.113 117.106 112.881 117.408 112.539L120.955 108.515C121.058 108.398 121.178 108.335 121.313 108.327C121.465 108.317 121.6 108.364 121.717 108.467Z" fill="#121212"/>
<rect x="133.777" y="159.79" width="121.322" height="48" rx="24" transform="rotate(0.92934 133.777 159.79)" fill="#704FE6"/>
<path d="M164.012 191.284C163.832 191.281 163.689 191.207 163.584 191.061C163.49 190.916 163.457 190.741 163.484 190.538L165.631 179.177C165.669 179.033 165.737 178.921 165.834 178.838C165.932 178.756 166.046 178.716 166.178 178.718C166.37 178.721 166.513 178.795 166.607 178.941C166.713 179.074 166.746 179.243 166.706 179.446L164.56 190.825C164.545 190.969 164.483 191.082 164.374 191.164C164.277 191.246 164.156 191.287 164.012 191.284ZM163.301 182.956C163.133 182.953 162.99 182.897 162.872 182.787C162.766 182.665 162.714 182.52 162.717 182.352C162.719 182.196 162.775 182.071 162.885 181.977C163.006 181.883 163.151 181.837 163.319 181.84L172.354 181.986C172.522 181.989 172.659 182.051 172.765 182.173C172.871 182.283 172.923 182.422 172.92 182.59C172.918 182.746 172.862 182.871 172.752 182.965C172.643 183.059 172.504 183.105 172.336 183.102L163.301 182.956ZM168.674 191.36C168.482 191.357 168.333 191.282 168.227 191.137C168.133 190.991 168.106 190.817 168.146 190.613L170.292 179.252C170.318 179.109 170.38 178.996 170.478 178.913C170.575 178.831 170.696 178.791 170.84 178.793C171.032 178.796 171.174 178.871 171.268 179.016C171.374 179.15 171.407 179.319 171.368 179.522L169.221 190.901C169.195 191.044 169.133 191.157 169.036 191.24C168.938 191.322 168.818 191.362 168.674 191.36ZM162.499 188.001C162.343 187.999 162.206 187.942 162.088 187.833C161.982 187.711 161.93 187.572 161.933 187.416C161.935 187.26 161.991 187.135 162.101 187.041C162.222 186.947 162.361 186.901 162.517 186.903L171.57 187.05C171.738 187.053 171.875 187.109 171.981 187.219C172.087 187.329 172.139 187.468 172.136 187.635C172.134 187.791 172.078 187.917 171.968 188.011C171.859 188.105 171.72 188.151 171.552 188.148L162.499 188.001ZM178.98 182.256C179.736 182.268 180.345 182.44 180.808 182.771C181.27 183.103 181.605 183.547 181.812 184.102C182.031 184.658 182.135 185.271 182.124 185.943L182.042 191.037C182.04 191.181 181.983 191.306 181.874 191.412C181.764 191.518 181.637 191.57 181.493 191.568C181.325 191.565 181.194 191.509 181.1 191.399C181.006 191.29 180.96 191.163 180.962 191.019L181.045 185.926C181.053 185.434 180.982 184.989 180.832 184.59C180.695 184.192 180.46 183.876 180.128 183.643C179.795 183.397 179.347 183.27 178.784 183.261C178.28 183.253 177.798 183.365 177.338 183.597C176.89 183.818 176.525 184.124 176.243 184.516C175.96 184.907 175.815 185.349 175.807 185.841L175.725 190.934C175.722 191.078 175.666 191.203 175.557 191.309C175.447 191.416 175.32 191.468 175.176 191.465C175.008 191.463 174.877 191.406 174.783 191.297C174.688 191.187 174.643 191.061 174.645 190.917L174.843 178.678C174.846 178.534 174.896 178.409 174.993 178.303C175.103 178.196 175.236 178.145 175.392 178.147C175.548 178.15 175.673 178.206 175.767 178.315C175.874 178.425 175.926 178.552 175.923 178.696L175.829 184.527L175.404 185.15C175.435 184.779 175.554 184.42 175.764 184.076C175.986 183.719 176.267 183.406 176.607 183.135C176.948 182.853 177.323 182.637 177.734 182.488C178.145 182.326 178.56 182.249 178.98 182.256ZM192.555 182.548C192.711 182.551 192.836 182.607 192.931 182.716C193.037 182.826 193.089 182.959 193.086 183.115L192.955 191.214C192.953 191.358 192.897 191.483 192.787 191.589C192.677 191.695 192.55 191.747 192.406 191.745C192.25 191.742 192.119 191.686 192.013 191.576C191.919 191.467 191.873 191.34 191.875 191.196L191.91 189.054L192.218 188.915C192.213 189.251 192.111 189.592 191.913 189.937C191.728 190.282 191.471 190.601 191.142 190.896C190.813 191.191 190.425 191.431 189.978 191.615C189.543 191.788 189.074 191.871 188.57 191.863C187.754 191.849 187.025 191.628 186.384 191.197C185.755 190.767 185.261 190.183 184.901 189.445C184.552 188.707 184.386 187.882 184.401 186.97C184.416 186.034 184.615 185.216 184.999 184.514C185.382 183.8 185.895 183.244 186.538 182.846C187.18 182.449 187.904 182.257 188.707 182.27C189.223 182.278 189.702 182.376 190.143 182.563C190.596 182.75 190.988 183.003 191.319 183.32C191.65 183.637 191.902 184.002 192.075 184.412C192.261 184.812 192.35 185.227 192.343 185.659L191.969 185.383L192.006 183.097C192.009 182.941 192.059 182.81 192.157 182.704C192.267 182.597 192.399 182.545 192.555 182.548ZM188.676 190.856C189.312 190.866 189.879 190.714 190.376 190.398C190.873 190.07 191.265 189.62 191.55 189.049C191.847 188.465 192.002 187.814 192.014 187.094C192.025 186.386 191.891 185.748 191.613 185.179C191.346 184.611 190.969 184.154 190.483 183.811C189.996 183.467 189.435 183.289 188.799 183.279C188.175 183.269 187.609 183.422 187.099 183.738C186.602 184.054 186.205 184.491 185.908 185.051C185.623 185.61 185.474 186.256 185.462 186.988C185.451 187.707 185.578 188.364 185.845 188.956C186.123 189.537 186.506 189.999 186.992 190.343C187.479 190.675 188.04 190.846 188.676 190.856ZM200.304 182.602C201.119 182.615 201.836 182.831 202.453 183.249C203.083 183.655 203.578 184.215 203.938 184.929C204.299 185.631 204.472 186.438 204.457 187.35C204.442 188.262 204.243 189.068 203.86 189.77C203.476 190.472 202.963 191.022 202.321 191.42C201.678 191.817 200.961 192.01 200.169 191.997C199.749 191.99 199.348 191.923 198.966 191.797C198.596 191.659 198.257 191.48 197.949 191.259C197.64 191.038 197.369 190.781 197.133 190.489C196.898 190.185 196.711 189.858 196.573 189.508L196.901 189.279L196.81 194.877C196.808 195.021 196.752 195.146 196.642 195.252C196.544 195.358 196.417 195.41 196.261 195.408C196.105 195.405 195.974 195.349 195.868 195.239C195.774 195.13 195.728 195.003 195.73 194.859L195.921 183.125C195.923 182.969 195.973 182.837 196.071 182.731C196.169 182.625 196.302 182.573 196.469 182.575C196.625 182.578 196.751 182.634 196.845 182.744C196.951 182.853 197.003 182.986 197 183.142L196.969 185.086L196.719 184.938C196.845 184.568 197.025 184.241 197.257 183.956C197.502 183.66 197.782 183.413 198.097 183.214C198.413 183.003 198.757 182.847 199.131 182.745C199.505 182.643 199.896 182.595 200.304 182.602ZM200.197 183.608C199.549 183.598 198.977 183.75 198.48 184.066C197.983 184.37 197.586 184.796 197.289 185.343C197.004 185.879 196.856 186.506 196.844 187.226C196.833 187.934 196.96 188.572 197.227 189.141C197.506 189.709 197.889 190.16 198.375 190.491C198.862 190.811 199.43 190.977 200.078 190.987C200.713 190.997 201.274 190.85 201.759 190.546C202.256 190.23 202.653 189.793 202.95 189.233C203.247 188.674 203.402 188.041 203.413 187.333C203.425 186.625 203.291 185.993 203.012 185.436C202.733 184.879 202.35 184.441 201.863 184.121C201.388 183.789 200.833 183.618 200.197 183.608ZM211.218 182.779C212.034 182.792 212.751 183.008 213.368 183.426C213.997 183.832 214.492 184.392 214.853 185.106C215.214 185.808 215.386 186.615 215.372 187.527C215.357 188.439 215.158 189.245 214.774 189.947C214.391 190.649 213.878 191.199 213.235 191.597C212.593 191.994 211.876 192.187 211.084 192.174C210.664 192.167 210.263 192.1 209.881 191.974C209.511 191.836 209.172 191.657 208.863 191.436C208.555 191.215 208.283 190.958 208.048 190.666C207.813 190.362 207.626 190.035 207.488 189.685L207.815 189.456L207.725 195.054C207.722 195.198 207.666 195.323 207.556 195.429C207.459 195.535 207.332 195.587 207.176 195.585C207.02 195.582 206.889 195.526 206.783 195.416C206.688 195.307 206.642 195.18 206.645 195.036L206.835 183.302C206.838 183.146 206.888 183.015 206.985 182.908C207.083 182.802 207.216 182.75 207.384 182.753C207.54 182.755 207.665 182.811 207.759 182.921C207.866 183.03 207.917 183.163 207.915 183.319L207.883 185.263L207.634 185.115C207.76 184.745 207.939 184.418 208.172 184.133C208.417 183.837 208.697 183.59 209.012 183.391C209.327 183.18 209.672 183.024 210.046 182.922C210.419 182.82 210.81 182.772 211.218 182.779ZM211.112 183.785C210.464 183.775 209.891 183.927 209.394 184.243C208.897 184.547 208.5 184.973 208.203 185.52C207.919 186.056 207.77 186.683 207.759 187.403C207.747 188.111 207.875 188.749 208.142 189.318C208.42 189.886 208.803 190.337 209.29 190.668C209.777 190.988 210.344 191.154 210.992 191.164C211.628 191.174 212.188 191.028 212.673 190.723C213.171 190.407 213.568 189.97 213.865 189.411C214.162 188.851 214.316 188.218 214.328 187.51C214.339 186.802 214.206 186.17 213.927 185.613C213.648 185.056 213.265 184.618 212.778 184.298C212.303 183.966 211.748 183.795 211.112 183.785ZM224.618 182.906C224.774 182.909 224.899 182.965 224.993 183.074C225.099 183.184 225.151 183.311 225.149 183.455L225.02 191.392C225.005 192.364 224.799 193.176 224.405 193.83C224.01 194.496 223.486 194.991 222.832 195.317C222.179 195.654 221.438 195.816 220.61 195.803C220.094 195.794 219.615 195.727 219.173 195.599C218.743 195.484 218.391 195.335 218.118 195.15C217.976 195.064 217.869 194.96 217.799 194.839C217.729 194.718 217.725 194.592 217.788 194.461C217.85 194.294 217.942 194.181 218.063 194.123C218.196 194.077 218.328 194.086 218.459 194.148C218.661 194.259 218.953 194.396 219.334 194.558C219.716 194.72 220.152 194.805 220.644 194.813C221.304 194.824 221.876 194.695 222.361 194.427C222.857 194.159 223.242 193.763 223.514 193.24C223.786 192.728 223.928 192.112 223.94 191.392L223.961 190.096L224.08 190.53C223.894 190.899 223.631 191.225 223.29 191.508C222.962 191.79 222.58 192.012 222.145 192.173C221.723 192.322 221.272 192.393 220.792 192.385C220.072 192.374 219.474 192.22 218.999 191.924C218.536 191.617 218.194 191.203 217.975 190.683C217.755 190.164 217.651 189.556 217.662 188.86L217.752 183.335C217.754 183.191 217.804 183.066 217.902 182.959C218 182.853 218.133 182.801 218.301 182.804C218.457 182.806 218.582 182.862 218.676 182.972C218.782 183.081 218.834 183.208 218.832 183.352L218.745 188.716C218.731 189.555 218.901 190.206 219.253 190.668C219.618 191.13 220.214 191.368 221.042 191.381C221.558 191.39 222.034 191.277 222.47 191.044C222.906 190.799 223.265 190.481 223.547 190.09C223.83 189.686 223.975 189.256 223.982 188.801L224.069 183.437C224.072 183.293 224.122 183.168 224.219 183.062C224.329 182.955 224.462 182.904 224.618 182.906Z" fill="white"/>
</svg>
