<svg width="701" height="618" viewBox="0 0 701 618" fill="none" xmlns="http://www.w3.org/2000/svg">
<path d="M127 147.5C127 151.552 121.387 155.039 120.623 158.858C119.826 162.81 123.679 168.157 122.184 171.811C120.657 175.53 114.147 176.56 111.922 179.848C109.697 183.169 111.191 189.579 108.402 192.402C105.579 195.225 99.1689 193.697 95.8478 195.922C92.5599 198.114 91.4971 204.623 87.8107 206.184C84.1574 207.679 78.8436 203.86 74.8583 204.623C71.0058 205.387 67.5518 211 63.5 211C59.4482 211 55.961 205.387 52.1417 204.623C48.1896 203.826 42.8426 207.679 39.1893 206.184C35.4697 204.657 34.4401 198.147 31.1522 195.922C27.8311 193.697 21.4213 195.191 18.5983 192.402C15.7754 189.579 17.3031 183.169 15.0779 179.848C12.886 176.56 6.37657 175.497 4.81564 171.811C3.32113 168.157 7.14043 162.844 6.37657 158.858C5.61271 155.006 0 151.552 0 147.5C0 143.448 5.61271 139.961 6.37657 136.142C7.17364 132.19 3.32113 126.843 4.81564 123.189C6.34336 119.47 12.8528 118.44 15.0779 115.152C17.3031 111.831 15.8086 105.421 18.5983 102.598C21.4213 99.7754 27.8311 101.303 31.1522 99.0779C34.4401 96.886 35.5029 90.3766 39.1893 88.8156C42.8426 87.3211 48.1564 91.1404 52.1417 90.3766C55.9942 89.6127 59.4482 84 63.5 84C67.5518 84 71.039 89.6127 74.8583 90.3766C78.8104 91.1736 84.1574 87.3211 87.8107 88.8156C91.5303 90.3434 92.5599 96.8528 95.8478 99.0779C99.1689 101.303 105.579 99.8086 108.402 102.598C111.225 105.421 109.697 111.831 111.922 115.152C114.114 118.44 120.623 119.503 122.184 123.189C123.679 126.843 119.86 132.156 120.623 136.142C121.387 139.994 127 143.448 127 147.5Z" fill="#FFBDF5"/>
<path d="M90.4007 117.401L87 114" stroke="#19223F" stroke-width="2.17224" stroke-miterlimit="10" stroke-linecap="round"/>
<path d="M98.0862 125.086L94.6855 121.685" stroke="#19223F" stroke-width="2.17224" stroke-miterlimit="10" stroke-linecap="round"/>
<path d="M90.4007 121.685L87 125.086" stroke="#19223F" stroke-width="2.17224" stroke-miterlimit="10" stroke-linecap="round"/>
<path d="M98.0862 114L94.6855 117.401" stroke="#19223F" stroke-width="2.17224" stroke-miterlimit="10" stroke-linecap="round"/>
<path d="M30.8763 169.374L27.502 166" stroke="#19223F" stroke-width="2.15541" stroke-miterlimit="10" stroke-linecap="round"/>
<path d="M38.5013 177L35.127 173.626" stroke="#19223F" stroke-width="2.15541" stroke-miterlimit="10" stroke-linecap="round"/>
<path d="M30.8763 173.626L27.502 177" stroke="#19223F" stroke-width="2.15541" stroke-miterlimit="10" stroke-linecap="round"/>
<path d="M38.5013 166L35.127 169.374" stroke="#19223F" stroke-width="2.15541" stroke-miterlimit="10" stroke-linecap="round"/>
<path d="M326.242 12.4837C329.689 12.4837 332.484 9.6891 332.484 6.24183C332.484 2.79456 329.689 0 326.242 0C322.795 0 320 2.79456 320 6.24183C320 9.6891 322.795 12.4837 326.242 12.4837Z" fill="white" fill-opacity="0.23"/>
<path d="M353.527 12.4837C356.974 12.4837 359.769 9.6891 359.769 6.24183C359.769 2.79456 356.974 0 353.527 0C350.08 0 347.285 2.79456 347.285 6.24183C347.285 9.6891 350.08 12.4837 353.527 12.4837Z" fill="white" fill-opacity="0.23"/>
<path d="M380.81 12.4837C384.258 12.4837 387.052 9.6891 387.052 6.24183C387.052 2.79456 384.258 0 380.81 0C377.363 0 374.568 2.79456 374.568 6.24183C374.568 9.6891 377.363 12.4837 380.81 12.4837Z" fill="white" fill-opacity="0.23"/>
<path d="M408.142 12.4837C411.589 12.4837 414.384 9.6891 414.384 6.24183C414.384 2.79456 411.589 0 408.142 0C404.695 0 401.9 2.79456 401.9 6.24183C401.9 9.6891 404.695 12.4837 408.142 12.4837Z" fill="white" fill-opacity="0.23"/>
<path d="M435.427 12.4837C438.875 12.4837 441.669 9.6891 441.669 6.24183C441.669 2.79456 438.875 0 435.427 0C431.98 0 429.186 2.79456 429.186 6.24183C429.186 9.6891 431.98 12.4837 435.427 12.4837Z" fill="white" fill-opacity="0.23"/>
<path d="M462.757 12.4837C466.205 12.4837 468.999 9.6891 468.999 6.24183C468.999 2.79456 466.205 0 462.757 0C459.31 0 456.516 2.79456 456.516 6.24183C456.516 9.6891 459.31 12.4837 462.757 12.4837Z" fill="white" fill-opacity="0.23"/>
<path d="M326.242 34.9673C329.689 34.9673 332.484 32.1727 332.484 28.7255C332.484 25.2782 329.689 22.4836 326.242 22.4836C322.795 22.4836 320 25.2782 320 28.7255C320 32.1727 322.795 34.9673 326.242 34.9673Z" fill="white" fill-opacity="0.23"/>
<path d="M353.527 34.9674C356.974 34.9674 359.769 32.1729 359.769 28.7256C359.769 25.2783 356.974 22.4838 353.527 22.4838C350.08 22.4838 347.285 25.2783 347.285 28.7256C347.285 32.1729 350.08 34.9674 353.527 34.9674Z" fill="white" fill-opacity="0.23"/>
<path d="M380.81 34.9673C384.258 34.9673 387.052 32.1727 387.052 28.7255C387.052 25.2782 384.258 22.4836 380.81 22.4836C377.363 22.4836 374.568 25.2782 374.568 28.7255C374.568 32.1727 377.363 34.9673 380.81 34.9673Z" fill="white" fill-opacity="0.23"/>
<path d="M408.142 34.9674C411.589 34.9674 414.384 32.1729 414.384 28.7256C414.384 25.2783 411.589 22.4838 408.142 22.4838C404.695 22.4838 401.9 25.2783 401.9 28.7256C401.9 32.1729 404.695 34.9674 408.142 34.9674Z" fill="white" fill-opacity="0.23"/>
<path d="M435.427 34.9674C438.875 34.9674 441.669 32.1729 441.669 28.7256C441.669 25.2783 438.875 22.4838 435.427 22.4838C431.98 22.4838 429.186 25.2783 429.186 28.7256C429.186 32.1729 431.98 34.9674 435.427 34.9674Z" fill="white" fill-opacity="0.23"/>
<path d="M462.757 34.9674C466.205 34.9674 468.999 32.1729 468.999 28.7256C468.999 25.2783 466.205 22.4838 462.757 22.4838C459.31 22.4838 456.516 25.2783 456.516 28.7256C456.516 32.1729 459.31 34.9674 462.757 34.9674Z" fill="white" fill-opacity="0.23"/>
<path d="M326.242 57.451C329.689 57.451 332.484 54.6564 332.484 51.2091C332.484 47.7618 329.689 44.9673 326.242 44.9673C322.795 44.9673 320 47.7618 320 51.2091C320 54.6564 322.795 57.451 326.242 57.451Z" fill="white" fill-opacity="0.23"/>
<path d="M353.527 57.4512C356.974 57.4512 359.769 54.6566 359.769 51.2094C359.769 47.7621 356.974 44.9675 353.527 44.9675C350.08 44.9675 347.285 47.7621 347.285 51.2094C347.285 54.6566 350.08 57.4512 353.527 57.4512Z" fill="white" fill-opacity="0.23"/>
<path d="M380.81 57.451C384.258 57.451 387.052 54.6564 387.052 51.2091C387.052 47.7618 384.258 44.9673 380.81 44.9673C377.363 44.9673 374.568 47.7618 374.568 51.2091C374.568 54.6564 377.363 57.451 380.81 57.451Z" fill="white" fill-opacity="0.23"/>
<path d="M408.142 57.4512C411.589 57.4512 414.384 54.6566 414.384 51.2094C414.384 47.7621 411.589 44.9675 408.142 44.9675C404.695 44.9675 401.9 47.7621 401.9 51.2094C401.9 54.6566 404.695 57.4512 408.142 57.4512Z" fill="white" fill-opacity="0.23"/>
<path d="M435.427 57.4512C438.875 57.4512 441.669 54.6566 441.669 51.2094C441.669 47.7621 438.875 44.9675 435.427 44.9675C431.98 44.9675 429.186 47.7621 429.186 51.2094C429.186 54.6566 431.98 57.4512 435.427 57.4512Z" fill="white" fill-opacity="0.23"/>
<path d="M462.757 57.4512C466.205 57.4512 468.999 54.6566 468.999 51.2094C468.999 47.7621 466.205 44.9675 462.757 44.9675C459.31 44.9675 456.516 47.7621 456.516 51.2094C456.516 54.6566 459.31 57.4512 462.757 57.4512Z" fill="white" fill-opacity="0.23"/>
<path d="M326.242 79.9347C329.689 79.9347 332.484 77.1401 332.484 73.6929C332.484 70.2456 329.689 67.451 326.242 67.451C322.795 67.451 320 70.2456 320 73.6929C320 77.1401 322.795 79.9347 326.242 79.9347Z" fill="white" fill-opacity="0.23"/>
<path d="M353.527 79.9345C356.974 79.9345 359.769 77.1399 359.769 73.6926C359.769 70.2454 356.974 67.4508 353.527 67.4508C350.08 67.4508 347.285 70.2454 347.285 73.6926C347.285 77.1399 350.08 79.9345 353.527 79.9345Z" fill="white" fill-opacity="0.23"/>
<path d="M380.81 79.9347C384.258 79.9347 387.052 77.1401 387.052 73.6929C387.052 70.2456 384.258 67.451 380.81 67.451C377.363 67.451 374.568 70.2456 374.568 73.6929C374.568 77.1401 377.363 79.9347 380.81 79.9347Z" fill="white" fill-opacity="0.23"/>
<path d="M408.142 79.9345C411.589 79.9345 414.384 77.1399 414.384 73.6926C414.384 70.2454 411.589 67.4508 408.142 67.4508C404.695 67.4508 401.9 70.2454 401.9 73.6926C401.9 77.1399 404.695 79.9345 408.142 79.9345Z" fill="white" fill-opacity="0.23"/>
<path d="M435.427 79.9345C438.875 79.9345 441.669 77.1399 441.669 73.6926C441.669 70.2454 438.875 67.4508 435.427 67.4508C431.98 67.4508 429.186 70.2454 429.186 73.6926C429.186 77.1399 431.98 79.9345 435.427 79.9345Z" fill="white" fill-opacity="0.23"/>
<path d="M462.757 79.9345C466.205 79.9345 468.999 77.1399 468.999 73.6926C468.999 70.2454 466.205 67.4508 462.757 67.4508C459.31 67.4508 456.516 70.2454 456.516 73.6926C456.516 77.1399 459.31 79.9345 462.757 79.9345Z" fill="white" fill-opacity="0.23"/>
<path d="M326.242 102.418C329.689 102.418 332.484 99.6238 332.484 96.1765C332.484 92.7293 329.689 89.9347 326.242 89.9347C322.795 89.9347 320 92.7293 320 96.1765C320 99.6238 322.795 102.418 326.242 102.418Z" fill="white" fill-opacity="0.23"/>
<path d="M353.527 102.418C356.974 102.418 359.769 99.6237 359.769 96.1764C359.769 92.7291 356.974 89.9346 353.527 89.9346C350.08 89.9346 347.285 92.7291 347.285 96.1764C347.285 99.6237 350.08 102.418 353.527 102.418Z" fill="white" fill-opacity="0.23"/>
<path d="M380.81 102.418C384.258 102.418 387.052 99.6238 387.052 96.1765C387.052 92.7293 384.258 89.9347 380.81 89.9347C377.363 89.9347 374.568 92.7293 374.568 96.1765C374.568 99.6238 377.363 102.418 380.81 102.418Z" fill="white" fill-opacity="0.23"/>
<path d="M408.142 102.418C411.589 102.418 414.384 99.6237 414.384 96.1764C414.384 92.7291 411.589 89.9346 408.142 89.9346C404.695 89.9346 401.9 92.7291 401.9 96.1764C401.9 99.6237 404.695 102.418 408.142 102.418Z" fill="white" fill-opacity="0.23"/>
<path d="M435.427 102.418C438.875 102.418 441.669 99.6237 441.669 96.1764C441.669 92.7291 438.875 89.9346 435.427 89.9346C431.98 89.9346 429.186 92.7291 429.186 96.1764C429.186 99.6237 431.98 102.418 435.427 102.418Z" fill="white" fill-opacity="0.23"/>
<path d="M462.757 102.418C466.205 102.418 468.999 99.6237 468.999 96.1764C468.999 92.7291 466.205 89.9346 462.757 89.9346C459.31 89.9346 456.516 92.7291 456.516 96.1764C456.516 99.6237 459.31 102.418 462.757 102.418Z" fill="white" fill-opacity="0.23"/>
<path d="M326.242 124.902C329.689 124.902 332.484 122.107 332.484 118.66C332.484 115.213 329.689 112.418 326.242 112.418C322.795 112.418 320 115.213 320 118.66C320 122.107 322.795 124.902 326.242 124.902Z" fill="white" fill-opacity="0.23"/>
<path d="M353.527 124.902C356.974 124.902 359.769 122.107 359.769 118.66C359.769 115.213 356.974 112.418 353.527 112.418C350.08 112.418 347.285 115.213 347.285 118.66C347.285 122.107 350.08 124.902 353.527 124.902Z" fill="white" fill-opacity="0.23"/>
<path d="M380.81 124.902C384.258 124.902 387.052 122.107 387.052 118.66C387.052 115.213 384.258 112.418 380.81 112.418C377.363 112.418 374.568 115.213 374.568 118.66C374.568 122.107 377.363 124.902 380.81 124.902Z" fill="white" fill-opacity="0.23"/>
<path d="M408.142 124.902C411.589 124.902 414.384 122.107 414.384 118.66C414.384 115.213 411.589 112.418 408.142 112.418C404.695 112.418 401.9 115.213 401.9 118.66C401.9 122.107 404.695 124.902 408.142 124.902Z" fill="white" fill-opacity="0.23"/>
<path d="M435.427 124.902C438.875 124.902 441.669 122.107 441.669 118.66C441.669 115.213 438.875 112.418 435.427 112.418C431.98 112.418 429.186 115.213 429.186 118.66C429.186 122.107 431.98 124.902 435.427 124.902Z" fill="white" fill-opacity="0.23"/>
<path d="M462.757 124.902C466.205 124.902 468.999 122.107 468.999 118.66C468.999 115.213 466.205 112.418 462.757 112.418C459.31 112.418 456.516 115.213 456.516 118.66C456.516 122.107 459.31 124.902 462.757 124.902Z" fill="white" fill-opacity="0.23"/>
<path d="M326.242 147.386C329.689 147.386 332.484 144.591 332.484 141.144C332.484 137.697 329.689 134.902 326.242 134.902C322.795 134.902 320 137.697 320 141.144C320 144.591 322.795 147.386 326.242 147.386Z" fill="white" fill-opacity="0.23"/>
<path d="M353.527 147.386C356.974 147.386 359.769 144.591 359.769 141.144C359.769 137.696 356.974 134.902 353.527 134.902C350.08 134.902 347.285 137.696 347.285 141.144C347.285 144.591 350.08 147.386 353.527 147.386Z" fill="white" fill-opacity="0.23"/>
<path d="M380.81 147.386C384.258 147.386 387.052 144.591 387.052 141.144C387.052 137.697 384.258 134.902 380.81 134.902C377.363 134.902 374.568 137.697 374.568 141.144C374.568 144.591 377.363 147.386 380.81 147.386Z" fill="white" fill-opacity="0.23"/>
<path d="M408.142 147.386C411.589 147.386 414.384 144.591 414.384 141.144C414.384 137.696 411.589 134.902 408.142 134.902C404.695 134.902 401.9 137.696 401.9 141.144C401.9 144.591 404.695 147.386 408.142 147.386Z" fill="white" fill-opacity="0.23"/>
<path d="M435.427 147.386C438.875 147.386 441.669 144.591 441.669 141.144C441.669 137.696 438.875 134.902 435.427 134.902C431.98 134.902 429.186 137.696 429.186 141.144C429.186 144.591 431.98 147.386 435.427 147.386Z" fill="white" fill-opacity="0.23"/>
<path d="M462.757 147.386C466.205 147.386 468.999 144.591 468.999 141.144C468.999 137.696 466.205 134.902 462.757 134.902C459.31 134.902 456.516 137.696 456.516 141.144C456.516 144.591 459.31 147.386 462.757 147.386Z" fill="white" fill-opacity="0.23"/>
<path d="M537.998 491.144C515.56 491.144 497.316 472.229 497.316 448.965C497.316 425.701 515.56 406.786 537.998 406.786C560.436 406.786 578.68 425.701 578.68 448.965C578.646 472.229 560.402 491.144 537.998 491.144ZM537.998 424.499C524.972 424.499 514.367 435.494 514.367 449C514.367 462.506 524.972 473.502 537.998 473.502C551.025 473.502 561.63 462.506 561.63 449C561.63 435.494 551.025 424.499 537.998 424.499Z" fill="#D862C5" fill-opacity="0.49"/>
<path d="M538.07 523.282C533.16 523.282 528.249 522.752 523.407 521.727C504.686 517.696 488.591 506.312 478.088 489.73C467.585 473.148 463.97 453.313 467.858 433.868C471.234 417.038 480.202 401.871 493.058 391.123C505.777 380.516 521.702 374.682 537.934 374.682C542.844 374.682 547.755 375.213 552.597 376.238C571.318 380.269 587.414 391.653 597.917 408.235C608.42 424.817 612.034 444.651 608.147 464.097C604.771 480.926 595.802 496.094 582.947 506.842C570.193 517.448 554.268 523.282 538.07 523.282ZM537.934 392.36C512.256 392.36 489.784 411.311 484.533 437.439C478.395 467.986 497.389 498.038 526.851 504.402C530.534 505.215 534.319 505.604 538.036 505.604C563.714 505.604 586.186 486.654 591.438 460.526C594.404 445.712 591.642 430.615 583.663 417.958C575.683 405.3 563.407 396.638 549.119 393.562C545.436 392.784 541.651 392.36 537.934 392.36Z" fill="#D862C5" fill-opacity="0.49"/>
<path d="M538.103 554.36C534.966 554.36 531.794 554.218 528.623 553.9C501.581 551.319 477.166 537.955 459.808 516.317C442.451 494.679 434.301 467.314 436.791 439.313C439.144 413.008 450.806 388.719 469.698 371.005C488.453 353.363 512.664 343.676 537.864 343.676C541.002 343.676 544.173 343.817 547.344 344.135C574.386 346.716 598.802 360.081 616.159 381.718C633.516 403.356 641.666 430.721 639.177 458.758C636.824 485.063 625.161 509.352 606.27 527.065C587.515 544.637 563.303 554.36 538.103 554.36ZM537.864 361.318C493.977 361.318 457.831 395.542 453.773 440.939C449.476 489.093 483.747 531.874 530.192 536.328C532.817 536.576 535.477 536.717 538.103 536.717C581.99 536.717 618.137 502.493 622.195 457.096C626.491 408.942 592.22 366.162 545.776 361.707C543.15 361.424 540.49 361.318 537.864 361.318Z" fill="#D862C5" fill-opacity="0.49"/>
<path d="M538.066 586.038C536.531 586.038 534.963 586.003 533.394 585.968C515.56 585.331 498.373 581.089 482.312 573.346C466.796 565.886 453.02 555.491 441.289 542.48C429.558 529.469 420.556 514.478 414.452 497.932C408.109 480.785 405.245 462.718 405.859 444.227C407.052 408.482 421.374 375.142 446.234 350.322C470.99 325.573 503.556 311.926 537.895 311.926C539.43 311.926 540.999 311.961 542.567 311.997C560.402 312.633 577.588 316.876 593.65 324.619C609.165 332.079 622.942 342.473 634.672 355.484C646.403 368.495 655.406 383.486 661.509 400.032C667.852 417.18 670.717 435.246 670.103 453.737C668.909 489.482 654.587 522.822 629.728 547.642C604.971 572.426 572.405 586.038 538.066 586.038ZM537.895 329.604C475.56 329.604 425.057 380.233 422.909 444.863C420.692 510.66 470.547 566.027 533.974 568.325C535.338 568.361 536.702 568.396 538.032 568.396C600.367 568.396 650.87 517.767 653.019 453.137C655.235 387.34 605.38 331.973 541.953 329.675C540.623 329.639 539.259 329.604 537.895 329.604Z" fill="#D862C5" fill-opacity="0.49"/>
<path d="M538 618C516.005 618 494.658 613.545 474.539 604.706C455.136 596.186 437.711 584.023 422.741 568.502C407.771 552.981 396.006 534.914 387.822 514.797C379.331 493.937 375 471.804 375 449C375 426.196 379.297 404.063 387.822 383.203C396.04 363.086 407.771 345.019 422.741 329.498C437.711 313.977 455.136 301.779 474.539 293.294C494.658 284.49 516.005 280 538 280C559.995 280 581.342 284.455 601.461 293.294C620.864 301.814 638.289 313.977 653.259 329.498C668.23 345.019 679.994 363.086 688.178 383.203C696.669 404.063 701 426.196 701 449C701 471.804 696.703 493.937 688.178 514.797C679.96 534.914 668.23 552.981 653.259 568.502C638.289 584.023 620.864 596.221 601.461 604.706C581.342 613.545 559.995 618 538 618ZM538 297.642C457.523 297.642 392.05 365.525 392.05 448.965C392.05 532.404 457.523 600.287 538 600.287C618.477 600.287 683.95 532.404 683.95 448.965C683.95 365.561 618.477 297.642 538 297.642Z" fill="#D862C5" fill-opacity="0.49"/>
<path d="M70.187 156.704L68.4179 155.938M70.187 161.296L68.4179 162.062M71.6667 127V135M72.5675 151.61L73.2997 153.456M73.2997 164.544L72.5656 166.392M77.7003 153.456L78.4344 151.61M78.4325 166.392L77.7003 164.544M80.813 156.704L82.584 155.938M80.813 161.296L82.584 162.062M81.25 145V135C81.25 133.939 80.8461 132.922 80.1272 132.172C79.4084 131.421 78.4333 131 77.4167 131H50.5833C49.5667 131 48.5916 131.421 47.8728 132.172C47.1539 132.922 46.75 133.939 46.75 135V163C46.75 164.061 47.1539 165.078 47.8728 165.828C48.5916 166.579 49.5667 167 50.5833 167H62.0833M46.75 143H81.25M56.3333 127V135M81.25 159C81.25 162.314 78.6756 165 75.5 165C72.3244 165 69.75 162.314 69.75 159C69.75 155.686 72.3244 153 75.5 153C78.6756 153 81.25 155.686 81.25 159Z" stroke="black" stroke-width="3" stroke-linecap="round" stroke-linejoin="round"/>
<path d="M454.202 377.151C454.139 380.154 456.87 382.615 460.302 382.648C463.735 382.681 466.569 380.274 466.633 377.271C466.696 374.268 463.965 371.807 460.533 371.774C457.1 371.741 454.266 374.148 454.202 377.151Z" fill="white" fill-opacity="0.24"/>
<path d="M453.812 400.842C453.748 403.845 456.479 406.306 459.912 406.339C463.344 406.372 466.178 403.965 466.242 400.962C466.306 397.959 463.575 395.498 460.142 395.465C456.71 395.432 453.875 397.839 453.812 400.842Z" fill="white" fill-opacity="0.24"/>
<path d="M453.421 424.532C453.358 427.535 456.089 429.996 459.521 430.029C462.954 430.062 465.788 427.655 465.851 424.652C465.915 421.649 463.184 419.188 459.752 419.155C456.319 419.121 453.485 421.529 453.421 424.532Z" fill="white" fill-opacity="0.24"/>
<path d="M453.031 448.263C452.967 451.266 455.698 453.728 459.13 453.761C462.563 453.794 465.397 451.386 465.461 448.383C465.525 445.38 462.794 442.919 459.361 442.886C455.928 442.853 453.094 445.261 453.031 448.263Z" fill="white" fill-opacity="0.24"/>
<path d="M452.64 471.955C452.576 474.958 455.307 477.419 458.74 477.452C462.172 477.485 465.007 475.078 465.07 472.075C465.134 469.072 462.403 466.611 458.97 466.577C455.538 466.544 452.704 468.952 452.64 471.955Z" fill="white" fill-opacity="0.24"/>
<path d="M452.249 495.686C452.186 498.689 454.917 501.15 458.349 501.183C461.782 501.216 464.616 498.809 464.68 495.806C464.743 492.803 462.012 490.342 458.58 490.309C455.147 490.276 452.313 492.683 452.249 495.686Z" fill="white" fill-opacity="0.7"/>
<path d="M431.72 376.872C431.656 379.875 434.387 382.336 437.82 382.369C441.252 382.402 444.087 379.995 444.15 376.992C444.214 373.989 441.483 371.528 438.05 371.495C434.618 371.461 431.784 373.869 431.72 376.872Z" fill="white" fill-opacity="0.24"/>
<path d="M431.329 400.563C431.266 403.566 433.997 406.027 437.429 406.06C440.862 406.093 443.696 403.686 443.76 400.683C443.823 397.68 441.092 395.219 437.66 395.186C434.227 395.153 431.393 397.56 431.329 400.563Z" fill="white" fill-opacity="0.24"/>
<path d="M430.939 424.253C430.875 427.256 433.606 429.717 437.039 429.75C440.471 429.783 443.305 427.376 443.369 424.373C443.433 421.37 440.702 418.908 437.269 418.875C433.837 418.842 431.002 421.25 430.939 424.253Z" fill="white" fill-opacity="0.24"/>
<path d="M430.548 447.984C430.484 450.987 433.215 453.449 436.648 453.482C440.081 453.515 442.915 451.107 442.978 448.104C443.042 445.101 440.311 442.64 436.879 442.607C433.446 442.574 430.612 444.982 430.548 447.984Z" fill="white" fill-opacity="0.24"/>
<path d="M430.159 471.676C430.096 474.679 432.827 477.14 436.259 477.173C439.692 477.206 442.526 474.798 442.59 471.796C442.653 468.793 439.922 466.331 436.49 466.298C433.057 466.265 430.223 468.673 430.159 471.676Z" fill="white" fill-opacity="0.24"/>
<path d="M429.767 495.407C429.703 498.41 432.434 500.871 435.867 500.904C439.299 500.937 442.134 498.529 442.197 495.527C442.261 492.524 439.53 490.063 436.097 490.03C432.665 489.996 429.831 492.404 429.767 495.407Z" fill="white" fill-opacity="0.7"/>
<path d="M409.238 376.593C409.174 379.596 411.905 382.057 415.337 382.09C418.77 382.123 421.604 379.716 421.668 376.713C421.732 373.71 419.001 371.249 415.568 371.215C412.136 371.182 409.301 373.59 409.238 376.593Z" fill="white" fill-opacity="0.24"/>
<path d="M408.847 400.284C408.783 403.287 411.514 405.748 414.947 405.781C418.379 405.814 421.214 403.407 421.277 400.404C421.341 397.401 418.61 394.94 415.177 394.907C411.745 394.873 408.911 397.281 408.847 400.284Z" fill="white" fill-opacity="0.24"/>
<path d="M408.456 423.974C408.393 426.976 411.124 429.437 414.556 429.471C417.989 429.504 420.823 427.096 420.887 424.093C420.95 421.091 418.219 418.629 414.787 418.596C411.354 418.563 408.52 420.971 408.456 423.974Z" fill="white" fill-opacity="0.24"/>
<path d="M408.066 447.705C408.002 450.708 410.733 453.169 414.166 453.203C417.598 453.236 420.432 450.828 420.496 447.825C420.56 444.822 417.829 442.361 414.396 442.328C410.964 442.295 408.129 444.702 408.066 447.705Z" fill="white" fill-opacity="0.24"/>
<path d="M407.675 471.397C407.611 474.399 410.342 476.86 413.775 476.894C417.207 476.927 420.042 474.519 420.105 471.516C420.169 468.514 417.438 466.052 414.006 466.019C410.573 465.986 407.739 468.394 407.675 471.397Z" fill="white" fill-opacity="0.24"/>
<path d="M407.284 495.128C407.221 498.13 409.952 500.592 413.384 500.625C416.817 500.658 419.651 498.25 419.715 495.247C419.778 492.245 417.047 489.783 413.615 489.75C410.182 489.717 407.348 492.125 407.284 495.128Z" fill="white" fill-opacity="0.7"/>
<path d="M386.755 376.314C386.691 379.317 389.422 381.778 392.855 381.811C396.288 381.844 399.122 379.436 399.185 376.434C399.249 373.431 396.518 370.969 393.086 370.936C389.653 370.903 386.819 373.311 386.755 376.314Z" fill="white" fill-opacity="0.24"/>
<path d="M386.366 400.004C386.303 403.007 389.034 405.469 392.466 405.502C395.899 405.535 398.733 403.127 398.797 400.124C398.86 397.121 396.129 394.66 392.697 394.627C389.264 394.594 386.43 397.002 386.366 400.004Z" fill="white" fill-opacity="0.24"/>
<path d="M385.976 423.694C385.912 426.697 388.643 429.158 392.076 429.191C395.508 429.225 398.343 426.817 398.406 423.814C398.47 420.811 395.739 418.35 392.306 418.317C388.874 418.284 386.04 420.691 385.976 423.694Z" fill="white" fill-opacity="0.24"/>
<path d="M385.585 447.426C385.522 450.429 388.253 452.89 391.685 452.923C395.118 452.956 397.952 450.549 398.016 447.546C398.079 444.543 395.348 442.082 391.916 442.049C388.483 442.016 385.649 444.423 385.585 447.426Z" fill="white" fill-opacity="0.24"/>
<path d="M385.195 471.117C385.131 474.12 387.862 476.581 391.294 476.614C394.727 476.648 397.561 474.24 397.625 471.237C397.689 468.234 394.958 465.773 391.525 465.74C388.093 465.707 385.258 468.114 385.195 471.117Z" fill="white" fill-opacity="0.24"/>
<path d="M384.804 494.848C384.74 497.851 387.471 500.312 390.904 500.346C394.336 500.379 397.171 497.971 397.234 494.968C397.298 491.965 394.567 489.504 391.134 489.471C387.702 489.438 384.868 491.845 384.804 494.848Z" fill="white" fill-opacity="0.7"/>
<path d="M364.277 376.034C364.213 379.037 366.944 381.498 370.377 381.531C373.809 381.564 376.643 379.157 376.707 376.154C376.771 373.151 374.04 370.69 370.607 370.657C367.175 370.624 364.34 373.031 364.277 376.034Z" fill="white" fill-opacity="0.24"/>
<path d="M363.886 399.725C363.822 402.728 366.553 405.189 369.986 405.223C373.418 405.256 376.253 402.848 376.316 399.845C376.38 396.842 373.649 394.381 370.216 394.348C366.784 394.315 363.95 396.722 363.886 399.725Z" fill="white" fill-opacity="0.24"/>
<path d="M363.495 423.415C363.432 426.418 366.163 428.879 369.595 428.912C373.028 428.945 375.862 426.538 375.926 423.535C375.989 420.532 373.258 418.071 369.826 418.038C366.393 418.005 363.559 420.412 363.495 423.415Z" fill="white" fill-opacity="0.24"/>
<path d="M363.105 447.147C363.041 450.15 365.772 452.611 369.205 452.644C372.637 452.677 375.471 450.27 375.535 447.267C375.599 444.264 372.868 441.803 369.435 441.77C366.003 441.737 363.168 444.144 363.105 447.147Z" fill="white" fill-opacity="0.24"/>
<path d="M362.714 470.838C362.65 473.841 365.381 476.302 368.814 476.335C372.247 476.368 375.081 473.961 375.144 470.958C375.208 467.955 372.477 465.494 369.045 465.461C365.612 465.428 362.778 467.835 362.714 470.838Z" fill="white" fill-opacity="0.24"/>
<path d="M362.324 494.569C362.26 497.572 364.991 500.033 368.423 500.066C371.856 500.099 374.69 497.692 374.754 494.689C374.818 491.686 372.087 489.225 368.654 489.192C365.221 489.159 362.387 491.566 362.324 494.569Z" fill="white" fill-opacity="0.7"/>
<path d="M341.794 375.755C341.731 378.758 344.462 381.219 347.894 381.252C351.327 381.285 354.161 378.878 354.225 375.875C354.288 372.872 351.557 370.411 348.125 370.378C344.692 370.345 341.858 372.752 341.794 375.755Z" fill="white" fill-opacity="0.24"/>
<path d="M341.404 399.446C341.34 402.449 344.071 404.91 347.503 404.943C350.936 404.976 353.77 402.569 353.834 399.566C353.898 396.563 351.167 394.102 347.734 394.069C344.302 394.036 341.467 396.443 341.404 399.446Z" fill="white" fill-opacity="0.24"/>
<path d="M341.013 423.136C340.949 426.139 343.68 428.6 347.113 428.633C350.545 428.666 353.38 426.259 353.443 423.256C353.507 420.253 350.776 417.792 347.343 417.759C343.911 417.725 341.077 420.133 341.013 423.136Z" fill="white" fill-opacity="0.24"/>
<path d="M340.622 446.867C340.559 449.87 343.29 452.332 346.722 452.365C350.155 452.398 352.989 449.99 353.053 446.987C353.116 443.985 350.385 441.523 346.953 441.49C343.52 441.457 340.686 443.865 340.622 446.867Z" fill="white" fill-opacity="0.24"/>
<path d="M340.232 470.559C340.168 473.562 342.899 476.023 346.332 476.056C349.764 476.089 352.598 473.682 352.662 470.679C352.726 467.676 349.995 465.215 346.562 465.182C343.13 465.148 340.295 467.556 340.232 470.559Z" fill="white" fill-opacity="0.24"/>
<path d="M339.841 494.29C339.777 497.293 342.508 499.754 345.941 499.787C349.373 499.82 352.208 497.413 352.271 494.41C352.335 491.407 349.604 488.946 346.172 488.913C342.739 488.88 339.905 491.287 339.841 494.29Z" fill="white" fill-opacity="0.7"/>
<path d="M319.314 375.476C319.25 378.479 321.981 380.94 325.414 380.973C328.846 381.006 331.68 378.599 331.744 375.596C331.808 372.593 329.077 370.132 325.644 370.099C322.212 370.066 319.377 372.473 319.314 375.476Z" fill="white" fill-opacity="0.24"/>
<path d="M318.923 399.167C318.859 402.17 321.59 404.631 325.023 404.664C328.456 404.697 331.29 402.29 331.353 399.287C331.417 396.284 328.686 393.823 325.254 393.79C321.821 393.757 318.987 396.164 318.923 399.167Z" fill="white" fill-opacity="0.24"/>
<path d="M318.533 422.857C318.469 425.86 321.2 428.321 324.632 428.354C328.065 428.387 330.899 425.98 330.963 422.977C331.027 419.974 328.296 417.512 324.863 417.479C321.43 417.446 318.596 419.854 318.533 422.857Z" fill="white" fill-opacity="0.24"/>
<path d="M318.142 446.588C318.078 449.591 320.809 452.053 324.242 452.086C327.674 452.119 330.509 449.711 330.572 446.708C330.636 443.705 327.905 441.244 324.472 441.211C321.04 441.178 318.206 443.586 318.142 446.588Z" fill="white" fill-opacity="0.24"/>
<path d="M317.751 470.28C317.688 473.283 320.419 475.744 323.851 475.777C327.284 475.81 330.118 473.402 330.182 470.4C330.245 467.397 327.514 464.935 324.082 464.902C320.649 464.869 317.815 467.277 317.751 470.28Z" fill="white" fill-opacity="0.24"/>
<path d="M317.361 494.011C317.297 497.014 320.028 499.475 323.461 499.508C326.893 499.541 329.727 497.133 329.791 494.131C329.855 491.128 327.124 488.667 323.691 488.634C320.259 488.6 317.424 491.008 317.361 494.011Z" fill="white" fill-opacity="0.7"/>
</svg>
