<svg width="366" height="195" viewBox="0 0 366 195" fill="none" xmlns="http://www.w3.org/2000/svg">
<path d="M415.351 -39C405.094 -39 396.238 -23.0544 392.135 -0.00225449C387.509 -11.9648 381.185 -19.3443 374.211 -19.3443C363.954 -19.3443 355.098 -3.39872 350.995 19.6535C346.369 7.69088 340.045 0.311447 333.07 0.311447C322.813 0.311447 313.957 16.257 309.854 39.3092C305.228 27.3466 298.904 19.9672 291.93 19.9672C281.673 19.9672 272.817 35.9127 268.714 58.9649C264.088 47.0023 257.764 39.6229 250.789 39.6229C240.533 39.6229 231.676 55.5685 227.574 78.6206C222.948 66.6581 216.624 59.2786 209.649 59.2786C195.488 59.2786 184 89.6557 184 127.139C184 164.623 195.488 195 209.649 195C219.906 195 228.762 179.054 232.865 156.002C237.491 167.965 243.815 175.344 250.789 175.344C261.046 175.344 269.902 159.399 274.005 136.347C278.631 148.309 284.955 155.689 291.93 155.689C302.187 155.689 311.043 139.743 315.146 116.691C319.772 128.653 326.096 136.033 333.07 136.033C343.327 136.033 352.183 120.087 356.286 97.0351C360.912 108.998 367.236 116.377 374.211 116.377C384.467 116.377 393.324 100.432 397.426 77.3794C402.052 89.3419 408.376 96.7214 415.351 96.7214C429.512 96.7214 441 66.3443 441 28.8607C441 -8.62296 429.527 -39 415.351 -39Z" fill="#FF80EB" fill-opacity="0.56"/>
<path d="M127.5 104C127.5 108.052 121.887 111.539 121.123 115.358C120.326 119.31 124.179 124.657 122.684 128.31C121.157 132.03 114.647 133.06 112.422 136.348C110.197 139.669 111.691 146.078 108.902 148.901C106.079 151.724 99.6689 150.197 96.3478 152.422C93.0599 154.614 91.9971 161.123 88.3107 162.684C84.6574 164.179 79.3436 160.359 75.3583 161.123C71.5058 161.887 68.0518 167.5 64 167.5C59.9482 167.5 56.461 161.887 52.6417 161.123C48.6896 160.326 43.3426 164.179 39.6893 162.684C35.9697 161.156 34.9401 154.647 31.6522 152.422C28.3311 150.197 21.9213 151.691 19.0983 148.901C16.2754 146.078 17.8031 139.669 15.5779 136.348C13.386 133.06 6.87657 131.997 5.31564 128.31C3.82113 124.657 7.64043 119.343 6.87657 115.358C6.11271 111.506 0.5 108.052 0.5 104C0.5 99.9481 6.11271 96.4609 6.87657 92.6416C7.67364 88.6895 3.82113 83.3425 5.31564 79.6892C6.84336 75.9696 13.3528 74.94 15.5779 71.6521C17.8031 68.331 16.3086 61.9212 19.0983 59.0983C21.9213 56.2753 28.3311 57.803 31.6522 55.5779C34.9401 53.386 36.0029 46.8766 39.6893 45.3156C43.3426 43.8211 48.6564 47.6404 52.6417 46.8765C56.4942 46.1127 59.9482 40.5 64 40.5C68.0518 40.5 71.539 46.1127 75.3583 46.8765C79.3104 47.6736 84.6574 43.8211 88.3107 45.3156C92.0303 46.8433 93.0599 53.3527 96.3478 55.5779C99.6689 57.803 106.079 56.3085 108.902 59.0983C111.725 61.9212 110.197 68.331 112.422 71.6521C114.614 74.94 121.123 76.0028 122.684 79.6892C124.179 83.3425 120.36 88.6563 121.123 92.6416C121.887 96.4941 127.5 99.9481 127.5 104Z" fill="#FFDBF9"/>
<path d="M91.3923 129.607L94.793 126.206" stroke="#121212" stroke-width="1.38619" stroke-miterlimit="10" stroke-linecap="round"/>
<path d="M83.7067 137.292L87.1074 133.892" stroke="#121212" stroke-width="1.38619" stroke-miterlimit="10" stroke-linecap="round"/>
<path d="M87.1074 129.607L83.7067 126.206" stroke="#121212" stroke-width="1.38619" stroke-miterlimit="10" stroke-linecap="round"/>
<path d="M94.793 137.292L91.3923 133.892" stroke="#121212" stroke-width="1.38619" stroke-miterlimit="10" stroke-linecap="round"/>
<path d="M39.4206 70.0818L42.7949 66.7075" stroke="#121212" stroke-width="1.37545" stroke-miterlimit="10" stroke-linecap="round"/>
<path d="M31.7936 77.7076L35.168 74.3333" stroke="#121212" stroke-width="1.37545" stroke-miterlimit="10" stroke-linecap="round"/>
<path d="M35.168 70.0818L31.7936 66.7075" stroke="#121212" stroke-width="1.37545" stroke-miterlimit="10" stroke-linecap="round"/>
<path d="M42.7949 77.7076L39.4206 74.3333" stroke="#121212" stroke-width="1.37545" stroke-miterlimit="10" stroke-linecap="round"/>
<path d="M75 120C75 115.757 73.3143 111.687 70.3137 108.686C67.3131 105.686 63.2435 104 59 104M59 104C54.7565 104 50.6869 105.686 47.6863 108.686C44.6857 111.687 43 115.757 43 120M59 104C64.5228 104 69 99.5228 69 94C69 88.4772 64.5228 84 59 84C53.4772 84 49 88.4772 49 94C49 99.5228 53.4772 104 59 104ZM83 118C83 111.26 79 105 75 102C76.3148 101.014 77.3662 99.7182 78.0611 98.2285C78.756 96.7389 79.073 95.1009 78.984 93.4596C78.895 91.8183 78.4028 90.2242 77.5509 88.8184C76.6991 87.4126 75.5138 86.2385 74.1 85.4" stroke="black" stroke-width="4" stroke-linecap="round" stroke-linejoin="round"/>
</svg>
