<svg width="549" height="448" viewBox="0 0 549 448" fill="none" xmlns="http://www.w3.org/2000/svg">
<path d="M127 127.5C127 131.552 121.387 135.039 120.623 138.858C119.826 142.81 123.679 148.157 122.184 151.811C120.657 155.53 114.147 156.56 111.922 159.848C109.697 163.169 111.191 169.579 108.402 172.402C105.579 175.225 99.1689 173.697 95.8478 175.922C92.5599 178.114 91.4971 184.623 87.8107 186.184C84.1574 187.679 78.8436 183.86 74.8583 184.623C71.0058 185.387 67.5518 191 63.5 191C59.4482 191 55.961 185.387 52.1417 184.623C48.1896 183.826 42.8426 187.679 39.1893 186.184C35.4697 184.657 34.4401 178.147 31.1522 175.922C27.8311 173.697 21.4213 175.191 18.5983 172.402C15.7754 169.579 17.3031 163.169 15.0779 159.848C12.886 156.56 6.37657 155.497 4.81564 151.811C3.32113 148.157 7.14043 142.844 6.37657 138.858C5.61271 135.006 0 131.552 0 127.5C0 123.448 5.61271 119.961 6.37657 116.142C7.17364 112.19 3.32113 106.843 4.81564 103.189C6.34336 99.4697 12.8528 98.4401 15.0779 95.1522C17.3031 91.8311 15.8086 85.4213 18.5983 82.5983C21.4213 79.7754 27.8311 81.3031 31.1522 79.0779C34.4401 76.886 35.5029 70.3766 39.1893 68.8156C42.8426 67.3211 48.1564 71.1404 52.1417 70.3766C55.9942 69.6127 59.4482 64 63.5 64C67.5518 64 71.039 69.6127 74.8583 70.3766C78.8104 71.1736 84.1574 67.3211 87.8107 68.8156C91.5303 70.3434 92.5599 76.8528 95.8478 79.0779C99.1689 81.3031 105.579 79.8086 108.402 82.5983C111.225 85.4213 109.697 91.8311 111.922 95.1522C114.114 98.4401 120.623 99.5029 122.184 103.189C123.679 106.843 119.86 112.156 120.623 116.142C121.387 119.994 127 123.448 127 127.5Z" fill="#E4D7FF" fill-opacity="0.57"/>
<path d="M94.3743 107.374L91 104" stroke="#19223F" stroke-width="2.15541" stroke-miterlimit="10" stroke-linecap="round"/>
<path d="M101.999 115L98.625 111.626" stroke="#19223F" stroke-width="2.15541" stroke-miterlimit="10" stroke-linecap="round"/>
<path d="M94.3743 111.626L91 115" stroke="#19223F" stroke-width="2.15541" stroke-miterlimit="10" stroke-linecap="round"/>
<path d="M101.999 104L98.625 107.374" stroke="#19223F" stroke-width="2.15541" stroke-miterlimit="10" stroke-linecap="round"/>
<path d="M27.4007 149.401L24 146" stroke="#19223F" stroke-width="2.17224" stroke-miterlimit="10" stroke-linecap="round"/>
<path d="M35.0862 157.086L31.6855 153.685" stroke="#19223F" stroke-width="2.17224" stroke-miterlimit="10" stroke-linecap="round"/>
<path d="M27.4007 153.685L24 157.086" stroke="#19223F" stroke-width="2.17224" stroke-miterlimit="10" stroke-linecap="round"/>
<path d="M35.0862 146L31.6855 149.401" stroke="#19223F" stroke-width="2.17224" stroke-miterlimit="10" stroke-linecap="round"/>
<path d="M151.242 20.9673C154.689 20.9673 157.484 18.1727 157.484 14.7255C157.484 11.2782 154.689 8.48364 151.242 8.48364C147.795 8.48364 145 11.2782 145 14.7255C145 18.1727 147.795 20.9673 151.242 20.9673Z" fill="#704FE6" fill-opacity="0.19"/>
<path d="M178.527 20.9674C181.974 20.9674 184.769 18.1729 184.769 14.7256C184.769 11.2783 181.974 8.48376 178.527 8.48376C175.08 8.48376 172.285 11.2783 172.285 14.7256C172.285 18.1729 175.08 20.9674 178.527 20.9674Z" fill="#704FE6" fill-opacity="0.19"/>
<path d="M205.81 20.9673C209.258 20.9673 212.052 18.1727 212.052 14.7255C212.052 11.2782 209.258 8.48364 205.81 8.48364C202.363 8.48364 199.568 11.2782 199.568 14.7255C199.568 18.1727 202.363 20.9673 205.81 20.9673Z" fill="#704FE6" fill-opacity="0.19"/>
<path d="M233.142 20.9674C236.589 20.9674 239.384 18.1729 239.384 14.7256C239.384 11.2783 236.589 8.48376 233.142 8.48376C229.695 8.48376 226.9 11.2783 226.9 14.7256C226.9 18.1729 229.695 20.9674 233.142 20.9674Z" fill="#704FE6" fill-opacity="0.19"/>
<path d="M260.427 20.9674C263.875 20.9674 266.669 18.1729 266.669 14.7256C266.669 11.2783 263.875 8.48376 260.427 8.48376C256.98 8.48376 254.186 11.2783 254.186 14.7256C254.186 18.1729 256.98 20.9674 260.427 20.9674Z" fill="#704FE6" fill-opacity="0.19"/>
<path d="M287.757 20.9674C291.205 20.9674 293.999 18.1729 293.999 14.7256C293.999 11.2783 291.205 8.48376 287.757 8.48376C284.31 8.48376 281.516 11.2783 281.516 14.7256C281.516 18.1729 284.31 20.9674 287.757 20.9674Z" fill="#704FE6" fill-opacity="0.19"/>
<path d="M151.242 43.451C154.689 43.451 157.484 40.6564 157.484 37.2091C157.484 33.7618 154.689 30.9673 151.242 30.9673C147.795 30.9673 145 33.7618 145 37.2091C145 40.6564 147.795 43.451 151.242 43.451Z" fill="#704FE6" fill-opacity="0.19"/>
<path d="M178.527 43.4512C181.974 43.4512 184.769 40.6566 184.769 37.2094C184.769 33.7621 181.974 30.9675 178.527 30.9675C175.08 30.9675 172.285 33.7621 172.285 37.2094C172.285 40.6566 175.08 43.4512 178.527 43.4512Z" fill="#704FE6" fill-opacity="0.19"/>
<path d="M205.81 43.451C209.258 43.451 212.052 40.6564 212.052 37.2091C212.052 33.7618 209.258 30.9673 205.81 30.9673C202.363 30.9673 199.568 33.7618 199.568 37.2091C199.568 40.6564 202.363 43.451 205.81 43.451Z" fill="#704FE6" fill-opacity="0.19"/>
<path d="M233.142 43.4512C236.589 43.4512 239.384 40.6566 239.384 37.2094C239.384 33.7621 236.589 30.9675 233.142 30.9675C229.695 30.9675 226.9 33.7621 226.9 37.2094C226.9 40.6566 229.695 43.4512 233.142 43.4512Z" fill="#704FE6" fill-opacity="0.19"/>
<path d="M260.427 43.4512C263.875 43.4512 266.669 40.6566 266.669 37.2094C266.669 33.7621 263.875 30.9675 260.427 30.9675C256.98 30.9675 254.186 33.7621 254.186 37.2094C254.186 40.6566 256.98 43.4512 260.427 43.4512Z" fill="#704FE6" fill-opacity="0.19"/>
<path d="M287.757 43.4512C291.205 43.4512 293.999 40.6566 293.999 37.2094C293.999 33.7621 291.205 30.9675 287.757 30.9675C284.31 30.9675 281.516 33.7621 281.516 37.2094C281.516 40.6566 284.31 43.4512 287.757 43.4512Z" fill="#704FE6" fill-opacity="0.19"/>
<path d="M151.242 65.9347C154.689 65.9347 157.484 63.1401 157.484 59.6929C157.484 56.2456 154.689 53.451 151.242 53.451C147.795 53.451 145 56.2456 145 59.6929C145 63.1401 147.795 65.9347 151.242 65.9347Z" fill="#704FE6" fill-opacity="0.19"/>
<path d="M178.527 65.9345C181.974 65.9345 184.769 63.1399 184.769 59.6926C184.769 56.2454 181.974 53.4508 178.527 53.4508C175.08 53.4508 172.285 56.2454 172.285 59.6926C172.285 63.1399 175.08 65.9345 178.527 65.9345Z" fill="#704FE6" fill-opacity="0.19"/>
<path d="M205.81 65.9347C209.258 65.9347 212.052 63.1401 212.052 59.6929C212.052 56.2456 209.258 53.451 205.81 53.451C202.363 53.451 199.568 56.2456 199.568 59.6929C199.568 63.1401 202.363 65.9347 205.81 65.9347Z" fill="#704FE6" fill-opacity="0.19"/>
<path d="M233.142 65.9345C236.589 65.9345 239.384 63.1399 239.384 59.6926C239.384 56.2454 236.589 53.4508 233.142 53.4508C229.695 53.4508 226.9 56.2454 226.9 59.6926C226.9 63.1399 229.695 65.9345 233.142 65.9345Z" fill="#704FE6" fill-opacity="0.19"/>
<path d="M260.427 65.9345C263.875 65.9345 266.669 63.1399 266.669 59.6926C266.669 56.2454 263.875 53.4508 260.427 53.4508C256.98 53.4508 254.186 56.2454 254.186 59.6926C254.186 63.1399 256.98 65.9345 260.427 65.9345Z" fill="#704FE6" fill-opacity="0.19"/>
<path d="M287.757 65.9345C291.205 65.9345 293.999 63.1399 293.999 59.6926C293.999 56.2454 291.205 53.4508 287.757 53.4508C284.31 53.4508 281.516 56.2454 281.516 59.6926C281.516 63.1399 284.31 65.9345 287.757 65.9345Z" fill="#704FE6" fill-opacity="0.19"/>
<path d="M151.242 88.4184C154.689 88.4184 157.484 85.6238 157.484 82.1765C157.484 78.7293 154.689 75.9347 151.242 75.9347C147.795 75.9347 145 78.7293 145 82.1765C145 85.6238 147.795 88.4184 151.242 88.4184Z" fill="#704FE6" fill-opacity="0.19"/>
<path d="M178.527 88.4182C181.974 88.4182 184.769 85.6237 184.769 82.1764C184.769 78.7291 181.974 75.9346 178.527 75.9346C175.08 75.9346 172.285 78.7291 172.285 82.1764C172.285 85.6237 175.08 88.4182 178.527 88.4182Z" fill="#704FE6" fill-opacity="0.19"/>
<path d="M205.81 88.4184C209.258 88.4184 212.052 85.6238 212.052 82.1765C212.052 78.7293 209.258 75.9347 205.81 75.9347C202.363 75.9347 199.568 78.7293 199.568 82.1765C199.568 85.6238 202.363 88.4184 205.81 88.4184Z" fill="#704FE6" fill-opacity="0.19"/>
<path d="M233.142 88.4182C236.589 88.4182 239.384 85.6237 239.384 82.1764C239.384 78.7291 236.589 75.9346 233.142 75.9346C229.695 75.9346 226.9 78.7291 226.9 82.1764C226.9 85.6237 229.695 88.4182 233.142 88.4182Z" fill="#704FE6" fill-opacity="0.19"/>
<path d="M260.427 88.4182C263.875 88.4182 266.669 85.6237 266.669 82.1764C266.669 78.7291 263.875 75.9346 260.427 75.9346C256.98 75.9346 254.186 78.7291 254.186 82.1764C254.186 85.6237 256.98 88.4182 260.427 88.4182Z" fill="#704FE6" fill-opacity="0.19"/>
<path d="M287.757 88.4182C291.205 88.4182 293.999 85.6237 293.999 82.1764C293.999 78.7291 291.205 75.9346 287.757 75.9346C284.31 75.9346 281.516 78.7291 281.516 82.1764C281.516 85.6237 284.31 88.4182 287.757 88.4182Z" fill="#704FE6" fill-opacity="0.19"/>
<path d="M151.242 110.902C154.689 110.902 157.484 108.107 157.484 104.66C157.484 101.213 154.689 98.4183 151.242 98.4183C147.795 98.4183 145 101.213 145 104.66C145 108.107 147.795 110.902 151.242 110.902Z" fill="#704FE6" fill-opacity="0.19"/>
<path d="M178.527 110.902C181.974 110.902 184.769 108.107 184.769 104.66C184.769 101.213 181.974 98.4183 178.527 98.4183C175.08 98.4183 172.285 101.213 172.285 104.66C172.285 108.107 175.08 110.902 178.527 110.902Z" fill="#704FE6" fill-opacity="0.19"/>
<path d="M205.81 110.902C209.258 110.902 212.052 108.107 212.052 104.66C212.052 101.213 209.258 98.4183 205.81 98.4183C202.363 98.4183 199.568 101.213 199.568 104.66C199.568 108.107 202.363 110.902 205.81 110.902Z" fill="#704FE6" fill-opacity="0.19"/>
<path d="M233.142 110.902C236.589 110.902 239.384 108.107 239.384 104.66C239.384 101.213 236.589 98.4183 233.142 98.4183C229.695 98.4183 226.9 101.213 226.9 104.66C226.9 108.107 229.695 110.902 233.142 110.902Z" fill="#704FE6" fill-opacity="0.19"/>
<path d="M260.427 110.902C263.875 110.902 266.669 108.107 266.669 104.66C266.669 101.213 263.875 98.4183 260.427 98.4183C256.98 98.4183 254.186 101.213 254.186 104.66C254.186 108.107 256.98 110.902 260.427 110.902Z" fill="#704FE6" fill-opacity="0.19"/>
<path d="M287.757 110.902C291.205 110.902 293.999 108.107 293.999 104.66C293.999 101.213 291.205 98.4183 287.757 98.4183C284.31 98.4183 281.516 101.213 281.516 104.66C281.516 108.107 284.31 110.902 287.757 110.902Z" fill="#704FE6" fill-opacity="0.19"/>
<path d="M151.242 133.386C154.689 133.386 157.484 130.591 157.484 127.144C157.484 123.697 154.689 120.902 151.242 120.902C147.795 120.902 145 123.697 145 127.144C145 130.591 147.795 133.386 151.242 133.386Z" fill="#704FE6" fill-opacity="0.19"/>
<path d="M178.527 133.386C181.974 133.386 184.769 130.591 184.769 127.144C184.769 123.696 181.974 120.902 178.527 120.902C175.08 120.902 172.285 123.696 172.285 127.144C172.285 130.591 175.08 133.386 178.527 133.386Z" fill="#704FE6" fill-opacity="0.19"/>
<path d="M205.81 133.386C209.258 133.386 212.052 130.591 212.052 127.144C212.052 123.697 209.258 120.902 205.81 120.902C202.363 120.902 199.568 123.697 199.568 127.144C199.568 130.591 202.363 133.386 205.81 133.386Z" fill="#704FE6" fill-opacity="0.19"/>
<path d="M233.142 133.386C236.589 133.386 239.384 130.591 239.384 127.144C239.384 123.696 236.589 120.902 233.142 120.902C229.695 120.902 226.9 123.696 226.9 127.144C226.9 130.591 229.695 133.386 233.142 133.386Z" fill="#704FE6" fill-opacity="0.19"/>
<path d="M260.427 133.386C263.875 133.386 266.669 130.591 266.669 127.144C266.669 123.696 263.875 120.902 260.427 120.902C256.98 120.902 254.186 123.696 254.186 127.144C254.186 130.591 256.98 133.386 260.427 133.386Z" fill="#704FE6" fill-opacity="0.19"/>
<path d="M287.757 133.386C291.205 133.386 293.999 130.591 293.999 127.144C293.999 123.696 291.205 120.902 287.757 120.902C284.31 120.902 281.516 123.696 281.516 127.144C281.516 130.591 284.31 133.386 287.757 133.386Z" fill="#704FE6" fill-opacity="0.19"/>
<path d="M423.242 313.484C426.689 313.484 429.484 310.689 429.484 307.242C429.484 303.795 426.689 301 423.242 301C419.795 301 417 303.795 417 307.242C417 310.689 419.795 313.484 423.242 313.484Z" fill="#704FE6" fill-opacity="0.19"/>
<path d="M450.527 313.484C453.974 313.484 456.769 310.689 456.769 307.242C456.769 303.795 453.974 301 450.527 301C447.08 301 444.285 303.795 444.285 307.242C444.285 310.689 447.08 313.484 450.527 313.484Z" fill="#704FE6" fill-opacity="0.19"/>
<path d="M477.81 313.484C481.258 313.484 484.052 310.689 484.052 307.242C484.052 303.795 481.258 301 477.81 301C474.363 301 471.568 303.795 471.568 307.242C471.568 310.689 474.363 313.484 477.81 313.484Z" fill="#704FE6" fill-opacity="0.19"/>
<path d="M505.142 313.484C508.589 313.484 511.384 310.689 511.384 307.242C511.384 303.795 508.589 301 505.142 301C501.695 301 498.9 303.795 498.9 307.242C498.9 310.689 501.695 313.484 505.142 313.484Z" fill="#704FE6" fill-opacity="0.19"/>
<path d="M532.427 313.484C535.875 313.484 538.669 310.689 538.669 307.242C538.669 303.795 535.875 301 532.427 301C528.98 301 526.186 303.795 526.186 307.242C526.186 310.689 528.98 313.484 532.427 313.484Z" fill="#704FE6" fill-opacity="0.19"/>
<path d="M423.242 335.967C426.689 335.967 429.484 333.173 429.484 329.725C429.484 326.278 426.689 323.484 423.242 323.484C419.795 323.484 417 326.278 417 329.725C417 333.173 419.795 335.967 423.242 335.967Z" fill="#704FE6" fill-opacity="0.19"/>
<path d="M450.527 335.967C453.974 335.967 456.769 333.173 456.769 329.726C456.769 326.278 453.974 323.484 450.527 323.484C447.08 323.484 444.285 326.278 444.285 329.726C444.285 333.173 447.08 335.967 450.527 335.967Z" fill="#704FE6" fill-opacity="0.19"/>
<path d="M477.81 335.967C481.258 335.967 484.052 333.173 484.052 329.725C484.052 326.278 481.258 323.484 477.81 323.484C474.363 323.484 471.568 326.278 471.568 329.725C471.568 333.173 474.363 335.967 477.81 335.967Z" fill="#704FE6" fill-opacity="0.19"/>
<path d="M505.142 335.967C508.589 335.967 511.384 333.173 511.384 329.726C511.384 326.278 508.589 323.484 505.142 323.484C501.695 323.484 498.9 326.278 498.9 329.726C498.9 333.173 501.695 335.967 505.142 335.967Z" fill="#704FE6" fill-opacity="0.19"/>
<path d="M532.427 335.967C535.875 335.967 538.669 333.173 538.669 329.726C538.669 326.278 535.875 323.484 532.427 323.484C528.98 323.484 526.186 326.278 526.186 329.726C526.186 333.173 528.98 335.967 532.427 335.967Z" fill="#704FE6" fill-opacity="0.19"/>
<path d="M423.242 358.451C426.689 358.451 429.484 355.656 429.484 352.209C429.484 348.762 426.689 345.967 423.242 345.967C419.795 345.967 417 348.762 417 352.209C417 355.656 419.795 358.451 423.242 358.451Z" fill="#704FE6" fill-opacity="0.19"/>
<path d="M450.527 358.451C453.974 358.451 456.769 355.657 456.769 352.209C456.769 348.762 453.974 345.968 450.527 345.968C447.08 345.968 444.285 348.762 444.285 352.209C444.285 355.657 447.08 358.451 450.527 358.451Z" fill="#704FE6" fill-opacity="0.19"/>
<path d="M477.81 358.451C481.258 358.451 484.052 355.656 484.052 352.209C484.052 348.762 481.258 345.967 477.81 345.967C474.363 345.967 471.568 348.762 471.568 352.209C471.568 355.656 474.363 358.451 477.81 358.451Z" fill="#704FE6" fill-opacity="0.19"/>
<path d="M505.142 358.451C508.589 358.451 511.384 355.657 511.384 352.209C511.384 348.762 508.589 345.968 505.142 345.968C501.695 345.968 498.9 348.762 498.9 352.209C498.9 355.657 501.695 358.451 505.142 358.451Z" fill="#704FE6" fill-opacity="0.19"/>
<path d="M532.427 358.451C535.875 358.451 538.669 355.657 538.669 352.209C538.669 348.762 535.875 345.968 532.427 345.968C528.98 345.968 526.186 348.762 526.186 352.209C526.186 355.657 528.98 358.451 532.427 358.451Z" fill="#704FE6" fill-opacity="0.19"/>
<path d="M423.242 380.935C426.689 380.935 429.484 378.14 429.484 374.693C429.484 371.246 426.689 368.451 423.242 368.451C419.795 368.451 417 371.246 417 374.693C417 378.14 419.795 380.935 423.242 380.935Z" fill="#704FE6" fill-opacity="0.19"/>
<path d="M450.527 380.934C453.974 380.934 456.769 378.14 456.769 374.693C456.769 371.245 453.974 368.451 450.527 368.451C447.08 368.451 444.285 371.245 444.285 374.693C444.285 378.14 447.08 380.934 450.527 380.934Z" fill="#704FE6" fill-opacity="0.19"/>
<path d="M477.81 380.935C481.258 380.935 484.052 378.14 484.052 374.693C484.052 371.246 481.258 368.451 477.81 368.451C474.363 368.451 471.568 371.246 471.568 374.693C471.568 378.14 474.363 380.935 477.81 380.935Z" fill="#704FE6" fill-opacity="0.19"/>
<path d="M505.142 380.934C508.589 380.934 511.384 378.14 511.384 374.693C511.384 371.245 508.589 368.451 505.142 368.451C501.695 368.451 498.9 371.245 498.9 374.693C498.9 378.14 501.695 380.934 505.142 380.934Z" fill="#704FE6" fill-opacity="0.19"/>
<path d="M532.427 380.934C535.875 380.934 538.669 378.14 538.669 374.693C538.669 371.245 535.875 368.451 532.427 368.451C528.98 368.451 526.186 371.245 526.186 374.693C526.186 378.14 528.98 380.934 532.427 380.934Z" fill="#704FE6" fill-opacity="0.19"/>
<path d="M423.242 403.418C426.689 403.418 429.484 400.624 429.484 397.177C429.484 393.729 426.689 390.935 423.242 390.935C419.795 390.935 417 393.729 417 397.177C417 400.624 419.795 403.418 423.242 403.418Z" fill="#704FE6" fill-opacity="0.19"/>
<path d="M450.527 403.418C453.974 403.418 456.769 400.624 456.769 397.176C456.769 393.729 453.974 390.935 450.527 390.935C447.08 390.935 444.285 393.729 444.285 397.176C444.285 400.624 447.08 403.418 450.527 403.418Z" fill="#704FE6" fill-opacity="0.19"/>
<path d="M477.81 403.418C481.258 403.418 484.052 400.624 484.052 397.177C484.052 393.729 481.258 390.935 477.81 390.935C474.363 390.935 471.568 393.729 471.568 397.177C471.568 400.624 474.363 403.418 477.81 403.418Z" fill="#704FE6" fill-opacity="0.19"/>
<path d="M505.142 403.418C508.589 403.418 511.384 400.624 511.384 397.176C511.384 393.729 508.589 390.935 505.142 390.935C501.695 390.935 498.9 393.729 498.9 397.176C498.9 400.624 501.695 403.418 505.142 403.418Z" fill="#704FE6" fill-opacity="0.19"/>
<path d="M532.427 403.418C535.875 403.418 538.669 400.624 538.669 397.176C538.669 393.729 535.875 390.935 532.427 390.935C528.98 390.935 526.186 393.729 526.186 397.176C526.186 400.624 528.98 403.418 532.427 403.418Z" fill="#704FE6" fill-opacity="0.19"/>
<path d="M423.242 425.902C426.689 425.902 429.484 423.107 429.484 419.66C429.484 416.213 426.689 413.418 423.242 413.418C419.795 413.418 417 416.213 417 419.66C417 423.107 419.795 425.902 423.242 425.902Z" fill="#704FE6" fill-opacity="0.19"/>
<path d="M450.527 425.902C453.974 425.902 456.769 423.107 456.769 419.66C456.769 416.213 453.974 413.418 450.527 413.418C447.08 413.418 444.285 416.213 444.285 419.66C444.285 423.107 447.08 425.902 450.527 425.902Z" fill="#704FE6" fill-opacity="0.19"/>
<path d="M477.81 425.902C481.258 425.902 484.052 423.107 484.052 419.66C484.052 416.213 481.258 413.418 477.81 413.418C474.363 413.418 471.568 416.213 471.568 419.66C471.568 423.107 474.363 425.902 477.81 425.902Z" fill="#704FE6" fill-opacity="0.19"/>
<path d="M505.142 425.902C508.589 425.902 511.384 423.107 511.384 419.66C511.384 416.213 508.589 413.418 505.142 413.418C501.695 413.418 498.9 416.213 498.9 419.66C498.9 423.107 501.695 425.902 505.142 425.902Z" fill="#704FE6" fill-opacity="0.19"/>
<path d="M532.427 425.902C535.875 425.902 538.669 423.107 538.669 419.66C538.669 416.213 535.875 413.418 532.427 413.418C528.98 413.418 526.186 416.213 526.186 419.66C526.186 423.107 528.98 425.902 532.427 425.902Z" fill="#704FE6" fill-opacity="0.19"/>
<path d="M423.242 448.386C426.689 448.386 429.484 445.591 429.484 442.144C429.484 438.697 426.689 435.902 423.242 435.902C419.795 435.902 417 438.697 417 442.144C417 445.591 419.795 448.386 423.242 448.386Z" fill="#704FE6" fill-opacity="0.19"/>
<path d="M450.527 448.386C453.974 448.386 456.769 445.591 456.769 442.144C456.769 438.696 453.974 435.902 450.527 435.902C447.08 435.902 444.285 438.696 444.285 442.144C444.285 445.591 447.08 448.386 450.527 448.386Z" fill="#704FE6" fill-opacity="0.19"/>
<path d="M477.81 448.386C481.258 448.386 484.052 445.591 484.052 442.144C484.052 438.697 481.258 435.902 477.81 435.902C474.363 435.902 471.568 438.697 471.568 442.144C471.568 445.591 474.363 448.386 477.81 448.386Z" fill="#704FE6" fill-opacity="0.19"/>
<path d="M505.142 448.386C508.589 448.386 511.384 445.591 511.384 442.144C511.384 438.696 508.589 435.902 505.142 435.902C501.695 435.902 498.9 438.696 498.9 442.144C498.9 445.591 501.695 448.386 505.142 448.386Z" fill="#704FE6" fill-opacity="0.19"/>
<path d="M532.427 448.386C535.875 448.386 538.669 445.591 538.669 442.144C538.669 438.696 535.875 435.902 532.427 435.902C528.98 435.902 526.186 438.696 526.186 442.144C526.186 445.591 528.98 448.386 532.427 448.386Z" fill="#704FE6" fill-opacity="0.19"/>
<path d="M703.385 -78C686.343 -78 671.629 -55.3764 664.812 -22.6699C657.126 -39.6424 646.619 -50.1124 635.031 -50.1124C617.989 -50.1124 603.275 -27.4888 596.458 5.21772C588.772 -11.7548 578.265 -22.2248 566.677 -22.2248C549.635 -22.2248 534.921 0.398849 528.104 33.1053C520.418 16.1328 509.911 5.66284 498.323 5.66284C481.282 5.66284 466.567 28.2864 459.751 60.9929C452.064 44.0204 441.557 33.5505 429.969 33.5505C412.928 33.5505 398.213 56.1741 391.397 88.8806C383.71 71.908 373.204 61.4381 361.615 61.4381C338.086 61.4381 319 104.537 319 157.719C319 210.901 338.086 254 361.615 254C378.657 254 393.371 231.376 400.188 198.67C407.874 215.642 418.381 226.112 429.969 226.112C447.011 226.112 461.725 203.489 468.542 170.782C476.228 187.755 486.735 198.225 498.323 198.225C515.365 198.225 530.079 175.601 536.896 142.895C544.582 159.867 555.089 170.337 566.677 170.337C583.718 170.337 598.433 147.714 605.249 115.007C612.936 131.98 623.443 142.45 635.031 142.45C652.072 142.45 666.787 119.826 673.603 87.1194C681.289 104.092 691.796 114.562 703.385 114.562C726.914 114.562 746 71.4629 746 18.281C746 -34.901 726.937 -78 703.385 -78Z" fill="#E4D7FF" fill-opacity="0.26"/>
<path d="M45 108.25V141.583C45 142.688 45.4214 143.748 46.1716 144.53C46.9217 145.311 47.9391 145.75 49 145.75H81M75 137.417V120.75M65 137.417V112.417M55 137.417V131.167" stroke="black" stroke-width="4" stroke-linecap="round" stroke-linejoin="round"/>
</svg>
