<svg width="575" height="300" viewBox="0 0 575 300" fill="none" xmlns="http://www.w3.org/2000/svg">
<path d="M328 152.5C328 161.784 313.725 169.774 311.782 178.526C309.755 187.581 319.553 199.833 315.752 208.204C311.867 216.727 295.311 219.086 289.652 226.62C283.993 234.23 287.794 248.917 280.699 255.385C273.519 261.853 257.217 258.353 248.77 263.451C240.408 268.474 237.705 283.389 228.33 286.966C219.038 290.39 205.524 281.639 195.388 283.389C185.589 285.139 176.805 298 166.5 298C156.195 298 147.326 285.139 137.612 283.389C127.561 281.563 113.962 290.39 104.67 286.966C95.2102 283.465 92.5918 268.55 84.2296 263.451C75.783 258.353 59.4809 261.777 52.3013 255.385C45.1216 248.917 49.0071 234.23 43.3478 226.62C37.773 219.086 21.2176 216.651 17.2476 208.204C13.4467 199.833 23.1603 187.657 21.2176 178.526C19.2749 169.698 5 161.784 5 152.5C5 143.216 19.2749 135.226 21.2176 126.474C23.2448 117.419 13.4467 105.167 17.2476 96.796C21.1331 88.273 37.6886 85.914 43.3478 78.3802C49.0071 70.7704 45.2061 56.0834 52.3013 49.6151C59.4809 43.1467 75.783 46.6472 84.2296 41.5486C92.5918 36.5261 95.2947 21.6109 104.67 18.0343C113.962 14.6098 127.476 23.3611 137.612 21.6109C147.411 19.8606 156.195 7 166.5 7C176.805 7 185.674 19.8606 195.388 21.6109C205.439 23.4372 219.038 14.6098 228.33 18.0343C237.79 21.5348 240.408 36.45 248.77 41.5486C257.217 46.6472 273.519 43.2228 280.699 49.6151C287.878 56.0834 283.993 70.7704 289.652 78.3802C295.227 85.914 311.782 88.3491 315.752 96.796C319.553 105.167 309.84 117.343 311.782 126.474C313.725 135.302 328 143.216 328 152.5Z" fill="#A67EF6"/>
<path d="M323 145.5C323 154.784 308.725 162.774 306.782 171.526C304.755 180.581 314.553 192.833 310.752 201.204C306.867 209.727 290.311 212.086 284.652 219.62C278.993 227.23 282.794 241.917 275.699 248.385C268.519 254.853 252.217 251.353 243.77 256.451C235.408 261.474 232.705 276.389 223.33 279.966C214.038 283.39 200.524 274.639 190.388 276.389C180.589 278.139 171.805 291 161.5 291C151.195 291 142.326 278.139 132.612 276.389C122.561 274.563 108.962 283.39 99.6705 279.966C90.2102 276.465 87.5918 261.55 79.2296 256.451C70.783 251.353 54.4809 254.777 47.3013 248.385C40.1216 241.917 44.0071 227.23 38.3478 219.62C32.773 212.086 16.2176 209.651 12.2476 201.204C8.44665 192.833 18.1603 180.657 16.2176 171.526C14.2749 162.698 0 154.784 0 145.5C0 136.216 14.2749 128.226 16.2176 119.474C18.2448 110.419 8.44665 98.1668 12.2476 89.796C16.1331 81.273 32.6886 78.914 38.3478 71.3802C44.0071 63.7704 40.2061 49.0834 47.3013 42.6151C54.4809 36.1467 70.783 39.6472 79.2296 34.5486C87.5918 29.5261 90.2947 14.6109 99.6705 11.0343C108.962 7.60983 122.476 16.3611 132.612 14.6109C142.411 12.8606 151.195 0 161.5 0C171.805 0 180.674 12.8606 190.388 14.6109C200.439 16.4372 214.038 7.60983 223.33 11.0343C232.79 14.5348 235.408 29.45 243.77 34.5486C252.217 39.6472 268.519 36.2228 275.699 42.6151C282.878 49.0834 278.993 63.7704 284.652 71.3802C290.227 78.914 306.782 81.3491 310.752 89.796C314.553 98.1668 304.84 110.343 306.782 119.474C308.725 128.302 323 136.216 323 145.5Z" fill="#D5C8F4"/>
<path d="M465.499 217.806C450.426 217.806 438.17 205.551 438.17 190.477C438.17 175.404 450.426 163.148 465.499 163.148C480.572 163.148 492.828 175.404 492.828 190.477C492.805 205.551 480.55 217.806 465.499 217.806ZM465.499 174.625C456.748 174.625 449.624 181.749 449.624 190.5C449.624 199.251 456.748 206.375 465.499 206.375C474.25 206.375 481.374 199.251 481.374 190.5C481.374 181.749 474.25 174.625 465.499 174.625Z" fill="#9767F8" fill-opacity="0.52"/>
<path d="M465.547 238.63C462.248 238.63 458.95 238.286 455.697 237.622C443.12 235.01 432.308 227.634 425.252 216.89C418.196 206.146 415.768 193.295 418.38 180.695C420.648 169.791 426.672 159.964 435.309 153C443.853 146.127 454.551 142.347 465.456 142.347C468.754 142.347 472.053 142.691 475.306 143.355C487.882 145.967 498.695 153.343 505.751 164.087C512.806 174.831 515.234 187.682 512.623 200.282C510.355 211.186 504.33 221.013 495.694 227.977C487.126 234.85 476.428 238.63 465.547 238.63ZM465.456 153.801C448.206 153.801 433.109 166.08 429.582 183.009C425.458 202.801 438.218 222.273 458.01 226.397C460.485 226.924 463.027 227.176 465.524 227.176C482.774 227.176 497.87 214.897 501.398 197.968C503.391 188.369 501.535 178.588 496.175 170.387C490.815 162.186 482.568 156.573 472.969 154.58C470.495 154.076 467.952 153.801 465.456 153.801Z" fill="#9767F8" fill-opacity="0.52"/>
<path d="M465.569 258.766C463.462 258.766 461.331 258.674 459.201 258.468C441.035 256.796 424.633 248.136 412.973 234.117C401.313 220.097 395.838 202.366 397.51 184.223C399.091 167.18 406.925 151.442 419.616 139.965C432.215 128.534 448.48 122.257 465.409 122.257C467.517 122.257 469.647 122.349 471.777 122.555C489.943 124.227 506.346 132.886 518.006 146.906C529.666 160.926 535.141 178.657 533.469 196.823C531.888 213.866 524.053 229.604 511.362 241.081C498.763 252.466 482.498 258.766 465.569 258.766ZM465.409 133.688C435.926 133.688 411.644 155.863 408.918 185.277C406.032 216.478 429.054 244.196 460.255 247.083C462.019 247.243 463.805 247.335 465.569 247.335C495.052 247.335 519.334 225.16 522.06 195.746C524.947 164.545 501.924 136.827 470.724 133.94C468.96 133.757 467.173 133.688 465.409 133.688Z" fill="#9767F8" fill-opacity="0.52"/>
<path d="M465.545 279.291C464.514 279.291 463.46 279.268 462.406 279.245C450.425 278.833 438.88 276.084 428.09 271.067C417.667 266.234 408.412 259.499 400.532 251.068C392.651 242.638 386.604 232.925 382.503 222.204C378.242 211.094 376.318 199.388 376.73 187.407C377.532 164.247 387.154 142.645 403.853 126.564C420.485 110.528 442.362 101.686 465.43 101.686C466.461 101.686 467.515 101.709 468.568 101.732C480.549 102.144 492.095 104.893 502.884 109.91C513.308 114.743 522.562 121.478 530.443 129.908C538.323 138.339 544.371 148.051 548.471 158.772C552.732 169.883 554.656 181.589 554.244 193.57C553.442 216.729 543.821 238.332 527.121 254.413C510.49 270.472 488.613 279.291 465.545 279.291ZM465.43 113.14C423.554 113.14 389.628 145.944 388.184 187.82C386.695 230.451 420.187 266.325 462.796 267.814C463.712 267.837 464.628 267.86 465.522 267.86C507.397 267.86 541.324 235.056 542.767 193.18C544.256 150.548 510.765 114.675 468.156 113.186C467.263 113.163 466.346 113.14 465.43 113.14Z" fill="#9767F8" fill-opacity="0.52"/>
<path d="M465.5 300C450.724 300 436.384 297.114 422.868 291.387C409.834 285.866 398.128 277.985 388.071 267.929C378.015 257.872 370.111 246.166 364.613 233.132C358.909 219.616 356 205.276 356 190.5C356 175.724 358.886 161.384 364.613 147.868C370.134 134.834 378.015 123.128 388.071 113.071C398.128 103.015 409.834 95.1113 422.868 89.6134C436.384 83.9093 450.724 81 465.5 81C480.276 81 494.616 83.8864 508.132 89.6134C521.166 95.1342 532.872 103.015 542.929 113.071C552.985 123.128 560.889 134.834 566.387 147.868C572.091 161.384 575 175.724 575 190.5C575 205.276 572.114 219.616 566.387 233.132C560.866 246.166 552.985 257.872 542.929 267.929C532.872 277.985 521.166 285.889 508.132 291.387C494.616 297.114 480.276 300 465.5 300ZM465.5 92.431C411.437 92.431 367.454 136.414 367.454 190.477C367.454 244.54 411.437 288.523 465.5 288.523C519.563 288.523 563.546 244.54 563.546 190.477C563.546 136.437 519.563 92.431 465.5 92.431Z" fill="#9767F8" fill-opacity="0.52"/>
<path d="M112.374 152.374L109 149" stroke="#19223F" stroke-width="2.15541" stroke-miterlimit="10" stroke-linecap="round"/>
<path d="M119.999 160L116.625 156.626" stroke="#19223F" stroke-width="2.15541" stroke-miterlimit="10" stroke-linecap="round"/>
<path d="M112.374 156.626L109 160" stroke="#19223F" stroke-width="2.15541" stroke-miterlimit="10" stroke-linecap="round"/>
<path d="M119.999 149L116.625 152.374" stroke="#19223F" stroke-width="2.15541" stroke-miterlimit="10" stroke-linecap="round"/>
<path d="M236.401 194.401L233 191" stroke="#19223F" stroke-width="2.17224" stroke-miterlimit="10" stroke-linecap="round"/>
<path d="M244.086 202.086L240.686 198.685" stroke="#19223F" stroke-width="2.17224" stroke-miterlimit="10" stroke-linecap="round"/>
<path d="M236.401 198.685L233 202.086" stroke="#19223F" stroke-width="2.17224" stroke-miterlimit="10" stroke-linecap="round"/>
<path d="M244.086 191L240.686 194.401" stroke="#19223F" stroke-width="2.17224" stroke-miterlimit="10" stroke-linecap="round"/>
<path d="M143.917 183.5C142.046 183.5 140.296 183.176 138.667 182.528C137.056 181.88 135.639 180.972 134.417 179.806C133.194 178.62 132.241 177.241 131.556 175.667C130.889 174.093 130.556 172.38 130.556 170.528C130.556 168.694 130.889 166.991 131.556 165.417C132.241 163.824 133.194 162.444 134.417 161.278C135.639 160.093 137.056 159.167 138.667 158.5C140.278 157.833 142.019 157.5 143.889 157.5C145.611 157.5 147.222 157.787 148.722 158.361C150.222 158.917 151.556 159.713 152.722 160.75L151.417 165.972C150.676 164.769 149.657 163.769 148.361 162.972C147.083 162.176 145.593 161.778 143.889 161.778C142.241 161.778 140.769 162.167 139.472 162.944C138.176 163.704 137.148 164.75 136.389 166.083C135.648 167.398 135.278 168.88 135.278 170.528C135.278 172.213 135.648 173.713 136.389 175.028C137.148 176.343 138.176 177.389 139.472 178.167C140.769 178.926 142.231 179.306 143.861 179.306C144.694 179.306 145.472 179.222 146.194 179.056C146.917 178.87 147.565 178.611 148.139 178.278V173H142.611V169.167H152.306V181.028C151.176 181.806 149.889 182.417 148.444 182.861C147.019 183.287 145.509 183.5 143.917 183.5ZM156.759 183V166.333H160.675V169.25C161.268 168.287 162.009 167.537 162.898 167C163.805 166.444 164.879 166.167 166.12 166.167L167.092 170.111C166.74 170 166.342 169.944 165.898 169.944C164.453 169.944 163.296 170.407 162.425 171.333C161.555 172.259 161.12 173.574 161.12 175.278V183H156.759ZM176.296 183.389C174.777 183.389 173.389 183 172.129 182.222C170.87 181.426 169.861 180.37 169.102 179.056C168.361 177.722 167.99 176.259 167.99 174.667C167.99 173.074 168.361 171.62 169.102 170.306C169.861 168.972 170.87 167.917 172.129 167.139C173.389 166.343 174.777 165.944 176.296 165.944C177.389 165.944 178.398 166.139 179.324 166.528C180.25 166.917 181.037 167.463 181.685 168.167V166.333H185.49V183H181.685V181.167C181.037 181.852 180.25 182.398 179.324 182.806C178.398 183.194 177.389 183.389 176.296 183.389ZM176.824 179.528C177.713 179.528 178.509 179.306 179.213 178.861C179.935 178.417 180.509 177.833 180.935 177.111C181.361 176.37 181.574 175.556 181.574 174.667C181.574 173.778 181.361 172.972 180.935 172.25C180.509 171.509 179.935 170.917 179.213 170.472C178.509 170.028 177.722 169.806 176.852 169.806C175.963 169.806 175.157 170.028 174.435 170.472C173.731 170.917 173.166 171.509 172.74 172.25C172.315 172.972 172.102 173.778 172.102 174.667C172.102 175.556 172.315 176.37 172.74 177.111C173.166 177.833 173.731 178.417 174.435 178.861C175.157 179.306 175.953 179.528 176.824 179.528ZM175.074 164.083L177.629 158.583H182.435L178.546 164.083H175.074ZM191.555 183V169.833H188.277V166.333H191.638V160.778H195.832V166.333H199.332V169.833H195.916V183H191.555ZM202.138 183V166.333H206.499V183H202.138ZM204.332 163.778C203.647 163.778 203.064 163.546 202.582 163.083C202.12 162.602 201.888 162.019 201.888 161.333C201.888 160.63 202.12 160.046 202.582 159.583C203.064 159.12 203.647 158.889 204.332 158.889C205.036 158.889 205.62 159.12 206.082 159.583C206.545 160.046 206.777 160.63 206.777 161.333C206.777 162.019 206.545 162.602 206.082 163.083C205.62 163.546 205.036 163.778 204.332 163.778ZM215.793 183.5C214.737 183.5 213.654 183.324 212.543 182.972C211.431 182.602 210.543 182.083 209.876 181.417L210.987 177.194C211.524 177.972 212.246 178.639 213.154 179.194C214.08 179.731 215.033 180 216.015 180C216.755 180 217.293 179.852 217.626 179.556C217.978 179.241 218.154 178.861 218.154 178.417C218.154 177.917 217.978 177.556 217.626 177.333C217.274 177.093 216.922 176.907 216.57 176.778L214.265 175.917C213.783 175.713 213.218 175.444 212.57 175.111C211.922 174.759 211.357 174.269 210.876 173.639C210.413 172.991 210.181 172.148 210.181 171.111C210.181 170.167 210.413 169.296 210.876 168.5C211.339 167.704 212.005 167.065 212.876 166.583C213.765 166.083 214.83 165.833 216.07 165.833C217.181 165.833 218.237 166.028 219.237 166.417C220.255 166.787 221.024 167.25 221.543 167.806L220.515 171.917C219.922 171.102 219.209 170.472 218.376 170.028C217.543 169.565 216.737 169.333 215.959 169.333C215.311 169.333 214.83 169.481 214.515 169.778C214.2 170.056 214.043 170.389 214.043 170.778C214.043 171.074 214.154 171.352 214.376 171.611C214.598 171.87 214.959 172.093 215.459 172.278L217.626 173.111C218.2 173.315 218.83 173.602 219.515 173.972C220.2 174.324 220.783 174.824 221.265 175.472C221.765 176.12 222.015 177.009 222.015 178.139C222.015 179.731 221.431 181.028 220.265 182.028C219.117 183.009 217.626 183.5 215.793 183.5Z" fill="#121212"/>
</svg>
