<svg width="1354" height="374" viewBox="0 0 1354 374" fill="none" xmlns="http://www.w3.org/2000/svg">
<path d="M898.779 313.268C900.314 313.268 901.558 312.024 901.558 310.489C901.558 308.955 900.314 307.711 898.779 307.711C897.244 307.711 896 308.955 896 310.489C896 312.024 897.244 313.268 898.779 313.268Z" fill="#DEC8FE"/>
<path d="M910.927 313.268C912.462 313.268 913.706 312.024 913.706 310.489C913.706 308.955 912.462 307.711 910.927 307.711C909.393 307.711 908.148 308.955 908.148 310.489C908.148 312.024 909.393 313.268 910.927 313.268Z" fill="#DEC8FE"/>
<path d="M923.072 313.268C924.607 313.268 925.851 312.024 925.851 310.489C925.851 308.955 924.607 307.711 923.072 307.711C921.537 307.711 920.293 308.955 920.293 310.489C920.293 312.024 921.537 313.268 923.072 313.268Z" fill="#DEC8FE"/>
<path d="M935.242 313.268C936.776 313.268 938.021 312.024 938.021 310.489C938.021 308.955 936.776 307.71 935.242 307.71C933.707 307.71 932.463 308.955 932.463 310.489C932.463 312.024 933.707 313.268 935.242 313.268Z" fill="#DEC8FE"/>
<path d="M947.388 313.268C948.923 313.268 950.167 312.024 950.167 310.489C950.167 308.955 948.923 307.711 947.388 307.711C945.854 307.711 944.609 308.955 944.609 310.489C944.609 312.024 945.854 313.268 947.388 313.268Z" fill="#DEC8FE"/>
<path d="M959.556 313.268C961.091 313.268 962.335 312.024 962.335 310.489C962.335 308.955 961.091 307.711 959.556 307.711C958.021 307.711 956.777 308.955 956.777 310.489C956.777 312.024 958.021 313.268 959.556 313.268Z" fill="#DEC8FE"/>
<path d="M898.779 323.278C900.314 323.278 901.558 322.034 901.558 320.499C901.558 318.964 900.314 317.72 898.779 317.72C897.244 317.72 896 318.964 896 320.499C896 322.034 897.244 323.278 898.779 323.278Z" fill="#DEC8FE"/>
<path d="M910.927 323.278C912.462 323.278 913.706 322.034 913.706 320.499C913.706 318.964 912.462 317.72 910.927 317.72C909.393 317.72 908.148 318.964 908.148 320.499C908.148 322.034 909.393 323.278 910.927 323.278Z" fill="#DEC8FE"/>
<path d="M923.072 323.278C924.607 323.278 925.851 322.034 925.851 320.499C925.851 318.964 924.607 317.72 923.072 317.72C921.537 317.72 920.293 318.964 920.293 320.499C920.293 322.034 921.537 323.278 923.072 323.278Z" fill="#DEC8FE"/>
<path d="M935.242 323.278C936.776 323.278 938.021 322.034 938.021 320.499C938.021 318.964 936.776 317.72 935.242 317.72C933.707 317.72 932.463 318.964 932.463 320.499C932.463 322.034 933.707 323.278 935.242 323.278Z" fill="#DEC8FE"/>
<path d="M947.388 323.278C948.923 323.278 950.167 322.034 950.167 320.499C950.167 318.964 948.923 317.72 947.388 317.72C945.854 317.72 944.609 318.964 944.609 320.499C944.609 322.034 945.854 323.278 947.388 323.278Z" fill="#DEC8FE"/>
<path d="M959.556 323.278C961.091 323.278 962.335 322.034 962.335 320.499C962.335 318.964 961.091 317.72 959.556 317.72C958.021 317.72 956.777 318.964 956.777 320.499C956.777 322.034 958.021 323.278 959.556 323.278Z" fill="#DEC8FE"/>
<path d="M898.779 333.288C900.314 333.288 901.558 332.044 901.558 330.509C901.558 328.974 900.314 327.73 898.779 327.73C897.244 327.73 896 328.974 896 330.509C896 332.044 897.244 333.288 898.779 333.288Z" fill="#DEC8FE"/>
<path d="M910.927 333.288C912.462 333.288 913.706 332.044 913.706 330.509C913.706 328.975 912.462 327.731 910.927 327.731C909.393 327.731 908.148 328.975 908.148 330.509C908.148 332.044 909.393 333.288 910.927 333.288Z" fill="#DEC8FE"/>
<path d="M923.072 333.288C924.607 333.288 925.851 332.044 925.851 330.509C925.851 328.974 924.607 327.73 923.072 327.73C921.537 327.73 920.293 328.974 920.293 330.509C920.293 332.044 921.537 333.288 923.072 333.288Z" fill="#DEC8FE"/>
<path d="M935.242 333.288C936.776 333.288 938.021 332.044 938.021 330.509C938.021 328.974 936.776 327.73 935.242 327.73C933.707 327.73 932.463 328.974 932.463 330.509C932.463 332.044 933.707 333.288 935.242 333.288Z" fill="#DEC8FE"/>
<path d="M947.388 333.288C948.923 333.288 950.167 332.044 950.167 330.509C950.167 328.975 948.923 327.731 947.388 327.731C945.854 327.731 944.609 328.975 944.609 330.509C944.609 332.044 945.854 333.288 947.388 333.288Z" fill="#DEC8FE"/>
<path d="M959.556 333.288C961.091 333.288 962.335 332.044 962.335 330.509C962.335 328.975 961.091 327.731 959.556 327.731C958.021 327.731 956.777 328.975 956.777 330.509C956.777 332.044 958.021 333.288 959.556 333.288Z" fill="#DEC8FE"/>
<path d="M898.779 343.298C900.314 343.298 901.558 342.054 901.558 340.519C901.558 338.984 900.314 337.74 898.779 337.74C897.244 337.74 896 338.984 896 340.519C896 342.054 897.244 343.298 898.779 343.298Z" fill="#DEC8FE"/>
<path d="M910.927 343.298C912.462 343.298 913.706 342.054 913.706 340.519C913.706 338.984 912.462 337.74 910.927 337.74C909.393 337.74 908.148 338.984 908.148 340.519C908.148 342.054 909.393 343.298 910.927 343.298Z" fill="#DEC8FE"/>
<path d="M923.072 343.298C924.607 343.298 925.851 342.054 925.851 340.519C925.851 338.984 924.607 337.74 923.072 337.74C921.537 337.74 920.293 338.984 920.293 340.519C920.293 342.054 921.537 343.298 923.072 343.298Z" fill="#DEC8FE"/>
<path d="M935.242 343.298C936.776 343.298 938.021 342.054 938.021 340.519C938.021 338.984 936.776 337.74 935.242 337.74C933.707 337.74 932.463 338.984 932.463 340.519C932.463 342.054 933.707 343.298 935.242 343.298Z" fill="#DEC8FE"/>
<path d="M947.388 343.298C948.923 343.298 950.167 342.054 950.167 340.519C950.167 338.984 948.923 337.74 947.388 337.74C945.854 337.74 944.609 338.984 944.609 340.519C944.609 342.054 945.854 343.298 947.388 343.298Z" fill="#DEC8FE"/>
<path d="M959.556 343.298C961.091 343.298 962.335 342.054 962.335 340.519C962.335 338.984 961.091 337.74 959.556 337.74C958.021 337.74 956.777 338.984 956.777 340.519C956.777 342.054 958.021 343.298 959.556 343.298Z" fill="#DEC8FE"/>
<path d="M898.779 353.308C900.314 353.308 901.558 352.063 901.558 350.529C901.558 348.994 900.314 347.75 898.779 347.75C897.244 347.75 896 348.994 896 350.529C896 352.063 897.244 353.308 898.779 353.308Z" fill="#DEC8FE"/>
<path d="M910.927 353.308C912.462 353.308 913.706 352.063 913.706 350.529C913.706 348.994 912.462 347.75 910.927 347.75C909.393 347.75 908.148 348.994 908.148 350.529C908.148 352.063 909.393 353.308 910.927 353.308Z" fill="#DEC8FE"/>
<path d="M923.072 353.308C924.607 353.308 925.851 352.063 925.851 350.529C925.851 348.994 924.607 347.75 923.072 347.75C921.537 347.75 920.293 348.994 920.293 350.529C920.293 352.063 921.537 353.308 923.072 353.308Z" fill="#DEC8FE"/>
<path d="M935.242 353.308C936.776 353.308 938.021 352.063 938.021 350.529C938.021 348.994 936.776 347.75 935.242 347.75C933.707 347.75 932.463 348.994 932.463 350.529C932.463 352.063 933.707 353.308 935.242 353.308Z" fill="#DEC8FE"/>
<path d="M947.388 353.308C948.923 353.308 950.167 352.063 950.167 350.529C950.167 348.994 948.923 347.75 947.388 347.75C945.854 347.75 944.609 348.994 944.609 350.529C944.609 352.063 945.854 353.308 947.388 353.308Z" fill="#DEC8FE"/>
<path d="M959.556 353.308C961.091 353.308 962.335 352.063 962.335 350.529C962.335 348.994 961.091 347.75 959.556 347.75C958.021 347.75 956.777 348.994 956.777 350.529C956.777 352.063 958.021 353.308 959.556 353.308Z" fill="#DEC8FE"/>
<path d="M898.779 363.317C900.314 363.317 901.558 362.073 901.558 360.539C901.558 359.004 900.314 357.76 898.779 357.76C897.244 357.76 896 359.004 896 360.539C896 362.073 897.244 363.317 898.779 363.317Z" fill="#DEC8FE"/>
<path d="M910.927 363.317C912.462 363.317 913.706 362.073 913.706 360.538C913.706 359.004 912.462 357.76 910.927 357.76C909.393 357.76 908.148 359.004 908.148 360.538C908.148 362.073 909.393 363.317 910.927 363.317Z" fill="#DEC8FE"/>
<path d="M923.072 363.317C924.607 363.317 925.851 362.073 925.851 360.539C925.851 359.004 924.607 357.76 923.072 357.76C921.537 357.76 920.293 359.004 920.293 360.539C920.293 362.073 921.537 363.317 923.072 363.317Z" fill="#DEC8FE"/>
<path d="M935.242 363.317C936.776 363.317 938.021 362.073 938.021 360.539C938.021 359.004 936.776 357.76 935.242 357.76C933.707 357.76 932.463 359.004 932.463 360.539C932.463 362.073 933.707 363.317 935.242 363.317Z" fill="#DEC8FE"/>
<path d="M947.388 363.317C948.923 363.317 950.167 362.073 950.167 360.538C950.167 359.004 948.923 357.76 947.388 357.76C945.854 357.76 944.609 359.004 944.609 360.538C944.609 362.073 945.854 363.317 947.388 363.317Z" fill="#DEC8FE"/>
<path d="M959.556 363.317C961.091 363.317 962.335 362.073 962.335 360.538C962.335 359.004 961.091 357.76 959.556 357.76C958.021 357.76 956.777 359.004 956.777 360.538C956.777 362.073 958.021 363.317 959.556 363.317Z" fill="#DEC8FE"/>
<path d="M898.779 373.327C900.314 373.327 901.558 372.083 901.558 370.549C901.558 369.014 900.314 367.77 898.779 367.77C897.244 367.77 896 369.014 896 370.549C896 372.083 897.244 373.327 898.779 373.327Z" fill="#DEC8FE"/>
<path d="M910.927 373.327C912.462 373.327 913.706 372.083 913.706 370.548C913.706 369.014 912.462 367.77 910.927 367.77C909.393 367.77 908.148 369.014 908.148 370.548C908.148 372.083 909.393 373.327 910.927 373.327Z" fill="#DEC8FE"/>
<path d="M923.072 373.327C924.607 373.327 925.851 372.083 925.851 370.548C925.851 369.014 924.607 367.77 923.072 367.77C921.537 367.77 920.293 369.014 920.293 370.548C920.293 372.083 921.537 373.327 923.072 373.327Z" fill="#DEC8FE"/>
<path d="M935.242 373.327C936.776 373.327 938.021 372.083 938.021 370.548C938.021 369.014 936.776 367.77 935.242 367.77C933.707 367.77 932.463 369.014 932.463 370.548C932.463 372.083 933.707 373.327 935.242 373.327Z" fill="#DEC8FE"/>
<path d="M947.388 373.327C948.923 373.327 950.167 372.083 950.167 370.548C950.167 369.014 948.923 367.77 947.388 367.77C945.854 367.77 944.609 369.014 944.609 370.548C944.609 372.083 945.854 373.327 947.388 373.327Z" fill="#DEC8FE"/>
<path d="M959.556 373.327C961.091 373.327 962.335 372.083 962.335 370.548C962.335 369.014 961.091 367.77 959.556 367.77C958.021 367.77 956.777 369.014 956.777 370.548C956.777 372.083 958.021 373.327 959.556 373.327Z" fill="#DEC8FE"/>
<path d="M114 57C114 60.637 108.962 63.7673 108.276 67.1956C107.561 70.7432 111.019 75.5429 109.677 78.8222C108.306 82.1611 102.463 83.0853 100.465 86.0366C98.4681 89.0178 99.8096 94.7714 97.3054 97.3054C94.7714 99.8394 89.0178 98.4681 86.0366 100.465C83.0853 102.433 82.1313 108.276 78.8222 109.677C75.5429 111.019 70.773 107.59 67.1956 108.276C63.7374 108.962 60.637 114 57 114C53.363 114 50.2327 108.962 46.8044 108.276C43.2568 107.561 38.4571 111.019 35.1778 109.677C31.8389 108.306 30.9148 102.463 27.9634 100.465C24.9822 98.4681 19.2286 99.8096 16.6946 97.3054C14.1606 94.7714 15.5319 89.0178 13.5345 86.0366C11.567 83.0853 5.72385 82.1313 4.3227 78.8222C2.98117 75.5429 6.40952 70.773 5.72385 67.1956C5.03818 63.7374 0 60.637 0 57C0 53.363 5.03818 50.2327 5.72385 46.8044C6.43933 43.2568 2.98117 38.4571 4.3227 35.1778C5.69404 31.8389 11.5371 30.9147 13.5345 27.9634C15.5319 24.9822 14.1904 19.2286 16.6946 16.6946C19.2286 14.1606 24.9822 15.5319 27.9634 13.5345C30.9148 11.5669 31.8687 5.72385 35.1778 4.3227C38.4571 2.98117 43.227 6.40951 46.8044 5.72384C50.2626 5.03817 53.363 0 57 0C60.637 0 63.7673 5.03817 67.1956 5.72384C70.7432 6.43933 75.5429 2.98117 78.8222 4.3227C82.1611 5.69404 83.0853 11.5371 86.0366 13.5345C89.0178 15.5319 94.7714 14.1904 97.3054 16.6946C99.8394 19.2286 98.4681 24.9822 100.465 27.9634C102.433 30.9147 108.276 31.8687 109.677 35.1778C111.019 38.4571 107.59 43.227 108.276 46.8044C108.962 50.2625 114 53.363 114 57Z" fill="#FFBCEF"/>
<path d="M1340.33 235C1334.86 235 1330.14 243.791 1327.95 256.499C1325.49 249.904 1322.11 245.836 1318.4 245.836C1312.93 245.836 1308.21 254.626 1306.02 267.335C1303.55 260.74 1300.18 256.672 1296.47 256.672C1291 256.672 1286.28 265.462 1284.09 278.17C1281.62 271.576 1278.25 267.508 1274.53 267.508C1269.07 267.508 1264.35 276.298 1262.16 289.006C1259.69 282.412 1256.32 278.343 1252.6 278.343C1247.14 278.343 1242.42 287.134 1240.23 299.842C1237.76 293.247 1234.39 289.179 1230.67 289.179C1223.12 289.179 1217 305.926 1217 326.59C1217 347.254 1223.12 364 1230.67 364C1236.14 364 1240.86 355.21 1243.05 342.501C1245.51 349.096 1248.89 353.164 1252.6 353.164C1258.07 353.164 1262.79 344.374 1264.98 331.665C1267.45 338.26 1270.82 342.328 1274.53 342.328C1280 342.328 1284.72 333.538 1286.91 320.83C1289.38 327.424 1292.75 331.492 1296.47 331.492C1301.93 331.492 1306.65 322.702 1308.84 309.994C1311.31 316.588 1314.68 320.657 1318.4 320.657C1323.86 320.657 1328.58 311.866 1330.77 299.158C1333.24 305.753 1336.61 309.821 1340.33 309.821C1347.88 309.821 1354 293.074 1354 272.41C1354 251.746 1347.88 235 1340.33 235Z" fill="#DEC8FE"/>
</svg>
