<svg width="556" height="298" viewBox="0 0 556 298" fill="none" xmlns="http://www.w3.org/2000/svg">
<path d="M328 152.5C328 161.784 313.725 169.774 311.782 178.526C309.755 187.581 319.553 199.833 315.752 208.204C311.867 216.727 295.311 219.086 289.652 226.62C283.993 234.23 287.794 248.917 280.699 255.385C273.519 261.853 257.217 258.353 248.77 263.451C240.408 268.474 237.705 283.389 228.33 286.966C219.038 290.39 205.524 281.639 195.388 283.389C185.589 285.139 176.805 298 166.5 298C156.195 298 147.326 285.139 137.612 283.389C127.561 281.563 113.962 290.39 104.67 286.966C95.2102 283.465 92.5918 268.55 84.2296 263.451C75.783 258.353 59.4809 261.777 52.3013 255.385C45.1216 248.917 49.0071 234.23 43.3478 226.62C37.773 219.086 21.2176 216.651 17.2476 208.204C13.4467 199.833 23.1603 187.657 21.2176 178.526C19.2749 169.698 5 161.784 5 152.5C5 143.216 19.2749 135.226 21.2176 126.474C23.2448 117.419 13.4467 105.167 17.2476 96.796C21.1331 88.273 37.6886 85.914 43.3478 78.3802C49.0071 70.7704 45.2061 56.0834 52.3013 49.6151C59.4809 43.1467 75.783 46.6472 84.2296 41.5486C92.5918 36.5261 95.2947 21.6109 104.67 18.0343C113.962 14.6098 127.476 23.3611 137.612 21.6109C147.411 19.8606 156.195 7 166.5 7C176.805 7 185.674 19.8606 195.388 21.6109C205.439 23.4372 219.038 14.6098 228.33 18.0343C237.79 21.5348 240.408 36.45 248.77 41.5486C257.217 46.6472 273.519 43.2228 280.699 49.6151C287.878 56.0834 283.993 70.7704 289.652 78.3802C295.227 85.914 311.782 88.3491 315.752 96.796C319.553 105.167 309.84 117.343 311.782 126.474C313.725 135.302 328 143.216 328 152.5Z" fill="#7857EB"/>
<path d="M323 145.5C323 154.784 308.725 162.774 306.782 171.526C304.755 180.581 314.553 192.833 310.752 201.204C306.867 209.727 290.311 212.086 284.652 219.62C278.993 227.23 282.794 241.917 275.699 248.385C268.519 254.853 252.217 251.353 243.77 256.451C235.408 261.474 232.705 276.389 223.33 279.966C214.038 283.39 200.524 274.639 190.388 276.389C180.589 278.139 171.805 291 161.5 291C151.195 291 142.326 278.139 132.612 276.389C122.561 274.563 108.962 283.39 99.6705 279.966C90.2102 276.465 87.5918 261.55 79.2296 256.451C70.783 251.353 54.4809 254.777 47.3013 248.385C40.1216 241.917 44.0071 227.23 38.3478 219.62C32.773 212.086 16.2176 209.651 12.2476 201.204C8.44665 192.833 18.1603 180.657 16.2176 171.526C14.2749 162.698 0 154.784 0 145.5C0 136.216 14.2749 128.226 16.2176 119.474C18.2448 110.419 8.44665 98.1668 12.2476 89.796C16.1331 81.273 32.6886 78.914 38.3478 71.3802C44.0071 63.7704 40.2061 49.0834 47.3013 42.6151C54.4809 36.1467 70.783 39.6472 79.2296 34.5486C87.5918 29.5261 90.2947 14.6109 99.6705 11.0343C108.962 7.60983 122.476 16.3611 132.612 14.6109C142.411 12.8606 151.195 0 161.5 0C171.805 0 180.674 12.8606 190.388 14.6109C200.439 16.4372 214.038 7.60983 223.33 11.0343C232.79 14.5348 235.408 29.45 243.77 34.5486C252.217 39.6472 268.519 36.2228 275.699 42.6151C282.878 49.0834 278.993 63.7704 284.652 71.3802C290.227 78.914 306.782 81.3491 310.752 89.796C314.553 98.1668 304.84 110.343 306.782 119.474C308.725 128.302 323 136.216 323 145.5Z" fill="#BFB4FF"/>
<path d="M110.889 181V156H118.083C119.806 156 121.259 156.259 122.444 156.778C123.648 157.278 124.611 157.954 125.333 158.806C126.074 159.639 126.611 160.546 126.944 161.528C127.278 162.491 127.444 163.454 127.444 164.417C127.444 165.343 127.278 166.296 126.944 167.278C126.63 168.241 126.102 169.148 125.361 170C124.62 170.833 123.657 171.509 122.472 172.028C121.287 172.528 119.824 172.778 118.083 172.778H115.278V181H110.889ZM115.278 168.833H117.833C119.111 168.833 120.111 168.611 120.833 168.167C121.574 167.722 122.102 167.167 122.417 166.5C122.75 165.815 122.917 165.111 122.917 164.389C122.917 163.704 122.759 163.019 122.444 162.333C122.148 161.648 121.63 161.083 120.889 160.639C120.148 160.176 119.13 159.944 117.833 159.944H115.278V168.833ZM130.485 181V164.333H134.402V167.25C134.995 166.287 135.735 165.537 136.624 165C137.532 164.444 138.606 164.167 139.846 164.167L140.819 168.111C140.467 168 140.069 167.944 139.624 167.944C138.18 167.944 137.022 168.407 136.152 169.333C135.282 170.259 134.846 171.574 134.846 173.278V181H130.485ZM151.078 181.5C149.245 181.5 147.615 181.111 146.189 180.333C144.782 179.556 143.68 178.491 142.884 177.139C142.106 175.769 141.717 174.222 141.717 172.5C141.717 170.852 142.097 169.38 142.856 168.083C143.634 166.769 144.68 165.731 145.995 164.972C147.31 164.213 148.763 163.833 150.356 163.833C151.986 163.833 153.439 164.213 154.717 164.972C156.013 165.713 157.041 166.722 157.8 168C158.56 169.278 158.939 170.731 158.939 172.361V173.944H148.578C148.115 173.944 147.661 173.917 147.217 173.861C146.773 173.806 146.328 173.741 145.884 173.667C146.106 174.87 146.689 175.861 147.634 176.639C148.578 177.417 149.763 177.806 151.189 177.806C152.245 177.806 153.198 177.583 154.05 177.139C154.902 176.694 155.606 176.139 156.161 175.472L157.161 179.556C156.328 180.204 155.393 180.685 154.356 181C153.319 181.333 152.226 181.5 151.078 181.5ZM145.773 170.972C146.717 170.787 147.652 170.694 148.578 170.694H152.161C152.661 170.694 153.134 170.713 153.578 170.75C154.023 170.787 154.448 170.843 154.856 170.917C154.578 169.843 154.032 168.981 153.217 168.333C152.421 167.685 151.458 167.361 150.328 167.361C149.217 167.361 148.254 167.694 147.439 168.361C146.624 169.028 146.069 169.898 145.773 170.972ZM161.931 181V164.333H165.847V166.306C166.458 165.491 167.208 164.88 168.097 164.472C168.986 164.046 169.921 163.833 170.903 163.833C171.921 163.833 172.875 164.056 173.764 164.5C174.653 164.926 175.394 165.556 175.986 166.389C176.634 165.556 177.449 164.926 178.431 164.5C179.412 164.056 180.468 163.833 181.597 163.833C182.801 163.833 183.921 164.111 184.958 164.667C185.995 165.222 186.838 166.028 187.486 167.083C188.134 168.139 188.458 169.407 188.458 170.889V181H184.069V171.5C184.069 170.444 183.764 169.565 183.153 168.861C182.56 168.157 181.755 167.806 180.736 167.806C180.162 167.806 179.616 167.935 179.097 168.194C178.579 168.454 178.162 168.852 177.847 169.389C177.532 169.926 177.375 170.611 177.375 171.444V181H172.986V171.5C172.986 170.796 172.847 170.167 172.569 169.611C172.292 169.037 171.903 168.593 171.403 168.278C170.903 167.944 170.319 167.778 169.653 167.778C169.097 167.778 168.56 167.917 168.042 168.194C167.523 168.454 167.097 168.852 166.764 169.389C166.449 169.926 166.292 170.611 166.292 171.444V181H161.931ZM192.232 181V164.333H196.593V181H192.232ZM194.426 161.778C193.741 161.778 193.158 161.546 192.676 161.083C192.213 160.602 191.982 160.019 191.982 159.333C191.982 158.63 192.213 158.046 192.676 157.583C193.158 157.12 193.741 156.889 194.426 156.889C195.13 156.889 195.713 157.12 196.176 157.583C196.639 158.046 196.871 158.63 196.871 159.333C196.871 160.019 196.639 160.602 196.176 161.083C195.713 161.546 195.13 161.778 194.426 161.778ZM207.136 181.5C205.97 181.5 204.868 181.213 203.831 180.639C202.794 180.065 201.96 179.241 201.331 178.167C200.701 177.074 200.386 175.75 200.386 174.194V164.333H204.747V173.611C204.747 174.648 205.053 175.565 205.664 176.361C206.294 177.157 207.164 177.556 208.275 177.556C209.201 177.556 210.025 177.222 210.747 176.556C211.47 175.889 211.831 174.935 211.831 173.694V164.333H216.192V181H212.22V179C211.627 179.815 210.886 180.435 209.997 180.861C209.109 181.287 208.155 181.5 207.136 181.5ZM220.29 181V164.333H224.207V166.306C224.818 165.491 225.568 164.88 226.457 164.472C227.345 164.046 228.281 163.833 229.262 163.833C230.281 163.833 231.234 164.056 232.123 164.5C233.012 164.926 233.753 165.556 234.345 166.389C234.994 165.556 235.808 164.926 236.79 164.5C237.771 164.056 238.827 163.833 239.957 163.833C241.16 163.833 242.281 164.111 243.318 164.667C244.355 165.222 245.197 166.028 245.845 167.083C246.494 168.139 246.818 169.407 246.818 170.889V181H242.429V171.5C242.429 170.444 242.123 169.565 241.512 168.861C240.92 168.157 240.114 167.806 239.095 167.806C238.521 167.806 237.975 167.935 237.457 168.194C236.938 168.454 236.521 168.852 236.207 169.389C235.892 169.926 235.734 170.611 235.734 171.444V181H231.345V171.5C231.345 170.796 231.207 170.167 230.929 169.611C230.651 169.037 230.262 168.593 229.762 168.278C229.262 167.944 228.679 167.778 228.012 167.778C227.457 167.778 226.92 167.917 226.401 168.194C225.883 168.454 225.457 168.852 225.123 169.389C224.808 169.926 224.651 170.611 224.651 171.444V181H220.29Z" fill="#121212"/>
<path d="M93.3743 147.374L90 144" stroke="#19223F" stroke-width="2.15541" stroke-miterlimit="10" stroke-linecap="round"/>
<path d="M100.999 155L97.625 151.626" stroke="#19223F" stroke-width="2.15541" stroke-miterlimit="10" stroke-linecap="round"/>
<path d="M93.3743 151.626L90 155" stroke="#19223F" stroke-width="2.15541" stroke-miterlimit="10" stroke-linecap="round"/>
<path d="M100.999 144L97.625 147.374" stroke="#19223F" stroke-width="2.15541" stroke-miterlimit="10" stroke-linecap="round"/>
<path d="M258.401 189.401L255 186" stroke="#19223F" stroke-width="2.17224" stroke-miterlimit="10" stroke-linecap="round"/>
<path d="M266.086 197.086L262.686 193.685" stroke="#19223F" stroke-width="2.17224" stroke-miterlimit="10" stroke-linecap="round"/>
<path d="M258.401 193.685L255 197.086" stroke="#19223F" stroke-width="2.17224" stroke-miterlimit="10" stroke-linecap="round"/>
<path d="M266.086 186L262.686 189.401" stroke="#19223F" stroke-width="2.17224" stroke-miterlimit="10" stroke-linecap="round"/>
<path d="M413.242 96.4837C416.689 96.4837 419.484 93.6891 419.484 90.2418C419.484 86.7946 416.689 84 413.242 84C409.795 84 407 86.7946 407 90.2418C407 93.6891 409.795 96.4837 413.242 96.4837Z" fill="#704FE6" fill-opacity="0.8"/>
<path d="M440.527 96.4837C443.974 96.4837 446.769 93.6891 446.769 90.2418C446.769 86.7946 443.974 84 440.527 84C437.08 84 434.285 86.7946 434.285 90.2418C434.285 93.6891 437.08 96.4837 440.527 96.4837Z" fill="#704FE6" fill-opacity="0.8"/>
<path d="M467.81 96.4837C471.258 96.4837 474.052 93.6891 474.052 90.2418C474.052 86.7946 471.258 84 467.81 84C464.363 84 461.568 86.7946 461.568 90.2418C461.568 93.6891 464.363 96.4837 467.81 96.4837Z" fill="#704FE6" fill-opacity="0.8"/>
<path d="M495.142 96.4837C498.589 96.4837 501.384 93.6891 501.384 90.2418C501.384 86.7946 498.589 84 495.142 84C491.695 84 488.9 86.7946 488.9 90.2418C488.9 93.6891 491.695 96.4837 495.142 96.4837Z" fill="#704FE6" fill-opacity="0.8"/>
<path d="M522.427 96.4837C525.875 96.4837 528.669 93.6891 528.669 90.2418C528.669 86.7946 525.875 84 522.427 84C518.98 84 516.186 86.7946 516.186 90.2418C516.186 93.6891 518.98 96.4837 522.427 96.4837Z" fill="#704FE6" fill-opacity="0.8"/>
<path d="M549.757 96.4837C553.205 96.4837 555.999 93.6891 555.999 90.2418C555.999 86.7946 553.205 84 549.757 84C546.31 84 543.516 86.7946 543.516 90.2418C543.516 93.6891 546.31 96.4837 549.757 96.4837Z" fill="white" fill-opacity="0.7"/>
<path d="M413.242 118.967C416.689 118.967 419.484 116.173 419.484 112.725C419.484 109.278 416.689 106.484 413.242 106.484C409.795 106.484 407 109.278 407 112.725C407 116.173 409.795 118.967 413.242 118.967Z" fill="#704FE6" fill-opacity="0.8"/>
<path d="M440.527 118.967C443.974 118.967 446.769 116.173 446.769 112.726C446.769 109.278 443.974 106.484 440.527 106.484C437.08 106.484 434.285 109.278 434.285 112.726C434.285 116.173 437.08 118.967 440.527 118.967Z" fill="#704FE6" fill-opacity="0.8"/>
<path d="M467.81 118.967C471.258 118.967 474.052 116.173 474.052 112.725C474.052 109.278 471.258 106.484 467.81 106.484C464.363 106.484 461.568 109.278 461.568 112.725C461.568 116.173 464.363 118.967 467.81 118.967Z" fill="#704FE6" fill-opacity="0.8"/>
<path d="M495.142 118.967C498.589 118.967 501.384 116.173 501.384 112.726C501.384 109.278 498.589 106.484 495.142 106.484C491.695 106.484 488.9 109.278 488.9 112.726C488.9 116.173 491.695 118.967 495.142 118.967Z" fill="#704FE6" fill-opacity="0.8"/>
<path d="M522.427 118.967C525.875 118.967 528.669 116.173 528.669 112.726C528.669 109.278 525.875 106.484 522.427 106.484C518.98 106.484 516.186 109.278 516.186 112.726C516.186 116.173 518.98 118.967 522.427 118.967Z" fill="#704FE6" fill-opacity="0.8"/>
<path d="M549.757 118.967C553.205 118.967 555.999 116.173 555.999 112.726C555.999 109.278 553.205 106.484 549.757 106.484C546.31 106.484 543.516 109.278 543.516 112.726C543.516 116.173 546.31 118.967 549.757 118.967Z" fill="white" fill-opacity="0.7"/>
<path d="M413.242 141.451C416.689 141.451 419.484 138.656 419.484 135.209C419.484 131.762 416.689 128.967 413.242 128.967C409.795 128.967 407 131.762 407 135.209C407 138.656 409.795 141.451 413.242 141.451Z" fill="#704FE6" fill-opacity="0.8"/>
<path d="M440.527 141.451C443.974 141.451 446.769 138.657 446.769 135.209C446.769 131.762 443.974 128.968 440.527 128.968C437.08 128.968 434.285 131.762 434.285 135.209C434.285 138.657 437.08 141.451 440.527 141.451Z" fill="#704FE6" fill-opacity="0.8"/>
<path d="M467.81 141.451C471.258 141.451 474.052 138.656 474.052 135.209C474.052 131.762 471.258 128.967 467.81 128.967C464.363 128.967 461.568 131.762 461.568 135.209C461.568 138.656 464.363 141.451 467.81 141.451Z" fill="#704FE6" fill-opacity="0.8"/>
<path d="M495.142 141.451C498.589 141.451 501.384 138.657 501.384 135.209C501.384 131.762 498.589 128.968 495.142 128.968C491.695 128.968 488.9 131.762 488.9 135.209C488.9 138.657 491.695 141.451 495.142 141.451Z" fill="#704FE6" fill-opacity="0.8"/>
<path d="M522.427 141.451C525.875 141.451 528.669 138.657 528.669 135.209C528.669 131.762 525.875 128.968 522.427 128.968C518.98 128.968 516.186 131.762 516.186 135.209C516.186 138.657 518.98 141.451 522.427 141.451Z" fill="#704FE6" fill-opacity="0.8"/>
<path d="M549.757 141.451C553.205 141.451 555.999 138.657 555.999 135.209C555.999 131.762 553.205 128.968 549.757 128.968C546.31 128.968 543.516 131.762 543.516 135.209C543.516 138.657 546.31 141.451 549.757 141.451Z" fill="white" fill-opacity="0.7"/>
<path d="M413.242 163.935C416.689 163.935 419.484 161.14 419.484 157.693C419.484 154.246 416.689 151.451 413.242 151.451C409.795 151.451 407 154.246 407 157.693C407 161.14 409.795 163.935 413.242 163.935Z" fill="#704FE6" fill-opacity="0.8"/>
<path d="M440.527 163.934C443.974 163.934 446.769 161.14 446.769 157.693C446.769 154.245 443.974 151.451 440.527 151.451C437.08 151.451 434.285 154.245 434.285 157.693C434.285 161.14 437.08 163.934 440.527 163.934Z" fill="#704FE6" fill-opacity="0.8"/>
<path d="M467.81 163.935C471.258 163.935 474.052 161.14 474.052 157.693C474.052 154.246 471.258 151.451 467.81 151.451C464.363 151.451 461.568 154.246 461.568 157.693C461.568 161.14 464.363 163.935 467.81 163.935Z" fill="#704FE6" fill-opacity="0.8"/>
<path d="M495.142 163.934C498.589 163.934 501.384 161.14 501.384 157.693C501.384 154.245 498.589 151.451 495.142 151.451C491.695 151.451 488.9 154.245 488.9 157.693C488.9 161.14 491.695 163.934 495.142 163.934Z" fill="#704FE6" fill-opacity="0.8"/>
<path d="M522.427 163.934C525.875 163.934 528.669 161.14 528.669 157.693C528.669 154.245 525.875 151.451 522.427 151.451C518.98 151.451 516.186 154.245 516.186 157.693C516.186 161.14 518.98 163.934 522.427 163.934Z" fill="#704FE6" fill-opacity="0.8"/>
<path d="M549.757 163.934C553.205 163.934 555.999 161.14 555.999 157.693C555.999 154.245 553.205 151.451 549.757 151.451C546.31 151.451 543.516 154.245 543.516 157.693C543.516 161.14 546.31 163.934 549.757 163.934Z" fill="white" fill-opacity="0.7"/>
<path d="M413.242 186.418C416.689 186.418 419.484 183.624 419.484 180.177C419.484 176.729 416.689 173.935 413.242 173.935C409.795 173.935 407 176.729 407 180.177C407 183.624 409.795 186.418 413.242 186.418Z" fill="#704FE6" fill-opacity="0.8"/>
<path d="M440.527 186.418C443.974 186.418 446.769 183.624 446.769 180.176C446.769 176.729 443.974 173.935 440.527 173.935C437.08 173.935 434.285 176.729 434.285 180.176C434.285 183.624 437.08 186.418 440.527 186.418Z" fill="#704FE6" fill-opacity="0.8"/>
<path d="M467.81 186.418C471.258 186.418 474.052 183.624 474.052 180.177C474.052 176.729 471.258 173.935 467.81 173.935C464.363 173.935 461.568 176.729 461.568 180.177C461.568 183.624 464.363 186.418 467.81 186.418Z" fill="#704FE6" fill-opacity="0.8"/>
<path d="M495.142 186.418C498.589 186.418 501.384 183.624 501.384 180.176C501.384 176.729 498.589 173.935 495.142 173.935C491.695 173.935 488.9 176.729 488.9 180.176C488.9 183.624 491.695 186.418 495.142 186.418Z" fill="#704FE6" fill-opacity="0.8"/>
<path d="M522.427 186.418C525.875 186.418 528.669 183.624 528.669 180.176C528.669 176.729 525.875 173.935 522.427 173.935C518.98 173.935 516.186 176.729 516.186 180.176C516.186 183.624 518.98 186.418 522.427 186.418Z" fill="#704FE6" fill-opacity="0.8"/>
<path d="M549.757 186.418C553.205 186.418 555.999 183.624 555.999 180.176C555.999 176.729 553.205 173.935 549.757 173.935C546.31 173.935 543.516 176.729 543.516 180.176C543.516 183.624 546.31 186.418 549.757 186.418Z" fill="white" fill-opacity="0.7"/>
<path d="M413.242 208.902C416.689 208.902 419.484 206.107 419.484 202.66C419.484 199.213 416.689 196.418 413.242 196.418C409.795 196.418 407 199.213 407 202.66C407 206.107 409.795 208.902 413.242 208.902Z" fill="#704FE6" fill-opacity="0.8"/>
<path d="M440.527 208.902C443.974 208.902 446.769 206.107 446.769 202.66C446.769 199.213 443.974 196.418 440.527 196.418C437.08 196.418 434.285 199.213 434.285 202.66C434.285 206.107 437.08 208.902 440.527 208.902Z" fill="#704FE6" fill-opacity="0.8"/>
<path d="M467.81 208.902C471.258 208.902 474.052 206.107 474.052 202.66C474.052 199.213 471.258 196.418 467.81 196.418C464.363 196.418 461.568 199.213 461.568 202.66C461.568 206.107 464.363 208.902 467.81 208.902Z" fill="#704FE6" fill-opacity="0.8"/>
<path d="M495.142 208.902C498.589 208.902 501.384 206.107 501.384 202.66C501.384 199.213 498.589 196.418 495.142 196.418C491.695 196.418 488.9 199.213 488.9 202.66C488.9 206.107 491.695 208.902 495.142 208.902Z" fill="#704FE6" fill-opacity="0.8"/>
<path d="M522.427 208.902C525.875 208.902 528.669 206.107 528.669 202.66C528.669 199.213 525.875 196.418 522.427 196.418C518.98 196.418 516.186 199.213 516.186 202.66C516.186 206.107 518.98 208.902 522.427 208.902Z" fill="#704FE6" fill-opacity="0.8"/>
<path d="M549.757 208.902C553.205 208.902 555.999 206.107 555.999 202.66C555.999 199.213 553.205 196.418 549.757 196.418C546.31 196.418 543.516 199.213 543.516 202.66C543.516 206.107 546.31 208.902 549.757 208.902Z" fill="white" fill-opacity="0.7"/>
<path d="M413.242 231.386C416.689 231.386 419.484 228.591 419.484 225.144C419.484 221.697 416.689 218.902 413.242 218.902C409.795 218.902 407 221.697 407 225.144C407 228.591 409.795 231.386 413.242 231.386Z" fill="#704FE6" fill-opacity="0.8"/>
<path d="M440.527 231.386C443.974 231.386 446.769 228.591 446.769 225.144C446.769 221.696 443.974 218.902 440.527 218.902C437.08 218.902 434.285 221.696 434.285 225.144C434.285 228.591 437.08 231.386 440.527 231.386Z" fill="#704FE6" fill-opacity="0.8"/>
<path d="M467.81 231.386C471.258 231.386 474.052 228.591 474.052 225.144C474.052 221.697 471.258 218.902 467.81 218.902C464.363 218.902 461.568 221.697 461.568 225.144C461.568 228.591 464.363 231.386 467.81 231.386Z" fill="#704FE6" fill-opacity="0.8"/>
<path d="M495.142 231.386C498.589 231.386 501.384 228.591 501.384 225.144C501.384 221.696 498.589 218.902 495.142 218.902C491.695 218.902 488.9 221.696 488.9 225.144C488.9 228.591 491.695 231.386 495.142 231.386Z" fill="#704FE6" fill-opacity="0.8"/>
<path d="M522.427 231.386C525.875 231.386 528.669 228.591 528.669 225.144C528.669 221.696 525.875 218.902 522.427 218.902C518.98 218.902 516.186 221.696 516.186 225.144C516.186 228.591 518.98 231.386 522.427 231.386Z" fill="#704FE6" fill-opacity="0.8"/>
<path d="M549.757 231.386C553.205 231.386 555.999 228.591 555.999 225.144C555.999 221.696 553.205 218.902 549.757 218.902C546.31 218.902 543.516 221.696 543.516 225.144C543.516 228.591 546.31 231.386 549.757 231.386Z" fill="white" fill-opacity="0.7"/>
</svg>
