<svg width="348" height="348" viewBox="0 0 348 348" fill="none" xmlns="http://www.w3.org/2000/svg">
<path d="M326.128 218.208H14.0127V225.847H326.128V218.208Z" fill="#FF95FB"/>
<path d="M320.059 226.006V218.372" stroke="white" stroke-width="1.5" stroke-miterlimit="10" stroke-linecap="round" stroke-linejoin="round"/>
<path d="M269.863 226.006V218.372" stroke="white" stroke-width="1.5" stroke-miterlimit="10" stroke-linecap="round" stroke-linejoin="round"/>
<path d="M219.667 226.006V218.372" stroke="white" stroke-width="1.5" stroke-miterlimit="10" stroke-linecap="round" stroke-linejoin="round"/>
<path d="M169.471 226.006V218.372" stroke="white" stroke-width="1.5" stroke-miterlimit="10" stroke-linecap="round" stroke-linejoin="round"/>
<path d="M119.276 226.006V218.372" stroke="white" stroke-width="1.5" stroke-miterlimit="10" stroke-linecap="round" stroke-linejoin="round"/>
<path d="M69.0801 226.006V218.372" stroke="white" stroke-width="1.5" stroke-miterlimit="10" stroke-linecap="round" stroke-linejoin="round"/>
<path d="M18.8848 226.006V218.372" stroke="white" stroke-width="1.5" stroke-miterlimit="10" stroke-linecap="round" stroke-linejoin="round"/>
<path d="M311.927 212.515L14.0103 212.516" stroke="#FF95FB" stroke-width="1.5" stroke-miterlimit="10" stroke-linecap="round" stroke-linejoin="round"/>
<path d="M340.327 254.847H14.0098V262.481H340.327V254.847Z" fill="#FF95FB"/>
<path d="M334.259 262.723V255.089" stroke="white" stroke-width="1.5" stroke-miterlimit="10" stroke-linecap="round" stroke-linejoin="round"/>
<path d="M284.063 262.723V255.089" stroke="white" stroke-width="1.5" stroke-miterlimit="10" stroke-linecap="round" stroke-linejoin="round"/>
<path d="M233.867 262.723V255.089" stroke="white" stroke-width="1.5" stroke-miterlimit="10" stroke-linecap="round" stroke-linejoin="round"/>
<path d="M183.672 262.723V255.089" stroke="white" stroke-width="1.5" stroke-miterlimit="10" stroke-linecap="round" stroke-linejoin="round"/>
<path d="M133.476 262.723V255.089" stroke="white" stroke-width="1.5" stroke-miterlimit="10" stroke-linecap="round" stroke-linejoin="round"/>
<path d="M83.2798 262.723V255.089" stroke="white" stroke-width="1.5" stroke-miterlimit="10" stroke-linecap="round" stroke-linejoin="round"/>
<path d="M33.0845 262.723V255.089" stroke="white" stroke-width="1.5" stroke-miterlimit="10" stroke-linecap="round" stroke-linejoin="round"/>
<path d="M326.127 249.231H14.0103" stroke="#FF95FB" stroke-width="1.5" stroke-miterlimit="10" stroke-linecap="round" stroke-linejoin="round"/>
<path d="M340.327 285.947V254.847L326.127 249.231V218.131" stroke="#FF95FB" stroke-width="1.5" stroke-miterlimit="10" stroke-linecap="round" stroke-linejoin="round"/>
<path d="M326.127 218.13L311.927 212.515V181.415" stroke="#FF95FB" stroke-width="1.5" stroke-miterlimit="10" stroke-linecap="round" stroke-linejoin="round"/>
<path d="M311.927 181.416L297.727 175.801" stroke="#FF95FB" stroke-width="1.5" stroke-miterlimit="10" stroke-linecap="round" stroke-linejoin="round"/>
<path d="M14.0103 285.947H340.326" stroke="#FF95FB" stroke-width="1.5" stroke-miterlimit="10" stroke-linecap="round" stroke-linejoin="round"/>
<path d="M311.927 181.414H14.0127V189.053H311.927V181.414Z" fill="#FF95FB"/>
<path d="M305.859 189.05V181.416" stroke="white" stroke-width="1.5" stroke-miterlimit="10" stroke-linecap="round" stroke-linejoin="round"/>
<path d="M255.663 189.05V181.416" stroke="white" stroke-width="1.5" stroke-miterlimit="10" stroke-linecap="round" stroke-linejoin="round"/>
<path d="M205.467 189.05V181.416" stroke="white" stroke-width="1.5" stroke-miterlimit="10" stroke-linecap="round" stroke-linejoin="round"/>
<path d="M155.271 189.05V181.416" stroke="white" stroke-width="1.5" stroke-miterlimit="10" stroke-linecap="round" stroke-linejoin="round"/>
<path d="M105.076 189.05V181.416" stroke="white" stroke-width="1.5" stroke-miterlimit="10" stroke-linecap="round" stroke-linejoin="round"/>
<path d="M54.8804 189.05V181.416" stroke="white" stroke-width="1.5" stroke-miterlimit="10" stroke-linecap="round" stroke-linejoin="round"/>
<path d="M14.0107 175.801H297.727" stroke="#FF95FB" stroke-width="1.5" stroke-miterlimit="10" stroke-linecap="round" stroke-linejoin="round"/>
<path d="M262.095 103.812C260.166 102.793 258.554 101.547 257.599 99.4582C256.89 97.9061 256.787 96.0151 257.614 94.5229C258.28 93.3223 259.53 92.3228 259.521 90.9503C259.514 89.7991 258.605 88.8755 258.179 87.8065C257.636 86.4472 257.943 84.7886 258.937 83.7147C259.582 83.0187 260.452 82.583 261.205 82.006C263.672 80.115 262.002 77.6219 261.698 75.1532C261.279 71.7595 262.67 68.821 265.244 66.6216L287.38 64.4014C295.958 71.2973 298.858 79.8254 299.63 84.5756C300.469 89.7386 299.886 95.3483 296.876 99.6252C293.466 104.469 285.777 107.665 280.752 107.996C277.855 108.187 271.061 108.548 262.095 103.812Z" fill="#4753BA"/>
<path d="M261.945 81.9512C261.416 82.1203 260.887 82.2894 260.357 82.4586C259.453 82.7474 258.521 83.0522 257.808 83.6779C256.761 84.5967 256.36 86.1822 256.845 87.4878C257.105 88.1901 257.585 88.788 257.924 89.4554C258.264 90.1229 258.454 90.9456 258.107 91.6096C257.894 92.0181 257.51 92.3042 257.198 92.6431C255.876 94.0755 255.944 96.366 256.75 98.1394C257.53 99.853 259.101 101.362 260.982 101.43" stroke="#4753BA" stroke-width="1.5" stroke-miterlimit="10" stroke-linecap="round" stroke-linejoin="round"/>
<path d="M269.875 63.8809C266.376 64.7648 263.357 66.4421 261.659 68.3909C259.962 70.3404 259.484 73.6221 260.452 76.0191C260.958 77.2726 261.907 78.2943 262.535 79.4921C263.163 80.6893 263.408 82.2789 262.535 83.3104" stroke="#4753BA" stroke-width="1.5" stroke-miterlimit="10" stroke-linecap="round" stroke-linejoin="round"/>
<path d="M264.427 79.728C266.724 87.2483 274.883 91.4222 282.652 89.0495C290.421 86.6776 294.856 78.6576 292.56 71.1373C290.264 63.617 282.104 59.4431 274.335 61.8158C264.518 63.095 257.536 71.3496 264.427 79.728Z" fill="#4753BA"/>
<path d="M263.695 80.3872C263.592 79.0522 263.465 76.1938 264.609 73.0889C265.409 70.9174 267.439 66.7212 272.765 65.8721C274.507 69.4899 277.088 69.7321 280.596 71.6725C283.18 73.1014 283.889 76.9914 283.889 76.9914C283.642 78.3367 285.079 81.7499 285.079 81.7499L285.825 84.543L286.965 95.9595L290.854 98.4741L273.822 104.464L270.705 95.1605L275.718 95.0442L275.992 91.7681C270.193 92.2052 264.403 89.5576 263.695 80.3872Z" fill="#FFC4B0"/>
<path d="M278.239 77.2079C277.819 76.3324 276.281 75.7296 275.156 75.7881C274.03 75.8466 272.935 76.5481 272.778 77.9756C273.331 79.3245 276.918 79.3078 278.239 77.2079Z" fill="white"/>
<path d="M273.119 76.4659C272.899 76.6093 272.801 76.7853 272.634 76.9628C272.341 77.2719 272.414 76.8048 272.447 76.6086C272.542 76.0385 272.791 75.4936 273.163 75.0502C273.742 74.3619 274.718 73.8524 275.615 73.8051C276.4 73.764 277.217 73.9401 277.844 74.4141C278.419 74.8491 278.806 75.527 278.888 76.2446C278.913 76.4638 278.893 76.722 278.713 76.8494C278.612 76.9211 278.482 76.9343 278.358 76.9294C277.731 76.9044 277.202 76.4826 276.633 76.2174C275.523 75.6989 274.147 75.7956 273.119 76.4659Z" fill="#D48983"/>
<path d="M274.306 78.1552C274.758 78.8623 275.728 79.0558 276.471 78.5874C277.214 78.1183 277.45 77.1655 276.997 76.4583C276.545 75.7512 275.575 75.5577 274.832 76.0261C274.089 76.4945 273.853 77.448 274.306 78.1552Z" fill="#303030"/>
<path d="M277.102 76.4033L275.652 77.3067L277.412 77.2225L277.102 76.4033Z" fill="white"/>
<path d="M272.281 77.7964C272.672 75.8943 274.117 75.7307 275.244 75.6722C276.37 75.6138 277.619 76.4782 278.24 77.2076" stroke="#303030" stroke-width="1.5" stroke-miterlimit="10" stroke-linecap="round" stroke-linejoin="round"/>
<path d="M270.967 76.0005C271.789 76.4912 272.537 76.242 273.282 76.0868" stroke="#303030" stroke-width="1.5" stroke-miterlimit="10" stroke-linecap="round" stroke-linejoin="round"/>
<path d="M264.199 78.9847C265.852 79.6404 268.044 78.9082 268.56 77.8022C268.254 76.9782 267.346 76.3782 266.345 76.3379C266.086 76.3295 264.915 76.4367 264.22 76.7346C264.163 77.2002 264.044 77.7055 264.199 78.9847Z" fill="white"/>
<path d="M267.6 75.2557C267.191 74.9689 266.739 74.7316 266.249 74.6328C265.76 74.5339 265.229 74.584 264.8 74.8388C264.37 75.0935 264.061 75.5689 264.072 76.0679C264.074 76.1821 264.094 76.3004 264.161 76.3923C264.262 76.5287 264.447 76.5767 264.616 76.5642C264.784 76.5509 264.944 76.4876 265.106 76.4396C266.231 76.1083 267.47 76.5683 268.353 77.3388C268.522 77.4864 268.834 77.6611 268.972 77.3736C269.072 77.1655 268.882 76.7688 268.794 76.5837C268.537 76.0394 268.087 75.5981 267.6 75.2557Z" fill="#D48983"/>
<path d="M265.557 78.9696C266.008 79.1582 266.559 79.081 266.967 78.7518C267.509 78.3154 267.599 77.4823 267.167 76.8921C266.704 76.2573 265.716 76.1961 265.151 76.7382C264.809 77.0661 264.665 77.586 264.788 78.0439C264.833 78.2089 264.91 78.3641 265.003 78.5068C265.145 78.7246 265.34 78.8784 265.557 78.9696Z" fill="#303030"/>
<path d="M267.232 76.8198L266.248 77.6056L267.577 77.5144L267.232 76.8198Z" fill="white"/>
<path d="M264.63 76.6326C265.439 76.3444 265.998 76.3242 266.345 76.3382C267.344 76.3792 268.251 76.9799 268.558 77.8046" stroke="#303030" stroke-width="1.5" stroke-miterlimit="10" stroke-linecap="round" stroke-linejoin="round"/>
<path d="M263.412 76.5259C263.618 76.6818 263.754 76.7653 264.037 76.7883C264.277 76.8078 264.599 76.7577 264.815 76.6449" stroke="#303030" stroke-width="1.5" stroke-miterlimit="10" stroke-linecap="round" stroke-linejoin="round"/>
<path d="M267.104 71.9243C266.209 71.9549 264.919 72.3106 264.076 73.3908" stroke="#303030" stroke-width="1.5" stroke-miterlimit="10" stroke-linecap="round" stroke-linejoin="round"/>
<path d="M275.992 91.768C279.504 91.6831 283.122 89.0467 283.815 87.1675C283.781 89.8297 281.948 92.636 275.747 94.2416L275.992 91.768Z" fill="#303030"/>
<path d="M269.55 82.2206C268.625 81.9346 267.922 81.4028 267.995 80.4563C268.07 79.4735 269.55 78.907 269.55 74.0454" stroke="#303030" stroke-width="1.5" stroke-miterlimit="10" stroke-linecap="round" stroke-linejoin="round"/>
<path d="M274.765 83.5103C273.917 84.8723 271.454 85.7263 269.875 85.1841" stroke="#303030" stroke-width="1.5" stroke-miterlimit="10" stroke-linecap="round" stroke-linejoin="round"/>
<path d="M272.798 71.6043C274.575 70.6835 276.848 71.5494 278.628 73.0012" stroke="#303030" stroke-width="1.5" stroke-miterlimit="10" stroke-linecap="round" stroke-linejoin="round"/>
<path d="M272.767 64.561C272.186 66.0804 273.169 70.7018 277.011 73.6397C279.093 75.2321 282.348 75.8293 284.967 75.7374" stroke="#4753BA" stroke-width="1.5" stroke-miterlimit="10" stroke-linecap="round" stroke-linejoin="round"/>
<path d="M283.252 78.3091C283.842 76.6972 285.014 75.1938 286.657 74.5438C288.301 73.8937 290.417 74.3106 291.328 75.7388C292.23 77.151 291.71 79.1492 290.445 80.3317C289.18 81.5142 287.154 82.19 285.024 81.8142" fill="#FFC4B0"/>
<path d="M283.252 78.3091C283.842 76.6972 285.014 75.1938 286.657 74.5438C288.301 73.8937 290.417 74.3106 291.328 75.7388C292.23 77.151 291.71 79.1492 290.445 80.3317C289.18 81.5142 287.154 82.19 285.024 81.8142" stroke="#303030" stroke-width="1.5" stroke-miterlimit="10" stroke-linecap="round" stroke-linejoin="round"/>
<path d="M289.731 76.823C288.785 76.434 287.621 76.5523 286.754 77.1251C285.888 77.6986 285.348 78.7085 285.373 79.7072" stroke="#303030" stroke-width="1.5" stroke-miterlimit="10" stroke-linecap="round" stroke-linejoin="round"/>
<path d="M288.217 78.3631C287.816 78.1661 287.34 78.1334 286.887 78.1953C286.434 78.2566 285.993 78.432 285.595 78.6192" stroke="#303030" stroke-width="1.5" stroke-miterlimit="10" stroke-linecap="round" stroke-linejoin="round"/>
<path d="M287.552 82.6415C287.552 83.6292 286.751 84.4296 285.764 84.4296C284.776 84.4296 283.976 83.6292 283.976 82.6415C283.976 81.6539 284.776 80.8535 285.764 80.8535C286.751 80.8535 287.552 81.6539 287.552 82.6415Z" fill="#303030"/>
<path d="M290.388 78.6167C291.203 78.6543 291.986 79.1366 292.386 79.8486" stroke="#303030" stroke-width="1.5" stroke-miterlimit="10" stroke-linecap="round" stroke-linejoin="round"/>
<path d="M266.594 97.4223C262.428 97.368 258.639 102.413 254.046 109.469C249.453 116.526 247.585 119.243 247.585 119.243L227.129 115.741L224.443 125.697C224.443 125.697 241.857 131.853 247.198 132.561C253.423 133.386 255.21 131.288 258.173 128.007C261.603 124.208 267.577 116.679 267.577 116.679L266.594 97.4223Z" fill="#D48983"/>
<path d="M268.413 95.5425C262.35 96.2907 261.305 97.5115 256.66 104.464C253.829 108.7 250.97 112.727 250.97 112.727C250.97 112.727 255.757 119.145 261.946 120.473L268.414 111.166V95.5425H268.413Z" fill="#303030" stroke="#303030" stroke-width="1.5" stroke-miterlimit="10" stroke-linecap="round" stroke-linejoin="round"/>
<path d="M181.723 171.348C181.791 173.195 184.152 173.481 185.494 173.621C187.49 173.829 189.498 173.864 191.503 173.893C199.64 174.007 207.779 174.003 215.916 173.883C218.114 173.85 220.381 173.795 222.386 172.895C225.971 171.285 226.571 167.416 225.905 163.899C225.673 162.67 225.607 161.682 225.701 160.401C225.791 159.183 225.813 158.134 226.245 156.993C226.692 155.811 227.163 154.639 227.644 153.47C229.593 148.734 231.761 144.068 233.352 139.194C233.352 139.194 237.135 147.817 246.622 164.909C251.375 173.471 279.854 179.403 289.609 175.34C299.364 171.278 298.92 153.054 298.92 153.054L273.69 152.47C262.08 138.428 245.993 120.804 240.615 115.734C233.352 108.885 228.913 107.435 223.293 109.288C219.626 110.497 216.118 114.627 215.204 120.551C214.419 125.632 213.215 132.84 212.212 140C211.703 143.631 211.177 147.261 210.552 150.875C210.309 152.286 210.172 153.824 209.745 155.192C209.201 156.938 207.682 158.192 206.235 159.192C199.569 163.799 191.581 165.979 184.058 168.991C182.961 169.43 181.68 170.166 181.723 171.348Z" fill="#FFC4B0"/>
<path d="M228.481 151.464C230.417 151.885 228.54 155.121 228.048 156.849C227.557 158.577 227.008 159.012 227.008 159.012L226.082 161.615C225.9 162.126 226.555 163.672 226.658 164.241C226.828 165.167 226.937 166.095 226.997 167.035C227.103 168.662 226.718 170.311 225.854 171.722C225.309 172.612 224.402 173.577 223.462 174.06C222.306 174.654 220.454 174.619 219.178 174.713C216.156 174.936 213.125 174.789 210.101 174.693C204.928 174.53 199.75 174.519 194.576 174.663C190.64 174.772 186.664 174.966 182.799 174.217C182.221 174.105 181.631 173.965 181.148 173.629C180.184 172.957 179.873 171.541 180.379 170.481C180.976 169.232 182.043 169.201 183.16 168.751C184.469 168.224 185.716 167.749 187.092 167.37C189.755 166.638 192.352 165.667 194.845 164.48C198.566 162.709 202.06 160.455 205.203 157.789C205.989 157.122 206.753 156.43 207.493 155.713C207.807 155.409 208.189 155.141 208.331 154.733C208.473 154.328 208.425 153.765 208.485 153.334C208.594 152.561 208.711 151.664 209.149 150.995C209.321 150.731 209.528 150.495 209.824 150.37C209.896 150.34 210.664 150.216 210.648 150.308L210.273 152.447C210.273 152.447 212.295 154.046 218.529 154.296C223.684 154.502 227.793 153.108 227.793 153.108L228.481 151.464Z" fill="#303030"/>
<path d="M228.312 163.215C228.518 161.63 228.996 160.52 229.037 159.095C229.093 157.156 228.049 156.85 228.049 156.85L226.435 159.092C226.435 159.092 225.468 160.134 222.92 160.221C220.351 160.309 218.739 158.382 217.639 157.497C217.048 157.021 216.423 156.529 215.676 156.39C214.892 156.243 214.108 156.509 213.37 156.843C211.227 153.734 206.796 153.492 205.012 154.976C203.643 156.116 197.636 160.921 194.265 162.873C191.355 164.558 189.42 165.298 186.053 166.181C180.517 167.634 178.961 169.268 178.761 173.041C178.715 173.898 180.634 175.896 183.103 175.899C185.572 175.903 191.901 175.911 195.989 175.917C195.989 175.917 215.252 175.942 220.953 175.95C225.385 175.956 228.254 175.436 228.674 172.586C228.684 164.794 228.012 165.523 228.312 163.215Z" fill="#F55571"/>
<path d="M198.881 167.918C197.211 165.762 193.642 163.715 190.495 164.761" stroke="#303030" stroke-width="1.5" stroke-miterlimit="10" stroke-linecap="round" stroke-linejoin="round"/>
<path d="M195.819 161.9C197.315 162.72 198.153 163.765 199.165 165.451" stroke="#303030" stroke-width="1.5" stroke-miterlimit="10" stroke-linecap="round" stroke-linejoin="round"/>
<path d="M194.264 162.873C196.189 162.792 198.913 163.35 203.508 164.131" stroke="#303030" stroke-width="1.5" stroke-miterlimit="10" stroke-linecap="round" stroke-linejoin="round"/>
<path d="M199.618 159.371C201.114 160.19 201.821 161.02 202.834 162.706" stroke="#303030" stroke-width="1.5" stroke-miterlimit="10" stroke-linecap="round" stroke-linejoin="round"/>
<path d="M198.064 160.343C199.989 160.262 202.713 160.82 207.308 161.601" stroke="#303030" stroke-width="1.5" stroke-miterlimit="10" stroke-linecap="round" stroke-linejoin="round"/>
<path d="M203.338 156.434C204.834 157.254 205.752 158.705 206.764 160.39" stroke="#303030" stroke-width="1.5" stroke-miterlimit="10" stroke-linecap="round" stroke-linejoin="round"/>
<path d="M201.864 157.812C203.789 157.732 206.512 158.29 211.108 159.071" stroke="#303030" stroke-width="1.5" stroke-miterlimit="10" stroke-linecap="round" stroke-linejoin="round"/>
<path d="M228.039 163.718C227.607 164.325 227.063 164.835 226.367 165.193C224.975 165.909 223.3 166.054 221.806 165.587C219.452 164.852 217.642 162.716 215.202 162.36C213.427 162.101 211.672 162.844 210.059 163.63C207.08 165.083 202.406 167.795 201.802 168.717C201.199 169.638 200.704 172.522 200.227 175.301" stroke="#303030" stroke-width="1.5" stroke-miterlimit="10" stroke-linecap="round" stroke-linejoin="round"/>
<path d="M180.446 178.759C182.64 179.353 194.766 179.285 194.766 179.285C194.766 179.285 214.932 179.313 219.545 179.318C224.158 179.324 226.613 179.181 227.791 177.554C228.486 176.595 228.87 175.053 228.673 172.586C226.755 174.275 227.244 174.755 219.362 174.745C211.481 174.734 192.246 174.77 188.067 174.703C185.157 174.657 180.635 175.042 178.76 173.042C178.07 173.96 177.101 177.852 180.446 178.759Z" fill="white" stroke="#303030" stroke-width="1.5" stroke-miterlimit="10" stroke-linecap="round" stroke-linejoin="round"/>
<path d="M253.253 128.41L275.071 149.279V177.239C260.025 175.4 254.08 173.335 250.533 170.612C243.25 165.022 238.468 152.824 237.087 149.695C235.165 145.343 233.352 140.756 233.352 140.756C233.11 141.513 232.995 142.893 231.802 143.493C226.958 145.928 215.753 144.322 212.214 139.999C210.267 137.621 211.229 136.577 211.927 133.387C212.625 130.197 213.688 120.203 215.968 115.59C218.247 110.977 222.944 107.169 228.04 107.858C233.136 108.546 237.999 111.771 241.569 115.59C245.139 119.409 253.253 128.41 253.253 128.41Z" fill="#4753BA"/>
<path d="M212.213 139.999L211.568 144.491C215.107 148.815 225.548 150.278 230.392 147.844L231.801 143.493C226.957 145.928 215.751 144.323 212.213 139.999Z" fill="#303030"/>
<path d="M235.376 128.977C235.376 128.977 235.376 135.993 233.352 140.756" stroke="#303030" stroke-width="1.5" stroke-miterlimit="10" stroke-linecap="round" stroke-linejoin="round"/>
<path d="M225.514 171.113C224.94 155.255 229.611 150.746 239.013 150.71C250.275 150.665 283.751 153.514 283.751 153.514H298.37C299.196 163.334 298.491 175.854 288.216 178.393C282.518 179.8 275.314 178.62 264.038 175.854C252.762 173.087 246.298 171.502 246.298 171.502C249.123 181.565 245.905 190.038 244.927 200.636C243.893 211.845 243.807 215.385 244.132 220.831C244.287 223.42 243.784 227.441 240.369 229.458C239.879 229.747 239.31 229.867 238.753 229.98C226.599 232.441 215.399 232.693 202.999 232.873C202.202 232.885 198.913 232.535 198.745 231.756C198.661 231.369 199.356 229.566 199.568 229.232C200.959 227.038 203.259 227.176 205.973 226.223C209.892 224.847 212.926 223.226 216.544 221.189C219.586 219.475 221.011 219.136 224.152 216.695C225.877 215.355 227.489 212.96 227.521 206.148C227.563 197.518 225.96 183.455 225.514 171.113Z" fill="#FFC4B0"/>
<path d="M244.408 206.616C245.774 206.87 246.065 208.181 245.615 211.217C244.477 218.898 245.596 222.553 245.677 224.395C245.759 226.237 247.854 234.268 243.853 235.705C239.853 237.142 231.858 236.409 223.782 236.561C215.706 236.713 206.01 236.045 202.849 235.943C197.965 235.786 197.965 230.404 200.379 228.28C202.794 226.157 208.969 225.882 213.957 222.619C218.944 219.356 223.767 216.604 225.053 214.294C226.338 211.984 226.17 211.076 226.358 208.759C226.438 207.781 226.049 206.474 227.521 206.148C227.617 206.712 227.687 207.294 227.732 207.891C227.732 207.891 228.656 210.501 235.944 210.51C242.992 210.52 244.273 208.405 244.273 208.405L244.408 206.616Z" fill="#303030"/>
<path d="M204.716 225.52C208.098 224.632 210.04 223.889 212.962 222.197C216.347 220.236 222.377 215.41 223.753 214.265C225.544 212.774 229.993 213.017 232.145 216.138C232.886 215.803 233.674 215.536 234.461 215.682C235.21 215.822 235.838 216.316 236.432 216.794C237.537 217.682 239.157 219.617 241.735 219.528C244.295 219.441 245.083 216.472 245.083 216.472L245.294 213.839C247.446 214.664 247.179 215.497 246.93 217.108C246.712 218.523 246.843 221.029 247.041 223.075C247.266 225.401 247.486 227.903 247.517 231.944C247.095 234.805 244.214 235.328 239.764 235.323C234.038 235.316 214.695 235.294 214.695 235.294C210.59 235.289 204.234 235.281 201.755 235.278C199.277 235.275 197.349 233.269 197.394 232.409C197.595 228.622 199.158 226.98 204.716 225.52Z" fill="#F55571"/>
<path d="M217.598 227.262C215.921 225.096 212.336 223.042 209.177 224.092" stroke="#303030" stroke-width="1.5" stroke-miterlimit="10" stroke-linecap="round" stroke-linejoin="round"/>
<path d="M214.522 221.22C216.024 222.044 216.866 223.092 217.883 224.784" stroke="#303030" stroke-width="1.5" stroke-miterlimit="10" stroke-linecap="round" stroke-linejoin="round"/>
<path d="M212.962 222.197C214.895 222.115 217.629 222.676 222.245 223.459" stroke="#303030" stroke-width="1.5" stroke-miterlimit="10" stroke-linecap="round" stroke-linejoin="round"/>
<path d="M218.338 218.679C219.84 219.502 220.55 220.335 221.567 222.027" stroke="#303030" stroke-width="1.5" stroke-miterlimit="10" stroke-linecap="round" stroke-linejoin="round"/>
<path d="M216.777 219.655C218.71 219.574 221.445 220.134 226.06 220.918" stroke="#303030" stroke-width="1.5" stroke-miterlimit="10" stroke-linecap="round" stroke-linejoin="round"/>
<path d="M222.072 215.729C223.574 216.552 224.496 218.009 225.513 219.701" stroke="#303030" stroke-width="1.5" stroke-miterlimit="10" stroke-linecap="round" stroke-linejoin="round"/>
<path d="M220.592 217.113C222.526 217.032 225.26 217.592 229.876 218.376" stroke="#303030" stroke-width="1.5" stroke-miterlimit="10" stroke-linecap="round" stroke-linejoin="round"/>
<path d="M246.879 223.039C246.445 223.649 245.898 224.161 245.199 224.521C243.802 225.24 242.12 225.385 240.619 224.917C238.256 224.179 236.437 222.034 233.987 221.677C232.204 221.417 230.442 222.164 228.823 222.954C225.832 224.413 221.139 227.136 220.533 228.063C219.927 228.989 219.431 231.884 218.953 234.675" stroke="#303030" stroke-width="1.5" stroke-miterlimit="10" stroke-linecap="round" stroke-linejoin="round"/>
<path d="M199.089 238.151C201.291 238.747 213.468 238.677 213.468 238.677C213.468 238.677 233.719 238.7 238.351 238.706C242.983 238.712 245.448 238.567 246.631 236.934C247.328 235.971 247.714 234.422 247.516 231.944C245.59 233.64 246.081 234.123 238.166 234.113C230.251 234.104 210.936 234.142 206.74 234.076C203.819 234.03 199.276 234.418 197.393 232.41C196.701 233.332 195.729 237.241 199.089 238.151Z" fill="white" stroke="#303030" stroke-width="1.5" stroke-miterlimit="10" stroke-linecap="round" stroke-linejoin="round"/>
<path d="M298.856 152.653L260.167 150.275L256.678 149.996C256.678 149.996 238.491 147.568 231.214 151.843C226.606 154.55 224.153 161.509 224.469 167.185C224.785 172.86 224.809 183.052 224.651 186.845C224.491 190.638 223.759 192.378 227.032 194.678C230.304 196.977 239.344 198.301 245.492 195.991C249.12 194.629 248.293 189.58 248.679 184.333C249.12 178.351 249.204 174.944 249.204 174.944C249.204 174.944 262.115 179.827 268.551 179.827C274.033 179.827 279.805 179.486 284.349 179.486C294.304 179.485 302.354 170.678 298.856 152.653Z" fill="#4753BA"/>
<path d="M227.032 194.677L227.334 199.628C230.607 201.927 238.779 202.945 244.927 200.636L245.492 195.991C239.344 198.299 230.305 196.977 227.032 194.677Z" fill="#303030"/>
<path d="M258.172 151.569C258.713 145.28 261.849 133.387 261.849 133.387H293.831C293.831 133.387 297.737 145.619 298.92 153.054L258.172 151.569Z" fill="#4753BA"/>
<path d="M283.972 152.509C273.665 151.464 259.466 149.279 237.086 149.695" stroke="#303030" stroke-width="1.5" stroke-miterlimit="10" stroke-linecap="round" stroke-linejoin="round"/>
<path d="M260.167 141.634C259.444 144.685 258.873 147.177 258.765 150.163" stroke="#303030" stroke-width="1.5" stroke-miterlimit="10" stroke-linecap="round" stroke-linejoin="round"/>
<path d="M245.197 162.666C247.237 166.482 248.6 170.658 249.204 174.943" stroke="#303030" stroke-width="1.5" stroke-miterlimit="10" stroke-linecap="round" stroke-linejoin="round"/>
<path d="M276.801 137.333C267.501 136.68 263.357 135.286 261.493 134.085C258.701 132.285 259.351 129.716 260.177 127.677C261.004 125.639 259.41 117.42 260.077 110.452C260.777 103.137 268.413 95.5427 268.413 95.5427L275.202 95.0562C275.202 95.0562 270.759 99.5808 276.114 100.24C282.078 100.974 286.947 95.6269 286.947 95.6269C286.947 95.6269 292.875 98.525 295.332 101.076C298.171 104.023 299.486 106.188 298.014 113.113C296.542 120.038 294.434 127.734 295.252 130.135C296.069 132.535 296.474 135.158 293.68 136.316C290.886 137.474 286.101 137.985 276.801 137.333Z" fill="#303030" stroke="#303030" stroke-width="1.5" stroke-miterlimit="10" stroke-linecap="round" stroke-linejoin="round"/>
<path d="M260.178 127.677C261.004 125.639 259.411 117.42 260.077 110.452C260.402 107.061 262.217 103.61 264.07 100.884" stroke="#4753BA" stroke-width="1.5" stroke-miterlimit="10" stroke-linecap="round" stroke-linejoin="round"/>
<path d="M227.231 84.9146L230.199 92.1599L224.833 97.4725L222.729 97.3653L226.14 85.1554L227.231 84.9146Z" fill="white" stroke="#303030" stroke-width="1.5" stroke-miterlimit="10" stroke-linecap="round" stroke-linejoin="round"/>
<path d="M235.29 87.1196L224.833 97.4726L247.262 106.252L235.29 87.1196Z" fill="white" stroke="#303030" stroke-width="1.5" stroke-miterlimit="10" stroke-linecap="round" stroke-linejoin="round"/>
<path d="M241.719 117.937C246.468 115.296 251.218 112.655 255.968 110.013L240.914 88.6336C236.165 91.2749 231.414 93.9162 226.665 96.5575L224.267 96.4218L227.231 84.9155L225.766 85.2385L222.729 97.3656L237.22 117.946L241.719 117.937Z" fill="#F55571" stroke="#303030" stroke-width="1.5" stroke-miterlimit="10" stroke-linecap="round" stroke-linejoin="round"/>
<path d="M226.665 96.5571L241.569 118.14" stroke="#303030" stroke-width="1.5" stroke-miterlimit="10" stroke-linecap="round" stroke-linejoin="round"/>
<path d="M231.309 98.6899L241.042 93.2778L251.324 107.881L241.591 113.293L231.309 98.6899Z" stroke="white" stroke-width="1.5" stroke-miterlimit="10" stroke-linecap="round" stroke-linejoin="round"/>
<path d="M240.182 106.723C240.991 106.471 241.433 106.755 241.867 107.282C241.922 107.348 242.034 107.522 242.147 107.726C242.361 107.497 242.679 107.328 242.864 107.275C243.421 107.117 243.762 107.222 244.107 107.547C244.861 108.258 245.368 109.377 245.917 110.239C246.723 111.503 247.587 112.73 248.506 113.914C248.61 114.049 248.92 114.357 249.348 114.195C249.895 113.987 250.743 113.482 251.324 113.201C251.324 113.201 252.475 115.663 252.846 116.533C253.149 117.243 253.378 118.776 254.021 119.242C258.573 122.406 269.988 126.176 269.991 126.169L273.843 119.244C276.145 123.154 279.724 127.408 286.612 128.969C286.612 128.969 284.684 132.206 282.15 135.857C280.501 138.233 278.638 140.47 276.2 141.324C273.423 142.297 271.396 141.734 267.126 139.616C260.861 136.51 254.987 132.658 249.272 128.627C246.326 126.55 243.575 124.155 241.279 121.369C240.12 119.963 239.08 118.455 238.214 116.849C237.603 115.715 236.484 114.145 236.602 112.784C236.665 112.052 236.994 111.721 237.7 111.521C237.474 110.658 237.467 110.322 237.689 109.691C237.911 109.061 238.69 108.776 239.204 108.774C238.913 107.363 239.851 106.826 240.182 106.723Z" fill="#FFC4B0"/>
<path d="M273.843 119.244C277.395 125.663 282.751 128.134 286.948 129.045" stroke="#303030" stroke-width="1.5" stroke-miterlimit="10" stroke-linecap="round" stroke-linejoin="round"/>
<path d="M273.843 119.244C281.146 104.322 290.269 100.093 294.366 103.593C299.699 108.149 296.934 114.15 286.948 129.045" stroke="#4753BA" stroke-width="1.5" stroke-miterlimit="10" stroke-linecap="round" stroke-linejoin="round"/>
<path d="M285.764 97.085C288.772 98.9482 292.382 101.692 294.366 103.593" stroke="#4753BA" stroke-width="1.5" stroke-miterlimit="10" stroke-linecap="round" stroke-linejoin="round"/>
<path d="M255.02 119.883C255.339 121.785 252.054 126.087 247.661 127.444L250.627 129.578C254.669 128.435 258.313 124.201 257.968 121.453C256.88 120.918 255.87 120.391 255.02 119.883Z" fill="#303030"/>
<path d="M274.15 128.711C272.91 127.096 271.219 126.483 269.99 126.169" stroke="#303030" stroke-width="1.5" stroke-miterlimit="10" stroke-linecap="round" stroke-linejoin="round"/>
<path d="M242.812 107.304C242.387 107.413 242.101 107.883 242.071 108.32C242.041 108.758 242.097 109.153 242.259 109.561C243.101 111.686 244.188 113.712 245.493 115.589" stroke="#303030" stroke-width="1.5" stroke-miterlimit="10" stroke-linecap="round" stroke-linejoin="round"/>
<path d="M239.204 108.775C239.892 111.533 241.193 113.972 243.251 116.679" stroke="#303030" stroke-width="1.5" stroke-miterlimit="10" stroke-linecap="round" stroke-linejoin="round"/>
<path d="M237.627 111.167C238.41 113.538 239.972 116.219 241.569 118.14" stroke="#303030" stroke-width="1.5" stroke-miterlimit="10" stroke-linecap="round" stroke-linejoin="round"/>
<path d="M59.584 187.007C59.584 211.336 71.0374 215.081 77.6563 215.926C84.2753 216.772 92.731 221.169 101.864 223.198C110.997 225.227 117.168 226.183 117.168 226.183C117.168 226.183 108.048 232.854 103.023 242.021C100.009 247.521 91.8958 259.69 87.1344 266.395C85.0757 269.294 83.4582 270.982 83.4582 270.982L98.4737 276.001C98.4737 276.001 117.847 256.347 126.936 246.03C136.026 235.714 141.018 228.649 142.709 224.422C144.401 220.194 146.849 209.501 135.18 202.905C123.511 196.309 98.3122 187.008 98.3122 187.008H59.584V187.007Z" fill="#FFC4B0"/>
<path d="M76.7611 216.799C76.7611 216.799 87.9868 220.165 91.1147 221.237C96.2212 222.988 111.192 226.302 115.038 226.442C110.595 230.045 102.831 238.129 95.5948 254.151C95.5948 254.151 101.198 260.098 109.511 264.851C118.944 255.624 133.329 240.236 138.362 233.106C143.395 225.975 145.473 219.613 144.634 214.58C143.795 209.546 141.063 203.773 127.996 197.838C116.198 192.48 92.0835 183.84 92.0835 183.84V180.064H39.1659C39.1659 180.064 33.2499 204.877 76.7611 216.799Z" fill="#303030" stroke="#303030" stroke-width="1.5" stroke-miterlimit="10" stroke-linecap="round" stroke-linejoin="round"/>
<path d="M96.8759 249.231C96.8759 249.231 98.2895 253.973 102.88 257.696C107.469 261.419 112.816 261.98 112.816 261.98L108.912 265.703C108.912 265.703 105.451 265.916 99.9439 261.541C95.3823 257.918 94.7705 254.28 94.7705 254.28L96.8759 249.231Z" fill="#1E2351" stroke="#303030" stroke-width="1.5" stroke-miterlimit="10" stroke-linecap="round" stroke-linejoin="round"/>
<path d="M127.328 217.343C121.893 219.786 118.414 223.23 115.038 226.442" stroke="#804EE6" stroke-width="1.5" stroke-miterlimit="10" stroke-linecap="round" stroke-linejoin="round"/>
<path d="M122.435 220.104C122.435 223.729 116.203 229.482 112.176 234.635C107.83 240.195 101.409 250.337 98.4741 256.754" stroke="#804EE6" stroke-width="1.5" stroke-miterlimit="10" stroke-linecap="round" stroke-linejoin="round"/>
<path d="M71.4243 205.16C84.5926 207.2 95.5644 209.409 107.208 211.945C115.038 213.651 123.719 216.119 123.719 219.255" stroke="#804EE6" stroke-width="1.5" stroke-miterlimit="10" stroke-linecap="round" stroke-linejoin="round"/>
<path d="M84.4219 269.45C88.5346 268.384 91.3276 268.342 92.8136 268.846C93.7838 269.175 94.5425 270.238 94.5425 270.238C94.5425 270.238 97.0662 268.756 98.8375 269.999C101.868 272.125 99.9866 272.569 101.939 273.983C104.071 275.527 109.959 277.227 109.959 280.502C102.495 278.164 97.8958 275.35 92.5651 276.839C87.2338 278.328 83.1211 278.702 77.0283 276.839L84.4219 269.45Z" fill="#804EE6"/>
<path d="M77.0278 276.839C74.8646 278.334 74.1338 280.841 74.1338 280.841C74.1338 280.841 77.1043 280.841 79.9217 281.907C82.7398 282.973 85.2531 283.506 87.3856 281.907C89.5182 280.307 90.2037 278.914 97.0579 279.268C103.912 279.623 108.503 283.068 109.084 284.829C109.942 287.427 108.406 289.066 106.273 290.742C110.233 287.619 111.051 284.373 110.69 282.212C110.329 280.051 107.306 276.839 101.48 275.632C98.6727 275.051 95.3848 274.667 92.1184 275.671C88.5834 276.757 86.2922 278.184 84.5529 278.098C81.8747 277.967 79.7672 277.02 77.0278 276.839Z" fill="white" stroke="#303030" stroke-width="1.5" stroke-miterlimit="10" stroke-linecap="round" stroke-linejoin="round"/>
<path d="M74.1336 280.84C74.1336 280.84 77.1042 280.84 79.9216 281.907C82.7397 282.973 85.2529 283.506 87.3855 281.907C89.518 280.307 90.2036 278.914 97.0578 279.268C103.912 279.622 108.588 283.042 109.084 284.829C109.958 287.974 108.405 289.066 106.273 290.742C103.154 292.593 96.4237 292.763 92.602 291.398C87.5295 289.585 83.9785 289.036 80.1095 287.68C76.2411 286.322 73.3973 282.895 74.1336 280.84Z" fill="#303030" stroke="#303030" stroke-width="1.5" stroke-miterlimit="10" stroke-linecap="round" stroke-linejoin="round"/>
<path d="M94.5425 270.237C96.073 272.106 97.5374 274.332 99.7402 275.322" stroke="#303030" stroke-width="1.5" stroke-miterlimit="10" stroke-linecap="round" stroke-linejoin="round"/>
<path d="M81.4492 272.779C83.2804 273.982 84.2583 275.538 84.4218 277.748" stroke="#303030" stroke-width="1.5" stroke-miterlimit="10" stroke-linecap="round" stroke-linejoin="round"/>
<path d="M38.2701 187.007C34.0885 202.621 38.3877 209.698 41.6638 213.552C43.9509 216.243 53.1074 224.286 55.2525 226.871C57.3976 229.457 60.9228 236.292 67.2829 244.462C73.0806 251.909 103.494 274.026 109.405 281.029L119.942 272.471C119.942 272.471 94.635 240.868 90.8808 235.829C87.1265 230.79 80.9043 225.676 78.7585 222.58C76.6134 219.483 75.6217 215.844 72.9142 210.142C68.9755 201.847 63.3602 187.007 63.3602 187.007H38.2701Z" fill="#FFC4B0"/>
<path d="M67.2827 244.463C73.0804 251.909 103.494 274.027 109.405 281.029" stroke="#303030" stroke-width="1.5" stroke-miterlimit="10" stroke-linecap="round" stroke-linejoin="round"/>
<path d="M105.174 272.75C103.146 274.042 103.788 277.22 104.384 278.156C104.98 279.092 106.645 279.918 107.919 281.782C109.193 283.646 109.006 286.659 110.981 288.866C112.217 285.132 113.88 282.423 117.405 279.215C121.637 275.362 126.637 275.436 126.637 275.436C124.168 273.28 122.957 273.016 121.456 271.666C119.507 269.913 119.106 267.404 117.332 266.34C115.559 265.276 111.705 265.34 111.529 266.855C111.529 266.855 109.947 265.826 106.8 268.483C104.066 270.792 105.174 272.75 105.174 272.75Z" fill="#804EE6"/>
<path d="M110.98 288.865C112.217 285.131 113.88 282.423 117.405 279.215C121.637 275.362 126.637 275.436 126.637 275.436C128.123 276.59 129.033 277.656 129.689 278.683C129.689 278.683 124.688 278.609 120.457 282.462C116.932 285.67 115.269 288.378 114.032 292.112C113.053 291.506 112.041 290.489 110.98 288.865Z" fill="white" stroke="#303030" stroke-width="1.5" stroke-miterlimit="10" stroke-linecap="round" stroke-linejoin="round"/>
<path d="M114.033 292.113C115.269 288.378 116.932 285.67 120.457 282.462C124.689 278.609 129.689 278.683 129.689 278.683C130.384 278.835 127.766 283.166 123.257 287.238C118.749 291.309 114.292 292.939 114.033 292.113Z" fill="#303030" stroke="#303030" stroke-width="1.5" stroke-miterlimit="10" stroke-linecap="round" stroke-linejoin="round"/>
<path d="M112.128 268.342C113.865 271.639 117.104 274.106 120.744 274.903" stroke="#303030" stroke-width="1.5" stroke-miterlimit="10" stroke-linecap="round" stroke-linejoin="round"/>
<path d="M106.628 273.444C109.326 275.941 112.551 278.382 112.149 282.49" stroke="#303030" stroke-width="1.5" stroke-miterlimit="10" stroke-linecap="round" stroke-linejoin="round"/>
<path d="M119.282 272.834C115.578 274.305 112.492 277.236 110.512 280.491" stroke="white" stroke-width="1.5" stroke-miterlimit="10" stroke-linecap="round" stroke-linejoin="round"/>
<path d="M117.421 270.982C113.717 272.453 110.632 275.385 108.652 278.64" stroke="white" stroke-width="1.5" stroke-miterlimit="10" stroke-linecap="round" stroke-linejoin="round"/>
<path d="M115.21 268.727C111.505 270.198 108.42 273.129 106.44 276.384" stroke="white" stroke-width="1.5" stroke-miterlimit="10" stroke-linecap="round" stroke-linejoin="round"/>
<path d="M92.0849 235.422C88.1017 231.088 82.2275 224.524 80.2696 222.287C78.3125 220.05 76.7604 216.799 76.7604 216.799L70.0161 200.388C81.647 196.053 87.9249 188.663 92.0849 180.064H39.1659C35.5307 190.48 34.9934 200.525 37.2408 207.632C39.3023 214.152 44.4521 219.801 47.5277 222.457C50.6033 225.114 51.7823 228.255 54.7278 232.182C58.5182 237.235 61.6579 240.665 66.3809 245.359C72.1403 251.085 91.565 266.394 91.565 266.394C97.4873 264.778 102.367 260.073 105.609 253.987C105.609 253.987 96.0681 239.756 92.0849 235.422Z" fill="#303030"/>
<path d="M41.7419 180.417C41.2561 185.324 40.8392 190.238 40.4905 195.157C40.3631 196.957 40.2448 198.761 40.2768 200.566C40.4264 208.885 43.4965 217.342 49.8259 224.517" stroke="#804EE6" stroke-width="1.5" stroke-miterlimit="10" stroke-linecap="round" stroke-linejoin="round"/>
<path d="M53.7222 192.324C56.2006 192.386 62.1939 193.929 67.5545 198.932C69.6286 200.868 70.8674 203.522 72.068 206.092C73.7231 209.635 75.2745 213.227 76.7194 216.862" stroke="#804EE6" stroke-width="1.5" stroke-miterlimit="10" stroke-linecap="round" stroke-linejoin="round"/>
<path d="M87.6567 263.893L91.855 267.182C91.855 267.182 96.4535 265.882 100.432 262.134C104.409 258.386 106.095 253.489 106.095 253.489L102.804 248.653C102.804 248.653 102.497 252.937 97.5239 257.917C92.5524 262.899 87.6567 263.893 87.6567 263.893Z" fill="#1E2351" stroke="#303030" stroke-width="1.5" stroke-miterlimit="10" stroke-linecap="round" stroke-linejoin="round"/>
<path d="M54.4428 98.6339C54.0517 105.577 59.5939 113.491 66.8636 113.901C74.1334 114.311 80.3772 107.061 80.7683 100.118C81.1595 93.1745 75.5838 87.214 68.3141 86.804C61.0451 86.3941 54.8347 91.6906 54.4428 98.6339Z" fill="#D48983"/>
<path d="M59.2044 111.072C59.1787 112.581 59.6756 114.002 60.6862 115.103L60.1482 123.497L56.1441 122.968C57.3294 124.176 61.5771 135 68.6345 135.12C76.4408 135.253 76.7749 128.634 77.5238 124.067L73.2845 123.792L73.1307 119.439C73.9874 119.464 77.0645 118.92 78.6604 117.43C80.2563 115.941 81.4207 114.167 81.7708 110.911C82.1028 107.823 81.0985 105.09 80.9447 104.022C80.7902 102.955 81.395 102.083 81.3755 99.584C81.347 95.9168 79.3084 94.6167 79.3084 94.6167C77.5071 91.9183 72.3275 90.2896 66.3676 92.0296C62.4819 93.7063 60.888 95.598 60.2707 97.867C61.1922 99.8269 61.7246 100.183 61.5103 102.944C61.3905 104.849 60.9674 104.902 60.2665 103.987C59.3269 102.8 57.8834 101.764 56.3258 101.698C54.2969 101.611 52.8924 102.738 52.5646 104.196C52.1762 105.924 53.2891 107.239 54.6762 107.879C56.0634 108.52 57.9279 108.594 59.2594 107.804C59.2594 107.804 59.2302 109.562 59.2044 111.072Z" fill="#FFCCCC"/>
<path d="M60.2715 97.8671L55.4023 94.8458C55.4023 94.8458 55.2067 90.154 58.3346 87.661C59.6542 86.6086 61.2759 86.0553 62.9616 85.8124C64.6132 85.5744 66.4186 85.6732 67.8955 84.8129C68.7384 84.3223 69.4045 83.4766 69.4406 82.5308C70.3914 83.066 71.1277 83.9436 71.4674 84.9473C72.2462 84.2227 73.2394 83.684 74.3182 83.5448C76.5816 83.2525 79.4025 84.8735 78.6974 87.3527C79.9906 86.9998 82.2129 87.1543 83.7017 88.934C84.4582 89.8381 84.7784 91.0888 84.7359 92.2427C84.145 91.1452 83.0767 90.1707 81.464 90.2466C84.7471 92.0861 84.4485 96.2308 81.8983 97.2331C80.482 97.7899 78.7503 97.0375 77.8379 96.6046C76.9254 96.1717 76.0958 95.5968 75.2251 95.0922C73.064 93.8401 70.6231 93.0188 68.1148 92.7808C67.5969 92.732 62.4827 92.565 60.2715 97.8671Z" fill="#303030"/>
<path d="M73.1305 119.439C69.8815 119.306 66.2261 118.545 64.0581 117.214C64.6365 118.604 67.0892 120.829 73.2112 121.725L73.1305 119.439Z" fill="#303030"/>
<path d="M74.1641 102.643C74.5009 101.756 75.4078 101.35 76.3913 101.325C77.374 101.299 78.7653 101.607 78.9491 102.99C78.5127 104.348 75.3855 104.597 74.1641 102.643Z" fill="white"/>
<path d="M77.589 103.787C77.1046 104.244 76.3223 104.205 75.8407 103.702C75.3597 103.199 75.3618 102.42 75.8462 101.963C76.3307 101.507 77.113 101.545 77.5939 102.048C78.0762 102.552 78.0734 103.33 77.589 103.787Z" fill="#303030"/>
<path d="M75.7774 101.901L76.7184 102.875L75.3813 102.471L75.7774 101.901Z" fill="white"/>
<path d="M79.121 102.743C78.5649 101.708 77.4575 101.408 76.4748 101.434C75.4913 101.46 74.4592 102.022 74.1641 102.643" stroke="#303030" stroke-width="1.5" stroke-miterlimit="10" stroke-linecap="round" stroke-linejoin="round"/>
<path d="M75.1714 98.3728C76.6845 98.116 78.959 98.5921 79.8478 99.6855" stroke="#303030" stroke-width="1.5" stroke-miterlimit="10" stroke-linecap="round" stroke-linejoin="round"/>
<path d="M64.3164 101.982C64.6762 101.104 65.5936 100.723 66.5777 100.722C67.5612 100.722 68.9434 101.067 69.0917 102.454C68.6191 103.801 65.4871 103.967 64.3164 101.982Z" fill="white"/>
<path d="M67.7107 103.146C67.2242 103.6 66.4418 103.558 65.963 103.052C65.4841 102.546 65.4904 101.768 65.9769 101.314C66.4634 100.86 67.2457 100.902 67.7246 101.408C68.2034 101.914 68.1972 102.692 67.7107 103.146Z" fill="#303030"/>
<path d="M65.9083 101.252L66.8437 102.231L65.5088 101.82L65.9083 101.252Z" fill="white"/>
<path d="M69.2691 102.211C68.7402 101.163 67.6412 100.834 66.6578 100.834C65.6743 100.834 64.6275 101.369 64.3164 101.982" stroke="#303030" stroke-width="1.5" stroke-miterlimit="10" stroke-linecap="round" stroke-linejoin="round"/>
<path d="M63.0127 98.6758C64.2251 97.5726 66.5219 97.1 68.1972 97.6568" stroke="#303030" stroke-width="1.5" stroke-miterlimit="10" stroke-linecap="round" stroke-linejoin="round"/>
<path d="M71.6377 99.8647C71.9752 102.423 72.9427 104.049 73.5113 105.344C73.947 106.338 73.9456 108.036 71.4922 108.068" stroke="#303030" stroke-width="1.5" stroke-miterlimit="10" stroke-linecap="round" stroke-linejoin="round"/>
<path d="M54.7256 104.21C55.0938 103.955 55.9965 103.762 56.9048 104.009C57.8137 104.257 58.5647 104.973 58.8271 105.84" stroke="#303030" stroke-width="1.5" stroke-miterlimit="10" stroke-linecap="round" stroke-linejoin="round"/>
<path d="M56.2744 105.203C56.5459 105.017 57.4987 104.544 58.4244 105.049" stroke="#303030" stroke-width="1.5" stroke-miterlimit="10" stroke-linecap="round" stroke-linejoin="round"/>
<path d="M57.2208 108.381C57.1741 109.027 56.6131 109.512 55.968 109.466C55.3221 109.419 54.837 108.858 54.8829 108.213C54.9295 107.567 55.4905 107.082 56.1357 107.129C56.7816 107.175 57.2667 107.736 57.2208 108.381Z" fill="#303030"/>
<path d="M73.7355 111.149C71.7735 111.805 69.0146 111.112 68.0005 109.939" stroke="#303030" stroke-width="1.5" stroke-miterlimit="10" stroke-linecap="round" stroke-linejoin="round"/>
<path d="M102.565 138.864C99.8426 131.497 95.2796 131.717 91.6514 130.617V160.416L97.1887 179.196C97.1887 179.196 112.659 178.885 112.2 175.927C111.577 171.919 105.287 146.231 102.565 138.864Z" fill="#FFCCCC"/>
<path d="M93.1527 129.153C99.196 131.302 102.33 132.174 105.032 143.193C107.734 154.212 112.137 170.836 112.799 172.197C113.462 173.558 113.462 175.827 111.732 176.583C110.004 177.34 96.9807 179.825 96.9807 179.825L90.6603 160.48L90.3081 128.153L93.1527 129.153Z" fill="#1E2351"/>
<path d="M68.6355 134.118C65.5668 132.186 61.441 128.72 58.4252 123.305C58.4252 123.305 47.1841 124.814 38.2001 128.573C38.2001 128.573 37.2257 135.737 38.5453 146.387C39.6074 154.959 40.5498 159.544 40.0856 166.037C39.8295 169.623 38.3811 177.968 37.8535 186.746C38.9817 189.576 48.4341 199.158 76.5059 195.81C85.8775 194.692 93.2558 190.22 95.2846 186.927C95.863 182.896 94.5434 169.451 94.3924 160.165C94.2413 150.878 95.2791 140.737 92.0893 129.715C88.1562 128.475 74.2564 124.055 74.2564 124.055C73.5347 126.413 71.2204 132.122 68.6355 134.118Z" fill="white" stroke="#303030" stroke-width="1.5" stroke-miterlimit="10" stroke-linecap="round" stroke-linejoin="round"/>
<path d="M59.5653 123.765C57.2532 126.092 56.0519 131.28 57.2239 145.531C58.1225 156.461 58.8749 174.16 58.8749 179.9C58.8749 185.793 59.154 196.51 59.154 196.51C59.154 196.51 42.2954 201.525 37.9225 205.842C38.6623 209.574 39.6388 213.393 42.4019 217.013C34.9819 217.063 32.0844 215.628 30.975 211.585C29.8656 207.542 33.0707 199.652 35.4134 187.694C37.7554 175.735 39.3075 166.131 37.8536 154.906C36.3996 143.681 37.2996 133.217 39.1864 127.3L59.5103 120.838L59.5653 123.765Z" fill="#1E2351"/>
<path d="M42.4019 217.012C39.6387 213.392 38.6623 209.574 37.9224 205.842C36.7483 207.002 35.7669 208.257 35.1662 209.575C32.3314 215.802 42.3998 217.012 42.4019 217.012Z" fill="#303030"/>
<path d="M60.4514 118.776C58.4253 118.776 56.7772 119.469 53.822 120.893C50.6183 122.437 44.9424 125.493 44.9424 125.493C44.9424 125.493 50.0663 125.808 52.011 126.606C54.8806 127.785 54.3781 131.876 54.4247 133.777C54.5521 138.985 56.3895 139.642 57.105 143.956C57.105 143.956 57.2087 134.234 57.9638 130.617C58.7984 126.618 60.1493 123.497 60.1493 123.497L60.4514 118.776Z" fill="#303030"/>
<path d="M73.2849 122.344L93.1529 129.153C93.1529 129.153 94.6883 132.422 95.2646 139.596C95.4566 141.987 95.5429 144.813 95.4295 148.096C94.9778 161.226 95.1177 167.917 95.7524 174.327C96.3872 180.737 97.2572 187.651 97.2572 187.651C97.2572 187.651 93.1494 193.598 88.4723 194.677C88.4723 194.677 82.3774 184.638 81.8373 168.544C81.2791 151.905 80.7376 144.94 80.288 136.218C79.8384 127.497 73.2842 123.793 73.2842 123.793L73.2849 122.344Z" fill="#1E2351"/>
<path d="M95.1172 138.02C95.4074 140.716 95.5689 144.061 95.4304 148.095C94.9787 161.226 95.1186 167.917 95.7533 174.327C96.3881 180.737 97.2581 187.651 97.2581 187.651" stroke="#303030" stroke-width="1.5" stroke-miterlimit="10" stroke-linecap="round" stroke-linejoin="round"/>
<path d="M80.6145 142.126C81.6076 138.722 82.564 136.826 82.8591 134.833C83.1542 132.84 82.5076 129.258 83.205 128.154C84.2357 126.522 88.3366 127.502 88.3366 127.502C88.3366 127.502 83.7325 124.238 80.1955 122.191C77.5117 120.637 73.1304 119.439 73.1304 119.439L73.2842 123.792C73.2842 123.792 79.9567 130.152 80.6145 142.126Z" fill="#303030"/>
<path d="M103.225 201.041C103.225 201.041 109.267 191.287 110.627 187.883C111.989 184.48 112.82 178.983 112.2 175.928C110.755 168.813 98.3353 172.985 97.189 179.196C96.0427 185.407 92.9302 196.476 92.9302 196.476L103.225 201.041Z" fill="#FFCCCC"/>
<path d="M96.8555 180.882L97.1889 179.196C97.1889 179.196 100.227 175.613 105.269 175.613C110.311 175.613 112.41 178.638 112.41 178.638C112.41 178.638 112.325 180.678 112.165 181.721C113.672 181.09 115.342 179.78 114.57 177.946C113.405 175.174 114.54 174.594 112.409 172.713C111.069 171.529 106.344 169.655 101.302 172.197C96.2604 174.739 95.0967 177.413 96.8555 180.882Z" fill="#1E2351"/>
<path d="M112.409 172.713C111.069 171.53 106.344 169.656 101.302 172.198C96.2606 174.74 95.0976 177.413 96.8557 180.882" stroke="#303030" stroke-width="1.5" stroke-miterlimit="10" stroke-linecap="round" stroke-linejoin="round"/>
<path d="M48.6708 204.649C46.7025 204.649 45.7824 203.14 43.7556 200.745C41.7282 198.349 38.9644 195.032 38.9644 195.032V193.726H74.2564L82.8256 203.344V204.65L48.6708 204.649Z" fill="#303030"/>
<path d="M48.6708 203.343C46.7025 203.343 45.7824 201.834 43.7556 199.439C41.7282 197.043 38.9644 193.726 38.9644 193.726H74.2564L82.8256 203.344H48.6708V203.343Z" fill="#804EE6"/>
<path d="M64.4294 192.466C61.4032 190.412 53.6915 190.041 51.5318 189.36C47.2598 188.014 38.8326 175.94 37.2255 173.353L43.7505 154.907C43.7505 154.907 43.8181 136.556 38.9642 129.221C35.3498 130.667 32.5603 130.357 28.7378 139.448C24.9154 148.54 19.8346 166.413 18.7593 170.855C17.684 175.297 17.9401 177.189 19.8534 179.899C21.7667 182.609 23.4482 184.722 31.2267 190.121C37.014 194.137 41.1754 196.85 45.9151 198.224C50.6549 199.597 55.183 198.34 57.6685 200.077C60.1539 201.814 63.4578 201.237 67.132 200.398C70.8055 199.559 67.4556 194.519 64.4294 192.466Z" fill="#FFCCCC"/>
<path d="M39.1863 127.3C32.1727 129.221 30.2433 132.362 27.8568 138.582C25.4702 144.802 20.3434 161.155 18.9292 164.248C17.5149 167.342 14.9787 169.972 16.631 171.585C15.1283 173.264 16.2774 176.49 16.8962 177.573C17.5149 178.656 18.664 181.701 19.6363 182.61C20.6086 183.518 22.2672 182.928 22.2672 182.928L20.7854 181.309C20.7854 181.309 22.3424 176.536 26.558 173.795C30.7737 171.055 35.4466 171.728 37.2256 173.353L37.8534 174.322C37.8534 174.322 40.6541 174.601 38.9642 170.972C38.9642 170.972 43.4138 159.005 44.5629 155.263C45.0187 153.778 46.0405 149.077 45.54 143.957C44.78 136.177 43.6636 127.311 39.1863 127.3Z" fill="#1E2351"/>
<path d="M37.8535 174.322C37.8535 174.322 40.6542 174.601 38.9643 170.972C38.9643 170.972 43.4139 159.005 44.563 155.263C45.0188 153.778 46.0406 149.077 45.5401 143.957" stroke="#303030" stroke-width="1.5" stroke-miterlimit="10" stroke-linecap="round" stroke-linejoin="round"/>
<path d="M17.6201 170.407C20.7131 167.745 24.7492 166.2 28.8299 166.119C32.0712 166.054 37.2257 167.531 38.9643 170.972" stroke="#303030" stroke-width="1.5" stroke-miterlimit="10" stroke-linecap="round" stroke-linejoin="round"/>
<path d="M28.7837 164.09C32.4579 164.259 37.6528 167.531 38.9641 170.972" stroke="#303030" stroke-width="1.5" stroke-miterlimit="10" stroke-linecap="round" stroke-linejoin="round"/>
<path d="M97.0526 172.713H48.6709C47.9721 172.713 47.4062 173.279 47.4062 173.978V203.384C47.4062 204.083 47.9728 204.649 48.6709 204.649H97.0526C97.7514 204.649 98.3173 204.082 98.3173 203.384V173.978C98.3173 173.279 97.7514 172.713 97.0526 172.713Z" fill="#303030"/>
<path d="M98.4477 172.713H50.0659C49.3671 172.713 48.8013 173.279 48.8013 173.978V203.384C48.8013 204.083 49.3678 204.649 50.0659 204.649H98.4477C99.1464 204.649 99.7123 204.082 99.7123 203.384V173.978C99.7123 173.279 99.1457 172.713 98.4477 172.713Z" fill="#804EE6"/>
<path d="M78.9553 188.681C78.9553 190.276 77.4609 191.569 75.6165 191.569C73.7728 191.569 72.2778 190.276 72.2778 188.681C72.2778 187.087 73.7728 185.793 75.6165 185.793C77.4609 185.793 78.9553 187.086 78.9553 188.681Z" fill="white"/>
<path d="M99.7119 193.148C102.095 194.399 103.718 195.757 103.795 198.534C103.873 201.312 104.597 203.419 102.951 204.077C103.017 206.184 102.44 207.606 100.223 207.566C99.7118 208.886 98.8975 209.421 97.2898 209.153C95.2554 210.035 92.9432 209.446 90.0256 208.2C87.7601 207.234 85.59 206.176 84.6671 204.649C84.1437 203.782 84.6414 201.954 86.1559 202.217C85.1028 200.045 87.3481 199.205 88.7304 199.929C90.1126 200.653 91.7587 201.575 91.7587 201.575C91.7587 201.575 89.4041 200.568 90.3917 198.979C91.0063 197.99 91.9173 198.14 94.551 198.942C97.1847 199.745 98.6456 199.63 99.7119 199.187V193.148Z" fill="#FFCCCC"/>
<path d="M99.7119 193.148C102.095 194.399 103.718 195.757 103.795 198.534C103.873 201.312 104.597 203.419 102.951 204.077" stroke="#303030" stroke-width="1.5" stroke-miterlimit="10" stroke-linecap="round" stroke-linejoin="round"/>
<path d="M90.7939 201.041C93.4951 202.786 95.4892 203.343 97.9899 204.037" stroke="#303030" stroke-width="1.5" stroke-miterlimit="10" stroke-linecap="round" stroke-linejoin="round"/>
<path d="M86.1553 202.217C88.9776 204.169 92.1395 206.113 95.4886 206.861" stroke="#303030" stroke-width="1.5" stroke-miterlimit="10" stroke-linecap="round" stroke-linejoin="round"/>
<path d="M119.03 160.459C119.614 160.147 120.214 160.68 120.687 161.37C121.029 161.869 121.364 162.372 121.7 162.875C121.831 163.072 122.483 164.422 122.852 164.025C122.92 163.952 122.91 163.838 122.895 163.739C122.616 161.836 121.819 160.031 121.727 158.095C121.709 157.695 121.721 157.286 121.849 156.908C121.977 156.528 122.237 156.179 122.603 156.017C122.97 155.856 123.445 155.921 123.703 156.228C123.79 155.834 123.976 155.445 124.301 155.205C125.341 154.44 126.224 155.681 126.57 156.515C126.947 157.425 127.094 158.397 127.378 159.335C127.732 160.499 127.978 161.187 128.118 161.585C128.258 161.984 128.436 162.387 128.638 162.342C128.84 162.297 128.839 162.18 128.79 161.697C128.556 159.39 128.494 159.007 128.234 156.966C128.083 155.777 127.968 155.226 128.216 154.491C128.392 153.969 129.269 153.791 129.693 154.264C130.364 155.013 130.416 156.005 130.69 157.274C131.025 158.829 131.457 161.564 131.911 163.408C132.159 164.417 132.465 164.635 132.68 164.669C133.134 164.74 133.439 163.602 133.538 163.119C133.689 162.383 133.795 161.611 134.203 160.962C134.495 160.499 135.283 160.11 135.76 160.549C135.874 160.654 135.94 160.802 135.986 160.951C136.215 161.69 136.025 162.702 136 163.474C135.969 164.397 135.902 165.318 135.799 166.236C135.658 167.503 135.5 168.748 135.488 170.134C135.476 171.519 136.103 173.19 136.583 174.085C138.611 177.87 140.551 180.483 143.08 183.935C143.084 183.642 146.888 179.824 149.801 176.792C155.433 170.929 156.812 169.484 162.444 168.012V186.843C162.444 186.843 151.878 194.636 147.731 197.053C143.583 199.47 138.621 201.167 134.853 194.619C130.611 187.246 129.118 180.289 127.93 177.858C126.741 175.427 125.049 173.117 123.574 170.717C122.949 169.699 122.032 167.874 121.467 166.832C120.449 164.953 119.209 162.712 118.904 162.124C118.646 161.623 118.448 160.771 119.03 160.459Z" fill="#D48983"/>
<path d="M130.455 166.532C129.07 167.735 128.553 169.838 129.221 171.547" stroke="#303030" stroke-width="1.5" stroke-miterlimit="10" stroke-linecap="round" stroke-linejoin="round"/>
<path d="M123.611 156.141C124.328 158.457 125.101 161.14 125.758 163.786" stroke="#303030" stroke-width="1.5" stroke-miterlimit="10" stroke-linecap="round" stroke-linejoin="round"/>
<path d="M127.441 182.524C127.948 183.044 128.582 183.374 129.296 183.533C129.556 183.591 129.835 183.625 130.113 183.638C131.902 183.715 134.005 182.86 135.698 181.2C136.973 179.944 137.831 178.419 138.127 176.903C138.134 176.869 138.143 176.83 138.143 176.795C138.419 175.246 138.062 173.892 137.156 172.961C136.773 172.575 136.313 172.283 135.788 172.096C135.95 172.658 136.154 173.186 136.358 173.624C136.382 173.643 136.399 173.661 136.423 173.68C136.794 174.057 137.037 174.538 137.142 175.102C137.238 175.585 137.236 176.124 137.121 176.707C136.863 178.022 136.103 179.358 134.981 180.466C133.339 182.082 131.297 182.852 129.732 182.588C129.124 182.487 128.586 182.234 128.175 181.814C127.226 180.853 127.154 179.262 127.822 177.652C127.639 177.276 127.441 176.909 127.222 176.539C126.057 178.743 126.059 181.124 127.441 182.524Z" fill="#303030"/>
<path d="M128.819 185.527C129.327 186.047 129.96 186.377 130.674 186.536C130.934 186.594 131.213 186.628 131.491 186.641C133.281 186.717 135.383 185.863 137.077 184.203C138.351 182.947 139.209 181.422 139.505 179.906C139.513 179.872 139.521 179.833 139.522 179.798C139.798 178.249 139.441 176.895 138.535 175.964C138.153 175.578 137.692 175.286 137.166 175.099C137.329 175.66 137.532 176.189 137.736 176.627C137.76 176.646 137.777 176.664 137.801 176.683C138.172 177.06 138.415 177.541 138.521 178.104C138.616 178.588 138.615 179.127 138.499 179.71C138.241 181.025 137.481 182.361 136.359 183.469C134.717 185.085 132.676 185.855 131.11 185.591C130.502 185.49 129.964 185.237 129.554 184.817C128.665 183.916 128.545 182.461 129.083 180.957C128.965 180.596 128.759 179.97 128.601 179.542C127.436 181.746 127.437 184.127 128.819 185.527Z" fill="#303030"/>
<path d="M143.085 183.942C144.098 185.71 144.571 187.895 144.633 189.747" stroke="#303030" stroke-width="1.5" stroke-miterlimit="10" stroke-linecap="round" stroke-linejoin="round"/>
<path d="M158.292 151.162C160.696 158.543 168.826 162.515 176.451 160.031C184.076 157.548 188.309 149.552 185.905 142.17C183.501 134.789 175.371 130.818 167.746 133.301C158.079 134.743 151.338 143.018 158.292 151.162Z" fill="#303030"/>
<path d="M188.323 137.777C188.318 137.797 188.314 137.817 188.31 137.837C190.103 138.079 191.759 139.538 191.892 141.392C191.938 142.029 191.83 142.67 191.658 143.286C191.246 144.754 190.443 146.132 189.264 147.098C188.085 148.064 186.516 148.587 185.007 148.372C183.994 148.228 183.052 147.769 182.173 147.245C181.012 146.553 180.096 145.607 179.138 144.667C178.199 143.744 177.478 142.596 177.069 141.343C176.475 139.523 176.543 137.494 177.26 135.718C178.238 133.29 180.628 131.333 183.245 131.404C184.801 131.447 186.322 132.211 187.285 133.434C188.236 134.641 188.624 136.271 188.323 137.777Z" fill="#303030"/>
<path d="M188.121 138.211C188.248 136.74 188.37 135.221 187.901 133.821C187.476 132.555 186.564 131.459 185.397 130.811C184.229 130.163 182.816 129.97 181.517 130.281C180.941 130.419 180.383 130.655 179.916 131.019C178.565 132.074 178.215 133.983 178.323 135.694" stroke="#303030" stroke-width="1.5" stroke-miterlimit="10" stroke-linecap="round" stroke-linejoin="round"/>
<path d="M185.566 137.029C186.512 136.585 187.62 136.745 188.644 136.951C189.615 137.145 190.617 137.394 191.373 138.032C191.994 138.556 192.39 139.299 192.678 140.058C192.882 140.593 193.039 141.152 193.076 141.723C193.182 143.366 192.201 145.004 190.742 145.768C189.284 146.531 187.433 146.426 186.02 145.582" stroke="#303030" stroke-width="1.5" stroke-miterlimit="10" stroke-linecap="round" stroke-linejoin="round"/>
<path d="M187.791 156.009C188.235 151.276 187.017 148.957 185.046 146.288" stroke="#303030" stroke-width="1.5" stroke-miterlimit="10" stroke-linecap="round" stroke-linejoin="round"/>
<path d="M185.157 146.285C187.297 147.327 189.063 149.115 190.08 151.267" stroke="#303030" stroke-width="1.5" stroke-miterlimit="10" stroke-linecap="round" stroke-linejoin="round"/>
<path d="M156.256 151.506C156.13 150.189 155.952 147.371 157.025 144.285C157.774 142.127 159.702 137.948 164.943 137.013C166.728 140.552 169.281 140.744 172.779 142.595C175.354 143.959 176.126 147.785 176.126 147.785C175.907 149.118 177.388 152.46 177.388 152.46L178.09 157.605L180.36 165.574L183.823 166.341C183.823 166.341 182.683 171.012 173.886 172.505C165.089 173.998 166.208 167.742 166.208 167.742L169.127 166.875L168.82 162.474C162.65 163.292 157.089 160.201 156.256 151.506Z" fill="#D48983"/>
<path d="M167.053 135C166.507 136.51 167.561 141.053 171.406 143.883C173.491 145.417 176.714 145.948 179.298 145.809" stroke="#303030" stroke-width="1.5" stroke-miterlimit="10" stroke-linecap="round" stroke-linejoin="round"/>
<path d="M175.42 148.932C175.974 147.331 177.103 145.825 178.713 145.154C180.324 144.482 182.42 144.855 183.346 146.249C184.261 147.626 183.785 149.608 182.557 150.798C181.329 151.988 179.342 152.693 177.233 152.36" fill="#D48983"/>
<path d="M175.42 148.932C175.974 147.331 177.103 145.825 178.713 145.154C180.324 144.482 182.42 144.855 183.346 146.249C184.261 147.626 183.785 149.608 182.557 150.798C181.329 151.988 179.342 152.693 177.233 152.36" stroke="#303030" stroke-width="1.5" stroke-miterlimit="10" stroke-linecap="round" stroke-linejoin="round"/>
<path d="M181.789 147.348C180.848 146.981 179.701 147.119 178.856 147.7C178.011 148.282 177.496 149.289 177.54 150.274" stroke="#303030" stroke-width="1.5" stroke-miterlimit="10" stroke-linecap="round" stroke-linejoin="round"/>
<path d="M180.323 148.896C179.923 148.708 179.453 148.685 179.007 148.754C178.561 148.823 178.129 149.004 177.739 149.196" stroke="#303030" stroke-width="1.5" stroke-miterlimit="10" stroke-linecap="round" stroke-linejoin="round"/>
<path d="M174.953 159.48C175.068 161.538 171.537 163.657 168.94 164.191L168.82 162.473C170.628 162.238 173.692 160.83 174.953 159.48Z" fill="#303030"/>
<path d="M168.273 154.037C167.46 155.397 165.045 156.285 163.476 155.779" stroke="#303030" stroke-width="1.5" stroke-miterlimit="10" stroke-linecap="round" stroke-linejoin="round"/>
<path d="M156.985 146.118C157.358 145.991 157.753 145.925 158.154 145.945C159.408 146.01 161.114 146.829 161.212 148.607C159.939 149.707 158.053 150.08 156.589 149.221C156.54 147.635 156.811 146.725 156.985 146.118Z" fill="white"/>
<path d="M157.427 148.363C157.763 149.123 158.705 149.461 159.495 149.182C160.353 148.878 160.81 147.969 160.514 147.15C160.257 146.438 159.447 146.028 158.715 146.124C157.835 146.239 157.145 147.223 157.338 148.091C157.36 148.187 157.39 148.277 157.427 148.363Z" fill="#303030"/>
<path d="M160.633 147.119L158.959 147.7L160.758 148.018L160.633 147.119Z" fill="white"/>
<path d="M161.212 148.608C160.582 147.058 159.442 146.561 158.348 146.323C157.799 146.203 157.306 146.185 156.83 146.295" stroke="#303030" stroke-width="1.5" stroke-miterlimit="10" stroke-linecap="round" stroke-linejoin="round"/>
<path d="M155.434 145.503C155.603 145.962 156.047 146.306 156.534 146.353" stroke="#303030" stroke-width="1.5" stroke-miterlimit="10" stroke-linecap="round" stroke-linejoin="round"/>
<path d="M160.499 142.741C159.617 142.787 158.349 143.162 157.538 144.244" stroke="#303030" stroke-width="1.5" stroke-miterlimit="10" stroke-linecap="round" stroke-linejoin="round"/>
<path d="M171.743 146.873C171.159 145.812 169.887 145.175 168.639 145.319C167.392 145.462 165.741 146.387 165.755 148.168C166.55 149.808 170.548 149.562 171.743 146.873Z" fill="white"/>
<path d="M167.637 147.779C168.049 148.615 169.095 148.949 169.973 148.523C170.851 148.098 171.229 147.076 170.817 146.24C170.405 145.404 169.359 145.071 168.481 145.496C167.603 145.92 167.225 146.944 167.637 147.779Z" fill="#303030"/>
<path d="M170.939 146.192L169.227 147.01L171.179 147.134L170.939 146.192Z" fill="white"/>
<path d="M165.755 148.169C166.286 146.583 167.392 146.015 168.468 145.708C169.649 145.371 170.599 145.536 171.715 146.448" stroke="#303030" stroke-width="1.5" stroke-miterlimit="10" stroke-linecap="round" stroke-linejoin="round"/>
<path d="M172.758 145.504C172.618 145.973 172.196 146.344 171.713 146.422" stroke="#303030" stroke-width="1.5" stroke-miterlimit="10" stroke-linecap="round" stroke-linejoin="round"/>
<path d="M166.444 141.652C168.611 141.18 170.038 141.348 171.78 142.643" stroke="#303030" stroke-width="1.5" stroke-miterlimit="10" stroke-linecap="round" stroke-linejoin="round"/>
<path d="M162.785 152.517C161.393 152.114 160.486 151.015 161.059 149.647C161.574 148.42 162.952 147.568 162.952 144.79" fill="#D48983"/>
<path d="M162.785 152.517C161.393 152.114 160.486 151.015 161.059 149.647C161.574 148.42 162.952 147.568 162.952 144.79" stroke="#303030" stroke-width="1.5" stroke-miterlimit="10" stroke-linecap="round" stroke-linejoin="round"/>
<path d="M176.619 153.569C176.926 154.478 177.912 154.966 178.821 154.659C179.73 154.352 180.218 153.367 179.911 152.458C179.604 151.549 178.619 151.061 177.71 151.367C176.8 151.674 176.312 152.66 176.619 153.569Z" fill="#F867A6"/>
<path d="M180.419 151.637C180.616 152.222 181.25 152.536 181.834 152.338C182.418 152.141 182.732 151.507 182.535 150.923C182.338 150.338 181.704 150.024 181.119 150.222C180.536 150.419 180.222 151.053 180.419 151.637Z" fill="#F867A6"/>
<path d="M179.139 210.249C169.825 211.372 165.464 210.781 163.394 209.948C160.293 208.7 160.446 206.036 160.876 203.865C161.305 201.694 158.168 193.874 157.503 186.861C156.805 179.499 162.446 168.014 162.446 168.014L168.144 166.918C168.144 166.918 165.619 171.767 171.048 171.83C178.295 171.915 182.221 165.301 182.221 165.301C182.221 165.301 187.469 165.632 190.873 166.688C195.204 168.032 195.64 175.159 195.501 182.282C195.362 189.406 194.741 197.412 196.005 199.629C197.27 201.845 198.168 204.361 195.627 206.037C193.086 207.712 188.453 209.126 179.139 210.249Z" fill="white" stroke="#303030" stroke-width="1.5" stroke-miterlimit="10" stroke-linecap="round" stroke-linejoin="round"/>
<path d="M155.777 224.518C145.397 234.147 138.966 242.645 136.266 247.658C133.567 252.671 131.016 262.577 141.215 268.534C149.623 273.445 173.868 277.384 183.088 278.98C198.199 281.597 205.57 283.553 205.57 283.553C205.57 283.553 208.776 277.371 206.285 270.499C199.746 267.986 178.377 254.846 169.794 253.121L186.782 246.95V224.517H155.777V224.518Z" fill="#D48983"/>
<path d="M192.141 272.508C190.678 277.252 190.918 281.249 192.317 281.576C194.642 282.119 196.908 282.646 198.462 283.054C199.477 283.321 200.077 283.681 202.365 284.423C204.653 285.164 211.472 288.125 214.017 290.211C216.563 292.298 217.321 294.652 219.095 296.267C220.869 297.882 222.35 298.56 223.695 297.75C225.041 296.94 227.909 288.798 226.625 285.501C225.342 282.205 224.772 279.957 221.879 277.884C218.985 275.811 216.63 274.936 215.217 272.513C213.804 270.09 213.131 268.408 210.91 268.005C208.69 267.601 203.401 268.3 203.401 268.3L201.492 267.317C201.492 267.317 198.952 265.972 198.002 265.569C195.979 264.708 193.642 267.641 192.141 272.508Z" fill="#303030" stroke="#303030" stroke-width="1.5" stroke-miterlimit="10" stroke-linecap="round" stroke-linejoin="round"/>
<path d="M200.996 284.916C203.761 285.672 211.382 289.357 213.394 290.729C218.04 293.898 217.375 297.58 220.949 298.921C222.949 299.67 224.489 299.223 224.489 299.223C226.165 296.823 228.524 290.249 227.614 285.58C226.18 278.217 220.841 276.2 218.003 273.834C215.166 271.468 215.315 267.933 212.327 265.748C208.891 264.882 206.238 266.001 204.327 265.902C202.499 265.807 201.793 265.95 201.494 267.318L203.403 268.302C204.63 269.708 205.285 272.271 203.79 273.455C199.289 273.336 198.23 284.158 200.996 284.916Z" fill="#F55571"/>
<path d="M230.366 284.086C229.013 276.693 223.291 276.457 220.454 274.092C217.947 272.001 218.702 269.316 216.766 267.029C216.306 266.486 215.697 266.166 215.05 266.068L212.326 265.748C215.314 267.933 215.166 271.468 218.003 273.834C220.84 276.201 226.261 278.188 227.614 285.58C228.485 290.34 224.724 298.86 224.724 298.86C224.724 298.86 226.05 298.961 226.845 298.532C228.427 297.677 229.456 294.684 229.969 292.853C230.911 289.496 230.854 286.751 230.366 284.086Z" fill="white" stroke="#303030" stroke-width="1.5" stroke-miterlimit="10" stroke-linecap="round" stroke-linejoin="round"/>
<path d="M226.627 282.309C225.011 282.29 223.163 281.906 221.853 280.192C220.667 278.64 218.24 276.556 216.501 275.666C214.019 274.395 212.148 273.432 211.17 271.973C209.41 269.349 209.935 267.539 207.497 265.568" stroke="#303030" stroke-width="1.5" stroke-miterlimit="10" stroke-linecap="round" stroke-linejoin="round"/>
<path d="M219.096 282.719C218.181 284.085 215.425 289.446 216.075 292.888" stroke="#303030" stroke-width="1.5" stroke-miterlimit="10" stroke-linecap="round" stroke-linejoin="round"/>
<path d="M214.076 280.193C213.745 283.743 213.464 287.337 213.605 290.865" stroke="#303030" stroke-width="1.5" stroke-miterlimit="10" stroke-linecap="round" stroke-linejoin="round"/>
<path d="M216.5 281.576C214.728 283.861 213.201 287.02 211.535 289.427" stroke="#303030" stroke-width="1.5" stroke-miterlimit="10" stroke-linecap="round" stroke-linejoin="round"/>
<path d="M212.962 278.686C210.196 281.941 208.821 284.91 207.497 287.421" stroke="#303030" stroke-width="1.5" stroke-miterlimit="10" stroke-linecap="round" stroke-linejoin="round"/>
<path d="M210.105 278.249C209.502 281.47 209.831 285.868 210.101 289.081" stroke="#303030" stroke-width="1.5" stroke-miterlimit="10" stroke-linecap="round" stroke-linejoin="round"/>
<path d="M206.285 275.313C205.418 278.34 205.481 284.368 205.704 287.188" stroke="#303030" stroke-width="1.5" stroke-miterlimit="10" stroke-linecap="round" stroke-linejoin="round"/>
<path d="M208.857 277.06C207.667 278.115 204.261 284.282 203.33 285.819" stroke="#303030" stroke-width="1.5" stroke-miterlimit="10" stroke-linecap="round" stroke-linejoin="round"/>
<path d="M170.542 253.233C166.417 252.338 160.843 251.673 156.327 253.279" stroke="#303030" stroke-width="1.5" stroke-miterlimit="10" stroke-linecap="round" stroke-linejoin="round"/>
<path d="M143.255 237.682C149.177 237.342 156.465 237.675 164.155 241.976C171.845 246.277 174.01 251.649 174.01 251.649L188.925 246.334V223.23H155.435C155.435 223.23 149.48 228.601 146.25 232.265C143.02 235.928 140.794 238.296 141.806 239.484L143.255 237.682Z" fill="#303030"/>
<path d="M191.699 252.039C185.503 252.039 179.731 248.956 173.539 242.736C167.858 237.029 166.498 234.885 166.498 234.885C166.498 234.885 165.145 242.644 163.08 249.903C161.014 257.163 157.876 265.128 157.073 272.365C156.269 279.602 158.851 289.66 150.761 290.742C142.672 291.823 138.307 291.866 139.041 286.124C139.776 280.382 143.345 275.909 144.815 266.395C146.286 256.882 146.729 237.161 147.313 225.765C147.809 216.058 147.938 209.305 154.655 205.161C160.811 201.362 172.793 208.055 176.235 209.575L181.811 211.321L196.202 206.861C196.202 206.861 202.399 215.059 205.153 222.458C207.451 228.633 212.688 248.935 199.351 251.743C196.532 252.336 194.747 252.039 191.699 252.039Z" fill="#D48983"/>
<path d="M157.352 272.234C157.542 270.642 158.351 267.748 158.818 266.395C159.284 265.042 161.035 262.139 159.393 261.659L158.95 263.311C158.95 263.311 154.755 264.443 150.293 263.444C145.831 262.445 145.452 261.06 145.452 261.06L145.603 259.379C145.603 259.379 143.966 259.785 143.833 262.48C143.7 265.175 142.592 272.287 141.87 275.678C141.147 279.069 139.137 284.759 138.538 286.824C137.939 288.889 137.478 290.812 144.152 291.479C150.826 292.146 155.436 290.689 156.327 287.422C157.219 284.155 157.153 282.062 157.219 279.213C157.286 276.363 157.019 275.031 157.352 272.234Z" fill="#303030" stroke="#303030" stroke-width="1.5" stroke-miterlimit="10" stroke-linecap="round" stroke-linejoin="round"/>
<path d="M139.042 286.125C139.776 280.383 143.345 275.91 144.816 266.396C146.286 256.882 146.729 237.162 147.313 225.766" stroke="#303030" stroke-width="1.5" stroke-miterlimit="10" stroke-linecap="round" stroke-linejoin="round"/>
<path d="M165.73 216.855C167.122 221.161 167.291 231.46 166.223 237.444C165.296 242.641 163.404 249.566 160.458 258.373C156.49 270.238 156.021 275.437 156.021 275.437" stroke="#303030" stroke-width="1.5" stroke-miterlimit="10" stroke-linecap="round" stroke-linejoin="round"/>
<path d="M138.954 282.449C138.217 284.32 136.808 286.38 136.475 288.321C136.142 290.261 136.103 290.928 138.049 292.156C139.082 292.808 140.393 293.123 141.692 293.33C145.511 293.939 149.603 293.922 153.281 292.914C154.568 292.562 155.784 291.896 156.702 291.108C158.241 289.787 158.19 289.064 158.281 287.277C158.363 285.661 158.093 283.611 158.065 281.993C158.008 278.67 158.677 278.852 157.952 272.3C157.913 272.618 157.307 274.582 156.083 275.06C155.403 275.325 155.113 273.445 153.888 272.394C152.839 271.493 150.982 270.734 149.435 270.594C146.733 270.348 144.682 270.536 142.785 271.693C141.023 272.767 141.114 274.257 140.897 275.821C140.474 278.874 140.056 279.657 138.954 282.449Z" fill="#F55571"/>
<path d="M141.258 284.625C145.162 283.737 149.414 283.812 153.263 284.836" stroke="#303030" stroke-width="1.5" stroke-miterlimit="10" stroke-linecap="round" stroke-linejoin="round"/>
<path d="M141.258 283.259C143.962 282.167 147.867 281.348 153.425 281.312" stroke="#303030" stroke-width="1.5" stroke-miterlimit="10" stroke-linecap="round" stroke-linejoin="round"/>
<path d="M141.87 280.986C144.137 281.312 149.308 281.757 153.263 283.259" stroke="#303030" stroke-width="1.5" stroke-miterlimit="10" stroke-linecap="round" stroke-linejoin="round"/>
<path d="M142.089 279.872C144.594 278.771 148.207 277.939 153.344 277.884" stroke="#303030" stroke-width="1.5" stroke-miterlimit="10" stroke-linecap="round" stroke-linejoin="round"/>
<path d="M142.667 277.597C144.76 277.915 149.538 278.342 153.184 279.831" stroke="#303030" stroke-width="1.5" stroke-miterlimit="10" stroke-linecap="round" stroke-linejoin="round"/>
<path d="M142.818 276.525C145.164 275.417 148.545 274.574 153.344 274.504" stroke="#303030" stroke-width="1.5" stroke-miterlimit="10" stroke-linecap="round" stroke-linejoin="round"/>
<path d="M143.369 274.249C145.324 274.562 149.786 274.974 153.186 276.451" stroke="#303030" stroke-width="1.5" stroke-miterlimit="10" stroke-linecap="round" stroke-linejoin="round"/>
<path d="M157.485 276.108C157.485 276.108 156.984 276.822 156.607 277.336C155.84 278.382 156.012 279.612 156.048 280.818C156.083 282.024 156.229 283.25 155.876 284.424C155.673 285.097 155.355 285.749 155.206 286.427C154.874 287.924 156.608 291.037 156.608 291.037" stroke="#303030" stroke-width="1.5" stroke-miterlimit="10" stroke-linecap="round" stroke-linejoin="round"/>
<path d="M139.769 280.729C139.727 281.75 139.684 282.771 139.641 283.791C139.619 284.324 139.597 284.859 139.475 285.383C139.304 286.123 138.94 286.826 138.599 287.529C137.808 289.157 137.115 290.879 137.354 292.611" stroke="#303030" stroke-width="1.5" stroke-miterlimit="10" stroke-linecap="round" stroke-linejoin="round"/>
<path d="M158.355 293.153C158.254 294.135 156.947 296.762 150.072 297.546C144.61 298.168 140.042 297.312 137.704 295.792C136.092 294.738 135.94 292.154 136.297 289.396L136.338 289.385C136.092 292.026 139.211 292.935 141.694 293.331C145.51 293.941 149.631 294.029 153.279 292.916C157.485 291.632 158.155 289.329 158.277 287.279C158.289 287.081 158.294 286.878 158.293 286.67C158.497 289.596 158.574 291.031 158.355 293.153Z" fill="white" stroke="#303030" stroke-width="1.5" stroke-miterlimit="10" stroke-linecap="round" stroke-linejoin="round"/>
<path d="M171.806 207.496C175.305 210.363 179.249 220.429 177.796 228.731C176.343 237.033 170.446 239.515 170.446 239.515L168.427 237.252C168.427 237.252 167.223 238.145 170.05 240.972C173.912 244.834 176.944 249.231 183.4 252.039C186.142 253.231 201.042 254.053 205.297 250.732C209.552 247.411 213.126 239.528 210.106 229.122C206.455 216.544 196.58 205.161 196.58 205.161C192.966 208.937 179.14 210.249 179.14 210.249L171.806 207.496Z" fill="#F867A6"/>
<path d="M196.005 199.628C197.27 201.845 198.168 204.361 195.627 206.036C193.086 207.711 188.453 209.126 179.139 210.249" stroke="#303030" stroke-width="1.5" stroke-miterlimit="10" stroke-linecap="round" stroke-linejoin="round"/>
<path d="M171.806 207.496C180.142 210.904 187.672 212.834 194.501 218.709C198.649 222.278 201.087 226.833 201.756 232.265" stroke="#303030" stroke-width="1.5" stroke-miterlimit="10" stroke-linecap="round" stroke-linejoin="round"/>
<path d="M199.508 218.783C195.239 216.069 190.451 214.439 183.087 211.861" stroke="#303030" stroke-width="1.5" stroke-miterlimit="10" stroke-linecap="round" stroke-linejoin="round"/>
<path d="M179.183 219.158C179.243 218.497 179.734 217.903 180.21 217.48C181.185 216.614 182.312 215.943 183.471 215.355C184.054 215.059 184.652 214.794 185.242 214.512C185.639 214.322 186.085 213.954 185.547 213.617C184.531 212.98 183.307 212.714 182.129 212.493C181.206 212.32 180.203 212.195 179.482 211.561C178.656 210.835 179.064 209.977 179.929 209.821C182.827 209.296 186.12 210.146 188.986 210.827C192.1 211.567 195.584 212.389 198.379 210.302C203.005 206.845 205.763 199.477 205.758 199.472C203.752 196.935 197.574 190.912 195.048 189.309C191.786 187.24 190.447 184.471 189.258 180.765C187.703 175.92 187.6 171.539 189.728 167.227C197.655 166.671 201.331 171.617 209.486 180.542C211.977 183.268 215.441 187.521 217.925 190.81C221.368 195.369 223.534 198.439 219.942 203.899C217.177 208.101 209.769 215.386 204.897 218.817C203.258 219.971 201.409 220.879 199.445 221.317C196.947 221.874 194.39 220.982 191.913 221.575C190.959 221.804 190.196 221.938 189.263 222.243C187.452 222.834 186.382 223.508 185.275 223.111C184.801 222.942 184.105 222.366 184.567 221.321C183.905 221.815 183.106 222.105 182.307 221.788C181.726 221.559 181.025 220.974 181.738 219.925C181.35 220.217 180.878 220.42 180.393 220.407C179.658 220.388 179.116 219.901 179.183 219.158Z" fill="#D48983"/>
<path d="M195.317 189.594C192.055 187.525 190.444 184.471 189.254 180.765C187.699 175.921 187.864 171.294 189.992 166.983" stroke="#303030" stroke-width="1.5" stroke-miterlimit="10" stroke-linecap="round" stroke-linejoin="round"/>
<path d="M188.051 216.484C185.38 217.073 183.596 217.922 181.734 219.925" stroke="#303030" stroke-width="1.5" stroke-miterlimit="10" stroke-linecap="round" stroke-linejoin="round"/>
<path d="M189.693 218.92C187.083 219.382 185.688 220.031 184.563 221.32" stroke="#303030" stroke-width="1.5" stroke-miterlimit="10" stroke-linecap="round" stroke-linejoin="round"/>
<path d="M209.762 196.509C208.283 196.673 206.47 198.361 205.755 199.472" stroke="#303030" stroke-width="1.5" stroke-miterlimit="10" stroke-linecap="round" stroke-linejoin="round"/>
<path d="M234.991 226.211C234.79 225.62 234.582 225.007 234.506 224.384C234.449 223.914 234.476 223.422 234.698 223.05C235.216 222.181 236.776 222.096 237.769 221.94C239.316 221.697 240.876 221.533 242.441 221.464C243.626 221.412 245.098 221.224 246.193 221.787C246.226 221.804 246.256 221.828 246.289 221.847C246.401 221.91 246.108 221.661 246.274 221.833C246.34 221.9 246.409 221.965 246.476 222.032C246.644 222.203 246.451 221.957 246.541 222.118C246.606 222.234 246.68 222.343 246.742 222.462C246.78 222.536 246.876 222.743 246.875 222.74C246.881 222.753 246.967 222.99 247 223.085C247.135 223.483 247.243 223.889 247.344 224.296C247.693 225.707 249.873 225.109 249.523 223.695C249.219 222.465 248.823 221.036 247.813 220.184C246.547 219.115 244.734 219.14 243.168 219.178C241.248 219.225 239.336 219.43 237.438 219.719C235.808 219.967 234.002 220.208 232.944 221.625C231.807 223.147 232.247 225.156 232.812 226.811C233.009 227.389 233.588 227.769 234.202 227.6C234.764 227.447 235.189 226.792 234.991 226.211Z" fill="#303030"/>
<path d="M271.375 259.311C270.482 254.648 269.65 251.525 268.339 236.761C267.66 229.122 266.945 222.854 248.658 224.291C229.586 225.79 221.378 229.352 220.286 232.23C219.195 235.106 220.286 243.108 220.881 250.565C221.476 258.022 224.333 280.725 226.923 284.055L274.836 273.839C274.837 270.223 272.268 263.973 271.375 259.311Z" fill="white" stroke="#303030" stroke-width="1.5" stroke-miterlimit="10" stroke-linecap="round" stroke-linejoin="round"/>
<path d="M223.772 235.647C224.022 244.009 226.012 265.097 229.064 275.051" stroke="#303030" stroke-width="1.5" stroke-miterlimit="10" stroke-linecap="round" stroke-linejoin="round"/>
<path d="M273.532 272.163C271.18 272.163 233.562 272.163 230.393 272.163C227.225 272.163 226.018 273.823 226.018 276.775C226.018 279.727 225.565 282.121 226.923 284.055C228.281 285.988 228.809 287.392 230.9 287.392L273.273 279.266C274.59 275.761 275.884 272.163 273.532 272.163Z" fill="#9767F8" stroke="#9767F8" stroke-width="1.5" stroke-miterlimit="10" stroke-linecap="round" stroke-linejoin="round"/>
<path d="M271.694 276.41H230.9C229.885 276.41 229.063 277.232 229.063 278.246V285.555C229.063 286.569 229.885 287.391 230.9 287.391H268.946C269.711 287.391 270.396 286.917 270.665 286.201L273.413 278.892C273.864 277.691 272.977 276.41 271.694 276.41Z" fill="#303030" stroke="#303030" stroke-width="1.5" stroke-miterlimit="10" stroke-linecap="round" stroke-linejoin="round"/>
<path d="M223.345 229.502C227.831 231.166 228.051 236.183 229.824 238.936C232.005 242.322 235.598 243.211 247.942 241.533C258.57 240.088 263.278 238.759 264.221 235.132C265.08 231.826 263.383 229.386 261.649 225.159C249.561 221.798 229.715 225.775 223.345 229.502Z" fill="#9767F8" stroke="#303030" stroke-width="1.5" stroke-miterlimit="10" stroke-linecap="round" stroke-linejoin="round"/>
<path d="M234.297 254.255L262.339 251.572C264.173 251.397 265.816 252.703 266.051 254.53C266.441 257.558 267.115 260.73 268.166 263.978C268.879 266.183 267.304 268.457 264.986 268.497L235.902 268.995C234.265 269.023 232.83 267.89 232.493 266.287C231.926 263.588 231.499 260.838 231.214 257.977C231.027 256.101 232.42 254.435 234.297 254.255Z" fill="#303030" stroke="#303030" stroke-width="1.5" stroke-miterlimit="10" stroke-linecap="round" stroke-linejoin="round"/>
<path d="M234.92 252.158L262.962 249.475C264.796 249.299 266.439 250.606 266.674 252.433C267.064 255.46 267.738 258.633 268.789 261.881C269.502 264.086 267.927 266.36 265.609 266.399L236.525 266.898C234.888 266.926 233.453 265.792 233.116 264.191C232.549 261.491 232.122 258.741 231.837 255.881C231.65 254.004 233.043 252.337 234.92 252.158Z" fill="white" stroke="#303030" stroke-width="1.5" stroke-miterlimit="10" stroke-linecap="round" stroke-linejoin="round"/>
<path d="M263.462 249.467L234.076 252.118C234.755 255.743 234.076 258.179 240.425 257.721C248.449 257.143 253.589 256.843 258.963 256.295C264.338 255.747 264.78 254.705 263.462 249.467Z" fill="#9767F8" stroke="#303030" stroke-width="1.5" stroke-miterlimit="10" stroke-linecap="round" stroke-linejoin="round"/>
<path d="M249.589 259.082C250.443 259.019 253.224 258.986 254.01 258.242C254.107 258.151 254.173 258.048 254.202 257.934C254.257 257.721 254.237 257.497 254.216 257.278C254.176 256.848 254.131 256.405 253.921 256.028C253.44 255.172 252.429 255.351 251.61 255.34C250.294 255.322 249.02 255.395 247.725 255.685C247.217 255.799 246.678 255.962 246.363 256.376C245.918 256.962 246.096 257.8 246.366 258.485C246.733 259.419 248.815 259.139 249.589 259.082Z" fill="#303030" stroke="#303030" stroke-width="1.5" stroke-miterlimit="10" stroke-linecap="round" stroke-linejoin="round"/>
<path d="M244.365 235.622L246.226 245.285L251.042 244.968L248.973 234.934L244.365 235.622Z" fill="#9767F8" stroke="#303030" stroke-width="1.5" stroke-miterlimit="10" stroke-linecap="round" stroke-linejoin="round"/>
<path d="M244.365 235.622C244.365 235.622 245.095 241.614 247.633 242.699C250.171 243.784 252.623 242.845 252.623 242.845C252.623 242.845 249.855 240.086 248.973 234.934L244.365 235.622Z" fill="#9767F8" stroke="#303030" stroke-width="1.5" stroke-miterlimit="10" stroke-linecap="round" stroke-linejoin="round"/>
<path d="M248.355 248.595C249.153 248.493 251.762 248.323 252.462 247.584C252.549 247.494 252.606 247.394 252.627 247.286C252.668 247.083 252.637 246.874 252.607 246.67C252.548 246.269 252.484 245.855 252.267 245.512C251.772 244.732 250.833 244.952 250.064 244.983C248.828 245.032 247.636 245.164 246.435 245.502C245.964 245.634 245.466 245.815 245.192 246.219C244.804 246.791 245.013 247.569 245.3 248.198C245.692 249.054 247.632 248.687 248.355 248.595Z" fill="#303030" stroke="#303030" stroke-width="1.5" stroke-miterlimit="10" stroke-linecap="round" stroke-linejoin="round"/>
<path d="M289.18 207.41V204.843H257.473C255.444 204.843 253.799 206.487 253.799 208.516V211.982C253.799 214.011 255.444 215.656 257.473 215.656H289.18V213.088V207.41Z" fill="#303030" stroke="#303030" stroke-width="1.5" stroke-miterlimit="10" stroke-linecap="round" stroke-linejoin="round"/>
<path d="M297.513 207.337H266.924V213.088H297.513C294.838 213.088 294.838 207.337 297.513 207.337Z" fill="white" stroke="#303030" stroke-width="1.5" stroke-miterlimit="10" stroke-linecap="round" stroke-linejoin="round"/>
<path d="M299.556 207.41V204.843H267.849C265.82 204.843 264.176 206.487 264.176 208.516V211.982C264.176 214.011 265.82 215.656 267.849 215.656H299.556V213.088H266.924C266.283 211.211 266.292 209.319 266.924 207.41H299.556Z" fill="#F55571" stroke="#303030" stroke-width="1.5" stroke-miterlimit="10" stroke-linecap="round" stroke-linejoin="round"/>
<path d="M285.604 209.396H295.586" stroke="#303030" stroke-width="1.5" stroke-miterlimit="10" stroke-linecap="round" stroke-linejoin="round"/>
<path d="M285.604 211.278H295.586" stroke="#303030" stroke-width="1.5" stroke-miterlimit="10" stroke-linecap="round" stroke-linejoin="round"/>
<path d="M295.387 196.29V193.723H263.68C261.651 193.723 260.006 195.367 260.006 197.396V200.862C260.006 202.891 261.651 204.536 263.68 204.536H295.387V201.968V196.29Z" fill="#303030" stroke="#303030" stroke-width="1.5" stroke-miterlimit="10" stroke-linecap="round" stroke-linejoin="round"/>
<path d="M303.72 196.217H273.131V201.968H303.72C301.045 201.968 301.045 196.217 303.72 196.217Z" fill="white" stroke="#303030" stroke-width="1.5" stroke-miterlimit="10" stroke-linecap="round" stroke-linejoin="round"/>
<path d="M305.763 196.29V193.723H274.056C272.027 193.723 270.383 195.367 270.383 197.396V200.862C270.383 202.891 272.027 204.536 274.056 204.536H305.763V201.968H273.131C272.49 200.091 272.499 198.199 273.131 196.29H305.763Z" fill="#1E2351" stroke="#303030" stroke-width="1.5" stroke-miterlimit="10" stroke-linecap="round" stroke-linejoin="round"/>
<path d="M291.811 198.276H301.792" stroke="#303030" stroke-width="1.5" stroke-miterlimit="10" stroke-linecap="round" stroke-linejoin="round"/>
<path d="M291.811 200.158H301.792" stroke="#303030" stroke-width="1.5" stroke-miterlimit="10" stroke-linecap="round" stroke-linejoin="round"/>
<path d="M149.223 137.26C147.468 136.809 144.549 135.056 144.174 132.852L144.173 132.853C144.176 132.84 144.177 132.829 144.18 132.816C147.063 129.651 148.835 125.457 148.835 120.838C148.835 111 140.859 103.025 131.021 103.025C121.183 103.025 113.208 111.001 113.208 120.838C113.208 130.676 121.183 138.652 131.021 138.652C133.956 138.652 136.717 137.929 139.157 136.672C141.348 138.027 143.638 138.608 146.224 138.554C149.225 138.492 150.115 137.49 149.223 137.26Z" fill="white" stroke="#303030" stroke-width="1.5" stroke-miterlimit="10" stroke-linecap="round" stroke-linejoin="round"/>
<path d="M129.806 124.74L122.794 121.509C122.794 123.426 122.794 126.008 122.794 126.008C122.794 130.247 139.968 130.247 139.968 126.008C139.968 126.008 139.968 123.426 139.968 121.509L132.956 124.74C132.088 125.145 130.675 125.145 129.806 124.74ZM143.998 116.717L133.237 111.756C132.212 111.284 130.551 111.284 129.526 111.756L118.764 116.717C117.739 117.19 117.739 117.956 118.764 118.427L119.818 118.913V123.551C119.473 123.67 119.221 123.989 119.221 124.375V125.782C119.221 126.269 119.616 126.663 120.102 126.663C120.59 126.663 120.984 126.269 120.984 125.782V124.375C120.984 123.989 120.732 123.67 120.387 123.551V119.176L129.526 123.389C130.55 123.86 132.211 123.86 133.235 123.389L143.997 118.427C145.022 117.956 145.022 117.19 143.998 116.717Z" fill="#FF95FB"/>
</svg>
