<svg width="178" height="72" viewBox="0 0 178 72" fill="none" xmlns="http://www.w3.org/2000/svg">
<path d="M173.029 47.2044C173.536 48.9288 174.26 50.4843 175.246 51.7532L115.572 71.6596C84.6144 67.1561 5.31053 52.6902 5.31053 52.6902C-0.838236 41.3586 -0.375315 26.4373 4.86922 14.6724L71.739 0L177.084 18.2399C176.587 19.0205 176.106 19.9701 175.641 21.0663C172.801 27.6705 170.666 39.3109 173.029 47.2044Z" fill="#5549D1"/>
<path d="M116.629 11.9875C105.21 10.102 93.7857 8.17879 82.4396 5.8976C79.4389 5.29449 76.4796 4.49838 73.473 3.92615C73.357 3.7486 73.1457 3.6193 72.902 3.65693C72.4076 3.73317 71.9535 3.74668 71.4798 3.91555C70.95 4.10565 70.4271 4.31022 69.8925 4.48874C68.9037 4.81972 67.9159 5.15167 66.9203 5.4624C64.931 6.08191 62.9387 6.68886 60.9376 7.27267C56.9757 8.42967 52.9883 9.48535 49.0038 10.5671C46.7216 11.1866 44.4384 11.7993 42.1513 12.3976C41.3139 12.6167 41.6569 13.8953 42.4923 13.6743C50.5911 11.5292 58.6092 9.11673 66.6362 6.7265C67.7498 6.39455 68.8654 6.07515 69.9819 5.75575C70.5215 5.60135 71.0621 5.4595 71.6056 5.32054C71.8591 5.25589 72.0842 5.17096 72.3034 5.07833C72.3722 5.11982 72.4459 5.15746 72.5422 5.17676C75.3857 5.73741 78.2743 6.0597 81.1334 6.53447C83.9866 7.0073 86.8242 7.5747 89.6646 8.11895C95.3416 9.20743 101.025 10.2699 106.686 11.4413C109.051 11.9316 111.41 12.4439 113.772 12.9535C113.122 13.1899 112.463 13.407 111.826 13.6405C110.601 14.0902 109.378 14.5408 108.147 14.9731C105.726 15.8223 103.309 16.6802 100.884 17.5197C96.0001 19.2113 91.0976 20.8498 86.2089 22.5279C85.9976 22.6003 85.8619 22.7353 85.7764 22.8917C80.9545 21.8273 76.1326 20.7591 71.3087 19.6996C66.3365 18.6072 61.3465 17.6007 56.385 16.4573C53.5681 15.8078 50.7483 15.1767 47.9265 14.5476C47.0085 14.343 46.6301 15.7374 47.554 15.941C52.5646 17.0449 57.5861 18.1025 62.5918 19.2296C67.5562 20.347 72.5108 21.506 77.4781 22.6118C80.2999 23.24 83.1217 23.8682 85.9435 24.4964C86.432 24.6055 86.776 24.2889 86.8753 23.9184C91.6942 22.1853 96.4974 20.4117 101.324 18.6989C103.78 17.8265 106.242 16.9697 108.701 16.1041C109.929 15.6718 111.166 15.2626 112.4 14.8486C113.62 14.4395 114.858 13.9348 116.121 13.6733C116.28 13.6405 116.394 13.571 116.486 13.4851C117.282 13.4051 117.529 12.1361 116.629 11.9875Z" fill="#7371E3"/>
<path d="M146.957 18.0162C146.985 17.7016 146.804 17.3716 146.357 17.3494C144.097 17.2365 141.84 16.8553 139.6 16.5533C137.379 16.2532 135.158 15.9618 132.937 15.6703C132.899 15.6655 132.868 15.6752 132.834 15.6771C132.692 15.5468 132.498 15.4812 132.257 15.5671C127.954 17.1043 123.7 18.7573 119.356 20.1874C114.989 21.6252 110.605 22.9954 106.22 24.3753C103.751 25.1521 101.296 25.9724 98.8346 26.7714C98.0621 27.0222 98.2802 28.1242 98.9437 28.1435C98.9437 28.1435 98.9456 28.1445 98.9476 28.1455C102.487 29.1124 106.037 30.0387 109.589 30.9584C109.94 31.0491 110.204 30.886 110.347 30.6467C111.449 30.3659 112.523 29.9461 113.594 29.5756C114.768 29.1693 115.937 28.7524 117.113 28.3529C119.499 27.5424 121.893 26.7559 124.288 25.9675C128.998 24.4159 133.728 22.925 138.466 21.4582C141.165 20.6226 143.881 19.8332 146.598 19.0555C147.11 18.9069 147.169 18.3607 146.957 18.0162Z" fill="#7371E3"/>
<path d="M172.408 33.4788C172.2 35.0333 172.077 36.6169 172.039 38.1801C172.014 38.8778 172.012 39.5755 172.036 40.2635L172.035 40.2751C172.056 41.4446 172.141 42.5804 172.301 43.6968L172.3 43.7094C172.376 44.3511 172.488 44.9841 172.626 45.593C172.731 46.1401 172.873 46.6776 173.028 47.2035L115.506 66.1034C114.584 65.2716 113.797 64.3993 113.135 63.497C112.747 62.9702 112.396 62.4462 112.094 61.9C111.275 60.496 110.693 59.0437 110.308 57.5663C110.146 56.9439 110.021 56.3109 109.92 55.6914C109.691 54.27 109.622 52.8457 109.66 51.4745C109.674 50.7768 109.724 50.0811 109.798 49.4104C109.957 47.8414 110.235 46.363 110.566 45.0314C110.751 44.3183 110.936 43.6418 111.13 43.0262C111.949 40.3841 112.804 38.6829 112.804 38.6829L148.806 28.5922L175.64 21.0635C175.176 22.1346 174.742 23.3398 174.328 24.631C174.089 25.401 173.862 26.1962 173.657 27.0164C173.268 28.513 172.924 30.0966 172.675 31.7216C172.571 32.2948 172.478 32.8921 172.408 33.4788Z" fill="#FDF9F7"/>
<path d="M115.508 66.1034C114.585 65.2716 113.799 64.3993 113.137 63.497C112.749 62.9702 112.398 62.4462 112.096 61.9C111.277 60.496 110.695 59.0437 110.31 57.5663C110.148 56.9439 110.023 56.3109 109.922 55.6914C109.693 54.27 109.624 52.8457 109.662 51.4745C109.676 50.7768 109.726 50.0811 109.8 49.4104C109.959 47.8414 110.237 46.363 110.568 45.0314C110.753 44.3183 110.938 43.6418 111.132 43.0262C111.951 40.3841 112.806 38.6829 112.806 38.6829L175.642 21.0635C147.986 35.5351 113.858 53.9381 115.508 66.1034Z" fill="#C7C5EA"/>
<path d="M174.329 24.6318C174.091 25.4019 173.863 26.197 173.659 27.0172C172.898 27.2421 172.138 27.4785 171.377 27.7033C168.707 28.5139 166.039 29.3119 163.37 30.0984C153.771 32.9142 144.109 35.5225 134.48 38.2167C126.496 40.4438 118.562 42.8543 110.568 45.0323C110.754 44.3192 110.939 43.6427 111.133 43.0271C114.601 42.175 118.058 41.322 121.538 40.494C131.244 38.1897 140.826 35.4685 150.326 32.4423C155.07 30.9234 159.838 29.4287 164.583 27.8857C166.956 27.1205 169.317 26.3418 171.69 25.564C172.565 25.2735 173.442 24.9464 174.329 24.6318Z" fill="#A1A1A1"/>
<path d="M172.677 31.7227C172.572 32.2949 172.478 32.8922 172.409 33.4789C169.235 34.3107 166.061 35.1425 162.91 36.0235C145.099 40.9584 127.412 46.3217 109.662 51.4765C109.676 50.7789 109.726 50.0831 109.8 49.4125C113.811 48.2999 117.821 47.1988 121.842 46.1113C138.852 41.4824 155.838 36.8418 172.677 31.7227Z" fill="#A1A1A1"/>
<path d="M172.038 40.263L172.037 40.2746C169.759 40.8768 167.468 41.4905 165.19 42.1042C154.98 44.864 144.773 47.5881 134.597 50.4213C129.552 51.8282 124.517 53.2718 119.493 54.753C116.425 55.663 113.379 56.6453 110.311 57.5669C110.149 56.9445 110.024 56.3115 109.923 55.6919C113.645 54.6961 117.397 53.8112 121.107 52.827C131.327 50.1038 141.485 47.1491 151.632 44.1808C158.439 42.193 165.246 40.1926 172.041 38.1787C172.015 38.8764 172.014 39.575 172.038 40.263Z" fill="#A1A1A1"/>
<path d="M172.628 45.5936C170.445 46.2613 168.261 46.9281 166.078 47.5959C156.487 50.4966 146.897 53.3732 137.306 56.2507C129.25 58.667 121.193 61.0949 113.137 63.4986C112.748 62.9717 112.397 62.4477 112.096 61.9016C116.177 60.8526 120.258 59.7806 124.331 58.6593C140.486 54.1905 156.44 49.0974 172.302 43.71C172.377 44.3517 172.489 44.9837 172.628 45.5936Z" fill="#A1A1A1"/>
<path d="M174.889 50.3028C174.604 49.7258 173.975 49.6283 173.419 49.8203C158.49 54.9771 143.608 60.2661 128.641 65.3168C124.622 66.6735 120.589 67.9917 116.58 69.3774C116.202 68.59 115.633 67.8576 115.214 67.1058C114.699 66.1833 114.219 65.2386 113.79 64.2746C112.905 62.282 112.252 60.2063 111.821 58.0747C110.972 53.8819 110.958 49.4951 111.862 45.3081C112.365 42.9777 113.13 40.6975 114.135 38.5292C114.14 38.5263 114.144 38.5215 114.149 38.5176C129.821 33.2808 145.598 28.3247 161.5 23.8038C166.009 22.5223 170.527 21.2756 175.047 20.0337C176.264 19.6998 175.873 17.7959 174.65 18.1375C149.332 25.2242 137.485 28.8062 127.057 32.311C122.743 33.7613 118.405 35.1412 114.093 36.5964C114.051 36.5819 114.019 36.5597 113.973 36.5481C99.9331 33.3107 85.8556 30.2083 71.7486 27.2642C57.5955 24.3104 43.4138 21.5081 29.2154 18.7773C21.2621 17.2468 14.9483 16.2018 6.98022 14.7533C5.77523 14.5343 5.44204 16.1873 6.67258 16.3938C20.923 18.786 33.4938 20.7921 47.6558 23.6523C61.7166 26.4922 75.7272 29.582 89.6868 32.8687C97.2469 34.6491 104.786 36.4999 112.316 38.3999C108.404 46.469 108.227 55.9286 111.356 64.292C111.794 65.4635 112.295 66.6156 112.887 67.7205C113.499 68.863 114.158 70.2951 115.208 71.0989C115.378 71.2292 115.575 71.2784 115.774 71.2726C115.989 71.4762 116.275 71.5891 116.614 71.4752C124.122 68.9402 131.577 66.2528 139.075 63.6899C146.606 61.1153 154.148 58.5774 161.694 56.0492C165.933 54.6288 170.164 53.1852 174.396 51.7464C174.961 51.5544 175.123 50.7776 174.889 50.3028Z" fill="#7371E3"/>
<path d="M89.0387 42.1377C86.1216 37.5251 80.4417 36.1095 75.2826 35.6512C71.7188 35.3346 68.1294 35.3684 64.6078 34.6592C62.2401 34.1825 59.263 33.258 58.0335 31.0164C57.8752 30.3448 57.1292 29.8382 56.4393 30.4287C54.6062 31.9968 52.0252 32.8151 49.6045 32.7167C46.5537 32.5932 43.6975 31.4748 40.8521 30.4953C35.7117 28.7256 29.5443 27.0514 24.8384 30.7626C20.7743 33.9683 19.6666 39.6423 22.2869 44.0753C23.6491 46.3806 25.8045 48.0337 28.3914 48.8394C31.1837 49.7088 34.1264 49.6577 37.014 49.4367C40.4481 49.1733 44.1427 48.8249 47.393 50.1913C49.9317 51.2586 51.6852 53.1046 52.4469 55.7138C52.7034 56.5929 53.7983 56.5003 54.3015 55.9271C54.8166 55.9174 55.3021 55.6251 55.3335 54.9689C55.4633 52.2785 58.4178 51.1737 60.7943 51.3927C63.7655 51.6658 66.3268 53.3728 68.953 54.6118C74.1238 57.0523 80.2382 58.4341 85.4552 55.3114C87.7099 53.9624 89.54 51.7681 90.2054 49.236C90.855 46.7657 90.4029 44.2934 89.0387 42.1377ZM84.0979 53.3844C79.0234 56.288 72.794 54.7566 67.9387 52.2255C65.0717 50.7307 62.1487 49.0555 58.7755 49.3354C56.626 49.5139 54.5748 50.7925 53.6067 52.6539C52.8518 51.4574 51.7451 50.4548 50.5362 49.7146C48.2501 48.3135 45.5649 47.7895 42.9014 47.6805C39.8506 47.556 36.8008 47.8059 33.75 47.6274C31.0383 47.4682 28.184 46.9307 26.005 45.2352C22.0648 42.1705 21.6932 36.3932 25.0428 32.79C26.8483 30.8475 29.4146 29.9202 32.0663 29.9424C35.0857 29.9675 37.9094 31.0367 40.6772 32.1136C45.5207 33.9991 52.3977 36.2523 56.9838 32.6935C59.4507 36.7358 66.0054 36.7223 70.1983 36.7908C75.6178 36.8786 82.1646 36.9693 86.0764 41.2634C87.648 42.9888 88.622 45.2198 88.2672 47.5598C87.8976 49.9887 86.2356 52.1608 84.0979 53.3844Z" fill="#7371E3"/>
<path d="M108.017 65.596C106.327 61.737 105.007 57.7855 104.551 53.585C104.105 49.4742 104.195 44.9186 105.907 41.0838C106.041 40.7856 105.866 40.2848 105.561 40.1391C103.956 39.3729 102.202 38.902 100.483 38.4282C100.029 37.9805 99.0931 37.9534 98.8169 38.7428C97.2807 43.1334 96.6182 47.854 96.8738 52.4897C97.0006 54.7873 97.3239 57.0666 97.8684 59.3053C98.1407 60.4237 98.4729 61.5267 98.8562 62.6132C99.0783 63.2443 99.327 64.3367 99.8371 64.9928C99.8823 65.1762 99.9875 65.3499 100.176 65.4782C101.087 66.0977 102.37 66.1499 103.436 66.3583C104.548 66.5754 105.714 66.6758 106.802 66.9874C107.666 67.2345 108.36 66.3795 108.017 65.596ZM101.539 64.1012C101.392 63.4634 100.983 62.812 100.759 62.2504C100.343 61.2092 99.9904 60.1458 99.6916 59.0679C99.0941 56.9132 98.7186 54.6831 98.6026 52.4531C98.3815 48.2304 98.9968 44.0588 100.411 40.0764C101.633 40.5839 102.88 41.0828 104.155 41.4302C103.808 43.3688 103.378 45.2968 103.16 47.2567C102.916 49.4404 102.804 51.6386 102.94 53.832C103.177 57.6504 103.931 61.5402 105.514 65.0662C104.881 65.0054 104.247 64.8848 103.657 64.7574C102.943 64.604 102.251 64.2846 101.539 64.1012Z" fill="#7371E3"/>
<path d="M16.1737 48.3997C14.4832 44.5408 13.1632 40.5892 12.7071 36.3887C12.2609 32.2779 12.3514 27.7223 14.0645 23.8875C14.1981 23.5893 14.0232 23.0885 13.7185 22.9428C12.1135 22.1766 10.3591 21.7057 8.64007 21.2319C8.18598 20.7842 7.25031 20.7571 6.97413 21.5465C5.43792 25.9371 4.77547 30.6577 5.03101 35.2935C5.1578 37.591 5.48117 39.8713 6.02567 42.109C6.29792 43.2274 6.63012 44.3304 7.01344 45.4169C7.23556 46.048 7.48423 47.1404 7.99433 47.7966C8.03954 47.9799 8.14471 48.1536 8.33342 48.2819C9.24453 48.9014 10.5272 48.9536 11.5936 49.162C12.7052 49.3791 13.8708 49.4795 14.9589 49.7912C15.8218 50.0372 16.5167 49.1832 16.1737 48.3997ZM9.69566 46.9049C9.54823 46.2671 9.13937 45.6157 8.91528 45.0541C8.50051 44.0129 8.14667 42.9495 7.84788 41.8707C7.2503 39.7159 6.87486 37.4859 6.7579 35.2558C6.53675 31.0331 7.15202 26.8615 8.56635 22.8791C9.78805 23.3867 11.0353 23.8856 12.3101 24.233C11.9631 26.1716 11.5346 28.0996 11.3154 30.0594C11.0717 32.2432 10.9596 34.4404 11.0952 36.6348C11.3321 40.4531 12.086 44.3429 13.6694 47.8689C13.0364 47.8081 12.4025 47.6875 11.8127 47.5601C11.0992 47.4077 10.4072 47.0883 9.69566 46.9049Z" fill="#7371E3"/>
<path d="M113.93 50.2324L121.97 47.873C121.97 47.873 126.867 50.243 126.374 54.9607C125.879 59.6795 130.512 62.9217 130.512 62.9217L120.911 66.1033C115.862 61.5409 122.923 52.9015 113.93 50.2324Z" fill="#DC7643"/>
</svg>
