<svg width="261" height="104" viewBox="0 0 261 104" fill="none" xmlns="http://www.w3.org/2000/svg">
<path d="M253.747 61.0236C254.438 62.7345 255.342 64.3836 256.508 65.915L156.057 103.125C114.111 97.0295 6.63117 77.4271 6.63117 77.4271C-1.7133 62.0648 -1.35554 47.0296 5.73775 31.0864L115.945 0.967773L258.715 25.6884C258.715 25.6884 257.184 28.5341 255.572 32.8919C252.892 40.1687 250.007 51.6374 253.747 61.0236Z" fill="#FC88BA"/>
<path d="M66.3584 29.1128L69.7316 28.0117L121.293 11.1865L182.614 21.2598L118.617 40.2292L66.3584 29.1128Z" fill="#DB8B81"/>
<path d="M253.977 61.0233L164.121 92.6888L156.854 95.2547C143.346 84.1479 155.552 63.9955 155.552 63.9955L255.803 32.8926C254.723 35.8097 253.631 39.3887 252.93 43.2419C252.84 43.7552 252.75 44.2802 252.672 44.8061C251.863 50.1453 251.928 55.8936 253.977 61.0233Z" fill="#FDF9F7"/>
<path d="M255.802 32.8926C254.722 35.8097 253.63 39.3887 252.929 43.2419C216.412 51.9681 169.405 66.5835 164.121 92.6888L156.854 95.2547C143.346 84.1479 155.552 63.9955 155.552 63.9955L255.802 32.8926Z" fill="#C7C5EA"/>
<mask id="mask0_3649_1711" style="mask-type:luminance" maskUnits="userSpaceOnUse" x="150" y="32" width="106" height="64">
<path d="M253.977 61.0233L156.854 95.2547C143.346 84.1479 155.552 63.9955 155.552 63.9955L255.803 32.8926C253.122 40.1684 250.236 51.6371 253.977 61.0233Z" fill="white"/>
</mask>
<g mask="url(#mask0_3649_1711)">
<path d="M260.197 36.4277C252.779 38.5806 245.429 40.9641 238.05 43.2433C230.671 45.5235 223.29 47.797 215.91 50.0734C201.195 54.6106 186.506 59.2222 171.758 63.6495C167.616 64.8924 163.474 66.1324 159.32 67.3377C155.108 68.5603 150.83 69.5686 146.625 70.8077C145.404 71.1676 146.176 72.9904 147.392 72.6112C151.069 71.4648 154.686 70.1206 158.351 68.9337C162.024 67.7449 165.717 66.6178 169.408 65.4888C176.798 63.2278 184.196 60.9959 191.596 58.7677C206.354 54.3241 221.155 50.0097 235.93 45.62C244.266 43.143 252.645 40.7826 260.935 38.1628C262.119 37.7883 261.358 36.091 260.197 36.4277Z" fill="#A1A1A1"/>
<path d="M256.848 42.4025C255.198 43.3173 253.327 43.8374 251.539 44.4405C249.755 45.0427 247.97 45.6419 246.183 46.2354C242.658 47.4049 239.135 48.5812 235.598 49.716C228.48 52.002 221.362 54.2871 214.246 56.5731C200.064 61.1268 185.851 65.5772 171.595 69.9022C163.572 72.3359 155.552 74.7724 147.498 77.1057C146.007 77.537 146.659 79.879 148.096 79.3801C162.229 74.4733 176.453 69.8241 190.668 65.1536C204.82 60.5044 219.057 56.1032 233.265 51.6228C237.24 50.3693 241.222 49.1399 245.21 47.9241C247.203 47.3161 249.196 46.7111 251.192 46.1138C253.212 45.5097 255.296 44.704 257.396 44.4675C259.321 44.2514 258.357 41.5649 256.848 42.4025Z" fill="#A1A1A1"/>
<path d="M258.002 47.8064C243.623 53.2285 229.132 58.34 214.561 63.242C200.051 68.1238 185.49 72.8705 170.832 77.3084C162.573 79.8086 154.299 82.2548 146.014 84.6663C144.821 85.0137 145.287 86.8693 146.475 86.5094C161.189 82.057 175.827 77.3634 190.45 72.6322C205.021 67.9183 219.532 63.0355 234.011 58.0563C242.163 55.253 250.311 52.4373 258.452 49.6031C259.596 49.2046 259.121 47.3837 258.002 47.8064Z" fill="#A1A1A1"/>
<path d="M264.574 53.9539C248.996 58.9225 233.377 63.7696 217.813 68.7836C202.31 73.7783 186.836 78.853 171.383 83.9983C162.699 86.8903 154.024 89.8103 145.36 92.7582C144.826 92.9397 144.672 93.6769 144.894 94.1256C145.161 94.667 145.763 94.7712 146.287 94.583C161.587 89.0788 176.947 83.7464 192.378 78.6041C207.785 73.4695 223.23 68.4391 238.758 63.6673C247.474 60.9886 256.195 58.3233 264.963 55.8134C266.162 55.4689 265.744 53.5805 264.574 53.9539Z" fill="#A1A1A1"/>
</g>
<path d="M256.272 64.5338C231.131 74.3524 205.85 83.8901 180.224 92.4243C173.517 94.6582 166.608 96.5939 160.016 99.1656C159.197 97.0069 157.071 94.9979 155.945 93.2773C154.023 90.3429 152.578 87.0764 151.905 83.6431C150.609 77.0272 151.849 70.4751 154.971 64.5946C155.312 64.7712 155.734 64.8242 156.233 64.665C170.776 60.0226 185.195 55.0404 199.786 50.5379C214.444 46.0141 229.09 41.4565 243.776 37.0206C249.521 35.2846 257.964 33.8835 260.101 27.3979C260.828 25.1901 257.204 24.0697 256.62 26.3017C255.988 28.7112 253.695 29.8759 251.505 30.7734C248.492 32.0085 245.278 32.8336 242.182 33.8468C235.219 36.1241 228.257 38.3995 221.274 40.617C207.323 45.0491 193.428 49.6829 179.401 53.8805C171.496 56.2457 163.56 58.4989 155.678 60.9373C155.11 60.3111 154.135 60.0351 153.401 60.5311C153.259 60.4568 153.104 60.3921 152.925 60.3478C143.644 58.0579 134.271 56.3209 124.933 54.2617C115.622 52.2073 106.296 50.2011 96.9572 48.2692C78.5847 44.4692 60.1305 41.1053 41.6518 37.8437C36.5075 36.9357 31.3563 36.0672 26.213 35.1582C21.5307 34.3322 16.8749 33.3691 12.1925 32.5412C14.2723 31.9265 16.3422 31.2684 18.4131 30.6547C22.0241 29.5845 25.6459 28.551 29.2678 27.5166L50.4061 21.4836C64.5829 17.4375 78.7704 13.4184 93.0867 9.86344C101.179 7.85437 109.188 5.53362 117.244 3.39139C118.985 2.9282 118.395 0.202172 116.682 0.703957C102.512 4.8514 88.3612 9.06251 74.1795 13.1723C60.0165 17.2763 45.7572 21.0571 31.5303 24.943C27.6067 26.0151 23.689 27.1075 19.7547 28.139C15.8281 29.1686 11.822 30.0632 7.94857 31.2809C7.3215 30.7994 6.38385 30.7483 5.89537 31.6264C1.98163 38.6572 0.0552271 46.8015 0.305856 54.8098C0.431662 58.8328 1.05184 62.8412 2.24995 66.6934C2.84556 68.6108 3.56501 70.4963 4.41912 72.3172C5.14545 73.8641 5.91797 76.4946 7.45811 77.4075C7.5967 77.7606 7.86895 78.0549 8.33581 78.1621C13.1381 79.266 18.0229 79.5362 22.8949 80.1856C27.7345 80.8302 32.5692 81.4979 37.3803 82.3211C47.1273 83.9885 56.8733 85.658 66.6134 87.3611C85.907 90.7347 105.164 94.2896 124.459 97.6641C129.882 98.6126 135.304 99.567 140.731 100.503C143.342 100.954 145.955 101.404 148.566 101.855C151.359 102.336 154.179 103.003 157.015 103.112C157.245 103.121 157.454 103.086 157.648 103.027C158.239 103.303 158.933 103.313 159.465 102.971C159.616 102.975 159.773 102.966 159.939 102.922C166.434 101.206 172.776 98.6686 179.097 96.4231C185.489 94.1526 191.866 91.8444 198.261 89.5834C210.972 85.0905 223.661 80.5301 236.293 75.8268C243.499 73.1442 250.688 70.422 257.863 67.6632C259.993 66.842 258.389 63.7068 256.272 64.5338ZM9.94278 75.4891C9.54865 73.9828 8.28568 72.6955 7.58097 71.2895C6.73375 69.5979 5.99857 67.8485 5.40394 66.0565C4.21763 62.4794 3.49327 58.7276 3.30554 54.969C2.93304 47.5301 4.5459 40.2001 8.14022 33.6422C8.25816 33.6142 8.37414 33.5805 8.49208 33.5515C8.42426 34.3901 8.90095 35.3232 9.98996 35.468C10.5364 35.5413 11.0819 35.6098 11.6284 35.6822C8.80169 42.0066 7.33232 49.0209 7.27335 55.9041C7.24091 59.6771 7.5967 63.4067 8.31222 67.1132C8.65622 68.8974 9.10735 70.6623 9.66169 72.3954C9.95949 73.3256 10.2317 74.5328 10.6937 75.5798C10.444 75.546 10.1934 75.5209 9.94278 75.4891ZM14.6074 76.2437C14.8325 74.7123 13.4929 72.9512 12.9248 71.5511C12.2594 69.9116 11.7119 68.2277 11.2588 66.5197C10.3595 63.1249 9.91527 59.5526 9.92706 56.045C9.95065 49.0258 11.6677 42.3501 14.8866 36.1077C17.5196 36.4493 20.1508 36.7909 22.7819 37.1383C19.9001 43.4396 18.3158 50.2243 18.0278 57.1363C17.8794 60.6961 18.0651 64.3032 18.5919 67.8282C18.8593 69.6163 19.2121 71.3938 19.6524 73.1481C20.0436 74.7065 20.307 76.594 21.5081 77.7317C19.2092 77.2261 16.9162 76.6943 14.6074 76.2437ZM99.3102 90.2145C80.0088 87.2164 60.678 84.417 41.3864 81.3465C35.8283 80.4616 30.2919 79.5111 24.7712 78.4216C24.2483 78.3184 23.7274 78.2084 23.2065 78.0984C23.6144 77.9305 23.9564 77.6159 24.0517 77.1981C24.4282 75.5615 23.4728 74.032 22.9873 72.4745C22.4988 70.9084 22.0978 69.3181 21.7892 67.7085C21.1464 64.3504 20.8732 60.9653 20.998 57.5503C21.2466 50.7454 23.0364 44.0678 26.1098 37.9672C26.1727 37.8427 26.2179 37.7192 26.2494 37.5976C30.1612 38.1293 34.07 38.6938 37.9739 39.3336C47.3936 40.8766 56.7809 42.5759 66.1535 44.3765C84.474 47.8958 102.747 51.7007 120.893 56.0102C122.274 56.3383 123.648 56.6896 125.028 57.0244C119.756 68.7932 119.612 81.9467 123.843 94.0233L99.3102 90.2145ZM128.57 94.7586L127.875 94.6505C122.635 83.0207 123.182 69.4117 128.203 57.8041C130.203 58.2962 132.208 58.772 134.206 59.2757C131.989 65.3801 130.969 71.8994 131.264 78.3763C131.415 81.7112 131.864 85.0307 132.667 88.2759C133.071 89.9058 133.538 91.5259 134.083 93.1162C134.378 93.976 134.636 94.8696 134.924 95.7506C132.806 95.4215 130.689 95.0886 128.57 94.7586ZM150.589 98.2084C148.076 97.8117 145.563 97.4161 143.048 97.0195C141.869 96.8332 140.69 96.6518 139.51 96.4666C139.49 96.4154 139.482 96.3652 139.457 96.3131C138.79 94.8551 137.913 93.5186 137.338 92.0113C136.789 90.5706 136.337 89.1038 135.972 87.6081C135.205 84.4768 134.741 81.2693 134.636 78.0501C134.436 71.9399 135.422 65.8925 137.538 60.1528C139.546 60.7434 141.517 61.442 143.554 61.9718C146.157 62.6483 148.767 63.3025 151.374 63.9635C148.736 69.6269 147.78 76.0922 148.626 82.24C149.102 85.6946 150.111 89.1338 151.58 92.3075C152.356 93.9866 153.29 95.5788 154.345 97.1025C154.791 97.7461 155.27 98.3724 155.674 99.0421C153.995 98.6947 152.285 98.4766 150.589 98.2084Z" fill="#F867A6"/>
<path d="M89.4756 66.76C89.8275 63.7947 90.4476 60.5746 91.6575 57.6623L35.7486 47.7607C30.2446 56.6674 32.9907 71.5656 32.9907 71.5656L89.566 81.609C88.9999 76.6741 88.8898 71.6862 89.4756 66.76Z" fill="#F867A6"/>
<path d="M102.824 59.6405L95.3986 58.3252C95.1332 59.0576 94.9042 59.8026 94.7106 60.5562C94.6113 60.9441 94.5209 61.333 94.4374 61.7238C94.4442 61.6929 94.3941 61.9371 94.3695 62.0567C94.3479 62.1754 94.3027 62.4186 94.3086 62.3887C94.1828 63.1085 94.0806 63.8323 93.9803 64.556C93.7867 65.9514 93.6609 67.3554 93.5862 68.7604C93.4181 71.913 93.5174 75.1128 93.8496 78.1409C94.0088 79.5931 94.226 81.0387 94.4688 82.4794L100.448 83.5408C100.237 80.4703 100.085 77.3843 100.141 74.308C100.229 69.4436 100.831 64.2115 102.824 59.6405Z" fill="#F867A6"/>
<path d="M111.497 61.1758L106.478 60.2871C105.758 61.9247 105.246 63.6558 104.897 65.4381C104.357 68.1854 104.189 71.3649 104.209 74.2965C104.229 77.4259 104.465 79.9734 104.7 82.849C104.74 83.3373 104.796 83.8294 104.845 84.3206L110.175 85.2673C107.719 74.8774 111.497 61.1758 111.497 61.1758Z" fill="#F867A6"/>
<path d="M153.46 77.4905L162.796 74.3447C173.198 76.6481 168.764 87.0466 175.216 91.7547C175.216 91.7547 164.143 96.1743 163.881 96.1897C157.161 88.7353 164.661 80.7743 153.46 77.4905Z" fill="#2D8485"/>
</svg>
