<svg width="157" height="158" viewBox="0 0 157 158" fill="none" xmlns="http://www.w3.org/2000/svg">
<path d="M156.648 13.5028L113.698 122.541L26.7573 157.31C26.0949 155.078 25.1572 153.07 24.0171 151.273C19.5943 144.196 12.1953 140.267 6.96944 138.253C3.45278 136.903 0.915039 136.418 0.915039 136.418L44.4881 21.1319L137.775 0.532676C137.775 0.532676 152.786 0.132222 156.648 13.5028Z" fill="#9D83CD"/>
<path d="M115.443 28.5866C103.445 32.0933 91.4519 35.6145 79.4463 39.0942C76.0505 40.0785 72.6548 41.0627 69.258 42.047C68.8668 42.1609 68.6339 42.404 68.5189 42.6906C68.3528 42.791 68.2053 42.9329 68.1179 43.1712C65.4573 50.4133 62.5559 57.5724 59.8245 64.7894C57.0735 72.0605 54.4905 79.3894 51.8319 86.6933C49.1949 93.9373 46.4164 101.127 43.7155 108.347C41.0028 115.597 38.0473 122.764 35.4663 130.061C34.0382 134.098 32.6367 138.144 31.2371 142.192C29.811 146.316 28.2797 150.435 27.1386 154.648C26.8879 155.575 28.3789 156.123 28.7573 155.217C30.2562 151.63 31.4622 147.916 32.7497 144.249C34.0117 140.653 35.2825 137.06 36.5622 133.471C39.1462 126.221 41.4696 118.889 44.0064 111.623C46.5608 104.306 49.2155 97.0252 51.9479 89.7725C54.6625 82.567 57.6298 75.4562 60.4752 68.3009C63.6646 60.2792 66.7144 52.183 70.1219 44.25C82.0519 40.7511 93.9877 37.2714 105.926 33.7985C109.321 32.8113 112.716 31.8232 116.112 30.836C117.584 30.4066 116.915 28.1563 115.443 28.5866Z" fill="#D4CAEB"/>
<path d="M150.614 13.7726L64.8621 39.8027L24.0164 151.272C19.5936 144.196 12.1946 140.267 6.96875 138.253L49.9423 25.6543L135.527 4.33328C135.527 4.33328 146.236 3.87974 150.614 13.7726Z" fill="#FDF9F7"/>
<mask id="mask0_3649_1684" style="mask-type:luminance" maskUnits="userSpaceOnUse" x="6" y="4" width="145" height="148">
<path d="M150.614 13.7726L64.8621 39.8027L24.0164 151.272C19.5936 144.196 12.1946 140.267 6.96875 138.253L49.9423 25.6543L135.527 4.33328C135.528 4.33328 146.236 3.87974 150.614 13.7726Z" fill="white"/>
</mask>
<g mask="url(#mask0_3649_1684)">
<path d="M59.735 36.3695C54.0384 51.5157 48.4528 66.7082 43.0579 81.9605C37.6747 97.179 32.7074 112.538 27.4511 127.8C25.9748 132.088 24.5094 136.379 23.0616 140.675C21.6011 145.011 20.0128 149.332 18.7233 153.719C18.3596 154.956 20.2811 155.315 20.688 154.135C22.0001 150.327 23.0832 146.43 24.2892 142.587C25.4952 138.739 26.709 134.895 27.9336 131.053C30.3839 123.364 32.9167 115.705 35.5498 108.075C38.1534 100.529 40.9477 93.0422 43.6476 85.528C46.3848 77.9066 49.1211 70.2853 51.9144 62.6833C55.0379 54.1819 58.2499 45.7114 61.5002 37.2554C61.9445 36.0955 60.1763 35.1971 59.735 36.3695Z" fill="#A1A1A1"/>
<path d="M51.3054 29.2468C45.3571 44.2994 39.5189 59.3992 33.8694 74.5637C28.2327 89.6944 23.0098 104.971 17.4999 120.146C15.9519 124.409 14.4157 128.676 12.8962 132.948C11.363 137.26 9.70291 141.555 8.34165 145.92C7.95735 147.152 9.87294 147.541 10.2985 146.369C11.6745 142.582 12.8225 138.703 14.0914 134.879C15.3612 131.052 16.6399 127.227 17.9275 123.406C20.5055 115.757 23.1661 108.14 25.926 100.553C28.6554 93.0496 31.5745 85.6088 34.3982 78.1389C37.2623 70.563 40.1253 62.986 43.0454 55.4303C46.3105 46.9801 49.663 38.5626 53.0539 30.1597C53.5188 29.0094 51.7663 28.0821 51.3054 29.2468Z" fill="#A1A1A1"/>
<path d="M54.4212 33.2823C51.8048 40.8477 49.1069 48.385 46.4542 55.9388C43.7828 63.5447 41.0711 71.139 38.1244 78.6465C32.2666 93.5717 26.7803 108.633 21.2478 123.677C18.1351 132.142 14.9811 140.592 11.83 149.043C11.6177 149.611 11.7425 150.239 12.3313 150.539C12.8217 150.789 13.6503 150.612 13.8547 150.047C19.3165 134.905 24.8421 119.786 30.352 104.661C35.8648 89.5265 40.9393 74.2453 46.6724 59.1888C49.8794 50.7675 53.059 42.3366 56.3201 33.9356C56.8371 32.603 54.8969 31.9053 54.4212 33.2823Z" fill="#A1A1A1"/>
<path d="M52.2781 30.5196C68.1847 26.4223 84.0667 22.2102 99.8897 17.809C115.677 13.4184 131.344 8.61285 147.095 4.09486C151.52 2.82592 155.941 1.54541 160.357 0.247526C164.812 -1.06194 169.331 -2.26044 173.731 -3.7378C174.972 -4.15467 174.17 -5.90609 172.953 -5.55677C169.022 -4.42968 165.15 -3.06811 161.25 -1.83488C157.348 -0.600688 153.443 0.625793 149.534 1.84262C141.712 4.27724 133.868 6.62887 125.991 8.884C118.199 11.114 110.349 13.1569 102.531 15.2914C94.6 17.4568 86.6713 19.6231 78.7249 21.7326C69.8388 24.091 60.9273 26.3615 52.0068 28.5935C50.7832 28.8994 51.0466 30.8371 52.2781 30.5196Z" fill="#A1A1A1"/>
<path d="M60.7845 37.5062C76.5377 32.8715 92.2615 28.1229 107.92 23.188C123.544 18.2638 139.033 12.9294 154.615 7.87973C158.993 6.46122 163.366 5.03113 167.733 3.58464C172.14 2.12464 176.612 0.77368 180.959 -0.852294C182.184 -1.31065 181.321 -3.03408 180.117 -2.64424C176.228 -1.38399 172.405 0.107862 168.552 1.47233C164.695 2.83873 160.836 4.19643 156.973 5.54546C149.242 8.24448 141.485 10.8605 133.691 13.381C125.983 15.8735 118.209 18.1817 110.47 20.5806C102.621 23.0133 94.7727 25.448 86.9049 27.8256C78.1074 30.4841 69.2813 33.0558 60.4444 35.5888C59.2345 35.9372 59.5657 37.8652 60.7845 37.5062Z" fill="#A1A1A1"/>
<path d="M55.9839 34.288C63.7455 31.8843 71.5308 29.5625 79.3042 27.1964C87.1307 24.813 94.9719 22.4681 102.881 20.3606C118.604 16.1707 134.218 11.6064 149.846 7.08938C158.64 4.54765 167.445 2.04644 176.249 -0.45669C176.842 -0.625559 177.283 -1.09454 177.181 -1.73817C177.096 -2.2747 176.462 -2.82666 175.876 -2.65296C160.21 1.97793 144.525 6.54513 128.844 11.1287C113.154 15.7152 97.6021 20.736 81.8449 25.1015C73.0316 27.5429 64.2271 30.0122 55.3981 32.3996C53.9966 32.7769 54.5706 34.7251 55.9839 34.288Z" fill="#A1A1A1"/>
</g>
</svg>
