<svg width="314" height="105" viewBox="0 0 314 105" fill="none" xmlns="http://www.w3.org/2000/svg">
<path d="M309.294 62.8323C309.294 62.8323 200.121 94.0461 157.337 104.625L1.61653 66.4625C2.96796 64.8616 3.93509 63.1941 4.57493 61.5016C6.9279 55.3595 5.087 48.957 3.13504 44.6474C1.68925 41.5055 0.195312 39.48 0.195312 39.48L140.384 0.748047L305.458 30.5666C305.458 30.5666 319.528 43.5309 309.294 62.8323Z" fill="#2D4F85"/>
<path d="M305.15 50.8251C305.136 52.7222 304.742 54.9011 303.809 57.4052L158.43 97.5161L4.57466 61.5015C5.1457 60.0184 5.46022 58.5236 5.6047 57.0434C5.65679 56.4846 5.68136 55.9124 5.67644 55.3547C5.67841 53.8059 5.4956 52.287 5.20075 50.8521V50.8386L4.80465 49.2512C4.35057 47.5529 3.75594 45.9954 3.13379 44.6464L103.292 65.8507L158.274 77.7641L300.538 40.8994C300.538 40.8994 301.866 41.7679 303.075 43.6284C303.434 44.1417 303.766 44.7255 304.055 45.3923C304.474 46.338 304.824 47.4236 304.99 48.6771C305.095 49.3468 305.144 50.058 305.15 50.8251Z" fill="#FDF9F7"/>
<path d="M305.15 50.8251C305.136 52.7222 304.742 54.9011 303.809 57.4052L158.43 97.5161C158.43 97.5161 136.456 78.4464 103.293 65.8507L158.275 77.7641L300.539 40.8994C300.539 40.8994 301.867 41.7679 303.076 43.6284C303.435 44.1417 303.767 44.7255 304.056 45.3923C304.475 46.338 304.825 47.4236 304.991 48.6771C305.095 49.3468 305.144 50.058 305.15 50.8251Z" fill="#C7C5EA"/>
<path d="M304.056 45.3938C294.7 48.1575 285.316 50.8797 275.917 53.5594C256.538 59.0916 237.143 64.5823 217.691 69.8915C198.182 75.2153 178.629 80.4 159.032 85.3899C158.891 85.4333 158.748 85.4343 158.635 85.4208C158.607 85.4208 158.564 85.4218 158.521 85.4073C157.582 85.1911 157.356 83.6163 158.519 83.3287C158.618 83.2998 158.704 83.2853 158.803 83.2573C169.722 80.5236 180.655 77.7483 191.559 74.9171C211.07 69.8722 230.537 64.618 249.96 59.2112C267.738 54.2494 285.43 48.9951 303.077 43.6289C303.435 44.1423 303.766 44.7261 304.056 45.3938Z" fill="#A1A1A1"/>
<path d="M305.15 50.8257C297.141 53.2719 289.118 55.6911 281.095 58.0814C260.938 64.0796 240.708 69.8559 220.478 75.6312C200.248 81.4211 179.99 87.1694 159.672 92.6523C159.544 92.6813 159.43 92.6958 159.317 92.6967C158.208 92.6629 157.839 90.8662 159.101 90.5497C159.129 90.5497 159.158 90.5352 159.186 90.5352C170.573 87.6586 181.974 84.7821 193.332 81.7935C213.679 76.4071 233.923 70.6597 254.066 64.591C271.105 59.4815 288.084 54.1761 304.992 48.6768C305.096 49.3474 305.144 50.0586 305.15 50.8257Z" fill="#A1A1A1"/>
<path d="M159.501 92.6684C159.374 92.6974 159.246 92.7118 159.103 92.6713C159.061 92.6858 159.018 92.6723 158.961 92.6588C147.97 89.7986 136.95 86.9809 125.93 84.2057C106.383 79.2911 38.9568 64.7152 19.2987 60.1634C14.7431 59.1097 10.1748 58.0704 5.60547 57.0456C5.65756 56.4869 5.68213 55.9147 5.67722 55.3569C21.4059 58.9196 84.9438 72.3809 100.617 76.1124C120.176 80.7626 139.709 85.5383 159.185 90.5368H159.199C159.313 90.5638 159.412 90.5909 159.526 90.6179C160.682 90.9016 160.438 92.4513 159.501 92.6684Z" fill="#A1A1A1"/>
<path d="M4.80566 49.2529C19.7078 52.529 82.4201 65.7317 97.3084 69.0782C117.833 73.6927 138.359 78.3497 158.802 83.2575C158.816 83.2575 158.83 83.271 158.844 83.271C160.125 83.5817 159.77 85.3978 158.634 85.421C158.605 85.421 158.563 85.4219 158.52 85.4084C158.449 85.4084 158.377 85.3959 158.307 85.3824C146.902 82.4421 135.498 79.5018 124.067 76.687C103.623 71.6537 35.2605 57.1541 14.6657 52.805C11.5058 52.1449 8.36066 51.4859 5.20176 50.8548V50.8413L4.80566 49.2529Z" fill="#A1A1A1"/>
<path d="M301.865 31.3644C292.495 33.8541 283.181 36.5328 273.81 39.0234C264.386 41.5285 254.961 44.0326 245.536 46.5376C226.802 51.5169 208.053 56.4353 189.283 61.2882C184.019 62.6488 178.756 64.0132 173.488 65.3574C168.16 66.7161 162.806 67.9435 157.462 69.2385C155.764 69.6506 156.442 72.2907 158.116 71.8189C162.785 70.5046 167.424 69.1121 172.109 67.8528C176.789 66.5955 181.473 65.3478 186.157 64.1059C195.583 61.6066 205.008 59.1063 214.44 56.6283C233.187 51.7031 251.969 46.9053 270.74 42.064C281.327 39.3332 291.962 36.7924 302.548 34.0615C304.312 33.607 303.624 30.8974 301.865 31.3644Z" fill="#083B4E"/>
<path d="M157.99 69.1809C144.529 66.7135 131.092 64.1312 117.621 61.7217C104.089 59.3015 90.5439 56.9644 77.0365 54.4121C73.2702 53.7009 21.6917 43.0785 17.9401 42.2949C14.1315 41.4998 10.378 40.4634 6.56453 39.6828C5.03913 39.3701 4.5133 41.7304 6.04754 42.0035C9.4217 42.6047 12.8194 43.0553 16.2113 43.5475C19.5943 44.0386 70.7806 54.5838 74.1429 55.1995C80.8706 56.4317 87.5698 57.8213 94.2739 59.1694C107.741 61.878 121.177 64.7334 134.657 67.3851C142.235 68.876 149.819 70.3418 157.394 71.8529C159.151 72.2042 159.757 69.5051 157.99 69.1809Z" fill="#083B4E"/>
</svg>
