<svg width="210" height="99" viewBox="0 0 210 99" fill="none" xmlns="http://www.w3.org/2000/svg">
<path d="M198.937 70.3511L118.165 96.7517C77.3516 87.8856 44.6637 79.5936 3.85048 70.7274C5.42404 68.8718 6.79906 66.8492 7.94606 64.706C11.0204 58.9673 12.4977 52.3863 12.0436 45.919C11.6308 40.0327 9.64542 33.9659 6.39511 28.8082C4.74882 26.1806 2.77032 23.7875 0.513672 21.7658C28.6804 16.9931 56.5376 9.60337 83.8227 1.21875C121.853 7.58948 164.095 15.4598 202.126 21.818C210.604 36.7914 209.297 56.5684 198.937 70.3511Z" fill="#E7A17E"/>
<path d="M195.637 62.5295L117.252 88.5634C117.252 88.5634 44.2071 72.4889 7.94646 64.7064C11.0208 58.9678 12.4981 52.3867 12.044 45.9194C11.6312 40.0331 9.64582 33.9664 6.39551 28.8086L13.6097 30.3468L119.207 52.9232L198.084 30.4442C198.084 30.4442 204.92 42.4398 195.637 62.5295Z" fill="#FDF9F7"/>
<path d="M195.638 62.5294L117.253 88.5633C103.592 59.8902 34.9856 36.9085 13.6104 30.3467L119.208 52.9231L198.085 30.4441C198.085 30.4441 204.921 42.4397 195.638 62.5294Z" fill="#C7C5EA"/>
<mask id="mask0_3649_1731" style="mask-type:luminance" maskUnits="userSpaceOnUse" x="6" y="28" width="195" height="61">
<path d="M195.637 62.5295L117.252 88.5634C117.252 88.5634 44.2071 72.4889 7.94646 64.7064C11.0208 58.9678 12.4981 52.3867 12.044 45.9194C11.6312 40.0331 9.64582 33.9664 6.39551 28.8086L119.207 52.9232L198.08 30.4404C198.08 30.4413 204.922 42.4369 195.637 62.5295Z" fill="white"/>
</mask>
<g mask="url(#mask0_3649_1731)">
<path d="M211.986 29.0591C205.909 30.879 199.926 33.0618 193.897 35.0342C187.86 37.0095 181.816 38.9616 175.788 40.96C163.836 44.9222 151.785 48.6065 139.751 52.3225C132.936 54.4271 126.111 56.6253 119.153 58.232C117.598 58.591 118.34 60.8751 119.878 60.2932C125.916 58.0062 132.141 56.1747 138.315 54.2776C144.382 52.4133 150.444 50.5373 156.504 48.6489C168.519 44.9039 180.559 41.2379 192.561 37.4533C199.265 35.3391 206.066 33.4043 212.693 31.0672C213.848 30.6599 213.167 28.7059 211.986 29.0591Z" fill="#A1A1A1"/>
<path d="M217.467 35.9379C214.179 36.8372 210.967 38.0569 207.729 39.1116C204.472 40.1731 201.215 41.2298 197.956 42.2825C191.341 44.42 184.715 46.5265 178.077 48.5944C164.675 52.7698 151.249 56.8767 137.802 60.9142C134.138 62.0142 130.459 63.0815 126.772 64.1034C124.834 64.6409 122.882 65.1263 120.94 65.6483C119.435 66.0526 118 66.1617 117.287 67.6526C117.217 67.7992 117.3 68.0163 117.435 68.0984C118.658 68.8404 119.61 68.4062 120.902 68.0009C122.579 67.476 124.243 66.9095 125.911 66.3605C129.219 65.271 132.559 64.2636 135.891 63.2455C142.603 61.195 149.334 59.2004 156.048 57.1527C169.236 53.1317 182.394 49.0151 195.562 44.9333C199.223 43.7985 202.883 42.6589 206.541 41.5135C210.379 40.3121 214.32 39.2776 218.085 37.8746C219.178 37.4683 218.609 35.6252 217.467 35.9379Z" fill="#A1A1A1"/>
<path d="M224.945 42.4382C221.437 43.3781 218.009 44.6557 214.544 45.7423C211.075 46.8308 207.603 47.9164 204.13 48.9942C197.183 51.149 190.23 53.2826 183.272 55.3997C169.356 59.633 155.413 63.7737 141.442 67.8285C133.49 70.1367 125.48 72.1709 117.47 74.2668C115.851 74.6904 116.421 77.2331 117.99 76.7516C145.998 68.1556 174.158 60.0325 202.184 51.4848C206.047 50.3066 209.91 49.1264 213.77 47.9405C217.704 46.7314 221.729 45.6979 225.599 44.3045C226.678 43.9185 226.047 42.143 224.945 42.4382Z" fill="#A1A1A1"/>
<path d="M216.095 51.6341C212.812 52.0008 209.485 53.5641 206.356 54.5927C203.22 55.6243 200.082 56.6491 196.942 57.6671C190.562 59.736 184.194 61.8387 177.805 63.8796C165.032 67.9614 152.232 71.9545 139.35 75.6918C132.049 77.8099 124.736 79.8769 117.407 81.8975C115.993 82.2873 116.469 84.5029 117.865 84.088C143.755 76.3972 169.693 68.7537 195.394 60.4694C198.916 59.3336 202.437 58.1901 205.954 57.0389C207.761 56.4474 209.566 55.8539 211.371 55.2585C213.158 54.6689 215.036 54.1952 216.66 53.2379C217.521 52.7294 217.086 51.5232 216.095 51.6341Z" fill="#A1A1A1"/>
<path d="M119.378 58.3522C111.816 56.6384 104.147 55.2845 96.5473 53.7261C88.94 52.1667 81.3366 50.5832 73.7244 49.0479C58.6306 46.0034 43.5919 42.6695 28.5522 39.3722C20.0347 37.5049 11.4544 35.712 3.07157 33.344C1.19825 32.8152 0.674384 35.1572 2.65878 35.4872C10.4489 36.7822 18.1742 38.5655 25.8857 40.2648C33.4616 41.9351 41.0414 43.5929 48.6231 45.2382C63.6589 48.5017 78.675 51.8454 93.7197 55.0674C102.124 56.8671 110.528 58.8713 118.976 60.4403C120.447 60.7134 120.847 58.6851 119.378 58.3522Z" fill="#A1A1A1"/>
<path d="M118.744 66.486C114.703 65.4863 110.558 64.8002 106.478 63.9597C102.377 63.1144 98.2764 62.2652 94.1768 61.4122C85.854 59.6801 77.54 57.9161 69.2329 56.1116C52.4623 52.4698 35.7076 48.7576 18.9685 44.9759C14.407 43.9453 9.85052 42.878 5.30873 41.7683C2.92235 41.1855 0.550703 40.5505 -1.83076 39.9522C-3.67756 39.4881 -5.27864 38.8107 -6.90232 39.6965C-7.06154 39.7834 -7.09888 40.013 -7.0006 40.1558C-6.11897 41.4431 -4.84912 41.584 -3.23035 41.9343C-1.13096 42.3878 0.979229 42.7989 3.08353 43.2273C7.25675 44.0756 11.4172 45.0116 15.5747 45.9341C23.9516 47.7926 32.3147 49.7081 40.6897 51.5705C57.1417 55.2287 73.6145 58.7875 90.0803 62.3839C94.6584 63.3836 99.2386 64.3785 103.819 65.3676C108.625 66.4059 113.443 67.6401 118.288 68.4671C119.695 68.7074 120.149 66.8334 118.744 66.486Z" fill="#A1A1A1"/>
<path d="M-16.4929 46.1335C-12.1919 47.2161 -7.78083 47.9698 -3.44249 48.9048C0.903708 49.8409 5.24893 50.7807 9.59316 51.7283C18.2797 53.6235 26.9613 55.5409 35.6389 57.4747C52.9923 61.3423 70.323 65.3035 87.6321 69.3525C97.4853 71.6569 107.242 74.2256 117.033 76.7413C119.013 77.2499 119.87 74.7805 117.911 74.3482C82.94 66.6284 48.0789 58.4233 13.1147 50.6534C8.29578 49.5822 3.47584 48.5131 -1.34606 47.4497C-6.25937 46.366 -11.1687 45.0855 -16.1194 44.1929C-17.4954 43.9439 -17.8443 45.7928 -16.4929 46.1335Z" fill="#A1A1A1"/>
<path d="M-6.21544 56.8516C-2.48451 58.302 1.98161 58.7584 5.9268 59.5622C9.88281 60.368 13.8368 61.1815 17.7889 62.0007C25.8189 63.6653 33.8557 65.2942 41.8798 66.9867C57.922 70.3709 73.9416 73.8438 89.9023 77.5782C98.9465 79.6944 107.977 81.8617 116.996 84.0773C118.734 84.5048 119.504 82.3635 117.769 81.9669C85.5895 74.6129 53.3861 67.1942 21.0658 60.4471C16.636 59.5227 12.2033 58.606 7.76966 57.6979C5.49336 57.2318 3.21607 56.7677 0.937807 56.3055C-1.31785 55.8481 -3.603 55.243 -5.89502 55.1861C-7.10984 55.1552 -7.3418 56.4135 -6.21544 56.8516Z" fill="#A1A1A1"/>
</g>
<path d="M203.066 23.5763C202.976 23.4277 202.86 23.3312 202.734 23.2579C202.452 22.3595 201.559 21.6367 200.348 22.1733C197.792 23.3052 194.869 23.888 192.184 24.687C189.6 25.4571 187.014 26.2204 184.426 26.9788C179.059 28.5498 173.679 30.0783 168.295 31.5885C157.723 34.5519 147.124 37.4401 136.441 39.9924C130.326 41.4534 124.168 42.7175 118.045 44.1456C117.431 44.2894 117.067 44.6793 116.912 45.1367C109.55 43.9922 102.259 42.3903 94.9315 41.051C87.3939 39.674 79.876 38.1985 72.3631 36.6951C57.3499 33.6902 42.2208 31.0134 27.3373 27.4285C23.2349 26.4404 19.1422 25.3943 15.0722 24.2837C12.4509 23.5686 9.83162 22.7783 7.19854 22.0546C26.9825 17.8898 46.6082 13.1074 66.1553 7.97181C72.0092 6.43365 77.9988 4.99102 83.7053 2.97809C85.0714 2.49561 84.2635 0.316714 82.8806 0.635154C77.5653 1.8626 72.3149 3.57445 67.0704 5.06919C61.8986 6.5427 56.711 7.95542 51.5058 9.31216C41.004 12.0498 30.4589 14.6253 19.8755 17.0387C14.0697 18.3626 8.25217 19.6325 2.42481 20.86C2.37271 20.8484 2.3216 20.8339 2.26951 20.8233C0.486604 20.4431 -0.452026 22.9616 1.23161 23.5484C1.44391 23.6806 1.65424 23.8147 1.85868 23.9575C1.97465 24.0386 2.08965 24.1206 2.20268 24.2055C2.24789 24.2393 2.2931 24.274 2.33733 24.3088C2.37074 24.3358 2.40318 24.3628 2.43659 24.3898C2.50146 24.4429 2.48083 24.4255 2.37468 24.3387C2.42776 24.3309 2.6145 24.5481 2.65774 24.5867C2.76193 24.6803 2.86414 24.7748 2.96439 24.8723C3.16686 25.0663 3.35852 25.2699 3.55312 25.4715C3.93447 25.8672 4.30206 26.2715 4.64017 26.7048C4.72666 26.8157 4.81119 26.9286 4.89473 27.0415C4.92422 27.0821 4.9537 27.1236 4.98318 27.1641C4.98613 27.1689 4.98319 27.1651 4.98614 27.1699C5.14045 27.4034 5.28984 27.6389 5.43138 27.8801C5.78226 28.4784 6.57836 28.8364 7.24081 28.4745C7.55041 28.3056 7.82757 28.0384 7.92291 27.6939C8.00842 27.386 8.03594 26.9759 7.84527 26.699C7.34598 25.9724 6.78181 25.3017 6.17342 24.6677C8.33178 25.0884 10.5029 25.4629 12.6514 25.8778C16.519 26.6256 20.3767 27.4102 24.2344 28.2063C31.7287 29.7512 39.167 31.5306 46.6063 33.3129C61.5742 36.8987 76.6601 39.9615 91.7146 43.1691C100.176 44.9716 108.732 46.3699 117.172 48.2612C118.232 48.4986 118.921 47.8772 119.095 47.138C129.723 44.5268 140.278 41.5836 150.872 38.8402C161.69 36.0389 172.514 33.2685 183.298 30.3398C186.282 29.5292 189.266 28.7196 192.246 27.8975C195.276 27.0618 198.373 25.8759 201.482 25.3972C201.64 25.3731 201.782 25.3326 201.911 25.2805C205.558 32.0729 207.161 39.6836 206.33 47.3464C205.912 51.1957 204.874 54.9639 203.321 58.5198C202.539 60.3108 201.654 62.0497 200.626 63.7162C199.817 65.0276 198.496 66.3544 197.891 67.8125C177.26 74.9233 156.655 82.1114 136.01 89.1827C130.055 91.2217 124.028 93.0223 118.046 94.9773C117.92 95.0188 117.806 95.069 117.7 95.1249C88.5026 87.41 58.9569 80.854 29.2883 75.1443C21.4883 73.6428 13.7257 71.9512 5.92673 70.4488C6.29727 70.0242 6.66289 69.5967 6.99608 69.1432C7.77549 68.0827 8.40943 66.943 8.95885 65.7532C9.25174 65.1202 8.73279 64.2604 8.08607 64.0867C7.31747 63.8802 6.69828 64.2643 6.38868 64.9436C6.36018 65.0063 6.33068 65.0691 6.30218 65.1318C6.28547 65.1675 6.27662 65.1897 6.27269 65.2003C6.22355 65.3093 6.15967 65.4164 6.1066 65.5178C5.97882 65.7629 5.84515 66.0051 5.70559 66.2444C5.40974 66.7529 5.08737 67.246 4.74239 67.7227C4.58022 67.9466 4.41214 68.1676 4.23916 68.3847C4.15266 68.4928 4.0652 68.5999 3.97576 68.707C3.96003 68.7253 3.96297 68.7244 3.95118 68.7388C3.91383 68.7852 3.87157 68.8295 3.83324 68.873C3.43813 69.3149 3.00862 69.7144 2.53685 70.0763C2.20661 70.3301 2.07393 70.7576 2.09653 71.1764C1.97073 71.8673 2.34913 72.6441 3.37818 72.8207C11.0022 74.1263 18.6449 75.2697 26.2277 76.8002C33.7092 78.3104 41.1691 79.9334 48.628 81.545C63.365 84.7293 78.0224 88.1511 92.6129 91.927C100.976 94.0915 109.358 96.1855 117.706 98.4078C118.588 98.6423 119.274 98.1878 119.596 97.5596C129.849 93.9564 140.082 90.3406 150.4 86.9092C160.72 83.4768 171.034 80.027 181.36 76.6111C187.246 74.6637 193.129 72.7058 199.011 70.746C199.693 70.5182 200.063 70.0724 200.182 69.588C201.575 68.5864 202.599 66.4818 203.395 65.1549C204.445 63.4064 205.384 61.572 206.143 59.6826C207.699 55.8044 208.654 51.6463 208.928 47.4864C209.477 39.1895 207.366 30.7162 203.066 23.5763Z" fill="#DC7643"/>
</svg>
