<svg width="201" height="123" viewBox="0 0 201 123" fill="none" xmlns="http://www.w3.org/2000/svg">
<path d="M1.20141 66.4075L99.7242 0.751953L191.366 20.7442C190.616 22.9491 190.223 25.1242 190.119 27.2404C189.653 35.5294 193.458 42.8951 196.589 47.4709C198.698 50.5463 200.503 52.3633 200.503 52.3633L97.8449 122.807L9.19991 87.6185C9.19991 87.6185 -3.3738 79.5591 1.20141 66.4075Z" fill="#A974C0"/>
<path d="M6.31758 69.558L91.9147 96.0715L190.118 27.2402C189.652 35.5293 193.458 42.8949 196.588 47.4708L95.9808 116.042L13.2507 85.7492C13.2507 85.7492 4.18281 80.1379 6.31758 69.558Z" fill="#FDF9F7"/>
<mask id="mask0_3649_1768" style="mask-type:luminance" maskUnits="userSpaceOnUse" x="5" y="27" width="192" height="90">
<path d="M6.31758 69.558L91.9147 96.0715L190.118 27.2402C189.652 35.5293 193.458 42.8949 196.588 47.4708L95.9808 116.042L13.2507 85.7492C13.2507 85.7492 4.18281 80.1379 6.31758 69.558Z" fill="white"/>
</mask>
<g mask="url(#mask0_3649_1768)">
<path d="M94.141 101.759C107.605 92.4879 121.004 83.1181 134.282 73.5919C147.531 64.086 160.518 54.2337 173.688 44.6216C177.387 41.9216 181.079 39.212 184.761 36.4879C188.475 33.7396 192.286 31.0734 195.888 28.1863C196.905 27.3718 195.533 26.0035 194.515 26.7455C191.229 29.1445 188.079 31.7422 184.86 34.2299C181.638 36.7195 178.41 39.2023 175.177 41.6765C168.706 46.6297 162.182 51.5115 155.594 56.3141C149.079 61.0637 142.441 65.6589 135.866 70.3284C129.198 75.0654 122.53 79.8034 115.826 84.4922C108.329 89.7368 100.777 94.9071 93.2033 100.044C92.1654 100.749 93.0992 102.476 94.141 101.759Z" fill="#A1A1A1"/>
<path d="M96.9436 112.324C110.56 103.271 124.115 94.1179 137.549 84.8059C150.955 75.5142 164.105 65.8723 177.433 56.4735C181.177 53.8333 184.913 51.1835 188.639 48.5192C192.399 45.8308 196.255 43.2273 199.905 40.398C200.934 39.6 199.585 38.2095 198.555 38.9351C195.228 41.281 192.036 43.8285 188.776 46.2631C185.513 48.7006 182.245 51.1314 178.97 53.5535C172.416 58.4015 165.813 63.1781 159.147 67.8746C152.553 72.519 145.84 77.0061 139.187 81.5704C132.44 86.1993 125.694 90.8293 118.913 95.4109C111.33 100.534 103.694 105.583 96.0344 110.597C94.9857 111.283 95.8899 113.025 96.9436 112.324Z" fill="#A1A1A1"/>
<path d="M96.7219 107.267C103.259 102.507 109.847 97.8176 116.407 93.0893C123.012 88.3281 129.645 83.5989 136.42 79.0722C149.889 70.0729 163.13 60.7551 176.399 51.4769C183.866 46.2564 191.357 41.0697 198.848 35.882C199.352 35.5327 199.612 34.948 199.302 34.3719C199.043 33.8923 198.26 33.5739 197.764 33.9261C184.495 43.3239 171.188 52.6677 157.89 62.025C144.584 71.3881 131.553 81.1189 118.111 90.2948C110.592 95.4274 103.091 100.582 95.5396 105.668C94.3405 106.475 95.5317 108.132 96.7219 107.267Z" fill="#A1A1A1"/>
<path d="M96.8831 110.736C81.4286 105.216 65.928 99.8056 50.3673 94.5823C34.8401 89.3705 19.1734 84.5678 3.60292 79.4814C-0.770802 78.0523 -5.14846 76.6348 -9.53201 75.2346C-13.9549 73.8209 -18.364 72.2828 -22.8389 71.0389C-24.1009 70.6877 -24.4567 72.5761 -23.2547 72.9698C-19.3685 74.2397 -15.3948 75.2848 -11.4741 76.4495C-7.54958 77.6152 -3.62798 78.7886 0.290682 79.9716C8.13291 82.3397 15.9466 84.7897 23.7309 87.3382C31.4296 89.8587 39.0684 92.5655 46.7347 95.1796C54.5101 97.8303 62.2865 100.479 70.0422 103.186C78.7169 106.212 87.3592 109.324 95.9877 112.474C97.1721 112.903 98.0792 111.163 96.8831 110.736Z" fill="#A1A1A1"/>
<path d="M93.9376 100.237C78.2984 95.2453 62.6169 90.3636 46.8813 85.6719C31.1801 80.9898 15.3532 76.7218 -0.386345 72.1662C-4.80823 70.8866 -9.23305 69.6186 -13.6628 68.3671C-18.1328 67.1049 -22.5931 65.7163 -27.1093 64.6249C-28.3831 64.3171 -28.672 66.2162 -27.4562 66.5684C-23.5277 67.7051 -19.5196 68.6151 -15.5597 69.6457C-11.5968 70.6772 -7.63591 71.7165 -3.67794 72.7664C4.2439 74.8671 12.1382 77.0499 20.008 79.333C27.7902 81.59 35.5204 84.0362 43.2742 86.3888C51.1381 88.7742 59.0029 91.1577 66.85 93.5991C75.625 96.329 84.3724 99.1467 93.1071 102.001C94.3032 102.394 95.1485 100.623 93.9376 100.237Z" fill="#A1A1A1"/>
<path d="M96.0202 105.565C88.2458 103.204 80.4979 100.763 72.7343 98.3658C64.9176 95.9524 57.1108 93.4985 49.3855 90.812C34.0283 85.4719 18.5444 80.4994 3.07616 75.4816C-5.62803 72.6581 -14.3175 69.794 -23.0089 66.9319C-23.5937 66.7389 -24.2286 66.8788 -24.5186 67.4655C-24.7594 67.9538 -24.5579 68.7625 -23.9751 68.9468C-8.40952 73.8932 7.13537 78.9024 22.6852 83.8961C38.2448 88.8927 53.943 93.4541 69.4299 98.6698C78.0919 101.587 86.7626 104.477 95.4059 107.447C96.779 107.919 97.4355 105.996 96.0202 105.565Z" fill="#A1A1A1"/>
</g>
<path d="M186.326 21.6173C179.657 25.2408 173.292 29.5465 166.891 33.6071C160.594 37.602 154.337 41.6559 148.142 45.8014C141.79 50.0531 135.53 54.4398 129.312 58.8777C123.253 63.2008 117.307 67.7101 111.093 71.818C103.878 76.5878 96.3859 81.0276 89.3044 85.9779C88.9191 86.2471 88.6931 86.5743 88.5889 86.9188C83.9409 85.2252 79.1023 83.9119 74.3905 82.422C69.3602 80.8317 64.3064 79.3669 59.2152 77.9802C48.9521 75.1847 38.8474 71.8556 28.7033 68.6721C22.9211 66.858 17.0712 65.1452 11.4109 62.9837C9.7646 62.3555 8.79844 65.0381 10.4546 65.4617C20.7353 68.0883 30.7978 71.7263 40.8907 74.9647C45.9967 76.6032 51.1076 78.208 56.1457 80.0405C61.0865 81.8372 66.0205 83.6321 71.0331 85.2281C76.7926 87.0616 82.5462 89.2125 88.4061 90.7092C89.5648 91.0054 90.476 90.3212 90.7797 89.473C91.1197 89.4431 91.4677 89.3254 91.8038 89.0697C97.8022 84.5015 103.514 79.5773 109.541 75.0342C115.579 70.4843 121.9 66.3437 128.258 62.2397C140.891 54.0857 153.598 46.0369 166.327 38.0276C169.901 35.7783 173.489 33.5521 177.081 31.3278C180.745 29.0582 184.529 26.9218 188.095 24.5084C189.692 23.4286 188.051 20.6804 186.326 21.6173Z" fill="#C1A4C8"/>
<path d="M135.305 34.0893C132.071 33.1494 128.317 33.1127 124.863 32.6042C121.816 32.1555 117.104 29.6109 119.243 27.5497C120.083 26.7401 118.34 25.9729 117.441 26.6648C115.976 27.3017 113.216 28.8437 109.712 28.1171C106.688 27.4899 104.273 25.9305 101.853 24.6789C97.2808 22.3138 90.6386 20.9782 84.5587 21.9625C79.3289 22.8098 74.1345 25.4142 72.2218 28.9229C70.3721 32.3176 72.0007 36.164 76.2358 38.008C79.3092 39.3455 83.0785 38.916 86.5961 39.33C87.5308 39.44 88.5677 39.6359 89.4051 39.9901C89.8799 41.0544 89.7078 42.2433 88.4783 43.5084C87.5426 44.4714 89.1299 45.7094 90.6425 45.0658C96.7087 42.4826 103.32 42.2722 108.936 44.6769C111.73 45.8735 114.21 47.4049 117.287 48.3081C120.339 49.2036 123.76 49.6784 127.23 49.4178C132.69 49.0077 138.324 46.6291 140.355 42.9737C142.368 39.3513 140.269 35.5329 135.305 34.0893Z" fill="#C1A4C8"/>
</svg>
