<svg width="894" height="534" viewBox="0 0 894 534" fill="none" xmlns="http://www.w3.org/2000/svg">
<path d="M782.972 421.484C786.271 421.484 788.945 418.689 788.945 415.242C788.945 411.795 786.271 409 782.972 409C779.674 409 777 411.795 777 415.242C777 418.689 779.674 421.484 782.972 421.484Z" fill="#704FE6" fill-opacity="0.18"/>
<path d="M809.08 421.484C812.378 421.484 815.052 418.689 815.052 415.242C815.052 411.795 812.378 409 809.08 409C805.781 409 803.107 411.795 803.107 415.242C803.107 418.689 805.781 421.484 809.08 421.484Z" fill="#704FE6" fill-opacity="0.18"/>
<path d="M835.185 421.484C838.484 421.484 841.158 418.689 841.158 415.242C841.158 411.795 838.484 409 835.185 409C831.887 409 829.213 411.795 829.213 415.242C829.213 418.689 831.887 421.484 835.185 421.484Z" fill="#704FE6" fill-opacity="0.18"/>
<path d="M861.337 421.484C864.636 421.484 867.31 418.689 867.31 415.242C867.31 411.795 864.636 409 861.337 409C858.039 409 855.365 411.795 855.365 415.242C855.365 418.689 858.039 421.484 861.337 421.484Z" fill="#704FE6" fill-opacity="0.18"/>
<path d="M887.445 421.484C890.744 421.484 893.417 418.689 893.417 415.242C893.417 411.795 890.744 409 887.445 409C884.147 409 881.473 411.795 881.473 415.242C881.473 418.689 884.147 421.484 887.445 421.484Z" fill="#704FE6" fill-opacity="0.18"/>
<path d="M782.972 443.967C786.271 443.967 788.945 441.172 788.945 437.725C788.945 434.278 786.271 431.483 782.972 431.483C779.674 431.483 777 434.278 777 437.725C777 441.172 779.674 443.967 782.972 443.967Z" fill="#704FE6" fill-opacity="0.18"/>
<path d="M809.08 443.967C812.378 443.967 815.052 441.172 815.052 437.725C815.052 434.278 812.378 431.483 809.08 431.483C805.781 431.483 803.107 434.278 803.107 437.725C803.107 441.172 805.781 443.967 809.08 443.967Z" fill="#704FE6" fill-opacity="0.18"/>
<path d="M835.185 443.967C838.484 443.967 841.158 441.172 841.158 437.725C841.158 434.278 838.484 431.483 835.185 431.483C831.887 431.483 829.213 434.278 829.213 437.725C829.213 441.172 831.887 443.967 835.185 443.967Z" fill="#704FE6" fill-opacity="0.18"/>
<path d="M861.337 443.967C864.636 443.967 867.31 441.172 867.31 437.725C867.31 434.278 864.636 431.483 861.337 431.483C858.039 431.483 855.365 434.278 855.365 437.725C855.365 441.172 858.039 443.967 861.337 443.967Z" fill="#704FE6" fill-opacity="0.18"/>
<path d="M887.445 443.967C890.744 443.967 893.417 441.172 893.417 437.725C893.417 434.278 890.744 431.483 887.445 431.483C884.147 431.483 881.473 434.278 881.473 437.725C881.473 441.172 884.147 443.967 887.445 443.967Z" fill="#704FE6" fill-opacity="0.18"/>
<path d="M782.972 466.451C786.271 466.451 788.945 463.657 788.945 460.21C788.945 456.762 786.271 453.968 782.972 453.968C779.674 453.968 777 456.762 777 460.21C777 463.657 779.674 466.451 782.972 466.451Z" fill="#704FE6" fill-opacity="0.18"/>
<path d="M809.08 466.451C812.378 466.451 815.052 463.657 815.052 460.21C815.052 456.762 812.378 453.968 809.08 453.968C805.781 453.968 803.107 456.762 803.107 460.21C803.107 463.657 805.781 466.451 809.08 466.451Z" fill="#704FE6" fill-opacity="0.18"/>
<path d="M835.185 466.451C838.484 466.451 841.158 463.657 841.158 460.21C841.158 456.762 838.484 453.968 835.185 453.968C831.887 453.968 829.213 456.762 829.213 460.21C829.213 463.657 831.887 466.451 835.185 466.451Z" fill="#704FE6" fill-opacity="0.18"/>
<path d="M861.337 466.451C864.636 466.451 867.31 463.657 867.31 460.21C867.31 456.762 864.636 453.968 861.337 453.968C858.039 453.968 855.365 456.762 855.365 460.21C855.365 463.657 858.039 466.451 861.337 466.451Z" fill="#704FE6" fill-opacity="0.18"/>
<path d="M887.445 466.451C890.744 466.451 893.417 463.657 893.417 460.21C893.417 456.762 890.744 453.968 887.445 453.968C884.147 453.968 881.473 456.762 881.473 460.21C881.473 463.657 884.147 466.451 887.445 466.451Z" fill="#704FE6" fill-opacity="0.18"/>
<path d="M782.972 488.935C786.271 488.935 788.945 486.14 788.945 482.693C788.945 479.246 786.271 476.451 782.972 476.451C779.674 476.451 777 479.246 777 482.693C777 486.14 779.674 488.935 782.972 488.935Z" fill="#704FE6" fill-opacity="0.18"/>
<path d="M809.08 488.935C812.378 488.935 815.052 486.14 815.052 482.693C815.052 479.246 812.378 476.451 809.08 476.451C805.781 476.451 803.107 479.246 803.107 482.693C803.107 486.14 805.781 488.935 809.08 488.935Z" fill="#704FE6" fill-opacity="0.18"/>
<path d="M835.185 488.935C838.484 488.935 841.158 486.14 841.158 482.693C841.158 479.246 838.484 476.451 835.185 476.451C831.887 476.451 829.213 479.246 829.213 482.693C829.213 486.14 831.887 488.935 835.185 488.935Z" fill="#704FE6" fill-opacity="0.18"/>
<path d="M861.337 488.935C864.636 488.935 867.31 486.14 867.31 482.693C867.31 479.246 864.636 476.451 861.337 476.451C858.039 476.451 855.365 479.246 855.365 482.693C855.365 486.14 858.039 488.935 861.337 488.935Z" fill="#704FE6" fill-opacity="0.18"/>
<path d="M887.445 488.935C890.744 488.935 893.417 486.14 893.417 482.693C893.417 479.246 890.744 476.451 887.445 476.451C884.147 476.451 881.473 479.246 881.473 482.693C881.473 486.14 884.147 488.935 887.445 488.935Z" fill="#704FE6" fill-opacity="0.18"/>
<path d="M782.972 511.418C786.271 511.418 788.945 508.624 788.945 505.176C788.945 501.729 786.271 498.935 782.972 498.935C779.674 498.935 777 501.729 777 505.176C777 508.624 779.674 511.418 782.972 511.418Z" fill="#704FE6" fill-opacity="0.18"/>
<path d="M809.08 511.418C812.378 511.418 815.052 508.624 815.052 505.176C815.052 501.729 812.378 498.935 809.08 498.935C805.781 498.935 803.107 501.729 803.107 505.176C803.107 508.624 805.781 511.418 809.08 511.418Z" fill="#704FE6" fill-opacity="0.18"/>
<path d="M835.185 511.418C838.484 511.418 841.158 508.624 841.158 505.176C841.158 501.729 838.484 498.935 835.185 498.935C831.887 498.935 829.213 501.729 829.213 505.176C829.213 508.624 831.887 511.418 835.185 511.418Z" fill="#704FE6" fill-opacity="0.18"/>
<path d="M861.337 511.418C864.636 511.418 867.31 508.624 867.31 505.176C867.31 501.729 864.636 498.935 861.337 498.935C858.039 498.935 855.365 501.729 855.365 505.176C855.365 508.624 858.039 511.418 861.337 511.418Z" fill="#704FE6" fill-opacity="0.18"/>
<path d="M887.445 511.418C890.744 511.418 893.417 508.624 893.417 505.176C893.417 501.729 890.744 498.935 887.445 498.935C884.147 498.935 881.473 501.729 881.473 505.176C881.473 508.624 884.147 511.418 887.445 511.418Z" fill="#704FE6" fill-opacity="0.18"/>
<path d="M782.972 533.902C786.271 533.902 788.945 531.107 788.945 527.66C788.945 524.213 786.271 521.418 782.972 521.418C779.674 521.418 777 524.213 777 527.66C777 531.107 779.674 533.902 782.972 533.902Z" fill="#704FE6" fill-opacity="0.18"/>
<path d="M809.08 533.902C812.378 533.902 815.052 531.107 815.052 527.66C815.052 524.213 812.378 521.418 809.08 521.418C805.781 521.418 803.107 524.213 803.107 527.66C803.107 531.107 805.781 533.902 809.08 533.902Z" fill="#704FE6" fill-opacity="0.18"/>
<path d="M835.185 533.902C838.484 533.902 841.158 531.107 841.158 527.66C841.158 524.213 838.484 521.418 835.185 521.418C831.887 521.418 829.213 524.213 829.213 527.66C829.213 531.107 831.887 533.902 835.185 533.902Z" fill="#704FE6" fill-opacity="0.18"/>
<path d="M861.337 533.902C864.636 533.902 867.31 531.107 867.31 527.66C867.31 524.213 864.636 521.418 861.337 521.418C858.039 521.418 855.365 524.213 855.365 527.66C855.365 531.107 858.039 533.902 861.337 533.902Z" fill="#704FE6" fill-opacity="0.18"/>
<path d="M887.445 533.902C890.744 533.902 893.417 531.107 893.417 527.66C893.417 524.213 890.744 521.418 887.445 521.418C884.147 521.418 881.473 524.213 881.473 527.66C881.473 531.107 884.147 533.902 887.445 533.902Z" fill="#704FE6" fill-opacity="0.18"/>
<path d="M109.166 136.807C94.1385 136.807 81.9199 124.551 81.9199 109.478C81.9199 94.4041 94.1385 82.1484 109.166 82.1484C124.194 82.1484 136.413 94.4041 136.413 109.478C136.39 124.551 124.171 136.807 109.166 136.807ZM109.166 93.6253C100.442 93.6253 93.3392 100.75 93.3392 109.501C93.3392 118.251 100.442 125.376 109.166 125.376C117.89 125.376 124.993 118.251 124.993 109.501C124.993 100.75 117.89 93.6253 109.166 93.6253Z" fill="#9767F8" fill-opacity="0.2"/>
<path d="M109.213 157.63C105.925 157.63 102.636 157.286 99.3929 156.622C86.8546 154.01 76.0749 146.634 69.0406 135.89C62.0064 125.146 59.5854 112.295 62.189 99.6955C64.45 88.7914 70.4566 78.9639 79.0667 71.9999C87.5854 65.1275 98.251 61.3477 109.122 61.3477C112.411 61.3477 115.7 61.6913 118.943 62.3556C131.481 64.9671 142.261 72.3434 149.295 83.0873C156.329 93.8311 158.75 106.683 156.147 119.282C153.886 130.186 147.879 140.014 139.269 146.978C130.727 153.85 120.062 157.63 109.213 157.63ZM109.122 72.8016C91.9248 72.8016 76.8742 85.0802 73.3571 102.009C69.2462 121.802 81.9672 141.274 101.7 145.397C104.166 145.924 106.701 146.176 109.191 146.176C126.388 146.176 141.439 133.897 144.956 116.968C146.943 107.37 145.093 97.588 139.748 89.387C134.404 81.1859 126.182 75.5735 116.613 73.5805C114.147 73.0765 111.612 72.8016 109.122 72.8016Z" fill="#9767F8" fill-opacity="0.2"/>
<path d="M109.237 177.765C107.136 177.765 105.012 177.674 102.888 177.468C84.777 175.795 68.4247 167.136 56.7999 153.116C45.1751 139.097 39.7168 121.366 41.384 103.223C42.9598 86.1793 50.7706 70.4415 63.4231 58.9646C75.9843 47.5336 92.1996 41.2568 109.077 41.2568C111.178 41.2568 113.302 41.3484 115.426 41.5546C133.537 43.2269 149.89 51.8861 161.514 65.9058C173.139 79.9254 178.598 97.6562 176.93 115.822C175.354 132.866 167.544 148.603 154.891 160.08C142.33 171.466 126.115 177.765 109.237 177.765ZM109.077 52.6879C79.6841 52.6879 55.4753 74.8628 52.7575 104.277C49.8798 135.477 72.8325 163.196 103.939 166.082C105.697 166.243 107.479 166.334 109.237 166.334C138.63 166.334 162.839 144.159 165.557 114.745C168.434 83.5449 145.482 55.8263 114.376 52.9399C112.617 52.7566 110.836 52.6879 109.077 52.6879Z" fill="#9767F8" fill-opacity="0.2"/>
<path d="M109.213 198.291C108.185 198.291 107.134 198.268 106.084 198.245C94.1391 197.833 82.6285 195.084 71.8716 190.067C61.4801 185.233 52.2533 178.498 44.3969 170.068C36.5405 161.638 30.5111 151.925 26.423 141.204C22.1751 130.094 20.2566 118.388 20.6677 106.407C21.467 83.2471 31.0592 61.6449 47.7085 45.5635C64.2892 29.528 86.1 20.6855 109.098 20.6855C110.126 20.6855 111.177 20.7084 112.227 20.7314C124.172 21.1437 135.682 23.8926 146.439 28.9095C156.831 33.7431 166.057 40.478 173.914 48.9081C181.77 57.3383 187.8 67.0512 191.888 77.7721C196.136 88.8825 198.054 100.588 197.643 112.569C196.844 135.729 187.252 157.331 170.602 173.413C154.022 189.471 132.211 198.291 109.213 198.291ZM109.098 32.1395C67.3496 32.1395 33.5258 64.9436 32.0869 106.819C30.6024 149.451 63.9923 185.325 106.472 186.814C107.385 186.837 108.299 186.86 109.19 186.86C150.938 186.86 184.762 154.056 186.201 112.18C187.686 69.5482 154.296 33.6743 111.816 32.1853C110.925 32.1624 110.012 32.1395 109.098 32.1395Z" fill="#9767F8" fill-opacity="0.2"/>
<path d="M109.168 219C94.4371 219 80.1402 216.114 66.6655 210.387C53.6704 204.866 42 196.985 31.9739 186.929C21.9478 176.872 14.0685 165.166 8.58729 152.132C2.90051 138.616 0 124.276 0 109.5C0 94.7244 2.87767 80.384 8.58729 66.8683C14.0914 53.8337 21.9478 42.1277 31.9739 32.0711C42 22.0145 53.6704 14.1113 66.6655 8.61341C80.1402 2.90933 94.4371 0 109.168 0C123.899 0 138.196 2.88642 151.67 8.61341C164.665 14.1342 176.336 22.0145 186.362 32.0711C196.388 42.1277 204.267 53.8337 209.749 66.8683C215.435 80.384 218.336 94.7244 218.336 109.5C218.336 124.276 215.458 138.616 209.749 152.132C204.244 165.166 196.388 176.872 186.362 186.929C176.336 196.985 164.665 204.889 151.67 210.387C138.196 216.114 123.899 219 109.168 219ZM109.168 11.431C55.2691 11.431 11.4192 55.4143 11.4192 109.477C11.4192 163.54 55.2691 207.523 109.168 207.523C163.067 207.523 206.917 163.54 206.917 109.477C206.917 55.4372 163.067 11.431 109.168 11.431Z" fill="#9767F8" fill-opacity="0.2"/>
</svg>
