<svg width="175" height="217" viewBox="0 0 175 217" fill="none" xmlns="http://www.w3.org/2000/svg">
<path d="M70.0414 97.3867C69.9954 98.3387 45.4023 181.065 45.4023 181.065L66.5773 171.594L78.1783 197.166L93.0913 98.6697L70.0414 97.3867Z" fill="#804EE6"/>
<path d="M88.0684 100.877L93.0923 195.713L111.536 169.699L135.375 186.747L111.536 93.6084L88.0684 100.877Z" fill="#804EE6"/>
<g opacity="0.5">
<path d="M68.4414 103.654C69.4674 107.181 72.8944 109.866 76.5644 110.019C78.7344 110.109 81.1214 109.448 82.9484 110.622C84.7694 111.793 85.5534 114.55 87.6984 114.848C90.2234 115.199 91.6624 111.836 94.0854 111.044C97.3314 109.982 100.74 113.901 103.936 112.696C106.005 111.916 106.981 109.259 109.117 108.688C110.053 108.438 111.041 108.645 112.001 108.78C112.96 108.915 114.446 108.688 115.263 108.168L114.092 103.594L112.106 94.7227H69.2474L68.4414 103.654Z" fill="black"/>
</g>
<path d="M93.4922 29.8103C95.6302 29.9963 97.7012 30.4173 99.6772 31.0513C99.6642 30.7263 99.7562 30.3723 99.8722 30.0613C101.678 25.2163 103.484 20.3723 105.29 15.5273L105.418 15.4153C104.729 15.0333 104.194 14.5203 103.629 13.6143C102.724 12.1623 100.774 10.8713 98.7562 11.0103C97.7802 15.1303 96.5662 20.7733 95.6862 24.2833C95.2012 26.2153 94.6542 28.2333 93.4922 29.8103Z" fill="#804EE6"/>
<path d="M67.3933 73.9912C66.0623 72.0152 64.9773 69.8602 64.1723 67.5732C63.9303 67.8512 63.5383 68.0263 63.1753 68.1562C63.0393 68.2053 62.8893 68.2532 62.7483 68.3022C62.5033 68.4602 62.2293 68.6142 61.9093 68.7502C61.1323 69.0892 60.1733 69.3372 59.1293 69.6402C58.0583 69.9382 56.9123 70.2562 55.7113 70.5902C53.2813 71.2502 51.0753 71.8192 49.4703 72.2062C47.8663 72.5932 46.8643 72.7982 46.8453 72.7282C46.8263 72.6592 47.7943 72.3283 49.3733 71.8503C50.0063 71.6593 50.7403 71.4432 51.5453 71.2112C49.8113 71.5982 48.1073 71.9692 46.5363 72.3242C45.8873 75.1602 43.8783 78.2062 45.6513 80.3872C45.8393 80.6192 46.0593 80.8082 46.2953 80.9762C52.6663 78.6162 60.8413 75.5602 66.1933 74.1502C66.5863 74.0472 66.9923 73.9512 67.3933 73.9912Z" fill="#804EE6"/>
<path d="M83.7885 29.0973C83.7975 29.3773 83.7975 29.6253 83.7925 29.8433C83.7945 30.1033 83.7955 30.3633 83.7985 30.6143C86.0465 30.0283 88.4015 29.7123 90.8295 29.6993C90.8325 29.5713 90.8375 29.4423 90.8455 29.3153C90.9565 27.5623 91.0665 25.8093 91.1765 24.0573C91.1805 23.7033 91.1855 23.3443 91.1925 22.9763C91.2575 19.1963 91.4045 16.0673 91.5385 15.4533C90.4835 14.2043 89.4735 11.5833 87.3285 11.3033C85.5545 11.0723 84.6375 11.3153 83.8935 12.0233C83.9015 17.2783 83.7725 23.9313 83.7885 29.0973Z" fill="#804EE6"/>
<path d="M56.1576 47.5296C56.6046 47.7016 57.0456 47.8605 57.4826 48.0125C55.6076 47.2705 53.6946 46.4705 51.8496 45.6855C53.1216 46.2725 54.5666 46.9166 56.1576 47.5296Z" fill="#804EE6"/>
<path d="M62.5934 56.7199C62.7024 54.4789 63.0774 52.3089 63.6764 50.2329C63.1194 50.0619 62.5404 49.8719 61.9484 49.6699C60.2414 49.4159 58.1774 48.8609 55.9694 48.0149C53.4054 47.0279 51.1964 45.8929 49.6174 45.0509C48.5214 44.4599 47.7384 44.0089 47.3674 43.7649C46.9554 43.5889 46.5554 43.4189 46.1654 43.2539C45.3874 44.5269 44.1554 45.5609 43.3174 46.8279C42.8644 47.5119 42.6194 48.3979 42.6074 49.2389C49.1144 51.0259 56.9794 53.3739 62.4514 56.6319C62.4984 56.6599 62.5454 56.6909 62.5934 56.7199Z" fill="#804EE6"/>
<path d="M64.7863 47.0776C65.5853 45.1856 66.5893 43.4026 67.7593 41.7456C67.6213 41.6576 67.4774 41.5646 67.3264 41.4656C66.0614 40.6356 64.3673 39.4046 62.6053 37.9096C60.8443 36.4126 59.3544 34.9416 58.3304 33.8276C58.3074 33.8026 58.2874 33.7806 58.2654 33.7556C57.0444 32.6996 55.8843 31.6826 54.8503 30.7656C54.7043 31.2006 54.4933 31.5996 54.1593 31.9346C52.6083 33.4866 49.7023 32.4806 47.9913 33.8536C47.3383 34.3786 47.0343 35.0656 46.9023 35.8406C52.2173 38.6456 57.3463 42.1646 62.6703 45.7656C63.5223 46.2746 64.2473 46.7246 64.7863 47.0776Z" fill="#804EE6"/>
<path d="M67.5067 37.2195C68.2057 38.1975 68.8347 39.0835 69.2947 39.7615C70.8497 37.9265 72.6327 36.2935 74.6007 34.9025C73.9977 34.1405 73.2587 33.1565 72.4447 32.0505C71.7117 31.2085 70.8807 30.2175 70.0107 29.1235C68.7347 27.5175 67.6357 26.0195 66.8747 24.9115C66.1127 23.8035 65.6837 23.0895 65.7407 23.0485C65.7827 23.0185 66.0517 23.3175 66.4847 23.8435C65.7777 22.8785 65.1197 21.9905 64.5387 21.2305C64.0657 22.1535 63.4977 22.9815 62.6197 23.5035C61.3567 24.2555 59.6937 24.2145 58.2617 24.5265C60.8617 27.5845 63.7597 31.6115 66.2217 35.4435C66.6087 35.9715 67.0417 36.5705 67.5067 37.2195Z" fill="#804EE6"/>
<path d="M76.3676 33.7426C77.9946 32.7646 79.7296 31.9486 81.5476 31.3076C81.4846 31.0996 81.4186 30.8786 81.3476 30.6326C80.9606 29.2826 80.4936 27.3976 80.0826 25.2936C79.6736 23.1886 79.3986 21.2656 79.2516 19.8696C79.1316 18.7396 79.0896 17.9646 79.1136 17.7016C79.0936 17.5686 79.0736 17.4416 79.0546 17.3126C77.7616 17.4536 76.2776 16.9546 75.3316 16.1046C73.6796 14.6216 70.8856 14.8086 68.7246 15.7466C70.9976 21.2326 74.4086 28.7566 76.2936 33.5476C76.3186 33.6116 76.3426 33.6776 76.3676 33.7426Z" fill="#804EE6"/>
<path d="M69.0417 40.0518C69.0197 40.0258 68.9937 39.9938 68.9707 39.9668C68.9897 40.0008 69.0097 40.0348 69.0287 40.0678C69.0327 40.0628 69.0377 40.0568 69.0417 40.0518Z" fill="#804EE6"/>
<path d="M63.6708 66.0008C63.0388 63.8058 62.6648 61.5018 62.5828 59.1238C62.5268 59.1278 62.4708 59.1328 62.4168 59.1358C60.4368 59.2398 58.0798 59.2068 55.6168 59.1128C54.8688 59.1158 54.0958 59.1138 53.2798 59.0968C50.8998 59.0448 48.7488 58.9028 47.1968 58.7508C46.4938 58.6818 45.9208 58.6128 45.4968 58.5518C44.9778 58.5218 44.4698 58.4928 43.9818 58.4668C43.6438 58.9878 43.3018 59.5068 42.9978 60.0428C42.1328 61.5688 41.5828 63.4968 42.4028 65.0478C42.4288 65.0958 42.4648 65.1358 42.4918 65.1828C49.1068 65.3388 55.7198 65.5298 62.3318 65.7668C62.7888 65.7818 63.2598 65.8078 63.6708 66.0008Z" fill="#804EE6"/>
<path d="M72.9638 80.7095C73.1218 80.6045 73.2598 80.5165 73.3828 80.4425C71.4948 78.9515 69.7988 77.2285 68.3428 75.3125C68.1908 75.6435 67.8728 75.9245 67.5648 76.1505C67.4558 76.4325 67.2558 76.6975 66.9988 76.9255C65.7158 77.9015 63.9158 79.0355 61.9138 80.3495C59.9108 81.6445 58.0818 82.7935 56.7438 83.6025C55.4058 84.4115 54.5588 84.8815 54.5198 84.8215C54.4808 84.7615 55.2568 84.1815 56.5438 83.2935C57.2758 82.7885 58.1848 82.1765 59.1898 81.5105C57.2548 82.6835 55.3008 83.8545 53.5508 84.9255C53.8778 86.3965 53.3608 88.1225 54.0378 89.5105C54.7038 90.8775 56.1148 91.3165 57.6848 91.5935C61.6498 88.6465 65.6148 85.6995 69.5808 82.7515C70.6338 81.9695 71.7528 81.1715 72.9638 80.7095Z" fill="#804EE6"/>
<path d="M127.303 85.3115C127.871 85.7545 128.416 86.1835 128.928 86.5915C128.964 86.5585 128.993 86.5175 129.031 86.4855C128.862 86.3725 128.687 86.2545 128.502 86.1295C128.133 85.8795 127.729 85.6035 127.303 85.3115Z" fill="#804EE6"/>
<path d="M112.451 76.7656C110.946 78.4976 109.235 80.0446 107.355 81.3706C107.803 81.8106 108.297 82.3966 108.825 83.0936C108.881 83.1326 108.938 83.1676 108.993 83.2136C109.794 83.8596 110.294 84.9166 110.946 85.9696C111.588 87.0656 112.28 88.2456 113.006 89.4846C113.029 89.5246 113.051 89.5636 113.074 89.6036C114.413 91.8346 115.746 94.1566 116.93 96.1776C117.076 95.8506 117.266 95.5466 117.522 95.2796C119.6 93.1126 123.817 95.2276 126.021 93.1896C126.245 92.9826 126.422 92.7456 126.574 92.4946C122.528 88.0846 117.124 81.9006 113.691 78.2906C113.24 77.8136 112.785 77.3246 112.451 76.7656ZM114.039 81.5026C114.172 81.4336 115.156 83.1106 116.519 85.0746C117.874 87.0426 119.097 88.5556 118.985 88.6556C118.885 88.7496 117.469 87.3706 116.091 85.3706C114.707 83.3746 113.916 81.5626 114.039 81.5026Z" fill="#804EE6"/>
<path d="M91.7076 15.6364C91.6856 15.6144 91.6646 15.5894 91.6426 15.5654C91.6566 15.6834 91.6696 15.8464 91.6816 16.0504C91.6906 15.9134 91.6986 15.7754 91.7076 15.6364Z" fill="#804EE6"/>
<path d="M119.225 61.4238C118.985 63.5018 118.521 65.5098 117.857 67.4268C118.123 67.5368 118.384 67.6678 118.639 67.7988C119.551 68.2668 120.472 68.7508 121.398 69.2378C119.724 68.2858 118.684 67.6498 118.72 67.5818C118.788 67.4548 122.571 69.3528 127.171 71.8198C129.214 72.9158 131.072 73.9388 132.502 74.7498C132.81 74.8818 133.118 75.0198 133.425 75.1458C133.422 74.6748 133.476 74.2108 133.633 73.7588C134.412 71.5108 137.288 70.3278 138.279 68.3488C132.24 66.1388 124.481 63.3868 119.225 61.4238Z" fill="#804EE6"/>
<path d="M113.787 75.1204C114.344 75.5494 115.04 76.0734 115.831 76.6664C115.923 76.7284 116.009 76.7864 116.105 76.8514C117.746 77.9614 119.991 79.5244 122.453 81.2764C124.914 83.0284 127.125 84.6384 128.711 85.8254C128.925 85.9854 129.124 86.1364 129.314 86.2794C130.283 85.5604 131.507 85.1134 132.547 84.4894C127.405 79.9874 121.339 73.7764 116.717 70.2344C115.902 71.9654 114.92 73.6024 113.787 75.1204Z" fill="#804EE6"/>
<path d="M81.2267 85.2947C81.1127 85.0417 81.0007 84.8467 80.9247 84.7207C79.0857 84.0247 77.3397 83.1417 75.7057 82.0967C75.6607 82.1577 75.6147 82.2167 75.5697 82.2737C75.2047 82.7237 74.7827 83.2067 74.3247 83.7117C73.5017 84.7137 72.3807 86.0057 71.0877 87.3917C69.7147 88.8627 68.4217 90.1487 67.4587 91.0487C66.4957 91.9497 65.8657 92.4707 65.8157 92.4207C65.7907 92.3947 65.9097 92.2327 66.1357 91.9667C65.3187 92.7867 64.5467 93.5807 63.8457 94.3337C64.9457 96.6187 63.8857 99.9657 65.7327 101.816C66.0857 102.17 66.4817 102.403 66.9037 102.562C70.8807 97.1957 76.3477 90.2407 80.2267 85.9347C80.4997 85.6327 80.8347 85.3227 81.2267 85.2947Z" fill="#804EE6"/>
<path d="M92.6261 86.5089C92.9081 86.8609 93.0371 87.3239 93.0751 87.8199C93.4281 88.6789 93.4261 89.7709 93.2811 90.8839C93.1271 92.0919 92.9621 93.3879 92.7891 94.7489C92.5481 96.5599 92.3111 98.2509 92.0951 99.7099C91.9431 101.625 91.7881 103.503 91.6211 105.198C92.7311 106.024 93.7771 107.133 95.0821 107.556C96.9981 108.178 98.7081 107.247 100.409 106.007C100.022 99.5969 99.6801 91.6069 99.9371 85.9029C100.036 86.1279 100.135 86.3669 100.234 86.6019C100.153 86.2739 100.119 86.0819 100.15 86.0709C100.216 86.0479 100.585 86.9149 101.103 88.3439C101.621 89.7729 102.283 91.7669 102.938 93.9929C103.12 94.6129 103.289 95.2109 103.45 95.7929C104.145 98.1619 104.755 100.556 105.218 102.78C105.939 102.48 106.684 102.295 107.468 102.32C109.229 102.375 111.088 103.419 112.753 103.637C109.933 96.8079 106.92 88.2609 105.767 82.4209C101.898 84.7789 97.4211 86.2359 92.6261 86.5089ZM96.2551 97.3859C96.1081 97.3749 96.0871 96.1209 96.0411 94.5829C95.9991 93.0449 95.9481 91.7909 96.0941 91.7719C96.2331 91.7519 96.5191 92.9989 96.5621 94.5679C96.6091 96.1359 96.3951 97.3979 96.2551 97.3859Z" fill="#804EE6"/>
<path d="M89.8967 86.6307C89.9307 86.5967 89.9697 86.5667 90.0057 86.5347C86.8987 86.4287 83.9177 85.8307 81.1417 84.8057C81.2137 84.8927 81.2917 84.9947 81.3757 85.1277C81.4097 85.1807 81.4437 85.2517 81.4777 85.3127C82.0637 85.4747 82.2447 86.3007 82.1747 86.9427C82.1407 87.2577 82.0817 87.5677 82.0097 87.8757C81.9697 88.6747 81.7667 89.5617 81.4227 90.4627C80.9827 91.6107 80.3987 92.8017 79.7837 94.0587C78.5367 96.5617 77.2527 98.7477 76.2607 100.287C75.6707 101.204 75.1927 101.888 74.8867 102.289C75.2507 102.34 75.6077 102.418 75.9497 102.552C78.7357 103.643 80.2457 107.69 83.2177 107.347C83.3097 107.336 83.3987 107.315 83.4887 107.296C85.2297 101.75 86.9717 94.0707 88.7127 88.9227C88.9917 88.1007 89.2877 87.2487 89.8967 86.6307Z" fill="#804EE6"/>
<path d="M114.591 42.2687C114.917 41.9697 115.256 41.6827 115.607 41.4067C115.934 40.9307 116.393 40.4847 116.931 40.0977C117.72 39.5377 118.599 38.9967 119.535 38.4217C121.405 37.2827 123.152 36.3427 124.438 35.7057C125.315 35.2717 125.968 34.9817 126.31 34.8577C126.914 34.5127 127.507 34.1647 128.086 33.8117C128.078 33.7997 128.068 33.7917 128.06 33.7807C126.299 31.0177 128.577 26.8327 126.508 24.2907C126.412 24.1737 126.306 24.0727 126.201 23.9717C120.986 27.8307 114.267 32.2117 108.418 35.6707C110.808 37.5287 112.898 39.7537 114.591 42.2687ZM115.842 31.0927C117.86 29.7987 119.457 28.6787 119.549 28.7957C119.636 28.9037 118.167 30.2207 116.124 31.5307C114.084 32.8457 112.276 33.6367 112.214 33.5127C112.146 33.3797 113.827 32.3917 115.842 31.0927Z" fill="#804EE6"/>
<path d="M119.047 53.5283C119.291 55.0253 119.423 56.5603 119.423 58.1273C119.423 58.4113 119.41 58.6923 119.402 58.9733C119.56 58.9713 119.717 58.9743 119.874 58.9803C120.71 59.0123 121.544 59.0623 122.376 59.1243C122.564 59.1283 122.762 59.1323 122.97 59.1383C124.689 59.1833 127.061 59.2983 129.677 59.4943C132.126 59.6783 134.347 59.9003 136.022 60.1023C136.44 58.2163 138.772 57.2723 139.457 55.4403C139.808 54.5013 139.653 53.5063 139.259 52.5693C133.147 52.9143 124.895 53.4163 119.802 53.5383C119.551 53.5433 119.298 53.5433 119.047 53.5283Z" fill="#804EE6"/>
<path d="M112.113 18.1507C108.733 22.3997 105.353 26.6497 101.973 30.8987C101.772 31.1517 101.504 31.4097 101.217 31.5977C103.467 32.4657 105.577 33.6107 107.509 34.9927C107.553 34.9327 107.604 34.8717 107.649 34.8127C107.65 34.8107 107.65 34.8087 107.651 34.8057C107.759 34.4627 108 34.1397 108.27 33.8287C108.721 33.3087 109.263 32.6977 109.849 32.0427C112.83 28.4427 116.275 24.8027 119.127 21.7777C118.545 21.5487 118.013 21.2387 117.567 20.7877C116.312 19.5197 116.042 17.4057 114.546 16.4337C114.06 16.1177 113.532 15.9777 112.978 15.9307C112.987 15.9707 113.006 16.0037 113.012 16.0447C113.119 16.8237 112.602 17.5357 112.113 18.1507Z" fill="#804EE6"/>
<path d="M118.39 50.5387C118.668 50.4167 118.935 50.2937 119.223 50.1727C119.356 50.0577 120.072 49.7357 121.172 49.2887C122.412 48.7847 124.137 48.1227 126.052 47.4207C127.967 46.7197 129.711 46.1117 130.984 45.6967C132.257 45.2807 133.058 45.0567 133.084 45.1237C133.1 45.1637 132.836 45.3027 132.365 45.5127C133.257 45.2217 134.118 44.9387 134.94 44.6657C134.9 42.5807 135.522 40.3737 134.464 38.6067C134.192 38.1527 133.823 37.7947 133.418 37.4707C127.968 39.6717 120.521 43.1337 115.738 44.1347C116.87 46.1317 117.765 48.2777 118.39 50.5387Z" fill="#804EE6"/>
<path d="M135.958 60.5124C135.959 60.5024 135.96 60.4924 135.961 60.4824C135.266 60.4304 134.52 60.3754 133.732 60.3174C134.472 60.3904 135.215 60.4554 135.958 60.5124Z" fill="#804EE6"/>
<path d="M81.7031 30.5437C81.7541 30.7837 81.8011 31.0007 81.8441 31.2067C81.8941 31.1897 81.9441 31.1727 81.9941 31.1557C81.8541 30.7947 81.7151 30.4057 81.5801 29.9717C81.6211 30.1637 81.6651 30.3687 81.7031 30.5437Z" fill="#804EE6"/>
<path d="M124.539 22.9922L124.564 23.0002C124.556 22.9972 124.548 22.9952 124.539 22.9922Z" fill="#804EE6"/>
<path d="M107.595 35.0535C107.605 34.9745 107.622 34.8935 107.65 34.8125C107.605 34.8725 107.555 34.9335 107.51 34.9925C107.538 35.0135 107.567 35.0335 107.595 35.0535Z" fill="black"/>
<path d="M115.066 43.0102C115.071 42.7242 115.119 42.4073 115.245 42.0723C115.327 41.8443 115.457 41.6232 115.606 41.4062C115.255 41.6822 114.916 41.9692 114.59 42.2682C114.754 42.5122 114.91 42.7622 115.066 43.0102Z" fill="#804EE6"/>
<path d="M133.427 75.28C133.426 75.236 133.425 75.191 133.425 75.147C133.118 75.021 132.809 74.883 132.502 74.751C132.836 74.939 133.144 75.115 133.427 75.28Z" fill="black"/>
<path d="M115.83 76.6661C115.039 76.0731 114.343 75.5481 113.786 75.1201C113.748 75.1711 113.708 75.2191 113.67 75.2701C114.051 75.4881 114.806 75.9771 115.83 76.6661Z" fill="black"/>
<path d="M116.648 95.9245C116.726 96.0675 116.798 96.1995 116.87 96.3335C116.891 96.2815 116.908 96.2275 116.93 96.1775C115.746 94.1555 114.413 91.8345 113.074 89.6035C114.494 92.0555 115.754 94.2895 116.648 95.9245Z" fill="black"/>
<path d="M92.0469 86.5328C92.4029 86.7708 92.7599 87.1238 93.0149 87.6448C93.0419 87.6998 93.0519 87.7638 93.0759 87.8208C93.0379 87.3248 92.9089 86.8618 92.6269 86.5098C92.4339 86.5208 92.2399 86.5258 92.0469 86.5328Z" fill="#804EE6"/>
<path d="M81.4785 85.3125C81.7275 85.7595 81.9595 86.4135 82.0115 87.2435C82.0265 87.4445 82.0215 87.6585 82.0105 87.8745C82.0825 87.5675 82.1415 87.2575 82.1755 86.9415C82.2455 86.3005 82.0635 85.4745 81.4785 85.3125Z" fill="#804EE6"/>
<path d="M75.7052 82.0961C75.6742 82.0761 75.6442 82.0571 75.6142 82.0371C75.4252 82.3251 75.0352 82.8401 74.4842 83.5171C74.4362 83.5761 74.3752 83.6481 74.3242 83.7101C74.7822 83.2061 75.2042 82.7221 75.5692 82.2721C75.6142 82.2161 75.6602 82.1571 75.7052 82.0961Z" fill="black"/>
<path d="M63.8762 49.5527C63.5622 49.7157 63.1862 49.8007 62.7792 49.7887C62.5212 49.7647 62.2282 49.7117 61.9492 49.6697C62.5412 49.8717 63.1202 50.0617 63.6772 50.2327C63.7412 50.0057 63.8052 49.7777 63.8762 49.5527Z" fill="black"/>
<path d="M74.9493 34.6538C74.8663 34.6628 74.2813 34.0938 73.4023 33.1308C73.1133 32.8148 72.7864 32.4438 72.4434 32.0508C73.2584 33.1568 73.9973 34.1408 74.5993 34.9028C74.7163 34.8198 74.8313 34.7348 74.9493 34.6538Z" fill="black"/>
<path d="M83.7129 30.6387C83.7419 30.6307 83.7689 30.6217 83.7979 30.6147C83.7959 30.3637 83.7939 30.1037 83.7919 29.8438C83.7819 30.2298 83.7529 30.5157 83.7129 30.6387Z" fill="black"/>
<path d="M90.8301 29.6986C90.8841 29.6986 90.9371 29.6946 90.9901 29.6946C91.0651 29.6946 91.1391 29.6996 91.2141 29.7006C91.1621 28.5696 91.1471 26.4966 91.1771 24.0566C91.0671 25.8096 90.9561 27.5626 90.8461 29.3146C90.8381 29.4426 90.8331 29.5706 90.8301 29.6986Z" fill="black"/>
<path d="M99.87 30.062C99.754 30.373 99.6621 30.727 99.6751 31.052C100.196 31.219 100.709 31.403 101.216 31.598C101.502 31.409 101.77 31.152 101.972 30.899C105.352 26.65 108.732 22.4 112.112 18.151C112.601 17.536 113.119 16.824 113.01 16.046C113.004 16.005 112.985 15.972 112.976 15.932C111.151 15.778 109.045 16.694 107.22 16.127C106.726 15.974 106.308 15.829 105.932 15.668C105.407 17.241 104.545 19.653 103.535 22.351C101.782 27.031 100.252 30.783 100.117 30.732C99.982 30.682 101.294 26.848 103.047 22.168C104.062 19.458 105.001 17.065 105.639 15.535C105.562 15.497 105.488 15.456 105.415 15.415L105.287 15.527C103.482 20.373 101.676 25.217 99.87 30.062ZM105.153 25.886C106.707 23.913 107.968 22.307 108.088 22.391C108.204 22.471 107.127 24.221 105.563 26.207C104.001 28.197 102.554 29.655 102.449 29.562C102.339 29.465 103.602 27.862 105.153 25.886Z" fill="#804EE6"/>
<path d="M112.535 29.0823C114.222 27.2503 115.771 25.6103 116.911 24.4413C118.051 23.2723 118.783 22.5733 118.836 22.6223C118.889 22.6713 118.253 23.4583 117.182 24.6913C116.111 25.9243 114.605 27.6033 112.918 29.4353C111.231 31.2683 109.681 32.9083 108.542 34.0763C108.121 34.4693 107.891 34.8793 107.848 35.2323C108.041 35.3753 108.23 35.5223 108.42 35.6703C114.269 32.2113 120.989 27.8303 126.203 23.9713C125.737 23.5243 125.182 23.2163 124.566 23.0003L124.541 22.9923C122.864 22.4093 120.79 22.4323 119.127 21.7773C116.275 24.8023 112.829 28.4423 109.849 32.0423C110.654 31.1403 111.557 30.1443 112.535 29.0823Z" fill="#804EE6"/>
<path d="M126.578 34.7955C126.611 34.8615 125.848 35.3135 124.612 36.0305C123.375 36.7475 121.666 37.7335 119.805 38.8665C117.977 40.0225 116.117 40.9295 115.586 42.2125C115.378 42.6725 115.325 43.1085 115.346 43.4535C115.481 43.6775 115.608 43.9065 115.738 44.1345C120.521 43.1335 127.967 39.6705 133.418 37.4705C131.759 36.1425 129.268 35.6225 128.087 33.8115C127.509 34.1655 126.915 34.5135 126.311 34.8575C126.47 34.8005 126.568 34.7755 126.578 34.7955ZM123.066 40.7515C121.516 41.4305 120.244 41.9575 120.177 41.8275C120.112 41.7015 121.29 40.9605 122.857 40.2745C124.423 39.5855 125.766 39.2205 125.814 39.3535C125.864 39.4905 124.614 40.0705 123.066 40.7515Z" fill="#804EE6"/>
<path d="M131.117 46.0401C129.877 46.5441 128.15 47.2071 126.231 47.9101C124.312 48.6131 122.564 49.2211 121.292 49.6371C120.019 50.0531 119.221 50.2751 119.199 50.2071C119.196 50.1991 119.207 50.1871 119.224 50.1721C118.936 50.2931 118.669 50.4161 118.391 50.5381C118.661 51.5151 118.882 52.5121 119.048 53.5281C119.299 53.5431 119.552 53.5431 119.802 53.5371C124.895 53.4151 133.147 52.9121 139.259 52.5681C138.966 51.8711 138.544 51.2051 138.079 50.6211C136.989 49.2541 135.643 47.9921 135.161 46.3101C135.008 45.7781 134.953 45.2251 134.942 44.6641C134.12 44.9371 133.259 45.2201 132.367 45.5111C132.041 45.6581 131.622 45.8351 131.117 46.0401Z" fill="#804EE6"/>
<path d="M129.636 60.0123C127.114 59.8213 124.833 59.6473 122.948 59.5043C121.237 59.3653 120.178 59.2553 120.182 59.1823C120.185 59.1203 121.008 59.0973 122.374 59.1233C121.542 59.0623 120.708 59.0113 119.872 58.9793C119.716 58.9733 119.558 58.9703 119.4 58.9723C119.376 59.7983 119.318 60.6163 119.225 61.4233C124.481 63.3863 132.24 66.1383 138.279 68.3483C138.479 67.9493 138.608 67.5213 138.621 67.0413C138.686 64.6483 135.814 62.8253 135.957 60.5113C135.214 60.4533 134.471 60.3893 133.73 60.3153C132.462 60.2223 131.096 60.1213 129.636 60.0123Z" fill="#804EE6"/>
<path d="M121.399 69.2387C120.474 68.7517 119.552 68.2677 118.64 67.7997C118.385 67.6687 118.124 67.5377 117.858 67.4277C117.526 68.3877 117.146 69.3257 116.717 70.2357C121.339 73.7777 127.405 79.9887 132.547 84.4907C133.189 84.1057 133.763 83.6537 134.137 83.0027C135.384 80.8267 133.692 78.1687 133.452 75.6707C131.898 74.9037 129.545 73.6847 126.926 72.2797C124.786 71.1317 122.854 70.0667 121.399 69.2387Z" fill="#804EE6"/>
<path d="M122.15 81.7022C119.686 79.9482 117.473 78.3362 115.886 77.1492C114.756 76.3032 113.952 75.6782 113.594 75.3652C113.228 75.8452 112.845 76.3102 112.449 76.7652C112.783 77.3242 113.238 77.8142 113.69 78.2892C117.123 81.8992 122.527 88.0832 126.573 92.4932C127.518 90.9362 127.292 88.6612 128.416 87.1362C128.566 86.9332 128.743 86.7592 128.926 86.5912C128.415 86.1822 127.87 85.7532 127.301 85.3112C125.834 84.3032 124.059 83.0612 122.15 81.7022Z" fill="#804EE6"/>
<path d="M112.555 89.7461C111.842 88.5001 111.162 87.3131 110.531 86.2101C109.899 85.1301 109.43 84.0831 108.756 83.4951C108.099 82.8791 107.274 82.8831 106.826 83.0591C106.355 83.2381 106.228 83.5411 106.185 83.5081C106.165 83.5151 106.227 83.1491 106.743 82.8751C107.189 82.6271 108.062 82.5591 108.825 83.0941C108.297 82.3981 107.803 81.8111 107.355 81.3711C106.837 81.7371 106.309 82.0911 105.766 82.4221C106.92 88.2621 109.932 96.8091 112.752 103.638C113.586 103.747 114.373 103.652 115.073 103.115C116.851 101.75 116.121 98.8911 116.726 96.7521C116.6 96.5501 116.469 96.3381 116.329 96.1091C115.339 94.4951 114.003 92.2461 112.555 89.7461Z" fill="#804EE6"/>
<path d="M104.453 99.7343C104.792 101.216 104.951 102.144 104.883 102.161C104.812 102.179 104.526 101.282 104.097 99.8273C103.619 98.1883 103.058 96.2643 102.438 94.1393C101.808 92.0163 101.238 90.0953 100.753 88.4583C100.515 87.6463 100.336 87.0143 100.234 86.6013C100.135 86.3663 100.036 86.1273 99.9367 85.9023C99.6797 91.6063 100.023 99.5953 100.409 106.006C101.968 104.869 103.522 103.484 105.217 102.78C104.754 100.557 104.144 98.1623 103.449 95.7933C103.866 97.3023 104.209 98.6653 104.453 99.7343Z" fill="#804EE6"/>
<path d="M91.7823 101.754C91.4973 103.543 91.2853 104.645 91.2143 104.635C91.1433 104.626 91.2263 103.507 91.4173 101.705C91.6093 99.9042 91.9093 97.4202 92.2723 94.6822C92.4593 93.3232 92.6383 92.0292 92.8043 90.8242C92.9823 89.6552 93.0143 88.5872 92.6783 87.7972C92.4123 87.1732 91.9793 86.7692 91.5893 86.5452C91.3893 86.5492 91.1903 86.5602 90.9893 86.5602C90.6593 86.5602 90.3323 86.5462 90.0043 86.5352C89.9683 86.5672 89.9283 86.5972 89.8953 86.6312C89.2863 87.2492 88.9903 88.1012 88.7123 88.9232C86.9713 94.0712 85.2293 101.751 83.4883 107.296C85.5463 106.861 86.8763 104.35 89.0113 104.217C89.9943 104.156 90.8243 104.605 91.6213 105.198C91.7883 103.503 91.9433 101.625 92.0953 99.7102C91.9843 100.458 91.8793 101.148 91.7823 101.754Z" fill="#804EE6"/>
<path d="M79.3163 93.8259C79.9263 92.5799 80.5253 91.3879 80.9743 90.2889C81.4203 89.1889 81.6603 88.1429 81.6413 87.2579C81.6333 86.3929 81.4273 85.7449 81.2253 85.2939C80.8333 85.3229 80.4983 85.632 80.2253 85.935C76.3463 90.241 70.8793 97.196 66.9023 102.562C69.1013 103.391 72.1163 101.978 74.7113 102.26C74.9453 101.825 75.3803 101.078 75.9443 100.095C76.8523 98.5139 78.0763 96.3139 79.3163 93.8259Z" fill="#804EE6"/>
<path d="M66.1356 91.9664C66.8416 91.1374 68.6356 89.2594 70.7066 87.0354C72.9626 84.6204 74.8376 82.5584 75.4916 81.9594C74.8396 81.5344 74.2056 81.0834 73.5926 80.6084C73.1356 81.0644 72.2106 81.8514 71.0966 82.7154C69.4606 83.9854 68.0626 84.9224 67.9746 84.8084C67.8866 84.6944 69.1416 83.5734 70.7776 82.3044C71.6186 81.6514 72.3936 81.0894 72.9636 80.7104C71.7526 81.1724 70.6336 81.9694 69.5796 82.7534C65.6146 85.7004 61.6496 88.6474 57.6836 91.5954C59.7406 91.9584 62.0696 92.0424 63.3576 93.5624C63.5586 93.8004 63.7146 94.0614 63.8456 94.3334C64.5466 93.5804 65.3186 92.7864 66.1356 91.9664Z" fill="#804EE6"/>
<path d="M61.6299 79.9137C63.6149 78.6117 65.5009 77.4857 66.7599 76.6457C67.0489 76.4207 67.2589 76.1577 67.3429 75.9027C67.4289 75.6427 67.4049 75.3857 67.3429 75.2007C67.2109 74.8157 66.9389 74.7467 66.9629 74.7047C66.9479 74.6787 67.2929 74.6737 67.5299 75.1217C67.6369 75.3357 67.7019 75.6377 67.6249 75.9807C67.6109 76.0387 67.5869 76.0957 67.5649 76.1527C67.8739 75.9267 68.1909 75.6457 68.3429 75.3147C68.0149 74.8827 67.6959 74.4447 67.3929 73.9937C66.9919 73.9537 66.5859 74.0497 66.1929 74.1527C60.8409 75.5627 52.6659 78.6187 46.2949 80.9787C48.3409 82.4387 51.9499 81.8077 53.2349 84.0547C53.3929 84.3297 53.4829 84.6257 53.5499 84.9277C55.2989 83.8567 57.2539 82.6847 59.1889 81.5127C59.9519 81.0057 60.7659 80.4717 61.6299 79.9137Z" fill="#804EE6"/>
<path d="M55.5742 70.0876C56.7802 69.7676 57.9282 69.4626 59.0032 69.1776C60.0592 68.8986 61.0172 68.6886 61.7722 68.4096C63.3282 67.8816 63.8672 66.9386 63.9272 66.9926C63.9522 67.0056 63.8672 67.2596 63.5582 67.6256C63.3792 67.8416 63.0982 68.0776 62.7482 68.3036C62.8892 68.2546 63.0392 68.2066 63.1752 68.1576C63.5382 68.0276 63.9302 67.8526 64.1722 67.5746C63.9902 67.0576 63.8242 66.5326 63.6712 66.0016C63.2592 65.8086 62.7882 65.7826 62.3322 65.7666C55.7202 65.5296 49.1062 65.3396 42.4922 65.1826C43.4152 66.7416 45.4612 67.4306 46.3132 69.0436C46.8462 70.0536 46.8002 71.1726 46.5372 72.3246C48.1082 71.9706 49.8122 71.5986 51.5462 71.2116C52.7502 70.8656 54.1172 70.4836 55.5742 70.0876Z" fill="#804EE6"/>
<path d="M44.6959 58.3772C44.7019 58.3032 45.6659 58.3272 47.2199 58.3842C48.7739 58.4422 50.9189 58.5252 53.2899 58.5772C55.6599 58.6272 57.8059 58.6372 59.3619 58.6452C60.9169 58.6542 61.8809 58.6722 61.8839 58.7462C61.8869 58.8162 60.9279 58.9282 59.3699 59.0132C58.3469 59.0692 57.0489 59.1062 55.6149 59.1132C58.0779 59.2072 60.4349 59.2402 62.4149 59.1362C62.4699 59.1332 62.5259 59.1282 62.5809 59.1242C62.5699 58.7932 62.5559 58.4612 62.5559 58.1272C62.5559 57.6552 62.5689 57.1862 62.5919 56.7202C62.5449 56.6912 62.4979 56.6612 62.4499 56.6332C56.9789 53.3742 49.1129 51.0272 42.6059 49.2402C42.5889 50.4112 43.0379 51.4932 44.1369 51.8012L43.9979 50.8992C45.6029 51.6062 46.0439 53.7762 45.5379 55.4552C45.2099 56.5442 44.6019 57.5082 43.9799 58.4672C44.4679 58.4932 44.9759 58.5212 45.4949 58.5522C44.9849 58.4782 44.6929 58.4142 44.6959 58.3772ZM58.6919 56.9662C60.5229 57.2902 61.9919 57.6682 61.9749 57.8102C61.9569 57.9532 60.4469 57.8042 58.6019 57.4782C56.7569 57.1522 55.2869 56.7742 55.3189 56.6342C55.3509 56.4942 56.8609 56.6422 58.6919 56.9662Z" fill="#804EE6"/>
<path d="M47.124 43.5688C47.158 43.5038 48.168 43.9588 49.784 44.7228C50.386 45.0038 51.095 45.3378 51.849 45.6858C53.694 46.4718 55.606 47.2718 57.482 48.0128C59.507 48.7198 61.386 49.2128 62.798 49.4218C63.218 49.4568 63.603 49.3968 63.876 49.2428C63.936 49.2088 63.973 49.1608 64.023 49.1208C64.22 48.5308 64.434 47.9498 64.667 47.3778C63.749 46.9228 62.352 46.1668 60.786 45.2678C58.107 43.7298 55.994 42.3828 56.066 42.2578C56.138 42.1328 58.367 43.2778 61.046 44.8158C61.621 45.1458 62.162 45.4638 62.669 45.7668C57.345 42.1658 52.216 38.6468 46.901 35.8418C46.581 37.7208 47.301 40.1278 46.715 42.0718C46.587 42.4958 46.393 42.8838 46.166 43.2548C46.556 43.4198 46.956 43.5898 47.368 43.7658C47.206 43.6588 47.114 43.5878 47.124 43.5688Z" fill="#804EE6"/>
<path d="M56.7807 31.9273C56.8367 31.8763 57.5047 32.5283 58.5907 33.5693C59.6767 34.6103 61.1937 36.0273 62.9407 37.5123C64.6887 38.9943 66.3327 40.2613 67.5367 41.1633C67.6817 41.2723 67.8197 41.3753 67.9507 41.4733C68.2967 40.9943 68.6527 40.5233 69.0277 40.0683C69.0087 40.0353 68.9887 40.0003 68.9697 39.9673C68.4427 39.3423 67.7767 38.4943 67.0807 37.5223C65.5987 35.4563 64.5777 33.6623 64.6967 33.5863C64.7807 33.5323 65.3807 34.3013 66.2197 35.4443C63.7577 31.6123 60.8587 27.5853 58.2597 24.5273C57.4087 24.7123 56.6387 25.0223 56.0847 25.6973C54.9767 27.0473 55.3857 29.1603 54.8477 30.7653C55.8817 31.6823 57.0417 32.6993 58.2627 33.7553C57.2807 32.6843 56.7317 31.9713 56.7807 31.9273Z" fill="#804EE6"/>
<path d="M70.4161 28.8001C72.9231 31.9611 75.0111 34.4881 74.9581 34.6471C75.4181 34.3321 75.8871 34.0311 76.3661 33.7431C76.3411 33.6781 76.3171 33.6131 76.2921 33.5481C74.4071 28.7571 70.9961 21.2321 68.7231 15.7471C68.3471 15.9101 67.9851 16.0881 67.6581 16.2921C65.9931 17.3301 65.4451 19.4591 64.5371 21.2311C65.1171 21.9911 65.7761 22.8791 66.4831 23.8441C67.3091 24.8491 68.7461 26.7001 70.4161 28.8001ZM72.9951 27.3541C73.1351 27.3051 73.7691 28.7911 74.6161 30.5861C75.4571 32.3831 76.1951 33.8201 76.0681 33.8961C75.9491 33.9701 74.9991 32.6321 74.1441 30.8071C73.2851 28.9841 72.8631 27.3991 72.9951 27.3541Z" fill="#804EE6"/>
<path d="M79.1397 17.5955C79.2137 17.5865 79.3737 18.4395 79.6147 19.8185C79.8557 21.1975 80.1857 23.1005 80.5927 25.1945C80.9487 27.0205 81.2997 28.6665 81.5807 29.9715C81.7157 30.4055 81.8548 30.7945 81.9948 31.1555C82.5318 30.9765 83.0747 30.8105 83.6247 30.6635C83.4887 30.4355 83.3467 29.0435 83.1217 27.3555C82.8817 25.5075 82.6327 24.0105 82.7767 23.9755C82.9117 23.9405 83.3937 25.4075 83.6387 27.2875C83.7267 27.9525 83.7717 28.5705 83.7887 29.0975C83.7717 23.9315 83.9007 17.2785 83.8927 12.0225C83.0597 12.8155 82.4467 14.1925 81.1077 16.1705C80.6307 16.8745 79.8807 17.2225 79.0527 17.3125C79.0727 17.4415 79.0917 17.5685 79.1117 17.7015C79.1177 17.6395 79.1267 17.5965 79.1397 17.5955Z" fill="#804EE6"/>
<path d="M91.713 22.9848C91.663 25.8898 91.5639 28.4148 91.4609 29.7068C92.1439 29.7178 92.8209 29.7528 93.4909 29.8108C94.6529 28.2328 95.1999 26.2158 95.6849 24.2828C96.5649 20.7728 97.7789 15.1298 98.7549 11.0098C98.1639 11.0508 97.5679 11.2078 96.9899 11.5258C95.4509 12.3748 93.5819 16.0948 92.6079 16.1098C92.2849 16.1148 91.9919 15.9298 91.7069 15.6368C91.6979 15.7748 91.6899 15.9138 91.6809 16.0518C91.7489 17.2678 91.766 19.9108 91.713 22.9848Z" fill="#804EE6"/>
<path d="M121.293 49.6361C122.565 49.2201 124.313 48.612 126.232 47.909C128.151 47.207 129.878 46.5431 131.118 46.0391C131.623 45.8341 132.042 45.657 132.365 45.512C132.836 45.302 133.1 45.1621 133.084 45.1231C133.057 45.0561 132.255 45.2801 130.983 45.6961C129.71 46.1121 127.967 46.7191 126.052 47.4201C124.136 48.1211 122.412 48.784 121.172 49.288C120.072 49.735 119.356 50.057 119.223 50.172C119.206 50.187 119.196 50.1991 119.198 50.2071C119.222 50.2741 120.02 50.0511 121.293 49.6361Z" fill="#263238"/>
<path d="M122.97 59.1368C122.762 59.1308 122.564 59.1268 122.376 59.1228C121.01 59.0968 120.186 59.1199 120.184 59.1819C120.181 59.2549 121.239 59.3648 122.95 59.5038C124.835 59.6468 127.116 59.8198 129.638 60.0118C131.098 60.1198 132.464 60.2218 133.732 60.3158C134.52 60.3748 135.266 60.4298 135.961 60.4808C135.967 60.3918 135.969 60.3048 135.984 60.2148C135.991 60.1738 136.011 60.1398 136.02 60.1008C134.346 59.8988 132.125 59.6768 129.675 59.4928C127.061 59.2968 124.688 59.1818 122.97 59.1368Z" fill="#263238"/>
<path d="M127.173 71.8202C122.573 69.3522 118.79 67.4552 118.722 67.5822C118.686 67.6502 119.726 68.2862 121.4 69.2382C122.855 70.0662 124.787 71.1312 126.927 72.2792C129.547 73.6842 131.899 74.9032 133.453 75.6702C133.44 75.5392 133.434 75.4092 133.43 75.2792C133.146 75.1152 132.838 74.9392 132.505 74.7502C131.073 73.9392 129.216 72.9162 127.173 71.8202Z" fill="#263238"/>
<path d="M122.453 81.2761C119.991 79.5241 117.746 77.9611 116.105 76.8511C116.009 76.7861 115.923 76.7281 115.831 76.6661C114.808 75.9771 114.052 75.4871 113.671 75.2691C113.709 75.2181 113.75 75.1701 113.787 75.1191C114.92 73.6011 115.902 71.9641 116.718 70.2341C117.147 69.3241 117.526 68.3861 117.859 67.4261C118.522 65.5101 118.987 63.5011 119.227 61.4231C119.32 60.6161 119.378 59.7981 119.402 58.9721C119.41 58.6901 119.423 58.4091 119.423 58.1261C119.423 56.5601 119.291 55.0251 119.047 53.5271C118.882 52.5111 118.66 51.5141 118.39 50.5371C117.765 48.2771 116.869 46.1311 115.738 44.1341C115.609 43.9061 115.481 43.6771 115.346 43.4531C115.325 43.1081 115.378 42.6721 115.586 42.2121C116.117 40.9291 117.977 40.0221 119.805 38.8661C121.666 37.7321 123.375 36.7471 124.612 36.0301C125.849 35.3131 126.612 34.8611 126.578 34.7951C126.568 34.7751 126.47 34.8001 126.31 34.8581C125.968 34.9821 125.314 35.2721 124.438 35.7061C123.152 36.3421 121.405 37.2821 119.535 38.4221C118.599 38.9971 117.72 39.5381 116.931 40.0981C116.393 40.4841 115.933 40.9311 115.607 41.4071C115.458 41.6241 115.328 41.8451 115.246 42.0731C115.12 42.4071 115.072 42.7251 115.067 43.0111C114.91 42.7621 114.755 42.5121 114.591 42.2691C112.897 39.7531 110.808 37.5281 108.418 35.6711C108.229 35.5241 108.04 35.3761 107.846 35.2331C107.889 34.8801 108.12 34.4701 108.54 34.0771C109.679 32.9091 111.229 31.2681 112.916 29.4361C114.603 27.6041 116.109 25.9251 117.18 24.6921C118.251 23.4591 118.887 22.6721 118.834 22.6231C118.781 22.5741 118.049 23.2731 116.909 24.4421C115.769 25.6111 114.22 27.2511 112.533 29.0831C111.556 30.1451 110.653 31.1411 109.847 32.0431C109.261 32.6981 108.719 33.3101 108.268 33.8291C107.998 34.1401 107.757 34.4631 107.649 34.8061C107.648 34.8081 107.648 34.8111 107.647 34.8131C107.62 34.8941 107.602 34.9751 107.592 35.0541C107.564 35.0341 107.535 35.0141 107.507 34.9941C105.575 33.6121 103.465 32.4671 101.215 31.5991C100.708 31.4031 100.195 31.2191 99.6739 31.0531C97.6979 30.4201 95.6269 29.9991 93.4889 29.8121C92.8189 29.7531 92.1419 29.7191 91.4589 29.7081C91.5619 28.4161 91.6609 25.8911 91.7109 22.9861C91.7639 19.9121 91.7469 17.2691 91.6789 16.0531C91.6669 15.8491 91.6549 15.6861 91.6399 15.5681C91.6049 15.5301 91.5699 15.4951 91.5359 15.4541C91.4029 16.0681 91.2549 19.1971 91.1899 22.9771C91.1839 23.3451 91.1789 23.7041 91.1739 24.0581C91.1439 26.4981 91.1589 28.5711 91.2109 29.7021C91.1359 29.7011 91.0619 29.6961 90.9869 29.6961C90.9329 29.6961 90.8799 29.7001 90.8269 29.7001C88.3988 29.7141 86.0429 30.0301 83.7959 30.6151C83.7669 30.6231 83.7389 30.6321 83.7109 30.6391C83.7509 30.5161 83.7799 30.2301 83.7899 29.8441C83.7959 29.6261 83.7949 29.3781 83.7859 29.0981C83.7689 28.5711 83.7239 27.9531 83.6359 27.2881C83.3909 25.4081 82.9099 23.9421 82.7739 23.9761C82.6299 24.0111 82.8789 25.5081 83.1189 27.3561C83.3439 29.0441 83.4859 30.4361 83.6219 30.6641C83.0709 30.8111 82.5289 30.9771 81.9919 31.1561C81.9419 31.1731 81.8919 31.1901 81.8419 31.2071C81.7989 31.0011 81.7529 30.7841 81.7009 30.5441C81.6629 30.3691 81.6189 30.1631 81.5779 29.9721C81.2979 28.6671 80.9459 27.0201 80.5899 25.1951C80.1828 23.1011 79.8519 21.1981 79.6119 19.8191C79.3709 18.4401 79.2099 17.5871 79.1369 17.5961C79.1239 17.5971 79.1159 17.6401 79.1099 17.7021C79.0859 17.9651 79.1279 18.7411 79.2479 19.8701C79.3959 21.2671 79.6699 23.1891 80.0789 25.2941C80.4899 27.3981 80.9569 29.2831 81.3439 30.6331C81.4139 30.8781 81.4799 31.0991 81.5439 31.3081C79.7259 31.9481 77.9919 32.7641 76.3639 33.7431C75.8849 34.0311 75.4159 34.3321 74.9559 34.6471C75.0089 34.4881 72.9209 31.9611 70.4139 28.8001C68.7439 26.7001 67.3069 24.8491 66.4799 23.8441C66.0459 23.3181 65.7769 23.0191 65.7359 23.0491C65.6789 23.0901 66.1079 23.8041 66.8699 24.9121C67.6309 26.0201 68.7299 27.5171 70.0059 29.1241C70.8759 30.2181 71.7069 31.2091 72.4399 32.0511C72.7829 32.4441 73.1099 32.8151 73.3989 33.1311C74.2789 34.0941 74.8639 34.6631 74.9459 34.6541C74.8279 34.7351 74.7129 34.8201 74.5969 34.9031C72.6289 36.2941 70.8459 37.9271 69.2909 39.7621C68.8309 39.0851 68.2029 38.1981 67.5029 37.2201C67.0379 36.5711 66.6049 35.9721 66.2179 35.4451C65.3789 34.3021 64.7789 33.5331 64.6949 33.5871C64.5759 33.6641 65.5979 35.4571 67.0789 37.5231C67.7739 38.4951 68.4399 39.3431 68.9679 39.9681C68.9909 39.9951 69.0159 40.0271 69.0389 40.0531C69.0349 40.0581 69.0299 40.0641 69.0259 40.0691C68.6509 40.5241 68.2949 40.9951 67.9489 41.4741C67.8179 41.3761 67.6799 41.2721 67.5349 41.1641C66.3309 40.2621 64.6869 38.9951 62.9389 37.5131C61.1919 36.0281 59.6749 34.6121 58.5889 33.5701C57.5029 32.5291 56.8349 31.8761 56.7789 31.9281C56.7299 31.9721 57.2789 32.6851 58.2609 33.7561C58.2839 33.7811 58.3029 33.8031 58.3259 33.8281C59.3499 34.9411 60.8399 36.4131 62.6009 37.9101C64.3629 39.4041 66.0569 40.6361 67.3219 41.4661C67.4729 41.5651 67.6169 41.6581 67.7549 41.7461C66.5839 43.4031 65.5809 45.1861 64.7819 47.0781C64.2439 46.7261 63.5179 46.2751 62.6649 45.7671C62.1579 45.4641 61.6169 45.1471 61.0419 44.8161C58.3629 43.2781 56.1339 42.1331 56.0619 42.2581C55.9899 42.3831 58.1039 43.7301 60.7819 45.2681C62.3479 46.1671 63.7459 46.9221 64.6629 47.3781C64.4289 47.9501 64.2159 48.5321 64.0189 49.1211C63.9689 49.1611 63.9309 49.2091 63.8719 49.2431C63.5979 49.3971 63.2139 49.4571 62.7939 49.4221C61.3819 49.2131 59.5039 48.7201 57.4779 48.0131C57.0409 47.8611 56.6009 47.7021 56.1529 47.5301C54.5619 46.9181 53.1179 46.2731 51.8449 45.6861C51.0909 45.3381 50.3819 45.0051 49.7799 44.7231C48.1649 43.9591 47.1539 43.5031 47.1199 43.5691C47.1099 43.5881 47.2019 43.6591 47.3639 43.7661C47.7349 44.0101 48.5179 44.4611 49.6139 45.0521C51.1929 45.8941 53.4019 47.0291 55.9659 48.0161C58.1739 48.8621 60.2379 49.4171 61.9449 49.6711C62.2239 49.7131 62.5179 49.7661 62.7749 49.7901C63.1819 49.8011 63.5589 49.7161 63.8719 49.5541C63.8009 49.7791 63.7379 50.0071 63.6719 50.2351C63.0729 52.3101 62.6979 54.4801 62.5889 56.7221C62.5659 57.1881 62.5529 57.6571 62.5529 58.1291C62.5529 58.4631 62.5669 58.7941 62.5779 59.1261C62.6599 61.5051 63.0339 63.8081 63.6659 66.0031C63.8189 66.5341 63.9839 67.0581 64.1669 67.5761C64.9729 69.8621 66.0569 72.0171 67.3879 73.9941C67.6909 74.4441 68.0099 74.8831 68.3379 75.3151C69.7939 77.2311 71.4899 78.9541 73.3779 80.4451C73.2549 80.5201 73.1179 80.6071 72.9589 80.7121C72.3889 81.0911 71.6149 81.6531 70.7729 82.3061C69.1369 83.5761 67.8819 84.6971 67.9699 84.8101C68.0579 84.9241 69.4559 83.9871 71.0919 82.7171C72.2059 81.8531 73.1309 81.0661 73.5879 80.6101C74.2019 81.0861 74.8349 81.5361 75.4869 81.9611C74.8319 82.5601 72.9579 84.6221 70.7019 87.0371C68.6299 89.2601 66.8369 91.1391 66.1309 91.9681C65.9049 92.2331 65.7859 92.3961 65.8109 92.4221C65.8599 92.4731 66.4899 91.9521 67.4539 91.0501C68.4169 90.1491 69.7099 88.8641 71.0829 87.3931C72.3759 86.0071 73.4969 84.7151 74.3199 83.7131C74.3709 83.6511 74.4319 83.5791 74.4799 83.5201C75.0309 82.8431 75.4209 82.3281 75.6099 82.0401C75.6399 82.0601 75.6709 82.0791 75.7009 82.0991C77.3349 83.1431 79.0809 84.0261 80.9199 84.7231C80.9969 84.8501 81.1089 85.0441 81.2219 85.2971C81.4239 85.7481 81.6289 86.3961 81.6379 87.2611C81.6569 88.1461 81.4169 89.1911 80.9709 90.2921C80.5219 91.3911 79.9229 92.5831 79.3129 93.8291C78.0729 96.3171 76.8489 98.5161 75.9409 100.098C75.3779 101.081 74.9419 101.828 74.7079 102.263C74.7669 102.269 74.8229 102.283 74.8819 102.291C75.1869 101.89 75.6649 101.206 76.2559 100.289C77.2479 98.7501 78.5319 96.5641 79.7789 94.0611C80.3939 92.8041 80.9779 91.6131 81.4179 90.4651C81.7619 89.5641 81.9649 88.6771 82.0049 87.8781C82.0159 87.6621 82.0209 87.4481 82.0059 87.2471C81.9539 86.4161 81.7219 85.7631 81.4729 85.3161C81.4389 85.2541 81.4049 85.1841 81.3709 85.1311C81.2859 84.9981 81.2089 84.8961 81.1369 84.8091C83.9129 85.8341 86.8949 86.4321 90.0009 86.5381C90.3279 86.5491 90.6549 86.5631 90.9859 86.5631C91.1869 86.5631 91.3859 86.5521 91.5859 86.5481C91.9759 86.7721 92.4089 87.1761 92.6749 87.8001C93.0119 88.5901 92.9799 89.6581 92.8009 90.8271C92.6349 92.0321 92.4559 93.3261 92.2689 94.6851C91.9059 97.4241 91.6049 99.9071 91.4139 101.708C91.2219 103.509 91.1399 104.628 91.2109 104.638C91.2819 104.647 91.4939 103.546 91.7789 101.757C91.8749 101.151 91.9809 100.461 92.0919 99.7141C92.3079 98.2551 92.5449 96.5651 92.7859 94.7531C92.9589 93.3921 93.1239 92.0951 93.2779 90.8881C93.4219 89.7751 93.4249 88.6831 93.0719 87.8241C93.0489 87.7671 93.0379 87.7021 93.0109 87.6481C92.7559 87.1281 92.3989 86.7751 92.0429 86.5361C92.2359 86.5291 92.4299 86.5241 92.6229 86.5131C97.4169 86.2411 101.895 84.7841 105.764 82.4251C106.307 82.0941 106.834 81.7391 107.353 81.3741C109.233 80.0481 110.943 78.5011 112.449 76.7691C112.844 76.3141 113.227 75.8481 113.594 75.3691C113.952 75.6831 114.755 76.3071 115.886 77.1531C117.472 78.3401 119.686 79.9521 122.15 81.7061C124.059 83.0651 125.834 84.3071 127.302 85.3151C127.728 85.6081 128.132 85.8831 128.501 86.1331C128.686 86.2581 128.861 86.3761 129.03 86.4891C129.118 86.4141 129.22 86.3531 129.314 86.2841C129.124 86.1401 128.924 85.9901 128.711 85.8301C127.125 84.6381 124.913 83.0281 122.453 81.2761ZM90.9899 83.0541C77.2229 83.0541 66.0629 71.8941 66.0629 58.1261C66.0629 44.3581 77.2229 33.1981 90.9899 33.1981C104.757 33.1981 115.918 44.3581 115.918 58.1261C115.918 71.8941 104.757 83.0541 90.9899 83.0541Z" fill="#263238"/>
<path d="M118.986 88.6551C119.098 88.5551 117.875 87.0411 116.52 85.0741C115.157 83.1111 114.173 81.4331 114.04 81.5021C113.917 81.5631 114.707 83.3741 116.092 85.3701C117.469 87.3701 118.885 88.7491 118.986 88.6551Z" fill="#263238"/>
<path d="M113.076 89.602C113.053 89.562 113.031 89.523 113.008 89.483C112.282 88.244 111.591 87.064 110.948 85.968C110.296 84.915 109.796 83.858 108.995 83.212C108.94 83.166 108.883 83.131 108.827 83.092C108.064 82.557 107.191 82.626 106.745 82.873C106.229 83.147 106.167 83.514 106.187 83.506C106.23 83.54 106.356 83.236 106.828 83.057C107.276 82.88 108.102 82.877 108.758 83.493C109.431 84.081 109.901 85.128 110.533 86.208C111.165 87.311 111.844 88.498 112.557 89.744C114.005 92.244 115.342 94.493 116.331 96.108C116.471 96.337 116.602 96.549 116.728 96.751C116.769 96.607 116.818 96.468 116.872 96.332C116.8 96.198 116.728 96.066 116.65 95.923C115.756 94.289 114.496 92.055 113.076 89.602Z" fill="#263238"/>
<path d="M102.439 94.1407C103.059 96.2657 103.62 98.1887 104.098 99.8287C104.527 101.284 104.813 102.181 104.884 102.163C104.952 102.146 104.793 101.218 104.454 99.7357C104.21 98.6667 103.867 97.3037 103.45 95.7947C103.289 95.2127 103.12 94.6137 102.938 93.9947C102.283 91.7687 101.621 89.7757 101.103 88.3457C100.585 86.9167 100.217 86.0497 100.15 86.0727C100.119 86.0827 100.153 86.2757 100.234 86.6037C100.336 87.0167 100.515 87.6497 100.753 88.4607C101.239 90.0967 101.809 92.0177 102.439 94.1407Z" fill="#263238"/>
<path d="M96.0931 91.7727C95.9471 91.7917 95.9981 93.0457 96.0401 94.5837C96.0861 96.1217 96.1071 97.3757 96.2541 97.3867C96.3941 97.3987 96.6071 96.1367 96.5601 94.5687C96.5171 92.9997 96.2321 91.7527 96.0931 91.7727Z" fill="#263238"/>
<path d="M67.53 75.12C67.294 74.672 66.948 74.677 66.963 74.703C66.939 74.745 67.211 74.814 67.343 75.199C67.405 75.384 67.429 75.64 67.343 75.901C67.259 76.156 67.049 76.419 66.76 76.644C65.502 77.484 63.615 78.61 61.63 79.912C60.766 80.471 59.952 81.005 59.189 81.51C58.183 82.176 57.274 82.788 56.543 83.293C55.256 84.181 54.48 84.761 54.519 84.821C54.558 84.881 55.405 84.411 56.743 83.602C58.081 82.793 59.91 81.644 61.913 80.349C63.915 79.034 65.715 77.9 66.998 76.925C67.255 76.697 67.455 76.432 67.564 76.15C67.586 76.093 67.61 76.036 67.624 75.978C67.702 75.636 67.637 75.334 67.53 75.12Z" fill="#263238"/>
<path d="M63.559 67.6245C63.868 67.2585 63.953 67.0045 63.928 66.9915C63.868 66.9375 63.329 67.8815 61.773 68.4085C61.018 68.6885 60.061 68.8985 59.004 69.1765C57.929 69.4615 56.78 69.7665 55.575 70.0865C54.119 70.4825 52.751 70.8645 51.546 71.2115C50.741 71.4435 50.007 71.6585 49.374 71.8505C47.795 72.3285 46.827 72.6585 46.846 72.7285C46.865 72.7975 47.866 72.5935 49.471 72.2065C51.075 71.8195 53.282 71.2505 55.712 70.5905C56.914 70.2565 58.059 69.9385 59.13 69.6405C60.174 69.3375 61.133 69.0895 61.91 68.7505C62.23 68.6145 62.504 68.4605 62.749 68.3025C63.099 68.0765 63.38 67.8405 63.559 67.6245Z" fill="#263238"/>
<path d="M61.8853 58.7467C61.8823 58.6727 60.9183 58.6547 59.3633 58.6457C57.8083 58.6367 55.6613 58.6277 53.2913 58.5777C50.9203 58.5257 48.7753 58.4427 47.2213 58.3847C45.6673 58.3267 44.7033 58.3037 44.6973 58.3777C44.6943 58.4157 44.9863 58.4787 45.4973 58.5537C45.9213 58.6147 46.4933 58.6837 47.1973 58.7527C48.7493 58.9057 50.9003 59.0467 53.2803 59.0987C54.0963 59.1157 54.8693 59.1187 55.6173 59.1147C57.0513 59.1077 58.3483 59.0707 59.3723 59.0147C60.9293 58.9277 61.8883 58.8157 61.8853 58.7467Z" fill="#263238"/>
<path d="M58.6019 57.4769C60.4469 57.8029 61.9569 57.9509 61.9749 57.8089C61.9929 57.6659 60.5229 57.2879 58.6919 56.9649C56.8609 56.6409 55.3509 56.4929 55.3189 56.6329C55.2869 56.7729 56.7559 57.1509 58.6019 57.4769Z" fill="#263238"/>
<path d="M76.0694 33.8957C76.1964 33.8197 75.4584 32.3827 74.6174 30.5857C73.7714 28.7907 73.1364 27.3057 72.9964 27.3537C72.8644 27.3977 73.2865 28.9827 74.1455 30.8067C75.0005 32.6317 75.9504 33.9697 76.0694 33.8957Z" fill="#263238"/>
<path d="M100.119 30.7321C100.254 30.7821 101.784 27.0312 103.537 22.3512C104.548 19.6532 105.41 17.2412 105.934 15.6682C105.834 15.6252 105.735 15.5812 105.641 15.5352C105.003 17.0652 104.065 19.4582 103.049 22.1682C101.296 26.8482 99.9839 30.6811 100.119 30.7321Z" fill="#263238"/>
<path d="M105.564 26.2068C107.128 24.2208 108.205 22.4708 108.089 22.3908C107.969 22.3068 106.708 23.9118 105.154 25.8858C103.602 27.8618 102.34 29.4648 102.45 29.5618C102.555 29.6548 104.002 28.1958 105.564 26.2068Z" fill="#263238"/>
<path d="M116.123 31.5305C118.166 30.2205 119.636 28.9035 119.548 28.7955C119.456 28.6785 117.859 29.7985 115.841 31.0925C113.825 32.3925 112.144 33.3805 112.213 33.5125C112.275 33.6365 114.083 32.8455 116.123 31.5305Z" fill="#263238"/>
<path d="M122.858 40.2746C121.291 40.9606 120.112 41.7015 120.178 41.8275C120.245 41.9575 121.517 41.4306 123.067 40.7516C124.616 40.0706 125.865 39.4905 125.815 39.3535C125.767 39.2195 124.423 39.5856 122.858 40.2746Z" fill="#263238"/>
<path d="M90.9895 83.0542C104.756 83.0542 115.917 71.894 115.917 58.1272C115.917 44.3604 104.756 33.2002 90.9895 33.2002C77.2227 33.2002 66.0625 44.3604 66.0625 58.1272C66.0625 71.894 77.2227 83.0542 90.9895 83.0542Z" fill="#FAFAFA"/>
<path d="M102.772 110.041C102.79 110.039 102.83 110.247 102.89 110.645C102.952 111.099 103.031 111.676 103.128 112.387C103.328 113.968 103.603 116.142 103.939 118.798C104.621 124.212 105.597 131.685 106.794 139.922C107.994 148.162 109.195 155.603 110.108 160.982C110.557 163.621 110.925 165.781 111.192 167.352C111.307 168.06 111.4 168.635 111.473 169.087C111.532 169.485 111.554 169.695 111.536 169.699C111.518 169.702 111.462 169.498 111.37 169.107C111.272 168.66 111.147 168.091 110.993 167.39C110.674 165.897 110.246 163.73 109.745 161.047C108.739 155.681 107.48 148.243 106.279 139.998C105.081 131.755 104.162 124.269 103.573 118.842C103.277 116.129 103.058 113.931 102.927 112.41C102.87 111.694 102.823 111.114 102.786 110.657C102.76 110.255 102.754 110.043 102.772 110.041Z" fill="#263238"/>
<path d="M88.276 104.797C88.42 104.789 89.614 125.137 90.944 150.239C92.274 175.35 93.236 195.706 93.092 195.713C92.948 195.721 91.754 175.377 90.424 150.266C89.094 125.164 88.132 104.804 88.276 104.797Z" fill="#263238"/>
<path d="M80.3246 109.237C80.3416 109.241 80.3156 109.449 80.2496 109.842C80.1676 110.289 80.0626 110.855 79.9346 111.553C79.6246 113.101 79.1996 115.227 78.6806 117.825C77.5606 123.169 76.0366 130.437 74.3526 138.469C72.6106 146.49 71.0346 153.748 69.8756 159.083C69.2896 161.665 68.8096 163.779 68.4606 165.318C68.2936 166.007 68.1576 166.567 68.0506 167.008C67.9516 167.393 67.8906 167.594 67.8726 167.59C67.8546 167.586 67.8816 167.379 67.9476 166.986C68.0296 166.54 68.1336 165.973 68.2626 165.276C68.5716 163.728 68.9966 161.603 69.5156 159.006C70.6356 153.662 72.1607 146.391 73.8447 138.355C75.5867 130.335 77.1626 123.077 78.3216 117.741C78.9076 115.159 79.3876 113.046 79.7366 111.507C79.9036 110.818 80.0396 110.259 80.1466 109.818C80.2466 109.433 80.3076 109.233 80.3246 109.237Z" fill="#263238"/>
<path d="M92.9242 44.1209L96.4292 51.2229C96.6032 51.5759 96.9402 51.8208 97.3302 51.8768L105.168 53.0159C106.149 53.1589 106.541 54.3638 105.831 55.0558L100.16 60.5838C99.8782 60.8588 99.7492 61.2549 99.8162 61.6429L101.155 69.4489C101.323 70.4259 100.297 71.1709 99.4192 70.7099L92.4092 67.0248C92.0602 66.8418 91.6442 66.8418 91.2962 67.0248L84.2862 70.7099C83.4082 71.1709 82.3832 70.4259 82.5502 69.4489L83.8892 61.6429C83.9562 61.2549 83.8272 60.8588 83.5452 60.5838L77.8742 55.0558C77.1642 54.3638 77.5562 53.1579 78.5372 53.0159L86.3752 51.8768C86.7652 51.8198 87.1022 51.5759 87.2762 51.2229L90.7812 44.1209C91.2182 43.2319 92.4852 43.2319 92.9242 44.1209Z" fill="#804EE6"/>
<path d="M101.333 41.916L101.755 43.273C101.943 43.876 102.415 44.348 103.018 44.537L104.378 44.961L103.011 45.426C102.45 45.617 102.008 46.056 101.814 46.616L101.333 48.005L100.798 46.553C100.596 46.004 100.154 45.577 99.5991 45.394L98.2891 44.961L99.5811 44.524C100.119 44.342 100.549 43.931 100.755 43.402L101.333 41.916Z" fill="#804EE6"/>
<g opacity="0.3">
<path d="M99.87 30.062C99.754 30.373 99.6621 30.727 99.6751 31.052C100.196 31.219 100.709 31.403 101.216 31.598C101.502 31.409 101.77 31.152 101.972 30.899C105.352 26.65 108.732 22.4 112.112 18.151C112.601 17.536 113.119 16.824 113.01 16.046C113.004 16.005 112.985 15.972 112.976 15.932C111.151 15.778 109.045 16.694 107.22 16.127C106.726 15.974 106.308 15.829 105.932 15.668C105.407 17.241 104.545 19.653 103.535 22.351C101.782 27.031 100.252 30.783 100.117 30.732C99.982 30.682 101.294 26.848 103.047 22.168C104.062 19.458 105.001 17.065 105.639 15.535C105.562 15.497 105.488 15.456 105.415 15.415L105.287 15.527C103.482 20.373 101.676 25.217 99.87 30.062ZM105.153 25.886C106.707 23.913 107.968 22.307 108.088 22.391C108.204 22.471 107.127 24.221 105.563 26.207C104.001 28.197 102.554 29.655 102.449 29.562C102.339 29.465 103.602 27.862 105.153 25.886Z" fill="black"/>
<path d="M112.535 29.0823C114.222 27.2503 115.771 25.6103 116.911 24.4413C118.051 23.2723 118.783 22.5733 118.836 22.6223C118.889 22.6713 118.253 23.4583 117.182 24.6913C116.111 25.9243 114.605 27.6033 112.918 29.4353C111.231 31.2683 109.681 32.9083 108.542 34.0763C108.121 34.4693 107.891 34.8793 107.848 35.2323C108.041 35.3753 108.23 35.5223 108.42 35.6703C114.269 32.2113 120.989 27.8303 126.203 23.9713C125.737 23.5243 125.182 23.2163 124.566 23.0003L124.541 22.9923C122.864 22.4093 120.79 22.4323 119.127 21.7773C116.275 24.8023 112.829 28.4423 109.849 32.0423C110.654 31.1403 111.557 30.1443 112.535 29.0823Z" fill="black"/>
<path d="M126.578 34.7955C126.611 34.8615 125.848 35.3135 124.612 36.0305C123.375 36.7475 121.666 37.7335 119.805 38.8665C117.977 40.0225 116.117 40.9295 115.586 42.2125C115.378 42.6725 115.325 43.1085 115.346 43.4535C115.481 43.6775 115.608 43.9065 115.738 44.1345C120.521 43.1335 127.967 39.6705 133.418 37.4705C131.759 36.1425 129.268 35.6225 128.087 33.8115C127.509 34.1655 126.915 34.5135 126.311 34.8575C126.47 34.8005 126.568 34.7755 126.578 34.7955ZM123.066 40.7515C121.516 41.4305 120.244 41.9575 120.177 41.8275C120.112 41.7015 121.29 40.9605 122.857 40.2745C124.423 39.5855 125.766 39.2205 125.814 39.3535C125.864 39.4905 124.614 40.0705 123.066 40.7515Z" fill="black"/>
<path d="M131.117 46.0401C129.877 46.5441 128.15 47.2071 126.231 47.9101C124.312 48.6131 122.564 49.2211 121.292 49.6371C120.019 50.0531 119.221 50.2751 119.199 50.2071C119.196 50.1991 119.207 50.1871 119.224 50.1721C118.936 50.2931 118.669 50.4161 118.391 50.5381C118.661 51.5151 118.882 52.5121 119.048 53.5281C119.299 53.5431 119.552 53.5431 119.802 53.5371C124.895 53.4151 133.147 52.9121 139.259 52.5681C138.966 51.8711 138.544 51.2051 138.079 50.6211C136.989 49.2541 135.643 47.9921 135.161 46.3101C135.008 45.7781 134.953 45.2251 134.942 44.6641C134.12 44.9371 133.259 45.2201 132.367 45.5111C132.041 45.6581 131.622 45.8351 131.117 46.0401Z" fill="black"/>
<path d="M129.636 60.0123C127.114 59.8213 124.833 59.6473 122.948 59.5043C121.237 59.3653 120.178 59.2553 120.182 59.1823C120.185 59.1203 121.008 59.0973 122.374 59.1233C121.542 59.0623 120.708 59.0113 119.872 58.9793C119.716 58.9733 119.558 58.9703 119.4 58.9723C119.376 59.7983 119.318 60.6163 119.225 61.4233C124.481 63.3863 132.24 66.1383 138.279 68.3483C138.479 67.9493 138.608 67.5213 138.621 67.0413C138.686 64.6483 135.814 62.8253 135.957 60.5113C135.214 60.4533 134.471 60.3893 133.73 60.3153C132.462 60.2223 131.096 60.1213 129.636 60.0123Z" fill="black"/>
<path d="M121.399 69.2387C120.474 68.7517 119.552 68.2677 118.64 67.7997C118.385 67.6687 118.124 67.5377 117.858 67.4277C117.526 68.3877 117.146 69.3257 116.717 70.2357C121.339 73.7777 127.405 79.9887 132.547 84.4907C133.189 84.1057 133.763 83.6537 134.137 83.0027C135.384 80.8267 133.692 78.1687 133.452 75.6707C131.898 74.9037 129.545 73.6847 126.926 72.2797C124.786 71.1317 122.854 70.0667 121.399 69.2387Z" fill="black"/>
<path d="M122.15 81.7022C119.686 79.9482 117.473 78.3362 115.886 77.1492C114.756 76.3032 113.952 75.6782 113.594 75.3652C113.228 75.8452 112.845 76.3102 112.449 76.7652C112.783 77.3242 113.238 77.8142 113.69 78.2892C117.123 81.8992 122.527 88.0832 126.573 92.4932C127.518 90.9362 127.292 88.6612 128.416 87.1362C128.566 86.9332 128.743 86.7592 128.926 86.5912C128.415 86.1822 127.87 85.7532 127.301 85.3112C125.834 84.3032 124.059 83.0612 122.15 81.7022Z" fill="black"/>
<path d="M112.555 89.7461C111.842 88.5001 111.162 87.3131 110.531 86.2101C109.899 85.1301 109.43 84.0831 108.756 83.4951C108.099 82.8791 107.274 82.8831 106.826 83.0591C106.355 83.2381 106.228 83.5411 106.185 83.5081C106.165 83.5151 106.227 83.1491 106.743 82.8751C107.189 82.6271 108.062 82.5591 108.825 83.0941C108.297 82.3981 107.803 81.8111 107.355 81.3711C106.837 81.7371 106.309 82.0911 105.766 82.4221C106.92 88.2621 109.932 96.8091 112.752 103.638C113.586 103.747 114.373 103.652 115.073 103.115C116.851 101.75 116.121 98.8911 116.726 96.7521C116.6 96.5501 116.469 96.3381 116.329 96.1091C115.339 94.4951 114.003 92.2461 112.555 89.7461Z" fill="black"/>
<path d="M104.453 99.7343C104.792 101.216 104.951 102.144 104.883 102.161C104.812 102.179 104.526 101.282 104.097 99.8273C103.619 98.1883 103.058 96.2643 102.438 94.1393C101.808 92.0163 101.238 90.0953 100.753 88.4583C100.515 87.6463 100.336 87.0143 100.234 86.6013C100.135 86.3663 100.036 86.1273 99.9367 85.9023C99.6797 91.6063 100.023 99.5953 100.409 106.006C101.968 104.869 103.522 103.484 105.217 102.78C104.754 100.557 104.144 98.1623 103.449 95.7933C103.866 97.3023 104.209 98.6653 104.453 99.7343Z" fill="black"/>
<path d="M91.7823 101.754C91.4973 103.543 91.2853 104.645 91.2143 104.635C91.1433 104.626 91.2263 103.507 91.4173 101.705C91.6093 99.9042 91.9093 97.4202 92.2723 94.6822C92.4593 93.3232 92.6383 92.0292 92.8043 90.8242C92.9823 89.6552 93.0143 88.5872 92.6783 87.7972C92.4123 87.1732 91.9793 86.7692 91.5893 86.5452C91.3893 86.5492 91.1903 86.5602 90.9893 86.5602C90.6593 86.5602 90.3323 86.5462 90.0043 86.5352C89.9683 86.5672 89.9283 86.5972 89.8953 86.6312C89.2863 87.2492 88.9903 88.1012 88.7123 88.9232C86.9713 94.0712 85.2293 101.751 83.4883 107.296C85.5463 106.861 86.8763 104.35 89.0113 104.217C89.9943 104.156 90.8243 104.605 91.6213 105.198C91.7883 103.503 91.9433 101.625 92.0953 99.7102C91.9843 100.458 91.8793 101.148 91.7823 101.754Z" fill="black"/>
<path d="M79.3163 93.8259C79.9263 92.5799 80.5253 91.3879 80.9743 90.2889C81.4203 89.1889 81.6603 88.1429 81.6413 87.2579C81.6333 86.3929 81.4273 85.7449 81.2253 85.2939C80.8333 85.3229 80.4983 85.632 80.2253 85.935C76.3463 90.241 70.8793 97.196 66.9023 102.562C69.1013 103.391 72.1163 101.978 74.7113 102.26C74.9453 101.825 75.3803 101.078 75.9443 100.095C76.8523 98.5139 78.0763 96.3139 79.3163 93.8259Z" fill="black"/>
<path d="M66.1356 91.9664C66.8416 91.1374 68.6356 89.2594 70.7066 87.0354C72.9626 84.6204 74.8376 82.5584 75.4916 81.9594C74.8396 81.5344 74.2056 81.0834 73.5926 80.6084C73.1356 81.0644 72.2106 81.8514 71.0966 82.7154C69.4606 83.9854 68.0626 84.9224 67.9746 84.8084C67.8866 84.6944 69.1416 83.5734 70.7776 82.3044C71.6186 81.6514 72.3936 81.0894 72.9636 80.7104C71.7526 81.1724 70.6336 81.9694 69.5796 82.7534C65.6146 85.7004 61.6496 88.6474 57.6836 91.5954C59.7406 91.9584 62.0696 92.0424 63.3576 93.5624C63.5586 93.8004 63.7146 94.0614 63.8456 94.3334C64.5466 93.5804 65.3186 92.7864 66.1356 91.9664Z" fill="black"/>
<path d="M61.6299 79.9137C63.6149 78.6117 65.5009 77.4857 66.7599 76.6457C67.0489 76.4207 67.2589 76.1577 67.3429 75.9027C67.4289 75.6427 67.4049 75.3857 67.3429 75.2007C67.2109 74.8157 66.9389 74.7467 66.9629 74.7047C66.9479 74.6787 67.2929 74.6737 67.5299 75.1217C67.6369 75.3357 67.7019 75.6377 67.6249 75.9807C67.6109 76.0387 67.5869 76.0957 67.5649 76.1527C67.8739 75.9267 68.1909 75.6457 68.3429 75.3147C68.0149 74.8827 67.6959 74.4447 67.3929 73.9937C66.9919 73.9537 66.5859 74.0497 66.1929 74.1527C60.8409 75.5627 52.6659 78.6187 46.2949 80.9787C48.3409 82.4387 51.9499 81.8077 53.2349 84.0547C53.3929 84.3297 53.4829 84.6257 53.5499 84.9277C55.2989 83.8567 57.2539 82.6847 59.1889 81.5127C59.9519 81.0057 60.7659 80.4717 61.6299 79.9137Z" fill="black"/>
<path d="M55.5742 70.0876C56.7802 69.7676 57.9282 69.4626 59.0032 69.1776C60.0592 68.8986 61.0172 68.6886 61.7722 68.4096C63.3282 67.8816 63.8672 66.9386 63.9272 66.9926C63.9522 67.0056 63.8672 67.2596 63.5582 67.6256C63.3792 67.8416 63.0982 68.0776 62.7482 68.3036C62.8892 68.2546 63.0392 68.2066 63.1752 68.1576C63.5382 68.0276 63.9302 67.8526 64.1722 67.5746C63.9902 67.0576 63.8242 66.5326 63.6712 66.0016C63.2592 65.8086 62.7882 65.7826 62.3322 65.7666C55.7202 65.5296 49.1062 65.3396 42.4922 65.1826C43.4152 66.7416 45.4612 67.4306 46.3132 69.0436C46.8462 70.0536 46.8002 71.1726 46.5372 72.3246C48.1082 71.9706 49.8122 71.5986 51.5462 71.2116C52.7502 70.8656 54.1172 70.4836 55.5742 70.0876Z" fill="black"/>
<path d="M44.6959 58.3772C44.7019 58.3032 45.6659 58.3272 47.2199 58.3842C48.7739 58.4422 50.9189 58.5252 53.2899 58.5772C55.6599 58.6272 57.8059 58.6372 59.3619 58.6452C60.9169 58.6542 61.8809 58.6722 61.8839 58.7462C61.8869 58.8162 60.9279 58.9282 59.3699 59.0132C58.3469 59.0692 57.0489 59.1062 55.6149 59.1132C58.0779 59.2072 60.4349 59.2402 62.4149 59.1362C62.4699 59.1332 62.5259 59.1282 62.5809 59.1242C62.5699 58.7932 62.5559 58.4612 62.5559 58.1272C62.5559 57.6552 62.5689 57.1862 62.5919 56.7202C62.5449 56.6912 62.4979 56.6612 62.4499 56.6332C56.9789 53.3742 49.1129 51.0272 42.6059 49.2402C42.5889 50.4112 43.0379 51.4932 44.1369 51.8012L43.9979 50.8992C45.6029 51.6062 46.0439 53.7762 45.5379 55.4552C45.2099 56.5442 44.6019 57.5082 43.9799 58.4672C44.4679 58.4932 44.9759 58.5212 45.4949 58.5522C44.9849 58.4782 44.6929 58.4142 44.6959 58.3772ZM58.6919 56.9662C60.5229 57.2902 61.9919 57.6682 61.9749 57.8102C61.9569 57.9532 60.4469 57.8042 58.6019 57.4782C56.7569 57.1522 55.2869 56.7742 55.3189 56.6342C55.3509 56.4942 56.8609 56.6422 58.6919 56.9662Z" fill="black"/>
<path d="M47.124 43.5688C47.158 43.5038 48.168 43.9588 49.784 44.7228C50.386 45.0038 51.095 45.3378 51.849 45.6858C53.694 46.4718 55.606 47.2718 57.482 48.0128C59.507 48.7198 61.386 49.2128 62.798 49.4218C63.218 49.4568 63.603 49.3968 63.876 49.2428C63.936 49.2088 63.973 49.1608 64.023 49.1208C64.22 48.5308 64.434 47.9498 64.667 47.3778C63.749 46.9228 62.352 46.1668 60.786 45.2678C58.107 43.7298 55.994 42.3828 56.066 42.2578C56.138 42.1328 58.367 43.2778 61.046 44.8158C61.621 45.1458 62.162 45.4638 62.669 45.7668C57.345 42.1658 52.216 38.6468 46.901 35.8418C46.581 37.7208 47.301 40.1278 46.715 42.0718C46.587 42.4958 46.393 42.8838 46.166 43.2548C46.556 43.4198 46.956 43.5898 47.368 43.7658C47.206 43.6588 47.114 43.5878 47.124 43.5688Z" fill="black"/>
<path d="M56.7807 31.9273C56.8367 31.8763 57.5047 32.5283 58.5907 33.5693C59.6767 34.6103 61.1937 36.0273 62.9407 37.5123C64.6887 38.9943 66.3327 40.2613 67.5367 41.1633C67.6817 41.2723 67.8197 41.3753 67.9507 41.4733C68.2967 40.9943 68.6527 40.5233 69.0277 40.0683C69.0087 40.0353 68.9887 40.0003 68.9697 39.9673C68.4427 39.3423 67.7767 38.4943 67.0807 37.5223C65.5987 35.4563 64.5777 33.6623 64.6967 33.5863C64.7807 33.5323 65.3807 34.3013 66.2197 35.4443C63.7577 31.6123 60.8587 27.5853 58.2597 24.5273C57.4087 24.7123 56.6387 25.0223 56.0847 25.6973C54.9767 27.0473 55.3857 29.1603 54.8477 30.7653C55.8817 31.6823 57.0417 32.6993 58.2627 33.7553C57.2807 32.6843 56.7317 31.9713 56.7807 31.9273Z" fill="black"/>
<path d="M70.4161 28.8001C72.9231 31.9611 75.0111 34.4881 74.9581 34.6471C75.4181 34.3321 75.8871 34.0311 76.3661 33.7431C76.3411 33.6781 76.3171 33.6131 76.2921 33.5481C74.4071 28.7571 70.9961 21.2321 68.7231 15.7471C68.3471 15.9101 67.9851 16.0881 67.6581 16.2921C65.9931 17.3301 65.4451 19.4591 64.5371 21.2311C65.1171 21.9911 65.7761 22.8791 66.4831 23.8441C67.3091 24.8491 68.7461 26.7001 70.4161 28.8001ZM72.9951 27.3541C73.1351 27.3051 73.7691 28.7911 74.6161 30.5861C75.4571 32.3831 76.1951 33.8201 76.0681 33.8961C75.9491 33.9701 74.9991 32.6321 74.1441 30.8071C73.2851 28.9841 72.8631 27.3991 72.9951 27.3541Z" fill="black"/>
<path d="M79.1397 17.5955C79.2137 17.5865 79.3737 18.4395 79.6147 19.8185C79.8557 21.1975 80.1857 23.1005 80.5927 25.1945C80.9487 27.0205 81.2997 28.6665 81.5807 29.9715C81.7157 30.4055 81.8548 30.7945 81.9948 31.1555C82.5318 30.9765 83.0747 30.8105 83.6247 30.6635C83.4887 30.4355 83.3467 29.0435 83.1217 27.3555C82.8817 25.5075 82.6327 24.0105 82.7767 23.9755C82.9117 23.9405 83.3937 25.4075 83.6387 27.2875C83.7267 27.9525 83.7717 28.5705 83.7887 29.0975C83.7717 23.9315 83.9007 17.2785 83.8927 12.0225C83.0597 12.8155 82.4467 14.1925 81.1077 16.1705C80.6307 16.8745 79.8807 17.2225 79.0527 17.3125C79.0727 17.4415 79.0917 17.5685 79.1117 17.7015C79.1177 17.6395 79.1267 17.5965 79.1397 17.5955Z" fill="black"/>
<path d="M91.713 22.9848C91.663 25.8898 91.5639 28.4148 91.4609 29.7068C92.1439 29.7178 92.8209 29.7528 93.4909 29.8108C94.6529 28.2328 95.1999 26.2158 95.6849 24.2828C96.5649 20.7728 97.7789 15.1298 98.7549 11.0098C98.1639 11.0508 97.5679 11.2078 96.9899 11.5258C95.4509 12.3748 93.5819 16.0948 92.6079 16.1098C92.2849 16.1148 91.9919 15.9298 91.7069 15.6368C91.6979 15.7748 91.6899 15.9138 91.6809 16.0518C91.7489 17.2678 91.766 19.9108 91.713 22.9848Z" fill="black"/>
</g>
<path d="M160.499 39L160.847 40.1147C161.001 40.6095 161.388 40.9976 161.883 41.1518L163 41.5L161.878 41.8816C161.418 42.039 161.055 42.3991 160.896 42.8594L160.501 44L160.061 42.8077C159.895 42.357 159.532 42.0067 159.076 41.8558L158 41.5L159.061 41.141C159.502 40.9912 159.855 40.6537 160.024 40.2193L160.499 39Z" fill="#804EE6"/>
<path d="M125.83 0L126.166 0.875692C126.315 1.26442 126.689 1.56931 127.169 1.69041L128.249 1.96396L127.164 2.26376C126.718 2.38656 126.367 2.67028 126.214 3.0319L125.831 3.92792L125.406 2.99125C125.245 2.63724 124.895 2.36201 124.453 2.24344L123.412 1.96396L124.438 1.68194C124.866 1.56422 125.207 1.29914 125.37 0.957841L125.83 0Z" fill="#804EE6"/>
<path d="M172.499 169L172.846 170.115C173 170.61 173.387 170.998 173.883 171.152L175 171.5L173.878 171.882C173.417 172.039 173.054 172.399 172.896 172.859L172.501 174L172.061 172.808C171.895 172.357 171.533 172.007 171.076 171.856L170 171.5L171.061 171.141C171.503 170.991 171.855 170.654 172.025 170.219L172.499 169Z" fill="#804EE6"/>
<path d="M139.499 136L139.847 137.115C140.001 137.61 140.388 137.998 140.883 138.152L142 138.5L140.878 138.882C140.418 139.038 140.055 139.399 139.896 139.859L139.501 141L139.061 139.808C138.895 139.357 138.533 139.007 138.076 138.856L137 138.5L138.061 138.141C138.502 137.991 138.855 137.654 139.024 137.219L139.499 136Z" fill="#804EE6"/>
<path d="M150.705 5.51465L152.079 9.85703C152.69 11.7864 154.227 13.2988 156.19 13.9002L160.619 15.2578L156.167 16.7456C154.341 17.3563 152.902 18.7621 152.271 20.5541L150.704 25L148.961 20.3543C148.302 18.5981 146.864 17.2323 145.055 16.6442L140.789 15.2578L144.995 13.8592C146.748 13.2762 148.147 11.9616 148.819 10.2679L150.705 5.51465Z" fill="#804EE6"/>
<path d="M9.91583 152L11.2901 156.011C11.9011 157.794 13.438 159.19 15.4013 159.746L19.8296 161L15.3784 162.375C13.5516 162.939 12.1138 164.238 11.4819 165.893L9.91478 170L8.17144 165.709C7.51247 164.086 6.07462 162.825 4.26558 162.282L0 161.001L4.20614 159.709C5.95888 159.17 7.35817 157.956 8.02965 156.392L9.91583 152Z" fill="#804EE6"/>
<path d="M14.0925 28L14.6597 29.4821C14.912 30.141 15.547 30.6567 16.3572 30.8617L18.185 31.3249L16.3478 31.8331C15.5929 32.0414 14.9996 32.5216 14.7389 33.1331L14.0925 34.6499L13.373 33.0645C13.1009 32.4649 12.5076 31.9991 11.7611 31.7983L10 31.3249L11.7361 30.8473C12.4597 30.6483 13.0373 30.1994 13.3146 29.6218L14.0925 28Z" fill="#804EE6"/>
<path d="M111.093 208L111.66 209.928C111.912 210.785 112.546 211.456 113.357 211.722L115.185 212.325L113.348 212.986C112.593 213.257 112 213.881 111.739 214.677L111.093 216.65L110.373 214.588C110.101 213.808 109.508 213.202 108.761 212.941L107 212.325L108.736 211.704C109.46 211.445 110.037 210.861 110.315 210.11L111.093 208Z" fill="#804EE6"/>
</svg>
