<svg width="963" height="464" viewBox="0 0 963 464" fill="none" xmlns="http://www.w3.org/2000/svg">
<path d="M894.622 190.756C884.573 192.657 878.844 209.968 879.085 233.381C872.342 222.484 864.783 216.405 857.95 217.698C847.902 219.599 842.173 236.91 842.414 260.323C835.671 249.426 828.111 243.347 821.278 244.64C811.23 246.541 805.501 263.852 805.742 287.266C798.999 276.368 791.44 270.289 784.607 271.582C774.558 273.484 768.829 290.795 769.071 314.208C762.327 303.31 754.768 297.231 747.935 298.524C737.887 300.426 732.158 317.737 732.399 341.15C725.656 330.252 718.097 324.173 711.264 325.466C697.39 328.092 691.75 360.072 698.678 396.906C705.606 433.74 722.475 461.46 736.349 458.835C746.398 456.933 752.127 439.622 751.885 416.209C758.628 427.107 766.188 433.186 773.021 431.893C783.069 429.991 788.798 412.68 788.557 389.267C795.3 400.165 802.859 406.244 809.692 404.951C819.741 403.049 825.47 385.738 825.228 362.325C831.972 373.222 839.531 379.301 846.364 378.008C856.412 376.107 862.141 358.796 861.9 335.383C868.643 346.28 876.203 352.359 883.035 351.066C893.084 349.165 898.813 331.854 898.572 308.441C905.315 319.338 912.874 325.417 919.707 324.124C933.581 321.499 939.22 289.519 932.292 252.685C925.364 215.851 908.509 188.128 894.622 190.756Z" fill="#9767F8" fill-opacity="0.13"/>
<path d="M693.867 18.9671C697.165 18.9671 699.839 16.1725 699.839 12.7252C699.839 9.27796 697.165 6.4834 693.867 6.4834C690.569 6.4834 687.895 9.27796 687.895 12.7252C687.895 16.1725 690.569 18.9671 693.867 18.9671Z" fill="#704FE6" fill-opacity="0.18"/>
<path d="M719.974 18.9671C723.273 18.9671 725.947 16.1725 725.947 12.7252C725.947 9.27796 723.273 6.4834 719.974 6.4834C716.676 6.4834 714.002 9.27796 714.002 12.7252C714.002 16.1725 716.676 18.9671 719.974 18.9671Z" fill="#704FE6" fill-opacity="0.18"/>
<path d="M746.08 18.9671C749.378 18.9671 752.052 16.1725 752.052 12.7252C752.052 9.27796 749.378 6.4834 746.08 6.4834C742.781 6.4834 740.107 9.27796 740.107 12.7252C740.107 16.1725 742.781 18.9671 746.08 18.9671Z" fill="#704FE6" fill-opacity="0.18"/>
<path d="M772.232 18.9671C775.53 18.9671 778.204 16.1725 778.204 12.7252C778.204 9.27796 775.53 6.4834 772.232 6.4834C768.934 6.4834 766.26 9.27796 766.26 12.7252C766.26 16.1725 768.934 18.9671 772.232 18.9671Z" fill="#704FE6" fill-opacity="0.18"/>
<path d="M798.34 18.9671C801.638 18.9671 804.312 16.1725 804.312 12.7252C804.312 9.27796 801.638 6.4834 798.34 6.4834C795.041 6.4834 792.367 9.27796 792.367 12.7252C792.367 16.1725 795.041 18.9671 798.34 18.9671Z" fill="#704FE6" fill-opacity="0.18"/>
<path d="M693.867 41.4505C697.165 41.4505 699.839 38.6559 699.839 35.2086C699.839 31.7614 697.165 28.9668 693.867 28.9668C690.569 28.9668 687.895 31.7614 687.895 35.2086C687.895 38.6559 690.569 41.4505 693.867 41.4505Z" fill="#704FE6" fill-opacity="0.18"/>
<path d="M719.974 41.4505C723.273 41.4505 725.947 38.6559 725.947 35.2086C725.947 31.7614 723.273 28.9668 719.974 28.9668C716.676 28.9668 714.002 31.7614 714.002 35.2086C714.002 38.6559 716.676 41.4505 719.974 41.4505Z" fill="#704FE6" fill-opacity="0.18"/>
<path d="M746.08 41.4505C749.378 41.4505 752.052 38.6559 752.052 35.2086C752.052 31.7614 749.378 28.9668 746.08 28.9668C742.781 28.9668 740.107 31.7614 740.107 35.2086C740.107 38.6559 742.781 41.4505 746.08 41.4505Z" fill="#704FE6" fill-opacity="0.18"/>
<path d="M772.232 41.4505C775.53 41.4505 778.204 38.6559 778.204 35.2086C778.204 31.7614 775.53 28.9668 772.232 28.9668C768.934 28.9668 766.26 31.7614 766.26 35.2086C766.26 38.6559 768.934 41.4505 772.232 41.4505Z" fill="#704FE6" fill-opacity="0.18"/>
<path d="M798.34 41.4505C801.638 41.4505 804.312 38.6559 804.312 35.2086C804.312 31.7614 801.638 28.9668 798.34 28.9668C795.041 28.9668 792.367 31.7614 792.367 35.2086C792.367 38.6559 795.041 41.4505 798.34 41.4505Z" fill="#704FE6" fill-opacity="0.18"/>
<path d="M693.867 63.9348C697.165 63.9348 699.839 61.1403 699.839 57.693C699.839 54.2457 697.165 51.4512 693.867 51.4512C690.569 51.4512 687.895 54.2457 687.895 57.693C687.895 61.1403 690.569 63.9348 693.867 63.9348Z" fill="#704FE6" fill-opacity="0.18"/>
<path d="M719.974 63.9348C723.273 63.9348 725.947 61.1403 725.947 57.693C725.947 54.2457 723.273 51.4512 719.974 51.4512C716.676 51.4512 714.002 54.2457 714.002 57.693C714.002 61.1403 716.676 63.9348 719.974 63.9348Z" fill="#704FE6" fill-opacity="0.18"/>
<path d="M746.08 63.9348C749.378 63.9348 752.052 61.1403 752.052 57.693C752.052 54.2457 749.378 51.4512 746.08 51.4512C742.781 51.4512 740.107 54.2457 740.107 57.693C740.107 61.1403 742.781 63.9348 746.08 63.9348Z" fill="#704FE6" fill-opacity="0.18"/>
<path d="M772.232 63.9348C775.53 63.9348 778.204 61.1403 778.204 57.693C778.204 54.2457 775.53 51.4512 772.232 51.4512C768.934 51.4512 766.26 54.2457 766.26 57.693C766.26 61.1403 768.934 63.9348 772.232 63.9348Z" fill="#704FE6" fill-opacity="0.18"/>
<path d="M798.34 63.9348C801.638 63.9348 804.312 61.1403 804.312 57.693C804.312 54.2457 801.638 51.4512 798.34 51.4512C795.041 51.4512 792.367 54.2457 792.367 57.693C792.367 61.1403 795.041 63.9348 798.34 63.9348Z" fill="#704FE6" fill-opacity="0.18"/>
<path d="M693.867 86.4182C697.165 86.4182 699.839 83.6237 699.839 80.1764C699.839 76.7291 697.165 73.9346 693.867 73.9346C690.569 73.9346 687.895 76.7291 687.895 80.1764C687.895 83.6237 690.569 86.4182 693.867 86.4182Z" fill="#704FE6" fill-opacity="0.18"/>
<path d="M719.974 86.4182C723.273 86.4182 725.947 83.6237 725.947 80.1764C725.947 76.7291 723.273 73.9346 719.974 73.9346C716.676 73.9346 714.002 76.7291 714.002 80.1764C714.002 83.6237 716.676 86.4182 719.974 86.4182Z" fill="#704FE6" fill-opacity="0.18"/>
<path d="M746.08 86.4182C749.378 86.4182 752.052 83.6237 752.052 80.1764C752.052 76.7291 749.378 73.9346 746.08 73.9346C742.781 73.9346 740.107 76.7291 740.107 80.1764C740.107 83.6237 742.781 86.4182 746.08 86.4182Z" fill="#704FE6" fill-opacity="0.18"/>
<path d="M772.232 86.4182C775.53 86.4182 778.204 83.6237 778.204 80.1764C778.204 76.7291 775.53 73.9346 772.232 73.9346C768.934 73.9346 766.26 76.7291 766.26 80.1764C766.26 83.6237 768.934 86.4182 772.232 86.4182Z" fill="#704FE6" fill-opacity="0.18"/>
<path d="M798.34 86.4182C801.638 86.4182 804.312 83.6237 804.312 80.1764C804.312 76.7291 801.638 73.9346 798.34 73.9346C795.041 73.9346 792.367 76.7291 792.367 80.1764C792.367 83.6237 795.041 86.4182 798.34 86.4182Z" fill="#704FE6" fill-opacity="0.18"/>
<path d="M693.867 108.902C697.165 108.902 699.839 106.107 699.839 102.66C699.839 99.2125 697.165 96.418 693.867 96.418C690.569 96.418 687.895 99.2125 687.895 102.66C687.895 106.107 690.569 108.902 693.867 108.902Z" fill="#704FE6" fill-opacity="0.18"/>
<path d="M719.974 108.902C723.273 108.902 725.947 106.107 725.947 102.66C725.947 99.2125 723.273 96.418 719.974 96.418C716.676 96.418 714.002 99.2125 714.002 102.66C714.002 106.107 716.676 108.902 719.974 108.902Z" fill="#704FE6" fill-opacity="0.18"/>
<path d="M746.08 108.902C749.378 108.902 752.052 106.107 752.052 102.66C752.052 99.2125 749.378 96.418 746.08 96.418C742.781 96.418 740.107 99.2125 740.107 102.66C740.107 106.107 742.781 108.902 746.08 108.902Z" fill="#704FE6" fill-opacity="0.18"/>
<path d="M772.232 108.902C775.53 108.902 778.204 106.107 778.204 102.66C778.204 99.2125 775.53 96.418 772.232 96.418C768.934 96.418 766.26 99.2125 766.26 102.66C766.26 106.107 768.934 108.902 772.232 108.902Z" fill="#704FE6" fill-opacity="0.18"/>
<path d="M798.34 108.902C801.638 108.902 804.312 106.107 804.312 102.66C804.312 99.2125 801.638 96.418 798.34 96.418C795.041 96.418 792.367 99.2125 792.367 102.66C792.367 106.107 795.041 108.902 798.34 108.902Z" fill="#704FE6" fill-opacity="0.18"/>
<path d="M693.867 131.385C697.165 131.385 699.839 128.59 699.839 125.143C699.839 121.696 697.165 118.901 693.867 118.901C690.569 118.901 687.895 121.696 687.895 125.143C687.895 128.59 690.569 131.385 693.867 131.385Z" fill="#704FE6" fill-opacity="0.18"/>
<path d="M719.974 131.385C723.273 131.385 725.947 128.59 725.947 125.143C725.947 121.696 723.273 118.901 719.974 118.901C716.676 118.901 714.002 121.696 714.002 125.143C714.002 128.59 716.676 131.385 719.974 131.385Z" fill="#704FE6" fill-opacity="0.18"/>
<path d="M746.08 131.385C749.378 131.385 752.052 128.59 752.052 125.143C752.052 121.696 749.378 118.901 746.08 118.901C742.781 118.901 740.107 121.696 740.107 125.143C740.107 128.59 742.781 131.385 746.08 131.385Z" fill="#704FE6" fill-opacity="0.18"/>
<path d="M772.232 131.385C775.53 131.385 778.204 128.59 778.204 125.143C778.204 121.696 775.53 118.901 772.232 118.901C768.934 118.901 766.26 121.696 766.26 125.143C766.26 128.59 768.934 131.385 772.232 131.385Z" fill="#704FE6" fill-opacity="0.18"/>
<path d="M798.34 131.385C801.638 131.385 804.312 128.59 804.312 125.143C804.312 121.696 801.638 118.901 798.34 118.901C795.041 118.901 792.367 121.696 792.367 125.143C792.367 128.59 795.041 131.385 798.34 131.385Z" fill="#704FE6" fill-opacity="0.18"/>
<path d="M110.151 136.807C95.1228 136.807 82.9043 124.551 82.9043 109.478C82.9043 94.4041 95.1228 82.1484 110.151 82.1484C125.178 82.1484 137.397 94.4041 137.397 109.478C137.374 124.551 125.155 136.807 110.151 136.807ZM110.151 93.6253C101.426 93.6253 94.3235 100.75 94.3235 109.501C94.3235 118.251 101.426 125.376 110.151 125.376C118.875 125.376 125.978 118.251 125.978 109.501C125.978 100.75 118.875 93.6253 110.151 93.6253Z" fill="#9767F8" fill-opacity="0.2"/>
<path d="M110.198 157.63C106.909 157.63 103.62 157.286 100.377 156.622C87.839 154.01 77.0593 146.634 70.025 135.89C62.9907 125.146 60.5698 112.295 63.1734 99.6955C65.4344 88.7914 71.441 78.9639 80.0511 71.9999C88.5698 65.1275 99.2354 61.3477 110.107 61.3477C113.395 61.3477 116.684 61.6913 119.927 62.3556C132.465 64.9671 143.245 72.3434 150.279 83.0873C157.314 93.8311 159.735 106.683 157.131 119.282C154.87 130.186 148.863 140.014 140.253 146.978C131.712 153.85 121.046 157.63 110.198 157.63ZM110.107 72.8016C92.9092 72.8016 77.8586 85.0802 74.3415 102.009C70.2305 121.802 82.9516 141.274 102.684 145.397C105.151 145.924 107.686 146.176 110.175 146.176C127.372 146.176 142.423 133.897 145.94 116.968C147.927 107.37 146.077 97.588 140.733 89.387C135.389 81.1859 127.167 75.5735 117.598 73.5805C115.131 73.0765 112.596 72.8016 110.107 72.8016Z" fill="#9767F8" fill-opacity="0.2"/>
<path d="M110.221 177.765C108.12 177.765 105.996 177.674 103.872 177.468C85.7614 175.795 69.4091 167.136 57.7843 153.116C46.1595 139.097 40.7011 121.366 42.3683 103.223C43.9442 86.1793 51.7549 70.4415 64.4075 58.9646C76.9686 47.5336 93.1839 41.2568 110.062 41.2568C112.163 41.2568 114.287 41.3484 116.411 41.5546C134.522 43.2269 150.874 51.8861 162.499 65.9058C174.124 79.9254 179.582 97.6562 177.915 115.822C176.339 132.866 168.528 148.603 155.876 160.08C143.314 171.466 127.099 177.765 110.221 177.765ZM110.062 52.6879C80.6684 52.6879 56.4596 74.8628 53.7419 104.277C50.8642 135.477 73.8169 163.196 104.923 166.082C106.681 166.243 108.463 166.334 110.221 166.334C139.615 166.334 163.823 144.159 166.541 114.745C169.419 83.5449 146.466 55.8263 115.36 52.9399C113.602 52.7566 111.82 52.6879 110.062 52.6879Z" fill="#9767F8" fill-opacity="0.2"/>
<path d="M110.197 198.291C109.169 198.291 108.119 198.268 107.068 198.245C95.1234 197.833 83.6129 195.084 72.856 190.067C62.4645 185.233 53.2377 178.498 45.3813 170.068C37.5248 161.638 31.4955 151.925 27.4074 141.204C23.1594 130.094 21.241 118.388 21.6521 106.407C22.4514 83.2471 32.0436 61.6449 48.6929 45.5635C65.2736 29.528 87.0843 20.6855 110.083 20.6855C111.11 20.6855 112.161 20.7084 113.211 20.7314C125.156 21.1437 136.667 23.8926 147.424 28.9095C157.815 33.7431 167.042 40.478 174.898 48.9081C182.755 57.3383 188.784 67.0512 192.872 77.7721C197.12 88.8825 199.038 100.588 198.627 112.569C197.828 135.729 188.236 157.331 171.587 173.413C155.006 189.471 133.195 198.291 110.197 198.291ZM110.083 32.1395C68.334 32.1395 34.5101 64.9436 33.0713 106.819C31.5868 149.451 64.9767 185.325 107.456 186.814C108.37 186.837 109.283 186.86 110.174 186.86C151.923 186.86 185.747 154.056 187.185 112.18C188.67 69.5482 155.28 33.6743 112.8 32.1853C111.91 32.1624 110.996 32.1395 110.083 32.1395Z" fill="#9767F8" fill-opacity="0.2"/>
<path d="M110.152 219C95.4215 219 81.1246 216.114 67.6499 210.387C54.6548 204.866 42.9843 196.985 32.9582 186.929C22.9321 176.872 15.0529 165.166 9.57166 152.132C3.88488 138.616 0.984375 124.276 0.984375 109.5C0.984375 94.7244 3.86205 80.384 9.57166 66.8683C15.0757 53.8337 22.9321 42.1277 32.9582 32.0711C42.9843 22.0145 54.6548 14.1113 67.6499 8.61341C81.1246 2.90933 95.4215 0 110.152 0C124.883 0 139.18 2.88642 152.655 8.61341C165.65 14.1342 177.32 22.0145 187.346 32.0711C197.372 42.1277 205.252 53.8337 210.733 66.8683C216.42 80.384 219.32 94.7244 219.32 109.5C219.32 124.276 216.443 138.616 210.733 152.132C205.229 165.166 197.372 176.872 187.346 186.929C177.32 196.985 165.65 204.889 152.655 210.387C139.18 216.114 124.883 219 110.152 219ZM110.152 11.431C56.2535 11.431 12.4036 55.4143 12.4036 109.477C12.4036 163.54 56.2535 207.523 110.152 207.523C164.051 207.523 207.901 163.54 207.901 109.477C207.901 55.4372 164.051 11.431 110.152 11.431Z" fill="#9767F8" fill-opacity="0.2"/>
</svg>
