<svg width="419" height="410" viewBox="0 0 419 410" fill="none" xmlns="http://www.w3.org/2000/svg">
<path d="M288.581 225.726C328.352 173.734 322.085 102.13 274.583 65.7934C227.081 29.4567 156.332 42.1478 116.561 94.1396C76.7898 146.132 83.0568 217.736 130.559 254.073C178.061 290.409 248.81 277.718 288.581 225.726Z" fill="#FFC9C2"/>
<path d="M209.109 409.438C324.597 409.438 418.218 406.91 418.218 403.791C418.218 400.673 324.597 398.144 209.109 398.144C93.6213 398.144 0 400.673 0 403.791C0 406.91 93.6213 409.438 209.109 409.438Z" fill="#FFC9C2"/>
<path d="M124.588 172.097V184.537C124.588 187.135 126.694 189.24 129.291 189.24H239.416V167.393H129.291C126.694 167.393 124.588 169.499 124.588 172.097Z" fill="#828181"/>
<path d="M183.179 172.097V184.537C183.179 187.135 185.285 189.24 187.882 189.24H239.416V167.393H187.882C185.284 167.393 183.179 169.499 183.179 172.097Z" fill="#FEEBE8"/>
<path d="M172.556 175.266H135.234V181.008H172.556V175.266Z" stroke="#303030" stroke-miterlimit="10" stroke-linecap="round" stroke-linejoin="round"/>
<path d="M241.809 159.787V162.69C241.809 165.288 239.703 167.393 237.106 167.393H126.981V155.083H237.106C239.703 155.084 241.809 157.19 241.809 159.787Z" fill="#EB9481"/>
<path d="M183.219 159.787V162.69C183.219 165.288 181.113 167.393 178.516 167.393H126.982V155.083H178.516C181.113 155.084 183.219 157.19 183.219 159.787Z" fill="white"/>
<path d="M143.642 227.861V264.101C143.642 266.699 145.748 268.804 148.345 268.804H267.463V223.157H148.345C145.748 223.158 143.642 225.264 143.642 227.861Z" fill="#FF692D"/>
<path d="M206.821 227.861V264.101C206.821 266.699 208.927 268.804 211.524 268.804H267.463V223.157H211.524C208.927 223.158 206.821 225.264 206.821 227.861Z" fill="white"/>
<path d="M198.426 229.962V252.112" stroke="#FF4219" stroke-miterlimit="10" stroke-linecap="round" stroke-linejoin="round"/>
<path d="M191.859 229.962V253.534" stroke="#FF4219" stroke-miterlimit="10" stroke-linecap="round" stroke-linejoin="round"/>
<path d="M251.412 203.35V218.454C251.412 221.052 249.306 223.157 246.709 223.157H130.359V198.646H246.709C249.307 198.647 251.412 200.753 251.412 203.35Z" fill="black"/>
<path d="M189.645 203.35V218.454C189.645 221.052 187.539 223.157 184.942 223.157H130.359V198.646H184.942C187.539 198.647 189.645 200.753 189.645 203.35Z" fill="#FEEBE8"/>
<path d="M135.608 203.923H184.396" stroke="white" stroke-miterlimit="10" stroke-linecap="round" stroke-linejoin="round"/>
<path d="M135.608 207.967H184.396" stroke="white" stroke-miterlimit="10" stroke-linecap="round" stroke-linejoin="round"/>
<path d="M135.608 212.011H184.396" stroke="white" stroke-miterlimit="10" stroke-linecap="round" stroke-linejoin="round"/>
<path d="M133.785 193.944C133.785 196.542 135.891 198.648 138.488 198.648H254.838V189.241H138.488C135.891 189.24 133.785 191.346 133.785 193.944Z" fill="#FF692D"/>
<path d="M195.552 193.944C195.552 196.542 197.658 198.648 200.255 198.648H254.838V189.241H200.255C197.658 189.24 195.552 191.346 195.552 193.944Z" fill="white"/>
<path d="M137.077 273.509V280.554C137.077 283.152 139.183 285.257 141.78 285.257H260.898V268.805H141.781C139.183 268.805 137.077 270.911 137.077 273.509Z" fill="black"/>
<path d="M200.257 273.509V280.554C200.257 283.152 202.363 285.257 204.96 285.257H260.899V268.805H204.96C202.363 268.805 200.257 270.911 200.257 273.509Z" fill="#FFC9B1"/>
<path d="M129.172 289.96V304.004C129.172 306.602 131.278 308.707 133.875 308.707H256.835V285.256H133.875C131.278 285.257 129.172 287.363 129.172 289.96Z" fill="#D3766A"/>
<path d="M194.312 289.96V304.004C194.312 306.602 196.418 308.707 199.015 308.707H256.835V285.256H199.015C196.418 285.257 194.312 287.363 194.312 289.96Z" fill="#FFC9B1"/>
<path d="M135.156 313.412V315.162C135.156 317.76 137.262 319.865 139.859 319.865H262.82V308.708H139.86C137.262 308.708 135.156 310.814 135.156 313.412Z" fill="#828181"/>
<path d="M200.297 313.412V315.162C200.297 317.76 202.403 319.865 205 319.865H262.82V308.708H205C202.402 308.708 200.297 310.814 200.297 313.412Z" fill="#828181"/>
<path d="M135.156 324.569V333.57C135.156 336.168 137.262 338.273 139.859 338.273H262.82V319.865H139.86C137.262 319.865 135.156 321.971 135.156 324.569Z" fill="#EB9481"/>
<path d="M200.297 324.569V333.57C200.297 336.168 202.403 338.273 205 338.273H262.82V319.865H205C202.402 319.865 200.297 321.971 200.297 324.569Z" fill="white"/>
<path d="M302.51 313.463V324.286C302.51 326.949 300.351 329.108 297.688 329.108H183.775V308.641H297.688C300.35 308.641 302.51 310.8 302.51 313.463Z" fill="#FF692D"/>
<path d="M241.925 313.463V324.286C241.925 326.949 239.766 329.108 237.103 329.108H183.775V308.641H237.103C239.767 308.641 241.925 310.8 241.925 313.463Z" fill="white"/>
<path d="M188.456 313.259H237.244" stroke="white" stroke-miterlimit="10" stroke-linecap="round" stroke-linejoin="round"/>
<path d="M188.456 317.304H237.244" stroke="white" stroke-miterlimit="10" stroke-linecap="round" stroke-linejoin="round"/>
<path d="M167.669 251.916V266.113C167.669 268.776 169.828 270.935 172.491 270.935H281.709V247.094H172.491C169.828 247.093 167.669 249.252 167.669 251.916Z" fill="#303030"/>
<path d="M225.858 251.916V266.113C225.858 268.776 228.017 270.935 230.68 270.935H281.709V247.094H230.68C228.017 247.093 225.858 249.252 225.858 251.916Z" fill="#FEEBE8"/>
<path d="M231.572 252.57H275.996" stroke="white" stroke-miterlimit="10" stroke-linecap="round" stroke-linejoin="round"/>
<path d="M231.572 256.614H275.996" stroke="white" stroke-miterlimit="10" stroke-linecap="round" stroke-linejoin="round"/>
<path d="M231.572 260.659H275.996" stroke="white" stroke-miterlimit="10" stroke-linecap="round" stroke-linejoin="round"/>
<path d="M218.627 252.112V266.491" stroke="black" stroke-miterlimit="10" stroke-linecap="round" stroke-linejoin="round"/>
<path d="M212.85 252.112V266.491" stroke="black" stroke-miterlimit="10" stroke-linecap="round" stroke-linejoin="round"/>
<path d="M299.336 303.819C299.336 306.482 297.177 308.641 294.514 308.641H174.165V298.997H294.514C297.177 298.997 299.336 301.156 299.336 303.819Z" fill="black"/>
<path d="M235.468 303.819C235.468 306.482 233.309 308.641 230.646 308.641H174.165V298.997H230.646C233.309 298.997 235.468 301.156 235.468 303.819Z" fill="#FEEBE8"/>
<path d="M303.657 275.757V294.175C303.657 296.838 301.498 298.997 298.835 298.997H178.485V270.935H298.835C301.498 270.934 303.657 273.093 303.657 275.757Z" fill="#EB9481"/>
<path d="M239.788 275.757V294.175C239.788 296.838 237.629 298.997 234.966 298.997H178.485V270.935H234.966C237.63 270.934 239.788 273.093 239.788 275.757Z" fill="white"/>
<path d="M183.775 276.506H232.563" stroke="#A1A1A1" stroke-opacity="0.31" stroke-miterlimit="10" stroke-linecap="round" stroke-linejoin="round"/>
<path d="M183.775 280.55H232.563" stroke="#A1A1A1" stroke-opacity="0.31" stroke-miterlimit="10" stroke-linecap="round" stroke-linejoin="round"/>
<path d="M183.775 284.594H232.563" stroke="#A1A1A1" stroke-opacity="0.31" stroke-miterlimit="10" stroke-linecap="round" stroke-linejoin="round"/>
<path d="M187.445 313.745H236.233" stroke="#A1A1A1" stroke-opacity="0.31" stroke-miterlimit="10" stroke-linecap="round" stroke-linejoin="round"/>
<path d="M187.445 317.789H236.233" stroke="#A1A1A1" stroke-opacity="0.31" stroke-miterlimit="10" stroke-linecap="round" stroke-linejoin="round"/>
<path d="M187.445 321.833H236.233" stroke="#A1A1A1" stroke-opacity="0.31" stroke-miterlimit="10" stroke-linecap="round" stroke-linejoin="round"/>
<path d="M222.538 343.029V346.012C222.538 348.588 220.45 350.675 217.874 350.675H107.71V338.366H217.875C220.45 338.366 222.538 340.454 222.538 343.029Z" fill="#FF692D"/>
<path d="M163.947 343.029V346.012C163.947 348.588 161.859 350.675 159.284 350.675H107.71V338.366H159.284C161.86 338.366 163.947 340.454 163.947 343.029Z" fill="#FEEBE8"/>
<path d="M229.297 355.339V367.859C229.297 370.435 227.209 372.522 224.633 372.522H103.529V350.675H224.634C227.209 350.675 229.297 352.763 229.297 355.339Z" fill="#FF692D"/>
<path d="M165.124 355.339V367.859C165.124 370.435 163.036 372.522 160.461 372.522H103.529V350.675H160.461C163.036 350.675 165.124 352.763 165.124 355.339Z" fill="#FEEBE8"/>
<path d="M107.982 355.474H156.77" stroke="white" stroke-miterlimit="10" stroke-linecap="round" stroke-linejoin="round"/>
<path d="M107.982 359.519H156.77" stroke="white" stroke-miterlimit="10" stroke-linecap="round" stroke-linejoin="round"/>
<path d="M107.982 363.563H156.77" stroke="white" stroke-miterlimit="10" stroke-linecap="round" stroke-linejoin="round"/>
<path d="M175.383 355.474V367.686" stroke="#FF4219" stroke-miterlimit="10" stroke-linecap="round" stroke-linejoin="round"/>
<path d="M180.991 355.474V367.686" stroke="#FF4219" stroke-miterlimit="10" stroke-linecap="round" stroke-linejoin="round"/>
<path d="M219.83 377.186V377.266C219.83 379.842 217.742 381.929 215.167 381.929H98.7773V372.522H215.167C217.742 372.522 219.83 374.61 219.83 377.186Z" fill="#303030"/>
<path d="M158.062 377.186V377.266C158.062 379.842 155.974 381.929 153.399 381.929H98.7764V372.522H153.399C155.975 372.522 158.062 374.61 158.062 377.186Z" fill="white"/>
<path d="M230.245 386.593V398.626C230.245 401.202 228.157 403.289 225.582 403.289H102.581V381.929H225.582C228.157 381.929 230.245 384.017 230.245 386.593Z" fill="#FF692D"/>
<path d="M165.105 386.593V398.626C165.105 401.202 163.017 403.289 160.442 403.289H102.582V381.929H160.442C163.017 381.929 165.105 384.017 165.105 386.593Z" fill="#FEEBE8"/>
<path d="M196.47 386.145V399.204" stroke="#FF4219" stroke-miterlimit="10" stroke-linecap="round" stroke-linejoin="round"/>
<path d="M191.764 386.145V399.204" stroke="#FF4219" stroke-miterlimit="10" stroke-linecap="round" stroke-linejoin="round"/>
<path d="M187.069 386.145V399.204" stroke="#FF4219" stroke-miterlimit="10" stroke-linecap="round" stroke-linejoin="round"/>
<path d="M332.105 333.771V340.896C332.105 343.472 330.017 345.559 327.442 345.559H208.283V329.107H327.441C330.017 329.108 332.105 331.196 332.105 333.771Z" fill="#303030"/>
<path d="M268.925 333.771V340.896C268.925 343.472 266.837 345.559 264.262 345.559H208.283V329.107H264.262C266.837 329.108 268.925 331.196 268.925 333.771Z" fill="#FEEBE8"/>
<path d="M215.395 333.29H264.184" stroke="#FEEBE8" stroke-miterlimit="10" stroke-linecap="round" stroke-linejoin="round"/>
<path d="M215.395 337.334H264.184" stroke="#FEEBE8" stroke-miterlimit="10" stroke-linecap="round" stroke-linejoin="round"/>
<path d="M193.847 373.524V375.505C193.847 378.081 195.935 380.168 198.51 380.168H321.511V368.861H198.51C195.935 368.861 193.847 370.949 193.847 373.524Z" fill="#A1A1A1"/>
<path d="M258.986 373.524V375.505C258.986 378.081 261.074 380.168 263.649 380.168H321.509V368.861H263.649C261.074 368.861 258.986 370.949 258.986 373.524Z" fill="#FEEBE8"/>
<path d="M213.579 350.223V364.197C213.579 366.773 215.667 368.86 218.242 368.86H341.243V345.559H218.243C215.667 345.56 213.579 347.647 213.579 350.223Z" fill="black"/>
<path d="M278.719 350.223V364.197C278.719 366.773 280.807 368.86 283.382 368.86H341.242V345.559H283.382C280.807 345.56 278.719 347.647 278.719 350.223Z" fill="#FEEBE8"/>
<path d="M285.587 351.564H334.376" stroke="white" stroke-miterlimit="10" stroke-linecap="round" stroke-linejoin="round"/>
<path d="M285.587 355.608H334.376" stroke="white" stroke-miterlimit="10" stroke-linecap="round" stroke-linejoin="round"/>
<path d="M285.587 359.652H334.376" stroke="white" stroke-miterlimit="10" stroke-linecap="round" stroke-linejoin="round"/>
<path d="M262.822 353.401H223.52V360.519H262.822V353.401Z" stroke="white" stroke-miterlimit="10" stroke-linecap="round" stroke-linejoin="round"/>
<path d="M202.175 384.796V398.662C202.175 401.217 204.247 403.289 206.802 403.289H328.849V380.168H206.802C204.247 380.168 202.175 382.24 202.175 384.796Z" fill="#EB9481"/>
<path d="M266.811 384.796V398.662C266.811 401.217 268.883 403.289 271.438 403.289H328.85V380.168H271.438C268.882 380.168 266.811 382.24 266.811 384.796Z" fill="#FEEBE8"/>
<path d="M255.603 388.437H211.53V394.222H255.603V388.437Z" stroke="#AD6359" stroke-miterlimit="10" stroke-linecap="round" stroke-linejoin="round"/>
<path d="M280.633 389.819V398.626C280.633 401.202 282.721 403.289 285.296 403.289H395.461V385.155H285.297C282.721 385.155 280.633 387.243 280.633 389.819Z" fill="black"/>
<path d="M339.224 389.819V398.626C339.224 401.202 341.312 403.289 343.887 403.289H395.461V385.155H343.887C341.312 385.155 339.224 387.243 339.224 389.819Z" fill="#FEEBE8"/>
<path d="M345.491 390.178H390.824" stroke="white" stroke-miterlimit="10" stroke-linecap="round" stroke-linejoin="round"/>
<path d="M345.491 394.222H390.824" stroke="white" stroke-miterlimit="10" stroke-linecap="round" stroke-linejoin="round"/>
<path d="M329.367 390.178V399.204" stroke="black" stroke-miterlimit="10" stroke-linecap="round" stroke-linejoin="round"/>
<path d="M324.76 390.178V399.204" stroke="black" stroke-miterlimit="10" stroke-linecap="round" stroke-linejoin="round"/>
<path d="M173.686 385.808H130.746C124.896 368.648 120.266 349.738 116.876 333.688C112.326 312.088 110.016 295.658 110.016 295.658L95.7656 232.278L137.816 193.658C137.816 193.658 149.426 253.338 154.836 287.338C157.026 301.038 159.576 315.298 162.076 328.558C168.006 359.948 173.686 385.808 173.686 385.808Z" fill="#FFC9B1"/>
<path d="M138.23 280.778C141.043 284.287 146.426 285.422 150.416 283.347" stroke="black" stroke-miterlimit="10" stroke-linecap="round" stroke-linejoin="round"/>
<path d="M173.686 385.808H130.746C124.896 368.648 120.266 349.738 116.876 333.688L162.076 328.558C168.006 359.948 173.686 385.808 173.686 385.808Z" fill="white"/>
<path d="M122.613 347.522C136.413 346.375 150.213 345.228 164.013 344.081" stroke="#1D1141" stroke-miterlimit="10" stroke-linecap="round" stroke-linejoin="round"/>
<path d="M128.234 381.191L134.725 403.289H179.718C181.258 403.289 182.133 401.527 181.202 400.3L180.466 399.33C177.64 395.605 175.682 391.297 174.732 386.719L172.868 377.734C171.973 373.421 166.428 372.15 163.743 375.642L158.851 382.007L128.234 381.191Z" fill="#FF7664"/>
<path d="M134.822 399.929C147.686 400.288 161.052 401.347 173.915 401.706C175.13 399.213 178.817 398.376 180.99 400.099" fill="#FF7664"/>
<path d="M134.822 399.929C147.686 400.288 161.052 401.347 173.915 401.706C175.13 399.213 178.817 398.376 180.99 400.099" stroke="#C85959" stroke-miterlimit="10" stroke-linecap="round" stroke-linejoin="round"/>
<path d="M173.849 384.753C170.584 385.673 167.319 386.594 164.053 387.514C167.5 387.897 170.947 388.279 174.394 388.662C171.604 389.815 168.813 390.969 166.023 392.122C169.349 392.111 172.674 392.1 175.999 392.089" fill="#FF7664"/>
<path d="M173.849 384.753C170.584 385.673 167.319 386.594 164.053 387.514C167.5 387.897 170.947 388.279 174.394 388.662C171.604 389.815 168.813 390.969 166.023 392.122C169.349 392.111 172.674 392.1 175.999 392.089" stroke="#C85959" stroke-miterlimit="10" stroke-linecap="round" stroke-linejoin="round"/>
<path d="M92.5361 387.838H51.2761C51.2761 387.838 49.8061 361.178 48.1861 333.698C47.3961 320.188 46.5661 306.488 45.8461 295.658C43.6761 262.798 43.9861 223.618 47.4861 194.828L89.8161 243.808L89.0261 295.658C89.0261 295.658 91.0661 312.258 92.2561 334.818C93.1061 350.758 93.5361 369.678 92.5361 387.838Z" fill="#FFC9B1"/>
<path d="M44.4902 286.467C47.5192 287.702 51.4132 285.849 52.3652 282.72" stroke="black" stroke-miterlimit="10" stroke-linecap="round" stroke-linejoin="round"/>
<path d="M92.2565 334.818C93.1065 350.758 93.5365 369.678 92.5365 387.838H51.2765C51.2765 387.838 49.8065 361.178 48.1865 333.698L92.2565 334.818Z" fill="white"/>
<path d="M50.1123 347.473C63.2863 347.748 76.4603 348.022 89.6343 348.297" stroke="#1D1141" stroke-miterlimit="10" stroke-linecap="round" stroke-linejoin="round"/>
<path d="M57.4132 376.104L60.6842 382.188L93.8242 380.14V402.925H41.5182C39.8452 402.925 39.0292 400.882 40.2422 399.73L41.4102 398.62C46.2292 394.042 49.3322 387.95 50.2002 381.36L50.7312 377.327C51.1842 373.893 55.7722 373.053 57.4132 376.104Z" fill="#FF7664"/>
<path d="M42.625 398.008C43.412 398.79 44.198 399.572 44.985 400.354C61.141 399.911 77.02 399.622 93.175 399.179" stroke="#C85959" stroke-miterlimit="10" stroke-linecap="round" stroke-linejoin="round"/>
<path d="M49.2092 386.145C51.4672 386.694 53.7262 387.244 55.9842 387.793C53.3492 388.307 50.7142 388.821 48.0792 389.335C49.7082 390.072 51.3372 390.809 52.9672 391.546C50.5312 391.933 48.0942 392.319 45.6582 392.706" stroke="#C85959" stroke-miterlimit="10" stroke-linecap="round" stroke-linejoin="round"/>
<path d="M161.565 253.706L132.23 162.765L54.5408 159.173C54.5408 159.173 37.6858 196.148 39.9008 262.744L96.8808 263.575L98.7468 270.398L161.565 253.706Z" fill="#828181"/>
<path d="M96.8817 263.575L87.0557 209.23" stroke="black" stroke-miterlimit="10" stroke-linecap="round" stroke-linejoin="round"/>
<path d="M39.9014 252.223L94.4104 253.534" stroke="black" stroke-miterlimit="10" stroke-linecap="round" stroke-linejoin="round"/>
<path d="M96.1279 259.404L157.675 244.819" stroke="black" stroke-miterlimit="10" stroke-linecap="round" stroke-linejoin="round"/>
<path d="M87.1445 252.644C88.0025 245.024 89.2605 237.45 90.9115 229.962" stroke="black" stroke-miterlimit="10" stroke-linecap="round" stroke-linejoin="round"/>
<path d="M132.424 177.822C138.202 200.652 143.98 223.482 149.757 246.312" stroke="black" stroke-miterlimit="10" stroke-linecap="round" stroke-linejoin="round"/>
<path d="M52.7051 167.227C75.6821 167.764 98.6591 168.301 121.636 168.838" stroke="black" stroke-miterlimit="10" stroke-linecap="round" stroke-linejoin="round"/>
<path d="M116.02 168.789C119.311 179.218 126.646 188.314 136.14 193.741" stroke="black" stroke-miterlimit="10" stroke-linecap="round" stroke-linejoin="round"/>
<path d="M59.6897 167.633C55.4507 172.885 51.2107 178.136 46.9717 183.388" stroke="black" stroke-miterlimit="10" stroke-linecap="round" stroke-linejoin="round"/>
<path d="M0.0371094 144.254C3.02911 150.84 11.9741 159.412 17.7161 162.765C28.4181 169.013 45.1381 179.362 53.8121 161.499L66.1161 131.087L0.0371094 144.254Z" fill="#FFC9B1"/>
<path d="M32.1346 147.214C33.5276 149.997 33.7505 153.344 32.7385 156.288C31.7275 159.232 29.4945 161.734 26.6855 163.074" stroke="black" stroke-miterlimit="10" stroke-linecap="round" stroke-linejoin="round"/>
<path d="M47.3018 145.653C49.2348 145.756 51.1228 146.568 52.5278 147.9C53.9328 149.232 54.8438 151.074 55.0498 153" stroke="black" stroke-miterlimit="10" stroke-linecap="round" stroke-linejoin="round"/>
<path d="M98.9821 90.1772C98.9821 90.1772 112.197 92.4972 124.716 95.2422C137.235 97.9872 157.437 106.938 157.437 106.938L138.032 133.839L131.705 128.281L132.23 162.765L53.8121 161.499L61.3011 137.612L51.8291 110.093C60.9411 97.1043 68.9411 96.1852 76.2351 94.1742C83.5291 92.1632 98.9821 90.1772 98.9821 90.1772Z" fill="#FF7664"/>
<path d="M132.428 129.26C130.935 127.576 129.442 125.892 127.949 124.208C124.645 120.481 122.357 115.493 122.534 110.515C122.711 105.538 125.08 100.677 128.891 97.4712" stroke="white" stroke-miterlimit="10" stroke-linecap="round" stroke-linejoin="round"/>
<path d="M61.0791 136.757C64.3211 123.469 67.5631 110.182 70.8051 96.8943" stroke="white" stroke-miterlimit="10" stroke-linecap="round" stroke-linejoin="round"/>
<path d="M82.5316 94.4082C82.3706 98.4642 83.9746 102.56 86.8486 105.427C91.2996 109.868 98.5346 110.99 104.366 108.637C110.197 106.284 114.506 100.801 116.024 94.6992" stroke="white" stroke-miterlimit="10" stroke-linecap="round" stroke-linejoin="round"/>
<path d="M106.453 64.9101C103.33 61.5411 98.6997 60.2811 94.1107 60.4941C89.3277 60.7161 84.5447 60.9381 79.7617 61.1601C80.3377 62.7511 80.9067 64.3161 81.4737 65.8751C83.2947 65.5271 85.1157 65.1791 86.9367 64.8311C85.4197 66.0151 83.9037 67.1991 82.3867 68.3831C84.0217 72.8711 85.6427 77.3111 87.3117 81.9201L98.9047 85.3591C103.499 85.3491 107.82 82.0541 109.321 77.7121C110.824 73.3721 109.577 68.2791 106.453 64.9101Z" fill="#303030"/>
<path d="M92.4521 68.2908C93.0294 68.3109 93.627 68.3539 94.2354 68.3972C94.7438 68.4335 95.2605 68.4668 95.7676 68.49C96.4425 69.7089 97.1201 70.9939 97.7988 72.2859C98.5211 73.6608 99.2466 75.0426 99.9727 76.3445L100.307 76.9421L100.774 76.4431C102.067 75.0662 104.427 74.8397 106.016 75.9031C107.602 76.9653 108.322 79.1773 107.726 81.0154C107.131 82.851 105.306 84.2273 103.359 84.3757L102.843 84.4148L102.9 84.9294C103.042 86.1895 103.214 87.5068 103.387 88.8181C103.559 90.1313 103.732 91.4392 103.872 92.6882L103.909 93.0222L104.232 93.113C105.256 93.402 106.304 93.6909 107.351 93.9792C108.248 94.2266 109.144 94.4755 110.023 94.7224C109.335 98.1376 106.934 101.3 103.861 102.98L103.549 103.145C100.203 104.839 96.0353 104.821 92.7051 103.098C89.5329 101.457 87.5613 98.3256 86.918 94.7644C87.7747 94.5414 88.617 94.2985 89.4512 94.0564C90.4332 93.7714 91.4049 93.4892 92.3955 93.2429L92.8008 93.1423L92.7734 92.7253C92.723 91.957 92.7164 91.1935 92.71 90.4138C92.7036 89.6387 92.6976 88.8471 92.6455 88.0457L92.6211 87.6697L92.2529 87.5896L91.4893 87.4138C89.7179 86.9833 88.0339 86.3868 86.7451 85.2517C85.2787 83.96 84.4475 81.8301 84.9355 80.0232C85.734 77.0678 86.2381 74.2599 87.4092 71.5427C88.225 69.6508 90.2146 68.3025 92.2549 68.2878L92.4521 68.2908Z" fill="#FFC9B1" stroke="#303030"/>
<path d="M94.667 77.7012C94.8326 77.7012 94.9667 77.8354 94.9668 78.001C94.9668 78.1667 94.8327 78.3008 94.667 78.3008C94.5014 78.3007 94.3672 78.1666 94.3672 78.001C94.3673 77.8355 94.5015 77.7013 94.667 77.7012Z" fill="#303030" stroke="#303030"/>
<path d="M86.8418 76.1589C87.0074 76.1589 87.1415 76.2931 87.1416 76.4587C87.1416 76.6244 87.0075 76.7585 86.8418 76.7585C86.6762 76.7584 86.542 76.6244 86.542 76.4587C86.5421 76.2932 86.6763 76.159 86.8418 76.1589Z" fill="#303030" stroke="#303030"/>
<path d="M103.093 79.162C103.886 78.82 104.678 78.478 105.471 78.137" stroke="#303030" stroke-miterlimit="10" stroke-linecap="round" stroke-linejoin="round"/>
<path d="M91.8467 88.1279C93.6407 88.3729 95.4817 88.2589 97.2317 87.7949" stroke="#303030" stroke-miterlimit="10" stroke-linecap="round" stroke-linejoin="round"/>
<path d="M102.646 84.8832C103.057 84.8492 103.469 84.8152 103.88 84.7822" stroke="#303030" stroke-miterlimit="10" stroke-linecap="round" stroke-linejoin="round"/>
<path d="M90.1992 76.499C89.7972 77.468 89.3942 78.437 88.9922 79.405C89.3832 79.433 89.7742 79.461 90.1652 79.489" stroke="#303030" stroke-miterlimit="10" stroke-linecap="round" stroke-linejoin="round"/>
<path d="M86.1475 72.947C86.8975 72.987 87.6475 73.027 88.3985 73.067" stroke="#303030" stroke-miterlimit="10" stroke-linecap="round" stroke-linejoin="round"/>
<path d="M93.293 72.3701C94.131 72.3991 94.969 72.4281 95.808 72.4571" stroke="#303030" stroke-miterlimit="10" stroke-linecap="round" stroke-linejoin="round"/>
<path d="M90.9004 81.227C91.0764 81.614 91.5054 81.87 91.9294 81.841C92.3534 81.812 92.7444 81.501 92.8664 81.094" stroke="#303030" stroke-miterlimit="10" stroke-linecap="round" stroke-linejoin="round"/>
<path d="M177.453 125.282C171.739 118.014 163.961 112.675 155.783 108.362L139.03 132.195C140.537 133.553 142.044 134.912 143.551 136.27C138.622 140.207 133.665 143.912 128.736 147.849C123.449 152.071 119.855 158.003 117.705 164.418C117.409 165.3 117.84 166.532 118.459 167.227C119.078 167.922 120.011 168.324 120.941 168.3C120.602 169.336 120.867 170.53 121.603 171.335C122.339 172.14 123.521 172.508 124.583 172.262C124.351 173.275 124.779 174.292 125.545 174.995C126.31 175.698 127.461 175.95 128.451 175.633C128.347 176.505 128.736 177.251 129.318 177.909C129.9 178.567 130.769 178.961 131.647 178.965C133.661 178.975 135.872 179.429 137.872 179.662C138.421 178.603 139.098 177.458 139.647 176.4C139.599 176.215 139.552 176.031 139.504 175.846C139.084 175.716 138.627 175.706 138.202 175.818C140.45 173.241 142.634 170.103 144.882 167.525C150.82 160.717 161.171 159.529 169.321 155.633C174.795 153.016 179.363 148.338 180.952 142.483C182.54 136.625 181.203 130.051 177.453 125.282Z" fill="#FFC9B1"/>
<path d="M143 136.597C146.858 133.779 150.715 130.961 154.573 128.143" stroke="black" stroke-miterlimit="10" stroke-linecap="round" stroke-linejoin="round"/>
<path d="M135.708 177.656C136.713 176.892 137.719 176.128 138.724 175.365" stroke="#1D1141" stroke-miterlimit="10" stroke-linecap="round" stroke-linejoin="round"/>
<path d="M128.352 174.516C128.352 175.261 128.352 176.006 128.352 176.751" stroke="#1D1141" stroke-miterlimit="10" stroke-linecap="round" stroke-linejoin="round"/>
<path d="M124.588 171.222C124.549 171.732 124.51 172.242 124.47 172.751" stroke="#1D1141" stroke-miterlimit="10" stroke-linecap="round" stroke-linejoin="round"/>
<path d="M120.823 167.457C120.745 167.849 120.666 168.241 120.588 168.633" stroke="#1D1141" stroke-miterlimit="10" stroke-linecap="round" stroke-linejoin="round"/>
<path d="M30.4604 121.087L11.5034 146.472L1.70044 88.5542C1.37244 86.6172 1.85244 84.6312 3.02744 83.0582L20.1444 60.1372L30.4604 121.087Z" fill="#FF692D"/>
<path d="M62.4893 143.961L12.7686 150.956L2.62012 90.9917L52.3408 83.9976L62.4893 143.961Z" fill="#FF7664" stroke="#8D4427"/>
<path d="M8.11719 92.634L16.5922 145.612" stroke="#8D4427" stroke-miterlimit="10" stroke-linecap="round" stroke-linejoin="round"/>
<path d="M23.4502 105.632L43.7302 102.634" stroke="#8D4427" stroke-miterlimit="10" stroke-linecap="round" stroke-linejoin="round"/>
<path d="M24.8232 110.516L43.7302 107.771" stroke="#8D4427" stroke-miterlimit="10" stroke-linecap="round" stroke-linejoin="round"/>
<path d="M52.7534 83.4352L52.1924 79.0932L26.8234 80.7522L23.4504 59.7522L20.1444 60.1372L3.01442 83.2052C0.717425 86.2982 3.30142 90.6262 7.11442 90.0712L52.7534 83.4352Z" fill="#FFC9C2"/>
<path d="M23.45 59.7522L6.04297 85.8102C6.04297 85.8102 10.352 82.4002 26.823 80.7522" fill="#FFC9C2"/>
<path d="M23.45 59.7522L6.04297 85.8102C6.04297 85.8102 10.352 82.4002 26.823 80.7522" stroke="black" stroke-miterlimit="10" stroke-linecap="round" stroke-linejoin="round"/>
<path d="M17.9911 137.913C17.9121 137.389 17.8291 136.854 17.5811 136.385C17.3341 135.916 16.7151 135.586 16.1861 135.543C15.3381 139.946 14.4901 144.348 13.6421 148.751C12.0031 142.239 10.1221 135.966 8.48311 129.454C8.26111 128.571 7.60811 127.697 6.70111 127.613C6.65711 128.554 6.37711 129.221 6.33411 130.162C6.44311 129.696 5.77211 129.075 5.29711 129.132C3.62611 134.118 1.70811 139.268 0.0371094 144.254C3.66011 151.573 10.1221 157.146 17.8571 159.767L20.1331 152.043C19.4191 147.333 18.7051 142.623 17.9911 137.913Z" fill="#FFC9B1"/>
<path d="M6.30764 129.929C6.26564 135.458 6.22364 140.988 6.18164 146.517" stroke="black" stroke-miterlimit="10" stroke-linecap="round" stroke-linejoin="round"/>
<path d="M2.16504 143.91C3.11804 140.148 4.07104 136.387 5.02304 132.625" stroke="black" stroke-miterlimit="10" stroke-linecap="round" stroke-linejoin="round"/>
<path d="M13.6458 147.575C13.4888 148.281 13.3318 148.987 13.1748 149.693" stroke="black" stroke-miterlimit="10" stroke-linecap="round" stroke-linejoin="round"/>
<path d="M291.849 327.108L291.689 326.857C287.771 320.728 286.658 313.217 288.63 306.215L291.295 296.751L250.941 286.751C250.941 286.751 242.909 310.976 243.218 310.556C243.527 310.135 267.591 329.922 267.591 329.922H290.308C291.753 329.923 292.627 328.326 291.849 327.108Z" fill="#303030"/>
<path d="M250.976 315.619C252.272 314.172 253.568 312.726 254.864 311.279C254.772 314.083 254.68 316.887 254.588 319.691C254.583 319.457 254.578 319.222 254.574 318.988" stroke="white" stroke-miterlimit="10" stroke-linecap="round" stroke-linejoin="round"/>
<path d="M274.139 306.234C277.496 306.561 280.854 306.888 284.211 307.216" stroke="white" stroke-miterlimit="10" stroke-linecap="round" stroke-linejoin="round"/>
<path d="M273.412 310.722C276.851 311.044 280.289 311.365 283.727 311.687" stroke="white" stroke-miterlimit="10" stroke-linecap="round" stroke-linejoin="round"/>
<path d="M273.66 315.123C277.343 315.409 281.027 315.696 284.71 315.983" stroke="white" stroke-miterlimit="10" stroke-linecap="round" stroke-linejoin="round"/>
<path d="M322.705 348.222L329.366 372.445L376.536 386.925C378.225 387.443 379.585 385.49 378.513 384.086C372.105 375.696 367.399 366.133 364.661 355.937L360.647 340.987L322.705 348.222Z" fill="#303030"/>
<path d="M338.823 374.751C339.324 373.656 339.824 372.561 340.325 371.466C341.598 373.365 342.871 375.265 344.144 377.164" stroke="white" stroke-miterlimit="10" stroke-linecap="round" stroke-linejoin="round"/>
<path d="M359.066 363.267C361.179 362.926 363.292 362.585 365.406 362.243" stroke="white" stroke-miterlimit="10" stroke-linecap="round" stroke-linejoin="round"/>
<path d="M360.714 367.749C362.908 367.422 365.102 367.096 367.296 366.77" stroke="white" stroke-miterlimit="10" stroke-linecap="round" stroke-linejoin="round"/>
<path d="M362.138 372.727C364.72 372.151 367.302 371.575 369.884 370.998" stroke="white" stroke-miterlimit="10" stroke-linecap="round" stroke-linejoin="round"/>
<path d="M218.824 214.158C220.176 245.163 231.297 249.744 265.09 249.744C265.09 249.744 257.486 263.415 248.537 289.76L290.878 304.634L305.14 274.292L307.06 278.452C307.06 278.452 308.443 310.009 321.222 352.939L366.38 350.947C366.38 350.947 353.56 292.988 349.163 271.988C344.766 250.988 337.654 238.109 324.71 222.136C311.766 206.164 288.308 182.073 288.308 182.073L218.824 214.158Z" fill="#FF7664"/>
<path d="M264.834 250.286C267.57 244.135 270.936 238.264 274.862 232.796" stroke="white" stroke-miterlimit="10" stroke-linecap="round" stroke-linejoin="round"/>
<path d="M305.762 214.111C312.028 216.04 317.357 220.81 319.968 226.823C322.579 232.837 322.423 239.987 319.554 245.882C314.661 255.935 309.833 266.022 304.844 276.027" stroke="white" stroke-miterlimit="10" stroke-linecap="round" stroke-linejoin="round"/>
<path d="M225.409 210.563C223.9 218.175 226.315 226.458 231.678 232.066C237.041 237.674 245.207 240.457 252.879 239.29C261.572 237.968 269.232 232.785 274.886 226.05C274.327 227.712 275.451 229.733 277.157 230.136C278.864 230.539 280.773 229.234 281.016 227.497C271.74 248.637 262.465 269.778 253.189 290.918" stroke="white" stroke-miterlimit="10" stroke-linecap="round" stroke-linejoin="round"/>
<path d="M309.922 265.167C314.186 294.665 320.624 323.848 329.168 352.401" stroke="white" stroke-miterlimit="10" stroke-linecap="round" stroke-linejoin="round"/>
<path d="M335.308 261.553C338.561 263.579 343.046 263.395 346.123 261.111" stroke="white" stroke-miterlimit="10" stroke-linecap="round" stroke-linejoin="round"/>
<path d="M258.003 114.773C254.309 111.294 248.882 109.776 243.83 110.241C238.778 110.706 233.944 113.225 230.669 117.101C227.825 120.466 225.317 124.294 224.064 128.518C223.803 129.397 223.368 130.32 223.794 131.131C224.221 131.942 225.179 132.439 226.088 132.321C225.775 132.963 225.819 133.786 226.307 134.307C226.795 134.829 227.614 135.008 228.276 134.739C228.272 135.533 228.752 136.347 229.483 136.656C230.214 136.965 231.124 136.792 231.69 136.236C232.474 138.008 234.474 139.183 236.406 139.042L254.514 120.991C255.427 121.533 256.741 121.239 257.335 120.358C257.929 119.478 257.712 118.149 256.867 117.505C257.519 117.599 258.053 117.183 258.339 116.589C258.626 115.996 258.483 115.225 258.003 114.773Z" fill="black"/>
<path d="M238.359 134.987C238.359 134.987 224.939 141.575 216.705 145.458C208.47 149.34 205.521 155.257 202.392 163.356C199.262 171.456 193.647 185.556 192 203.507C190.353 221.458 203.528 228.278 216.705 223.339L224.823 207.223L284.117 194.8L306.823 158.644C306.823 158.644 295.045 150.827 288.022 145.416C280.999 140.005 275.574 138.801 266.963 138.016C258.352 137.23 240.588 135.81 240.588 135.81L238.359 134.987Z" fill="white"/>
<path d="M210.039 149.976C212.377 149.231 215.015 149.48 217.173 150.649C219.331 151.818 220.979 153.893 221.631 156.259C224.879 168.045 223.798 180.703 220.869 192.572C215.345 190.198 208.908 190.05 203.199 191.935" stroke="#828181" stroke-miterlimit="10" stroke-linecap="round" stroke-linejoin="round"/>
<path d="M273.983 139.812C274.545 144.455 275.107 149.098 275.668 153.741" stroke="#828181" stroke-miterlimit="10" stroke-linecap="round" stroke-linejoin="round"/>
<path d="M226.701 143.358C227.7 150.238 232.43 156.459 238.792 159.262C245.154 162.065 252.937 161.356 258.688 157.45C264.439 153.544 267.967 146.57 267.706 139.623" stroke="#828181" stroke-miterlimit="10" stroke-linecap="round" stroke-linejoin="round"/>
<path d="M249.267 137.871C249.32 137.213 249.371 136.566 249.423 135.918C251.664 135.717 253.796 134.481 255.058 132.616C256.371 130.677 256.582 128.247 256.107 125.954C255.665 123.822 255.274 121.831 254.832 119.699C253.95 120.135 252.763 120.002 252.133 119.247C251.932 120.148 251.167 120.897 250.262 121.078C249.357 121.259 248.508 121.011 247.976 120.257C247.807 120.866 247.274 121.359 246.653 121.479C246.032 121.6 245.266 121.386 244.882 120.885C245.07 121.929 244.647 123.06 243.821 123.725C242.995 124.39 241.735 124.604 240.755 124.198C240.709 124.993 240.077 125.792 239.292 125.929C239.04 125.576 238.856 125.012 238.604 124.659C236.84 124.035 234.685 124.545 233.453 125.879C232.22 127.213 231.994 129.278 232.913 130.816C233.699 132.133 235.277 132.98 236.882 133.025C236.692 134.537 236.502 136.048 236.312 137.56C234.4 138.559 232.332 139.625 230.419 140.624C230.282 146.511 233.708 151.905 238.796 154.871C243.884 157.836 250.582 157.799 255.637 154.778C260.692 151.757 263.776 145.176 263.575 139.29C258.846 138.782 253.999 138.379 249.267 137.871Z" fill="#A77456"/>
<path d="M245.676 127.816C246.118 127.816 246.476 127.458 246.476 127.016C246.476 126.574 246.118 126.216 245.676 126.216C245.234 126.216 244.876 126.574 244.876 127.016C244.876 127.458 245.234 127.816 245.676 127.816Z" fill="#593F30"/>
<path d="M253.825 126.556C254.267 126.556 254.625 126.198 254.625 125.756C254.625 125.314 254.267 124.956 253.825 124.956C253.384 124.956 253.025 125.314 253.025 125.756C253.025 126.198 253.384 126.556 253.825 126.556Z" fill="#593F30"/>
<path d="M236.674 133.121C237.292 133.134 237.91 133.146 238.528 133.159" stroke="#593F30" stroke-miterlimit="10" stroke-linecap="round" stroke-linejoin="round"/>
<path d="M243.978 135.169C245.832 136.286 248.168 136.566 250.234 135.92" stroke="#593F30" stroke-miterlimit="10" stroke-linecap="round" stroke-linejoin="round"/>
<path d="M249.297 137.605C249.262 138.164 249.227 138.722 249.192 139.281" stroke="#593F30" stroke-miterlimit="10" stroke-linecap="round" stroke-linejoin="round"/>
<path d="M250.087 126.046C250.411 126.87 250.734 127.693 251.058 128.517C250.705 128.544 250.266 128.68 249.913 128.707" stroke="#593F30" stroke-miterlimit="10" stroke-linecap="round" stroke-linejoin="round"/>
<path d="M247.093 129.75C247.362 130.392 248.235 130.692 248.842 130.35" stroke="#593F30" stroke-miterlimit="10" stroke-linecap="round" stroke-linejoin="round"/>
<path d="M244.336 123.754C244.357 123.135 244.8 122.553 245.39 122.367C245.98 122.181 246.677 122.404 247.049 122.898" stroke="black" stroke-miterlimit="10" stroke-linecap="round" stroke-linejoin="round"/>
<path d="M252.912 122.257C253.53 122.168 254.147 122.079 254.765 121.991" stroke="black" stroke-miterlimit="10" stroke-linecap="round" stroke-linejoin="round"/>
<path d="M235.535 127.344C236.27 127.522 237.005 127.7 237.74 127.879" stroke="#593F30" stroke-miterlimit="10" stroke-linecap="round" stroke-linejoin="round"/>
<path d="M346.183 193.949C349.882 190.163 352.522 173.641 347.967 167.285C343.412 160.928 331.032 159.928 331.032 159.928L333.823 191.087L346.183 193.949Z" fill="#A77456"/>
<path d="M254.825 180.764C249.187 180.704 243.055 184.328 240.473 189.341L267.045 196.162C267.537 191.184 267.951 186.145 268.443 181.167C263.942 180.491 259.359 180.355 254.825 180.764Z" fill="#A77456"/>
<path d="M268.475 152.483L269.044 148.306L298.985 151.265C302.773 151.639 306.474 152.632 309.941 154.204L313.347 155.748C315.85 150.38 319.68 145.74 324.476 142.265L336.304 133.694L341.634 135.541C341.634 135.541 327.465 166.052 327.85 165.226C328.235 164.4 268.475 152.483 268.475 152.483Z" fill="#FFC9C2"/>
<path d="M333.893 193.071L311.013 211.91C308.646 213.858 305.591 214.764 302.546 214.421L261.765 209.834L268.909 153.034L309.732 157.628C313.05 158.001 316.377 157.013 318.952 154.889L340.979 136.727L333.893 193.071Z" fill="#303030" stroke="black"/>
<path d="M309.987 157.975L302.718 215.766" stroke="black" stroke-miterlimit="10" stroke-linecap="round" stroke-linejoin="round"/>
<path d="M317.993 155.516L310.725 213.307" stroke="black" stroke-miterlimit="10" stroke-linecap="round" stroke-linejoin="round"/>
<path d="M276.174 169.031L299.761 171.685" stroke="black" stroke-miterlimit="10" stroke-linecap="round" stroke-linejoin="round"/>
<path d="M275.755 172.752L299.343 175.406" stroke="black" stroke-miterlimit="10" stroke-linecap="round" stroke-linejoin="round"/>
<path d="M275.372 176.165L298.959 178.819" stroke="black" stroke-miterlimit="10" stroke-linecap="round" stroke-linejoin="round"/>
<path d="M332.679 159.397L324.788 165.903L322.301 187.046L330.012 180.599L332.679 159.397Z" fill="#303030" stroke="black" stroke-miterlimit="10" stroke-linecap="round" stroke-linejoin="round"/>
<path d="M344.791 171.934C339.694 173.996 334.597 176.059 329.501 178.121C328.962 178.339 328.411 178.565 327.98 178.955C327.549 179.345 327.256 179.94 327.382 180.508C328.422 180.485 329.55 180.467 330.589 180.443C329.834 180.627 328.957 180.923 328.202 181.108C327.788 181.209 327.36 181.316 327.021 181.574C326.549 181.933 326.313 182.576 326.442 183.154C329.388 183.572 332.411 184.007 335.357 184.425C333.257 184.495 331.094 184.646 328.994 184.716C328.515 184.732 328.016 184.753 327.592 184.977C327.168 185.201 326.846 185.695 326.978 186.156C330.285 187.468 333.628 188.807 336.935 190.119C335.283 190.068 333.577 189.946 331.926 189.895C331.483 189.881 331.02 189.872 330.62 190.065C330.221 190.258 329.916 190.723 330.056 191.143C333.037 192.239 335.804 193.247 338.785 194.343C341.089 195.19 343.86 194.74 346.184 193.949L344.791 171.934Z" fill="#A77456"/>
<path d="M336.746 175.135C338.954 174.077 341.161 173.02 343.369 171.962" stroke="black" stroke-miterlimit="10" stroke-linecap="round" stroke-linejoin="round"/>
<path d="M329.227 180.405C333.818 180.16 338.409 179.915 342.999 179.67" stroke="black" stroke-miterlimit="10" stroke-linecap="round" stroke-linejoin="round"/>
<path d="M332.598 184.05C335.715 184.581 338.833 185.112 341.95 185.643" stroke="black" stroke-miterlimit="10" stroke-linecap="round" stroke-linejoin="round"/>
<path d="M334.718 189.357C336.77 189.969 338.822 190.581 340.873 191.193" stroke="black" stroke-miterlimit="10" stroke-linecap="round" stroke-linejoin="round"/>
<path d="M276.546 201.615C276.137 201.219 275.536 201.122 274.967 201.09C270.939 200.864 266.807 200.77 262.779 200.544C268.047 199.292 273.419 198.503 278.687 197.251C278.705 196.295 278.01 195.194 277.066 195.044C277.142 194.4 276.934 193.727 276.507 193.238C276.081 192.749 275.384 192.762 274.777 192.531C269.176 190.399 263.575 188.267 257.974 186.135L253.763 183.018C248.237 182.644 242.796 184.288 237.502 185.914C227.92 188.857 217.875 191.595 208.601 195.398C204.178 197.212 200.852 201.47 200.163 206.2C199.474 210.93 201.447 215.96 205.169 218.96C208.891 221.96 214.291 222.687 218.821 221.161C227.718 218.163 236.678 214.601 245.011 210.277C248.99 211.648 253.103 212.943 257.294 213.343C262.357 210.791 267.679 208.265 272.741 205.713C272.915 205.277 272.641 204.818 272.236 204.58C273.882 204.017 275.468 203.728 277.114 203.166C277.171 202.599 276.956 202.011 276.546 201.615Z" fill="#A77456"/>
<path d="M260.725 206.852C264.737 206.029 268.749 205.206 272.762 204.383" stroke="black" stroke-miterlimit="10" stroke-linecap="round" stroke-linejoin="round"/>
<path d="M259.523 200.837C261.466 200.492 263.408 200.146 265.351 199.801" stroke="black" stroke-miterlimit="10" stroke-linecap="round" stroke-linejoin="round"/>
<path d="M258.648 194.819C264.881 195.058 271.114 195.296 277.347 195.535" stroke="black" stroke-miterlimit="10" stroke-linecap="round" stroke-linejoin="round"/>
<path d="M257.617 185.276C259.909 186.339 262.202 187.401 264.494 188.464" stroke="black" stroke-miterlimit="10" stroke-linecap="round" stroke-linejoin="round"/>
</svg>
