<svg width="60" height="58" viewBox="0 0 60 58" fill="none" xmlns="http://www.w3.org/2000/svg">
<path d="M30.0537 2.41406C45.0278 2.41428 57.2588 14.2456 57.2588 28.9521C57.2586 43.6585 45.0277 55.489 30.0537 55.4893C15.0796 55.4893 2.8479 43.6586 2.84766 28.9521C2.84766 14.2455 15.0794 2.41406 30.0537 2.41406Z" stroke="#726BB6" stroke-width="4"/>
<path d="M35.7376 19.3089C35.7942 19.3599 35.8508 19.4109 35.9091 19.4635C37.6471 21.0862 38.6519 23.4237 38.8439 25.8808C39.007 28.3796 38.304 30.8423 36.8043 32.7582C36.6391 32.9587 36.4694 33.1539 36.2993 33.3495C35.3056 34.5234 34.666 35.9517 34.3455 37.4987C34.1082 38.643 34.1082 38.643 33.7174 38.9846C33.3204 39.2523 32.9935 39.3302 32.5302 39.3252C32.4397 39.326 32.4397 39.326 32.3473 39.3268C32.1495 39.3281 31.9517 39.3272 31.7538 39.3262C31.6154 39.3264 31.477 39.3267 31.3385 39.3271C31.049 39.3275 30.7595 39.3269 30.4701 39.3255C30.0999 39.3237 29.7299 39.3247 29.3598 39.3265C29.0741 39.3276 28.7885 39.3273 28.5028 39.3265C28.3664 39.3263 28.23 39.3265 28.0935 39.3273C27.9025 39.328 27.7115 39.3268 27.5205 39.3252C27.4648 39.3258 27.409 39.3264 27.3516 39.327C26.8566 39.319 26.4955 39.1524 26.1373 38.782C25.8722 38.3475 25.7703 37.8484 25.6586 37.3462C25.2861 35.6851 24.5657 34.3307 23.4815 33.0857C21.9432 31.2687 21.1124 28.8095 21.184 26.3508C21.3045 23.7 22.2708 21.3549 24.0388 19.5041C27.3447 16.3499 32.3547 16.2116 35.7376 19.3089ZM25.2649 22.1373C24.5904 22.988 24.1725 23.8909 23.8951 24.9628C23.8694 25.0587 23.8694 25.0587 23.8431 25.1566C23.7518 25.5588 23.738 25.9639 23.7296 26.3763C23.7278 26.4307 23.726 26.4851 23.7241 26.5412C23.723 26.9323 23.8062 27.1505 24.0344 27.4506C24.3336 27.6839 24.5734 27.709 24.9272 27.6496C25.1868 27.5672 25.3125 27.439 25.4973 27.2244C25.6466 26.9076 25.6692 26.5884 25.6976 26.2397C25.8172 25.0154 26.2657 23.873 27.1428 23.0596C27.9703 22.3504 28.8971 21.984 29.9513 21.9144C30.3461 21.8833 30.5649 21.7346 30.8482 21.4385C30.9699 21.189 31.0086 20.9447 31.0006 20.6658C30.8713 20.2615 30.6561 20.0271 30.304 19.8366C28.3279 19.6893 26.5953 20.5844 25.2649 22.1373Z" fill="#726BB6"/>
<path d="M27.4765 40.4312C27.5374 40.4309 27.5984 40.4307 27.6612 40.4304C27.8622 40.4297 28.0633 40.4296 28.2644 40.4295C28.4045 40.4293 28.5446 40.429 28.6847 40.4288C28.9783 40.4283 29.2719 40.4282 29.5655 40.4283C29.9412 40.4283 30.3168 40.4273 30.6924 40.426C30.9818 40.4252 31.2712 40.4251 31.5606 40.4251C31.699 40.425 31.8375 40.4247 31.976 40.4241C32.1699 40.4234 32.3638 40.4236 32.5577 40.4241C32.6145 40.4237 32.6713 40.4233 32.7299 40.4229C33.1154 40.425 33.5091 40.4405 33.8183 40.7039C33.8675 40.769 33.8675 40.769 33.9177 40.8354C33.9515 40.8787 33.9854 40.9219 34.0203 40.9664C34.2429 41.312 34.188 41.7228 34.19 42.1208C34.1914 42.1945 34.1929 42.2681 34.1944 42.3439C34.1976 42.9824 34.0902 43.469 33.6629 43.9511C33.4015 44.188 33.0936 44.3124 32.7669 44.4246C32.704 44.6093 32.6523 44.788 32.6044 44.9768C32.4635 45.4846 32.3244 45.8831 31.8614 46.1733C31.6902 46.2444 31.5622 46.2539 31.3779 46.2549C31.2787 46.256 31.2787 46.256 31.1774 46.257C31.0709 46.2569 31.0709 46.2569 30.9623 46.2568C30.8888 46.2571 30.8153 46.2574 30.7396 46.2578C30.5843 46.2582 30.4289 46.2582 30.2735 46.2579C30.0363 46.2577 29.7992 46.2594 29.562 46.2612C29.4109 46.2614 29.2598 46.2614 29.1088 46.2613C29.038 46.262 28.9673 46.2627 28.8944 46.2634C28.4704 46.2605 28.1253 46.2331 27.8098 45.9055C27.6161 45.5817 27.5269 45.285 27.4436 44.9134C27.3639 44.5646 27.3639 44.5646 27.1422 44.3078C26.9792 44.2367 26.9792 44.2367 26.8108 44.1859C26.4698 44.0759 26.2495 43.8261 26.0688 43.5149C25.8486 43.0527 25.8624 42.629 25.858 42.1208C25.856 42.0435 25.8539 41.9662 25.8518 41.8865C25.8481 41.4108 25.8822 41.1161 26.1611 40.7313C26.5603 40.4149 26.9908 40.4309 27.4765 40.4312Z" fill="#726BB6"/>
<path d="M30.2441 7.98536C30.4982 8.13109 30.6475 8.30245 30.7646 8.59624C30.853 8.98594 30.8462 9.36535 30.8469 9.76624C30.8474 9.85357 30.8478 9.9409 30.8482 10.0309C30.8489 10.2153 30.8492 10.3997 30.8492 10.5841C30.8494 10.8653 30.8518 11.1464 30.8542 11.4276C30.8546 11.6072 30.8549 11.7867 30.855 11.9662C30.8559 12.0498 30.8568 12.1335 30.8578 12.2196C30.8553 12.7211 30.8037 13.0467 30.567 13.4738C30.3751 13.6754 30.1595 13.7603 29.8991 13.7751C29.6106 13.75 29.3674 13.6956 29.1465 13.4738C28.8667 12.9715 28.8511 12.554 28.8562 11.9688C28.8561 11.8815 28.856 11.7942 28.8559 11.7042C28.856 11.5204 28.8567 11.3366 28.8581 11.1527C28.8599 10.872 28.8594 10.5914 28.8586 10.3107C28.859 10.1316 28.8595 9.95248 28.8602 9.77339C28.86 9.68983 28.8598 9.60627 28.8596 9.52018C28.8655 8.95383 28.9125 8.58266 29.2393 8.1363C29.5331 7.88658 29.8979 7.91131 30.2441 7.98536Z" fill="#726BB6"/>
<path d="M18.9447 13.133C19.0883 13.244 19.0883 13.244 19.2348 13.3934C19.3217 13.4819 19.3217 13.4819 19.4104 13.5721C19.4785 13.6435 19.5464 13.715 19.6142 13.7866C19.6535 13.828 19.6928 13.8694 19.7333 13.9121C20.0055 14.1999 20.2753 14.4902 20.5441 14.7818C20.6867 14.9363 20.8297 15.0902 20.9728 15.244C21.064 15.3427 21.1551 15.4413 21.2461 15.54C21.2887 15.5857 21.3313 15.6314 21.3752 15.6785C21.4146 15.7215 21.454 15.7644 21.4946 15.8086C21.5291 15.846 21.5637 15.8834 21.5993 15.9219C21.833 16.2218 21.8523 16.4941 21.845 16.8751C21.8052 17.2088 21.6439 17.4064 21.4177 17.622C21.1523 17.7985 20.9236 17.8033 20.6185 17.7809C20.2022 17.6146 19.9311 17.2833 19.6257 16.9483C19.5701 16.888 19.5146 16.8277 19.4573 16.7657C19.3402 16.6385 19.2234 16.5111 19.1069 16.3835C18.9283 16.188 18.7488 15.9935 18.5692 15.7992C18.4555 15.6754 18.3418 15.5516 18.2282 15.4277C18.1745 15.3695 18.1208 15.3113 18.0654 15.2514C18.0158 15.1969 17.9662 15.1423 17.915 15.0862C17.8714 15.0384 17.8277 14.9907 17.7827 14.9415C17.5268 14.6199 17.5021 14.3296 17.5087 13.9148C17.5576 13.5884 17.7077 13.4084 17.9405 13.2056C18.2471 12.9839 18.6037 13.0239 18.9447 13.133Z" fill="#726BB6"/>
<path d="M21.3486 35.0606C21.585 35.2261 21.7096 35.3639 21.8155 35.6458C21.8379 35.8189 21.8379 35.8189 21.8405 36.0023C21.8424 36.0625 21.8443 36.1226 21.8462 36.1846C21.7628 36.7068 21.3193 37.0889 20.9922 37.4457C20.9115 37.5343 20.9115 37.5343 20.8293 37.6247C20.716 37.7491 20.6025 37.8733 20.4889 37.9972C20.3149 38.1872 20.1417 38.3779 19.9686 38.5687C19.8582 38.6896 19.7478 38.8105 19.6374 38.9313C19.5857 38.9884 19.5339 39.0454 19.4806 39.1042C19.4078 39.1833 19.4078 39.1833 19.3335 39.2641C19.2911 39.3105 19.2486 39.3569 19.2049 39.4048C18.9383 39.6572 18.7119 39.7009 18.3684 39.6915C18.0517 39.6441 17.8366 39.4805 17.6178 39.225C17.5067 38.8883 17.4736 38.5558 17.5469 38.2056C17.7996 37.7657 18.1311 37.3944 18.4635 37.0271C18.512 36.9733 18.5605 36.9194 18.6105 36.8639C18.7124 36.7511 18.8145 36.6384 18.9168 36.526C19.0725 36.3544 19.2269 36.1814 19.3813 36.0085C19.481 35.8984 19.5808 35.7885 19.6807 35.6786C19.7263 35.6272 19.7719 35.5758 19.8188 35.5228C20.2769 35.0251 20.72 34.791 21.3486 35.0606Z" fill="#726BB6"/>
<path d="M41.9281 13.1124C42.2016 13.2709 42.3859 13.4723 42.5042 13.7687C42.5283 13.9413 42.5283 13.9413 42.5312 14.1242C42.5332 14.1842 42.5352 14.2441 42.5373 14.3059C42.4475 14.8254 41.9697 15.2075 41.6179 15.5633C41.56 15.6222 41.5021 15.6812 41.4425 15.7419C41.3205 15.8659 41.1983 15.9897 41.0759 16.1133C40.8888 16.3026 40.7027 16.4928 40.5166 16.6831C40.3977 16.8037 40.2788 16.9242 40.1598 17.0446C40.1043 17.1015 40.0488 17.1584 39.9916 17.217C39.9392 17.2696 39.8868 17.3222 39.8328 17.3764C39.7872 17.4227 39.7415 17.469 39.6945 17.5167C39.3818 17.7734 39.0829 17.8146 38.6879 17.7795C38.3876 17.6603 38.1761 17.519 37.9679 17.2691C37.8999 17.0623 37.8796 16.915 37.8734 16.6993C37.8707 16.6387 37.868 16.5781 37.8652 16.5156C37.9459 16.0038 38.4166 15.6244 38.7613 15.2742C38.8173 15.217 38.8732 15.1599 38.9308 15.101C39.0488 14.9808 39.1671 14.8607 39.2854 14.7409C39.4659 14.5578 39.6452 14.3736 39.8244 14.1893C39.9395 14.0723 40.0547 13.9553 40.1699 13.8385C40.2231 13.7835 40.2763 13.7286 40.3311 13.672C40.8045 13.1968 41.2483 12.9058 41.9281 13.1124Z" fill="#726BB6"/>
<path d="M39.4773 35.0701C39.6181 35.1738 39.6181 35.1738 39.7537 35.299C39.8036 35.3448 39.8534 35.3906 39.9048 35.4378C40.1371 35.6586 40.3665 35.8819 40.5929 36.1089C40.6412 36.1573 40.6895 36.2057 40.7393 36.2556C40.8404 36.357 40.9414 36.4584 41.0422 36.56C41.1963 36.7149 41.3511 36.8689 41.5059 37.023C41.6046 37.1221 41.7032 37.2213 41.8018 37.3206C41.8478 37.3662 41.8938 37.4117 41.9412 37.4587C42.2292 37.7509 42.4676 38.0296 42.5373 38.4503C42.5337 38.7923 42.5166 39.0237 42.2921 39.2972C42.0197 39.5387 41.8425 39.6726 41.4801 39.6844C41.3992 39.6885 41.3992 39.6885 41.3166 39.6927C40.8089 39.6048 40.4287 39.1131 40.0828 38.762C39.9954 38.6739 39.9954 38.6739 39.9061 38.584C39.7834 38.4602 39.6609 38.3362 39.5385 38.212C39.3511 38.0219 39.1629 37.8327 38.9746 37.6434C38.8553 37.5229 38.736 37.4023 38.6168 37.2816C38.5605 37.225 38.5042 37.1685 38.4462 37.1102C38.3681 37.0306 38.3681 37.0306 38.2884 36.9495C38.2426 36.9031 38.1968 36.8567 38.1496 36.809C37.8848 36.4992 37.8579 36.2317 37.8666 35.8334C37.9006 35.5651 38.0005 35.4146 38.1781 35.2158C38.6181 34.8937 38.9774 34.8826 39.4773 35.0701Z" fill="#726BB6"/>
<path d="M13.9659 25.471C14.0411 25.4703 14.1163 25.4696 14.1937 25.4689C14.275 25.4686 14.3563 25.4683 14.44 25.468C14.5236 25.4675 14.6071 25.4671 14.6932 25.4667C14.8702 25.466 15.0471 25.4655 15.2241 25.4652C15.4053 25.4649 15.5864 25.4639 15.7676 25.4622C16.0288 25.46 16.29 25.4592 16.5512 25.4588C16.6725 25.4574 16.6725 25.4574 16.7963 25.4561C17.5027 25.4581 17.5027 25.4581 17.8213 25.7026C18.1014 26.0419 18.1805 26.2516 18.1753 26.6999C18.1438 26.9919 18.0486 27.1509 17.8883 27.3876C17.6362 27.5908 17.4569 27.6353 17.1462 27.637C17.0657 27.6379 16.9852 27.6389 16.9022 27.6398C16.8157 27.6396 16.7293 27.6394 16.6403 27.6392C16.55 27.6395 16.4598 27.6399 16.3696 27.6403C16.1808 27.641 15.992 27.6408 15.8032 27.6401C15.562 27.6392 15.3208 27.6407 15.0796 27.6429C14.8934 27.6442 14.7071 27.6442 14.5209 27.6438C14.3889 27.6438 14.257 27.645 14.1251 27.6462C13.3772 27.6399 13.3772 27.6399 13.0626 27.3144C12.8418 26.9685 12.8003 26.6256 12.8615 26.2154C13.1178 25.6751 13.4182 25.4752 13.9659 25.471Z" fill="#726BB6"/>
<path d="M43.0035 25.4711C43.0786 25.4704 43.1537 25.4697 43.2311 25.4689C43.3124 25.4686 43.3936 25.4683 43.4773 25.468C43.5608 25.4676 43.6443 25.4672 43.7303 25.4667C43.9072 25.466 44.0841 25.4655 44.2609 25.4653C44.442 25.4649 44.6231 25.4639 44.8041 25.4623C45.0652 25.46 45.3262 25.4592 45.5873 25.4588C45.7085 25.4574 45.7085 25.4574 45.8322 25.4561C46.5382 25.4581 46.5382 25.4581 46.8566 25.7036C47.1366 26.0441 47.2157 26.2547 47.2104 26.7047C47.179 26.9977 47.0838 27.1573 46.9236 27.395C46.6712 27.5995 46.4921 27.6434 46.1809 27.6441C46.1002 27.6448 46.0195 27.6455 45.9363 27.6462C45.8497 27.6458 45.7631 27.6454 45.6739 27.6449C45.5836 27.645 45.4933 27.6453 45.4029 27.6455C45.214 27.6459 45.025 27.6454 44.836 27.6444C44.5944 27.6431 44.3527 27.6438 44.111 27.6451C43.9246 27.6459 43.7382 27.6457 43.5518 27.6451C43.4195 27.6449 43.2872 27.6456 43.1549 27.6462C43.0339 27.6452 43.0339 27.6452 42.9104 27.6441C42.8395 27.644 42.7687 27.6438 42.6957 27.6436C42.4718 27.6111 42.3485 27.5416 42.1676 27.395C41.9392 27.0561 41.8552 26.7986 41.8735 26.376C41.9266 26.056 42.0891 25.8529 42.3058 25.6438C42.5404 25.486 42.7347 25.4731 43.0035 25.4711Z" fill="#726BB6"/>
</svg>
