<svg width="397" height="257" viewBox="0 0 397 257" fill="none" xmlns="http://www.w3.org/2000/svg">
<path d="M397 214.682C397 214.788 318.314 214.874 221.273 214.874C124.198 214.874 45.5293 214.788 45.5293 214.682C45.5293 214.576 124.198 214.489 221.273 214.489C318.314 214.489 397 214.575 397 214.682Z" fill="#263238"/>
<path d="M242 190.755C242 190.755 257.055 184.196 271 190.755L268.302 196.657L243.36 197.84L242 190.755Z" fill="#804EE6"/>
<path d="M244.301 159.767L244.563 159.744C245.462 159.669 246.243 160.456 246.307 161.501L249.855 218.777L246.338 219.073L242.79 161.797C242.726 160.75 243.402 159.842 244.301 159.767Z" fill="#E0E0E0"/>
<path d="M244.301 159.767C244.318 159.806 243.899 159.746 243.374 160.258C243.126 160.513 242.878 160.947 242.845 161.518C242.847 162.083 242.923 162.768 242.966 163.521C243.169 166.575 243.459 170.958 243.818 176.378C244.507 187.272 245.458 202.323 246.516 219.059L246.325 218.867C246.922 218.816 247.566 218.763 248.212 218.709C248.771 218.661 249.326 218.615 249.842 218.572L249.676 218.794C248.656 201.981 247.738 186.849 247.073 175.895C246.759 170.443 246.505 166.032 246.328 162.959C246.308 162.578 246.288 162.219 246.269 161.88C246.253 161.539 246.241 161.232 246.148 160.965C245.969 160.429 245.621 160.099 245.318 159.937C245.008 159.775 244.74 159.758 244.568 159.766C244.392 159.773 244.301 159.774 244.301 159.767C244.3 159.76 244.39 159.746 244.566 159.724C244.742 159.703 245.02 159.706 245.348 159.862C245.669 160.019 246.045 160.354 246.247 160.921C246.351 161.203 246.37 161.539 246.391 161.871C246.415 162.209 246.439 162.569 246.466 162.949C246.67 166.019 246.962 170.427 247.323 175.875C248.015 186.827 248.971 201.955 250.034 218.765L250.047 218.973L249.868 218.988C249.353 219.031 248.797 219.078 248.239 219.125C247.593 219.179 246.949 219.232 246.352 219.283L246.174 219.298L246.161 219.09C245.146 202.351 244.233 187.296 243.572 176.4C243.26 170.977 243.007 166.59 242.832 163.535C242.799 162.772 242.734 162.113 242.743 161.511C242.789 160.903 243.063 160.455 243.33 160.198C243.599 159.932 243.865 159.842 244.036 159.798C244.209 159.754 244.301 159.767 244.301 159.767Z" fill="#263238"/>
<path d="M244.543 201.084L249.556 200.663L250.74 219.769C250.839 221.381 249.799 222.782 248.414 222.897C247.029 223.013 245.826 221.802 245.727 220.189L244.543 201.084Z" fill="#455A64"/>
<path d="M244.565 217.146L245.538 217.064L244 192.271L243.027 192.352L244.565 217.146Z" fill="#455A64"/>
<path d="M249.557 200.662C249.567 200.789 247.505 201.126 244.506 201.507L244.729 201.201C244.819 202.536 244.917 203.981 245.021 205.506C245.196 208.33 245.324 210.889 245.389 212.743C245.455 214.598 245.458 215.748 245.383 215.754C245.308 215.76 245.169 214.621 245.006 212.776C244.843 210.93 244.653 208.376 244.479 205.552C244.393 204.026 244.312 202.579 244.237 201.244L244.222 200.959L244.46 200.937C247.466 200.656 249.547 200.536 249.557 200.662Z" fill="#263238"/>
<path d="M253.46 161.273H249.934V207.587H253.46V161.273Z" fill="#E0E0E0"/>
<path d="M253.461 207.588C253.457 207.583 253.453 207.498 253.448 207.339C253.445 207.158 253.442 206.926 253.436 206.635C253.43 205.995 253.422 205.097 253.411 203.951C253.399 201.604 253.38 198.247 253.359 194.09C253.339 185.752 253.313 174.211 253.283 161.274L253.461 161.481C252.34 161.481 251.144 161.482 249.937 161.482C250.29 161.066 250.035 161.376 250.113 161.287V161.302V161.332V161.393V161.514V161.757V162.243V163.21C250.113 163.854 250.113 164.493 250.113 165.131C250.112 166.404 250.112 167.665 250.111 168.911C250.109 171.403 250.107 173.834 250.105 176.192C250.097 180.905 250.089 185.323 250.082 189.336C250.048 197.324 250.021 203.69 250.004 207.586L249.933 207.504C251.045 207.524 251.914 207.54 252.53 207.551C252.816 207.559 253.042 207.565 253.216 207.57C253.374 207.577 253.456 207.582 253.461 207.588C253.465 207.593 253.391 207.598 253.243 207.604C253.072 207.608 252.852 207.615 252.572 207.623C251.947 207.634 251.064 207.65 249.936 207.67L249.866 207.672L249.865 207.589C249.848 203.693 249.821 197.326 249.787 189.338C249.78 185.325 249.772 180.907 249.765 176.195C249.763 173.836 249.761 171.405 249.758 168.914C249.758 167.668 249.758 166.407 249.757 165.133C249.757 164.496 249.757 163.856 249.757 163.212V162.245V161.76V161.517V161.395V161.335V161.304V161.289C249.837 161.193 249.577 161.484 249.938 161.069C251.144 161.069 252.34 161.07 253.461 161.07H253.64L253.639 161.277C253.61 174.274 253.583 185.868 253.564 194.245C253.541 198.381 253.523 201.721 253.511 204.057C253.5 205.183 253.492 206.066 253.486 206.694C253.481 206.974 253.477 207.197 253.474 207.37C253.469 207.517 253.465 207.593 253.461 207.588Z" fill="#263238"/>
<path d="M254.139 179.367H249.112V160.211C249.112 158.595 250.238 157.286 251.626 157.286C253.014 157.286 254.139 158.595 254.139 160.211V179.367Z" fill="#F867A6"/>
<path d="M255.115 163.342H254.14V188.199H255.115V163.342Z" fill="#F867A6"/>
<path d="M249.112 179.366C249.11 179.239 251.188 179.075 254.202 178.945L253.961 179.232C253.954 177.894 253.945 176.443 253.936 174.915C253.936 172.084 253.966 169.521 254.015 167.666C254.065 165.81 254.133 164.664 254.207 164.664C254.282 164.664 254.351 165.81 254.4 167.666C254.449 169.521 254.479 172.084 254.479 174.915C254.47 176.444 254.462 177.894 254.454 179.232L254.452 179.517L254.212 179.52C251.197 179.548 249.114 179.493 249.112 179.366Z" fill="#263238"/>
<path d="M262.146 185.053H258.661V224.381H262.146V185.053Z" fill="#E0E0E0"/>
<path d="M262.146 224.381C262.142 224.377 262.138 224.305 262.134 224.169C262.131 224.016 262.127 223.818 262.122 223.572C262.116 223.028 262.108 222.265 262.098 221.292C262.085 219.299 262.067 216.449 262.045 212.92C262.026 205.839 262 196.039 261.971 185.053L262.146 185.229C261.038 185.229 259.857 185.229 258.663 185.229C259.012 184.877 258.76 185.139 258.838 185.064V185.077V185.102V185.154V185.257V185.463V185.876V186.697C258.838 187.243 258.838 187.787 258.837 188.328C258.836 189.409 258.836 190.48 258.836 191.538C258.834 193.654 258.832 195.718 258.83 197.721C258.821 201.723 258.814 205.475 258.807 208.882C258.773 215.665 258.747 221.072 258.73 224.38L258.66 224.31C259.759 224.327 260.618 224.341 261.226 224.35C261.509 224.357 261.733 224.362 261.904 224.366C262.06 224.372 262.142 224.377 262.146 224.381C262.151 224.385 262.078 224.389 261.931 224.394C261.763 224.398 261.544 224.404 261.268 224.41C260.65 224.42 259.778 224.433 258.662 224.451L258.593 224.452V224.381C258.577 221.073 258.549 215.667 258.516 208.884C258.509 205.476 258.501 201.724 258.494 197.722C258.492 195.721 258.49 193.655 258.488 191.54C258.487 190.482 258.487 189.411 258.486 188.329C258.486 187.788 258.486 187.245 258.486 186.698V185.877V185.465V185.258V185.155V185.104V185.078V185.065C258.566 184.983 258.308 185.231 258.665 184.878C259.858 184.878 261.039 184.879 262.148 184.879H262.324L262.323 185.054C262.294 196.091 262.268 205.936 262.249 213.05C262.226 216.562 262.209 219.398 262.197 221.382C262.186 222.338 262.178 223.087 262.172 223.621C262.167 223.859 262.163 224.048 262.16 224.196C262.155 224.322 262.151 224.385 262.146 224.381Z" fill="#263238"/>
<path d="M261.244 190.236H256.218V171.08C256.218 169.465 257.343 168.155 258.731 168.155C260.119 168.155 261.244 169.465 261.244 171.08V190.236Z" fill="#FF7664"/>
<path d="M263.783 186.81H262.818V207.918H263.783V186.81Z" fill="#FF7664"/>
<path d="M256.218 190.236C256.215 190.109 258.293 189.945 261.307 189.815L261.067 190.102C261.059 188.764 261.05 187.313 261.041 185.785C261.041 182.954 261.071 180.391 261.121 178.536C261.17 176.681 261.238 175.534 261.314 175.534C261.389 175.534 261.457 176.681 261.506 178.536C261.555 180.391 261.585 182.954 261.585 185.785C261.576 187.314 261.567 188.764 261.56 190.102L261.558 190.387L261.318 190.39C258.302 190.418 256.22 190.363 256.218 190.236Z" fill="#263238"/>
<path d="M268.767 174.382H265.282V213.711H268.767V174.382Z" fill="#E0E0E0"/>
<path d="M268.767 213.711C268.763 213.707 268.759 213.635 268.755 213.5C268.751 213.346 268.748 213.149 268.743 212.902C268.736 212.359 268.728 211.596 268.718 210.623C268.706 208.63 268.688 205.779 268.666 202.25C268.647 195.169 268.62 185.369 268.591 174.383L268.767 174.559C267.659 174.559 266.477 174.56 265.284 174.56C265.632 174.207 265.381 174.47 265.458 174.394V174.407V174.433V174.484V174.588V174.794V175.206V176.027C265.458 176.574 265.458 177.118 265.458 177.658C265.457 178.74 265.457 179.811 265.456 180.869C265.454 182.985 265.452 185.049 265.45 187.052C265.442 191.054 265.434 194.806 265.428 198.213C265.394 204.996 265.367 210.402 265.35 213.711L265.281 213.641C266.379 213.658 267.238 213.671 267.847 213.681C268.129 213.687 268.353 213.693 268.525 213.697C268.681 213.702 268.763 213.707 268.767 213.711C268.771 213.715 268.698 213.72 268.551 213.725C268.383 213.729 268.165 213.734 267.889 213.741C267.271 213.751 266.398 213.764 265.283 213.781L265.213 213.782V213.712C265.197 210.404 265.17 204.997 265.136 198.214C265.129 194.807 265.122 191.055 265.114 187.053C265.112 185.05 265.11 182.986 265.108 180.87C265.107 179.812 265.107 178.741 265.106 177.66C265.106 177.119 265.106 176.575 265.106 176.029V175.207V174.795V174.589V174.486V174.434V174.409V174.396C265.185 174.314 264.927 174.561 265.284 174.208C266.477 174.208 267.658 174.209 268.767 174.209H268.943L268.943 174.385C268.913 185.421 268.887 195.267 268.868 202.38C268.846 205.893 268.828 208.729 268.816 210.712C268.805 211.668 268.797 212.418 268.791 212.952C268.787 213.19 268.783 213.379 268.779 213.527C268.775 213.652 268.771 213.715 268.767 213.711Z" fill="#263238"/>
<path d="M269.44 189.747H264.471V173.48C264.471 172.108 265.583 170.996 266.955 170.996C268.327 170.996 269.439 172.108 269.439 173.48V189.747H269.44Z" fill="#804EE6"/>
<path d="M270.404 176.139H269.439V197.247H270.404V176.139Z" fill="#804EE6"/>
<path d="M264.471 189.747C264.468 189.639 266.522 189.499 269.501 189.39L269.263 189.633C269.255 188.496 269.247 187.265 269.238 185.966C269.238 183.562 269.268 181.386 269.317 179.81C269.366 178.235 269.433 177.261 269.507 177.261C269.581 177.261 269.648 178.236 269.697 179.81C269.745 181.386 269.775 183.562 269.775 185.966C269.766 187.265 269.758 188.496 269.75 189.633L269.749 189.875L269.512 189.877C266.532 189.902 264.473 189.855 264.471 189.747Z" fill="#263238"/>
<path d="M267.387 229.473C259.912 233.575 252.377 233.512 244.784 229.473L241.812 191.044C250.909 194.147 260.562 193.85 270.624 191.044L267.387 229.473Z" fill="#804EE6"/>
<path d="M270.628 190.783C270.636 190.811 270.253 190.97 269.553 191.235C268.855 191.509 267.828 191.841 266.546 192.191C265.266 192.549 263.722 192.878 261.995 193.148C260.266 193.397 258.354 193.573 256.343 193.603C254.33 193.616 252.415 193.481 250.683 193.27C248.952 193.037 247.403 192.741 246.117 192.41C244.83 192.087 243.798 191.777 243.096 191.518C242.392 191.268 242.007 191.117 242.014 191.09C242.021 191.063 242.419 191.161 243.132 191.362C243.843 191.572 244.88 191.838 246.167 192.122C247.453 192.413 248.996 192.678 250.718 192.888C252.441 193.077 254.343 193.2 256.34 193.186C258.336 193.157 260.236 192.993 261.955 192.767C263.672 192.52 265.212 192.223 266.493 191.904C267.775 191.592 268.808 191.304 269.515 191.079C270.224 190.863 270.621 190.756 270.628 190.783Z" fill="#263238"/>
<path d="M147.334 227.84L90 229.62L147.334 256.84L209 252.584L147.334 227.84Z" fill="#E0E0E0"/>
<path d="M131.333 224.84L74 226.62L131.333 253.84L193 249.584L131.333 224.84Z" fill="#F5F5F5"/>
<path d="M77 217.84L135 244.919V249.84L77 221.815V217.84Z" fill="#E0E0E0"/>
<path d="M137.9 251.233L198.917 247.336V243.439L137.9 247.043V251.233Z" fill="#EBEBEB"/>
<path d="M134.861 216.215L77.4668 217.992L134.861 245.144L196.593 240.898L134.861 216.215Z" fill="white"/>
<path d="M134.861 216.215C134.861 216.215 134.96 216.244 135.152 216.316C135.351 216.392 135.635 216.5 136.006 216.642C136.768 216.94 137.882 217.376 139.332 217.942C142.25 219.096 146.511 220.782 151.922 222.922C162.764 227.237 178.204 233.384 196.645 240.724C196.727 240.757 196.771 240.861 196.743 240.957C196.722 241.029 196.665 241.076 196.603 241.081C179.586 242.258 159.781 243.628 138.744 245.084C137.442 245.173 136.145 245.263 134.873 245.35C134.846 245.352 134.819 245.346 134.795 245.335C113.659 235.323 93.9955 226.009 77.4107 218.153C77.3332 218.116 77.2961 218.014 77.3277 217.925C77.351 217.858 77.4059 217.817 77.4635 217.815C94.7462 217.311 109.096 216.893 119.136 216.601C124.142 216.466 128.072 216.361 130.761 216.289C132.094 216.259 133.117 216.236 133.817 216.22C134.507 216.208 134.861 216.215 134.861 216.215C134.861 216.215 134.503 216.244 133.81 216.274C133.108 216.302 132.083 216.342 130.748 216.395C128.058 216.489 124.126 216.627 119.117 216.803C109.083 217.131 94.7427 217.601 77.4711 218.167L77.5239 217.828C94.1149 225.667 113.785 234.96 134.929 244.95L134.851 244.935C136.123 244.848 137.42 244.758 138.722 244.669C159.761 243.231 179.566 241.878 196.584 240.714L196.542 241.07C178.129 233.674 162.71 227.482 151.885 223.134C146.482 220.951 142.228 219.231 139.315 218.054C137.869 217.463 136.758 217.01 135.998 216.699C135.629 216.545 135.347 216.427 135.148 216.343C134.958 216.264 134.861 216.215 134.861 216.215Z" fill="#263238"/>
<path d="M124.702 219.645C124.603 219.645 124.523 218.516 124.523 217.123C124.523 215.73 124.604 214.601 124.702 214.601C124.801 214.601 124.881 215.73 124.881 217.123C124.881 218.516 124.801 219.645 124.702 219.645Z" fill="#263238"/>
<path d="M176.856 239.084C176.862 239.182 167.608 239.814 156.189 240.499C144.767 241.182 135.506 241.658 135.5 241.561C135.494 241.464 144.746 240.83 156.168 240.146C167.587 239.462 176.85 238.986 176.856 239.084Z" fill="#263238"/>
<path d="M170.839 236.763C170.845 236.861 161.591 237.494 150.173 238.178C138.751 238.861 129.49 239.337 129.483 239.24C129.478 239.142 138.729 238.509 150.152 237.825C161.57 237.141 170.834 236.666 170.839 236.763Z" fill="#263238"/>
<path d="M164.822 234.441C164.828 234.538 155.574 235.172 144.155 235.855C132.733 236.539 123.472 237.014 123.466 236.917C123.46 236.82 132.712 236.187 144.134 235.503C155.553 234.819 164.816 234.344 164.822 234.441Z" fill="#263238"/>
<path d="M155.018 227.568C155.024 227.683 145.661 228.429 134.109 229.234C122.553 230.039 113.183 230.599 113.177 230.485C113.171 230.371 122.531 229.625 134.088 228.819C145.64 228.014 155.012 227.454 155.018 227.568Z" fill="#263238"/>
<path d="M148.947 224.835C148.954 224.95 139.591 225.695 128.039 226.501C116.482 227.306 107.113 227.865 107.106 227.751C107.1 227.637 116.461 226.891 128.017 226.085C139.569 225.28 148.941 224.72 148.947 224.835Z" fill="#263238"/>
<path d="M141.527 222.053C141.534 222.168 132.171 222.913 120.619 223.718C109.062 224.524 99.6927 225.083 99.6865 224.969C99.6804 224.854 109.041 224.109 120.597 223.303C132.15 222.498 141.521 221.939 141.527 222.053Z" fill="#263238"/>
<path d="M143.607 218.98L140.51 217.361L142.029 215.991L143.607 218.98Z" fill="#263238"/>
<path d="M136.31 215.421L139.934 212.197L142.059 216.12L140.51 217.361L136.31 215.421Z" fill="white"/>
<path d="M75.3136 105.705L95.9868 98.8136L107.501 89.0825L109.993 93.0272L119.652 90.8132L146.99 97.9179L151.4 105.714L174.737 112.099L174.842 144.824L170.605 204.702L171.224 214.219H59.5762L57.7338 174.446L57.6494 149.705L75.3136 105.705Z" fill="#804EE6"/>
<path d="M134.361 197.15L158.464 195.982C158.464 195.982 163.14 198.649 164.354 206.292C165.568 213.936 164.354 213.936 164.354 213.936L152.216 218.034L126.465 217.442L117.125 205.711L124.162 201.557L134.361 197.15Z" fill="#AE7461"/>
<path d="M50.9872 188.329C50.9872 188.329 74.1032 151.88 70.2125 157.154C69.7351 157.801 72.562 155.063 76.204 146.125C79.7008 137.543 88.8205 101.51 88.8205 101.51L67.9903 107.036C62.5111 108.489 58.0527 108.962 53.3307 112.098C49.2217 114.828 44.9313 120.191 42.1421 124.26C31.7455 139.425 12.7119 168.964 10.3069 172.741C6.8737 178.13 -0.07635 192.04 0.000634291 200.342C0.0672553 207.575 1.4737 214.018 12.515 219.782C22.7006 225.098 87.8153 221.395 87.8153 221.395L87.457 194.325L50.9872 188.329Z" fill="#804EE6"/>
<path d="M239.259 181.384C238.304 179.004 201.897 138.749 183.618 120.118C178.131 114.526 174.735 112.098 174.735 112.098L168.714 151.336C168.714 151.336 170.784 160.382 172.044 167.075C172.315 168.521 191.223 181.384 191.223 181.384L195.275 183.979L158.315 193.747L159.859 217.228L226.025 215.487C234.617 212.2 248.298 203.909 239.259 181.384Z" fill="#804EE6"/>
<path d="M226.026 215.487C226.026 215.487 225.913 215.502 225.692 215.514C225.456 215.524 225.129 215.538 224.708 215.557C223.828 215.588 222.554 215.632 220.916 215.689C217.602 215.79 212.82 215.935 206.884 216.115C194.976 216.444 178.441 216.899 159.864 217.411L159.687 217.416L159.675 217.24C159.531 215.044 159.377 212.709 159.222 210.349C158.846 204.618 158.482 199.043 158.136 193.76L158.126 193.604L158.279 193.572C162.238 192.754 166.024 191.732 169.651 190.75C173.273 189.746 176.74 188.785 180.023 187.874C186.589 186.053 192.442 184.51 197.367 183.447C202.288 182.362 206.28 181.768 209.037 181.55C210.413 181.4 211.483 181.4 212.205 181.389C212.555 181.385 212.826 181.381 213.025 181.379C213.21 181.379 213.304 181.386 213.304 181.386C213.304 181.386 213.21 181.4 213.025 181.411C212.827 181.421 212.557 181.435 212.207 181.453C211.486 181.486 210.421 181.505 209.049 181.674C206.301 181.931 202.325 182.559 197.418 183.673C192.505 184.765 186.666 186.334 180.107 188.175C176.826 189.094 173.361 190.065 169.741 191.078C166.114 192.069 162.327 193.098 158.352 193.924L158.495 193.736C158.844 199.019 159.213 204.595 159.59 210.325C159.745 212.686 159.898 215.02 160.042 217.217L159.854 217.045C178.433 216.579 194.97 216.165 206.878 215.867C212.815 215.735 217.598 215.628 220.913 215.555C222.551 215.526 223.825 215.503 224.707 215.488C225.128 215.484 225.455 215.481 225.692 215.479C225.913 215.478 226.026 215.487 226.026 215.487Z" fill="#263238"/>
<path d="M139.144 206.908C139.024 206.585 138.757 206.343 138.5 206.114C137.193 204.951 135.887 203.788 134.58 202.625L132.311 209.386C133.264 210.115 134.512 210.446 135.701 210.285C136.89 210.124 138.005 209.473 138.73 208.517C139.08 208.056 139.346 207.45 139.144 206.908Z" fill="#6F4439"/>
<path d="M86.5426 169.181L136.31 215.42L141.009 217.647L143.609 218.979L142.395 216.738L139.936 212.196L89.5524 165.923C88.6981 165.138 87.3835 165.145 86.5367 165.938C85.5973 166.816 85.6003 168.306 86.5426 169.181Z" fill="#455A64"/>
<path d="M87.4678 195.176L91.3695 195.869C91.3695 195.869 111.585 188.408 114.474 188.032C116.706 187.741 127.338 190.24 132.053 191.391C133.952 191.855 135.343 193.568 135.256 195.521C135.254 195.551 135.253 195.58 135.251 195.61C135.157 197.182 134.105 198.539 132.647 199.136C132.647 199.136 136.619 200.369 134.822 204.566C133.492 207.674 129.301 207.193 129.301 207.193L122.307 207.327C122.307 207.327 124.091 207.863 126.779 208.493C129.663 209.168 130.435 209.689 130.435 209.689C130.435 209.689 134.656 213.747 130.579 215.441C128.09 216.475 126.313 216.194 126.313 216.194C126.313 216.194 127.531 220.554 124.267 221.308C121.003 222.061 99.4351 220.42 99.4351 220.42C99.4351 220.42 98.2922 219.779 93.8974 219.402L87.8142 218.98L87.4678 195.176Z" fill="#AE7461"/>
<path d="M87.4693 195.176C87.4693 195.176 87.4796 195.326 87.4878 195.606C87.4952 195.897 87.5055 196.307 87.5189 196.84C87.5418 197.934 87.5759 199.523 87.6195 201.57C87.6965 205.674 87.8083 211.605 87.9467 218.976L87.8261 218.849C89.5826 218.967 91.4502 219.093 93.4104 219.225C94.3912 219.289 95.3972 219.395 96.4165 219.54C97.4395 219.705 98.4677 219.848 99.5121 220.285L99.4499 220.266C103.957 220.591 108.855 220.91 114.054 221.144C116.653 221.252 119.332 221.359 122.064 221.31C122.743 221.282 123.436 221.266 124.094 221.151C124.744 221.028 125.352 220.711 125.742 220.183C126.141 219.662 126.309 218.979 126.345 218.298C126.384 217.617 126.308 216.907 126.141 216.242L126.078 215.986L126.345 216.014C127.212 216.106 128.152 215.985 129.043 215.761C129.929 215.519 130.865 215.22 131.544 214.634C132.25 214.043 132.313 213.018 131.932 212.164C131.585 211.294 130.974 210.505 130.311 209.82L130.335 209.84C129.389 209.342 128.157 209.022 126.976 208.728C125.391 208.316 123.816 207.907 122.257 207.502L120.966 207.167L122.307 207.141C124.675 207.097 127.01 207.053 129.301 207.01H129.308L129.325 207.011C130.268 207.084 131.253 206.992 132.144 206.692C133.042 206.406 133.835 205.848 134.341 205.081C134.467 204.891 134.56 204.679 134.667 204.478L134.903 203.823C134.969 203.602 135.006 203.375 135.06 203.152C135.088 202.927 135.101 202.699 135.11 202.474C135.097 201.569 134.682 200.716 134.005 200.129C133.667 199.837 133.285 199.593 132.877 199.415L132.724 199.351L132.648 199.322L132.612 199.309C132.622 199.602 132.574 198.903 132.589 198.972L132.609 198.963C132.709 198.915 132.813 198.878 132.909 198.823C133.105 198.721 133.296 198.607 133.472 198.475C134.185 197.957 134.716 197.204 134.951 196.373C135.182 195.541 135.123 194.637 134.781 193.858C134.442 193.077 133.842 192.425 133.119 192.004C132.408 191.566 131.541 191.457 130.711 191.235C129.881 191.038 129.059 190.842 128.246 190.648C126.618 190.267 125.024 189.905 123.464 189.568C121.904 189.231 120.379 188.921 118.888 188.654C118.144 188.521 117.407 188.401 116.68 188.303C115.956 188.219 115.225 188.114 114.543 188.169C113.169 188.411 111.837 188.869 110.565 189.26C109.29 189.662 108.064 190.072 106.888 190.469C104.541 191.281 102.38 192.027 100.426 192.702C96.5423 194.085 93.4807 195.176 91.3918 195.92L91.377 195.925L91.3629 195.923C90.0527 195.675 89.0874 195.492 88.436 195.37C88.1222 195.308 87.886 195.262 87.7143 195.229C87.5522 195.196 87.4693 195.176 87.4693 195.176C87.4663 195.172 87.5403 195.182 87.6958 195.206C87.8653 195.233 88.0985 195.27 88.4079 195.32C89.0689 195.43 90.049 195.593 91.3799 195.814L91.3518 195.817C93.4148 195.04 96.4661 193.909 100.356 192.509C102.301 191.809 104.456 191.045 106.807 190.237C107.983 189.833 109.207 189.417 110.484 189.008C111.767 188.609 113.067 188.149 114.51 187.89C115.259 187.827 115.978 187.934 116.715 188.015C117.449 188.112 118.19 188.229 118.938 188.361C120.435 188.624 121.964 188.93 123.527 189.263C125.09 189.597 126.688 189.955 128.318 190.332C129.132 190.524 129.955 190.718 130.786 190.913C131.202 191.013 131.619 191.114 132.039 191.215C132.47 191.32 132.897 191.484 133.287 191.713C134.068 192.167 134.72 192.871 135.091 193.72C135.465 194.57 135.533 195.554 135.281 196.464C135.026 197.373 134.45 198.193 133.677 198.755C133.486 198.898 133.28 199.023 133.068 199.133C132.963 199.192 132.85 199.234 132.742 199.286L132.721 199.295C132.71 199.371 132.701 198.675 132.718 198.973L132.764 198.989L132.85 199.02L133.017 199.09C133.458 199.282 133.869 199.543 134.238 199.861C134.604 200.183 134.91 200.58 135.129 201.024C135.36 201.469 135.436 201.972 135.467 202.465C135.459 202.712 135.444 202.961 135.413 203.205C135.357 203.444 135.316 203.689 135.246 203.924L134.997 204.617C134.882 204.837 134.78 205.068 134.641 205.277C134.088 206.121 133.212 206.731 132.259 207.035C131.304 207.353 130.299 207.45 129.283 207.372L129.307 207.373C127.016 207.418 124.682 207.463 122.314 207.509L122.364 207.148C123.917 207.551 125.485 207.958 127.063 208.368C128.275 208.677 129.459 208.962 130.542 209.534L130.553 209.54L130.566 209.554C131.27 210.282 131.892 211.08 132.274 212.028C132.473 212.493 132.573 213.02 132.512 213.542C132.475 214.078 132.156 214.55 131.793 214.901C131.002 215.576 130.05 215.859 129.133 216.113C128.199 216.343 127.257 216.474 126.289 216.371L126.492 216.143C126.671 216.864 126.747 217.586 126.706 218.318C126.666 219.042 126.488 219.794 126.03 220.395C125.582 221.005 124.87 221.367 124.166 221.498C123.455 221.621 122.764 221.633 122.074 221.661C119.322 221.707 116.643 221.595 114.04 221.481C108.835 221.238 103.937 220.906 99.4277 220.567L99.4063 220.566L99.3648 220.549C98.4403 220.16 97.3706 219.987 96.3743 219.829C95.3631 219.68 94.3682 219.573 93.3889 219.505C91.4303 219.364 89.5641 219.231 87.8083 219.105L87.6891 219.096L87.6876 218.977C87.6106 211.568 87.5485 205.606 87.5055 201.481C87.4892 199.448 87.4774 197.869 87.4685 196.783C87.4663 196.261 87.4648 195.86 87.4641 195.574C87.4626 195.307 87.4693 195.176 87.4693 195.176Z" fill="#6F4439"/>
<path d="M132.311 199.138C132.301 199.239 129.818 199.094 126.764 198.813C123.709 198.533 121.241 198.223 121.251 198.121C121.261 198.02 123.743 198.165 126.798 198.445C129.852 198.726 132.32 199.036 132.311 199.138Z" fill="#6F4439"/>
<path d="M110.487 218.979C110.465 219.017 110.171 218.908 109.826 218.549C109.485 218.2 109.118 217.564 109.088 216.787C109.062 216.009 109.381 215.349 109.696 214.975C110.015 214.592 110.3 214.462 110.324 214.498C110.36 214.542 110.144 214.742 109.909 215.126C109.673 215.505 109.434 216.101 109.457 216.773C109.483 217.446 109.764 218.022 110.027 218.383C110.29 218.75 110.519 218.932 110.487 218.979Z" fill="#6F4439"/>
<path d="M110.164 211.661C110.157 211.701 109.786 211.675 109.304 211.35C108.83 211.038 108.266 210.365 108.162 209.456C108.068 208.544 108.474 207.766 108.869 207.359C109.27 206.937 109.627 206.832 109.642 206.87C109.674 206.921 109.382 207.104 109.07 207.526C108.759 207.938 108.448 208.637 108.529 209.416C108.618 210.194 109.071 210.809 109.464 211.144C109.86 211.489 110.184 211.605 110.164 211.661Z" fill="#6F4439"/>
<path d="M110.037 203.141C110.012 203.174 109.664 202.97 109.311 202.438C108.96 201.919 108.646 201.027 108.815 200.044C108.989 199.062 109.587 198.328 110.092 197.959C110.605 197.578 111.002 197.504 111.014 197.543C111.038 197.598 110.691 197.756 110.26 198.159C109.832 198.552 109.333 199.236 109.179 200.107C109.029 200.979 109.266 201.792 109.536 202.306C109.805 202.831 110.078 203.098 110.037 203.141Z" fill="#6F4439"/>
<path d="M112.606 192.208C112.572 192.236 112.41 192.121 112.277 191.837C112.142 191.558 112.077 191.106 112.208 190.646C112.339 190.185 112.63 189.835 112.89 189.667C113.152 189.495 113.351 189.482 113.365 189.523C113.408 189.613 112.77 189.949 112.562 190.746C112.322 191.534 112.69 192.153 112.606 192.208Z" fill="#6F4439"/>
<path d="M122.857 207.194C122.855 207.296 121.505 207.354 119.841 207.323C118.176 207.293 116.829 207.186 116.83 207.084C116.832 206.982 118.182 206.925 119.847 206.955C121.511 206.984 122.859 207.092 122.857 207.194Z" fill="#6F4439"/>
<path d="M126.127 216.194C126.106 216.294 123.664 215.858 120.673 215.22C117.681 214.582 115.273 213.985 115.294 213.885C115.316 213.785 117.758 214.221 120.75 214.859C123.741 215.497 126.149 216.094 126.127 216.194Z" fill="#6F4439"/>
<path d="M72.3469 150.532C72.335 150.527 72.378 150.368 72.4705 150.07C72.5534 149.77 72.7266 149.344 72.8695 148.77C73.2056 147.638 73.5853 145.967 73.871 143.877C74.1486 141.787 74.3137 139.27 74.1886 136.484C74.0435 133.705 73.649 130.639 72.6593 127.584C71.6392 124.545 70.1121 121.836 68.337 119.7C66.5879 117.534 64.5848 115.969 62.8097 114.85C61.0102 113.757 59.4291 113.085 58.3143 112.701C57.7658 112.481 57.3179 112.376 57.0255 112.267C56.7294 112.168 56.5755 112.111 56.5792 112.099C56.5821 112.086 56.7428 112.12 57.0455 112.195C57.3453 112.281 57.802 112.364 58.3609 112.565C59.4964 112.909 61.1072 113.55 62.9459 114.627C64.7595 115.73 66.8092 117.296 68.5998 119.483C70.4171 121.64 71.9745 124.38 73.0109 127.468C74.0154 130.569 74.4018 133.665 74.5291 136.469C74.6364 139.279 74.4432 141.813 74.1301 143.913C73.8096 146.013 73.3876 147.686 73.0079 148.811C72.8428 149.382 72.6474 149.802 72.5416 150.096C72.4246 150.387 72.3587 150.536 72.3469 150.532Z" fill="#263238"/>
<path d="M174.736 143.755C174.749 143.756 174.75 143.918 174.741 144.229C174.726 144.577 174.708 145.027 174.684 145.585C174.616 146.807 174.521 148.498 174.406 150.569C174.133 154.816 173.76 160.608 173.347 167.008C172.893 173.406 172.482 179.197 172.181 183.442C172.016 185.51 171.882 187.199 171.785 188.418C171.733 188.975 171.691 189.423 171.659 189.77C171.626 190.079 171.603 190.24 171.59 190.239C171.577 190.238 171.576 190.075 171.585 189.764C171.6 189.416 171.618 188.966 171.642 188.407C171.71 187.186 171.805 185.494 171.92 183.422C172.193 179.176 172.566 173.385 172.979 166.984C173.432 160.588 173.843 154.799 174.144 150.555C174.309 148.487 174.444 146.798 174.541 145.578C174.592 145.021 174.635 144.573 174.667 144.226C174.7 143.916 174.723 143.754 174.736 143.755Z" fill="#263238"/>
<path d="M131.566 136.358C131.56 136.364 131.478 136.295 131.323 136.158C131.152 136.001 130.929 135.796 130.65 135.539C130.048 134.967 129.201 134.162 128.133 133.148C127.053 132.098 125.751 130.833 124.261 129.385C122.782 127.914 121.095 126.278 119.355 124.372L119.627 124.304C118.806 127.86 117.883 131.868 116.895 136.15L116.792 136.598L116.561 136.201C115.531 134.424 114.466 132.571 113.401 130.664C108.596 122.07 104.459 114.18 101.361 108.526C99.8165 105.722 98.5626 103.444 97.678 101.838C97.2524 101.07 96.9156 100.463 96.672 100.023C96.5691 99.8286 96.4855 99.6724 96.4181 99.5459C96.3626 99.4371 96.3367 99.38 96.3426 99.3771C96.3478 99.3741 96.3848 99.4245 96.4507 99.5266C96.5262 99.648 96.6202 99.799 96.7364 99.9848C96.9955 100.417 97.3516 101.012 97.8031 101.767C98.7151 103.323 100.018 105.584 101.589 108.4C104.748 114.023 108.922 121.896 113.723 130.484C114.787 132.388 115.849 134.241 116.875 136.018L116.541 136.068C117.546 131.79 118.486 127.785 119.319 124.233L119.388 123.939L119.591 124.164C121.303 126.063 122.982 127.719 124.443 129.203C125.912 130.671 127.196 131.953 128.26 133.017C129.302 134.058 130.128 134.882 130.717 135.469C130.983 135.74 131.194 135.956 131.357 136.122C131.501 136.272 131.572 136.352 131.566 136.358Z" fill="#263238"/>
<path d="M132.972 135.433C132.956 135.421 133.158 135.151 133.534 134.649C133.931 134.108 134.467 133.376 135.134 132.467C136.491 130.583 138.392 127.887 140.602 124.67L140.723 124.493L140.865 124.655C141.791 125.707 142.902 126.702 144.172 127.598C145.439 128.5 146.838 129.342 148.217 130.302L147.933 130.411C147.952 130.33 147.974 130.241 147.995 130.153C149.477 124.028 150.793 118.481 151.392 114.4C151.707 112.364 151.896 110.706 152.008 109.558C152.061 109.015 152.104 108.576 152.137 108.236C152.169 107.934 152.192 107.775 152.204 107.775C152.217 107.776 152.219 107.936 152.211 108.24C152.2 108.544 152.192 108.993 152.152 109.57C152.083 110.723 151.933 112.391 151.65 114.439C151.115 118.544 149.835 124.118 148.354 130.238C148.333 130.327 148.312 130.415 148.293 130.497L148.23 130.76L148.008 130.606C146.64 129.652 145.244 128.809 143.963 127.89C142.679 126.978 141.546 125.953 140.614 124.876L140.877 124.86C138.642 128.064 136.702 130.734 135.295 132.587C134.59 133.513 134.02 134.233 133.618 134.715C133.419 134.958 133.257 135.137 133.148 135.259C133.038 135.379 132.978 135.439 132.972 135.433Z" fill="#263238"/>
<path d="M130.798 189.89C130.785 189.889 130.778 189.702 130.778 189.345C130.783 188.953 130.789 188.434 130.795 187.785C130.824 186.391 130.864 184.441 130.913 182.049C131.004 177.171 131.129 170.498 131.266 163.126C131.341 155.75 131.408 149.076 131.457 144.197C131.477 141.805 131.493 139.855 131.504 138.461C131.516 137.811 131.525 137.293 131.532 136.901C131.542 136.544 131.554 136.357 131.567 136.357C131.579 136.357 131.593 136.544 131.606 136.9C131.616 137.292 131.63 137.811 131.647 138.46C131.664 139.855 131.688 141.804 131.717 144.197C131.751 149.042 131.74 155.737 131.634 163.131C131.527 170.523 131.345 177.214 131.172 182.056C131.074 184.447 130.994 186.396 130.937 187.789C130.901 188.437 130.873 188.956 130.851 189.347C130.829 189.703 130.81 189.89 130.798 189.89Z" fill="#263238"/>
<path d="M87.8159 221.396C87.8048 221.396 87.7908 221.213 87.7752 220.864C87.7626 220.484 87.7449 219.974 87.7234 219.33C87.6923 217.962 87.6479 216.029 87.5931 213.632C87.5132 208.758 87.4014 202.002 87.2748 194.327L87.4332 194.505C85.6559 194.209 83.8024 193.9 81.9111 193.584C73.0268 192.076 64.9857 190.711 59.1282 189.717C56.2405 189.209 53.8925 188.796 52.2314 188.504C51.4423 188.357 50.8176 188.241 50.3594 188.155C50.1647 188.115 50.0048 188.083 49.8745 188.055C49.7657 188.031 49.7102 188.015 49.7109 188.009C49.7117 188.003 49.7694 188.006 49.8805 188.018C50.013 188.035 50.1743 188.055 50.372 188.081C50.8331 188.15 51.4616 188.243 52.2551 188.361C53.9207 188.625 56.2739 188.999 59.1696 189.458C65.0301 190.425 73.0742 191.751 81.9614 193.217C83.852 193.535 85.704 193.846 87.4806 194.143L87.6375 194.169L87.639 194.321C87.716 201.996 87.7834 208.752 87.8322 213.627C87.8411 216.024 87.8478 217.958 87.853 219.327C87.8485 219.971 87.8448 220.481 87.8418 220.861C87.8359 221.212 87.827 221.395 87.8159 221.396Z" fill="#263238"/>
<path d="M53.1706 150.246C53.178 150.318 51.9315 150.403 49.9854 150.865C49.0113 151.089 47.8735 151.446 46.6433 151.921C45.4211 152.419 44.1109 153.048 42.8081 153.836C41.5127 154.64 40.3572 155.521 39.3594 156.384C38.3763 157.264 37.5421 158.116 36.9003 158.883C35.6049 160.407 34.9639 161.479 34.9024 161.439C34.881 161.426 35.0297 161.153 35.3199 160.669C35.462 160.425 35.6441 160.131 35.8825 159.808C36.1179 159.483 36.3696 159.1 36.699 158.716C37.3222 157.92 38.1476 157.037 39.1329 156.13C40.1322 155.241 41.3003 154.337 42.6157 153.522C43.9385 152.721 45.2738 152.091 46.5204 151.605C47.7758 151.139 48.9365 150.804 49.9292 150.611C50.4207 150.491 50.8767 150.441 51.2727 150.379C51.6687 150.313 52.0129 150.283 52.295 150.269C52.8575 150.229 53.1692 150.22 53.1706 150.246Z" fill="#263238"/>
<path d="M70.2121 157.154C70.2232 157.161 70.1662 157.276 70.0485 157.49C69.9064 157.738 69.731 158.045 69.5178 158.416C69.0152 159.259 68.3357 160.399 67.5081 161.787C65.7966 164.626 63.4109 168.534 60.7571 172.838C58.1019 177.144 55.6806 181.03 53.9129 183.834C53.0439 185.196 52.3311 186.316 51.8033 187.143C51.5664 187.501 51.3717 187.795 51.2141 188.033C51.0756 188.234 50.9979 188.336 50.9875 188.33C50.9772 188.323 51.0334 188.208 51.1511 187.993C51.2933 187.744 51.4687 187.438 51.6819 187.066C52.1845 186.223 52.8648 185.083 53.6924 183.694C55.4038 180.856 57.7888 176.949 60.444 172.643C63.0978 168.34 65.5183 164.454 67.286 161.651C68.155 160.288 68.8686 159.168 69.3964 158.341C69.6333 157.983 69.828 157.689 69.9864 157.45C70.1233 157.25 70.201 157.147 70.2121 157.154Z" fill="#263238"/>
<g opacity="0.3">
<path d="M58.2506 185.613C66.1363 178.899 70.9293 167.269 70.064 156.948L57.8701 177.411L58.2506 185.613Z" fill="black"/>
</g>
<g opacity="0.3">
<path d="M101.096 107.775L115.919 141.315L121.25 131.315L129.382 134.238L119.474 124.267L116.719 136.109L101.096 107.775Z" fill="black"/>
</g>
<g opacity="0.3">
<path d="M194.729 184.025C201.055 180.685 207.007 178.104 214.133 178.748C214.771 178.806 216.448 178.996 217 179.322C217.551 179.647 218.216 180.748 218.147 181.385C210.067 181.164 202.706 181.948 195.355 183.924" fill="black"/>
</g>
<g opacity="0.3">
<path d="M175.055 139.572C175.022 140.117 173.197 167.754 173.163 168.298C177.84 159.181 179.357 148.873 175.055 139.572Z" fill="black"/>
</g>
<path d="M133.945 4.04824C135.857 1.4145 139.56 0.243447 142.638 1.3005C146.796 -1.08527 152.584 -0.103716 155.723 3.52046C158.776 2.27983 162.466 2.76246 165.097 4.7448C167.73 6.72788 169.211 10.1411 168.861 13.4181C172.198 13.3892 175.431 15.6788 176.509 18.8373C177.589 21.9959 176.434 25.7852 173.776 27.8038C177.151 29.4893 178.873 33.8929 177.535 37.4201C176.199 40.9481 171.99 43.1036 168.345 42.1287L134.028 13.1649C132.07 10.566 132.034 6.68273 133.945 4.04824Z" fill="#263238"/>
<path d="M141.551 8.82019L139.878 8.56852C121.684 6.9141 110.114 21.4419 108.963 39.6753L103.272 93.385L132.534 132.399L141.959 118.527L144.884 102.343C144.884 102.343 162.628 102.251 165.445 84.9472C166.806 76.5899 168.206 59.153 169.292 43.3572C170.458 26.3763 158.386 11.3473 141.551 8.82019Z" fill="#AE7461"/>
<path d="M144.859 102.367C144.859 102.367 133.861 101.346 123.314 92.2827C123.314 92.2827 126.747 105.589 144.106 106.649L144.859 102.367Z" fill="#6F4439"/>
<path d="M160.72 60.8379C160.57 62.1518 159.333 63.109 157.958 62.9772C156.586 62.8454 155.591 61.6766 155.742 60.362C155.892 59.0481 157.128 58.0895 158.501 58.2205C159.876 58.3522 160.869 59.5233 160.72 60.8379Z" fill="#263238"/>
<path d="M164.352 52.1906C163.997 52.4675 162.331 50.7975 159.665 50.4044C157.008 49.9736 154.848 51.0507 154.608 50.6813C154.487 50.5155 154.888 49.9795 155.831 49.4873C156.762 48.9958 158.282 48.6101 159.94 48.8662C161.599 49.1246 162.902 49.9448 163.611 50.6909C164.337 51.4437 164.526 52.0692 164.352 52.1906Z" fill="#263238"/>
<path d="M138.153 57.8687C138.003 59.1826 136.767 60.139 135.391 60.0072C134.018 59.8762 133.024 58.7066 133.174 57.392C133.324 56.0781 134.561 55.1202 135.935 55.2512C137.309 55.3823 138.303 56.5541 138.153 57.8687Z" fill="#263238"/>
<path d="M138.923 47.9943C138.567 48.2712 136.898 46.6012 134.234 46.2089C131.578 45.7788 129.417 46.8551 129.177 46.4857C129.057 46.3199 129.454 45.7832 130.402 45.2925C131.333 44.8009 132.852 44.4153 134.51 44.6714C136.169 44.9297 137.473 45.7507 138.182 46.4961C138.903 47.2467 139.095 47.8722 138.923 47.9943Z" fill="#263238"/>
<path d="M144.732 69.0555C144.743 68.9015 146.442 68.8638 149.176 68.9237C149.867 68.9563 150.531 68.9178 150.716 68.4699C150.95 68.0029 150.775 67.2264 150.565 66.3855C150.172 64.6437 149.762 62.8175 149.331 60.9033C147.644 53.1079 146.533 46.7404 146.847 46.6753C147.161 46.6109 148.784 52.8755 150.469 60.6701C150.869 62.5895 151.252 64.4201 151.614 66.1708C151.756 66.9828 152.067 67.9259 151.566 68.8934C151.306 69.3738 150.752 69.6684 150.298 69.7202C149.842 69.7876 149.458 69.738 149.119 69.7069C146.397 69.4471 144.721 69.2072 144.732 69.0555Z" fill="#263238"/>
<path d="M140.1 40.3885C139.679 41.0325 137.478 40.0673 134.682 39.6942C131.897 39.2582 129.479 39.5528 129.296 38.8214C129.22 38.4743 129.781 37.9139 130.848 37.4713C131.907 37.0286 133.474 36.7606 135.147 37.002C136.82 37.247 138.221 37.9435 139.079 38.6653C139.944 39.3877 140.289 40.0798 140.1 40.3885Z" fill="#263238"/>
<path d="M164.845 44.7941C164.332 45.373 162.523 44.615 160.298 44.4358C158.08 44.179 156.159 44.5705 155.768 43.9029C155.598 43.5801 155.936 42.9887 156.799 42.4653C157.649 41.9442 159.039 41.5645 160.566 41.7133C162.093 41.8643 163.381 42.5068 164.114 43.1833C164.858 43.8644 165.075 44.5106 164.845 44.7941Z" fill="#263238"/>
<path d="M168.818 35.1541C168.818 35.1541 165.875 23.6109 161.021 20.2917C155.144 16.273 151.371 22.8196 145.585 20.2251C139.799 17.6298 134.191 13.7792 127.317 17.5203C119.794 21.616 122.422 25.6762 120.849 33.3065C114.474 64.2378 107.456 72.202 108.041 57.2693C108.105 55.6334 103.831 53.6828 104.19 46.7846C104.656 37.8389 105.925 27.0826 108.832 21.1208C111.283 16.0961 114.836 12.9035 120.831 9.69604C130.295 4.63285 142.007 6.25174 149.827 8.24296C157.646 10.2342 171.583 21.6693 168.818 35.1541Z" fill="#263238"/>
<path d="M109.216 56.9674C109.508 54.2752 107.52 51.8169 104.816 51.6696C101.537 51.4919 97.6632 52.7873 96.8734 59.5005C95.4721 71.4094 107.718 70.359 107.779 70.0199C107.82 69.7905 108.674 61.9566 109.216 56.9674Z" fill="#AE7461"/>
<path d="M105.715 65.2341C105.668 65.1897 105.491 65.3555 105.121 65.4747C104.761 65.5909 104.161 65.6294 103.566 65.3237C102.362 64.7137 101.538 62.5922 101.733 60.4389C101.83 59.3523 102.179 58.3463 102.663 57.5372C103.129 56.7081 103.764 56.1663 104.41 56.1285C105.058 56.0567 105.461 56.4883 105.568 56.8406C105.688 57.1923 105.585 57.421 105.645 57.4491C105.675 57.4832 105.924 57.2796 105.887 56.7762C105.865 56.5342 105.759 56.2366 105.506 55.9753C105.247 55.7088 104.841 55.5408 104.394 55.5371C103.468 55.4919 102.542 56.2403 102.01 57.1286C101.427 58.0154 101.009 59.142 100.901 60.3634C100.695 62.7721 101.659 65.1623 103.322 65.8626C104.134 66.1794 104.862 66.0092 105.256 65.7708C105.659 65.5199 105.754 65.2608 105.715 65.2341Z" fill="#6F4439"/>
<path d="M112.896 34.0359C114.278 35.318 115.741 36.6453 117.569 37.1072C119.396 37.5698 121.677 36.8222 122.265 35.0323C122.53 34.2284 122.472 33.2409 123.11 32.685C123.871 32.0218 125.029 32.4393 126.007 32.6931C129.398 33.5762 133.293 31.6687 134.674 28.4479C135.355 29.8958 137.415 30.1468 138.873 29.4887C140.332 28.8314 141.399 27.5559 142.619 26.5204C143.839 25.4848 145.46 24.6379 146.993 25.0961C147.851 25.3523 148.593 25.997 149.485 26.0511C151.063 26.1465 152.096 24.4381 152.563 22.9288C153.031 21.4194 153.485 19.6443 154.929 19.0026C156.267 18.4082 157.783 19.0958 159.185 19.5215C160.585 19.9478 162.486 19.8894 163.063 18.5436C163.366 17.8374 163.167 17.0165 162.855 16.314C161.447 13.1318 157.615 11.2368 154.231 12.0473C153.659 7.95682 150.454 4.35929 146.456 3.32074C142.458 2.28146 137.908 3.86482 135.418 7.16107C133.254 4.51178 129.757 3.01132 126.346 3.26892C122.936 3.52578 119.704 5.53256 117.961 8.47646C115.192 7.28543 111.739 7.90648 109.558 9.98875C107.378 12.071 106.598 15.4924 107.661 18.3134C105.347 19.2106 103.205 21.0537 102.793 23.5002C102.381 25.9467 104.404 28.7499 106.867 28.4598C105.624 30.226 106.013 32.936 107.704 34.2802C109.394 35.6252 112.121 35.3957 113.563 33.7872" fill="#263238"/>
<path d="M137.502 72.3092C137.275 72.1508 137.012 71.9842 136.741 72.042C136.498 72.093 136.329 72.3099 136.195 72.5194C135.104 74.2308 134.982 76.5174 135.885 78.3347C135.894 78.3532 135.902 78.371 135.912 78.3895C137.261 81.0299 141.046 81.1113 142.734 78.6737L143.998 76.8476C142.511 75.8098 138.991 73.3463 137.502 72.3092Z" fill="#6F4439"/>
<path d="M141.923 79.5399C142.015 79.5873 140.933 80.6214 138.743 80.5118C138.222 80.4867 137.563 80.2853 137.058 79.9308C136.534 79.6058 135.967 79.1313 135.619 78.4607C134.957 77.1342 134.883 75.5212 135.18 73.9445C135.261 73.5426 135.333 73.1828 135.478 72.7698C135.633 72.3871 135.844 71.9266 136.383 71.7016C136.948 71.4862 137.459 71.7986 137.735 72.0021C138.016 72.2109 138.294 72.4167 138.568 72.6202C139.571 73.3834 140.519 74.1029 141.408 74.7787C143.01 76.0268 143.97 76.8418 143.906 76.9299C143.842 77.018 142.768 76.3621 141.081 75.2295C140.161 74.5966 139.181 73.9223 138.143 73.208C137.612 72.8653 136.937 72.242 136.661 72.4218C136.293 72.5558 136.083 73.3775 135.954 74.0903C135.672 75.5412 135.749 77.0239 136.265 78.1283C136.524 78.6664 136.952 79.0625 137.42 79.3874C137.886 79.739 138.318 79.8849 138.807 79.9589C140.752 80.1987 141.885 79.4252 141.923 79.5399Z" fill="#263238"/>
<path d="M106.003 28.3072C105.967 28.2694 105.635 29.2702 106.399 30.6959C106.782 31.3755 107.497 32.1298 108.562 32.4688C109.602 32.8085 110.951 32.7427 112.088 31.9943L111.598 31.844C112.031 32.9521 112.649 34.1084 113.521 35.1551C114.083 35.8228 114.729 36.4172 115.479 36.8213C116.21 37.2485 117.091 37.4106 117.831 37.4024C119.358 37.4624 120.79 36.8524 121.546 35.9538C122.323 35.0811 122.657 34.212 122.875 33.6317C123.087 33.0432 123.15 32.7027 123.11 32.6879C123.061 32.6686 122.911 32.9795 122.629 33.5243C122.344 34.061 121.942 34.8693 121.196 35.614C119.818 37.1448 116.027 37.4639 114.049 34.7117C113.239 33.7405 112.638 32.6457 112.209 31.6027L112.053 31.2222L111.719 31.4524C110.792 32.0905 109.631 32.1919 108.724 31.9343C107.802 31.6827 107.144 31.0697 106.749 30.482C105.959 29.2584 106.112 28.2916 106.003 28.3072Z" fill="#455A64"/>
<path d="M132.522 4.73244C132.509 4.77242 132.819 4.86198 133.314 5.16547C133.797 5.46897 134.493 6.03007 134.92 7.00718L135.028 7.25441L135.225 7.05899C136.556 5.73989 138.701 4.10768 141.653 3.27936C143.119 2.87667 144.776 2.69754 146.473 2.95588C148.162 3.2009 149.857 3.95371 151.276 5.14327C152.381 6.06708 153.255 7.20703 153.84 8.42471C154.405 9.65202 154.668 10.9578 154.607 12.194L154.588 12.5745L154.962 12.5293C156.817 12.3072 158.579 12.9261 159.798 13.8684C161.037 14.8144 161.726 16.0758 162.059 17.1602C162.702 19.389 162.147 20.7807 162.271 20.7822C162.297 20.7903 162.445 20.472 162.56 19.8347C162.667 19.2018 162.732 18.2291 162.431 17.0558C162.136 15.8981 161.446 14.5116 160.128 13.4494C158.835 12.3968 156.942 11.681 154.887 11.8979L155.243 12.2332C155.328 10.8897 155.056 9.46474 154.453 8.13898C153.833 6.82285 152.9 5.60073 151.721 4.614C150.208 3.34377 148.381 2.54136 146.571 2.29486C144.763 2.03504 143.015 2.2497 141.489 2.69828C138.416 3.62061 136.254 5.38014 134.957 6.79917L135.261 6.85099C134.737 5.79764 133.948 5.25578 133.412 4.99152C132.858 4.73022 132.527 4.70654 132.522 4.73244Z" fill="#455A64"/>
</svg>
