<svg width="617" height="347" viewBox="0 0 617 347" fill="none" xmlns="http://www.w3.org/2000/svg">
<path d="M109.832 129.361C109.815 129.536 108.412 129.557 106.206 129.192C104.007 128.827 101.016 128.179 97.746 127.305C91.2036 125.561 86.1013 123.528 86.2188 123.196C86.3391 122.852 91.5975 124.324 98.0929 126.056C101.333 126.929 104.265 127.72 106.406 128.297C108.522 128.883 109.85 129.18 109.832 129.361Z" fill="#322A50"/>
<path d="M316.001 289.5C339.545 275.766 353.767 258.26 367.637 236C376 218 356.766 210.013 355.501 192.5C352.306 148.256 261.512 97.1265 203.065 122.219C144.617 147.312 96.5007 212.243 104.927 252.899C113.352 293.556 178.712 317.16 218.313 310.209C248.5 310.209 296.029 301.15 316.001 289.5Z" fill="#A6A6A6" fill-opacity="0.21"/>
<path d="M104.82 216.374L32.1152 197.664L48.3641 105.555L58.4333 102.247C59.6901 101.92 61.0184 101.918 62.2761 102.241L132.932 120.424C134.226 120.757 134.985 122.006 134.629 123.216L107.644 214.874C107.307 216.016 106.042 216.688 104.82 216.374Z" fill="#804EE6"/>
<path d="M104.015 216.116L94.916 218.092L27.8301 199.521L53.4018 107.589L60.2159 105.171C60.7376 104.985 61.3082 104.961 61.8468 105.099L130.989 122.884L104.015 216.116Z" fill="white"/>
<path d="M92.0741 219.734L22.265 201.769C20.6238 201.347 19.6593 199.76 20.1114 198.226L47.0011 106.893C47.2944 105.896 48.397 105.31 49.4639 105.584L119.193 123.528C120.993 123.992 122.051 125.732 121.555 127.414L94.802 218.285C94.4758 219.39 93.2547 220.038 92.0741 219.734Z" fill="#804EE6"/>
<path d="M90.5338 168.637L53.2656 159.382L59.9311 135.921L97.1993 145.176L90.5338 168.637Z" fill="white"/>
<path d="M89.5196 151.696C89.4086 152.043 83.6812 150.582 76.6481 148.698C69.6169 146.808 63.9281 145.206 64.0127 144.852C64.0935 144.509 69.9384 145.552 76.9969 147.449C84.0563 149.341 89.6277 151.361 89.5196 151.696Z" fill="#322A50"/>
<path d="M285.977 56.0714C285.977 56.0714 322.965 24.3358 349.802 50.7441C382.151 82.5762 411.943 215.455 342.701 244.773L332.816 185.278C332.816 185.278 361.53 161.754 336.769 95.0523C336.769 95.0523 328.193 74.097 308.24 82.1721C288.289 90.2471 285.977 56.0714 285.977 56.0714Z" fill="#F867A6"/>
<path d="M347.723 240.482C347.826 255.075 338.749 268.356 324.671 273.853C315.66 277.373 303.563 281.11 287.668 284.28C274.966 286.811 256.608 288.325 236.4 288.936C184.402 290.504 120.171 286.076 108.697 277.614C92.7618 265.873 106.014 210.62 112.476 186.329C118.944 162.031 137.208 157.456 137.208 157.456C137.208 157.456 137.204 157.196 137.204 156.692C137.239 151.1 138.391 115.702 161.305 82.2297C165.007 76.8213 169.409 71.4689 174.403 66.4162C174.531 66.2866 174.659 66.157 174.787 66.0275C192.928 47.8335 218.115 37.8461 244.272 37.4555C262.455 37.1848 282.968 40.7524 299.386 53.944C341.961 88.1584 347.404 194.841 347.723 240.482Z" fill="#FFA6F1"/>
<path d="M217.026 42.9357C214.753 42.3343 213.318 40.128 213.722 37.854C215.315 28.9243 221.472 6.71018 243.57 3.50415C270.013 -0.3342 286.687 18.2484 282.925 42.1061C282.59 44.2293 280.913 45.9212 278.75 46.2732C278.75 46.2732 273.845 48.5337 267.56 47.0621C264.36 46.3119 262.941 44.3105 263.053 42.7674C263.607 35.2396 264.845 19.1321 252.203 18.581C239.02 18.0067 235.142 32.5112 234.223 37.2951C234.014 38.3857 233.437 39.3758 232.544 40.0583C230.111 41.9127 224.679 44.9622 217.026 42.9357Z" fill="#F867A6"/>
<path d="M324.514 199.629C324.298 199.645 323.939 196.411 323.18 190.591C322.427 184.771 321.267 176.359 319.294 166.064C317.311 155.773 314.464 143.607 310.385 130.359C308.351 123.734 305.993 116.846 303.298 109.8C300.611 102.758 297.612 95.5471 293.478 88.787C285.192 75.2512 272.717 65.4958 260.169 59.6251C247.558 53.683 234.875 51.5211 224.314 51.0996C213.704 50.6858 205.103 51.8305 199.248 52.8708C193.381 53.9208 190.177 54.7697 190.114 54.5551C190.086 54.4661 190.859 54.1606 192.357 53.6617C193.856 53.1648 196.095 52.5034 199.027 51.8363C204.868 50.4692 213.546 49.0093 224.372 49.1814C235.14 49.3631 248.198 51.3683 261.259 57.3666C274.239 63.2817 287.227 73.3117 295.846 87.3889C300.128 94.3946 303.16 101.764 305.835 108.872C308.52 115.99 310.845 122.951 312.826 129.645C316.8 143.036 319.47 155.334 321.216 165.728C322.955 176.127 323.822 184.614 324.248 190.485C324.475 193.42 324.566 195.704 324.597 197.255C324.639 198.805 324.611 199.621 324.514 199.629Z" fill="#322A50"/>
<path d="M242.288 288.61C241.352 288.726 240.401 288.861 239.435 289.014C237.032 289.391 234.615 289.553 232.182 289.59C180.856 290.358 117.956 286.643 106.655 276.986C90.5172 263.207 108.029 171.094 114.133 143.166C114.194 142.886 114.257 142.609 114.32 142.335C118.555 124.009 132.418 110.841 149.14 108.741C164.089 106.863 191.143 104.197 206.495 107.099C243.587 114.117 250.714 130.131 255.755 141.08C260.79 152.03 297.778 281.577 242.288 288.61Z" fill="#F867A6"/>
<path d="M375.869 103.563C375.426 103.665 374.401 99.2872 371.189 92.9022C369.579 89.7232 367.39 86.0627 364.467 82.3888C361.527 78.7554 357.805 75.0582 353.149 72.4516C348.482 69.934 343.297 68.8627 338.637 68.9323C333.947 68.9033 329.787 70.0249 326.503 71.334C323.222 72.7011 320.817 74.3524 319.266 75.6132C317.692 76.8546 316.868 77.6416 316.695 77.5004C316.571 77.4057 317.117 76.3828 318.526 74.8436C319.912 73.2908 322.276 71.2875 325.677 69.5936C329.077 67.9597 333.511 66.5481 338.584 66.4321C343.629 66.2194 349.308 67.2829 354.501 70.0848C359.635 72.9621 363.512 76.9706 366.489 80.8708C369.444 84.8136 371.534 88.7196 372.967 92.1094C375.826 98.9236 376.173 103.524 375.869 103.563Z" fill="#322A50"/>
<path d="M255.726 171.955C255.541 172.005 254.76 169.89 253.476 166.036C252.175 162.19 250.421 156.582 247.838 149.836C246.537 146.473 245.013 142.83 242.955 139.173C240.899 135.526 238.279 131.858 234.732 128.805C231.235 125.697 226.844 123.273 222.028 121.43C217.167 119.666 211.879 118.452 206.361 117.748C200.845 117.007 195.39 116.714 190.095 116.524C184.798 116.337 179.686 116.234 174.812 116.217C165.081 116.205 156.261 116.352 148.961 116.845C141.655 117.352 135.886 118.736 132.137 120.297C128.36 121.805 126.52 123.182 126.376 122.977C126.319 122.901 126.735 122.509 127.591 121.824C128.462 121.167 129.812 120.258 131.691 119.336C135.419 117.423 141.353 115.695 148.78 114.935C156.206 114.186 164.999 113.844 174.808 113.716C179.709 113.666 184.855 113.714 190.188 113.867C195.518 114.022 201.076 114.298 206.738 115.058C212.4 115.783 217.9 117.056 223.002 118.947C228.065 120.919 232.737 123.561 236.445 126.95C240.215 130.296 242.927 134.264 244.976 138.106C247.032 141.965 248.479 145.736 249.681 149.188C252.057 156.103 253.53 161.805 254.513 165.748C255.479 169.696 255.907 171.905 255.726 171.955Z" fill="#322A50"/>
<path d="M323.501 214.637L322.551 214.728C318.321 215.13 314.557 212.092 314.147 207.943L312.749 193.8C312.339 189.65 315.436 185.959 319.667 185.556L320.617 185.465C324.848 185.063 328.611 188.101 329.022 192.251L330.419 206.394C330.829 210.543 327.732 214.235 323.501 214.637Z" fill="#804EE6"/>
<path d="M220.303 79.9025L206.348 80.4091C202.919 80.5329 200.037 77.9088 199.911 74.5462L199.883 73.7901C199.757 70.4275 202.432 67.6004 205.861 67.4767L219.816 66.97C223.245 66.8463 226.127 69.4703 226.255 72.833L226.283 73.589C226.407 76.9497 223.732 79.7768 220.303 79.9025Z" fill="white"/>
<path d="M256.716 195.163L255.766 195.254C251.535 195.656 247.772 192.619 247.362 188.469L245.964 174.326C245.554 170.176 248.651 166.485 252.882 166.083L253.832 165.992C258.063 165.59 261.826 168.627 262.236 172.777L263.634 186.92C264.046 191.07 260.947 194.761 256.716 195.163Z" fill="#804EE6"/>
<path d="M258.636 171.09C258.978 171.021 259.573 171.864 259.299 173.384C259.155 174.122 258.776 175 258.023 175.764C257.274 176.536 256.145 177.12 254.912 177.263C253.678 177.417 252.462 177.149 251.524 176.588C250.567 176.019 249.976 175.221 249.686 174.482C249.095 172.924 249.797 171.963 250.128 172.084C250.512 172.162 250.692 172.879 251.382 173.523C252.05 174.2 253.178 174.747 254.565 174.569C255.932 174.416 256.882 173.577 257.46 172.722C258.045 171.893 258.242 171.139 258.636 171.09Z" fill="#322A50"/>
<path d="M223.226 195.961L222.276 196.052C218.045 196.454 214.282 193.416 213.872 189.267L212.474 175.124C212.064 170.974 215.161 167.283 219.392 166.881L220.342 166.79C224.573 166.387 228.336 169.425 228.746 173.575L230.144 187.718C230.556 191.867 227.459 195.559 223.226 195.961Z" fill="#804EE6"/>
<path d="M225.144 171.888C225.485 171.819 226.081 172.66 225.807 174.182C225.663 174.92 225.284 175.798 224.531 176.562C223.782 177.333 222.652 177.917 221.42 178.062C220.186 178.217 218.97 177.948 218.031 177.388C217.075 176.817 216.484 176.021 216.194 175.282C215.603 173.723 216.304 172.762 216.636 172.884C217.02 172.961 217.199 173.679 217.889 174.323C218.558 175.002 219.685 175.547 221.073 175.369C222.439 175.216 223.39 174.377 223.967 173.522C224.553 172.691 224.75 171.937 225.144 171.888Z" fill="#322A50"/>
<path d="M325.282 190.731C325.57 190.543 326.496 191.282 326.425 192.978C326.372 193.788 326.051 194.78 325.244 195.636C324.434 196.505 323.182 197.059 321.873 197.119C320.57 197.189 319.312 196.769 318.425 196.116C317.556 195.476 317.049 194.778 316.677 194.215C316.239 193.61 315.969 192.838 316.125 192.279C316.286 191.752 316.702 191.672 316.864 191.74C317.031 191.798 317.021 191.995 317.199 192.216C317.372 192.388 317.629 192.595 318.11 192.906C318.636 193.279 319.212 193.718 319.803 194.01C320.369 194.29 321.029 194.437 321.733 194.408C323.163 194.356 324.052 193.505 324.511 192.579C324.97 191.686 324.923 190.895 325.282 190.731Z" fill="#322A50"/>
<path d="M216.022 167.13C216.04 167.497 211.533 168.058 204.221 168.551C196.909 169.044 186.792 169.442 175.61 169.499C164.428 169.551 154.305 169.251 146.989 168.829C139.673 168.408 135.16 167.89 135.174 167.522C135.188 167.141 139.722 166.981 147.036 166.909C154.364 166.876 164.452 166.832 175.596 166.784C186.739 166.724 196.826 166.672 204.156 166.633C211.468 166.631 216.005 166.747 216.022 167.13Z" fill="#322A50"/>
<path d="M165.754 3.20229C167.272 7.24895 160.098 13.5637 149.728 17.308C139.359 21.0522 129.721 20.8069 128.203 16.7603C126.684 12.7136 133.859 6.39887 144.229 2.65463C154.599 -1.08869 164.236 -0.843445 165.754 3.20229Z" fill="white"/>
<path d="M178.733 95.4622C171.352 98.1268 163.167 94.4185 160.449 87.1799L133.205 14.5881L159.933 4.9375L187.177 77.5293C189.895 84.768 186.114 92.7967 178.733 95.4622Z" fill="white"/>
<path d="M166.998 42.4437C166.513 41.1502 162.91 41.2599 158.951 42.689C154.992 44.1181 152.176 46.3253 152.662 47.6198C152.672 47.6466 152.691 47.6687 152.704 47.6945L152.649 47.7148L166.625 84.9544C168.083 88.8397 172.5 90.8404 176.461 89.4104C180.422 87.9804 182.462 83.6479 181.004 79.7626L167.028 42.523L167.016 42.5276C167.008 42.5 167.008 42.4705 166.998 42.4437Z" fill="#9767F8"/>
<path d="M159.399 4.19223C160.139 6.16439 154.845 9.89021 147.574 12.5161C140.303 15.141 133.809 15.6711 133.069 13.699C132.329 11.7268 137.623 8.00103 144.894 5.37518C152.165 2.74932 158.66 2.22008 159.399 4.19223Z" stroke="#322A50" stroke-miterlimit="10"/>
<path d="M161.828 10.8006C161.929 10.9176 160.801 12.0766 158.639 13.5371C156.479 14.9929 153.265 16.6645 149.536 18.0585C145.797 19.4286 142.265 20.2741 139.627 20.5065C138.964 20.5526 138.362 20.5765 137.82 20.5332C137.558 20.5369 137.288 20.4594 137.058 20.4198C136.787 20.3691 136.728 20.3257 136.544 20.3294C136.222 20.334 135.894 20.3746 135.682 20.311C135.466 20.252 135.39 20.1496 135.409 20.1155C135.43 20.0713 135.533 20.0823 135.699 20.051C135.871 20.0261 136.094 19.9247 136.486 19.8297C136.665 19.7679 137.003 19.8159 137.17 19.8131C137.377 19.8094 137.579 19.8472 137.832 19.8094C138.32 19.7827 138.883 19.6988 139.506 19.5983C142 19.1493 145.412 18.1886 149.07 16.847C152.72 15.4825 155.914 13.9833 158.149 12.758C160.38 11.5308 161.697 10.642 161.828 10.8006Z" fill="#322A50"/>
<path d="M417.2 301.541C417.2 301.541 386.522 293.944 364.785 266.831L392.696 245.4C401.554 257.217 413.466 276.989 417.2 301.541Z" fill="#84C2AD"/>
<path d="M392.696 245.4L364.786 266.831C361.468 262.693 358.356 258.094 355.594 253.006L363.096 239.3L382.382 233.307C382.382 233.307 386.882 237.636 392.696 245.4Z" fill="#FF7664"/>
<path d="M351.603 225.749C346.933 223.504 341.446 222.871 336.046 224.349C324.375 227.544 317.554 239.419 320.815 250.877C324.073 262.325 336.183 269.028 347.853 265.831C352.393 264.587 356.198 262.036 358.955 258.702C363.076 253.743 364.895 247.069 363.394 240.433C363.299 240.054 363.203 239.675 363.096 239.299C361.342 233.138 357.026 228.353 351.603 225.749ZM345.584 257.859C338.407 259.823 330.947 255.691 328.944 248.652C326.941 241.612 331.139 234.287 338.316 232.322C345.492 230.357 352.964 234.487 354.968 241.525C356.971 248.565 352.761 255.894 345.584 257.859Z" fill="#FF7664"/>
<path d="M380.325 240.619C390.885 236.141 395.744 224.113 391.178 213.755C386.612 203.397 374.349 198.631 363.789 203.11C353.229 207.588 348.37 219.616 352.936 229.974C357.502 240.332 369.765 245.098 380.325 240.619Z" fill="#FF7664"/>
<path d="M375.386 233.563C368.805 235.365 361.957 231.58 360.12 225.125C358.283 218.67 362.142 211.952 368.723 210.151C375.304 208.348 382.153 212.134 383.99 218.589C385.827 225.044 381.968 231.761 375.386 233.563Z" fill="#FFE6CC"/>
<path d="M417.199 301.541C417.14 301.597 416.103 300.631 414.359 298.776C412.607 296.927 410.125 294.207 407.091 290.819C401.02 284.045 392.74 274.6 383.657 264.114C374.575 253.628 366.408 244.091 360.52 237.166C357.589 233.697 355.218 230.89 353.575 228.946C351.951 226.991 351.049 225.917 351.121 225.849C351.18 225.792 352.217 226.759 353.962 228.614C355.714 230.462 358.196 233.182 361.23 236.57C367.301 243.345 375.582 252.789 384.663 263.275C393.745 273.761 401.913 283.298 407.799 290.223C410.73 293.692 413.103 296.5 414.745 298.444C416.369 300.4 417.272 301.474 417.199 301.541Z" fill="#322A50"/>
<path d="M383.085 257.839C383.624 259.732 385.789 260.793 387.923 260.21C390.056 259.625 391.349 257.617 390.81 255.724C390.271 253.831 388.106 252.77 385.972 253.354C383.839 253.938 382.546 255.946 383.085 257.839Z" stroke="#322A50" stroke-miterlimit="10"/>
<path d="M312.894 91.1283C311.923 94.4413 307.5 103.654 301.664 114.158C289.425 136.157 270.942 163.805 264.904 154.705C259.474 146.526 273.523 122.606 285.363 105.125C292.978 93.8739 299.672 85.2896 299.672 85.2896C299.672 85.2896 315.897 80.8582 312.894 91.1283Z" fill="#F66F00"/>
<path d="M312.892 91.1283C311.921 94.4412 307.498 103.654 301.663 114.158C294.921 113.393 289 110.055 285.361 105.125C292.977 93.8739 299.67 85.2896 299.67 85.2896C299.67 85.2896 315.895 80.8581 312.892 91.1283Z" fill="white"/>
<path d="M327.462 43.8358C327.462 43.8358 326.936 50.9632 306.143 62.8093C285.349 74.6555 296.876 97.1806 314.669 95.6043C332.461 94.0272 340.227 64.791 327.462 43.8358Z" fill="#322A50"/>
<path d="M326.046 50.5453C326.184 50.5965 325.397 53.2296 323.284 57.1528C322.22 59.1057 320.785 61.3627 318.861 63.6351C316.954 65.9136 314.422 68.1133 311.594 70.0174C308.786 71.9494 306.107 73.6968 304.062 75.7003C301.999 77.6744 300.575 79.8509 299.912 81.8583C299.224 83.8699 299.229 85.6316 299.383 86.8063C299.534 87.9927 299.8 88.6259 299.695 88.6682C299.635 88.7001 299.2 88.1285 298.879 86.9045C298.556 85.6957 298.396 83.8004 299.018 81.5974C299.616 79.3883 301.075 76.987 303.2 74.8627C305.309 72.7052 308.062 70.872 310.834 68.9622C313.634 67.073 316.03 65.031 317.937 62.863C319.846 60.7088 321.327 58.5612 322.473 56.7029C324.753 52.9682 325.849 50.4619 326.046 50.5453Z" fill="#231D38"/>
<path d="M324.946 63.8071C325.27 63.9124 323.314 69.5093 318.989 75.3738C317.907 76.8242 316.861 78.1993 315.648 79.3162C314.441 80.4544 313.031 81.0908 311.949 81.5336C310.845 81.9839 309.981 82.3336 309.398 82.624C308.814 82.9063 308.49 83.0845 308.427 83.0127C308.37 82.9502 308.589 82.6348 309.119 82.2015C309.643 81.7625 310.502 81.261 311.546 80.7097C312.596 80.1501 313.772 79.5206 314.804 78.4604C315.85 77.419 316.86 76.0429 317.919 74.6206C322.139 68.9043 324.592 63.6555 324.946 63.8071Z" fill="#231D38"/>
<path d="M328.662 56.4618C328.985 56.3804 330.095 60.9964 329.232 66.7096C328.409 72.4278 326.009 76.5617 325.723 76.3968C325.36 76.2426 327.142 72.0233 327.927 66.5303C328.761 61.044 328.269 56.5123 328.662 56.4618Z" fill="#231D38"/>
<path d="M299.942 117.245C299.95 117.402 298.841 117.635 297.038 117.487C295.241 117.344 292.778 116.75 290.322 115.525C287.865 114.305 285.913 112.727 284.732 111.393C283.537 110.062 283.075 109.047 283.211 108.96C283.376 108.846 284.093 109.643 285.39 110.74C286.677 111.847 288.598 113.213 290.922 114.37C293.247 115.528 295.51 116.22 297.183 116.584C298.856 116.95 299.94 117.046 299.942 117.245Z" fill="#231D38"/>
<path d="M120.452 272.211L117.569 289.97L81.748 300.101L58.5479 283.921L61.7129 266.135L100.728 260.52L120.452 272.211Z" fill="#FFA6F1" stroke="#CE8BC3"/>
<mask id="path-43-inside-1_3811_496" fill="white">
<path d="M83.9459 279.48C83.8778 279.577 82.5618 278.838 80.4682 277.602C78.3753 276.358 75.4931 274.644 72.3085 272.75C69.116 270.869 66.2259 269.167 64.128 267.931C62.0369 266.69 60.7595 265.893 60.8184 265.791C60.8748 265.694 62.2588 266.311 64.4315 267.424C66.6042 268.537 69.5612 270.154 72.7605 272.046C75.9585 273.94 78.7917 275.751 80.8031 277.114C82.8157 278.477 84.0115 279.387 83.9459 279.48Z"/>
</mask>
<path d="M83.9459 279.48C83.8778 279.577 82.5618 278.838 80.4682 277.602C78.3753 276.358 75.4931 274.644 72.3085 272.75C69.116 270.869 66.2259 269.167 64.128 267.931C62.0369 266.69 60.7595 265.893 60.8184 265.791C60.8748 265.694 62.2588 266.311 64.4315 267.424C66.6042 268.537 69.5612 270.154 72.7605 272.046C75.9585 273.94 78.7917 275.751 80.8031 277.114C82.8157 278.477 84.0115 279.387 83.9459 279.48Z" fill="#322A50"/>
<path d="M83.9459 279.48L83.1287 278.904L83.1285 278.904L83.9459 279.48ZM80.4682 277.602L79.9571 278.462L79.9599 278.464L80.4682 277.602ZM72.3085 272.75L72.8196 271.89L72.8161 271.888L72.3085 272.75ZM64.128 267.931L63.6177 268.791L63.6202 268.792L64.128 267.931ZM60.8184 265.791L61.6842 266.292L61.6844 266.291L60.8184 265.791ZM64.4315 267.424L63.9755 268.314L63.9756 268.314L64.4315 267.424ZM72.7605 272.046L73.27 271.186L73.2696 271.186L72.7605 272.046ZM80.8031 277.114L80.2419 277.942L80.2423 277.942L80.8031 277.114ZM83.9459 279.48L83.1285 278.904C83.4393 278.463 83.9148 278.488 83.9478 278.489C84.0577 278.492 84.1328 278.515 84.1385 278.517C84.1636 278.524 84.1518 278.523 84.0804 278.49C83.9502 278.431 83.7408 278.324 83.4457 278.163C82.8626 277.845 82.0228 277.359 80.9766 276.741L80.4682 277.602L79.9599 278.464C81.0072 279.082 81.8723 279.583 82.4876 279.919C82.7917 280.085 83.0548 280.221 83.256 280.312C83.3503 280.355 83.4688 280.405 83.5871 280.439C83.6394 280.454 83.7518 280.484 83.8894 280.488C83.9502 280.49 84.444 280.509 84.7632 280.056L83.9459 279.48ZM80.4682 277.602L80.9794 276.743C78.8864 275.498 76.0042 273.784 72.8196 271.89L72.3085 272.75L71.7974 273.61C74.9819 275.503 77.8641 277.217 79.9571 278.462L80.4682 277.602ZM72.3085 272.75L72.8161 271.888C69.6235 270.008 66.7335 268.305 64.6358 267.069L64.128 267.931L63.6202 268.792C65.7182 270.029 68.6086 271.731 71.801 273.612L72.3085 272.75ZM64.128 267.931L64.6382 267.07C63.5933 266.451 62.7639 265.949 62.206 265.592C61.9236 265.411 61.7303 265.28 61.6176 265.195C61.5554 265.148 61.5506 265.14 61.571 265.161C61.5756 265.165 61.6357 265.224 61.6934 265.326C61.7145 265.364 61.9681 265.8 61.6842 266.292L60.8184 265.791L59.9525 265.291C59.6612 265.795 59.918 266.25 59.9523 266.311C60.0232 266.436 60.1069 266.524 60.1447 266.563C60.232 266.651 60.3336 266.732 60.4156 266.793C60.5912 266.925 60.8369 267.09 61.1278 267.276C61.7167 267.653 62.5716 268.17 63.6177 268.791L64.128 267.931ZM60.8184 265.791L61.6844 266.291C61.4039 266.777 60.9012 266.78 60.8863 266.78C60.7795 266.785 60.7054 266.769 60.7007 266.768C60.677 266.763 60.6905 266.764 60.7639 266.79C60.898 266.838 61.1157 266.928 61.4208 267.065C62.0239 267.337 62.8965 267.761 63.9755 268.314L64.4315 267.424L64.8876 266.534C63.7939 265.974 62.8881 265.533 62.2419 265.242C61.9223 265.098 61.6477 264.982 61.4385 264.907C61.3402 264.872 61.2194 264.832 61.1007 264.808C61.0485 264.797 60.9367 264.777 60.8024 264.782C60.76 264.784 60.2399 264.793 59.9523 265.291L60.8184 265.791ZM64.4315 267.424L63.9756 268.314C66.1289 269.417 69.0681 271.024 72.2514 272.907L72.7605 272.046L73.2696 271.186C70.0544 269.284 67.0796 267.657 64.8874 266.534L64.4315 267.424ZM72.7605 272.046L72.251 272.907C75.4329 274.791 78.2487 276.591 80.2419 277.942L80.8031 277.114L81.3642 276.287C79.3346 274.911 76.4841 273.089 73.27 271.186L72.7605 272.046ZM80.8031 277.114L80.2423 277.942C81.2418 278.619 82.0282 279.177 82.5513 279.572C82.8161 279.772 82.9966 279.917 83.1003 280.01C83.1576 280.061 83.1621 280.07 83.1438 280.048C83.14 280.043 83.0859 279.98 83.0372 279.876C83.0242 279.848 82.7933 279.379 83.1287 278.904L83.9459 279.48L84.7631 280.057C85.1067 279.569 84.8741 279.083 84.8498 279.031C84.7898 278.902 84.7149 278.809 84.6806 278.768C84.6017 278.673 84.5078 278.585 84.4307 278.516C84.2658 278.369 84.0339 278.185 83.7564 277.975C83.1948 277.551 82.377 276.973 81.3638 276.286L80.8031 277.114Z" fill="#CE8BC3" mask="url(#path-43-inside-1_3811_496)"/>
<mask id="path-45-inside-2_3811_496" fill="white">
<path d="M121 271.955C121.004 272.019 120.481 272.114 119.54 272.312C118.593 272.512 117.231 272.799 115.549 273.154C112.173 273.874 107.519 274.866 102.375 275.963C97.2279 277.056 92.5624 278.024 89.1779 278.694C85.7935 279.362 83.6926 279.745 83.6643 279.634C83.6361 279.523 85.6899 278.939 89.0418 278.124C92.3931 277.308 97.0384 276.248 102.189 275.156C107.339 274.063 112.022 273.152 115.43 272.58C117.134 272.292 118.522 272.094 119.487 271.994C120.454 271.893 120.998 271.905 121 271.955Z"/>
</mask>
<path d="M121 271.955C121.004 272.019 120.481 272.114 119.54 272.312C118.593 272.512 117.231 272.799 115.549 273.154C112.173 273.874 107.519 274.866 102.375 275.963C97.2279 277.056 92.5624 278.024 89.1779 278.694C85.7935 279.362 83.6926 279.745 83.6643 279.634C83.6361 279.523 85.6899 278.939 89.0418 278.124C92.3931 277.308 97.0384 276.248 102.189 275.156C107.339 274.063 112.022 273.152 115.43 272.58C117.134 272.292 118.522 272.094 119.487 271.994C120.454 271.893 120.998 271.905 121 271.955Z" fill="#322A50"/>
<path d="M121 271.955L120.001 271.992L120.001 272.007L120.002 272.021L121 271.955ZM119.54 272.312L119.335 271.334L119.334 271.334L119.54 272.312ZM115.549 273.154L115.342 272.176L115.34 272.176L115.549 273.154ZM102.375 275.963L102.582 276.942L102.583 276.941L102.375 275.963ZM89.1779 278.694L89.3715 279.675L89.3722 279.675L89.1779 278.694ZM83.6643 279.634L84.6337 279.388L84.6334 279.387L83.6643 279.634ZM89.0418 278.124L89.2779 279.096L89.2784 279.096L89.0418 278.124ZM115.43 272.58L115.596 273.566L115.597 273.566L115.43 272.58ZM119.487 271.994L119.59 272.989L119.591 272.989L119.487 271.994ZM121 271.955L120.002 272.021C119.978 271.658 120.153 271.408 120.25 271.3C120.345 271.193 120.44 271.136 120.475 271.116C120.518 271.09 120.552 271.076 120.565 271.07C120.574 271.067 120.58 271.065 120.583 271.063C120.587 271.062 120.589 271.061 120.59 271.061C120.59 271.061 120.586 271.063 120.576 271.065C120.566 271.068 120.553 271.072 120.537 271.076C120.502 271.085 120.458 271.096 120.402 271.108C120.165 271.163 119.821 271.231 119.335 271.334L119.54 272.312L119.746 273.291C120.2 273.195 120.588 273.117 120.847 273.058C120.973 273.029 121.109 272.996 121.222 272.958C121.271 272.942 121.373 272.907 121.479 272.845C121.53 272.816 121.636 272.749 121.74 272.634C121.844 272.518 122.023 272.26 121.998 271.888L121 271.955ZM119.54 272.312L119.334 271.334C118.387 271.533 117.024 271.821 115.342 272.176L115.549 273.154L115.755 274.133C117.437 273.778 118.799 273.49 119.747 273.291L119.54 272.312ZM115.549 273.154L115.34 272.176C111.964 272.896 107.31 273.888 102.166 274.985L102.375 275.963L102.583 276.941C107.727 275.844 112.382 274.852 115.757 274.132L115.549 273.154ZM102.375 275.963L102.167 274.985C97.0218 276.077 92.3615 277.045 88.9837 277.713L89.1779 278.694L89.3722 279.675C92.7632 279.004 97.4339 278.034 102.582 276.942L102.375 275.963ZM89.1779 278.694L88.9844 277.713C87.2925 278.047 85.931 278.308 84.9915 278.471C84.519 278.553 84.1689 278.607 83.9419 278.635C83.8864 278.642 83.8423 278.646 83.8083 278.649C83.7914 278.65 83.7784 278.651 83.7686 278.652C83.7638 278.652 83.7602 278.652 83.7576 278.653C83.7549 278.653 83.7537 278.653 83.7538 278.653C83.7538 278.653 83.7556 278.653 83.7591 278.653C83.7624 278.653 83.7683 278.653 83.7762 278.653C83.789 278.654 83.8225 278.656 83.8682 278.664C83.9029 278.67 84.0072 278.69 84.1299 278.753C84.2413 278.81 84.5331 278.991 84.6337 279.388L83.6643 279.634L82.695 279.879C82.7974 280.283 83.0949 280.47 83.2162 280.532C83.3487 280.6 83.4668 280.624 83.5193 280.633C83.633 280.653 83.7351 280.653 83.7873 280.652C83.9075 280.65 84.0468 280.637 84.1818 280.62C84.4624 280.587 84.8543 280.525 85.3336 280.441C86.2977 280.274 87.679 280.009 89.3715 279.675L89.1779 278.694ZM83.6643 279.634L84.6334 279.387C84.7371 279.793 84.5574 280.098 84.4785 280.207C84.3944 280.324 84.306 280.391 84.2769 280.412C84.2383 280.44 84.208 280.458 84.1962 280.464C84.1889 280.468 84.1834 280.471 84.1801 280.473C84.1768 280.475 84.1749 280.475 84.1746 280.476C84.1744 280.476 84.1782 280.474 84.187 280.47C84.1956 280.467 84.2074 280.462 84.2228 280.456C84.254 280.444 84.295 280.429 84.3472 280.411C84.5606 280.337 84.8976 280.235 85.3566 280.105C86.2692 279.848 87.6076 279.502 89.2779 279.096L89.0418 278.124L88.8057 277.153C87.1241 277.561 85.7597 277.914 84.8144 278.18C84.3446 278.313 83.9639 278.428 83.6954 278.52C83.5664 278.565 83.4347 278.614 83.325 278.665C83.2778 278.687 83.1843 278.733 83.0896 278.803C83.0462 278.835 82.9475 278.911 82.8571 279.036C82.7719 279.154 82.5899 279.467 82.6953 279.88L83.6643 279.634ZM89.0418 278.124L89.2784 279.096C92.6185 278.283 97.2539 277.225 102.396 276.134L102.189 275.156L101.981 274.177C96.8229 275.272 92.1678 276.334 88.8052 277.153L89.0418 278.124ZM102.189 275.156L102.396 276.134C107.539 275.043 112.206 274.135 115.596 273.566L115.43 272.58L115.265 271.594C111.837 272.169 107.14 273.083 101.981 274.177L102.189 275.156ZM115.43 272.58L115.597 273.566C117.291 273.279 118.655 273.085 119.59 272.989L119.487 271.994L119.384 270.999C118.389 271.102 116.977 271.304 115.264 271.594L115.43 272.58ZM119.487 271.994L119.591 272.989C120.054 272.94 120.4 272.921 120.619 272.918C120.732 272.916 120.788 272.92 120.801 272.921C120.815 272.922 120.769 272.92 120.698 272.899C120.669 272.891 120.567 272.861 120.452 272.787C120.365 272.731 120.019 272.486 120.001 271.992L121 271.955L121.999 271.918C121.981 271.418 121.63 271.166 121.535 271.105C121.41 271.025 121.296 270.99 121.251 270.977C121.146 270.947 121.049 270.936 120.997 270.931C120.876 270.919 120.736 270.916 120.592 270.918C120.296 270.922 119.887 270.947 119.383 271L119.487 271.994Z" fill="#CE8BC3" mask="url(#path-45-inside-2_3811_496)"/>
<mask id="path-47-inside-3_3811_496" fill="white">
<path d="M83.9472 279.48C84.2477 279.496 83.9963 284.275 83.3542 290.119C82.7226 295.964 81.9444 300.689 81.6562 300.647C81.5525 300.621 81.6249 299.448 81.7727 297.522C81.926 295.603 82.1792 292.954 82.4975 290.033C82.8152 287.111 83.1371 284.47 83.3984 282.561C83.6682 280.646 83.843 279.487 83.9472 279.48Z"/>
</mask>
<path d="M83.9472 279.48C84.2477 279.496 83.9963 284.275 83.3542 290.119C82.7226 295.964 81.9444 300.689 81.6562 300.647C81.5525 300.621 81.6249 299.448 81.7727 297.522C81.926 295.603 82.1792 292.954 82.4975 290.033C82.8152 287.111 83.1371 284.47 83.3984 282.561C83.6682 280.646 83.843 279.487 83.9472 279.48Z" fill="#322A50"/>
<path d="M83.9472 279.48L83.9981 278.482L83.9416 278.479L83.8852 278.482L83.9472 279.48ZM83.3542 290.119L82.3602 290.009L82.36 290.011L83.3542 290.119ZM81.6562 300.647L81.4188 301.618L81.4653 301.63L81.5126 301.636L81.6562 300.647ZM81.7727 297.522L80.7758 297.443L80.7756 297.446L81.7727 297.522ZM82.4975 290.033L83.4916 290.141L83.4917 290.141L82.4975 290.033ZM83.3984 282.561L82.4081 282.422L82.4076 282.426L83.3984 282.561ZM83.9472 279.48L83.8963 280.479C83.5428 280.461 83.3172 280.266 83.2156 280.148C83.1197 280.036 83.0779 279.934 83.0652 279.901C83.0379 279.831 83.0375 279.796 83.0445 279.845C83.0559 279.924 83.0676 280.084 83.0717 280.343C83.0798 280.85 83.058 281.604 83.0057 282.559C82.9013 284.464 82.6798 287.101 82.3602 290.009L83.3542 290.119L84.3482 290.228C84.6707 287.293 84.8959 284.619 85.0027 282.669C85.0559 281.697 85.0807 280.888 85.0715 280.311C85.067 280.029 85.054 279.768 85.0242 279.56C85.0105 279.465 84.9854 279.32 84.929 279.176C84.9018 279.106 84.8444 278.974 84.7319 278.844C84.6137 278.706 84.3704 278.501 83.9981 278.482L83.9472 279.48ZM83.3542 290.119L82.36 290.011C82.0455 292.921 81.6953 295.545 81.3893 297.43C81.2358 298.376 81.096 299.119 80.9804 299.614C80.9212 299.868 80.8757 300.024 80.8471 300.102C80.8298 300.149 80.8363 300.118 80.8746 300.059C80.8921 300.032 80.9512 299.942 81.063 299.853C81.1781 299.762 81.4396 299.605 81.7997 299.657L81.6562 300.647L81.5126 301.636C81.8908 301.691 82.1712 301.527 82.3062 301.42C82.4379 301.316 82.5178 301.201 82.557 301.14C82.6386 301.013 82.692 300.88 82.7248 300.79C82.7964 300.595 82.8639 300.343 82.9281 300.069C83.0592 299.507 83.2075 298.712 83.3635 297.751C83.6766 295.822 84.0312 293.161 84.3484 290.226L83.3542 290.119ZM81.6562 300.647L81.8935 299.675C82.3335 299.783 82.506 300.126 82.5366 300.188C82.5868 300.291 82.6028 300.373 82.6059 300.388C82.6142 300.429 82.6113 300.438 82.6091 300.381C82.6053 300.28 82.6076 300.105 82.6192 299.841C82.6419 299.323 82.6957 298.564 82.7697 297.599L81.7727 297.522L80.7756 297.446C80.7018 298.407 80.6455 299.198 80.6211 299.753C80.6091 300.027 80.6035 300.27 80.6106 300.457C80.6139 300.543 80.6212 300.662 80.6448 300.78C80.6555 300.834 80.6805 300.946 80.741 301.069C80.7818 301.152 80.9659 301.507 81.4188 301.618L81.6562 300.647ZM81.7727 297.522L82.7695 297.602C82.9218 295.695 83.1741 293.056 83.4916 290.141L82.4975 290.033L81.5034 289.924C81.1844 292.853 80.9301 295.511 80.7758 297.443L81.7727 297.522ZM82.4975 290.033L83.4917 290.141C83.8086 287.226 84.1294 284.594 84.3891 282.697L83.3984 282.561L82.4076 282.426C82.1448 284.345 81.8217 286.996 81.5034 289.925L82.4975 290.033ZM83.3984 282.561L84.3886 282.701C84.5239 281.74 84.633 280.987 84.7206 280.473C84.7651 280.213 84.7998 280.04 84.8249 279.94C84.8391 279.884 84.8407 279.891 84.8255 279.926C84.8199 279.94 84.7892 280.013 84.7233 280.1C84.6876 280.147 84.4576 280.451 84.0092 280.479L83.9472 279.48L83.8852 278.482C83.4238 278.511 83.1802 278.825 83.1304 278.89C83.0503 278.996 83.0049 279.097 82.984 279.146C82.9383 279.254 82.907 279.367 82.8859 279.45C82.8405 279.63 82.7951 279.867 82.7491 280.137C82.6558 280.684 82.5426 281.467 82.4081 282.422L83.3984 282.561Z" fill="#CE8BC3" mask="url(#path-47-inside-3_3811_496)"/>
<path d="M102.709 267.713C103.568 268.242 103.356 269.522 102.307 269.729L89.4434 272.271C87.7846 272.598 86.0592 272.318 84.6064 271.487L79.9561 268.827L99.0039 265.432L102.709 267.713Z" fill="white" stroke="#CE8BC3"/>
<path d="M70.8066 277.351C72.8954 277.351 74.7598 279.491 74.7598 282.366C74.7597 285.241 72.8954 287.382 70.8066 287.382C68.718 287.382 66.8536 285.241 66.8535 282.366C66.8535 279.491 68.718 277.351 70.8066 277.351Z" fill="#322A50" stroke="#CE8BC3"/>
<mask id="path-51-inside-4_3811_496" fill="white">
<path d="M100.06 265.545C100.104 265.773 95.7008 266.749 90.2694 267.93C84.8367 269.106 80.4239 270.043 80.362 269.818C80.3012 269.601 84.6294 268.303 90.0793 267.123C95.5291 265.939 100.017 265.324 100.06 265.545Z"/>
</mask>
<path d="M100.06 265.545C100.104 265.773 95.7008 266.749 90.2694 267.93C84.8367 269.106 80.4239 270.043 80.362 269.818C80.3012 269.601 84.6294 268.303 90.0793 267.123C95.5291 265.939 100.017 265.324 100.06 265.545Z" fill="#322A50"/>
<path d="M100.06 265.545L99.0776 265.733L99.0783 265.737L100.06 265.545ZM90.2694 267.93L90.4809 268.907L90.4818 268.907L90.2694 267.93ZM80.362 269.818L81.3261 269.552L81.3249 269.548L80.362 269.818ZM90.0793 267.123L90.2909 268.101L90.2916 268.101L90.0793 267.123ZM100.06 265.545L99.0783 265.737C98.9955 265.314 99.2064 265.019 99.2841 264.926C99.3709 264.823 99.4558 264.768 99.4763 264.755C99.5263 264.723 99.549 264.717 99.5021 264.736C99.4236 264.768 99.2732 264.818 99.0348 264.887C98.5682 265.022 97.872 265.198 96.9876 265.407C95.224 265.825 92.7745 266.362 90.057 266.953L90.2694 267.93L90.4818 268.907C93.1956 268.317 95.6637 267.776 97.4485 267.353C98.3384 267.143 99.0742 266.958 99.5904 266.808C99.8434 266.735 100.072 266.663 100.247 266.592C100.327 266.56 100.445 266.51 100.557 266.438C100.609 266.404 100.717 266.331 100.818 266.21C100.91 266.1 101.127 265.789 101.041 265.352L100.06 265.545ZM90.2694 267.93L90.0578 266.953C87.3396 267.541 84.8875 268.067 83.1081 268.418C82.2159 268.594 81.5086 268.723 81.0267 268.794C80.7807 268.83 80.622 268.847 80.5361 268.851C80.4854 268.853 80.5063 268.848 80.5629 268.856C80.5863 268.86 80.6825 268.873 80.8009 268.928C80.9034 268.976 81.214 269.145 81.3261 269.552L80.362 269.818L79.3978 270.083C79.5138 270.504 79.8368 270.686 79.9599 270.743C80.099 270.807 80.2241 270.828 80.2846 270.837C80.4152 270.855 80.5427 270.852 80.6291 270.848C80.8177 270.84 81.0563 270.811 81.3176 270.772C81.8503 270.694 82.5974 270.557 83.4952 270.38C85.2958 270.025 87.7665 269.495 90.4809 268.907L90.2694 267.93ZM80.362 269.818L81.3249 269.548C81.4457 269.979 81.2408 270.298 81.1716 270.391C81.0912 270.499 81.01 270.558 80.9911 270.572C80.944 270.607 80.9225 270.613 80.9677 270.591C81.0433 270.555 81.1898 270.496 81.4217 270.414C81.8756 270.254 82.5585 270.041 83.4276 269.794C85.1609 269.301 87.5846 268.687 90.2909 268.101L90.0793 267.123L89.8676 266.146C87.1241 266.74 84.6588 267.364 82.8808 267.87C81.9941 268.122 81.2658 268.348 80.7549 268.528C80.5044 268.617 80.2801 268.704 80.1094 268.785C80.0314 268.822 79.9178 268.879 79.8113 268.957C79.7628 268.993 79.66 269.072 79.5664 269.198C79.4841 269.309 79.2744 269.643 79.399 270.088L80.362 269.818ZM90.0793 267.123L90.2916 268.101C92.9978 267.513 95.4614 267.067 97.2472 266.796C98.1424 266.66 98.8546 266.571 99.3366 266.528C99.5827 266.506 99.7424 266.499 99.828 266.501C99.8786 266.501 99.8588 266.505 99.8044 266.494C99.7825 266.489 99.688 266.47 99.5736 266.41C99.48 266.36 99.161 266.167 99.0776 265.733L100.06 265.545L101.042 265.356C100.956 264.908 100.625 264.704 100.512 264.643C100.378 264.572 100.255 264.544 100.197 264.533C100.069 264.507 99.9432 264.502 99.8564 264.501C99.6672 264.498 99.4267 264.512 99.1609 264.536C98.6192 264.584 97.8607 264.68 96.9474 264.819C95.1159 265.096 92.6105 265.55 89.8669 266.146L90.0793 267.123Z" fill="#CE8BC3" mask="url(#path-51-inside-4_3811_496)"/>
<path d="M93.5849 270.234C94.498 270.234 95.2382 269.826 95.2382 269.323C95.2382 268.82 94.498 268.412 93.5849 268.412C92.6718 268.412 91.9316 268.82 91.9316 269.323C91.9316 269.826 92.6718 270.234 93.5849 270.234Z" stroke="#CE8BC3" stroke-miterlimit="10"/>
<path d="M115.682 75.4475C116.779 75.4415 117.33 75.904 117.335 76.8352C117.339 77.5801 117.135 78.0985 116.723 78.3905C116.311 78.6824 115.66 78.8309 114.77 78.8357L114.119 78.8393L114.004 80.485C113.947 81.4372 113.744 82.0798 113.394 82.4128C113.065 82.7457 112.517 82.9142 111.752 82.9184C110.655 82.9244 110.103 82.255 110.095 80.91C110.094 80.6824 110.103 80.5064 110.123 80.3822L110.27 78.8605C107.269 78.8769 104.993 78.8791 103.441 78.8669C102.986 78.8694 102.581 78.6647 102.227 78.2528C101.873 77.8409 101.694 77.3039 101.69 76.6417C101.688 76.2486 101.758 75.8344 101.901 75.399C102.796 72.7455 104.144 69.7273 105.946 66.3445C106.335 65.6181 106.725 65.109 107.117 64.8172C107.529 64.5045 108.159 64.3459 109.007 64.3412C109.463 64.3387 109.805 64.4403 110.033 64.646C110.283 64.8515 110.409 65.1198 110.411 65.4509C110.413 65.8027 110.311 66.155 110.106 66.5079C108.1 70.2229 106.689 73.2207 105.874 75.5014L110.654 75.4751C110.891 73.5494 111.222 71.7163 111.647 69.9758C111.809 69.3334 112.075 68.8457 112.446 68.5126C112.816 68.1588 113.332 67.98 113.994 67.9764C115.05 67.9706 115.58 68.4229 115.585 69.3334C115.587 69.6024 115.567 69.8094 115.527 69.9545C115.164 71.7153 114.844 73.5484 114.565 75.4536L115.682 75.4475Z" fill="white"/>
<path d="M421.845 180.215C422.428 179.96 422.96 180.003 423.439 180.345C423.935 180.65 424.312 181.125 424.57 181.769C424.839 182.441 424.913 183.094 424.794 183.729C424.701 184.353 424.385 184.769 423.845 184.977C422.873 185.352 421.95 185.692 421.076 185.997C420.228 186.293 419.475 186.552 418.817 186.775C416.291 187.624 414.515 188.246 413.489 188.641C413.138 188.776 412.674 189.094 412.096 189.596C411.339 190.197 410.799 190.56 410.475 190.685C409.045 191.236 407.964 190.598 407.233 188.772C406.739 187.537 406.625 185.969 406.892 184.069C407.149 182.141 407.696 180.164 408.536 178.136C409.375 176.108 410.365 174.301 411.506 172.715L405.862 175.075C405.279 175.33 404.739 175.306 404.243 175.001C403.764 174.659 403.4 174.179 403.153 173.561C402.895 172.917 402.818 172.296 402.921 171.698C403.041 171.063 403.37 170.641 403.91 170.434C405.098 169.976 406.606 169.504 408.436 169.016C408.744 168.928 409.4 168.738 410.404 168.444C411.434 168.14 412.368 167.827 413.205 167.504C413.475 167.4 413.945 167.096 414.615 166.59C414.739 166.511 414.968 166.345 415.303 166.092C415.665 165.829 415.981 165.645 416.251 165.541C416.683 165.375 417.109 165.428 417.529 165.699C417.977 165.961 418.356 166.481 418.668 167.26C419.012 168.119 419.07 168.887 418.843 169.564C418.642 170.23 418.204 170.925 417.528 171.65C416.756 172.444 415.945 173.609 415.095 175.144C414.246 176.68 413.513 178.311 412.895 180.036C412.266 181.735 411.908 183.252 411.82 184.588L421.845 180.215Z" fill="white"/>
<path d="M396.53 23.7566C396.451 24.226 396.241 24.6636 395.9 25.0696L381.598 42.1871C381.1 42.7774 380.524 43.0196 379.87 42.9139C379.442 42.8445 379.091 42.6201 378.819 42.2408C378.547 41.8614 378.454 41.4167 378.54 40.9065C378.619 40.4372 378.87 39.9433 379.293 39.4247L388.715 28.1206C387.564 28.3536 386.443 28.403 385.354 28.2687C384.757 29.4507 383.935 30.3449 382.889 30.9513C381.866 31.5405 380.794 31.7443 379.67 31.5626C378.649 31.3974 377.812 31.0105 377.158 30.4018C376.509 29.7727 376.069 29.0203 375.838 28.1446C375.608 27.2689 375.572 26.3617 375.729 25.423C375.949 24.117 376.388 23.0037 377.046 22.0831C377.728 21.1454 378.547 20.4602 379.5 20.0276C380.454 19.595 381.463 19.4646 382.525 19.6364C383.832 19.8478 384.807 20.4771 385.449 21.5242C386.095 22.5509 386.369 23.7272 386.272 25.053C387.655 25.1927 388.967 25.0592 390.211 24.6525C391.478 24.2286 392.487 23.5952 393.237 22.7524C393.939 21.9437 394.628 21.5939 395.302 21.7029C395.731 21.7723 396.059 22.0035 396.287 22.3967C396.535 22.7932 396.616 23.2465 396.53 23.7566ZM380.44 28.8573C380.869 28.9267 381.288 28.8058 381.697 28.4947C382.106 28.1835 382.442 27.6824 382.705 26.9913C382.324 26.5105 382.061 25.9544 381.915 25.323C381.773 24.6711 381.751 24.0493 381.851 23.4576C381.906 23.1311 381.995 22.7891 382.118 22.4317C382.08 22.4047 382 22.3813 381.878 22.3615C381.265 22.2624 380.701 22.4961 380.186 23.0626C379.695 23.612 379.347 24.4989 379.141 25.7232C378.983 26.6619 379.027 27.4026 379.271 27.9452C379.539 28.4707 379.929 28.7747 380.44 28.8573ZM395.625 33.074C396.687 33.2458 397.543 33.6463 398.193 34.2754C398.846 34.884 399.287 35.6262 399.518 36.5019C399.748 37.3777 399.785 38.2849 399.627 39.2235C399.411 40.5091 398.962 41.6208 398.279 42.5585C397.618 43.4995 396.799 44.1846 395.825 44.614C394.871 45.0466 393.863 45.177 392.801 45.0052C391.739 44.8334 390.881 44.4431 390.228 43.8345C389.599 43.2087 389.169 42.4579 388.938 41.5822C388.708 40.7065 388.672 39.7993 388.829 38.8606C389.049 37.5546 389.49 36.4311 390.151 35.4901C390.813 34.5491 391.619 33.8725 392.57 33.4603C393.524 33.0277 394.542 32.8989 395.625 33.074ZM393.54 42.295C394.112 42.3875 394.645 42.1488 395.139 41.579C395.654 41.0125 396.013 40.1272 396.215 38.9233C396.373 37.9846 396.318 37.2525 396.049 36.727C395.805 36.1844 395.448 35.8751 394.978 35.7991C394.365 35.7 393.801 35.9337 393.286 36.5002C392.795 37.0496 392.447 37.9365 392.241 39.1609C392.076 40.1404 392.118 40.8912 392.366 41.4134C392.638 41.9185 393.029 42.2124 393.54 42.295Z" fill="white"/>
<path d="M13.255 260.929C12.8183 261.029 12.4029 260.986 12.0089 260.8C11.6149 260.615 11.3516 260.243 11.2191 259.685L11.177 259.391C10.9427 257.552 10.7267 255.635 10.529 253.64C10.3447 251.623 10.2244 250.07 10.1681 248.98L8.26104 250.023L7.95904 250.147C7.62715 250.223 7.33408 250.152 7.07982 249.934C6.82556 249.716 6.65909 249.442 6.58041 249.111L6.55071 248.869C6.50697 248.53 6.54759 248.236 6.67258 247.987C6.79757 247.738 7.07977 247.453 7.51918 247.132C7.97606 246.807 8.67335 246.409 9.61105 245.937L10.6494 245.424C11.0305 245.245 11.352 245.126 11.614 245.066C12.1206 244.95 12.5272 244.995 12.8339 245.201C13.158 245.402 13.376 245.738 13.4878 246.209C13.5375 246.418 13.5651 246.651 13.5707 246.907C13.6142 248.331 14.0007 252.322 14.7302 258.883C14.8472 259.995 14.3554 260.678 13.255 260.929ZM31.0986 247.202C31.5004 247.11 31.8351 247.163 32.1026 247.359C32.3702 247.555 32.5454 247.827 32.6283 248.176C32.7318 248.612 32.6785 249.047 32.4685 249.481C32.2719 249.893 31.929 250.155 31.4399 250.267L27.1428 251.249L27.703 256.166C27.7408 256.635 27.6227 257.03 27.3488 257.35C27.0924 257.666 26.7545 257.872 26.3353 257.968C25.9335 258.059 25.5727 258.013 25.2527 257.829C24.9501 257.641 24.7713 257.314 24.716 256.849L24.1558 251.932L19.9111 252.902C19.5093 252.993 19.1746 252.941 18.907 252.745C18.6353 252.532 18.458 252.25 18.3752 251.902C18.2717 251.466 18.3183 251.042 18.5149 250.629C18.7291 250.213 19.0807 249.949 19.5698 249.837L23.8407 248.861L23.2805 243.944C23.2293 243.496 23.332 243.114 23.5885 242.798C23.8449 242.482 24.174 242.278 24.5758 242.186C24.9775 242.095 25.3472 242.139 25.6846 242.319C26.0221 242.499 26.2164 242.813 26.2675 243.261L26.8277 248.178L31.0986 247.202ZM47.6787 249.837C48.0455 249.753 48.354 249.811 48.6041 250.011C48.8542 250.212 49.0228 250.495 49.1097 250.861C49.2174 251.314 49.1662 251.758 48.9562 252.192C48.7595 252.604 48.4167 252.866 47.9276 252.978C47.0891 253.17 45.8257 253.394 44.1372 253.651C43.8012 253.71 43.1815 253.815 42.2782 253.966C41.3749 254.117 40.67 254.251 40.1635 254.366C39.9364 254.418 39.6231 254.573 39.2237 254.829C39.1405 254.867 38.9762 254.95 38.7307 255.08C38.5027 255.205 38.3014 255.288 38.1267 255.328C37.8472 255.392 37.5824 255.324 37.3323 255.124C37.0955 254.902 36.9171 254.539 36.797 254.033C36.6645 253.475 36.694 253.018 36.8856 252.662C37.0731 252.288 37.4174 251.915 37.9184 251.544C38.982 250.749 39.9426 249.831 40.8002 248.79C41.6711 247.727 42.3092 246.653 42.7144 245.568C43.1371 244.479 43.247 243.507 43.0441 242.653C42.8826 241.973 42.6074 241.512 42.2184 241.27C41.8428 241.007 41.3231 240.951 40.6593 241.103C39.8907 241.278 39.3203 241.629 38.948 242.155C38.5932 242.677 38.5049 243.313 38.6829 244.063C38.9273 245.092 38.5341 245.724 37.5035 245.959C37.0144 246.071 36.597 246.019 36.2512 245.804C35.923 245.585 35.6967 245.214 35.5725 244.691C35.3654 243.819 35.402 242.966 35.6823 242.13C35.9625 241.294 36.5051 240.554 37.3099 239.911C38.1105 239.25 39.1659 238.77 40.476 238.47C42.0481 238.111 43.3728 238.222 44.45 238.803C45.5272 239.384 46.2314 240.371 46.5627 241.766C46.8774 243.091 46.6214 244.611 45.7948 246.325C44.9856 248.035 43.6218 249.698 41.7033 251.313L47.6787 249.837ZM52.188 242.355C51.7862 242.447 51.4516 242.395 51.184 242.199C50.9122 241.985 50.735 241.704 50.6522 241.355C50.5486 240.92 50.5952 240.495 50.7919 240.083C51.006 239.666 51.3576 239.402 51.8467 239.29L63.3756 236.656C63.7773 236.564 64.112 236.616 64.3796 236.812C64.6472 237.009 64.8224 237.281 64.9052 237.63C65.0087 238.065 64.9555 238.5 64.7455 238.934C64.5488 239.347 64.2059 239.609 63.7168 239.721L52.188 242.355ZM52.883 248.537C52.4812 248.629 52.1465 248.577 51.8789 248.381C51.6072 248.167 51.4299 247.886 51.3471 247.537C51.2436 247.102 51.2902 246.677 51.4868 246.265C51.701 245.848 52.0526 245.584 52.5417 245.473L64.0705 242.838C64.4723 242.746 64.807 242.798 65.0745 242.994C65.3421 243.191 65.5173 243.463 65.6002 243.812C65.7037 244.248 65.6504 244.682 65.4404 245.116C65.2438 245.529 64.9009 245.791 64.4118 245.903L52.883 248.537Z" fill="white"/>
<path d="M361.594 295.038C361.841 294.931 362.082 294.963 362.317 295.132C362.57 295.293 362.786 295.572 362.964 295.968C363.268 296.648 363.369 297.303 363.266 297.933C362.915 300.135 361.705 301.682 359.634 302.575C358.741 302.961 357.866 303.135 357.011 303.098C356.166 303.034 355.377 302.766 354.644 302.294C354.143 304.11 353.161 305.333 351.698 305.964C350.653 306.415 349.691 306.469 348.812 306.127C347.933 305.785 347.27 305.114 346.821 304.113C346.398 303.169 346.274 302.31 346.448 301.536C346.623 300.763 347.109 300.204 347.907 299.859C348.591 299.564 349.047 299.672 349.276 300.182C349.344 300.333 349.443 300.605 349.574 300.999L349.971 302.112C350.225 302.679 350.599 302.855 351.093 302.642C351.454 302.487 351.703 302.132 351.84 301.577C351.987 300.995 352 300.291 351.879 299.464C351.777 298.63 351.527 297.769 351.129 296.881C350.825 296.202 350.485 295.672 350.111 295.293C349.728 294.894 349.414 294.748 349.167 294.855C348.958 294.945 348.831 295.067 348.787 295.222C348.734 295.357 348.715 295.568 348.73 295.854C348.752 296.206 348.71 296.517 348.604 296.787C348.491 297.039 348.196 297.268 347.721 297.472C347.303 297.653 346.907 297.654 346.533 297.478C346.151 297.282 345.824 296.882 345.553 296.278C345.122 295.315 345.078 294.433 345.421 293.631C345.765 292.83 346.402 292.228 347.333 291.827C348.131 291.483 348.942 291.369 349.766 291.487C350.581 291.586 351.325 291.93 351.997 292.519C352.228 291.518 352.611 290.677 353.144 289.996C353.697 289.307 354.315 288.815 354.999 288.52C355.74 288.201 356.377 288.129 356.909 288.305C357.461 288.473 357.906 288.934 358.244 289.689C358.625 290.539 358.764 291.279 358.661 291.909C358.55 292.521 358.266 292.925 357.81 293.121C357.392 293.302 357.069 293.339 356.841 293.235C356.613 293.131 356.389 292.934 356.169 292.646C356.029 292.436 355.896 292.291 355.769 292.21C355.642 292.13 355.484 292.13 355.294 292.212C355.066 292.311 354.916 292.634 354.845 293.183C354.784 293.705 354.816 294.356 354.939 295.137C355.081 295.909 355.321 296.673 355.66 297.428C356.041 298.278 356.535 298.876 357.144 299.222C357.771 299.559 358.361 299.609 358.912 299.372C359.957 298.921 360.658 297.729 361.015 295.795C361.078 295.43 361.271 295.177 361.594 295.038Z" fill="white"/>
<path d="M431.318 105.169C430.801 105.171 430.345 105.019 429.95 104.711C429.555 104.402 429.356 103.917 429.352 103.255L429.381 102.913C429.597 100.781 429.853 98.5654 430.15 96.2669C430.468 93.9476 430.737 92.1665 430.958 90.9238L428.541 91.6199L428.169 91.684C427.775 91.6862 427.464 91.5327 427.235 91.2236C427.005 90.9144 426.89 90.5633 426.887 90.1702L426.917 89.8906C426.956 89.4973 427.078 89.1759 427.284 88.9264C427.489 88.677 427.881 88.4265 428.459 88.175C429.058 87.9234 429.946 87.6496 431.124 87.3534L432.425 87.0359C432.901 86.9298 433.294 86.8759 433.604 86.8742C434.204 86.8709 434.65 87.0236 434.941 87.3324C435.253 87.6411 435.411 88.0748 435.414 88.6335C435.416 88.8818 435.386 89.1509 435.326 89.441C435.004 91.0567 434.399 95.6538 433.511 103.232C433.353 104.516 432.622 105.161 431.318 105.169Z" fill="white"/>
</svg>
