<svg width="384" height="252" viewBox="0 0 384 252" fill="none" xmlns="http://www.w3.org/2000/svg">
<path d="M99.9022 248.823C115.997 254.447 140.587 251.705 156.412 247.532C216.732 231.624 278.745 213.195 348.035 194.447C458.414 164.58 290.536 141.009 170.082 148.398C111.564 151.989 50.6 182.971 19.637 192.275C-14.4171 202.506 1.1514 210.064 26.0826 220.178C49.6132 229.724 75.8093 240.403 99.9022 248.823Z" fill="#9F8BC7" fill-opacity="0.28"/>
<path d="M174.648 33.5028L131.698 142.541L44.7573 177.31C44.0949 175.078 43.1572 173.07 42.0171 171.273C37.5943 164.196 30.1953 160.267 24.9694 158.253C21.4528 156.903 18.915 156.418 18.915 156.418L62.4881 41.1319L155.775 20.5327C155.775 20.5327 170.786 20.1322 174.648 33.5028Z" fill="#9D83CD"/>
<path d="M133.443 48.5866C121.445 52.0933 109.452 55.6145 97.4463 59.0942C94.0505 60.0785 90.6548 61.0627 87.258 62.047C86.8668 62.1609 86.6339 62.404 86.5189 62.6906C86.3528 62.791 86.2053 62.9329 86.1179 63.1712C83.4573 70.4133 80.5559 77.5724 77.8245 84.7894C75.0735 92.0605 72.4905 99.3894 69.8319 106.693C67.1949 113.937 64.4164 121.127 61.7155 128.347C59.0028 135.597 56.0473 142.764 53.4663 150.061C52.0382 154.098 50.6367 158.144 49.2371 162.192C47.811 166.316 46.2797 170.435 45.1386 174.648C44.8879 175.575 46.3789 176.123 46.7573 175.217C48.2562 171.63 49.4622 167.916 50.7497 164.249C52.0117 160.653 53.2825 157.06 54.5622 153.471C57.1462 146.221 59.4696 138.889 62.0064 131.623C64.5608 124.306 67.2155 117.025 69.9479 109.772C72.6625 102.567 75.6298 95.4562 78.4752 88.3009C81.6646 80.2792 84.7144 72.183 88.1219 64.25C100.052 60.7511 111.988 57.2714 123.926 53.7985C127.321 52.8113 130.716 51.8232 134.112 50.836C135.584 50.4066 134.915 48.1563 133.443 48.5866Z" fill="#D4CAEB"/>
<path d="M168.614 33.7726L82.8621 59.8027L42.0164 171.272C37.5936 164.196 30.1946 160.267 24.9688 158.253L67.9423 45.6543L153.527 24.3333C153.527 24.3333 164.236 23.8797 168.614 33.7726Z" fill="#FDF9F7"/>
<mask id="mask0_3649_1682" style="mask-type:luminance" maskUnits="userSpaceOnUse" x="24" y="24" width="145" height="148">
<path d="M168.614 33.7726L82.8621 59.8027L42.0164 171.272C37.5936 164.196 30.1946 160.267 24.9688 158.253L67.9423 45.6543L153.527 24.3333C153.528 24.3333 164.236 23.8797 168.614 33.7726Z" fill="white"/>
</mask>
<g mask="url(#mask0_3649_1682)">
<path d="M77.735 56.3695C72.0384 71.5157 66.4528 86.7082 61.0579 101.96C55.6747 117.179 50.7074 132.538 45.4511 147.8C43.9748 152.088 42.5094 156.379 41.0616 160.675C39.6011 165.011 38.0128 169.332 36.7233 173.719C36.3596 174.956 38.2811 175.315 38.688 174.135C40.0001 170.327 41.0832 166.43 42.2892 162.587C43.4952 158.739 44.709 154.895 45.9336 151.053C48.3839 143.364 50.9167 135.705 53.5498 128.075C56.1534 120.529 58.9477 113.042 61.6476 105.528C64.3848 97.9066 67.1211 90.2853 69.9144 82.6833C73.0379 74.1819 76.2499 65.7114 79.5002 57.2554C79.9445 56.0955 78.1763 55.1971 77.735 56.3695Z" fill="#A1A1A1"/>
<path d="M69.3054 49.2468C63.3571 64.2994 57.5189 79.3992 51.8694 94.5637C46.2327 109.694 41.0098 124.971 35.4999 140.146C33.9519 144.409 32.4157 148.676 30.8962 152.948C29.363 157.26 27.7029 161.555 26.3417 165.92C25.9574 167.152 27.8729 167.541 28.2985 166.369C29.6745 162.582 30.8225 158.703 32.0914 154.879C33.3612 151.052 34.6399 147.227 35.9275 143.406C38.5055 135.757 41.1661 128.14 43.926 120.553C46.6554 113.05 49.5745 105.609 52.3982 98.1389C55.2623 90.563 58.1253 82.986 61.0454 75.4303C64.3105 66.9801 67.663 58.5626 71.0539 50.1597C71.5188 49.0094 69.7663 48.0821 69.3054 49.2468Z" fill="#A1A1A1"/>
<path d="M72.4212 53.2823C69.8048 60.8477 67.1069 68.385 64.4542 75.9388C61.7828 83.5447 59.0711 91.139 56.1244 98.6465C50.2666 113.572 44.7803 128.633 39.2478 143.677C36.1351 152.142 32.9811 160.592 29.83 169.043C29.6177 169.611 29.7425 170.239 30.3313 170.539C30.8217 170.789 31.6503 170.612 31.8547 170.047C37.3165 154.905 42.8421 139.786 48.352 124.661C53.8648 109.527 58.9393 94.2453 64.6724 79.1888C67.8794 70.7675 71.059 62.3366 74.3201 53.9356C74.8371 52.603 72.8969 51.9053 72.4212 53.2823Z" fill="#A1A1A1"/>
<path d="M70.2781 50.5196C86.1847 46.4223 102.067 42.2102 117.89 37.809C133.677 33.4184 149.344 28.6128 165.095 24.0949C169.52 22.8259 173.941 21.5454 178.357 20.2475C182.812 18.9381 187.331 17.7396 191.731 16.2622C192.972 15.8453 192.17 14.0939 190.953 14.4432C187.022 15.5703 183.15 16.9319 179.25 18.1651C175.348 19.3993 171.443 20.6258 167.534 21.8426C159.712 24.2772 151.868 26.6289 143.991 28.884C136.199 31.114 128.349 33.1569 120.531 35.2914C112.6 37.4568 104.671 39.6231 96.7249 41.7326C87.8388 44.091 78.9273 46.3615 70.0068 48.5935C68.7832 48.8994 69.0466 50.8371 70.2781 50.5196Z" fill="#A1A1A1"/>
<path d="M78.7845 57.5062C94.5377 52.8715 110.262 48.1229 125.92 43.188C141.544 38.2638 157.033 32.9294 172.615 27.8797C176.993 26.4612 181.366 25.0311 185.733 23.5846C190.14 22.1246 194.612 20.7737 198.959 19.1477C200.184 18.6893 199.321 16.9659 198.117 17.3558C194.228 18.616 190.405 20.1079 186.552 21.4723C182.695 22.8387 178.836 24.1964 174.973 25.5455C167.242 28.2445 159.485 30.8605 151.691 33.381C143.983 35.8735 136.209 38.1817 128.47 40.5806C120.621 43.0133 112.773 45.448 104.905 47.8256C96.1074 50.4841 87.2813 53.0558 78.4444 55.5888C77.2345 55.9372 77.5657 57.8652 78.7845 57.5062Z" fill="#A1A1A1"/>
<path d="M73.9839 54.288C81.7455 51.8843 89.5308 49.5625 97.3042 47.1964C105.131 44.813 112.972 42.4681 120.881 40.3606C136.604 36.1707 152.218 31.6064 167.846 27.0894C176.64 24.5477 185.445 22.0464 194.249 19.5433C194.842 19.3744 195.283 18.9055 195.181 18.2618C195.096 17.7253 194.462 17.1733 193.876 17.347C178.21 21.9779 162.525 26.5451 146.844 31.1287C131.154 35.7152 115.602 40.736 99.8449 45.1015C91.0316 47.5429 82.2271 50.0122 73.3981 52.3996C71.9966 52.7769 72.5706 54.7251 73.9839 54.288Z" fill="#A1A1A1"/>
</g>
<path d="M361.294 176.832C361.294 176.832 252.121 208.046 209.337 218.625L53.6165 180.462C54.968 178.862 55.9351 177.194 56.5749 175.502C58.9279 169.36 57.087 162.957 55.135 158.647C53.6893 155.505 52.1953 153.48 52.1953 153.48L192.384 114.748L357.458 144.567C357.458 144.567 371.528 157.531 361.294 176.832Z" fill="#2D4F85"/>
<path d="M357.15 164.825C357.136 166.722 356.742 168.901 355.809 171.405L210.43 211.516L56.5747 175.502C57.1457 174.018 57.4602 172.524 57.6047 171.043C57.6568 170.485 57.6814 169.912 57.6764 169.355C57.6784 167.806 57.4956 166.287 57.2007 164.852V164.839L56.8047 163.251C56.3506 161.553 55.7559 159.995 55.1338 158.646L155.292 179.851L210.274 191.764L352.538 154.899C352.538 154.899 353.866 155.768 355.075 157.628C355.434 158.142 355.766 158.726 356.055 159.392C356.474 160.338 356.824 161.424 356.99 162.677C357.095 163.347 357.144 164.058 357.15 164.825Z" fill="#FDF9F7"/>
<path d="M357.15 164.825C357.136 166.722 356.742 168.901 355.809 171.405L210.43 211.516C210.43 211.516 188.456 192.446 155.293 179.851L210.275 191.764L352.539 154.899C352.539 154.899 353.867 155.768 355.076 157.628C355.435 158.142 355.767 158.726 356.056 159.392C356.475 160.338 356.825 161.424 356.991 162.677C357.095 163.347 357.144 164.058 357.15 164.825Z" fill="#C7C5EA"/>
<path d="M356.056 159.394C346.7 162.158 337.316 164.88 327.917 167.559C308.538 173.092 289.143 178.582 269.691 183.892C250.182 189.215 230.629 194.4 211.032 199.39C210.891 199.433 210.748 199.434 210.635 199.421C210.607 199.421 210.564 199.422 210.521 199.407C209.582 199.191 209.356 197.616 210.519 197.329C210.618 197.3 210.704 197.285 210.803 197.257C221.722 194.524 232.655 191.748 243.559 188.917C263.07 183.872 282.537 178.618 301.96 173.211C319.738 168.249 337.43 162.995 355.077 157.629C355.435 158.142 355.766 158.726 356.056 159.394Z" fill="#A1A1A1"/>
<path d="M357.15 164.826C349.141 167.272 341.118 169.691 333.095 172.081C312.938 178.08 292.708 183.856 272.478 189.631C252.248 195.421 231.99 201.169 211.672 206.652C211.544 206.681 211.43 206.696 211.317 206.697C210.208 206.663 209.839 204.866 211.101 204.55C211.129 204.55 211.158 204.535 211.186 204.535C222.573 201.659 233.974 198.782 245.332 195.794C265.679 190.407 285.923 184.66 306.066 178.591C323.105 173.482 340.084 168.176 356.992 162.677C357.096 163.347 357.144 164.059 357.15 164.826Z" fill="#A1A1A1"/>
<path d="M211.501 206.668C211.374 206.697 211.246 206.712 211.103 206.671C211.061 206.686 211.018 206.672 210.961 206.659C199.97 203.799 188.95 200.981 177.93 198.206C158.383 193.291 90.9568 178.715 71.2987 174.163C66.7431 173.11 62.1748 172.07 57.6055 171.046C57.6576 170.487 57.6821 169.915 57.6772 169.357C73.4059 172.92 136.944 186.381 152.617 190.112C172.176 194.763 191.709 199.538 211.185 204.537H211.199C211.313 204.564 211.412 204.591 211.526 204.618C212.682 204.902 212.438 206.451 211.501 206.668Z" fill="#A1A1A1"/>
<path d="M56.8057 163.253C71.7078 166.529 134.42 179.732 149.308 183.078C169.833 187.693 190.359 192.35 210.802 197.257C210.816 197.257 210.83 197.271 210.844 197.271C212.125 197.582 211.77 199.398 210.634 199.421C210.605 199.421 210.563 199.422 210.52 199.408C210.449 199.408 210.377 199.396 210.307 199.382C198.902 196.442 187.498 193.502 176.067 190.687C155.623 185.654 87.2605 171.154 66.6657 166.805C63.5058 166.145 60.3607 165.486 57.2018 164.855V164.841L56.8057 163.253Z" fill="#A1A1A1"/>
<path d="M353.865 145.364C344.495 147.854 335.181 150.533 325.81 153.023C316.386 155.528 306.961 158.033 297.536 160.538C278.802 165.517 260.053 170.435 241.283 175.288C236.019 176.649 230.756 178.013 225.488 179.357C220.16 180.716 214.806 181.944 209.462 183.239C207.764 183.651 208.442 186.291 210.116 185.819C214.785 184.505 219.424 183.112 224.109 181.853C228.789 180.595 233.473 179.348 238.157 178.106C247.583 175.607 257.008 173.106 266.44 170.628C285.187 165.703 303.969 160.905 322.74 156.064C333.327 153.333 343.962 150.792 354.548 148.062C356.312 147.607 355.624 144.897 353.865 145.364Z" fill="#083B4E"/>
<path d="M209.99 183.181C196.529 180.713 183.092 178.131 169.621 175.722C156.089 173.302 142.544 170.964 129.036 168.412C125.27 167.701 73.6917 157.078 69.9401 156.295C66.1315 155.5 62.378 154.463 58.5645 153.683C57.0391 153.37 56.5133 155.73 58.0475 156.004C61.4217 156.605 64.8194 157.055 68.2113 157.547C71.5943 158.039 122.781 168.584 126.143 169.199C132.871 170.432 139.57 171.821 146.274 173.169C159.741 175.878 173.177 178.733 186.657 181.385C194.235 182.876 201.819 184.342 209.394 185.853C211.151 186.204 211.757 183.505 209.99 183.181Z" fill="#083B4E"/>
<path d="M327.747 134.024C328.438 135.735 329.342 137.384 330.508 138.915L230.057 176.125C188.111 170.03 80.6312 150.427 80.6312 150.427C72.2867 135.065 72.6445 120.03 79.7378 104.086L189.945 73.9678L332.715 98.6884C332.715 98.6884 331.184 101.534 329.572 105.892C326.892 113.169 324.007 124.637 327.747 134.024Z" fill="#FC88BA"/>
<path d="M140.358 102.113L143.732 101.012L195.293 84.1865L256.614 94.2598L192.617 113.229L140.358 102.113Z" fill="#DB8B81"/>
<path d="M327.977 134.023L238.121 165.689L230.854 168.255C217.346 157.148 229.552 136.995 229.552 136.995L329.803 105.893C328.723 108.81 327.631 112.389 326.93 116.242C326.84 116.755 326.75 117.28 326.672 117.806C325.863 123.145 325.928 128.894 327.977 134.023Z" fill="#FDF9F7"/>
<path d="M329.802 105.893C328.722 108.81 327.63 112.389 326.929 116.242C290.412 124.968 243.405 139.584 238.121 165.689L230.854 168.255C217.346 157.148 229.552 136.995 229.552 136.995L329.802 105.893Z" fill="#C7C5EA"/>
<mask id="mask1_3649_1682" style="mask-type:luminance" maskUnits="userSpaceOnUse" x="224" y="105" width="106" height="64">
<path d="M327.977 134.023L230.854 168.255C217.346 157.148 229.552 136.995 229.552 136.995L329.803 105.893C327.122 113.168 324.236 124.637 327.977 134.023Z" fill="white"/>
</mask>
<g mask="url(#mask1_3649_1682)">
<path d="M334.197 109.428C326.779 111.581 319.429 113.964 312.05 116.243C304.671 118.524 297.29 120.797 289.91 123.073C275.195 127.611 260.506 132.222 245.758 136.65C241.616 137.892 237.474 139.132 233.32 140.338C229.108 141.56 224.83 142.569 220.625 143.808C219.404 144.168 220.176 145.99 221.392 145.611C225.069 144.465 228.686 143.121 232.351 141.934C236.024 140.745 239.717 139.618 243.408 138.489C250.798 136.228 258.196 133.996 265.596 131.768C280.354 127.324 295.155 123.01 309.93 118.62C318.266 116.143 326.645 113.783 334.935 111.163C336.119 110.788 335.358 109.091 334.197 109.428Z" fill="#A1A1A1"/>
<path d="M330.848 115.403C329.198 116.317 327.327 116.837 325.539 117.441C323.755 118.043 321.97 118.642 320.183 119.235C316.658 120.405 313.135 121.581 309.598 122.716C302.48 125.002 295.362 127.287 288.246 129.573C274.064 134.127 259.851 138.577 245.595 142.902C237.572 145.336 229.552 147.772 221.498 150.106C220.007 150.537 220.659 152.879 222.096 152.38C236.229 147.473 250.453 142.824 264.668 138.154C278.82 133.504 293.057 129.103 307.265 124.623C311.24 123.369 315.222 122.14 319.21 120.924C321.203 120.316 323.196 119.711 325.192 119.114C327.212 118.51 329.296 117.704 331.396 117.468C333.321 117.251 332.357 114.565 330.848 115.403Z" fill="#A1A1A1"/>
<path d="M332.002 120.806C317.623 126.229 303.132 131.34 288.561 136.242C274.051 141.124 259.49 145.87 244.832 150.308C236.573 152.809 228.299 155.255 220.014 157.666C218.821 158.014 219.287 159.869 220.475 159.509C235.189 155.057 249.827 150.363 264.45 145.632C279.021 140.918 293.532 136.036 308.011 131.056C316.163 128.253 324.311 125.437 332.452 122.603C333.596 122.205 333.121 120.384 332.002 120.806Z" fill="#A1A1A1"/>
<path d="M338.574 126.954C322.996 131.923 307.377 136.77 291.813 141.784C276.31 146.778 260.836 151.853 245.383 156.998C236.699 159.89 228.024 162.81 219.36 165.758C218.826 165.94 218.672 166.677 218.894 167.126C219.161 167.667 219.763 167.771 220.287 167.583C235.587 162.079 250.947 156.746 266.378 151.604C281.785 146.469 297.23 141.439 312.758 136.667C321.474 133.989 330.195 131.323 338.963 128.813C340.162 128.469 339.744 126.58 338.574 126.954Z" fill="#A1A1A1"/>
</g>
<path d="M330.272 137.534C305.131 147.352 279.85 156.89 254.224 165.424C247.517 167.658 240.608 169.594 234.016 172.166C233.197 170.007 231.071 167.998 229.945 166.277C228.023 163.343 226.578 160.076 225.905 156.643C224.609 150.027 225.849 143.475 228.971 137.595C229.312 137.771 229.734 137.824 230.233 137.665C244.776 133.023 259.195 128.04 273.786 123.538C288.444 119.014 303.09 114.457 317.776 110.021C323.521 108.285 331.964 106.883 334.101 100.398C334.828 98.1901 331.204 97.0697 330.62 99.3017C329.988 101.711 327.695 102.876 325.505 103.773C322.492 105.009 319.278 105.834 316.182 106.847C309.219 109.124 302.257 111.4 295.274 113.617C281.323 118.049 267.428 122.683 253.401 126.881C245.496 129.246 237.56 131.499 229.678 133.937C229.11 133.311 228.135 133.035 227.401 133.531C227.259 133.457 227.104 133.392 226.925 133.348C217.644 131.058 208.271 129.321 198.933 127.262C189.622 125.207 180.296 123.201 170.957 121.269C152.585 117.469 134.131 114.105 115.652 110.844C110.507 109.936 105.356 109.067 100.213 108.158C95.5307 107.332 90.8749 106.369 86.1925 105.541C88.2723 104.927 90.3422 104.268 92.4131 103.655C96.0241 102.585 99.6459 101.551 103.268 100.517L124.406 94.4836C138.583 90.4375 152.77 86.4184 167.087 82.8634C175.179 80.8544 183.188 78.5336 191.244 76.3914C192.985 75.9282 192.395 73.2022 190.682 73.704C176.512 77.8514 162.361 82.0625 148.179 86.1723C134.016 90.2763 119.757 94.0571 105.53 97.943C101.607 99.0151 97.689 100.107 93.7547 101.139C89.8281 102.169 85.822 103.063 81.9486 104.281C81.3215 103.799 80.3839 103.748 79.8954 104.626C75.9816 111.657 74.0552 119.802 74.3059 127.81C74.4317 131.833 75.0518 135.841 76.2499 139.693C76.8456 141.611 77.565 143.496 78.4191 145.317C79.1455 146.864 79.918 149.495 81.4581 150.407C81.5967 150.761 81.869 151.055 82.3358 151.162C87.1381 152.266 92.0229 152.536 96.8949 153.186C101.734 153.83 106.569 154.498 111.38 155.321C121.127 156.989 130.873 158.658 140.613 160.361C159.907 163.735 179.164 167.29 198.459 170.664C203.882 171.613 209.304 172.567 214.731 173.503C217.342 173.954 219.955 174.404 222.566 174.855C225.359 175.336 228.179 176.003 231.015 176.112C231.245 176.121 231.454 176.086 231.648 176.027C232.239 176.303 232.933 176.313 233.465 175.971C233.616 175.975 233.773 175.966 233.939 175.922C240.434 174.206 246.776 171.669 253.097 169.423C259.489 167.153 265.866 164.844 272.261 162.583C284.972 158.091 297.661 153.53 310.293 148.827C317.499 146.144 324.688 143.422 331.863 140.663C333.993 139.842 332.389 136.707 330.272 137.534ZM83.9428 148.489C83.5487 146.983 82.2857 145.695 81.581 144.29C80.7337 142.598 79.9986 140.848 79.4039 139.057C78.2176 135.479 77.4933 131.728 77.3055 127.969C76.933 120.53 78.5459 113.2 82.1402 106.642C82.2582 106.614 82.3741 106.58 82.4921 106.552C82.4243 107.39 82.901 108.323 83.99 108.468C84.5364 108.541 85.0819 108.61 85.6284 108.682C82.8017 115.007 81.3323 122.021 81.2733 128.904C81.2409 132.677 81.5967 136.407 82.3122 140.113C82.6562 141.897 83.1074 143.662 83.6617 145.395C83.9595 146.326 84.2317 147.533 84.6937 148.58C84.444 148.546 84.1934 148.521 83.9428 148.489ZM88.6074 149.244C88.8325 147.712 87.4929 145.951 86.9248 144.551C86.2594 142.912 85.7119 141.228 85.2588 139.52C84.3595 136.125 83.9153 132.553 83.9271 129.045C83.9507 122.026 85.6677 115.35 88.8866 109.108C91.5196 109.449 94.1508 109.791 96.7819 110.138C93.9001 116.44 92.3158 123.224 92.0278 130.136C91.8794 133.696 92.0651 137.303 92.5919 140.828C92.8593 142.616 93.2121 144.394 93.6524 146.148C94.0436 147.707 94.307 149.594 95.5081 150.732C93.2092 150.226 90.9162 149.694 88.6074 149.244ZM173.31 163.215C154.009 160.216 134.678 157.417 115.386 154.346C109.828 153.462 104.292 152.511 98.7712 151.422C98.2483 151.318 97.7274 151.208 97.2065 151.098C97.6144 150.93 97.9564 150.616 98.0517 150.198C98.4282 148.561 97.4728 147.032 96.9873 145.475C96.4988 143.908 96.0978 142.318 95.7892 140.709C95.1464 137.35 94.8732 133.965 94.998 130.55C95.2466 123.745 97.0364 117.068 100.11 110.967C100.173 110.843 100.218 110.719 100.249 110.598C104.161 111.129 108.07 111.694 111.974 112.334C121.394 113.877 130.781 115.576 140.153 117.377C158.474 120.896 176.747 124.701 194.893 129.01C196.274 129.338 197.648 129.69 199.028 130.024C193.756 141.793 193.612 154.947 197.843 167.023L173.31 163.215ZM202.57 167.759L201.875 167.65C196.635 156.021 197.182 142.412 202.203 130.804C204.203 131.296 206.208 131.772 208.206 132.276C205.989 138.38 204.969 144.899 205.264 151.376C205.415 154.711 205.864 158.031 206.667 161.276C207.071 162.906 207.538 164.526 208.083 166.116C208.378 166.976 208.636 167.87 208.924 168.751C206.806 168.422 204.689 168.089 202.57 167.759ZM224.589 171.208C222.076 170.812 219.563 170.416 217.048 170.019C215.869 169.833 214.69 169.652 213.51 169.467C213.49 169.415 213.482 169.365 213.457 169.313C212.79 167.855 211.913 166.519 211.338 165.011C210.789 163.571 210.337 162.104 209.972 160.608C209.205 157.477 208.741 154.269 208.636 151.05C208.436 144.94 209.422 138.892 211.538 133.153C213.546 133.743 215.517 134.442 217.554 134.972C220.157 135.648 222.767 136.302 225.374 136.964C222.736 142.627 221.78 149.092 222.626 155.24C223.102 158.695 224.111 162.134 225.58 165.308C226.356 166.987 227.29 168.579 228.345 170.102C228.791 170.746 229.27 171.372 229.674 172.042C227.995 171.695 226.285 171.477 224.589 171.208Z" fill="#F867A6"/>
<path d="M163.476 139.76C163.827 136.795 164.448 133.575 165.658 130.662L109.749 120.761C104.245 129.667 106.991 144.566 106.991 144.566L163.566 154.609C163 149.674 162.89 144.686 163.476 139.76Z" fill="#F867A6"/>
<path d="M176.824 132.64L169.399 131.325C169.133 132.058 168.904 132.803 168.711 133.556C168.611 133.944 168.521 134.333 168.437 134.724C168.444 134.693 168.394 134.937 168.37 135.057C168.348 135.175 168.303 135.419 168.309 135.389C168.183 136.109 168.081 136.832 167.98 137.556C167.787 138.951 167.661 140.355 167.586 141.76C167.418 144.913 167.517 148.113 167.85 151.141C168.009 152.593 168.226 154.039 168.469 155.479L174.448 156.541C174.237 153.47 174.085 150.384 174.141 147.308C174.229 142.444 174.831 137.212 176.824 132.64Z" fill="#F867A6"/>
<path d="M185.497 134.176L180.478 133.287C179.758 134.925 179.246 136.656 178.897 138.438C178.357 141.185 178.189 144.365 178.209 147.297C178.229 150.426 178.465 152.973 178.7 155.849C178.74 156.337 178.796 156.829 178.845 157.321L184.175 158.267C181.719 147.877 185.497 134.176 185.497 134.176Z" fill="#F867A6"/>
<path d="M227.46 150.491L236.796 147.345C247.198 149.648 242.764 160.047 249.216 164.755C249.216 164.755 238.143 169.174 237.881 169.19C231.161 161.735 238.661 153.774 227.46 150.491Z" fill="#2D8485"/>
<path d="M307.937 103.351L227.165 129.752C186.352 120.886 153.664 112.594 112.85 103.727C114.424 101.872 115.799 99.8492 116.946 97.706C120.02 91.9673 121.498 85.3863 121.044 78.919C120.631 73.0327 118.645 66.9659 115.395 61.8082C113.749 59.1806 111.77 56.7875 109.514 54.7658C137.68 49.9931 165.538 42.6034 192.823 34.2188C230.853 40.5895 273.095 48.4598 311.126 54.818C319.604 69.7914 318.297 89.5684 307.937 103.351Z" fill="#E7A17E"/>
<path d="M304.637 95.5295L226.252 121.563C226.252 121.563 153.207 105.489 116.946 97.7064C120.021 91.9678 121.498 85.3867 121.044 78.9194C120.631 73.0331 118.646 66.9664 115.396 61.8086L122.61 63.3468L228.207 85.9232L307.084 63.4442C307.084 63.4442 313.92 75.4398 304.637 95.5295Z" fill="#FDF9F7"/>
<path d="M304.638 95.5294L226.253 121.563C212.592 92.8902 143.986 69.9085 122.61 63.3467L228.208 85.9231L307.085 63.4441C307.085 63.4441 313.921 75.4397 304.638 95.5294Z" fill="#C7C5EA"/>
<mask id="mask2_3649_1682" style="mask-type:luminance" maskUnits="userSpaceOnUse" x="115" y="61" width="195" height="61">
<path d="M304.637 95.5295L226.252 121.563C226.252 121.563 153.207 105.489 116.946 97.7064C120.021 91.9678 121.498 85.3867 121.044 78.9194C120.631 73.0331 118.646 66.9664 115.396 61.8086L228.207 85.9232L307.08 63.4404C307.08 63.4413 313.922 75.4369 304.637 95.5295Z" fill="white"/>
</mask>
<g mask="url(#mask2_3649_1682)">
<path d="M320.986 62.0591C314.909 63.879 308.926 66.0618 302.897 68.0342C296.86 70.0095 290.816 71.9616 284.788 73.96C272.836 77.9222 260.785 81.6065 248.751 85.3225C241.936 87.4271 235.111 89.6253 228.153 91.232C226.598 91.591 227.34 93.8751 228.878 93.2932C234.916 91.0062 241.141 89.1747 247.315 87.2776C253.382 85.4133 259.444 83.5373 265.504 81.6489C277.519 77.9039 289.559 74.2379 301.561 70.4533C308.265 68.3391 315.066 66.4043 321.693 64.0672C322.848 63.6599 322.167 61.7059 320.986 62.0591Z" fill="#A1A1A1"/>
<path d="M326.467 68.9379C323.179 69.8372 319.967 71.0569 316.729 72.1116C313.472 73.1731 310.215 74.2298 306.956 75.2825C300.341 77.42 293.715 79.5265 287.077 81.5944C273.675 85.7698 260.249 89.8767 246.802 93.9142C243.138 95.0142 239.459 96.0815 235.772 97.1034C233.834 97.6409 231.882 98.1263 229.94 98.6483C228.435 99.0526 227 99.1617 226.287 100.653C226.217 100.799 226.3 101.016 226.435 101.098C227.658 101.84 228.61 101.406 229.902 101.001C231.579 100.476 233.243 99.9095 234.911 99.3605C238.219 98.271 241.559 97.2636 244.891 96.2455C251.603 94.195 258.334 92.2004 265.048 90.1527C278.236 86.1317 291.394 82.0151 304.562 77.9333C308.223 76.7985 311.883 75.6589 315.541 74.5135C319.379 73.3121 323.32 72.2776 327.085 70.8746C328.178 70.4683 327.609 68.6252 326.467 68.9379Z" fill="#A1A1A1"/>
<path d="M333.945 75.4382C330.437 76.3781 327.009 77.6557 323.544 78.7423C320.075 79.8308 316.603 80.9164 313.13 81.9942C306.183 84.149 299.23 86.2826 292.272 88.3997C278.356 92.633 264.413 96.7737 250.442 100.829C242.49 103.137 234.48 105.171 226.47 107.267C224.851 107.69 225.421 110.233 226.99 109.752C254.998 101.156 283.158 93.0325 311.184 84.4848C315.047 83.3066 318.91 82.1264 322.77 80.9405C326.704 79.7314 330.729 78.6979 334.599 77.3045C335.678 76.9185 335.047 75.143 333.945 75.4382Z" fill="#A1A1A1"/>
<path d="M325.095 84.6341C321.812 85.0008 318.485 86.5641 315.356 87.5927C312.22 88.6243 309.082 89.6491 305.942 90.6671C299.562 92.736 293.194 94.8387 286.805 96.8796C274.032 100.961 261.232 104.954 248.35 108.692C241.049 110.81 233.736 112.877 226.407 114.897C224.993 115.287 225.469 117.503 226.865 117.088C252.755 109.397 278.693 101.754 304.394 93.4694C307.916 92.3336 311.437 91.1901 314.954 90.0389C316.761 89.4474 318.566 88.8539 320.371 88.2585C322.158 87.6689 324.036 87.1952 325.66 86.2379C326.521 85.7294 326.086 84.5232 325.095 84.6341Z" fill="#A1A1A1"/>
<path d="M228.378 91.3522C220.816 89.6384 213.147 88.2845 205.547 86.7261C197.94 85.1667 190.337 83.5832 182.724 82.0479C167.631 79.0034 152.592 75.6695 137.552 72.3722C129.035 70.5049 120.454 68.712 112.072 66.344C110.198 65.8152 109.674 68.1572 111.659 68.4872C119.449 69.7822 127.174 71.5655 134.886 73.2648C142.462 74.9351 150.041 76.5929 157.623 78.2382C172.659 81.5017 187.675 84.8454 202.72 88.0674C211.124 89.8671 219.528 91.8713 227.976 93.4403C229.447 93.7134 229.847 91.6851 228.378 91.3522Z" fill="#A1A1A1"/>
<path d="M227.744 99.486C223.703 98.4863 219.558 97.8002 215.478 96.9597C211.377 96.1144 207.276 95.2652 203.177 94.4122C194.854 92.6801 186.54 90.9161 178.233 89.1116C161.462 85.4698 144.708 81.7576 127.968 77.9759C123.407 76.9453 118.851 75.878 114.309 74.7683C111.922 74.1855 109.551 73.5505 107.169 72.9522C105.322 72.4881 103.721 71.8107 102.098 72.6965C101.938 72.7834 101.901 73.013 101.999 73.1558C102.881 74.4431 104.151 74.584 105.77 74.9343C107.869 75.3878 109.979 75.7989 112.084 76.2273C116.257 77.0756 120.417 78.0116 124.575 78.9341C132.952 80.7926 141.315 82.7081 149.69 84.5705C166.142 88.2287 182.614 91.7875 199.08 95.3839C203.658 96.3836 208.239 97.3785 212.819 98.3676C217.625 99.4059 222.443 100.64 227.288 101.467C228.695 101.707 229.149 99.8334 227.744 99.486Z" fill="#A1A1A1"/>
<path d="M92.5071 79.1335C96.8081 80.2161 101.219 80.9698 105.558 81.9048C109.904 82.8409 114.249 83.7807 118.593 84.7283C127.28 86.6235 135.961 88.5409 144.639 90.4747C161.992 94.3423 179.323 98.3035 196.632 102.353C206.485 104.657 216.242 107.226 226.033 109.741C228.013 110.25 228.87 107.781 226.911 107.348C191.94 99.6284 157.079 91.4233 122.115 83.6534C117.296 82.5822 112.476 81.5131 107.654 80.4497C102.741 79.366 97.8313 78.0855 92.8806 77.1929C91.5046 76.9439 91.1557 78.7928 92.5071 79.1335Z" fill="#A1A1A1"/>
<path d="M102.785 89.8516C106.515 91.302 110.982 91.7584 114.927 92.5622C118.883 93.368 122.837 94.1815 126.789 95.0007C134.819 96.6653 142.856 98.2942 150.88 99.9867C166.922 103.371 182.942 106.844 198.902 110.578C207.947 112.694 216.977 114.862 225.996 117.077C227.734 117.505 228.504 115.364 226.769 114.967C194.589 107.613 162.386 100.194 130.066 93.4471C125.636 92.5227 121.203 91.606 116.77 90.6979C114.493 90.2318 112.216 89.7677 109.938 89.3055C107.682 88.8481 105.397 88.243 103.105 88.1861C101.89 88.1552 101.658 89.4135 102.785 89.8516Z" fill="#A1A1A1"/>
</g>
<path d="M312.066 56.5763C311.976 56.4277 311.86 56.3312 311.734 56.2579C311.452 55.3595 310.559 54.6367 309.348 55.1733C306.792 56.3052 303.869 56.888 301.184 57.687C298.6 58.4571 296.014 59.2204 293.426 59.9788C288.059 61.5498 282.679 63.0783 277.295 64.5885C266.723 67.5519 256.124 70.4401 245.441 72.9924C239.326 74.4534 233.168 75.7175 227.045 77.1456C226.431 77.2894 226.067 77.6793 225.912 78.1367C218.55 76.9922 211.259 75.3903 203.931 74.051C196.394 72.674 188.876 71.1985 181.363 69.6951C166.35 66.6902 151.221 64.0134 136.337 60.4285C132.235 59.4404 128.142 58.3943 124.072 57.2837C121.451 56.5686 118.832 55.7783 116.199 55.0546C135.983 50.8898 155.608 46.1074 175.155 40.9718C181.009 39.4337 186.999 37.991 192.705 35.9781C194.071 35.4956 193.264 33.3167 191.881 33.6352C186.565 34.8626 181.315 36.5745 176.07 38.0692C170.899 39.5427 165.711 40.9554 160.506 42.3122C150.004 45.0498 139.459 47.6253 128.875 50.0387C123.07 51.3626 117.252 52.6325 111.425 53.86C111.373 53.8484 111.322 53.8339 111.27 53.8233C109.487 53.4431 108.548 55.9616 110.232 56.5484C110.444 56.6806 110.654 56.8147 110.859 56.9575C110.975 57.0386 111.09 57.1206 111.203 57.2055C111.248 57.2393 111.293 57.274 111.337 57.3088C111.371 57.3358 111.403 57.3628 111.437 57.3898C111.501 57.4429 111.481 57.4255 111.375 57.3387C111.428 57.3309 111.614 57.5481 111.658 57.5867C111.762 57.6803 111.864 57.7748 111.964 57.8723C112.167 58.0663 112.359 58.2699 112.553 58.4715C112.934 58.8672 113.302 59.2715 113.64 59.7048C113.727 59.8157 113.811 59.9286 113.895 60.0415C113.924 60.0821 113.954 60.1236 113.983 60.1641C113.986 60.1689 113.983 60.1651 113.986 60.1699C114.14 60.4034 114.29 60.6389 114.431 60.8801C114.782 61.4784 115.578 61.8364 116.241 61.4745C116.55 61.3056 116.828 61.0384 116.923 60.6939C117.008 60.386 117.036 59.9759 116.845 59.699C116.346 58.9724 115.782 58.3017 115.173 57.6677C117.332 58.0884 119.503 58.4629 121.651 58.8778C125.519 59.6256 129.377 60.4102 133.234 61.2063C140.729 62.7512 148.167 64.5306 155.606 66.3129C170.574 69.8987 185.66 72.9615 200.715 76.1691C209.176 77.9716 217.732 79.3699 226.172 81.2612C227.232 81.4986 227.921 80.8772 228.095 80.138C238.723 77.5268 249.278 74.5836 259.872 71.8402C270.69 69.0389 281.514 66.2685 292.298 63.3398C295.282 62.5292 298.266 61.7196 301.246 60.8975C304.276 60.0618 307.373 58.8759 310.482 58.3972C310.64 58.3731 310.782 58.3326 310.911 58.2805C314.558 65.0729 316.161 72.6836 315.33 80.3464C314.912 84.1957 313.874 87.9639 312.321 91.5198C311.539 93.3108 310.654 95.0497 309.626 96.7162C308.817 98.0276 307.496 99.3544 306.891 100.812C286.26 107.923 265.655 115.111 245.01 122.183C239.055 124.222 233.028 126.022 227.046 127.977C226.92 128.019 226.806 128.069 226.7 128.125C197.503 120.41 167.957 113.854 138.288 108.144C130.488 106.643 122.726 104.951 114.927 103.449C115.297 103.024 115.663 102.597 115.996 102.143C116.775 101.083 117.409 99.943 117.959 98.7532C118.252 98.1202 117.733 97.2604 117.086 97.0867C116.317 96.8802 115.698 97.2643 115.389 97.9436C115.36 98.0063 115.331 98.0691 115.302 98.1318C115.285 98.1675 115.277 98.1897 115.273 98.2003C115.224 98.3093 115.16 98.4164 115.107 98.5178C114.979 98.7629 114.845 99.0051 114.706 99.2444C114.41 99.7529 114.087 100.246 113.742 100.723C113.58 100.947 113.412 101.168 113.239 101.385C113.153 101.493 113.065 101.6 112.976 101.707C112.96 101.725 112.963 101.724 112.951 101.739C112.914 101.785 112.872 101.83 112.833 101.873C112.438 102.315 112.009 102.714 111.537 103.076C111.207 103.33 111.074 103.758 111.097 104.176C110.971 104.867 111.349 105.644 112.378 105.821C120.002 107.126 127.645 108.27 135.228 109.8C142.709 111.31 150.169 112.933 157.628 114.545C172.365 117.729 187.022 121.151 201.613 124.927C209.976 127.091 218.358 129.185 226.706 131.408C227.588 131.642 228.274 131.188 228.596 130.56C238.849 126.956 249.082 123.341 259.4 119.909C269.72 116.477 280.034 113.027 290.36 109.611C296.246 107.664 302.129 105.706 308.011 103.746C308.693 103.518 309.063 103.072 309.182 102.588C310.575 101.586 311.599 99.4818 312.395 98.1549C313.445 96.4064 314.384 94.572 315.143 92.6826C316.699 88.8044 317.654 84.6463 317.928 80.4864C318.477 72.1895 316.366 63.7162 312.066 56.5763Z" fill="#DC7643"/>
<path d="M289.029 47.2044C289.536 48.9288 290.26 50.4843 291.246 51.7532L231.572 71.6596C200.614 67.1561 121.311 52.6902 121.311 52.6902C115.162 41.3586 115.625 26.4373 120.869 14.6724L187.739 0L293.084 18.2399C292.587 19.0205 292.106 19.9701 291.641 21.0663C288.801 27.6705 286.666 39.3109 289.029 47.2044Z" fill="#5549D1"/>
<path d="M232.629 11.9875C221.21 10.102 209.786 8.17879 198.44 5.8976C195.439 5.29449 192.48 4.49838 189.473 3.92615C189.357 3.7486 189.146 3.6193 188.902 3.65693C188.408 3.73317 187.953 3.74668 187.48 3.91555C186.95 4.10565 186.427 4.31022 185.892 4.48874C184.904 4.81972 183.916 5.15167 182.92 5.4624C180.931 6.08191 178.939 6.68886 176.938 7.27267C172.976 8.42967 168.988 9.48535 165.004 10.5671C162.722 11.1866 160.438 11.7993 158.151 12.3976C157.314 12.6167 157.657 13.8953 158.492 13.6743C166.591 11.5292 174.609 9.11673 182.636 6.7265C183.75 6.39455 184.865 6.07515 185.982 5.75575C186.521 5.60135 187.062 5.4595 187.606 5.32054C187.859 5.25589 188.084 5.17096 188.303 5.07833C188.372 5.11982 188.446 5.15746 188.542 5.17676C191.386 5.73741 194.274 6.0597 197.133 6.53447C199.987 7.0073 202.824 7.5747 205.665 8.11895C211.342 9.20743 217.025 10.2699 222.686 11.4413C225.051 11.9316 227.41 12.4439 229.772 12.9535C229.122 13.1899 228.463 13.407 227.826 13.6405C226.601 14.0902 225.378 14.5408 224.147 14.9731C221.726 15.8223 219.309 16.6802 216.884 17.5197C212 19.2113 207.098 20.8498 202.209 22.5279C201.998 22.6003 201.862 22.7353 201.776 22.8917C196.955 21.8273 192.133 20.7591 187.309 19.6996C182.336 18.6072 177.346 17.6007 172.385 16.4573C169.568 15.8078 166.748 15.1767 163.927 14.5476C163.009 14.343 162.63 15.7374 163.554 15.941C168.565 17.0449 173.586 18.1025 178.592 19.2296C183.556 20.347 188.511 21.506 193.478 22.6118C196.3 23.24 199.122 23.8682 201.944 24.4964C202.432 24.6055 202.776 24.2889 202.875 23.9184C207.694 22.1853 212.497 20.4117 217.324 18.6989C219.78 17.8265 222.242 16.9697 224.701 16.1041C225.929 15.6718 227.166 15.2626 228.4 14.8486C229.62 14.4395 230.858 13.9348 232.121 13.6733C232.28 13.6405 232.394 13.571 232.486 13.4851C233.282 13.4051 233.529 12.1361 232.629 11.9875Z" fill="#7371E3"/>
<path d="M262.957 18.0162C262.985 17.7016 262.804 17.3716 262.357 17.3494C260.097 17.2365 257.84 16.8553 255.6 16.5533C253.379 16.2532 251.158 15.9618 248.937 15.6703C248.899 15.6655 248.868 15.6752 248.834 15.6771C248.692 15.5468 248.498 15.4812 248.257 15.5671C243.954 17.1043 239.7 18.7573 235.356 20.1874C230.989 21.6252 226.605 22.9954 222.22 24.3753C219.751 25.1521 217.296 25.9724 214.835 26.7714C214.062 27.0222 214.28 28.1242 214.944 28.1435C214.944 28.1435 214.946 28.1445 214.948 28.1455C218.487 29.1124 222.037 30.0387 225.589 30.9584C225.94 31.0491 226.204 30.886 226.347 30.6467C227.449 30.3659 228.523 29.9461 229.594 29.5756C230.768 29.1693 231.937 28.7524 233.113 28.3529C235.499 27.5424 237.893 26.7559 240.288 25.9675C244.998 24.4159 249.728 22.925 254.466 21.4582C257.165 20.6226 259.881 19.8332 262.598 19.0555C263.11 18.9069 263.169 18.3607 262.957 18.0162Z" fill="#7371E3"/>
<path d="M288.408 33.4788C288.2 35.0333 288.077 36.6169 288.039 38.1801C288.014 38.8778 288.012 39.5755 288.036 40.2635L288.035 40.2751C288.056 41.4446 288.141 42.5804 288.301 43.6968L288.3 43.7094C288.376 44.3511 288.488 44.9841 288.626 45.593C288.731 46.1401 288.873 46.6776 289.028 47.2035L231.506 66.1034C230.584 65.2716 229.797 64.3993 229.135 63.497C228.747 62.9702 228.396 62.4462 228.094 61.9C227.275 60.496 226.693 59.0437 226.308 57.5663C226.146 56.9439 226.021 56.3109 225.92 55.6914C225.691 54.27 225.622 52.8457 225.66 51.4745C225.674 50.7768 225.724 50.0811 225.798 49.4104C225.957 47.8414 226.235 46.363 226.566 45.0314C226.751 44.3183 226.936 43.6418 227.13 43.0262C227.949 40.3841 228.804 38.6829 228.804 38.6829L264.806 28.5922L291.64 21.0635C291.176 22.1346 290.742 23.3398 290.328 24.631C290.089 25.401 289.862 26.1962 289.657 27.0164C289.268 28.513 288.924 30.0966 288.675 31.7216C288.571 32.2948 288.478 32.8921 288.408 33.4788Z" fill="#FDF9F7"/>
<path d="M231.508 66.1034C230.585 65.2716 229.799 64.3993 229.137 63.497C228.749 62.9702 228.398 62.4462 228.096 61.9C227.277 60.496 226.695 59.0437 226.31 57.5663C226.148 56.9439 226.023 56.3109 225.922 55.6914C225.693 54.27 225.624 52.8457 225.662 51.4745C225.676 50.7768 225.726 50.0811 225.8 49.4104C225.959 47.8414 226.237 46.363 226.568 45.0314C226.753 44.3183 226.938 43.6418 227.132 43.0262C227.951 40.3841 228.806 38.6829 228.806 38.6829L291.642 21.0635C263.986 35.5351 229.858 53.9381 231.508 66.1034Z" fill="#C7C5EA"/>
<path d="M290.329 24.6318C290.091 25.4019 289.863 26.197 289.659 27.0172C288.898 27.2421 288.138 27.4785 287.377 27.7033C284.707 28.5139 282.039 29.3119 279.37 30.0984C269.771 32.9142 260.109 35.5225 250.48 38.2167C242.496 40.4438 234.562 42.8543 226.568 45.0323C226.754 44.3192 226.939 43.6427 227.133 43.0271C230.601 42.175 234.058 41.322 237.538 40.494C247.244 38.1897 256.826 35.4685 266.326 32.4423C271.07 30.9234 275.838 29.4287 280.583 27.8857C282.956 27.1205 285.317 26.3418 287.69 25.564C288.565 25.2735 289.442 24.9464 290.329 24.6318Z" fill="#A1A1A1"/>
<path d="M288.677 31.7227C288.572 32.2949 288.478 32.8922 288.409 33.4789C285.235 34.3107 282.061 35.1425 278.91 36.0235C261.099 40.9584 243.412 46.3217 225.662 51.4765C225.676 50.7789 225.726 50.0831 225.8 49.4125C229.811 48.2999 233.821 47.1988 237.842 46.1113C254.852 41.4824 271.838 36.8418 288.677 31.7227Z" fill="#A1A1A1"/>
<path d="M288.038 40.263L288.037 40.2746C285.759 40.8768 283.468 41.4905 281.19 42.1042C270.98 44.864 260.773 47.5881 250.597 50.4213C245.552 51.8282 240.517 53.2718 235.493 54.753C232.425 55.663 229.379 56.6453 226.311 57.5669C226.149 56.9445 226.024 56.3115 225.923 55.6919C229.645 54.6961 233.397 53.8112 237.107 52.827C247.327 50.1038 257.485 47.1491 267.632 44.1808C274.439 42.193 281.246 40.1926 288.041 38.1787C288.015 38.8764 288.014 39.575 288.038 40.263Z" fill="#A1A1A1"/>
<path d="M288.628 45.5936C286.445 46.2613 284.261 46.9281 282.078 47.5959C272.487 50.4966 262.897 53.3732 253.306 56.2507C245.25 58.667 237.193 61.0949 229.137 63.4986C228.748 62.9717 228.397 62.4477 228.096 61.9016C232.177 60.8526 236.258 59.7806 240.331 58.6593C256.486 54.1905 272.44 49.0974 288.302 43.71C288.377 44.3517 288.489 44.9837 288.628 45.5936Z" fill="#A1A1A1"/>
<path d="M290.889 50.3028C290.604 49.7258 289.975 49.6283 289.419 49.8203C274.49 54.9771 259.608 60.2661 244.641 65.3168C240.622 66.6735 236.589 67.9917 232.58 69.3774C232.202 68.59 231.633 67.8576 231.214 67.1058C230.699 66.1833 230.219 65.2386 229.79 64.2746C228.905 62.282 228.252 60.2063 227.821 58.0747C226.972 53.8819 226.958 49.4951 227.862 45.3081C228.365 42.9777 229.13 40.6975 230.135 38.5292C230.14 38.5263 230.144 38.5215 230.149 38.5176C245.821 33.2808 261.598 28.3247 277.5 23.8038C282.009 22.5223 286.527 21.2756 291.047 20.0337C292.264 19.6998 291.873 17.7959 290.65 18.1375C265.332 25.2242 253.485 28.8062 243.057 32.311C238.743 33.7613 234.405 35.1412 230.093 36.5964C230.051 36.5819 230.019 36.5597 229.973 36.5481C215.933 33.3107 201.856 30.2083 187.749 27.2642C173.595 24.3104 159.414 21.5081 145.215 18.7773C137.262 17.2468 130.948 16.2018 122.98 14.7533C121.775 14.5343 121.442 16.1873 122.673 16.3938C136.923 18.786 149.494 20.7921 163.656 23.6523C177.717 26.4922 191.727 29.582 205.687 32.8687C213.247 34.6491 220.786 36.4999 228.316 38.3999C224.404 46.469 224.227 55.9286 227.356 64.292C227.794 65.4635 228.295 66.6156 228.887 67.7205C229.499 68.863 230.158 70.2951 231.208 71.0989C231.378 71.2292 231.575 71.2784 231.774 71.2726C231.989 71.4762 232.275 71.5891 232.614 71.4752C240.122 68.9402 247.577 66.2528 255.075 63.6899C262.606 61.1153 270.148 58.5774 277.694 56.0492C281.933 54.6288 286.164 53.1852 290.396 51.7464C290.961 51.5544 291.123 50.7776 290.889 50.3028Z" fill="#7371E3"/>
<path d="M205.039 42.1377C202.122 37.5251 196.442 36.1095 191.283 35.6512C187.719 35.3346 184.129 35.3684 180.608 34.6592C178.24 34.1825 175.263 33.258 174.033 31.0164C173.875 30.3448 173.129 29.8382 172.439 30.4287C170.606 31.9968 168.025 32.8151 165.604 32.7167C162.554 32.5932 159.697 31.4748 156.852 30.4953C151.712 28.7256 145.544 27.0514 140.838 30.7626C136.774 33.9683 135.667 39.6423 138.287 44.0753C139.649 46.3806 141.805 48.0337 144.391 48.8394C147.184 49.7088 150.126 49.6577 153.014 49.4367C156.448 49.1733 160.143 48.8249 163.393 50.1913C165.932 51.2586 167.685 53.1046 168.447 55.7138C168.703 56.5929 169.798 56.5003 170.302 55.9271C170.817 55.9174 171.302 55.6251 171.334 54.9689C171.463 52.2785 174.418 51.1737 176.794 51.3927C179.765 51.6658 182.327 53.3728 184.953 54.6118C190.124 57.0523 196.238 58.4341 201.455 55.3114C203.71 53.9624 205.54 51.7681 206.205 49.236C206.855 46.7657 206.403 44.2934 205.039 42.1377ZM200.098 53.3844C195.023 56.288 188.794 54.7566 183.939 52.2255C181.072 50.7307 178.149 49.0555 174.776 49.3354C172.626 49.5139 170.575 50.7925 169.607 52.6539C168.852 51.4574 167.745 50.4548 166.536 49.7146C164.25 48.3135 161.565 47.7895 158.901 47.6805C155.851 47.556 152.801 47.8059 149.75 47.6274C147.038 47.4682 144.184 46.9307 142.005 45.2352C138.065 42.1705 137.693 36.3932 141.043 32.79C142.848 30.8475 145.415 29.9202 148.066 29.9424C151.086 29.9675 153.909 31.0367 156.677 32.1136C161.521 33.9991 168.398 36.2523 172.984 32.6935C175.451 36.7358 182.005 36.7223 186.198 36.7908C191.618 36.8786 198.165 36.9693 202.076 41.2634C203.648 42.9888 204.622 45.2198 204.267 47.5598C203.898 49.9887 202.236 52.1608 200.098 53.3844Z" fill="#7371E3"/>
<path d="M224.017 65.596C222.327 61.737 221.007 57.7855 220.551 53.585C220.105 49.4742 220.195 44.9186 221.907 41.0838C222.041 40.7856 221.866 40.2848 221.561 40.1391C219.956 39.3729 218.202 38.902 216.483 38.4282C216.029 37.9805 215.093 37.9534 214.817 38.7428C213.281 43.1334 212.618 47.854 212.874 52.4897C213.001 54.7873 213.324 57.0666 213.868 59.3053C214.141 60.4237 214.473 61.5267 214.856 62.6132C215.078 63.2443 215.327 64.3367 215.837 64.9928C215.882 65.1762 215.987 65.3499 216.176 65.4782C217.087 66.0977 218.37 66.1499 219.436 66.3583C220.548 66.5754 221.714 66.6758 222.802 66.9874C223.666 67.2345 224.36 66.3795 224.017 65.596ZM217.539 64.1012C217.392 63.4634 216.983 62.812 216.759 62.2504C216.343 61.2092 215.99 60.1458 215.692 59.0679C215.094 56.9132 214.719 54.6831 214.603 52.4531C214.381 48.2304 214.997 44.0588 216.411 40.0764C217.633 40.5839 218.88 41.0828 220.155 41.4302C219.808 43.3688 219.378 45.2968 219.16 47.2567C218.916 49.4404 218.804 51.6386 218.94 53.832C219.177 57.6504 219.931 61.5402 221.514 65.0662C220.881 65.0054 220.247 64.8848 219.657 64.7574C218.943 64.604 218.251 64.2846 217.539 64.1012Z" fill="#7371E3"/>
<path d="M132.174 48.3997C130.483 44.5408 129.163 40.5892 128.707 36.3887C128.261 32.2779 128.351 27.7223 130.064 23.8875C130.198 23.5893 130.023 23.0885 129.719 22.9428C128.113 22.1766 126.359 21.7057 124.64 21.2319C124.186 20.7842 123.25 20.7571 122.974 21.5465C121.438 25.9371 120.775 30.6577 121.031 35.2935C121.158 37.591 121.481 39.8713 122.026 42.109C122.298 43.2274 122.63 44.3304 123.013 45.4169C123.236 46.048 123.484 47.1404 123.994 47.7966C124.04 47.9799 124.145 48.1536 124.333 48.2819C125.245 48.9014 126.527 48.9536 127.594 49.162C128.705 49.3791 129.871 49.4795 130.959 49.7912C131.822 50.0372 132.517 49.1832 132.174 48.3997ZM125.696 46.9049C125.548 46.2671 125.139 45.6157 124.915 45.0541C124.501 44.0129 124.147 42.9495 123.848 41.8707C123.25 39.7159 122.875 37.4859 122.758 35.2558C122.537 31.0331 123.152 26.8615 124.566 22.8791C125.788 23.3867 127.035 23.8856 128.31 24.233C127.963 26.1716 127.535 28.0996 127.315 30.0594C127.072 32.2432 126.96 34.4404 127.095 36.6348C127.332 40.4531 128.086 44.3429 129.669 47.8689C129.036 47.8081 128.402 47.6875 127.813 47.5601C127.099 47.4077 126.407 47.0883 125.696 46.9049Z" fill="#7371E3"/>
<path d="M229.93 50.2324L237.97 47.873C237.97 47.873 242.867 50.243 242.374 54.9607C241.879 59.6795 246.512 62.9217 246.512 62.9217L236.911 66.1033C231.862 61.5409 238.923 52.9015 229.93 50.2324Z" fill="#DC7643"/>
<path d="M10.2014 195.408L108.724 129.752L200.366 149.744C199.616 151.949 199.223 154.124 199.119 156.24C198.653 164.529 202.458 171.895 205.589 176.471C207.698 179.546 209.503 181.363 209.503 181.363L106.845 251.807L18.1999 216.619C18.1999 216.619 5.6262 208.559 10.2014 195.408Z" fill="#A974C0"/>
<path d="M15.3176 198.558L100.915 225.072L199.118 156.24C198.652 164.529 202.458 171.895 205.588 176.471L104.981 245.042L22.2507 214.749C22.2507 214.749 13.1828 209.138 15.3176 198.558Z" fill="#FDF9F7"/>
<mask id="mask3_3649_1682" style="mask-type:luminance" maskUnits="userSpaceOnUse" x="14" y="156" width="192" height="90">
<path d="M15.3176 198.558L100.915 225.072L199.118 156.24C198.652 164.529 202.458 171.895 205.588 176.471L104.981 245.042L22.2507 214.749C22.2507 214.749 13.1828 209.138 15.3176 198.558Z" fill="white"/>
</mask>
<g mask="url(#mask3_3649_1682)">
<path d="M103.141 230.759C116.605 221.488 130.004 212.118 143.282 202.592C156.531 193.086 169.518 183.234 182.688 173.622C186.387 170.922 190.079 168.212 193.761 165.488C197.475 162.74 201.286 160.073 204.888 157.186C205.905 156.372 204.533 155.003 203.515 155.746C200.229 158.144 197.079 160.742 193.86 163.23C190.638 165.719 187.41 168.202 184.177 170.677C177.706 175.63 171.182 180.511 164.594 185.314C158.079 190.064 151.441 194.659 144.866 199.328C138.198 204.065 131.53 208.803 124.826 213.492C117.329 218.737 109.777 223.907 102.203 229.044C101.165 229.749 102.099 231.476 103.141 230.759Z" fill="#A1A1A1"/>
<path d="M105.944 241.324C119.56 232.271 133.115 223.118 146.549 213.806C159.955 204.514 173.105 194.872 186.433 185.473C190.177 182.833 193.913 180.183 197.639 177.519C201.399 174.831 205.255 172.227 208.905 169.398C209.934 168.6 208.585 167.209 207.555 167.935C204.228 170.281 201.036 172.829 197.776 175.263C194.513 177.701 191.245 180.131 187.97 182.553C181.416 187.401 174.813 192.178 168.147 196.875C161.553 201.519 154.84 206.006 148.187 210.57C141.44 215.199 134.694 219.829 127.913 224.411C120.33 229.534 112.694 234.583 105.034 239.597C103.986 240.283 104.89 242.025 105.944 241.324Z" fill="#A1A1A1"/>
<path d="M105.722 236.267C112.259 231.507 118.847 226.818 125.407 222.089C132.012 217.328 138.645 212.599 145.42 208.072C158.889 199.073 172.13 189.755 185.399 180.477C192.866 175.256 200.357 170.07 207.848 164.882C208.352 164.533 208.612 163.948 208.302 163.372C208.043 162.892 207.26 162.574 206.764 162.926C193.495 172.324 180.188 181.668 166.89 191.025C153.584 200.388 140.553 210.119 127.111 219.295C119.592 224.427 112.091 229.582 104.54 234.668C103.34 235.475 104.532 237.132 105.722 236.267Z" fill="#A1A1A1"/>
<path d="M105.883 239.736C90.4286 234.216 74.928 228.806 59.3673 223.582C43.8401 218.37 28.1734 213.568 12.6029 208.481C8.2292 207.052 3.85154 205.635 -0.532007 204.235C-4.95487 202.821 -9.36398 201.283 -13.8389 200.039C-15.1009 199.688 -15.4567 201.576 -14.2547 201.97C-10.3685 203.24 -6.39476 204.285 -2.47414 205.45C1.45042 206.615 5.37202 207.789 9.29068 208.972C17.1329 211.34 24.9466 213.79 32.7309 216.338C40.4296 218.859 48.0684 221.565 55.7347 224.18C63.5101 226.83 71.2865 229.479 79.0422 232.186C87.7169 235.212 96.3592 238.324 104.988 241.474C106.172 241.903 107.079 240.163 105.883 239.736Z" fill="#A1A1A1"/>
<path d="M102.938 229.237C87.2984 224.245 71.6169 219.364 55.8813 214.672C40.1801 209.99 24.3532 205.722 8.61366 201.166C4.19177 199.887 -0.233051 198.619 -4.66279 197.367C-9.13283 196.105 -13.5931 194.716 -18.1093 193.625C-19.3831 193.317 -19.672 195.216 -18.4562 195.568C-14.5277 196.705 -10.5196 197.615 -6.55971 198.646C-2.59682 199.677 1.36409 200.716 5.32206 201.766C13.2439 203.867 21.1382 206.05 29.008 208.333C36.7902 210.59 44.5204 213.036 52.2742 215.389C60.1381 217.774 68.0029 220.158 75.85 222.599C84.625 225.329 93.3724 228.147 102.107 231.001C103.303 231.394 104.148 229.623 102.938 229.237Z" fill="#A1A1A1"/>
<path d="M105.02 234.565C97.2458 232.204 89.4979 229.763 81.7343 227.366C73.9176 224.952 66.1108 222.498 58.3855 219.812C43.0283 214.472 27.5444 209.499 12.0762 204.482C3.37197 201.658 -5.31748 198.794 -14.0089 195.932C-14.5937 195.739 -15.2286 195.879 -15.5186 196.466C-15.7594 196.954 -15.5579 197.762 -14.9751 197.947C0.590481 202.893 16.1354 207.902 31.6852 212.896C47.2448 217.893 62.943 222.454 78.4299 227.67C87.0919 230.587 95.7626 233.477 104.406 236.447C105.779 236.919 106.436 234.996 105.02 234.565Z" fill="#A1A1A1"/>
</g>
<path d="M195.326 150.617C188.657 154.241 182.292 158.546 175.891 162.607C169.594 166.602 163.337 170.656 157.142 174.801C150.79 179.053 144.53 183.44 138.312 187.878C132.253 192.201 126.307 196.71 120.093 200.818C112.878 205.588 105.386 210.028 98.3044 214.978C97.9191 215.247 97.6931 215.574 97.5889 215.919C92.9409 214.225 88.1023 212.912 83.3905 211.422C78.3602 209.832 73.3064 208.367 68.2152 206.98C57.9521 204.185 47.8474 200.856 37.7033 197.672C31.9211 195.858 26.0712 194.145 20.4109 191.984C18.7646 191.355 17.7984 194.038 19.4546 194.462C29.7353 197.088 39.7978 200.726 49.8907 203.965C54.9967 205.603 60.1076 207.208 65.1457 209.04C70.0865 210.837 75.0205 212.632 80.0331 214.228C85.7926 216.062 91.5462 218.212 97.4061 219.709C98.5648 220.005 99.476 219.321 99.7797 218.473C100.12 218.443 100.468 218.325 100.804 218.07C106.802 213.502 112.514 208.577 118.541 204.034C124.579 199.484 130.9 195.344 137.258 191.24C149.891 183.086 162.598 175.037 175.327 167.028C178.901 164.778 182.489 162.552 186.081 160.328C189.745 158.058 193.529 155.922 197.095 153.508C198.692 152.429 197.051 149.68 195.326 150.617Z" fill="#C1A4C8"/>
<path d="M144.305 163.089C141.071 162.149 137.317 162.113 133.863 161.604C130.816 161.155 126.104 158.611 128.243 156.55C129.083 155.74 127.34 154.973 126.441 155.665C124.976 156.302 122.216 157.844 118.712 157.117C115.688 156.49 113.273 154.93 110.853 153.679C106.281 151.314 99.6386 149.978 93.5587 150.963C88.3289 151.81 83.1345 154.414 81.2218 157.923C79.3721 161.318 81.0007 165.164 85.2358 167.008C88.3092 168.345 92.0785 167.916 95.5961 168.33C96.5308 168.44 97.5677 168.636 98.4051 168.99C98.8799 170.054 98.7078 171.243 97.4783 172.508C96.5426 173.471 98.1299 174.709 99.6425 174.066C105.709 171.483 112.32 171.272 117.936 173.677C120.73 174.873 123.21 176.405 126.287 177.308C129.339 178.204 132.76 178.678 136.23 178.418C141.69 178.008 147.324 175.629 149.355 171.974C151.368 168.351 149.269 164.533 144.305 163.089Z" fill="#C1A4C8"/>
<path d="M311.89 33.3761C311.971 32.9843 311.799 32.6755 311.506 32.4922C311.24 32.3262 310.921 32.2702 310.646 32.111C310.394 31.9653 310.156 31.7916 309.926 31.6015C309.432 31.1933 308.991 30.7089 308.625 30.1463C307.893 29.0202 307.472 27.6722 307.385 26.2672C307.37 26.0365 307.227 25.8985 307.06 25.8493C306.789 25.5733 306.211 25.7924 306.226 26.3569C306.269 27.9221 305.854 29.4959 305.057 30.7591C304.702 31.3207 304.289 31.8042 303.803 32.2123C303.57 32.4092 303.327 32.5877 303.071 32.7402C302.763 32.9235 302.429 33.047 302.219 33.3838C302.084 33.599 302.112 33.8528 302.227 34.0419C302.27 34.2011 302.377 34.3362 302.568 34.3681C304.897 34.7512 306.87 36.9494 306.88 39.7671C306.882 40.1849 307.087 40.5478 307.475 40.5642C307.558 40.595 307.644 40.6105 307.728 40.5979C308.07 40.5439 308.247 40.1965 308.234 39.825C308.141 37.2225 309.473 34.8766 311.56 33.9512C311.778 33.8547 311.862 33.6569 311.859 33.4562C311.868 33.4272 311.885 33.4041 311.89 33.3761ZM308.212 35.4334C307.873 35.967 307.629 36.5509 307.439 37.154C306.702 35.5096 305.447 34.206 303.913 33.6579C304.119 33.5015 304.328 33.3491 304.519 33.1667C305.059 32.6485 305.556 32.0425 305.954 31.3728C306.397 30.6288 306.718 29.8125 306.927 28.9585C307.146 29.6388 307.433 30.2921 307.803 30.8952C308.212 31.5591 308.695 32.1641 309.244 32.6746C309.504 32.9158 309.779 33.1329 310.067 33.325C310.109 33.3529 310.151 33.3819 310.193 33.4108C309.419 33.9116 308.741 34.5997 308.212 35.4334Z" fill="white"/>
<path d="M101.65 10.8185C101.731 10.4267 101.559 10.1179 101.266 9.93456C101.001 9.76859 100.681 9.71262 100.406 9.5534C100.154 9.40769 99.9166 9.23399 99.6866 9.04389C99.1922 8.63571 98.7509 8.1513 98.3853 7.58872C97.6531 6.4626 97.2324 5.11454 97.1449 3.70954C97.1302 3.47891 96.9877 3.34092 96.8206 3.29171C96.5493 3.01573 95.9714 3.23478 95.9861 3.79929C96.0294 5.36447 95.6146 6.93833 94.8175 8.20147C94.4627 8.76309 94.0489 9.24653 93.5634 9.65471C93.3305 9.85157 93.0877 10.0291 92.8312 10.1825C92.5235 10.3659 92.1894 10.4885 91.979 10.8262C91.8444 11.0414 91.8739 11.2952 91.9879 11.4843C92.0301 11.6435 92.1373 11.7786 92.3279 11.8095C94.6573 12.1926 96.6299 14.3918 96.6407 17.2085C96.6427 17.6263 96.8471 17.9892 97.2354 18.0056C97.3179 18.0364 97.4044 18.0519 97.4879 18.0393C97.83 17.9853 98.0069 17.6379 97.9941 17.2664C97.9017 14.6639 99.2335 12.318 101.32 11.3926C101.538 11.2961 101.624 11.0983 101.619 10.8976C101.629 10.8696 101.645 10.8455 101.65 10.8185ZM97.9725 12.8758C97.6334 13.4094 97.3897 13.9932 97.199 14.5963C96.4628 12.952 95.2077 11.6483 93.6735 11.1002C93.8799 10.9439 94.0882 10.7914 94.2789 10.6091C94.8195 10.0909 95.3168 9.48488 95.7149 8.8152C96.1572 8.0712 96.4786 7.25484 96.6869 6.40084C96.9061 7.08115 97.1931 7.7354 97.5636 8.33754C97.9725 9.00144 98.4551 9.60647 99.0045 10.1169C99.264 10.3582 99.5392 10.5753 99.8271 10.7673C99.8694 10.7953 99.9117 10.8243 99.953 10.8532C99.1795 11.354 98.5013 12.042 97.9725 12.8758Z" fill="white"/>
<path d="M355.556 121.775C355.637 121.383 355.465 121.074 355.172 120.891C354.906 120.725 354.587 120.669 354.312 120.509C354.06 120.364 353.822 120.19 353.592 120C353.098 119.592 352.657 119.106 352.291 118.545C351.559 117.419 351.138 116.071 351.051 114.665C351.036 114.434 350.893 114.296 350.726 114.247C350.455 113.971 349.877 114.19 349.892 114.754C349.935 116.32 349.52 117.893 348.723 119.157C348.368 119.718 347.955 120.202 347.469 120.61C347.236 120.807 346.993 120.984 346.737 121.138C346.429 121.321 346.095 121.444 345.886 121.781C345.751 121.996 345.779 122.25 345.894 122.439C345.937 122.599 346.044 122.734 346.235 122.766C348.564 123.149 350.536 125.347 350.547 128.165C350.548 128.582 350.754 128.945 351.142 128.962C351.224 128.992 351.311 129.008 351.395 128.995C351.737 128.941 351.913 128.594 351.901 128.222C351.808 125.62 353.14 123.274 355.227 122.349C355.445 122.252 355.53 122.054 355.525 121.854C355.534 121.826 355.551 121.803 355.556 121.775ZM351.878 123.832C351.539 124.365 351.295 124.949 351.105 125.552C350.368 123.908 349.113 122.604 347.579 122.056C347.785 121.9 347.994 121.747 348.185 121.565C348.725 121.047 349.222 120.441 349.62 119.771C350.063 119.027 350.384 118.211 350.593 117.357C350.812 118.037 351.099 118.69 351.469 119.294C351.878 119.957 352.361 120.563 352.91 121.073C353.17 121.314 353.445 121.531 353.733 121.723C353.775 121.751 353.817 121.781 353.859 121.809C353.086 122.311 352.407 122.998 351.878 123.832Z" fill="white"/>
<path d="M24.4127 92.6671C24.4933 92.2753 24.3213 91.9665 24.0284 91.7832C23.763 91.6172 23.4436 91.5612 23.1684 91.402C22.9167 91.2563 22.6789 91.0826 22.4489 90.8925C21.9545 90.4843 21.5132 89.9999 21.1476 89.4374C20.4154 88.3112 19.9947 86.9632 19.9072 85.5582C19.8925 85.3275 19.75 85.1896 19.5829 85.1403C19.3116 84.8644 18.7337 85.0834 18.7484 85.6479C18.7917 87.2131 18.3769 88.787 17.5798 90.0501C17.226 90.6117 16.8112 91.0952 16.3257 91.5034C16.0928 91.7002 15.849 91.8778 15.5935 92.0312C15.2868 92.2145 14.9517 92.3371 14.7413 92.6748C14.6077 92.89 14.6362 93.1438 14.7502 93.3329C14.7924 93.4922 14.8996 93.6273 15.0902 93.6591C17.4196 94.0422 19.3922 96.2414 19.403 99.0581C19.404 99.4759 19.6094 99.8388 19.9977 99.8552C20.0802 99.8861 20.1667 99.9015 20.2502 99.8889C20.5923 99.8349 20.7692 99.4875 20.7564 99.116C20.663 96.5135 21.9958 94.1676 24.0824 93.2422C24.3006 93.1457 24.3861 92.9479 24.3812 92.7472C24.391 92.7173 24.4068 92.6941 24.4127 92.6671ZM20.7338 94.7235C20.3947 95.2571 20.151 95.8409 19.9603 96.444C19.2241 94.7997 17.969 93.496 16.4348 92.9479C16.6412 92.7916 16.8496 92.6391 17.0402 92.4567C17.5808 91.9386 18.0781 91.3326 18.4762 90.6629C18.9185 89.9189 19.2399 89.1025 19.4482 88.2485C19.6674 88.9288 19.9544 89.5821 20.3249 90.1852C20.7338 90.8491 21.2164 91.4541 21.7658 91.9646C22.0253 92.2059 22.3005 92.423 22.5885 92.615C22.6297 92.643 22.673 92.6719 22.7143 92.7009C21.9417 93.2027 21.2636 93.8907 20.7338 94.7235Z" fill="white"/>
</svg>
